<?xml version="1.0" encoding="utf-8"?>
<!-- Generator: Adobe Illustrator 19.0.0, SVG Export Plug-In . SVG Version: 6.00 Build 0)  -->
<svg xmlns="http://www.w3.org/2000/svg" xmlns:xlink="http://www.w3.org/1999/xlink" version="1.1" viewBox="220 78 402 426" style="enable-background:new 220 78 402 426;" xml:space="preserve">
<style type="text/css">
	.st0{opacity:0.25;fill:#AFDFE4;}
	.st1{display:none;}
	.st2{display:inline;}
	.st3{fill:#010101;}
	.st4{fill:#FFFFFF;}
	.st5{fill-rule:evenodd;clip-rule:evenodd;}
	.st6{fill-rule:evenodd;clip-rule:evenodd;fill:#DEB408;}
	.st7{fill-rule:evenodd;clip-rule:evenodd;fill:#00539F;}
	.st8{fill-rule:evenodd;clip-rule:evenodd;fill:#A2224C;}
	.st9{fill-rule:evenodd;clip-rule:evenodd;fill:#FFFFFF;}
	.st10{fill-rule:evenodd;clip-rule:evenodd;fill:#E03A3E;}
	.st11{fill-rule:evenodd;clip-rule:evenodd;fill:#FFDF1C;}
</style>


<g id="Vector_Logo">
	<g>
		<path class="st5" d="M480.5,83.6c-19.8,13.8-38.9,20.2-60.1,20.2c-21.2,0-40.3-6.4-60.1-20.2l-5.2-3.6l-5.2,3.5    c-22.4,14.8-40.6,17.5-68.4,17.5c-9.6,0-19.9-1.8-29.8-5.2l-6.6-2.3l-4,5.7c-2.1,3-3.7,5-5.3,6.8c-1.9,2.3-3.7,4.5-5.8,7.8    l-3.4,5.4l3.8,5.1c17,22.6,23.4,45.8,23.4,67.6c0,40.7-22.3,76.7-39.8,94.9l-6.3,6.6l6.4,6.4c3.5,3.5,9.6,9.8,14.7,15.2    c0,0.2-0.2,2.8-0.2,2.8l0,0.5c-0.2,4-0.3,7.9-0.3,11.7c0,41.4,12.2,75.7,36.4,102.3c28,30.8,71.8,49.2,123.6,52    c12.9,11.7,25.9,21.4,26.5,21.9l5.5,4.1l5.5-4.1c0.6-0.4,13.6-10.1,26.4-21.8c51.8-2.9,95.6-21.2,123.6-52    c24.2-26.6,36.4-61,36.4-102.3c0-3.8-0.1-7.7-0.3-11.7l0-0.1l0-0.5c0,0-0.2-2.5-0.2-2.7c4.7-5,11.1-11.6,14.7-15.2l6.4-6.4    l-6.3-6.6c-17.5-18.2-39.8-54.2-39.8-94.9c0-21.8,6.4-45,23.4-67.6l3.8-5.1l-3.4-5.4c-2.1-3.4-3.9-5.5-5.8-7.8    c-1.5-1.9-3.1-3.8-5.2-6.8l-4-5.7l-6.6,2.3c-9.9,3.4-20.2,5.2-29.8,5.2c-27.8,0-46-2.7-68.4-17.5l-5.2-3.5L480.5,83.6L480.5,83.6z    "/>
		<path class="st6" d="M420.4,498.8c0,0-14.8-11-28.2-23.5c-87.4-3.6-159.8-52.7-154.3-156.5c0.3-2.7,0.1-2.6,0.5-7.2    c-5-5.3-13.3-14-17.7-18.3c31.4-32.5,68-107,17.2-174.5c3.3-5.4,5.8-7.2,10.7-14.2c10.2,3.5,21.4,5.7,32.8,5.7    c29.1,0,49-2.9,73.5-19.1c19.3,13.4,40.3,21.8,65.4,21.8c25.1,0,46.1-8.4,65.4-21.8c24.5,16.2,44.3,19.1,73.5,19.1    c11.3,0,22.6-2.2,32.8-5.7c5,7.1,7.4,8.9,10.7,14.2c-50.8,67.5-14.2,142,17.2,174.5c-4.4,4.4-12.7,13-17.7,18.3    c0.5,4.7,0.2,4.5,0.5,7.2c5.5,103.9-66.8,152.9-154.3,156.5C435.2,487.8,420.4,498.8,420.4,498.8L420.4,498.8z"/>
		<path class="st5" d="M254.6,312.6h-1.2l-0.5,4.5l-0.4,2.9c-2,40,7.9,72.3,29.6,96.1c24.9,27.3,65.2,42.9,116.7,45c0,0,0.9,0,0.9,0    c15.4,0.1,30,0.2,42.4,0c51.5-2.1,91.8-17.7,116.7-45c21.7-23.8,31.7-56.1,29.6-96.1c0-0.1-0.4-3-0.4-3l-0.5-4.4l-1.2-0.1H254.6    L254.6,312.6z"/>
		<path class="st7" d="M255.8,315.4c-0.1,1-0.3,2.1-0.3,2.1s-0.4,2.7-0.4,2.7c-0.2,3.3-0.3,6.6-0.3,9.8c0,34.7,9.8,62.9,29.2,84.2    c4.6,5.1,9.8,9.7,15.5,14V315.4C273.5,315.4,256.4,315.4,255.8,315.4L255.8,315.4z"/>
		<path class="st7" d="M585.6,320.3l-0.4-2.7c0,0-0.1-1.1-0.2-2.1c-0.6,0-17.7,0-43.8,0v112.8c5.7-4.2,10.9-8.9,15.5-14    c19.4-21.3,29.2-49.6,29.2-84.2C585.8,326.9,585.8,323.6,585.6,320.3L585.6,320.3z"/>
		<path class="st8" d="M348,315.4c-17.9,0-34.4,0-48.3,0v112.8c13.4,9.9,29.6,17.5,48.3,22.6V315.4L348,315.4z"/>
		<path class="st8" d="M492.8,315.4v135.4c18.7-5.1,34.9-12.7,48.3-22.6V315.4C527.2,315.4,510.7,315.4,492.8,315.4L492.8,315.4z"/>
		<path class="st7" d="M374.1,384.9c0-16.7,8.9-31.4,22.1-39.5v-30c-16.7,0-33,0-48.3,0v135.4c14.6,4,30.8,6.5,48.3,7.4v-33.8    C383,416.3,374.1,401.6,374.1,384.9L374.1,384.9z"/>
		<path class="st7" d="M444.5,315.4v30c13.3,8.1,22.1,22.8,22.1,39.5c0,16.7-8.9,31.4-22.1,39.5v33.8c17.5-0.9,33.7-3.4,48.3-7.4    V315.4C477.5,315.4,461.2,315.4,444.5,315.4L444.5,315.4z"/>
		<path class="st8" d="M444.5,345.4v-30c-16,0-32.3,0-48.3,0v30c7-4.3,15.3-6.8,24.1-6.8C429.2,338.6,437.5,341.1,444.5,345.4    L444.5,345.4z"/>
		<path class="st8" d="M396.3,424.4v33.8c0.9,0,1.7,0.1,2.6,0.1l0.8,0c15.4,0.1,30,0.2,42.3,0c0.9,0,1.7-0.1,2.6-0.1v-33.8    c-7,4.3-15.3,6.8-24.1,6.8C411.6,431.2,403.3,428.7,396.3,424.4L396.3,424.4z"/>
		<path class="st6" d="M396.8,393.3c-8.4-7.6-8.4-23.1-6.2-33.4c0.6-2.9,1.4-5.7,2.2-8.9c-9.8,8-16.1,20.2-16.1,33.9    c0,5.8,1.1,11.3,3.2,16.4c0.7,0.1,1.5,0.2,2.3,0.2C388.6,401.4,393.9,398.5,396.8,393.3L396.8,393.3z"/>
		<path class="st6" d="M441.8,396.7c-1.4,7.3-9.3,12.8-16.6,17.2c-7.6,4.5-19.9,6.9-29.1,7.3c7,4.7,15.4,7.4,24.4,7.4    c16.5,0,30.8-9.1,38.3-22.6C457.4,395.2,447.1,394,441.8,396.7L441.8,396.7z"/>
		<path class="st6" d="M392.6,418.6c9.1,0.1,23.1-2.2,31.1-7c10.4-6.2,18.4-12.8,14.6-22c-1.9-4.6-8.4-10-16.7-4.1    c-0.5,6.8-9,12.9-15,12.1c-3.1-0.4-5.6-1.4-7.8-2.8c-3.4,5.8-9.5,9.1-16.7,9.1c-0.4,0-0.7,0-1.1,0    C383.9,409.7,387.8,414.7,392.6,418.6L392.6,418.6z"/>
		<path class="st6" d="M420.3,357.7c7.2-3,17.2,0.9,24.9,5.2c7.2,4,14.7,11.5,18.8,19.4c-1.4-22.8-20.2-40.8-43.2-41    C413.9,345.8,414.8,354.3,420.3,357.7L420.3,357.7z"/>
		<path class="st6" d="M419.1,385.6c-8.9-6.5-8.4-16.8-4.5-22.9c0.9-1.5,2-2.7,3.3-3.6c-5.2-4.2-6.2-12.2-1.2-17.7    c-7.5,0.7-14.5,3.2-20.5,7.2c-1.9,8.2-4.3,15.7-4.2,24.3c0.2,11.5,4.9,21,15.1,22.2C411.7,395.7,418.5,390.7,419.1,385.6    L419.1,385.6z"/>
		<path class="st6" d="M463.9,388.9c-2.5-9-11.5-19-20-23.8c-10.6-5.9-22.1-9.1-27.2-1.1c-3.3,5.2-3.7,13.7,3.7,19.2    c10-6.9,18.1-0.2,20.4,5.4c0.7,1.8,1.1,3.5,1.2,5.1c5.9-2.1,15.6-0.7,18.5,8.5C462.3,398.1,463.5,393.6,463.9,388.9L463.9,388.9z"/>
		<path class="st5" d="M380.6,262.3H350v42.9h9.3c0,0,0-16.9,0-17.7c0.8,0,12.7,0,12.7,0v-9.1c0,0-11.8,0-12.7,0c0-0.7,0-6.3,0-7    c0.9,0,21.7,0,21.7,0v-9.1H380.6L380.6,262.3z"/>
		<path class="st5" d="M398.3,283.7c0,13.4,7.4,22.1,18.8,22.1c7.5,0,12.8-3.3,16-9.7l0.2-0.4l-7.8-4.6l-0.2,0.4    c-2.2,3.7-4.4,5.1-7.8,5.1c-5.7,0-9.5-5.2-9.5-12.9c0-7.9,3.6-12.9,9.5-12.9c3.4,0,5.8,1.4,7.3,4.3l0.2,0.4l8.6-4l-0.2-0.4    c-3-6.3-8.5-9.6-15.8-9.6C406.2,261.6,398.3,270.7,398.3,283.7L398.3,283.7z"/>
		<path class="st5" d="M485.2,282c2.6-1.8,4.1-4.7,4.1-8.1c0-7.2-5.2-11.6-13.8-11.6h-19.3h-0.4v42.9h19.5c9.6,0,15.4-5.2,15.4-14    C490.8,287.1,488.7,283.8,485.2,282L485.2,282z M464.9,270.9c0.8,0,10.2,0,10.2,0c4.2,0,4.7,1.9,4.7,3.6c0,2.4-1.4,3.5-4.3,3.5    c0,0-9.8,0-10.7,0C464.9,277.3,464.9,271.7,464.9,270.9L464.9,270.9z M475.7,296.3c0,0-9.9,0-10.7,0c0-0.8,0-9.2,0-10    c0.8,0,10.7,0,10.7,0c3.8,0,5.6,1.6,5.6,5C481.2,294.6,479.3,296.3,475.7,296.3L475.7,296.3z"/>
		<path class="st5" d="M485.3,108.8c-20.8,12.6-42,18.7-64.9,18.7c-22.9,0-44.1-6.1-64.9-18.7l-0.7-0.4l-0.7,0.4    c-23.7,13.4-44.5,16-72.6,16c-6.7,0-13.7-0.7-20.6-2l-3-0.6l1.5,2.6c28.8,49.2,18.6,96.8,4.9,128.1l-0.8,1.9h313.8l-0.8-1.9    c-13.6-31.3-23.8-78.9,4.9-128.1l1.5-2.6l-3,0.6c-7,1.3-13.9,2-20.6,2c-28,0-48.9-2.6-72.6-16l-0.7-0.4L485.3,108.8L485.3,108.8z"/>
		<path class="st9" d="M324.2,123.6c-13.1,3.1-26.8,4-42.6,4c-6,0-12.2-0.6-18.4-1.7c7.4,13.1,12,26.2,14.7,38.8c17,0,45.6,0,46.3,0    C324.2,164.1,324.2,141.9,324.2,123.6L324.2,123.6z"/>
		<path class="st9" d="M419,164.7v-34.4c-16.6-0.2-32.4-3.6-47.8-10.2c0,18.8,0,44,0,44.6C371.7,164.7,394.6,164.7,419,164.7    L419,164.7z"/>
		<path class="st9" d="M279.1,211.8c-2.2,15.1-6.6,28.7-11.5,40.3c1.1,0,23.8,0,56.5,0c0-17.3,0-39.7,0-40.3    C323.5,211.8,296.3,211.8,279.1,211.8L279.1,211.8z"/>
		<path class="st9" d="M371.3,252.1c15.4,0,31.6,0,47.8,0v-40.3c-24.5,0-47.3,0-47.8,0C371.3,212.4,371.3,234.8,371.3,252.1    L371.3,252.1z"/>
		<path class="st10" d="M371.3,164.7c0-0.6,0-25.8,0-44.6c-5.6-2.4-11.1-5.2-16.5-8.5c-10.5,5.8-20.4,9.6-30.6,12    c0,18.3,0,40.5,0,41.1c-0.7,0-29.3,0-46.3,0c1.9,9.2,2.8,18.2,2.8,26.9c0,7-0.5,13.7-1.5,20.2c17.2,0,44.3,0,45,0    c0,0.6,0,23.1,0,40.3c14.2,0,30.2,0,47.1,0c0-17.3,0-39.7,0-40.3c0.5,0,23.3,0,47.8,0v-47.1C394.6,164.7,371.7,164.7,371.3,164.7    L371.3,164.7z"/>
		<path class="st11" d="M486.1,111.5C486.1,111.6,486,111.6,486.1,111.5L486,252.1c5.7,0,11.2,0,16.6,0V119.3    C497.1,117.2,491.7,114.7,486.1,111.5L486.1,111.5z"/>
		<path class="st11" d="M452.9,125.9v126.2c5.6,0,11.1,0,16.6,0v-132C464,122.4,458.5,124.4,452.9,125.9L452.9,125.9z"/>
		<path class="st11" d="M421.8,130.3v121.8c4.9,0,9.7,0,14.5,0V129.2C431.5,129.9,426.7,130.2,421.8,130.3L421.8,130.3z"/>
		<path class="st11" d="M519.1,124.1v128c5.9,0,11.4,0,16.6,0V126.6C530,126.1,524.5,125.3,519.1,124.1L519.1,124.1z"/>
		<path class="st11" d="M560.2,191.6c0-20.6,4.8-42.9,17.5-65.7c-6.2,1-12.4,1.7-18.4,1.7c-2.4,0-4.7,0-7-0.1v124.6    c12.6,0,20.2,0,20.9,0C566.1,235.5,560.2,214.7,560.2,191.6L560.2,191.6z"/>
		<path class="st10" d="M535.7,126.6v125.5c6.2,0,11.7,0,16.6,0V127.5C546.5,127.4,541,127.1,535.7,126.6L535.7,126.6z"/>
		<path class="st10" d="M436.3,129.2v122.9c5.6,0,11.1,0,16.6,0V125.9C447.4,127.4,441.9,128.5,436.3,129.2L436.3,129.2z"/>
		<path class="st10" d="M469.4,120.1v132c5.6,0,11.2,0,16.6,0V111.6C480.5,114.9,475,117.7,469.4,120.1L469.4,120.1z"/>
		<path class="st10" d="M502.6,119.3v132.9c5.8,0,11.3,0,16.6,0v-128C513.5,122.9,508.1,121.3,502.6,119.3L502.6,119.3z"/>
	</g>
</g>
</svg>
