<svg width="345" height="262" viewBox="0 0 345 262" fill="none" xmlns="http://www.w3.org/2000/svg">
<path d="M218.064 60.7934C228.622 70.0046 239.18 79.2157 249.738 88.4269C261.927 92.984 261.927 92.984 275.078 96.3715C303.689 104.66 315.793 116.15 332.091 138.167C323.632 160.307 311.773 163.891 289.331 176.163C240.634 202.127 240.634 202.127 211.729 243.175C197.096 243.175 182.462 243.175 167.386 243.175C167.9 239.904 168.414 236.634 168.944 233.265C171.656 207.303 171.656 207.303 159.739 184.367C133.783 166.76 106.586 161.289 74.4664 157.273C58.9017 154.612 47.7395 151.102 34.3541 143.694C24.7894 123.931 19.6144 103.984 15.3496 82.9002C48.2794 70.2875 63.9788 74.4228 97.7024 82.9002C141.186 83.292 178.801 53.9425 218.064 60.7934ZM159.071 86.3544C115.018 98.7429 72.4693 90.0874 28.0193 82.9002C30.5479 90.8722 33.2147 98.811 35.9378 106.734C37.4077 111.158 38.8776 115.582 40.392 120.141C48.4781 135.382 55.7329 140.904 72.3631 149.221C86.9985 152.134 86.9985 152.134 102.454 153.366C138.558 159.029 165.142 172.403 186.39 198.961C186.39 220.722 186.39 220.722 180.055 237.648C188.417 237.648 196.779 237.648 205.395 237.648C209.032 230.167 209.032 230.167 212.744 222.536C225.662 202.532 237.335 193.934 258.845 180.999C264.847 177.323 270.849 173.647 277.033 169.859C290.928 162.047 304.451 155.272 319.421 149.221C310.41 125.634 293.546 116.208 268.718 104.597C260.04 100.846 251.324 97.1639 242.562 93.565C230.734 88.4269 230.734 88.4269 211.729 77.3735C188.314 77.3735 179.735 79.1932 159.071 86.3544Z" fill="#E0E4E2"/>
<path d="M244.591 93.6084C250.47 97.37 256.35 101.132 262.407 105.007C268.679 108.655 274.95 112.302 281.412 116.061C283.502 121.532 285.593 127.003 287.747 132.641C280.224 140.931 280.224 140.931 268.742 149.221C251.717 150.257 251.717 150.257 237.068 149.221C234.977 156.516 232.887 163.811 230.733 171.328C224.398 160.274 224.398 160.274 221.627 149.912C217.877 137.553 212.296 127.301 205.394 116.061C201.213 117.428 197.032 118.796 192.724 120.206C164.979 122.223 146.609 111.368 123.041 99.4805C123.041 97.6567 123.041 95.8329 123.041 93.9538C200.605 70.2829 200.605 70.2829 244.591 93.6084Z" fill="#387DB8"/>
<path d="M275.076 116.061C290.873 122.714 304.733 129.625 319.42 138.168C319.42 141.815 319.42 145.463 319.42 149.221C306.899 156.583 306.899 156.583 290.122 164.765C235.426 191.503 235.426 191.503 205.393 237.648C197.031 237.648 188.669 237.648 180.054 237.648C182.798 229.27 182.798 229.27 185.597 220.723C186.467 196.801 184.782 194.221 167.78 177.2C161.43 171.458 154.998 165.781 148.38 160.275C152.006 162.084 155.631 163.894 159.367 165.758C174.664 171.695 184.079 172.501 200.642 172.019C208.482 171.791 216.321 171.563 224.398 171.328C225.704 167.908 227.011 164.489 228.357 160.965C240.537 144.543 253.956 142.975 275.076 138.168C275.076 132.696 275.076 127.225 275.076 121.588C275.076 119.764 275.076 117.94 275.076 116.061Z" fill="#164079"/>
<path d="M9.0156 88.4268C33.9651 112.234 33.9651 112.234 35.9386 131.604C35.416 135.594 34.8934 139.583 34.3549 143.694C59.1466 149.391 84.2145 153.134 109.457 156.971C113.94 158.061 118.424 159.151 123.043 160.274C125.133 163.921 127.224 167.569 129.377 171.327C125.025 170.864 120.672 170.401 116.188 169.924C110.48 169.361 104.772 168.798 98.891 168.218C93.232 167.641 87.5729 167.064 81.7424 166.47C65.1818 164.935 65.1818 164.935 47.0246 171.327C47.0246 176.799 47.0246 182.27 47.0246 187.907C50.1603 190.415 53.2961 192.923 56.5268 195.507C66.0291 204.487 66.0291 204.487 67.6128 218.995C66.0291 232.121 66.0291 232.121 59.6942 237.648C44.9152 237.874 30.1293 237.882 15.3504 237.648C15.3504 234 15.3504 230.352 15.3504 226.594C29.9839 226.594 44.6173 226.594 59.6942 226.594C48.6587 207.874 40.9378 199.105 20.4975 187.217C5.90562 177.354 2.99772 173.045 0.008263 156.841C-0.136022 133.145 1.5597 111.274 9.0156 88.4268Z" fill="#BFA660"/>
<path d="M332.091 132.641C336.272 134.465 340.453 136.289 344.761 138.168C341.523 149.468 338.279 160.759 334.863 172.019C331.611 182.402 331.611 182.402 332.091 193.435C313.277 198.906 294.462 204.378 275.078 210.015C275.078 215.486 275.078 220.958 275.078 226.595C285.53 226.595 295.983 226.595 306.752 226.595C304.661 232.066 302.571 237.538 300.417 243.175C287.874 241.351 275.331 239.527 262.408 237.648C262.408 230.353 262.408 223.058 262.408 215.542C249.998 216.167 249.998 216.167 237.069 221.068C229.66 234.464 229.66 234.464 224.399 248.702C211.729 259.755 211.729 259.755 196.288 261.137C180.055 259.755 180.055 259.755 161.051 248.702C160.086 237.713 160.086 237.713 161.447 224.868C162.392 204.408 161.887 200.079 148.381 182.036C144.2 178.502 140.019 174.969 135.711 171.328C153.739 178.378 168.532 184.675 180.055 198.962C178.235 214.844 173.176 228.02 167.386 243.175C182.019 243.175 196.652 243.175 211.729 243.175C212.244 239.976 212.758 236.778 213.288 233.482C227.009 197.82 279.852 172.69 316.056 155.331C327.833 149.167 327.833 149.167 332.091 132.641Z" fill="#687F8E"/>
<path d="M28.0176 82.9004C65.6465 88.3718 65.6465 88.3718 104.036 93.9538C105.273 106.727 106.51 119.5 107.747 132.274C108.613 136.042 109.479 139.811 110.37 143.694C114.551 145.518 118.732 147.342 123.04 149.221C77.9255 151.189 77.9255 151.189 57.7121 144.04C40.5887 125.781 35.5106 105.454 28.0176 82.9004Z" fill="#2D609E"/>
<path d="M244.591 93.6084C250.47 97.37 256.35 101.132 262.407 105.007C268.679 108.655 274.95 112.302 281.412 116.061C283.502 121.532 285.593 127.003 287.747 132.641C280.224 140.931 280.224 140.931 268.742 149.221C251.717 150.257 251.717 150.257 237.068 149.221C234.977 156.516 232.887 163.811 230.733 171.328C224.398 160.274 224.398 160.274 221.627 149.912C217.877 137.553 212.296 127.301 205.394 116.061C201.213 117.428 197.032 118.796 192.724 120.206C164.979 122.223 146.609 111.368 123.041 99.4805C123.041 97.6567 123.041 95.8329 123.041 93.9538C200.605 70.2829 200.605 70.2829 244.591 93.6084Z" fill="#387DB8"/>
<path d="M104.036 99.4805C126.654 103.123 143.168 111.431 162.633 121.933C168.284 124.96 173.935 127.988 179.757 131.108C186.175 134.602 186.175 134.602 192.723 138.167C186.452 140.903 186.452 140.903 180.054 143.694C180.054 147.342 180.054 150.989 180.054 154.747C192.597 158.395 205.14 162.043 218.063 165.801C198.993 170.964 193.569 171.574 173.719 165.801C173.719 162.153 173.719 158.506 173.719 154.747C167.97 155.887 162.221 157.027 156.298 158.202C134.41 160.405 127.909 160.113 110.37 149.221C106.51 137.261 106.51 137.261 105.619 123.66C105.26 119.143 104.901 114.626 104.531 109.973C104.367 106.51 104.204 103.048 104.036 99.4805Z" fill="#4182B9"/>
<path d="M123.041 99.4805C133.624 102.216 133.624 102.216 144.421 105.007C165.45 111.024 165.45 111.024 180.054 110.534C201.582 111.979 209.316 113.605 223.606 128.15C232.206 146.907 230.06 157.544 224.398 176.854C168.562 178.478 168.562 178.478 148.38 165.801C146.29 162.153 144.199 158.506 142.046 154.747C152.498 154.747 162.95 154.747 173.72 154.747C173.72 158.395 173.72 162.043 173.72 165.801C184.172 165.801 194.625 165.801 205.394 165.801C201.343 164.433 197.293 163.065 193.12 161.656C186.653 158.236 186.653 158.236 180.054 154.747C179.271 151.264 178.487 147.78 177.679 144.191C172.291 128.472 164.124 125.66 147.984 117.788C139.599 113.635 131.263 109.402 123.041 105.007C123.041 103.183 123.041 101.36 123.041 99.4805Z" fill="#19508E"/>
<path d="M275.076 116.061C290.873 122.714 304.733 129.625 319.42 138.168C319.42 141.815 319.42 145.463 319.42 149.221C306.899 156.583 306.899 156.583 290.122 164.765C235.426 191.503 235.426 191.503 205.393 237.648C197.031 237.648 188.669 237.648 180.054 237.648C182.798 229.27 182.798 229.27 185.597 220.723C186.467 196.801 184.782 194.221 167.78 177.2C161.43 171.458 154.998 165.781 148.38 160.275C152.006 162.084 155.631 163.894 159.367 165.758C174.664 171.695 184.079 172.501 200.642 172.019C208.482 171.791 216.321 171.563 224.398 171.328C225.704 167.908 227.011 164.489 228.357 160.965C240.537 144.543 253.956 142.975 275.076 138.168C275.076 132.696 275.076 127.225 275.076 121.588C275.076 119.764 275.076 117.94 275.076 116.061Z" fill="#164179"/>
<path d="M34.3535 110.534C47.0232 116.061 47.0232 116.061 51.9475 127.028C58.7463 139.595 58.7463 139.595 75.5547 142.399C81.9486 143.282 88.3426 144.166 94.9303 145.076C135.743 152.903 168.747 168.175 192.724 198.961C191.363 214.065 187.784 224.162 180.055 237.648C190.507 235.824 200.96 234.001 211.729 232.122C211.729 235.769 211.729 239.417 211.729 243.175C197.095 243.175 182.462 243.175 167.385 243.175C169.859 232.381 172.334 221.586 174.809 210.792C174.729 198.194 174.729 198.194 164.613 186.699C141.314 172.569 120.736 173.152 92.9507 172.71C87.9286 172.546 82.9065 172.382 77.7323 172.213C65.3877 171.824 53.038 171.563 40.6883 171.328C32.5596 150.053 33.9327 132.932 34.3535 110.534Z" fill="#B9C6C8"/>
<path d="M28.0176 82.9004C65.6465 88.3718 65.6465 88.3718 104.036 93.9538C105.273 106.727 106.51 119.5 107.747 132.274C108.613 136.042 109.479 139.811 110.37 143.694C114.551 145.518 118.732 147.342 123.04 149.221C77.9255 151.189 77.9255 151.189 57.7121 144.04C40.5887 125.781 35.5106 105.454 28.0176 82.9004Z" fill="#2E609E"/>
<path d="M104.036 99.4805C126.654 103.123 143.168 111.431 162.633 121.933C168.284 124.96 173.935 127.988 179.757 131.108C186.175 134.602 186.175 134.602 192.723 138.167C186.452 140.903 186.452 140.903 180.054 143.694C180.054 147.342 180.054 150.989 180.054 154.747C192.597 158.395 205.14 162.043 218.063 165.801C198.993 170.964 193.569 171.574 173.719 165.801C173.719 162.153 173.719 158.506 173.719 154.747C167.97 155.887 162.221 157.027 156.298 158.202C134.41 160.405 127.909 160.113 110.37 149.221C106.51 137.261 106.51 137.261 105.619 123.66C105.26 119.143 104.901 114.626 104.531 109.973C104.367 106.51 104.204 103.048 104.036 99.4805Z" fill="#4182B9"/>
<path d="M207.77 53.1934C215.348 53.8773 222.926 54.5612 230.734 55.2659C233.617 59.6259 236.499 63.986 239.469 68.4781C252.43 86.6784 261.797 88.6658 284.976 94.6436C318.139 103.327 318.139 103.327 332.091 121.586C330.001 127.058 327.91 132.529 325.756 138.166C317.042 131.039 308.604 123.648 300.417 116.06C300.417 112.412 300.417 108.764 300.417 105.006C295.191 106.488 289.965 107.97 284.58 109.497C259.882 110.651 257.693 108.89 239.048 96.7161C210.803 79.3467 188.709 82.0346 155.508 86.2456C151.066 86.9652 146.623 87.6847 142.046 88.4261C144.137 82.9546 146.227 77.4832 148.381 71.846C164.218 65.6284 164.218 65.6284 180.055 60.7926C186.39 55.2659 186.39 55.2659 207.77 53.1934Z" fill="#BFCCCF"/>
<path d="M123.041 99.4805C133.624 102.216 133.624 102.216 144.421 105.007C165.45 111.024 165.45 111.024 180.054 110.534C201.582 111.979 209.316 113.605 223.606 128.15C232.206 146.907 230.06 157.544 224.398 176.854C168.562 178.478 168.562 178.478 148.38 165.801C146.29 162.153 144.199 158.506 142.046 154.747C152.498 154.747 162.95 154.747 173.72 154.747C173.72 158.395 173.72 162.043 173.72 165.801C184.172 165.801 194.625 165.801 205.394 165.801C201.343 164.433 197.293 163.065 193.12 161.656C186.653 158.236 186.653 158.236 180.054 154.747C179.271 151.264 178.487 147.78 177.679 144.191C172.291 128.472 164.124 125.66 147.984 117.788C139.599 113.635 131.263 109.402 123.041 105.007C123.041 103.183 123.041 101.36 123.041 99.4805Z" fill="#19508E"/>
<path d="M15.349 0C19.53 0 23.711 0 28.0187 0C36.69 24.9651 31.0008 41.9352 21.6838 66.3204C25.9955 66.0924 30.3071 65.8645 34.7494 65.6296C53.358 66.3204 53.358 66.3204 74.3421 71.8471C100.696 78.0821 121.24 78.2046 148.38 77.3738C150.471 82.8452 152.561 88.3167 154.715 93.9539C108.713 102.444 72.6801 94.3949 28.0187 82.9005C30.1091 93.8434 32.1996 104.786 34.3535 116.061C25.9915 114.237 17.6295 112.413 9.01416 110.534C9.01416 103.239 9.01416 95.9435 9.01416 88.4272C13.1951 88.4272 17.3761 88.4272 21.6838 88.4272C19.5933 82.9558 17.5028 77.4843 15.349 71.8471C14.9095 59.5326 14.8132 47.2072 14.9531 34.8873C15.0102 28.3686 15.0674 21.8499 15.1263 15.1337C15.1998 10.1396 15.2733 5.14544 15.349 0Z" fill="#B2C5CC"/>
<path d="M275.078 105.007C300.417 105.007 300.417 105.007 318.234 120.551C322.807 126.365 327.38 132.178 332.091 138.168C323.696 160.14 312.382 163.603 290.123 175.818C259.592 193.014 232.255 210.818 205.395 232.121C214.045 208.097 225.569 196.78 248.155 181.345C253.479 177.619 258.803 173.893 264.289 170.054C282.267 159.786 298.832 154.342 319.421 149.221C314.457 145.003 309.492 140.786 304.376 136.44C287.747 121.587 287.747 121.587 275.078 105.007Z" fill="#D8E0E4"/>
</svg>
