<svg width="814" height="408" viewBox="0 0 814 408" fill="none" xmlns="http://www.w3.org/2000/svg">
<g style="mix-blend-mode:multiply">
<path d="M237.409 217.61C241.59 217.61 245.771 217.61 250.078 217.61C256.579 226.733 262.894 235.957 269.083 245.243C272.48 247.637 275.877 250.031 279.377 252.497C294.017 268.173 292.562 286.241 294.422 306.037C298.17 305.175 301.919 304.313 305.78 303.425C355.499 292.74 355.499 292.74 383.11 300.51C383.11 309.629 383.11 318.748 383.11 328.144C401.924 331.792 420.739 335.439 440.123 339.197C440.123 342.845 440.123 346.493 440.123 350.251C409.95 355.516 382.054 356.238 351.436 355.777C349.885 352.324 348.335 348.87 346.737 345.312C336.877 330.911 330.69 329.152 312.585 324.258C304.93 322.121 304.93 322.121 297.119 319.94C291.787 318.544 286.455 317.147 280.961 315.709C275.579 314.227 270.198 312.745 264.653 311.218C251.373 307.573 238.071 304.008 224.739 300.51C224.739 289.568 224.739 278.625 224.739 267.35C231.01 269.174 237.282 270.998 243.744 272.877C243.744 276.524 243.744 280.172 243.744 283.93C247.924 283.93 252.105 283.93 256.413 283.93C256.413 287.578 256.413 291.226 256.413 294.984C260.594 294.984 264.775 294.984 269.083 294.984C266.167 267.635 257.371 254.976 237.409 234.19C237.409 228.719 237.409 223.247 237.409 217.61Z" fill="#20518C"/>
<path d="M79.0375 40.7563C83.2185 40.7563 87.3995 40.7563 91.7072 40.7563C95.8882 57.1706 100.069 73.5849 104.377 90.4966C108.558 90.4966 112.739 90.4966 117.047 90.4966C119.137 101.44 121.227 112.382 123.381 123.657C129.653 118.185 135.924 112.714 142.386 107.077C144.476 108.901 146.567 110.724 148.721 112.603C158.297 114.767 167.945 116.692 177.623 118.476C182.858 119.452 188.092 120.428 193.485 121.433C197.527 122.167 201.569 122.901 205.734 123.657C207.825 132.776 209.915 141.895 212.069 151.29C171.007 147.076 171.007 147.076 153.472 140.064C131.006 133.16 110.034 133.51 86.5601 134.019C82.1709 134.069 77.7817 134.119 73.2595 134.171C62.5149 134.3 51.7714 134.498 41.0285 134.71C36.8476 125.591 32.6666 116.472 28.3589 107.077C32.0173 105.531 35.6756 103.985 39.4448 102.392C54.0349 95.5193 66.6098 89.0492 79.0375 79.4432C83.277 58.925 83.277 58.925 79.0375 40.7563Z" fill="#3370B2"/>
<path d="M250.078 184.449C265.712 190.815 275.72 195.767 288.087 206.556C337.371 223.317 388.31 231.319 440.123 239.716C440.123 243.364 440.123 247.011 440.123 250.77C428.987 255.807 417.852 260.844 406.716 265.882C393.665 274.228 389.256 282.091 383.109 294.983C337.481 278.634 312.552 256.253 281.752 223.136C275.418 216.687 269.084 210.239 262.747 203.793C250.078 189.976 250.078 189.976 250.078 184.449Z" fill="#3E79AF"/>
<path d="M174.058 18.6491C194.199 17.4232 209.824 18.012 229.092 23.485C251.582 41.5151 258.136 64.518 262.746 90.4962C260.024 103.298 260.024 103.298 256.411 112.603C241.778 105.308 227.144 98.0125 212.067 90.4962C212.067 97.7915 212.067 105.087 212.067 112.603C207.886 112.603 203.705 112.603 199.398 112.603C197.307 105.308 195.217 98.0125 193.063 90.4962C176.339 90.4962 159.615 90.4962 142.384 90.4962C144.475 83.201 146.565 75.9057 148.719 68.3894C159.171 70.2132 169.624 72.0371 180.393 73.9161C178.303 55.678 176.212 37.4399 174.058 18.6491Z" fill="#4B88C0"/>
<path d="M167.725 7.59542C219.623 4.98323 219.623 4.98323 240.971 15.8855C243.976 18.6212 246.981 21.3569 250.077 24.1755C247.987 29.6469 245.896 35.1184 243.742 40.7556C239.3 38.1339 234.858 35.5122 230.281 32.811C211.05 23.6925 195.65 20.8391 174.059 18.6488C178.24 38.7107 182.421 58.7727 186.729 79.4425C167.915 76.7068 167.915 76.7068 148.72 73.9158C146.63 68.4444 144.539 62.973 142.385 57.3357C146.566 57.3357 150.747 57.3357 155.055 57.3357C155.055 60.9833 155.055 64.631 155.055 68.3891C159.236 68.3891 163.417 68.3891 167.725 68.3891C167.725 62.9177 167.725 57.4463 167.725 51.809C163.544 51.809 159.363 51.809 155.055 51.809C155.055 48.1614 155.055 44.5138 155.055 40.7556C127.566 30.6033 127.566 30.6033 98.8332 34.5381C94.3909 36.5899 89.9486 38.6417 85.3717 40.7556C86.6783 46.341 87.9848 51.9265 89.331 57.6811C85.3717 79.4425 85.3717 79.4425 71.7122 90.0426C60.3502 96.7222 48.8163 103.185 37.1181 109.408C20.5234 117.773 20.5234 117.773 9.35377 134.71C17.7811 137.103 17.7811 137.103 26.3786 139.545C44.2196 144.832 61.6214 150.56 79.0369 156.816C79.0369 158.64 79.0369 160.464 79.0369 162.343C54.509 164.381 41.9764 162.757 19.6479 153.017C3.01894 140.236 3.01894 140.236 0 126.786C3.01894 112.603 3.01894 112.603 16.8764 102.801C22.7559 99.8805 28.6354 96.9596 34.6931 93.9501C52.1579 84.6269 52.1579 84.6269 66.3672 73.9158C71.6855 52.9091 71.6855 52.9091 66.3672 35.2289C70.5482 35.2289 74.7292 35.2289 79.0369 35.2289C79.0369 31.5813 79.0369 27.9337 79.0369 24.1755C87.3989 24.1755 95.7608 24.1755 104.376 24.1755C104.376 20.5279 104.376 16.8803 104.376 13.1221C124.159 15.8069 142.359 18.6411 161.39 24.1755C163.48 18.7041 165.571 13.2326 167.725 7.59542Z" fill="#E1E8E9"/>
<path d="M205.733 173.396C216.819 174.086 216.819 174.086 231.073 178.922C243.742 194.121 243.742 194.121 256.412 212.082C274.009 234.002 274.009 234.002 300.756 245.243C307.202 256.247 313.525 267.306 319.76 278.403C332.821 291.193 332.821 291.193 345.1 300.51C308.674 306.036 308.674 306.036 294.421 306.036C293.874 302.766 293.327 299.496 292.763 296.127C286.422 265.014 278.216 249.981 250.077 228.663C250.077 225.015 250.077 221.367 250.077 217.609C245.896 217.609 241.715 217.609 237.407 217.609C241.327 223.65 245.247 229.692 249.285 235.916C251.49 239.315 253.695 242.713 255.966 246.214C262.077 255.3 268.718 264.111 275.416 272.876C276.208 287.729 276.208 287.729 275.416 300.51C269.145 298.686 262.873 296.862 256.412 294.983C256.412 291.335 256.412 287.688 256.412 283.93C252.231 283.93 248.05 283.93 243.742 283.93C233.448 278.403 233.448 278.403 224.738 267.349C223.073 252.325 223.883 238.292 224.738 223.136C220.557 221.312 216.376 219.488 212.068 217.609C216.249 213.961 220.43 210.314 224.738 206.556C216.376 201.084 208.014 195.613 199.398 189.976C201.489 184.504 203.579 179.033 205.733 173.396Z" fill="#3880BD"/>
<path d="M130.903 28.6666C136.587 31.9153 136.587 31.9153 142.385 35.2296C146.566 37.0534 150.747 38.8772 155.055 40.7563C155.055 44.4039 155.055 48.0515 155.055 51.8097C159.236 51.8097 163.417 51.8097 167.724 51.8097C167.724 57.2811 167.724 62.7526 167.724 68.3898C163.543 68.3898 159.362 68.3898 155.055 68.3898C155.055 64.7422 155.055 61.0945 155.055 57.3364C150.874 57.3364 146.693 57.3364 142.385 57.3364C142.385 68.2793 142.385 79.2221 142.385 90.4966C150.486 89.3567 158.586 88.2168 166.933 87.0424C180.74 85.0994 180.74 85.0994 193.064 84.9699C197.245 88.6175 201.426 92.2651 205.733 96.0233C203.643 99.6709 201.552 103.319 199.399 107.077C184.922 109.365 184.922 109.365 167.328 110.531C161.506 110.944 155.684 111.357 149.685 111.783C142.936 112.189 142.936 112.189 136.05 112.603C136.05 116.251 136.05 119.899 136.05 123.657C131.869 123.657 127.688 123.657 123.381 123.657C121.29 112.714 119.2 101.771 117.046 90.4966C112.865 90.4966 108.684 90.4966 104.376 90.4966C98.1046 72.2585 91.8331 54.0204 85.3716 35.2296C113.411 22.9984 113.411 22.9984 130.903 28.6666Z" fill="#5287BA"/>
<path d="M636.502 245.245C650.884 244.797 665.27 244.475 679.658 244.208C687.669 244.016 695.68 243.824 703.933 243.625C725.19 245.245 725.19 245.245 744.194 261.825C727.47 272.768 710.746 283.71 693.515 294.985C689.334 293.161 685.153 291.337 680.846 289.458C672.484 298.577 664.122 307.696 655.506 317.092C642.441 309.147 642.441 309.147 630.167 294.985C629.798 277.986 632.75 261.895 636.502 245.245Z" fill="#336FA9"/>
<path d="M174.059 18.6491C194.2 17.4232 209.824 18.012 229.092 23.485C251.756 41.654 256.759 64.6785 262.746 90.4962C262.746 95.9677 262.746 101.439 262.746 107.076C244.193 103.608 228.785 98.3097 212.067 90.4962C212.067 97.7915 212.067 105.087 212.067 112.603C207.886 112.603 203.706 112.603 199.398 112.603C197.307 105.308 195.217 98.0125 193.063 90.4962C176.339 90.4962 159.615 90.4962 142.384 90.4962C140.686 86.0507 138.987 81.6052 137.237 77.0249C134.755 72.3514 132.272 67.6779 129.715 62.8627C123.443 61.0389 117.172 59.2151 110.71 57.336C110.71 48.217 110.71 39.0979 110.71 29.7025C136.05 29.7025 136.05 29.7025 155.054 40.7559C155.054 44.4036 155.054 48.0512 155.054 51.8093C159.235 51.8093 163.416 51.8093 167.724 51.8093C167.724 57.2808 167.724 62.7522 167.724 68.3894C163.543 68.3894 159.362 68.3894 155.054 68.3894C155.054 64.7418 155.054 61.0942 155.054 57.336C150.873 57.336 146.692 57.336 142.384 57.336C144.475 60.9837 146.565 64.6313 148.719 68.3894C164.729 72.0125 164.729 72.0125 180.393 73.9161C178.303 55.678 176.212 37.4399 174.059 18.6491Z" fill="#4681B9"/>
<path d="M699.851 245.244C735.211 249.957 762.583 262.393 788.538 283.931C793.886 306.482 792.829 316.535 779.036 336.089C775.9 338.939 772.764 341.789 769.534 344.725C763.262 342.901 756.991 341.077 750.529 339.198C746.348 342.846 742.167 346.493 737.86 350.251C721.231 348.179 721.231 348.179 706.185 344.725C706.185 341.077 706.185 337.43 706.185 333.671C710.366 333.671 714.547 333.671 718.855 333.671C714.674 319.081 710.493 304.49 706.185 289.458C699.914 291.282 693.642 293.105 687.181 294.984C673.323 292.567 673.323 292.567 661.842 289.458C663.821 278.75 663.821 278.75 668.176 267.351C674.448 265.527 680.719 263.703 687.181 261.824C691.362 256.353 695.543 250.881 699.851 245.244Z" fill="#1D4882"/>
<path d="M237.409 217.61C241.59 217.61 245.771 217.61 250.078 217.61C256.579 226.733 262.894 235.957 269.083 245.243C272.48 247.637 275.877 250.031 279.377 252.497C294.017 268.173 292.562 286.241 294.422 306.037C298.17 305.175 301.919 304.313 305.78 303.425C355.499 292.74 355.499 292.74 383.11 300.51C383.11 309.629 383.11 318.748 383.11 328.144C401.924 331.792 420.739 335.439 440.123 339.197C440.123 342.845 440.123 346.493 440.123 350.251C409.95 355.516 382.054 356.238 351.436 355.777C349.885 352.324 348.335 348.87 346.737 345.312C336.877 330.911 330.69 329.152 312.585 324.258C304.93 322.121 304.93 322.121 297.119 319.94C291.787 318.544 286.455 317.147 280.961 315.709C275.579 314.227 270.198 312.745 264.653 311.218C251.373 307.573 238.071 304.008 224.739 300.51C224.739 289.568 224.739 278.625 224.739 267.35C231.01 269.174 237.282 270.998 243.744 272.877C243.744 276.524 243.744 280.172 243.744 283.93C247.924 283.93 252.105 283.93 256.413 283.93C256.413 287.578 256.413 291.226 256.413 294.984C260.594 294.984 264.775 294.984 269.083 294.984C266.167 267.635 257.371 254.976 237.409 234.19C237.409 228.719 237.409 223.247 237.409 217.61Z" fill="#20518D"/>
<path d="M79.0375 40.7563C83.2185 40.7563 87.3995 40.7563 91.7072 40.7563C95.8882 57.1706 100.069 73.5849 104.377 90.4966C108.558 90.4966 112.739 90.4966 117.047 90.4966C119.137 101.44 121.227 112.382 123.381 123.657C129.653 118.185 135.924 112.714 142.386 107.077C144.476 108.901 146.567 110.724 148.721 112.603C158.297 114.767 167.945 116.692 177.623 118.476C182.858 119.452 188.092 120.428 193.485 121.433C197.527 122.167 201.569 122.901 205.734 123.657C207.825 132.776 209.915 141.895 212.069 151.29C190.392 149.021 170.634 146.705 150.106 140.064C126.764 133.935 107.318 133.619 82.9968 134.019C71.1643 134.169 71.1643 134.169 59.0927 134.322C50.1509 134.514 50.1509 134.514 41.0285 134.71C36.8476 125.591 32.6666 116.472 28.3589 107.077C32.0173 105.531 35.6756 103.985 39.4448 102.392C54.0349 95.5193 66.6098 89.0492 79.0375 79.4432C83.277 58.925 83.277 58.925 79.0375 40.7563Z" fill="#336FB2"/>
<path d="M174.06 2.06873C196.149 -1.07753 211.767 -2.03501 230.554 9.58159C259.695 35.8187 269.607 61.3042 277.842 96.6487C281.274 110.654 285.727 122.594 292.046 135.746C302.682 158.823 305.193 181.887 307.091 206.557C311.975 206.891 316.858 207.226 321.889 207.571C328.242 208.034 334.595 208.497 341.141 208.975C347.461 209.423 353.782 209.872 360.294 210.335C376.774 212.083 376.774 212.083 389.444 217.61C408.972 218.699 428.486 219.369 448.041 219.963C465.462 223.137 465.462 223.137 474.395 233.499C478.132 245.244 478.132 245.244 474.568 260.097C471.563 264.314 468.558 268.532 465.462 272.877C460.497 273.561 455.532 274.245 450.417 274.95C433.439 276.851 433.439 276.851 426.092 287.277C419.821 297.031 414.098 307.051 408.449 317.091C404.268 317.091 400.087 317.091 395.779 317.091C400.66 279.827 429.503 259.317 459.127 234.19C451.116 233.688 451.116 233.688 442.944 233.175C436.003 232.712 429.061 232.249 421.91 231.772C415.002 231.323 408.093 230.875 400.975 230.412C383.109 228.663 383.109 228.663 370.44 223.137C357.915 223.313 345.388 223.503 332.876 224.022C316.731 222.932 308.02 219.796 294.422 212.083C288.357 200.544 288.357 200.544 284.301 186.35C282.753 181.149 281.206 175.948 279.611 170.59C278.097 165.133 276.582 159.676 275.021 154.053C268.85 132.86 262.647 111.675 256.413 90.4959C254.904 85.2534 253.396 80.0108 251.842 74.6094C250.313 69.6642 248.783 64.7191 247.207 59.6241C245.882 55.2044 244.557 50.7847 243.192 46.2311C235.981 32.5141 229.75 29.3824 214.048 23.4847C207.124 21.8889 200.199 20.293 193.064 18.6488C193.064 15.0012 193.064 11.3536 193.064 7.59543C186.793 5.77162 180.521 3.94781 174.06 2.06873Z" fill="#AEC2CB"/>
<path d="M250.078 184.449C263.779 190.205 276.521 196.14 289.225 203.469C310.158 213.561 331.181 218.82 354.206 223.827C358.277 224.76 362.348 225.694 366.542 226.655C390.92 232.139 415.237 236.428 440.123 239.716C440.123 243.364 440.123 247.011 440.123 250.77C428.987 255.807 417.852 260.844 406.716 265.882C393.665 274.228 389.256 282.091 383.109 294.983C337.481 278.634 312.552 256.253 281.752 223.136C275.418 216.687 269.084 210.239 262.747 203.793C250.078 189.976 250.078 189.976 250.078 184.449Z" fill="#3D78AF"/>
<path d="M636.501 245.244C657.406 245.244 678.311 245.244 699.85 245.244C695.669 252.539 691.488 259.835 687.18 267.351C680.909 267.351 674.637 267.351 668.176 267.351C670.266 281.941 672.357 296.532 674.51 311.565C678.691 311.565 682.872 311.565 687.18 311.565C685.22 314.756 683.26 317.948 681.241 321.236C674.105 333.185 674.105 333.185 671.739 345.07C667.32 358.348 661.665 363.974 649.171 372.358C642.9 372.358 636.628 372.358 630.167 372.358C630.167 354.12 630.167 335.882 630.167 317.091C623.895 317.091 617.624 317.091 611.162 317.091C613.106 313.985 615.049 310.879 617.052 307.679C624.019 294.634 627.639 282.8 630.958 268.733C632.788 260.981 634.617 253.23 636.501 245.244Z" fill="#336FAB"/>
<path d="M205.733 173.396C216.819 174.086 216.819 174.086 231.073 178.922C243.742 194.121 243.742 194.121 256.412 212.082C274.009 234.002 274.009 234.002 300.756 245.243C307.202 256.247 313.525 267.306 319.76 278.403C332.821 291.193 332.821 291.193 345.1 300.51C308.674 306.036 308.674 306.036 294.421 306.036C293.874 302.766 293.327 299.496 292.763 296.127C286.422 265.014 278.216 249.981 250.077 228.663C250.077 225.015 250.077 221.367 250.077 217.609C245.896 217.609 241.715 217.609 237.407 217.609C241.327 223.65 245.247 229.692 249.285 235.916C251.49 239.315 253.695 242.713 255.966 246.214C262.077 255.3 268.718 264.111 275.416 272.876C276.208 287.729 276.208 287.729 275.416 300.51C269.145 298.686 262.873 296.862 256.412 294.983C256.412 291.335 256.412 287.688 256.412 283.93C252.231 283.93 248.05 283.93 243.742 283.93C233.448 278.403 233.448 278.403 224.738 267.349C223.073 252.325 223.883 238.292 224.738 223.136C220.557 221.312 216.376 219.488 212.068 217.609C216.249 213.961 220.43 210.314 224.738 206.556C216.376 201.084 208.014 195.613 199.398 189.976C201.489 184.504 203.579 179.033 205.733 173.396Z" fill="#3880BE"/>
<path d="M110.711 7.59613C121.49 9.13497 121.49 9.13497 132.487 10.7049C139.934 11.5028 147.382 12.3007 155.055 13.1228C157.145 11.299 159.236 9.47521 161.39 7.59613C171.944 7.37153 182.509 7.36002 193.064 7.59613C193.064 11.2438 193.064 14.8914 193.064 18.6495C186.792 18.6495 180.521 18.6495 174.059 18.6495C178.24 38.7115 182.421 58.7734 186.729 79.4432C167.914 76.7075 167.914 76.7075 148.72 73.9165C146.629 68.4451 144.539 62.9737 142.385 57.3364C146.566 57.3364 150.747 57.3364 155.055 57.3364C155.055 60.9841 155.055 64.6317 155.055 68.3898C159.236 68.3898 163.417 68.3898 167.724 68.3898C167.724 62.9184 167.724 57.447 167.724 51.8097C163.543 51.8097 159.362 51.8097 155.055 51.8097C155.055 48.1621 155.055 44.5145 155.055 40.7563C127.566 30.604 127.566 30.604 98.8331 34.5388C94.3908 36.5906 89.9485 38.6424 85.3716 40.7563C86.6782 46.3418 87.9847 51.9272 89.3309 57.6819C85.3716 79.4432 85.3716 79.4432 71.7122 90.0433C60.3501 96.7229 48.8162 103.186 37.118 109.408C20.5233 117.774 20.5233 117.774 9.35367 134.71C15.2332 136.42 21.1127 138.13 27.1704 139.892C40.236 143.691 53.3015 147.491 66.3671 151.29C71.4627 149.467 76.5583 147.643 81.8083 145.764C99.4867 139.745 105.983 140.142 123.381 145.764C93.3222 158.876 75.7478 164.868 41.0278 162.344C19.2518 153.017 19.2518 153.017 3.01884 140.237C0.0493852 126.787 0.0493852 126.787 3.01884 112.603C16.6536 102.802 16.6536 102.802 34.2971 93.9508C51.8404 84.5275 51.8404 84.5275 66.3671 73.9165C72.0087 53.7893 72.0087 53.7893 72.702 35.2296C88.539 25.2125 88.539 25.2125 104.376 18.6495C106.467 15.0019 108.557 11.3543 110.711 7.59613Z" fill="#DDE5E7"/>
<path d="M680.846 283.932C685.027 285.755 689.208 287.579 693.516 289.458C699.787 287.635 706.059 285.811 712.52 283.932C713.75 292.102 714.928 300.278 716.084 308.456C716.745 313.009 717.407 317.561 718.088 322.252C718.341 326.02 718.594 329.789 718.855 333.672C716.765 335.496 714.674 337.32 712.52 339.199C727.828 340.121 727.828 340.121 744.194 339.199C748.375 335.551 752.556 331.903 756.864 328.145C761.045 329.969 765.226 331.793 769.534 333.672C766.172 354.789 760.05 367.173 744.194 383.412C729.545 382.376 729.545 382.376 712.52 377.886C701.83 364.069 701.83 364.069 693.516 350.252C689.335 348.428 685.154 346.604 680.846 344.725C680.846 353.844 680.846 362.963 680.846 372.359C644.421 383.412 644.421 383.412 630.167 383.412C630.167 379.765 630.167 376.117 630.167 372.359C636.439 372.359 642.71 372.359 649.172 372.359C651.262 366.887 653.353 361.416 655.507 355.779C659.688 355.779 663.869 355.779 668.176 355.779C669.352 349.452 669.352 349.452 670.552 342.998C674.511 328.145 674.511 328.145 687.181 311.565C680.909 313.389 674.638 315.213 668.176 317.092C673.719 290.149 673.719 290.149 680.846 283.932Z" fill="#153667"/>
<path d="M725.19 300.51C731.462 302.334 737.733 304.158 744.195 306.037C744.195 311.508 744.195 316.98 744.195 322.617C754.647 318.969 765.099 315.322 775.869 311.564C780.1 320.998 780.1 320.998 782.204 333.67C775.399 346.516 775.399 346.516 765.179 359.577C761.888 363.93 758.597 368.283 755.206 372.768C743.082 384.486 736.511 386.957 718.855 388.937C714.674 377.995 710.493 367.052 706.186 355.777C714.548 352.13 722.909 348.482 731.525 344.724C723.163 344.724 714.801 344.724 706.186 344.724C706.186 341.076 706.186 337.429 706.186 333.67C710.367 333.67 714.548 333.67 718.855 333.67C720.946 322.728 723.036 311.785 725.19 300.51Z" fill="#204A82"/>
<path d="M680.846 283.932C685.027 285.755 689.208 287.579 693.516 289.458C699.787 287.635 706.059 285.811 712.52 283.932C713.75 292.102 714.928 300.278 716.084 308.456C716.745 313.009 717.407 317.561 718.088 322.252C718.341 326.02 718.594 329.789 718.855 333.672C716.765 335.496 714.674 337.32 712.52 339.199C720.882 339.199 729.244 339.199 737.86 339.199C735.769 344.67 733.679 350.142 731.525 355.779C707.985 356.889 701.294 356.618 680.846 344.725C680.977 349.171 681.107 353.616 681.242 358.197C680.846 372.359 680.846 372.359 674.511 377.886C659.732 378.112 644.946 378.12 630.167 377.886C636.439 376.062 642.71 374.238 649.172 372.359C651.262 366.887 653.353 361.416 655.507 355.779C659.688 355.779 663.869 355.779 668.176 355.779C669.352 349.452 669.352 349.452 670.552 342.998C674.511 328.145 674.511 328.145 687.181 311.565C680.909 313.389 674.638 315.213 668.176 317.092C673.719 290.149 673.719 290.149 680.846 283.932Z" fill="#113162"/>
<path d="M743.402 262.515C747.845 264.111 752.287 265.707 756.864 267.351C762.613 269.403 768.362 271.455 774.285 273.569C778.988 276.989 783.692 280.408 788.538 283.931C790.518 304.311 790.518 304.311 788.538 322.618C782.267 320.795 775.995 318.971 769.534 317.092C752.702 321.95 752.702 321.95 737.859 328.145C737.859 320.85 737.859 313.555 737.859 306.038C733.678 304.214 729.497 302.391 725.19 300.512C721.009 307.807 716.828 315.102 712.52 322.618C710.215 281.723 710.215 281.723 720.439 267.006C731.525 261.825 731.525 261.825 743.402 262.515Z" fill="#16376E"/>
<path d="M573.154 278.403C581.516 278.403 589.878 278.403 598.493 278.403C598.493 283.874 598.493 289.346 598.493 294.983C604.765 294.983 611.036 294.983 617.498 294.983C615.407 302.278 613.317 309.573 611.163 317.09C617.435 317.09 623.706 317.09 630.168 317.09C630.685 340.088 630.057 361.012 623.833 383.41C634.285 383.41 644.738 383.41 655.507 383.41C655.507 385.234 655.507 387.058 655.507 388.937C642.964 388.937 630.421 388.937 617.498 388.937C615.407 368.875 613.317 348.813 611.163 328.143C604.892 326.319 598.62 324.496 592.159 322.616C592.159 326.264 592.159 329.912 592.159 333.67C585.887 333.67 579.616 333.67 573.154 333.67C573.154 328.198 573.154 322.727 573.154 317.09C566.883 315.266 560.611 313.442 554.15 311.563C554.15 302.444 554.15 293.325 554.15 283.93C556.24 287.577 558.331 291.225 560.484 294.983C564.665 294.983 568.846 294.983 573.154 294.983C573.154 289.511 573.154 284.04 573.154 278.403Z" fill="#DEDFDC"/>
<path d="M630.167 234.19C682.95 230.029 727.003 226.831 772.701 253.878C799.371 273.39 799.371 273.39 805.439 289.953C805.563 300.51 805.563 300.51 801.207 317.09C799.509 313.784 797.81 310.479 796.06 307.073C780.838 282.609 754.18 262.172 725.189 250.77C695.636 246.849 666.37 245.641 636.502 245.243C636.502 256.186 636.502 267.129 636.502 278.403C632.321 278.403 628.14 278.403 623.832 278.403C621.742 282.051 619.651 285.698 617.497 289.457C621.678 271.218 625.859 252.98 630.167 234.19Z" fill="#E7ECEB"/>
<path d="M623.832 294.985C630.103 296.809 636.375 298.633 642.836 300.512C642.836 304.16 642.836 307.807 642.836 311.565C646.625 310.54 650.414 309.514 654.318 308.457C668.176 306.039 668.176 306.039 687.18 311.565C685.22 314.757 683.26 317.949 681.241 321.237C674.105 333.186 674.105 333.186 671.739 345.071C667.32 358.349 661.665 363.975 649.171 372.359C642.9 372.359 636.628 372.359 630.167 372.359C630.167 354.121 630.167 335.883 630.167 317.092C623.895 317.092 617.624 317.092 611.162 317.092C615.343 309.797 619.524 302.502 623.832 294.985Z" fill="#2A609E"/>
<path d="M630.167 234.191C698.179 229.814 741.98 235.02 801.207 267.351C805.615 308.285 800.093 339.804 769.533 372.358C755.775 379.267 755.775 379.267 744.194 383.412C748.31 377.502 748.31 377.502 752.508 371.473C767.899 348.379 780.803 327.586 788.142 301.548C780.1 277.694 767.823 269.784 743.773 257.161C709.241 245.287 673.248 245.336 636.502 245.244C636.502 256.187 636.502 267.13 636.502 278.405C632.321 278.405 628.14 278.405 623.832 278.405C621.742 282.052 619.651 285.7 617.497 289.458C621.678 271.22 625.859 252.982 630.167 234.191Z" fill="#D7E0E3"/>
<path d="M224.739 96.0225C250.015 100.923 260.198 103.665 274.626 122.965C281.752 140.236 281.752 140.236 281.752 162.343C279.662 164.167 277.571 165.99 275.418 167.87C275.418 171.517 275.418 175.165 275.418 178.923C254.095 170.951 240.51 160.504 224.739 145.763C226.83 142.115 228.92 138.468 231.074 134.709C231.074 121.291 227.901 109.126 224.739 96.0225Z" fill="#3174B7"/>
<path d="M22.0232 112.603C26.2042 112.603 30.3852 112.603 34.6928 112.603C36.7833 119.898 38.8738 127.194 41.0277 134.71C50.5451 133.823 50.5451 133.823 60.2549 132.918C143.365 126.065 143.365 126.065 180.394 145.763C178.303 149.411 176.213 153.058 174.059 156.817C166.599 155.427 166.599 155.427 158.989 154.01C115.769 145.627 115.769 145.627 73.0977 151.635C53.6973 156.817 53.6973 156.817 35.8806 149.563C31.3077 146.485 26.7347 143.407 22.0232 140.237C17.8422 138.413 13.6612 136.589 9.35352 134.71C13.5345 127.415 17.7155 120.119 22.0232 112.603Z" fill="#1B4176"/>
<path d="M788.539 294.985C795.938 303.945 795.938 303.945 801.209 317.092C794.8 333.176 794.8 333.176 784.184 350.598C780.762 356.361 777.341 362.125 773.815 368.063C764.791 381.112 757.988 390.795 744.195 399.993C724.003 401.029 724.003 401.029 706.186 399.993C704.096 390.874 702.005 381.755 699.851 372.359C695.67 372.359 691.489 372.359 687.182 372.359C685.091 363.24 683.001 354.121 680.847 344.726C692.725 348.18 692.725 348.18 706.186 355.779C714.105 373.05 714.105 373.05 718.856 388.939C753.714 375.906 767.754 351.809 782.204 322.619C784.615 313.464 786.812 304.257 788.539 294.985Z" fill="#DFE2E3"/>
<path d="M579.489 278.403C585.76 280.227 592.032 282.05 598.493 283.93C598.493 287.577 598.493 291.225 598.493 294.983C604.765 294.983 611.036 294.983 617.498 294.983C615.407 302.278 613.317 309.573 611.163 317.09C617.434 317.09 623.706 317.09 630.167 317.09C630.167 338.975 630.167 360.861 630.167 383.41C648.982 379.763 667.796 376.115 687.181 372.357C685.09 377.828 683 383.3 680.846 388.937C659.941 388.937 639.036 388.937 617.498 388.937C615.407 368.875 613.317 348.813 611.163 328.143C604.891 326.319 598.62 324.496 592.158 322.616C592.158 326.264 592.158 329.912 592.158 333.67C579.489 333.67 579.489 333.67 566.423 324.344C553.017 310.384 550.087 301.777 547.814 283.93C551.995 283.93 556.176 283.93 560.484 283.93C560.484 287.577 560.484 291.225 560.484 294.983C566.756 289.511 573.027 284.04 579.489 278.403Z" fill="#D7DCDF"/>
<path d="M683.222 221.41C687.484 221.777 691.747 222.144 696.139 222.522C724.558 225.621 739.005 231.154 756.864 250.771C750.556 248.142 750.556 248.142 744.12 245.46C721.331 238.546 699.572 237.22 675.699 236.263C671.31 236.049 666.921 235.836 662.399 235.615C651.657 235.098 640.913 234.639 630.168 234.191C628.404 244.621 628.404 244.621 626.604 255.261C625.943 259.172 625.281 263.084 624.6 267.113C622.952 279.524 622.952 279.524 630.168 294.984C617.498 300.511 617.498 300.511 598.493 294.984C598.493 291.337 598.493 287.689 598.493 283.931C585.951 287.579 573.408 291.226 560.484 294.984C558.394 289.513 556.304 284.041 554.15 278.404C560.944 275.44 567.738 272.477 574.738 269.423C598.56 257.709 609.737 243.633 623.833 223.137C643.313 214.639 662.29 219.11 683.222 221.41Z" fill="#A7B1B2"/>
<path d="M85.3716 35.2295C93.7336 35.2295 102.096 35.2295 110.711 35.2295C111.234 38.4212 111.756 41.6128 112.295 44.9012C118.33 60.6965 128.832 68.0003 142.385 79.4431C142.385 83.0907 142.385 86.7383 142.385 90.4965C150.486 89.3566 158.586 88.2167 166.933 87.0423C180.74 85.0993 180.74 85.0993 193.064 84.9698C197.245 88.6174 201.426 92.265 205.733 96.0232C203.643 99.6708 201.552 103.318 199.399 107.077C184.922 109.365 184.922 109.365 167.328 110.531C161.506 110.944 155.684 111.357 149.685 111.783C142.936 112.189 142.936 112.189 136.05 112.603C136.05 116.251 136.05 119.899 136.05 123.657C131.869 123.657 127.688 123.657 123.381 123.657C121.29 112.714 119.2 101.771 117.046 90.4965C112.865 90.4965 108.684 90.4965 104.376 90.4965C98.1046 72.2584 91.8331 54.0203 85.3716 35.2295Z" fill="#5F98C8"/>
<path d="M262.746 311.563C320.45 318.865 320.45 318.865 342.723 333.67C351.434 344.724 351.434 344.724 351.434 355.777C380.701 353.953 409.968 352.129 440.121 350.25C440.121 346.603 440.121 342.955 440.121 339.197C432.935 338.513 425.749 337.829 418.345 337.124C410.898 335.985 403.451 334.845 395.778 333.67C393.687 330.023 391.597 326.375 389.443 322.617C410.348 322.617 431.253 322.617 452.791 322.617C452.791 333.56 452.791 344.503 452.791 355.777C419.585 365.639 386.539 372.799 351.434 366.83C342.611 357.892 334.207 348.634 326.094 339.197C305.582 330.292 284.411 323.547 262.746 317.09C262.746 315.266 262.746 313.443 262.746 311.563Z" fill="#DBE0E5"/>
<path d="M174.06 151.29C186.729 167.87 186.729 167.87 192.272 187.214C196.877 206.895 196.877 206.895 212.415 213.574C224.738 223.137 224.738 223.137 227.213 241.682C226.772 252.165 226.772 252.165 226.322 262.86C226.093 269.892 225.865 276.924 225.629 284.168C225.188 292.258 225.188 292.258 224.738 300.511C235.191 302.335 245.643 304.159 256.412 306.038C256.412 307.862 256.412 309.685 256.412 311.565C241.367 312.255 241.367 312.255 224.738 311.565C204.1 293.559 209.84 270.163 209.149 245.611C207.771 228.149 207.771 228.149 193.114 219.381C188.916 216.973 184.719 214.565 180.395 212.084C175.643 191.704 175.643 191.704 174.06 173.397C169.879 173.397 165.698 173.397 161.39 173.397C159.3 169.749 157.209 166.102 155.055 162.344C141.589 159.765 141.589 159.765 126.153 158.889C120.918 158.476 115.684 158.063 110.291 157.637C106.249 157.367 102.206 157.096 98.0417 156.817C126.15 142.576 142.748 145.562 174.06 151.29Z" fill="#C7D3D5"/>
<path d="M332.431 217.61C368.856 216.919 368.856 216.919 383.11 223.137C396.006 225.272 408.948 227.204 421.91 229.009C428.851 229.985 435.793 230.961 442.944 231.966C448.285 232.7 453.625 233.434 459.128 234.19C451.207 249.57 446.966 255.967 431.017 266.314C410.144 281.859 405.11 294.812 395.779 317.09C399.96 318.914 404.141 320.738 408.449 322.617C400.087 324.441 391.725 326.265 383.11 328.144C374.595 311.26 377.362 304.414 383.901 286.348C396.402 266.353 403.891 259.731 427.453 250.77C431.634 250.77 435.815 250.77 440.123 250.77C440.123 247.122 440.123 243.475 440.123 239.717C434.035 239.311 434.035 239.311 427.825 238.896C394.436 236.378 364.296 232.202 332.431 223.137C332.431 221.313 332.431 219.489 332.431 217.61Z" fill="#E3E9ED"/>
<path d="M547.814 289.457C549.512 292.876 551.211 296.296 552.961 299.819C560.202 313.219 560.202 313.219 579.488 322.617C579.488 326.264 579.488 329.912 579.488 333.67C583.669 333.67 587.85 333.67 592.158 333.67C592.158 330.023 592.158 326.375 592.158 322.617C600.52 324.441 608.882 326.264 617.497 328.143C617.497 348.205 617.497 368.267 617.497 388.937C638.402 388.937 659.307 388.937 680.845 388.937C661.841 405.517 661.841 405.517 638.877 406.899C617.497 405.517 617.497 405.517 611.162 399.991C609.682 389.772 608.546 379.515 607.599 369.248C607.068 363.656 606.537 358.063 605.99 352.301C605.607 347.977 605.223 343.652 604.827 339.197C592.284 344.668 592.284 344.668 579.488 350.25C548.301 327.123 548.301 327.123 545.834 304.31C546.488 299.408 547.141 294.507 547.814 289.457Z" fill="#919DA2"/>
<path d="M22.0232 112.603C26.2042 112.603 30.3852 112.603 34.6928 112.603C36.7833 119.898 38.8738 127.194 41.0277 134.71C49.7489 133.823 49.7489 133.823 58.6464 132.918C105.103 128.959 138.313 127.407 180.394 145.763C178.303 149.411 176.213 153.058 174.059 156.817C166.599 155.427 166.599 155.427 158.989 154.01C115.769 145.627 115.769 145.627 73.0977 151.635C53.6973 156.817 53.6973 156.817 35.8806 149.563C31.3077 146.485 26.7347 143.407 22.0232 140.237C17.8422 138.413 13.6612 136.589 9.35352 134.71C13.5345 127.415 17.7155 120.119 22.0232 112.603Z" fill="#1B4175"/>
<path d="M218.402 7.5957C246.63 15.1206 259.892 24.3336 275.416 46.2826C279.487 58.2659 282.302 70.1558 284.918 82.4436C288.22 96.5988 292.889 109.918 297.983 123.656C306.186 146.328 309.504 167.282 310.232 191.013C312.408 202.243 312.408 202.243 326.317 207.939C330.424 209.306 334.532 210.674 338.764 212.084C328.311 210.26 317.859 208.436 307.09 206.557C306.012 202.938 304.934 199.319 303.823 195.59C293.425 161.424 281.606 127.941 268.437 94.5117C262.746 79.4428 262.746 79.4428 256.807 58.0268C248.29 36.1732 236.296 24.4394 218.402 7.5957Z" fill="#81A3B9"/>
<path d="M212.067 90.4956C216.248 90.4956 220.429 90.4956 224.737 90.4956C231.008 108.734 237.28 126.972 243.741 145.763C239.56 145.763 235.379 145.763 231.072 145.763C251.187 164.696 251.187 164.696 275.415 178.923C275.415 175.275 275.415 171.628 275.415 167.869C271.234 167.869 267.053 167.869 262.746 167.869C264.836 162.398 266.927 156.927 269.081 151.289C269.081 154.937 269.081 158.585 269.081 162.343C273.262 162.343 277.443 162.343 281.75 162.343C295.005 186.83 295.005 186.83 292.044 202.757C290.085 207.373 290.085 207.373 288.085 212.083C279.723 206.612 271.361 201.14 262.746 195.503C262.746 199.151 262.746 202.798 262.746 206.556C269.017 208.38 275.289 210.204 281.75 212.083C307.09 236.716 307.09 236.716 307.09 250.77C313.361 252.594 319.633 254.418 326.094 256.297C330.014 259.83 333.933 263.364 337.972 267.005C352.399 279.221 364.211 283.962 383.108 289.457C383.108 293.104 383.108 296.752 383.108 300.51C350.021 298.246 330.233 294.255 307.09 272.877C301.943 257.678 301.943 257.678 300.755 245.243C295.096 244.442 295.096 244.442 289.322 243.624C272.52 238.903 266.707 233.235 255.619 221.409C252.467 218.125 249.315 214.841 246.067 211.457C237.395 201.016 230.943 190.603 224.737 178.923C218.465 178.923 212.194 178.923 205.732 178.923C203.642 182.57 201.551 186.218 199.398 189.976C207.759 193.624 216.121 197.271 224.737 201.03C224.737 206.501 224.737 211.972 224.737 217.61C206.573 214.44 200.275 212.849 186.728 201.03C184.105 189.069 184.105 189.069 182.769 175.469C182.295 170.952 181.821 166.435 181.333 161.781C180.868 156.588 180.868 156.588 180.393 151.289C190.845 151.289 201.298 151.289 212.067 151.289C209.977 143.994 207.886 136.699 205.732 129.183C201.69 128.513 197.648 127.843 193.483 127.153C188.249 126.227 183.015 125.301 177.622 124.347C172.403 123.449 167.185 122.551 161.809 121.626C157.489 120.472 153.17 119.318 148.719 118.129C146.628 114.481 144.538 110.834 142.384 107.076C151.622 106.926 160.86 106.819 170.099 106.73C175.243 106.666 180.388 106.602 185.689 106.536C199.398 107.076 199.398 107.076 212.067 112.602C212.067 105.307 212.067 98.0119 212.067 90.4956Z" fill="#164887"/>
<path d="M212.067 90.4956C222.665 94.0913 233.217 97.7927 243.741 101.549C247.979 102.717 252.218 103.886 256.584 105.09C276.02 116.775 277.717 131.114 283.73 150.598C285.927 157.424 288.123 164.249 290.386 171.28C294.018 188.111 295.062 196.454 288.085 212.083C279.723 206.612 271.361 201.14 262.746 195.503C262.746 199.151 262.746 202.798 262.746 206.556C269.017 208.38 275.289 210.204 281.75 212.083C307.09 236.716 307.09 236.716 307.09 250.77C313.361 252.594 319.633 254.418 326.094 256.297C330.014 259.83 333.933 263.364 337.972 267.005C352.399 279.221 364.211 283.962 383.108 289.457C383.108 293.104 383.108 296.752 383.108 300.51C350.021 298.246 330.233 294.255 307.09 272.877C301.943 257.678 301.943 257.678 300.755 245.243C295.096 244.442 295.096 244.442 289.322 243.624C272.52 238.903 266.707 233.235 255.619 221.409C252.467 218.125 249.315 214.841 246.067 211.457C237.395 201.016 230.943 190.603 224.737 178.923C218.465 178.923 212.194 178.923 205.732 178.923C203.642 182.57 201.551 186.218 199.398 189.976C207.759 193.624 216.121 197.271 224.737 201.03C224.737 206.501 224.737 211.972 224.737 217.61C206.573 214.44 200.275 212.849 186.728 201.03C184.105 189.069 184.105 189.069 182.769 175.469C182.295 170.952 181.821 166.435 181.333 161.781C180.868 156.588 180.868 156.588 180.393 151.289C190.845 151.289 201.298 151.289 212.067 151.289C209.977 143.994 207.886 136.699 205.732 129.183C201.69 128.513 197.648 127.843 193.483 127.153C188.249 126.227 183.015 125.301 177.622 124.347C172.403 123.449 167.185 122.551 161.809 121.626C157.489 120.472 153.17 119.318 148.719 118.129C146.628 114.481 144.538 110.834 142.384 107.076C151.622 106.926 160.86 106.819 170.099 106.73C175.243 106.666 180.388 106.602 185.689 106.536C199.398 107.076 199.398 107.076 212.067 112.602C212.067 105.307 212.067 98.0119 212.067 90.4956Z" fill="#1C5192"/>
<path d="M243.743 40.7563C250.014 42.5802 256.286 44.404 262.747 46.283C268.063 59.6684 272.186 72.2709 275.813 86.0062C283.01 111.854 290.813 137.175 300.756 162.344C305.161 175.2 309.278 188.108 313.426 201.031C317.394 201.7 321.363 202.37 325.452 203.06C330.629 203.986 335.807 204.912 341.141 205.867C348.858 207.213 348.858 207.213 356.73 208.587C370.439 212.084 370.439 212.084 383.109 223.137C399.975 225.696 399.975 225.696 418.742 226.592C425.096 227.005 431.449 227.418 437.994 227.844C442.878 228.115 447.761 228.385 452.792 228.664C452.792 235.959 452.792 243.255 452.792 250.771C446.521 250.771 440.249 250.771 433.788 250.771C435.878 247.123 437.969 243.476 440.122 239.718C436.211 239.447 432.299 239.176 428.269 238.897C331.143 231.417 331.143 231.417 294.421 212.084C283.174 189.733 278.468 166.029 272.695 142.245C269.035 129.015 264.348 116.46 259.184 103.623C250.789 82.5759 246.442 62.8925 243.743 40.7563Z" fill="#EAEDE5"/>
<path d="M801.209 278.403C803.299 278.403 805.39 278.403 807.544 278.403C815.969 310.957 816.645 328.38 796.853 357.504C783.389 375.604 769.195 391.284 750.53 405.517C731.13 407.935 731.13 407.935 712.521 405.517C701.435 397.227 701.435 397.227 693.517 388.937C689.336 388.937 685.155 388.937 680.847 388.937C680.847 374.346 680.847 359.756 680.847 344.723C697.456 350.519 704.879 353.839 714.105 367.521C715.673 370.941 717.241 374.36 718.856 377.883C736.504 381.587 736.504 381.587 756.865 377.883C787.904 351.024 795.476 314.83 801.209 278.403Z" fill="#9EA3A8"/>
</g>
</svg>
