<svg width="469" height="275" viewBox="0 0 469 275" fill="none" xmlns="http://www.w3.org/2000/svg">
<path d="M38.0094 136.783C46.3713 136.783 54.7333 136.783 63.3487 136.783C63.3487 147.726 63.3487 158.669 63.3487 169.943C69.6202 169.943 75.8916 169.943 82.3532 169.943C93.0432 180.997 93.0432 180.997 101.358 192.05C105.539 190.226 109.72 188.403 114.027 186.524C109.846 197.466 105.665 208.409 101.358 219.684C97.1767 219.684 92.9957 219.684 88.688 219.684C86.5975 206.917 84.507 194.15 82.3532 180.997C60.7414 187.282 56.2629 192.29 44.3442 208.63C44.3442 212.278 44.3442 215.926 44.3442 219.684C108.788 231.217 175.631 223.586 240.724 219.684C238.633 225.155 236.543 230.627 234.389 236.264C208.791 237.518 183.187 238.631 157.579 239.718C150.344 240.074 143.109 240.43 135.655 240.797C125.121 241.225 125.121 241.225 114.374 241.661C107.938 241.95 101.502 242.24 94.8713 242.538C73.7307 241.7 57.5222 237.785 38.0094 230.737C28.903 220.029 28.903 220.029 25.3397 208.63C27.4302 203.159 29.5207 197.687 31.6745 192.05C23.3125 188.403 14.9506 184.755 6.33521 180.997C8.4257 171.878 10.5162 162.759 12.67 153.363C21.032 151.539 29.394 149.716 38.0094 147.837C38.0094 144.189 38.0094 140.541 38.0094 136.783Z" fill="#CFCDBE"/>
<path d="M329.411 37.3008C327.321 40.9484 325.23 44.596 323.076 48.3542C316.873 65.1317 316.389 69.538 323.076 87.0411C326.865 86.1292 330.654 85.2173 334.558 84.2777C352.028 80.794 368.537 81.5144 386.425 81.5144C388.515 76.043 390.606 70.5715 392.76 64.9343C394.458 68.4679 396.157 72.0016 397.907 75.6423C404.711 88.8722 404.711 88.8722 424.434 92.5678C424.434 96.2154 424.434 99.863 424.434 103.621C409.655 103.856 394.869 103.847 380.09 103.621C377.999 101.797 375.909 99.9736 373.755 98.0945C364.131 97.6977 354.487 97.6307 344.852 97.7491C339.618 97.7989 334.384 97.8488 328.991 97.9002C324.948 97.9643 320.906 98.0284 316.742 98.0945C314.651 94.4469 312.561 90.7992 310.407 87.0411C306.618 92.5125 302.829 97.984 298.925 103.621C294.352 109.093 289.779 114.564 285.067 120.201C278.796 120.201 272.524 120.201 266.063 120.201C259.791 128.408 259.791 128.408 253.393 136.781C249.212 134.958 245.031 133.134 240.724 131.255C240.724 118.488 240.724 105.721 240.724 92.5678C236.543 90.744 232.362 88.9202 228.054 87.0411C246.88 76.5478 262.988 68.5015 285.067 64.9343C285.851 61.4007 286.635 57.867 287.443 54.2263C288.75 50.4647 290.056 46.7031 291.402 42.8275C304.072 37.3008 304.072 37.3008 329.411 37.3008Z" fill="#336EA4"/>
<path d="M221.72 92.5688C227.991 92.5688 234.263 92.5688 240.724 92.5688C240.724 105.336 240.724 118.102 240.724 131.256C244.905 131.256 249.086 131.256 253.394 131.256C255.485 138.551 257.575 145.846 259.729 153.363C291.441 153.363 303.493 146.331 329.412 131.256C329.649 134.989 329.886 138.722 330.13 142.568C330.754 149.963 330.754 149.963 331.392 157.508C331.759 162.381 332.127 167.254 332.505 172.274C336.153 188.308 342.563 196.428 354.751 208.63C350.57 208.63 346.389 208.63 342.082 208.63C339.991 214.101 337.901 219.572 335.747 225.21C321.113 223.386 306.48 221.562 291.403 219.683C295.584 208.74 299.765 197.797 304.073 186.523C308.254 186.523 312.435 186.523 316.742 186.523C318.833 179.228 320.923 171.932 323.077 164.416C313.082 166.981 313.082 166.981 302.885 169.597C256.003 180.996 256.003 180.996 234.39 180.996C236.48 191.939 238.571 202.882 240.724 214.156C225.046 208.685 225.046 208.685 209.05 203.103C211.01 199.227 212.97 195.352 214.989 191.359C224.932 167.888 230.921 149.81 221.72 125.729C217.539 123.905 213.358 122.081 209.05 120.202C215.322 120.202 221.593 120.202 228.055 120.202C225.964 111.083 223.874 101.964 221.72 92.5688Z" fill="#15427F"/>
<path d="M133.032 147.835C137.311 148.697 141.59 149.559 145.998 150.447C151.649 151.523 157.3 152.599 163.122 153.707C171.501 155.342 171.501 155.342 180.048 157.01C196.296 158.879 206.332 157.847 221.719 153.362C226.075 162.688 226.075 162.688 228.054 175.468C218.948 190.667 218.948 190.667 209.05 203.102C213.231 204.926 217.412 206.75 221.719 208.629C215.448 208.629 209.176 208.629 202.715 208.629C202.715 204.981 202.715 201.333 202.715 197.575C196.443 201.223 190.172 204.871 183.71 208.629C177.439 208.629 171.167 208.629 164.706 208.629C162.615 204.981 160.525 201.333 158.371 197.575C155.758 200.311 153.145 203.047 150.453 205.865C139.367 214.155 139.367 214.155 114.027 214.155C106.338 194.029 109.799 190.216 119.966 171.669C123.58 164.968 123.58 164.968 127.266 158.133C129.169 154.734 131.071 151.336 133.032 147.835Z" fill="#18539A"/>
<path d="M234.39 9.66895C246.664 11.396 246.664 11.396 259.729 15.1956C261.82 20.6671 263.91 26.1385 266.064 31.7757C272.813 31.0811 272.813 31.0811 279.699 30.3725C285.521 29.8097 291.344 29.2468 297.342 28.667C306.052 27.8014 306.052 27.8014 314.936 26.9183C319.714 26.6974 324.491 26.4766 329.413 26.249C332.548 28.9848 332.548 28.9848 335.747 31.7757C347.46 33.067 359.217 34.0585 370.985 34.8845C380.6 35.5791 380.6 35.5791 390.41 36.2878C397.845 36.79 397.845 36.79 405.431 37.3024C408.566 48.2453 408.566 48.2453 411.765 59.4092C407.584 59.4092 403.403 59.4092 399.096 59.4092C399.096 53.9378 399.096 48.4664 399.096 42.8291C394.89 43.2922 390.685 43.7553 386.352 44.2324C357.052 47.1804 332.998 48.7668 304.073 42.8291C299.892 44.083 295.711 45.3369 291.404 46.6287C287.223 47.1987 283.042 47.7686 278.734 48.3558C262.105 37.6479 262.105 37.6479 247.06 26.249C232.914 24.9464 232.914 24.9464 221.795 37.2377C206.291 57.4872 200.981 75.5887 195.193 99.1324C184.158 141.53 184.158 141.53 177.377 153.363C162.743 153.363 148.11 153.363 133.033 153.363C128.852 164.306 124.671 175.249 120.363 186.523C114.028 169.943 114.028 169.943 117.196 155.781C120.332 151.336 123.467 146.89 126.698 142.31C133.941 141.027 141.184 139.745 148.647 138.424C156.037 136.059 163.428 133.693 171.042 131.256C177.94 116.831 181.315 106.572 184.107 91.5332C192.613 55.8355 203.604 34.6961 234.39 9.66895Z" fill="#E0E7E3"/>
<path d="M63.3484 180.996C69.6198 180.996 75.8913 180.996 82.3528 180.996C84.4433 193.762 86.5338 206.529 88.6877 219.683C92.8687 219.683 97.0496 219.683 101.357 219.683C103.448 214.211 105.538 208.74 107.692 203.102C109.783 206.75 111.873 210.398 114.027 214.156C133.558 207.529 152.434 200.466 171.04 192.049C168.95 197.52 166.859 202.992 164.706 208.629C177.249 204.981 189.792 201.334 202.715 197.576C202.715 201.223 202.715 204.871 202.715 208.629C218.393 211.365 218.393 211.365 234.389 214.156C234.389 215.98 234.389 217.803 234.389 219.683C97.3922 237.319 97.3922 237.319 38.009 219.683C45.635 205.901 53.5565 193.81 63.3484 180.996Z" fill="#15316C"/>
<path d="M234.388 20.7222C256.154 29.1619 273.152 40.6143 291.401 53.8824C286.65 64.5904 286.65 64.5904 278.732 75.9892C266.854 79.4434 266.854 79.4434 253.392 81.5159C239.451 85.5233 239.451 85.5233 228.053 92.5693C222.952 103.899 222.952 103.899 221.718 114.676C217.537 114.676 213.356 114.676 209.049 114.676C197.763 96.6255 196.127 88.2755 200.338 67.6991C208.988 48.4915 218.569 35.9034 234.388 20.7222Z" fill="#377BB8"/>
<path d="M38.009 142.308C40.0995 147.78 42.19 153.251 44.3438 158.888C35.9818 160.712 27.6199 162.536 19.0045 164.415C23.1855 168.063 27.3665 171.71 31.6741 175.468C37.9456 173.644 44.2171 171.821 50.6786 169.942C52.7691 160.823 54.8596 151.703 57.0135 142.308C57.7974 147.438 57.7974 147.438 58.5972 152.671C62.1611 165.434 62.1611 165.434 76.4139 171.323C80.4642 172.691 84.5145 174.059 88.6876 175.468C86.5971 182.764 84.5066 190.059 82.3528 197.575C82.3528 192.104 82.3528 186.632 82.3528 180.995C60.741 187.28 56.2625 192.288 44.3438 208.629C44.3438 212.276 44.3438 215.924 44.3438 219.682C110.664 231.551 180.026 223.442 247.058 219.682C250.194 227.889 250.194 227.889 253.393 236.262C285.133 250.955 312.792 255.643 348.416 258.369C345.28 266.576 345.28 266.576 342.081 274.949C294.382 271.977 261.275 259.269 221.719 236.262C207.704 235.333 207.704 235.333 192.321 236.586C186.581 236.896 180.84 237.206 174.925 237.525C165.947 238.097 165.947 238.097 156.787 238.68C59.6626 244.615 59.6626 244.615 31.6741 229.354C25.3393 219.682 25.3393 219.682 27.319 204.829C28.7562 200.611 30.1934 196.394 31.6741 192.048C23.3122 190.225 14.9502 188.401 6.33483 186.522C4.24434 177.403 2.15384 168.284 0 158.888C19.0045 147.835 19.0045 147.835 38.009 142.308Z" fill="#B8BDB8"/>
<path d="M329.411 37.3008C327.321 40.9484 325.23 44.596 323.076 48.3542C316.873 65.1317 316.389 69.538 323.076 87.0411C326.865 86.1292 330.654 85.2173 334.558 84.2777C352.028 80.794 368.537 81.5144 386.425 81.5144C388.515 76.043 390.606 70.5715 392.76 64.9343C394.458 68.4679 396.157 72.0016 397.907 75.6423C404.711 88.8722 404.711 88.8722 424.434 92.5678C424.434 96.2154 424.434 99.863 424.434 103.621C409.655 103.856 394.869 103.847 380.09 103.621C377.999 101.797 375.909 99.9736 373.755 98.0945C364.131 97.6977 354.487 97.6307 344.852 97.7491C339.618 97.7989 334.384 97.8488 328.991 97.9002C324.948 97.9643 320.906 98.0284 316.742 98.0945C314.651 94.4469 312.561 90.7992 310.407 87.0411C306.356 93.0825 302.306 99.1238 298.133 105.348C295.855 108.747 293.576 112.145 291.229 115.646C284.187 126.492 284.187 126.492 278.733 142.308C274.552 142.308 270.371 142.308 266.063 142.308C261.882 149.603 257.701 156.899 253.393 164.415C253.393 153.472 253.393 142.529 253.393 131.255C249.212 131.255 245.031 131.255 240.724 131.255C240.724 118.488 240.724 105.721 240.724 92.5678C236.543 90.744 232.362 88.9202 228.054 87.0411C246.88 76.5478 262.988 68.5015 285.067 64.9343C285.851 61.4007 286.635 57.867 287.443 54.2263C288.75 50.4647 290.056 46.7031 291.402 42.8275C304.072 37.3008 304.072 37.3008 329.411 37.3008Z" fill="#316CA1"/>
<path d="M310.408 81.5151C316.679 85.1628 322.951 88.8104 329.412 92.5685C342.444 93.898 342.444 93.898 355.94 93.2594C363.91 93.0314 371.88 92.8034 380.091 92.5685C380.091 96.2162 380.091 99.8638 380.091 103.622C365.458 103.622 350.824 103.622 335.747 103.622C334.179 108.637 332.612 113.653 330.996 118.82C322.653 137.746 316.601 147.134 297.738 158.889C281.109 156.816 281.109 156.816 266.064 153.362C261.883 157.01 257.702 160.657 253.395 164.416C257.919 117.044 257.919 117.044 278.734 98.0952C280.824 101.743 282.915 105.39 285.069 109.149C293.431 100.03 301.793 90.9105 310.408 81.5151Z" fill="#265E95"/>
<path d="M310.408 81.5151C316.679 85.1628 322.951 88.8104 329.412 92.5685C342.443 93.898 342.443 93.898 355.939 93.2594C363.909 93.0314 371.879 92.8034 380.091 92.5685C380.091 96.2162 380.091 99.8638 380.091 103.622C365.457 103.622 350.824 103.622 335.747 103.622C333.656 109.093 331.566 114.565 329.412 120.202C325.231 116.554 321.05 112.907 316.742 109.149C314.652 118.268 312.561 127.387 310.408 136.782C302.046 138.606 293.684 140.43 285.068 142.309C285.068 147.78 285.068 153.252 285.068 158.889C295.521 155.241 305.973 151.594 316.742 147.836C314.652 155.131 312.561 162.426 310.408 169.942C300.412 171.139 300.412 171.139 290.215 172.36C271.419 174.78 252.964 177.558 234.39 180.996C236.48 191.939 238.571 202.881 240.724 214.156C225.046 208.685 225.046 208.685 209.05 203.103C211.01 199.227 212.97 195.351 214.989 191.358C224.932 167.887 230.921 149.81 221.72 125.729C217.539 123.905 213.358 122.081 209.05 120.202C215.322 120.202 221.593 120.202 228.055 120.202C225.964 111.083 223.874 101.964 221.72 92.5685C227.991 92.5685 234.263 92.5685 240.724 92.5685C240.724 105.335 240.724 118.102 240.724 131.255C244.905 131.255 249.086 131.255 253.394 131.255C255.485 138.551 257.575 145.846 259.729 153.362C261.819 149.715 263.91 146.067 266.064 142.309C270.245 142.309 274.426 142.309 278.733 142.309C279.256 137.407 279.779 132.506 280.317 127.456C285.66 106.869 294.289 96.9386 310.408 81.5151Z" fill="#16447E"/>
<path d="M257.749 0.686913C262.583 1.82679 267.417 2.96668 272.398 4.1411C274.488 11.4363 276.579 18.7316 278.733 26.2479C285.482 25.5533 285.482 25.5533 292.367 24.8446C298.19 24.2818 304.012 23.719 310.011 23.1391C318.72 22.2735 318.72 22.2735 327.605 21.3904C332.382 21.1696 337.159 20.9487 342.081 20.7212C344.172 22.545 346.262 24.3688 348.416 26.2479C358.288 27.2697 368.196 28.0323 378.11 28.6658C403.661 30.6487 425.756 34.5569 449.773 42.828C449.773 44.6518 449.773 46.4756 449.773 48.3547C437.106 48.5898 424.431 48.5802 411.764 48.3547C408.628 45.619 408.628 45.619 405.429 42.828C370.01 37.9333 335.824 34.0553 301.301 43.8643C293.853 45.3461 286.406 46.828 278.733 48.3547C260.52 37.9921 260.52 37.9921 247.059 26.2479C242.878 26.2479 238.697 26.2479 234.389 26.2479C212.896 49.9726 203.046 72.809 195.192 102.24C184.185 141.48 184.185 141.48 177.375 153.362C169.013 153.362 160.652 153.362 152.036 153.362C152.036 149.714 152.036 146.067 152.036 142.309C158.308 140.485 164.579 138.661 171.041 136.782C172.988 127.399 172.988 127.399 174.975 117.827C176.698 109.638 178.422 101.448 180.147 93.2591C181 89.1342 181.854 85.0092 182.733 80.7593C189.327 49.6068 189.327 49.6068 196.38 37.3013C200.561 37.3013 204.742 37.3013 209.05 37.3013C210.748 32.9698 212.447 28.6382 214.197 24.1754C224.343 4.60698 232.708 -2.36141 257.749 0.686913Z" fill="#AFC2CD"/>
<path d="M133.032 147.835C137.311 148.697 141.59 149.559 145.998 150.447C151.649 151.523 157.3 152.599 163.122 153.707C171.501 155.342 171.501 155.342 180.048 157.01C196.296 158.879 206.332 157.847 221.719 153.362C226.075 162.688 226.075 162.688 228.054 175.468C218.948 190.667 218.948 190.667 209.05 203.102C213.231 204.926 217.412 206.75 221.719 208.629C215.448 208.629 209.176 208.629 202.715 208.629C202.715 204.981 202.715 201.333 202.715 197.575C196.443 201.223 190.172 204.871 183.71 208.629C177.439 208.629 171.167 208.629 164.706 208.629C162.615 204.981 160.525 201.333 158.371 197.575C155.758 200.311 153.145 203.047 150.453 205.865C139.367 214.155 139.367 214.155 114.027 214.155C106.338 194.029 109.799 190.216 119.966 171.669C123.58 164.968 123.58 164.968 127.266 158.133C129.169 154.734 131.071 151.336 133.032 147.835Z" fill="#17539A"/>
<path d="M335.375 42.2881C346.73 42.3843 346.73 42.3843 358.314 42.4824C369.694 42.5572 369.694 42.5572 381.303 42.6335C387.174 42.6976 393.046 42.7617 399.095 42.8278C388.819 79.9676 388.819 79.9676 375.735 88.4231C356.447 93.8807 342.594 90.9112 323.077 87.0414C323.077 83.3938 323.077 79.7462 323.077 75.988C318.896 74.1642 314.715 72.3404 310.407 70.4613C314.588 64.9899 318.769 59.5184 323.077 53.8812C318.896 52.0574 314.715 50.2336 310.407 48.3545C316.742 42.8278 316.742 42.8278 335.375 42.2881Z" fill="#6099C4"/>
<path d="M291.403 180.996C295.584 180.996 299.765 180.996 304.072 180.996C306.163 186.467 308.253 191.938 310.407 197.576C301.301 209.665 301.301 209.665 291.403 219.683C295.584 219.683 299.765 219.683 304.072 219.683C306.163 216.035 308.253 212.387 310.407 208.629C310.407 212.277 310.407 215.924 310.407 219.683C318.769 219.683 327.131 219.683 335.746 219.683C337.837 216.035 339.927 212.387 342.081 208.629C346.262 208.629 350.443 208.629 354.751 208.629C346.304 223.367 337.858 238.105 329.412 252.843C305.021 249.507 285.948 243.073 264.084 233.154C258.49 230.639 252.896 228.124 247.133 225.533C242.928 223.602 238.722 221.672 234.389 219.683C253.394 214.156 253.394 214.156 266.459 212.774C280.579 209.401 280.579 209.401 286.652 194.467C289.003 187.799 289.003 187.799 291.403 180.996Z" fill="#16326B"/>
<path d="M323.077 164.416C323.077 175.358 323.077 186.301 323.077 197.576C320.986 193.928 318.896 190.28 316.742 186.522C303.916 182.918 303.916 182.918 291.402 180.996C289.835 186.353 288.267 191.711 286.651 197.23C278.733 214.156 278.733 214.156 266.855 220.373C253.393 219.683 253.393 219.683 238.744 210.356C228.054 197.576 228.054 197.576 228.846 185.486C234.389 175.469 234.389 175.469 247.059 169.942C247.059 173.59 247.059 177.237 247.059 180.996C251.24 180.996 255.421 180.996 259.728 180.996C261.819 177.348 263.909 173.7 266.063 169.942C285.194 166.908 303.605 164.416 323.077 164.416Z" fill="#225797"/>
<path d="M177.376 98.0957C183.711 109.149 183.711 109.149 180.148 125.729C177.143 131.201 174.138 136.672 171.042 142.309C164.901 143.905 158.76 145.501 152.433 147.145C132.735 151.384 132.735 151.384 126.772 163.034C122.078 174.459 118.005 185.948 114.028 197.576C109.976 205.018 105.856 212.439 101.358 219.683C97.1774 219.683 92.9964 219.683 88.6887 219.683C86.5983 205.093 84.5078 190.502 82.3539 175.47C76.0824 175.47 69.811 175.47 63.3494 175.47C61.2589 169.998 59.1684 164.527 57.0146 158.889C48.6526 166.185 40.2906 173.48 31.6753 180.996C27.4943 179.172 23.3133 177.349 19.0056 175.47C19.0056 171.822 19.0056 168.174 19.0056 164.416C27.3676 162.592 35.7296 160.768 44.3449 158.889C42.2544 155.242 40.1639 151.594 38.0101 147.836C31.7386 147.836 25.4671 147.836 19.0056 147.836C33.259 136.437 33.259 136.437 50.6798 125.729C63.5474 126.42 63.5474 126.42 76.0191 131.256C84.0366 141.467 84.0366 141.467 90.2725 153.708C92.3956 157.762 94.5188 161.816 96.7063 165.992C98.2415 169.12 99.7767 172.247 101.358 175.47C103.841 169.314 106.323 163.159 108.881 156.817C116.493 141.269 118.932 137.531 136.2 128.493C152.037 125.729 152.037 125.729 171.042 131.256C170.911 126.81 170.78 122.365 170.646 117.785C171.042 103.622 171.042 103.622 177.376 98.0957Z" fill="#949FA2"/>
<path d="M63.3484 180.996C69.6198 180.996 75.8913 180.996 82.3528 180.996C84.4433 193.762 86.5338 206.529 88.6877 219.683C92.8687 219.683 97.0497 219.683 101.357 219.683C103.448 214.211 105.538 208.74 107.692 203.102C109.783 206.75 111.873 210.398 114.027 214.156C133.558 207.529 152.434 200.466 171.04 192.049C168.95 197.52 166.859 202.992 164.706 208.629C177.249 204.981 189.792 201.334 202.715 197.576C202.715 201.223 202.715 204.871 202.715 208.629C221.529 211.365 221.529 211.365 240.724 214.156C240.724 215.98 240.724 217.803 240.724 219.683C96.3072 236.997 96.3072 236.997 38.009 219.683C45.635 205.901 53.5565 193.81 63.3484 180.996Z" fill="#15316C"/>
<path d="M234.388 20.7222C256.154 29.1619 273.152 40.6143 291.401 53.8824C286.65 64.5904 286.65 64.5904 278.732 75.9892C266.854 79.4434 266.854 79.4434 253.392 81.5159C239.451 85.5233 239.451 85.5233 228.053 92.5693C222.952 103.899 222.952 103.899 221.718 114.676C217.537 114.676 213.356 114.676 209.049 114.676C197.763 96.6255 196.127 88.2755 200.338 67.6991C208.988 48.4915 218.569 35.9034 234.388 20.7222Z" fill="#377BB9"/>
<path d="M196.38 92.5688C200.561 99.8641 204.742 107.159 209.05 114.676C213.231 114.676 217.412 114.676 221.72 114.676C223.81 109.204 225.901 103.733 228.055 98.0955C230.145 101.743 232.236 105.391 234.389 109.149C228.118 117.356 228.118 117.356 221.72 125.729C227.991 133.936 227.991 133.936 234.389 142.309C232.014 157.162 232.014 157.162 228.055 169.943C225.964 164.471 223.874 159 221.72 153.363C217.016 155.414 212.313 157.466 207.466 159.58C190.046 164.416 190.046 164.416 175.396 159.58C171.869 157.528 168.341 155.477 164.706 153.363C168.887 153.363 173.068 153.363 177.376 153.363C178.217 149.9 179.058 146.438 179.925 142.87C181.603 136.095 181.603 136.095 183.315 129.183C184.417 124.695 185.52 120.207 186.655 115.582C190.046 103.622 190.046 103.622 196.38 92.5688Z" fill="#2964A2"/>
<path d="M329.413 31.7759C341.953 32.5514 354.49 33.3643 367.026 34.1938C374.008 34.6426 380.989 35.0915 388.183 35.5539C405.431 37.3026 405.431 37.3026 411.765 42.8293C428.683 43.6094 445.494 43.064 462.444 42.8293C464.535 48.3007 466.625 53.7721 468.779 59.4094C447.874 59.4094 426.969 59.4094 405.431 59.4094C415.447 83.3324 415.447 83.3324 441.064 88.4246C448.119 89.7924 455.175 91.1603 462.444 92.5696C460.354 101.689 458.263 110.808 456.109 120.203C435.204 118.379 414.299 116.555 392.761 114.676C392.761 111.029 392.761 107.381 392.761 103.623C403.213 103.623 413.666 103.623 424.435 103.623C424.435 99.9754 424.435 96.3277 424.435 92.5696C416.073 90.7458 407.711 88.922 399.096 87.0429C394.031 68.8768 392.149 61.0108 399.096 42.8293C378.191 44.6531 357.286 46.4769 335.747 48.356C333.657 42.8845 331.566 37.4131 329.413 31.7759Z" fill="#D9E2E3"/>
<path d="M347.451 108.61C360.442 108.79 373.433 108.97 386.425 109.15C386.425 110.973 386.425 112.797 386.425 114.676C371.791 114.676 357.158 114.676 342.081 114.676C342.633 126.31 343.318 137.938 344.061 149.564C344.428 156.04 344.795 162.515 345.174 169.188C348.632 187.678 351.787 191.423 367.42 203.103C365.837 216.575 365.837 216.575 361.085 230.737C358.949 238.1 356.833 245.468 354.751 252.844C303.492 262.374 273.588 252.196 228.054 230.737C246.208 224.317 253.497 225.24 272.497 230.715C279.258 233.344 286.02 235.973 292.986 238.682C299.813 241.296 306.639 243.911 313.673 246.605C318.867 248.664 324.06 250.722 329.411 252.844C330.673 247.843 330.673 247.843 331.96 242.74C336.699 227.715 345.177 216.176 354.751 203.103C348.479 201.28 342.208 199.456 335.746 197.577C326.667 181.735 328.575 167.885 328.619 150.254C328.595 140.498 328.595 140.498 328.57 130.544C329.689 109.429 329.689 109.429 347.451 108.61Z" fill="#D3E1EA"/>
<path d="M291.403 180.996C295.584 180.996 299.765 180.996 304.073 180.996C306.163 193.762 308.254 206.529 310.407 219.683C318.769 219.683 327.131 219.683 335.747 219.683C337.837 216.035 339.928 212.387 342.082 208.629C346.263 208.629 350.444 208.629 354.751 208.629C346.305 223.367 337.858 238.105 329.412 252.843C299.27 249.556 272.734 239.078 247.059 225.209C244.969 221.562 242.878 217.914 240.724 214.156C251.177 214.156 261.629 214.156 272.399 214.156C278.67 203.213 284.941 192.27 291.403 180.996Z" fill="#16336D"/>
<path d="M335.375 42.2881C346.73 42.3843 346.73 42.3843 358.314 42.4824C369.694 42.5572 369.694 42.5572 381.303 42.6335C387.174 42.6976 393.046 42.7617 399.095 42.8278C388.819 79.9676 388.819 79.9676 375.735 88.4231C356.447 93.8807 342.594 90.9112 323.077 87.0414C323.077 83.3938 323.077 79.7462 323.077 75.988C318.896 74.1642 314.715 72.3404 310.407 70.4613C314.588 64.9899 318.769 59.5184 323.077 53.8812C318.896 52.0574 314.715 50.2336 310.407 48.3545C316.742 42.8278 316.742 42.8278 335.375 42.2881Z" fill="#6099C4"/>
<path d="M323.077 164.416C323.077 175.358 323.077 186.301 323.077 197.576C320.986 193.928 318.896 190.28 316.742 186.522C303.916 182.918 303.916 182.918 291.402 180.996C289.835 186.353 288.267 191.711 286.651 197.23C278.733 214.156 278.733 214.156 266.855 220.373C253.393 219.683 253.393 219.683 238.744 210.356C228.054 197.576 228.054 197.576 228.846 185.486C234.389 175.469 234.389 175.469 247.059 169.942C247.059 173.59 247.059 177.237 247.059 180.996C251.24 180.996 255.421 180.996 259.728 180.996C261.819 177.348 263.909 173.7 266.063 169.942C285.194 166.908 303.605 164.416 323.077 164.416Z" fill="#225996"/>
<path d="M19.0049 192.049C23.1859 192.049 27.3669 192.049 31.6746 192.049C31.4133 196.381 31.152 200.712 30.8827 205.175C29.8547 220.574 29.8547 220.574 44.3442 230.736C82.3628 238.092 119.322 235.85 157.975 233.845C164.12 233.556 170.265 233.268 176.596 232.971C191.64 232.259 206.68 231.514 221.719 230.736C224.855 236.208 224.855 236.208 228.054 241.79C182.142 250.089 138.193 254.055 91.4595 251.807C85.0166 251.556 85.0166 251.556 78.4434 251.301C53.4414 249.746 36.3391 247.116 19.0049 230.736C17.4212 210.357 17.4212 210.357 19.0049 192.049Z" fill="#7A7F7E"/>
<path d="M316.743 103.623C333.732 125.856 331.797 144.228 332.951 170.439C335.992 187.935 341.323 195.665 354.751 208.63C350.57 208.63 346.39 208.63 342.082 208.63C339.991 214.101 337.901 219.573 335.747 225.21C327.385 223.386 319.023 221.562 310.408 219.683C308.317 208.74 306.227 197.798 304.073 186.523C308.254 186.523 312.435 186.523 316.743 186.523C316.743 173.756 316.743 160.99 316.743 147.836C306.29 151.484 295.838 155.131 285.068 158.89C285.068 153.418 285.068 147.947 285.068 142.309C291.144 140.429 291.144 140.429 297.342 138.51C312.13 132.071 312.13 132.071 315.159 116.748C315.681 112.417 316.204 108.085 316.743 103.623Z" fill="#245A99"/>
<path d="M196.38 92.5688C200.561 99.8641 204.742 107.159 209.05 114.676C213.231 114.676 217.412 114.676 221.72 114.676C223.81 109.204 225.901 103.733 228.055 98.0955C230.145 101.743 232.236 105.391 234.389 109.149C228.118 117.356 228.118 117.356 221.72 125.729C227.991 133.936 227.991 133.936 234.389 142.309C232.014 157.162 232.014 157.162 228.055 169.943C225.964 164.471 223.874 159 221.72 153.363C217.016 155.414 212.313 157.466 207.466 159.58C190.046 164.416 190.046 164.416 175.396 159.58C171.869 157.528 168.341 155.477 164.706 153.363C168.887 153.363 173.068 153.363 177.376 153.363C183.647 133.301 189.919 113.239 196.38 92.5688Z" fill="#2763A2"/>
</svg>
