<svg width="755" height="754" viewBox="0 0 755 754" fill="none" xmlns="http://www.w3.org/2000/svg">
<g style="mix-blend-mode:multiply">
<path d="M367.885 403.449C372.066 403.449 376.247 403.449 380.555 403.449C384.736 408.921 388.917 414.392 393.224 420.029C404.123 424.156 415.034 428.263 426.062 432.119C443.169 438.795 455.846 447.373 469.242 458.716C474.389 471.151 474.389 471.151 475.577 480.823C481.849 480.823 488.12 480.823 494.582 480.823C494.582 477.175 494.582 473.528 494.582 469.77C502.944 473.417 511.306 477.065 519.921 480.823C515.74 484.471 511.559 488.118 507.251 491.876C529.12 504.596 534.078 503.694 559.118 500.857C564.826 500.245 570.534 499.632 576.415 499.001C580.767 498.473 585.12 497.946 589.604 497.403C593.785 504.698 597.966 511.994 602.274 519.51C587.64 521.334 573.007 523.158 557.93 525.037C563.548 528.114 569.166 531.192 574.955 534.363C594.949 545.937 611.108 559.555 627.613 574.777C634.001 581.59 634.001 581.59 647.038 580.843C654.865 580.747 654.865 580.747 662.851 580.649C668.085 580.599 673.319 580.549 678.712 580.498C682.755 580.434 686.797 580.37 690.961 580.304C690.961 576.656 690.961 573.008 690.961 569.25C699.323 572.898 707.685 576.545 716.301 580.304C716.301 583.951 716.301 587.599 716.301 591.357C700.622 594.093 700.622 594.093 684.626 596.884C684.626 604.179 684.626 611.474 684.626 618.991C641.296 609.015 611.107 594.208 576.934 569.25C570.9 564.933 564.865 560.616 558.648 556.167C526.728 533.242 495.242 509.905 464.318 485.961C452.61 477.093 440.779 468.416 428.833 459.796C425.056 457.056 421.278 454.316 417.387 451.493C409.812 446.009 402.213 440.551 394.587 435.121C385.45 428.488 376.636 421.52 367.885 414.503C367.885 410.855 367.885 407.207 367.885 403.449Z" fill="#183874"/>
<path d="M190.51 143.693C215.375 164.147 234.51 185.418 253.858 210.014C251.768 191.776 249.677 173.538 247.523 154.747C253.795 156.571 260.066 158.394 266.528 160.273C266.544 164.071 266.561 167.868 266.577 171.78C267.324 186.956 268.708 200.779 272.863 215.54C289.206 226.135 289.206 226.135 310.872 232.121C320.181 237.263 329.285 242.696 338.191 248.355C342.478 251.027 346.765 253.698 351.182 256.451C363.073 266.578 365.469 273.243 367.885 287.388C350.383 284.499 334.145 281.26 317.206 276.334C315.116 279.982 313.025 283.629 310.872 287.388C310.872 281.916 310.872 276.445 310.872 270.807C317.143 268.984 323.415 267.16 329.876 265.281C317.333 265.281 304.79 265.281 291.867 265.281C289.777 261.633 287.686 257.986 285.532 254.227C291.804 254.227 298.075 254.227 304.537 254.227C304.537 250.58 304.537 246.932 304.537 243.174C299.343 242.105 294.15 241.037 288.799 239.936C281.972 238.497 275.145 237.057 268.112 235.575C257.969 233.459 257.969 233.459 247.622 231.3C231.316 227.283 217.902 222.711 203.18 215.54C206.315 217.706 209.451 219.872 212.682 222.103C225.072 235.165 223.718 243.253 222.184 259.754C226.365 259.754 230.546 259.754 234.854 259.754C234.854 263.402 234.854 267.049 234.854 270.807C214.89 268.925 205.664 267.598 191.698 254.573C184.175 243.174 184.175 243.174 184.175 232.121C188.356 232.121 192.537 232.121 196.845 232.121C194.754 224.825 192.664 217.53 190.51 210.014C198.872 208.19 207.234 206.366 215.849 204.487C211.668 199.586 207.487 194.684 203.18 189.634C190.582 171.431 187.739 164.239 190.51 143.693Z" fill="#2A4793"/>
<path d="M399.558 320.549C422.963 321.653 429.886 324.774 445.882 340.238C451.173 346.906 451.173 346.906 456.572 353.709C450.3 361.916 450.3 361.916 443.902 370.289C439.721 370.289 435.54 370.289 431.232 370.289C431.232 373.937 431.232 377.584 431.232 381.343C438.941 382.824 446.65 384.306 454.592 385.833C483.529 392.133 504.994 401.481 526.255 420.029C519.983 421.853 513.712 423.677 507.25 425.556C507.25 429.204 507.25 432.851 507.25 436.61C496.798 436.61 486.345 436.61 475.576 436.61C479.757 442.081 483.938 447.552 488.246 453.19C461.332 450.581 448.538 437.224 431.232 420.029C431.232 416.382 431.232 412.734 431.232 408.976C439.594 412.624 447.956 416.271 456.572 420.029C458.662 416.382 460.753 412.734 462.906 408.976C458.725 407.152 454.544 405.328 450.237 403.449C452.327 399.802 454.418 396.154 456.572 392.396C451.476 391.712 446.38 391.028 441.13 390.323C435.774 389.184 430.417 388.044 424.897 386.869C422.807 383.222 420.716 379.574 418.563 375.816C414.382 375.816 410.201 375.816 405.893 375.816C395.995 360.272 395.995 360.272 386.888 342.656C393.223 326.076 393.223 326.076 399.558 320.549Z" fill="#305E97"/>
<path d="M253.857 248.701C262.218 250.525 270.58 252.349 279.196 254.228C279.196 261.523 279.196 268.818 279.196 276.335C283.377 276.335 287.558 276.335 291.866 276.335C293.956 279.982 296.046 283.63 298.2 287.388C311.667 289.966 311.667 289.966 327.103 290.842C332.337 291.255 337.572 291.669 342.965 292.094C347.007 292.365 351.049 292.636 355.214 292.915C357.304 298.386 359.395 303.858 361.549 309.495C355.277 309.495 349.006 309.495 342.544 309.495C342.544 313.143 342.544 316.79 342.544 320.548C358.223 323.284 358.223 323.284 374.218 326.075C366.696 334.71 366.696 334.71 355.214 342.655C325.535 341.045 304.948 327.663 281.571 312.949C277.946 310.741 274.32 308.532 270.584 306.257C253.071 295.454 236.644 284.677 222.182 270.808C232.635 268.984 243.087 267.16 253.857 265.281C253.857 259.81 253.857 254.338 253.857 248.701Z" fill="#304E9B"/>
<path d="M367.885 403.449C372.066 403.449 376.247 403.449 380.555 403.449C384.736 408.921 388.917 414.392 393.224 420.029C404.123 424.156 415.034 428.263 426.062 432.119C443.169 438.795 455.846 447.373 469.242 458.716C474.389 471.151 474.389 471.151 475.577 480.823C481.849 480.823 488.12 480.823 494.582 480.823C494.582 477.175 494.582 473.528 494.582 469.77C502.944 473.417 511.306 477.065 519.921 480.823C515.74 484.471 511.559 488.118 507.251 491.876C529.12 504.596 534.078 503.694 559.118 500.857C564.826 500.245 570.534 499.632 576.415 499.001C580.767 498.473 585.12 497.946 589.604 497.403C593.785 504.698 597.966 511.994 602.274 519.51C587.64 521.334 573.007 523.158 557.93 525.037C563.548 528.114 569.166 531.192 574.955 534.363C594.972 545.95 610.841 559.76 627.613 574.777C635.923 580.459 644.318 586.056 652.952 591.357C637.115 596.538 637.115 596.538 614.943 596.884C601.207 588.946 590.106 579.743 578.221 569.79C563.647 557.684 548.426 546.917 532.591 536.09C509.391 520.027 486.876 503.533 464.763 486.35C452.9 477.322 440.913 468.504 428.784 459.752C425.013 457.019 421.243 454.285 417.359 451.469C409.794 445.995 402.205 440.546 394.59 435.124C385.453 428.49 376.637 421.521 367.885 414.503C367.885 410.855 367.885 407.207 367.885 403.449Z" fill="#193B78"/>
<path d="M310.87 679.785C371.268 684.176 371.268 684.176 393.223 696.365C398.37 713.636 398.37 713.636 399.557 729.525C378.267 741.909 373.585 743.932 348.879 740.579C331.188 732.346 314.657 722.921 298.2 712.945C303.743 686.003 303.743 686.003 310.87 679.785Z" fill="#9296A0"/>
<path d="M393.224 254.228C393.224 257.876 393.224 261.524 393.224 265.282C403.676 267.106 414.129 268.929 424.898 270.809C424.637 276.052 424.375 281.295 424.106 286.698C422.682 304.535 422.682 304.535 437.568 315.022C433.387 318.67 429.206 322.317 424.898 326.076C411.436 324.003 411.436 324.003 399.559 320.549C397.468 324.196 395.378 327.844 393.224 331.602C375.722 328.714 359.484 325.475 342.545 320.549C342.545 316.901 342.545 313.254 342.545 309.495C348.817 309.495 355.088 309.495 361.55 309.495C355.89 296.464 355.89 296.464 335.814 292.225C326.603 289.831 326.603 289.831 317.206 287.389C317.206 283.741 317.206 280.093 317.206 276.335C342.545 281.862 342.545 281.862 367.884 287.389C367.754 282.943 367.623 278.498 367.489 273.917C368.062 253.389 369.382 254.228 393.224 254.228Z" fill="#1D3780"/>
<path d="M500.915 513.982C524.038 525.202 541.56 537.496 560.304 553.706C590.246 577.824 621.357 593.775 657.6 609.376C681.865 619.86 701.584 631.899 722.634 646.623C739.805 648.48 739.805 648.48 754.308 646.623C752.218 659.39 750.127 672.157 747.974 685.31C741.702 687.134 735.431 688.958 728.969 690.837C724.788 683.542 720.607 676.246 716.299 668.73C722.571 668.73 728.842 668.73 735.304 668.73C731.409 666.465 727.514 664.199 723.5 661.865C702.096 649.415 680.691 636.966 659.286 624.516C648.799 622.389 638.24 620.493 627.612 618.99C627.612 615.342 627.612 611.694 627.612 607.936C622.386 606.91 617.159 605.885 611.775 604.828C578.314 592.838 553.641 571.941 529.1 549.021C519.445 540.213 519.445 540.213 500.915 536.089C500.915 528.794 500.915 521.499 500.915 513.982Z" fill="#E3E5E1"/>
<path d="M190.51 143.693C215.375 164.147 234.51 185.418 253.858 210.014C251.768 191.776 249.677 173.538 247.523 154.747C253.795 156.571 260.066 158.394 266.528 160.273C266.544 164.071 266.561 167.868 266.577 171.78C267.324 186.956 268.708 200.779 272.863 215.54C289.206 226.135 289.206 226.135 310.872 232.121C320.181 237.263 329.285 242.696 338.191 248.355C342.478 251.027 346.765 253.698 351.182 256.451C363.073 266.578 365.469 273.243 367.885 287.388C350.383 284.499 334.145 281.26 317.206 276.334C315.116 279.982 313.025 283.629 310.872 287.388C310.872 281.916 310.872 276.445 310.872 270.807C317.143 268.984 323.415 267.16 329.876 265.281C317.333 265.281 304.79 265.281 291.867 265.281C289.777 261.633 287.686 257.986 285.532 254.227C291.804 254.227 298.075 254.227 304.537 254.227C304.537 250.58 304.537 246.932 304.537 243.174C299.343 242.105 294.15 241.037 288.799 239.936C281.972 238.497 275.145 237.057 268.112 235.575C257.969 233.459 257.969 233.459 247.622 231.3C231.316 227.283 217.902 222.711 203.18 215.54C206.315 217.706 209.451 219.872 212.682 222.103C225.072 235.165 223.718 243.253 222.184 259.754C226.365 259.754 230.546 259.754 234.854 259.754C234.854 263.402 234.854 267.049 234.854 270.807C214.89 268.925 205.664 267.598 191.698 254.573C184.175 243.174 184.175 243.174 184.175 232.121C188.356 232.121 192.537 232.121 196.845 232.121C194.754 224.825 192.664 217.53 190.51 210.014C198.872 208.19 207.234 206.366 215.849 204.487C211.668 199.586 207.487 194.684 203.18 189.634C190.582 171.431 187.739 164.239 190.51 143.693Z" fill="#2A4793"/>
<path d="M323.541 657.678C339.378 665.277 339.378 665.277 355.215 674.258C355.215 677.905 355.215 681.553 355.215 685.311C369.849 688.959 384.482 692.606 399.559 696.365C407.967 725.706 407.967 725.706 398.767 742.651C386.889 751.632 386.889 751.632 372.191 753.121C352.189 751.366 341.783 746.459 325.125 736.779C320.193 734.022 315.26 731.264 310.179 728.424C295.232 716.004 292.54 708.723 291.867 690.838C300.309 677.522 311.366 668.818 323.541 657.678Z" fill="#8E939D"/>
<path d="M139.831 187.908C144.012 187.908 148.193 187.908 152.501 187.908C159.929 198.809 166.987 209.903 173.881 221.068C200.413 261.184 233.794 280.42 279.197 303.969C292.498 312.133 305.702 320.418 318.79 328.839C324.572 332.544 330.353 336.248 336.31 340.065C340.458 342.744 344.606 345.423 348.88 348.183C346.79 355.478 344.699 362.773 342.546 370.289C340.455 366.642 338.365 362.994 336.211 359.236C329.939 357.64 323.668 356.044 317.206 354.4C310.935 352.348 304.663 350.296 298.202 348.183C296.94 342.818 296.94 342.818 295.653 337.345C293.779 331.767 293.779 331.767 291.867 326.076C278.688 319.789 278.688 319.789 262.964 316.404C257.73 315.065 252.496 313.725 247.103 312.345C243.06 311.405 239.018 310.465 234.854 309.496C234.854 304.024 234.854 298.553 234.854 292.916C231.203 291.576 227.553 290.237 223.792 288.857C186.225 270.453 155.277 233.492 139.831 198.962C139.831 195.314 139.831 191.666 139.831 187.908Z" fill="#E8ECED"/>
<path d="M424.899 403.449C426.989 408.921 429.08 414.392 431.234 420.029C437.505 421.853 443.777 423.677 450.238 425.556C460.928 436.955 460.928 436.955 469.243 447.663C471.333 445.839 473.424 444.015 475.577 442.136C473.487 438.488 471.396 434.841 469.243 431.083C488.057 433.818 488.057 433.818 507.252 436.609C509.342 432.962 511.433 429.314 513.586 425.556C517.546 435.919 517.546 435.919 519.921 447.663C515.74 451.31 511.559 454.958 507.252 458.716C510.91 460.519 514.568 462.321 518.338 464.178C523.041 466.593 527.745 469.008 532.591 471.497C537.295 473.869 541.998 476.241 546.844 478.686C550.503 481.215 554.161 483.744 557.93 486.35C557.93 491.821 557.93 497.293 557.93 502.93C543.677 506.729 543.677 506.729 526.256 508.457C511.607 500.512 511.607 500.512 500.917 491.876C503.007 488.229 505.098 484.581 507.252 480.823C503.071 477.175 498.89 473.528 494.582 469.77C494.582 473.417 494.582 477.065 494.582 480.823C488.31 480.823 482.039 480.823 475.577 480.823C469.157 471.657 462.837 462.438 456.573 453.19C450.955 449.542 445.337 445.894 439.548 442.136C424.899 431.083 424.899 431.083 422.919 415.884C423.572 411.781 424.226 407.677 424.899 403.449Z" fill="#4A75AB"/>
<path d="M298.201 171.329C302.382 173.153 306.562 174.977 310.87 176.856C310.87 193.27 310.87 209.684 310.87 226.596C323.413 230.244 335.956 233.891 348.879 237.65C348.879 241.297 348.879 244.945 348.879 248.703C370.829 245.967 370.829 245.967 393.223 243.176C393.223 237.705 393.223 232.233 393.223 226.596C384.861 224.772 376.499 222.948 367.884 221.069C380.427 221.069 392.97 221.069 405.893 221.069C405.631 226.199 405.37 231.328 405.101 236.613C404.174 255.103 404.174 255.103 418.562 270.81C410.2 268.986 401.838 267.162 393.223 265.283C393.223 261.635 393.223 257.988 393.223 254.23C386.951 257.877 380.68 261.525 374.218 265.283C374.218 268.931 374.218 272.578 374.218 276.336C353.409 276.336 344.14 261.148 329.875 248.703C309.5 236.006 289.27 224.701 266.526 215.543C266.526 210.071 266.526 204.6 266.526 198.963C270.707 198.963 274.888 198.963 279.196 198.963C279.98 195.429 280.764 191.895 281.572 188.255C282.878 184.493 284.185 180.731 285.531 176.856C289.712 175.032 293.893 173.208 298.201 171.329Z" fill="#13266C"/>
<path d="M234.853 287.389C264.413 291.856 284.506 306.785 308.272 321.931C323.843 332.08 323.843 332.08 342.545 341.619C359.955 358.232 359.923 373.802 363.652 395.613C370.54 417.364 384.73 424.569 405.893 436.61C399.621 440.257 393.35 443.905 386.888 447.663C361.021 436.074 349.191 426.099 336.21 403.449C333.989 397.294 331.768 391.139 329.479 384.797C317.991 359.93 294.139 349.065 268.902 335.337C253.576 325.903 244.467 317.958 234.853 303.969C234.853 298.497 234.853 293.026 234.853 287.389Z" fill="#C7CCD0"/>
<path d="M399.558 320.549C422.963 321.653 429.886 324.774 445.882 340.238C451.173 346.906 451.173 346.906 456.572 353.709C450.3 361.916 450.3 361.916 443.902 370.289C439.721 370.289 435.54 370.289 431.232 370.289C431.232 373.937 431.232 377.584 431.232 381.343C438.941 382.824 446.65 384.306 454.592 385.833C483.529 392.133 504.994 401.481 526.255 420.029C519.983 421.853 513.712 423.677 507.25 425.556C507.25 429.204 507.25 432.851 507.25 436.61C496.798 436.61 486.345 436.61 475.576 436.61C479.757 442.081 483.938 447.552 488.246 453.19C461.332 450.581 448.538 437.224 431.232 420.029C431.232 416.382 431.232 412.734 431.232 408.976C439.594 412.624 447.956 416.271 456.572 420.029C458.662 416.382 460.753 412.734 462.906 408.976C458.725 407.152 454.544 405.328 450.237 403.449C452.327 399.802 454.418 396.154 456.572 392.396C451.476 391.712 446.38 391.028 441.13 390.323C435.774 389.184 430.417 388.044 424.897 386.869C422.807 383.222 420.716 379.574 418.563 375.816C414.382 375.816 410.201 375.816 405.893 375.816C395.995 360.272 395.995 360.272 386.888 342.656C393.223 326.076 393.223 326.076 399.558 320.549Z" fill="#305E97"/>
<path d="M348.879 353.708C350.969 353.708 353.06 353.708 355.214 353.708C355.54 357.249 355.867 360.79 356.203 364.438C361.568 400.125 371.905 416.638 404.482 438.508C411.451 443.039 411.451 443.039 418.562 447.662C427.468 454.391 436.312 461.184 445.089 468.042C463.312 481.964 481.821 495.442 500.915 508.456C498.824 515.751 496.734 523.046 494.58 530.562C488.619 525.632 482.657 520.702 476.516 515.623C468.549 509.088 460.581 502.554 452.612 496.021C448.7 492.779 444.789 489.537 440.758 486.198C422.913 471.612 405.484 457.885 384.933 446.259C363.18 433.947 353.63 423.952 342.544 403.448C342.384 386.408 344.972 370.378 348.879 353.708Z" fill="#EBECE8"/>
<path d="M203.179 215.542C225.314 219.995 246.592 226.142 268.111 232.468C274.937 234.469 281.764 236.471 288.798 238.534C293.991 240.066 299.185 241.597 304.536 243.175C304.536 246.823 304.536 250.471 304.536 254.229C298.265 256.965 298.265 256.965 291.866 259.756C304.409 259.756 316.952 259.756 329.875 259.756C331.966 263.403 334.056 267.051 336.21 270.809C327.848 270.809 319.486 270.809 310.871 270.809C312.961 278.104 315.052 285.399 317.206 292.916C308.844 291.092 300.482 289.268 291.866 287.389C291.866 283.741 291.866 280.094 291.866 276.336C287.685 276.336 283.504 276.336 279.197 276.336C279.197 269.04 279.197 261.745 279.197 254.229C272.925 254.229 266.654 254.229 260.192 254.229C258.102 259.7 256.011 265.172 253.857 270.809C238.179 265.338 238.179 265.338 222.183 259.756C222.183 250.637 222.183 241.517 222.183 232.122C215.912 230.298 209.64 228.474 203.179 226.595C203.179 222.948 203.179 219.3 203.179 215.542Z" fill="#4A6AB9"/>
<path d="M374.219 320.549C378.4 320.549 382.581 320.549 386.889 320.549C405.894 357.163 405.894 357.163 405.894 375.816C410.075 375.816 414.256 375.816 418.563 375.816C420.654 370.344 422.744 364.873 424.898 359.236C426.989 368.355 429.079 377.474 431.233 386.869C439.595 388.693 447.957 390.517 456.572 392.396C458.663 403.339 460.753 414.282 462.907 425.556C444.093 414.613 425.278 403.67 405.894 392.396C407.984 399.691 410.075 406.986 412.228 414.503C399.955 410.358 399.955 410.358 386.889 403.449C381.742 392.396 381.742 392.396 380.554 381.343C382.645 377.695 384.735 374.047 386.889 370.289C382.708 370.289 378.527 370.289 374.219 370.289C364.967 355.658 361.55 348.765 361.55 331.602C365.731 331.602 369.912 331.602 374.219 331.602C374.219 327.955 374.219 324.307 374.219 320.549Z" fill="#80A4C0"/>
<path d="M203.178 99.4805C215.848 103.28 215.848 103.28 228.518 110.534C230.477 114.181 232.437 117.829 234.456 121.587C243.728 136.813 254.834 137.557 272.861 143.694C285.135 153.366 285.135 153.366 291.866 165.801C286.719 183.763 286.719 183.763 279.196 198.961C275.015 197.137 270.834 195.313 266.527 193.434C266.527 182.492 266.527 171.549 266.527 160.274C262.346 160.274 258.165 160.274 253.857 160.274C255.947 178.512 258.038 196.75 260.192 215.541C232.187 193.265 207.5 167.927 190.509 138.167C192.599 132.696 194.69 127.225 196.843 121.587C194.753 116.116 192.662 110.644 190.509 105.007C194.69 103.183 198.871 101.36 203.178 99.4805Z" fill="#678AB8"/>
<path d="M253.857 248.701C262.218 250.525 270.58 252.349 279.196 254.228C279.196 261.523 279.196 268.818 279.196 276.335C283.377 276.335 287.558 276.335 291.866 276.335C293.956 279.982 296.046 283.63 298.2 287.388C311.667 289.966 311.667 289.966 327.103 290.842C332.337 291.255 337.572 291.669 342.965 292.094C347.007 292.365 351.049 292.636 355.214 292.915C357.304 298.386 359.395 303.858 361.549 309.495C355.277 309.495 349.006 309.495 342.544 309.495C342.544 313.143 342.544 316.79 342.544 320.548C358.223 323.284 358.223 323.284 374.218 326.075C366.696 334.71 366.696 334.71 355.214 342.655C325.535 341.045 304.948 327.663 281.571 312.949C277.946 310.741 274.32 308.532 270.584 306.257C253.071 295.454 236.644 284.677 222.182 270.808C232.635 268.984 243.087 267.16 253.857 265.281C253.857 259.81 253.857 254.338 253.857 248.701Z" fill="#304E9B"/>
<path d="M139.831 110.534C159.373 115.603 169.479 119.208 181.799 133.677C191.79 151.507 200.738 169.599 209.514 187.908C213.65 195.315 217.827 202.705 222.183 210.015C213.821 210.015 205.46 210.015 196.844 210.015C196.844 217.31 196.844 224.605 196.844 232.122C190.573 233.945 184.301 235.769 177.84 237.648C176.762 231.546 176.762 231.546 175.662 225.321C171.412 209.672 165.418 199.707 155.668 186.181C139.701 162.146 134.63 143.756 133.496 116.061C135.586 114.237 137.677 112.413 139.831 110.534Z" fill="#7694AF"/>
<path d="M462.907 265.283C474.261 265.913 485.61 266.618 496.956 267.356C506.437 267.933 506.437 267.933 516.109 268.522C532.59 270.81 532.59 270.81 545.259 281.863C544.072 301.207 544.072 301.207 538.925 320.55C519.92 331.604 519.92 331.604 502.895 329.531C498.061 328.391 493.227 327.251 488.246 326.077C488.246 335.196 488.246 344.315 488.246 353.71C484.196 355.306 480.145 356.902 475.972 358.546C461.943 363.815 461.943 363.815 456.572 375.817C443.506 379.271 443.506 379.271 431.232 381.344C431.232 377.696 431.232 374.049 431.232 370.291C453.161 353.71 453.161 353.71 469.241 353.71C470.156 347.555 471.071 341.4 472.013 335.058C475.576 315.024 475.576 315.024 481.911 303.97C486.092 303.97 490.273 303.97 494.581 303.97C496.671 307.618 498.762 311.265 500.916 315.024C509.278 313.2 517.64 311.376 526.255 309.497C526.255 300.378 526.255 291.259 526.255 281.863C521.159 283.744 521.159 283.744 515.961 285.663C494.195 288.161 481.546 280.049 462.907 270.81C462.907 268.986 462.907 267.162 462.907 265.283Z" fill="#CEDAE6"/>
<path d="M424.897 270.808C433.259 270.808 441.621 270.808 450.236 270.808C452.327 276.279 454.417 281.75 456.571 287.388C460.752 289.212 464.933 291.035 469.241 292.914C469.241 296.562 469.241 300.21 469.241 303.968C473.422 303.968 477.603 303.968 481.911 303.968C477.73 320.382 473.549 336.796 469.241 353.708C462.969 353.708 456.698 353.708 450.236 353.708C435.304 339.715 431.232 334.52 431.232 315.021C427.051 311.374 422.87 307.726 418.562 303.968C420.938 286.697 420.938 286.697 424.897 270.808Z" fill="#1F408A"/>
<path d="M393.224 254.228C393.224 257.876 393.224 261.524 393.224 265.282C403.676 267.106 414.129 268.929 424.898 270.809C424.637 276.052 424.375 281.295 424.106 286.698C422.682 304.535 422.682 304.535 437.568 315.022C433.387 318.67 429.206 322.317 424.898 326.076C411.436 324.003 411.436 324.003 399.559 320.549C397.468 324.196 395.378 327.844 393.224 331.602C375.722 328.714 359.484 325.475 342.545 320.549C342.545 316.901 342.545 313.254 342.545 309.495C348.817 309.495 355.088 309.495 361.55 309.495C355.89 296.464 355.89 296.464 335.814 292.225C326.603 289.831 326.603 289.831 317.206 287.389C317.206 283.741 317.206 280.093 317.206 276.335C342.545 281.862 342.545 281.862 367.884 287.389C367.754 282.943 367.623 278.498 367.489 273.917C368.062 253.389 369.382 254.228 393.224 254.228Z" fill="#1D3780"/>
<path d="M336.209 171.329C344.923 178.457 353.362 185.847 361.548 193.436C361.548 197.084 361.548 200.731 361.548 204.489C378.272 204.489 394.996 204.489 412.227 204.489C422.486 218.705 425.176 224.809 422.521 241.795C421.215 245.898 419.908 250.002 418.562 254.23C435.286 256.053 452.01 257.877 469.241 259.756C467.15 263.404 465.06 267.052 462.906 270.81C422.832 272.789 422.832 272.789 405.892 264.938C395.852 247.966 401.582 233.66 405.892 215.543C389.168 215.543 372.444 215.543 355.214 215.543C342.671 196.393 342.671 196.393 329.874 176.856C331.965 175.032 334.055 173.208 336.209 171.329Z" fill="#C8D1E2"/>
<path d="M355.214 337.129C374.219 357.854 374.219 357.854 374.219 370.289C378.4 370.289 382.581 370.289 386.888 370.289C386.366 374.507 385.843 378.724 385.305 383.07C385.041 398.729 385.041 398.729 399.558 407.94C403.739 410.106 407.92 412.271 412.228 414.503C408.047 409.031 403.866 403.56 399.558 397.923C401.648 392.451 403.739 386.98 405.893 381.343C405.893 384.99 405.893 388.638 405.893 392.396C412.164 394.22 418.436 396.044 424.897 397.923C424.897 408.865 424.897 419.808 424.897 431.083C406.289 426.592 406.289 426.592 386.888 420.029C384.798 414.558 382.707 409.087 380.553 403.449C374.282 405.273 368.01 407.097 361.549 408.976C360.708 405.115 359.867 401.253 359 397.275C357.881 392.245 356.763 387.215 355.61 382.033C354.508 377.032 353.405 372.031 352.269 366.878C349.515 353.711 349.515 353.711 342.544 342.656C346.725 340.832 350.906 339.008 355.214 337.129Z" fill="#3E679A"/>
<path d="M424.899 403.449C426.989 408.921 429.08 414.392 431.234 420.029C437.505 421.853 443.777 423.677 450.238 425.556C460.928 436.955 460.928 436.955 469.243 447.663C471.333 445.839 473.424 444.015 475.577 442.136C473.487 438.488 471.396 434.841 469.243 431.083C488.057 433.818 488.057 433.818 507.252 436.609C509.342 432.962 511.433 429.314 513.586 425.556C517.546 435.919 517.546 435.919 519.921 447.663C515.74 451.31 511.559 454.958 507.252 458.716C510.91 460.519 514.568 462.321 518.338 464.178C523.041 466.593 527.745 469.008 532.591 471.497C537.295 473.869 541.998 476.241 546.844 478.686C550.503 481.215 554.161 483.744 557.93 486.35C557.93 491.821 557.93 497.293 557.93 502.93C543.677 506.729 543.677 506.729 526.256 508.457C511.607 500.512 511.607 500.512 500.917 491.876C503.007 488.229 505.098 484.581 507.252 480.823C503.071 477.175 498.89 473.528 494.582 469.77C494.582 473.417 494.582 477.065 494.582 480.823C488.31 480.823 482.039 480.823 475.577 480.823C469.157 471.657 462.837 462.438 456.573 453.19C450.955 449.542 445.337 445.894 439.548 442.136C424.899 431.083 424.899 431.083 422.919 415.884C423.572 411.781 424.226 407.677 424.899 403.449Z" fill="#4A75AB"/>
<path d="M298.201 171.329C302.382 173.153 306.562 174.977 310.87 176.856C310.87 193.27 310.87 209.684 310.87 226.596C323.413 230.244 335.956 233.891 348.879 237.65C348.879 241.297 348.879 244.945 348.879 248.703C370.829 245.967 370.829 245.967 393.223 243.176C393.223 237.705 393.223 232.233 393.223 226.596C384.861 224.772 376.499 222.948 367.884 221.069C380.427 221.069 392.97 221.069 405.893 221.069C405.631 226.199 405.37 231.328 405.101 236.613C404.174 255.103 404.174 255.103 418.562 270.81C410.2 268.986 401.838 267.162 393.223 265.283C393.223 261.635 393.223 257.988 393.223 254.23C386.951 257.877 380.68 261.525 374.218 265.283C374.218 268.931 374.218 272.578 374.218 276.336C353.409 276.336 344.14 261.148 329.875 248.703C309.5 236.006 289.27 224.701 266.526 215.543C266.526 210.071 266.526 204.6 266.526 198.963C270.707 198.963 274.888 198.963 279.196 198.963C279.98 195.429 280.764 191.895 281.572 188.255C282.878 184.493 284.185 180.731 285.531 176.856C289.712 175.032 293.893 173.208 298.201 171.329Z" fill="#13266C"/>
<path d="M203.179 215.542C225.314 219.995 246.592 226.142 268.111 232.468C274.937 234.469 281.764 236.471 288.798 238.534C293.991 240.066 299.185 241.597 304.536 243.175C304.536 246.823 304.536 250.471 304.536 254.229C298.265 256.965 298.265 256.965 291.866 259.756C304.409 259.756 316.952 259.756 329.875 259.756C331.966 263.403 334.056 267.051 336.21 270.809C327.848 270.809 319.486 270.809 310.871 270.809C312.961 278.104 315.052 285.399 317.206 292.916C308.844 291.092 300.482 289.268 291.866 287.389C291.866 283.741 291.866 280.094 291.866 276.336C287.685 276.336 283.504 276.336 279.197 276.336C279.197 269.04 279.197 261.745 279.197 254.229C272.925 254.229 266.654 254.229 260.192 254.229C258.102 259.7 256.011 265.172 253.857 270.809C238.179 265.338 238.179 265.338 222.183 259.756C222.183 250.637 222.183 241.517 222.183 232.122C215.912 230.298 209.64 228.474 203.179 226.595C203.179 222.948 203.179 219.3 203.179 215.542Z" fill="#4A6AB9"/>
<path d="M374.219 320.549C378.4 320.549 382.581 320.549 386.889 320.549C405.894 357.163 405.894 357.163 405.894 375.816C410.075 375.816 414.256 375.816 418.563 375.816C420.654 370.344 422.744 364.873 424.898 359.236C426.989 368.355 429.079 377.474 431.233 386.869C439.595 388.693 447.957 390.517 456.572 392.396C458.663 403.339 460.753 414.282 462.907 425.556C444.093 414.613 425.278 403.67 405.894 392.396C407.984 399.691 410.075 406.986 412.228 414.503C399.955 410.358 399.955 410.358 386.889 403.449C381.742 392.396 381.742 392.396 380.554 381.343C382.645 377.695 384.735 374.047 386.889 370.289C382.708 370.289 378.527 370.289 374.219 370.289C364.967 355.658 361.55 348.765 361.55 331.602C365.731 331.602 369.912 331.602 374.219 331.602C374.219 327.955 374.219 324.307 374.219 320.549Z" fill="#80A4C0"/>
<path d="M462.907 265.283C474.261 265.913 485.61 266.618 496.956 267.356C506.437 267.933 506.437 267.933 516.109 268.522C532.59 270.81 532.59 270.81 545.259 281.863C544.072 301.207 544.072 301.207 538.925 320.55C519.92 331.604 519.92 331.604 502.895 329.531C498.061 328.391 493.227 327.251 488.246 326.077C488.246 335.196 488.246 344.315 488.246 353.71C484.196 355.306 480.145 356.902 475.972 358.546C461.943 363.815 461.943 363.815 456.572 375.817C443.506 379.271 443.506 379.271 431.232 381.344C431.232 377.696 431.232 374.049 431.232 370.291C453.161 353.71 453.161 353.71 469.241 353.71C470.156 347.555 471.071 341.4 472.013 335.058C475.576 315.024 475.576 315.024 481.911 303.97C486.092 303.97 490.273 303.97 494.581 303.97C496.671 307.618 498.762 311.265 500.916 315.024C509.278 313.2 517.64 311.376 526.255 309.497C526.255 300.378 526.255 291.259 526.255 281.863C521.159 283.744 521.159 283.744 515.961 285.663C494.195 288.161 481.546 280.049 462.907 270.81C462.907 268.986 462.907 267.162 462.907 265.283Z" fill="#D0DBE6"/>
<path d="M424.897 270.808C433.259 270.808 441.621 270.808 450.236 270.808C452.327 276.279 454.417 281.75 456.571 287.388C460.752 289.212 464.933 291.035 469.241 292.914C469.241 296.562 469.241 300.21 469.241 303.968C473.422 303.968 477.603 303.968 481.911 303.968C477.73 320.382 473.549 336.796 469.241 353.708C462.969 353.708 456.698 353.708 450.236 353.708C435.304 339.715 431.232 334.52 431.232 315.021C427.051 311.374 422.87 307.726 418.562 303.968C420.938 286.697 420.938 286.697 424.897 270.808Z" fill="#1F418A"/>
<path d="M336.209 171.329C344.923 178.457 353.362 185.847 361.548 193.436C361.548 197.084 361.548 200.731 361.548 204.489C378.272 204.489 394.996 204.489 412.227 204.489C422.486 218.705 425.176 224.809 422.521 241.795C421.215 245.898 419.908 250.002 418.562 254.23C435.286 256.053 452.01 257.877 469.241 259.756C467.15 263.404 465.06 267.052 462.906 270.81C422.832 272.789 422.832 272.789 405.892 264.938C395.852 247.966 401.582 233.66 405.892 215.543C389.168 215.543 372.444 215.543 355.214 215.543C342.671 196.393 342.671 196.393 329.874 176.856C331.965 175.032 334.055 173.208 336.209 171.329Z" fill="#C8D1E2"/>
<path d="M374.218 442.137C398.145 440.034 409.089 440.225 429.128 452.435C437.029 459.135 437.029 459.135 445.089 465.971C453.063 472.607 453.063 472.607 461.198 479.377C465.943 483.502 470.687 487.627 475.576 491.877C479.34 495.147 483.105 498.417 486.983 501.786C489.49 503.988 491.997 506.189 494.58 508.457C492.49 512.105 490.399 515.753 488.245 519.511C458.778 507.881 436.522 493.843 412.227 475.297C405.109 470.222 397.983 465.155 390.847 460.099C385.36 455.995 379.872 451.892 374.218 447.664C374.218 445.84 374.218 444.016 374.218 442.137Z" fill="#D1D8DD"/>
<path d="M602.272 602.412C636.353 604.291 662.66 606.201 690.96 624.519C688.869 629.99 686.779 635.462 684.625 641.099C688.152 642.581 691.68 644.063 695.315 645.589C711.213 652.712 726.392 660.604 741.638 668.733C724.752 674.189 716.924 674.411 699.274 670.114C684.625 663.206 684.625 663.206 678.29 646.626C660.697 637.27 660.697 637.27 639.885 629.009C632.887 626.081 625.889 623.153 618.678 620.136C613.264 617.935 607.85 615.734 602.272 613.466C602.272 609.818 602.272 606.17 602.272 602.412Z" fill="#A6A89F"/>
<path d="M355.214 337.129C374.219 357.854 374.219 357.854 374.219 370.289C378.4 370.289 382.581 370.289 386.888 370.289C386.366 374.507 385.843 378.724 385.305 383.07C385.041 398.729 385.041 398.729 399.558 407.94C403.739 410.106 407.92 412.271 412.228 414.503C408.047 409.031 403.866 403.56 399.558 397.923C401.648 392.451 403.739 386.98 405.893 381.343C405.893 384.99 405.893 388.638 405.893 392.396C412.164 394.22 418.436 396.044 424.897 397.923C424.897 408.865 424.897 419.808 424.897 431.083C406.289 426.592 406.289 426.592 386.888 420.029C384.798 414.558 382.707 409.087 380.553 403.449C374.282 405.273 368.01 407.097 361.549 408.976C360.708 405.115 359.867 401.253 359 397.275C357.881 392.245 356.763 387.215 355.61 382.033C354.508 377.032 353.405 372.031 352.269 366.878C349.515 353.711 349.515 353.711 342.544 342.656C346.725 340.832 350.906 339.008 355.214 337.129Z" fill="#3E679A"/>
<path d="M203.178 99.4805C215.848 103.28 215.848 103.28 228.518 110.534C230.477 114.181 232.437 117.829 234.456 121.587C243.728 136.813 254.834 137.557 272.861 143.694C285.135 153.366 285.135 153.366 291.866 165.801C286.719 183.763 286.719 183.763 279.196 198.961C275.015 197.137 270.834 195.313 266.527 193.434C266.527 182.492 266.527 171.549 266.527 160.274C262.346 160.274 258.165 160.274 253.857 160.274C255.947 178.512 258.038 196.75 260.192 215.541C232.187 193.265 207.5 167.927 190.509 138.167C192.599 132.696 194.69 127.225 196.843 121.587C194.753 116.116 192.662 110.644 190.509 105.007C194.69 103.183 198.871 101.36 203.178 99.4805Z" fill="#678AB8"/>
<path d="M513.585 447.663C516.851 449.145 520.117 450.627 523.483 452.154C528.578 454.319 533.674 456.485 538.924 458.716C545.457 461.566 551.989 464.416 558.72 467.352C586.975 477.985 616.192 479.275 646.616 480.823C644.525 486.295 642.435 491.766 640.281 497.403C640.281 493.756 640.281 490.108 640.281 486.35C629.829 486.35 619.376 486.35 608.607 486.35C610.698 497.293 612.788 508.236 614.942 519.51C619.123 519.51 623.304 519.51 627.612 519.51C631.792 528.629 635.973 537.748 640.281 547.144C627.612 558.197 627.612 558.197 614.942 563.724C614.942 560.076 614.942 556.429 614.942 552.67C609.193 551.303 603.444 549.935 597.521 548.525C576.277 541.397 566.309 534.323 551.594 519.51C568.317 519.51 585.041 519.51 602.272 519.51C598.091 514.039 593.91 508.567 589.603 502.93C573.235 501.547 573.235 501.547 557.928 502.93C556.377 499.539 554.825 496.148 553.227 492.654C543.672 478.467 536.12 475.083 519.128 468.388C514.538 466.536 509.949 464.684 505.221 462.775C501.709 461.436 498.198 460.096 494.58 458.716C500.852 455.069 507.123 451.421 513.585 447.663Z" fill="#2C589A"/>
<path d="M513.585 447.663C516.851 449.145 520.117 450.627 523.483 452.154C528.578 454.319 533.674 456.485 538.924 458.716C545.457 461.566 551.989 464.416 558.72 467.352C586.975 477.985 616.192 479.275 646.616 480.823C645.44 486.865 644.264 492.906 643.053 499.13C638.648 519.158 638.648 519.158 646.616 536.09C652.887 536.09 659.159 536.09 665.62 536.09C664.183 540.194 662.746 544.297 661.265 548.525C657.418 564.051 657.418 564.051 668.392 576.504C671.658 579.582 674.925 582.66 678.29 585.831C650.711 588.237 633.687 587.982 612.17 572.705C595.937 558.197 595.937 558.197 595.937 547.144C590.972 545.662 586.008 544.18 580.892 542.653C564.263 536.09 564.263 536.09 551.594 519.51C568.317 519.51 585.041 519.51 602.272 519.51C598.091 514.039 593.91 508.567 589.603 502.93C573.235 501.547 573.235 501.547 557.928 502.93C556.377 499.539 554.825 496.148 553.227 492.654C543.672 478.467 536.12 475.083 519.128 468.388C514.538 466.536 509.949 464.684 505.221 462.775C501.709 461.436 498.198 460.096 494.58 458.716C500.852 455.069 507.123 451.421 513.585 447.663Z" fill="#265193"/>
<path d="M139.831 110.534C159.373 115.603 169.479 119.208 181.799 133.677C191.79 151.507 200.738 169.599 209.514 187.908C213.65 195.315 217.827 202.705 222.183 210.015C213.821 210.015 205.46 210.015 196.844 210.015C196.844 217.31 196.844 224.605 196.844 232.122C190.573 233.945 184.301 235.769 177.84 237.648C176.762 231.546 176.762 231.546 175.662 225.321C171.412 209.672 165.418 199.707 155.668 186.181C139.701 162.146 134.63 143.756 133.496 116.061C135.586 114.237 137.677 112.413 139.831 110.534Z" fill="#7695AF"/>
<path d="M608.608 486.352C619.061 486.352 629.513 486.352 640.283 486.352C642.373 502.766 644.464 519.18 646.617 536.092C659.16 534.268 671.703 532.444 684.626 530.565C688.807 543.332 692.988 556.099 697.296 569.252C690.565 577.542 690.565 577.542 678.292 585.832C656.862 588.654 641.465 589.956 622.614 579.615C613.335 572.862 604.588 565.561 595.939 558.199C598.029 554.551 600.12 550.903 602.274 547.145C614.943 552.672 614.943 552.672 621.278 558.199C635.891 543.191 635.891 543.191 631.572 529.529C630.266 526.223 628.959 522.918 627.613 519.512C623.432 519.512 619.251 519.512 614.943 519.512C612.853 508.569 610.762 497.626 608.608 486.352Z" fill="#1A4084"/>
<path d="M266.526 149.221C282.759 146.112 282.759 146.112 304.535 149.221C324.899 167.095 342.278 187.444 355.214 210.015C367.221 212.586 367.221 212.586 380.949 213.469C389.181 214.153 397.412 214.837 405.893 215.542C401.712 219.189 397.531 222.837 393.223 226.595C393.223 232.066 393.223 237.538 393.223 243.175C378.59 244.999 363.956 246.823 348.879 248.702C348.879 245.054 348.879 241.407 348.879 237.648C336.336 234.001 323.793 230.353 310.87 226.595C308.78 210.181 306.689 193.766 304.535 176.855C300.354 176.855 296.173 176.855 291.866 176.855C283.109 167.867 274.639 158.658 266.526 149.221Z" fill="#2C4A97"/>
<path d="M469.241 508.456C518.869 508.456 550.645 544.55 584.654 572.898C602.364 585.897 619.561 593.657 640.282 602.41C642.372 606.058 644.463 609.705 646.617 613.463C601.696 607.243 567.327 595.615 532.59 569.25C532.59 565.602 532.59 561.955 532.59 558.196C528.833 556.786 525.077 555.375 521.207 553.922C505.906 546.49 497.671 538.896 486.662 527.109C483.363 523.618 480.064 520.127 476.665 516.53C474.215 513.866 471.765 511.201 469.241 508.456Z" fill="#BAC7CC"/>
<path d="M671.956 530.563C678.228 532.387 684.499 534.211 690.961 536.09C697.692 551.634 697.692 551.634 703.631 569.25C707.673 576.696 711.823 584.103 716.3 591.357C705.848 593.181 695.395 595.005 684.626 596.884C684.626 604.179 684.626 611.474 684.626 618.991C641.866 610.01 641.866 610.01 627.613 591.357C640.156 587.71 652.698 584.062 665.622 580.304C661.441 573.009 657.26 565.713 652.952 558.197C657.133 558.197 661.314 558.197 665.622 558.197C667.712 549.078 669.803 539.959 671.956 530.563Z" fill="#17316C"/>
<path d="M70.1477 82.9004C76.4192 84.7242 82.6907 86.548 89.1522 88.4271C91.2427 93.8985 93.3332 99.37 95.487 105.007C103.849 105.007 112.211 105.007 120.826 105.007C123.807 111.07 126.787 117.133 129.858 123.379C133.841 131.418 137.825 139.456 141.81 147.494C143.766 151.48 145.722 155.466 147.737 159.573C158.42 181.058 169.641 201.288 184.175 221.068C158.904 213.719 157.673 205.186 145.77 184.799C123.086 149.253 95.6343 127.78 57.478 105.007C61.659 97.7119 65.84 90.4167 70.1477 82.9004Z" fill="#335595"/>
<path d="M450.236 270.808C460.623 272.175 460.623 272.175 471.22 273.571C493.79 276.706 493.79 276.706 513.584 276.334C519.856 278.158 526.127 279.982 532.589 281.861C533.381 294.987 533.381 294.987 532.589 309.495C528.408 313.142 524.227 316.79 519.919 320.548C506.458 318.475 506.458 318.475 494.58 315.021C494.58 311.374 494.58 307.726 494.58 303.968C486.218 303.968 477.856 303.968 469.241 303.968C469.241 300.32 469.241 296.673 469.241 292.914C462.969 291.091 456.698 289.267 450.236 287.388C450.236 281.916 450.236 276.445 450.236 270.808Z" fill="#3C5A9C"/>
<path d="M266.526 149.221C282.759 146.112 282.759 146.112 304.535 149.221C324.899 167.095 342.278 187.444 355.214 210.015C367.221 212.586 367.221 212.586 380.949 213.469C389.181 214.153 397.412 214.837 405.893 215.542C401.712 219.189 397.531 222.837 393.223 226.595C393.223 232.066 393.223 237.538 393.223 243.175C378.59 244.999 363.956 246.823 348.879 248.702C348.879 245.054 348.879 241.407 348.879 237.648C336.336 234.001 323.793 230.353 310.87 226.595C308.78 210.181 306.689 193.766 304.535 176.855C300.354 176.855 296.173 176.855 291.866 176.855C283.109 167.867 274.639 158.658 266.526 149.221Z" fill="#2C4A97"/>
<path d="M70.1477 82.9004C76.4192 84.7242 82.6907 86.548 89.1522 88.4271C91.2427 93.8985 93.3332 99.37 95.487 105.007C103.849 105.007 112.211 105.007 120.826 105.007C123.807 111.07 126.787 117.133 129.858 123.379C133.841 131.418 137.825 139.456 141.81 147.494C143.766 151.48 145.722 155.466 147.737 159.573C158.42 181.058 169.641 201.288 184.175 221.068C158.904 213.719 157.673 205.186 145.77 184.799C123.086 149.253 95.6343 127.78 57.478 105.007C61.659 97.7119 65.84 90.4167 70.1477 82.9004Z" fill="#325595"/>
<path d="M108.157 49.7402C112.338 51.564 116.519 53.3879 120.827 55.2669C102.012 68.0336 83.1979 80.8003 63.8133 93.9538C76.5978 116.261 82.5712 121.187 104.99 134.713C129.092 150.34 140.922 161.113 146.166 187.908C141.985 189.732 137.804 191.555 133.496 193.434C130.491 188.875 127.486 184.315 124.39 179.618C101.263 149.134 66.727 125.124 32.1392 105.007C32.1392 97.712 32.1392 90.4168 32.1392 82.9004C35.6669 82.3305 39.1946 81.7606 42.8292 81.1733C67.3346 74.8174 87.0285 62.0291 108.157 49.7402Z" fill="#D4DCE6"/>
<path d="M120.825 49.7402C146.132 57.3102 163.902 67.7419 184.173 82.9004C180.967 94.8864 177.839 105.005 171.503 116.061C179.865 114.237 188.227 112.413 196.843 110.534C201.198 120.551 201.198 120.551 203.177 132.641C194.071 142.312 194.071 142.312 184.173 149.221C181.298 144.775 178.424 140.33 175.462 135.75C166.769 121.098 166.769 121.098 152.499 116.061C152.499 112.413 152.499 108.765 152.499 105.007C156.68 105.007 160.861 105.007 165.168 105.007C165.168 101.36 165.168 97.712 165.168 93.9538C157.525 91.5601 157.525 91.5601 149.727 89.118C133.494 82.9004 133.494 82.9004 127.159 71.847C118.797 73.6708 110.435 75.4947 101.82 77.3737C113.698 55.9578 113.698 55.9578 120.825 49.7402Z" fill="#45669B"/>
<path d="M133.495 71.847C139.958 77.2598 146.301 82.7841 152.5 88.4271C156.681 90.251 160.862 92.0748 165.169 93.9538C165.169 97.6015 165.169 101.249 165.169 105.007C161.25 106.603 157.33 108.199 153.292 109.843C138.986 115.714 138.986 115.714 127.16 127.114C125.07 119.819 122.979 112.524 120.826 105.007C112.464 106.831 104.102 108.655 95.4863 110.534C88.7556 100.517 88.7556 100.517 82.8167 88.4271C84.9071 82.9557 86.9976 77.4843 89.1515 71.847C107.801 65.339 113.854 66.1353 133.495 71.847Z" fill="#577AB2"/>
<path d="M120.827 11.0547C122.917 11.0547 125.008 11.0547 127.161 11.0547C127.186 14.9873 127.21 18.9199 127.236 22.9716C136.953 47.3663 158.591 55.7893 182.987 69.085C214.143 86.3364 237.731 101.064 260.193 127.115C276.883 131.976 276.883 131.976 291.867 132.642C291.867 136.29 291.867 139.937 291.867 143.695C278.01 145.423 278.01 145.423 260.193 143.695C243.96 130.57 243.96 130.57 228.519 116.062C216.571 107.615 216.571 107.615 203.179 105.009C185.953 109.358 185.953 109.358 171.505 116.062C173.596 105.119 175.686 94.1763 177.84 82.9018C171.667 79.9844 171.667 79.9844 165.368 77.0081C149.212 68.6773 134.799 60.6958 120.827 49.7416C117.263 28.3256 117.263 28.3256 120.827 11.0547Z" fill="#E8E6E0"/>
<path d="M450.236 270.808C460.623 272.175 460.623 272.175 471.22 273.571C493.79 276.706 493.79 276.706 513.584 276.334C519.856 278.158 526.127 279.982 532.589 281.861C533.381 294.987 533.381 294.987 532.589 309.495C528.408 313.142 524.227 316.79 519.919 320.548C506.458 318.475 506.458 318.475 494.58 315.021C494.58 311.374 494.58 307.726 494.58 303.968C486.218 303.968 477.856 303.968 469.241 303.968C469.241 300.32 469.241 296.673 469.241 292.914C462.969 291.091 456.698 289.267 450.236 287.388C450.236 281.916 450.236 276.445 450.236 270.808Z" fill="#3C5A9C"/>
<path d="M120.825 49.7402C146.132 57.3102 163.902 67.7419 184.173 82.9004C180.967 94.8864 177.839 105.005 171.503 116.061C179.865 114.237 188.227 112.413 196.843 110.534C201.198 120.551 201.198 120.551 203.177 132.641C194.071 142.312 194.071 142.312 184.173 149.221C181.298 144.775 178.424 140.33 175.462 135.75C166.769 121.098 166.769 121.098 152.499 116.061C152.499 112.413 152.499 108.765 152.499 105.007C156.68 105.007 160.861 105.007 165.168 105.007C165.168 101.36 165.168 97.712 165.168 93.9538C157.525 91.5601 157.525 91.5601 149.727 89.118C133.494 82.9004 133.494 82.9004 127.159 71.847C118.797 73.6708 110.435 75.4947 101.82 77.3737C113.698 55.9578 113.698 55.9578 120.825 49.7402Z" fill="#45669B"/>
<path d="M133.495 71.847C139.958 77.2598 146.301 82.7841 152.5 88.4271C156.681 90.251 160.862 92.0748 165.169 93.9538C165.169 97.6015 165.169 101.249 165.169 105.007C161.25 106.603 157.33 108.199 153.292 109.843C138.986 115.714 138.986 115.714 127.16 127.114C125.07 119.819 122.979 112.524 120.826 105.007C112.464 106.831 104.102 108.655 95.4863 110.534C88.7556 100.517 88.7556 100.517 82.8167 88.4271C84.9071 82.9557 86.9976 77.4843 89.1515 71.847C107.801 65.339 113.854 66.1353 133.495 71.847Z" fill="#577AB2"/>
<path d="M13.1336 0C13.6563 5.47143 14.1789 10.9429 14.7173 16.5801C18.6011 41.3097 30.9958 61.3227 44.8078 82.9005C54.803 77.771 54.803 77.771 65.0001 72.5379C83.1345 63.4698 101.138 55.9863 120.826 49.7403C102.754 65.9446 85.0289 80.9283 63.8123 93.9539C72.9195 113.522 83.4515 121.411 103.405 132.986C137.954 155.496 152.903 182.321 171.504 215.541C190.327 245.951 206.294 264.871 241.188 281.862C238.052 287.333 238.052 287.333 234.853 292.915C188.594 275.555 160.878 236.734 137.851 199.307C117.579 167.351 92.4424 146.597 60.8676 122.991C40.4791 107.176 26.8011 92.4056 13.1336 71.8471C13.1336 64.5519 13.1336 57.2566 13.1336 49.7403C8.95265 49.7403 4.77166 49.7403 0.463977 49.7403C-0.154659 15.7381 -0.154659 15.7381 0.463977 5.5267C6.79881 0 6.79881 0 13.1336 0Z" fill="#D8E1E9"/>
<path d="M6.79824 49.7402C8.48043 52.8963 10.1626 56.0523 11.8958 59.304C31.1783 91.2451 58.3672 118.509 89.9429 141.622C122.277 165.319 141.749 191.414 161.21 223.831C177.148 249.579 197.609 267.779 222.182 287.388C230.629 294.757 239.075 302.126 247.522 309.495C241.25 312.231 241.25 312.231 234.852 315.022C181.28 283.016 147.803 246.292 118.846 195.852C102.756 169.364 79.4056 153.02 53.5671 133.742C27.9383 113.105 8.48821 91.5278 4.8186 60.7936C5.47188 57.146 6.12516 53.4984 6.79824 49.7402Z" fill="#67809A"/>
</g>
</svg>
