<svg width="103" height="123" viewBox="0 0 103 123" fill="none" xmlns="http://www.w3.org/2000/svg">
<path d="M56.2492 14.6348C72.2947 19.301 76.1467 25.18 84.0769 37.8597C89.9422 51.2505 88.7342 62.9448 87.5926 77.1375C84.6373 78.4266 81.6821 79.7157 78.6373 81.0439C77.1597 78.4657 75.6821 75.8874 74.1597 73.2311C71.2044 72.0225 68.2492 70.814 65.2044 69.5688C56.2492 65.4182 56.2492 65.4182 51.7715 53.699C54.7268 53.699 57.682 53.699 60.7268 53.699C60.7268 51.1207 60.7268 48.5425 60.7268 45.8861C57.3098 46.7724 53.8928 47.6587 50.3723 48.5718C46.4012 48.9746 42.4301 49.3775 38.3386 49.7926C30.8701 44.0092 30.8701 44.0092 24.9058 38.0733C29.7991 34.0381 34.7552 30.0609 39.7379 26.1099C42.4911 23.8892 45.2443 21.6685 48.081 19.3805C52.1242 17.0313 52.1242 17.0313 56.2492 14.6348Z" fill="#37384C"/>
<path d="M47.2939 2.91504C56.1596 2.91504 65.0253 2.91504 74.1597 2.91504C76.0991 7.74923 78.0384 12.5834 80.0366 17.5641C84.2827 27.667 87.5118 34.0808 95.4284 42.4675C101.025 49.7921 101.025 49.7921 99.6262 62.4879C98.1024 67.8056 98.1024 67.8056 96.5478 73.2306C95.0702 73.2306 93.5926 73.2306 92.0702 73.2306C90.962 69.2827 89.8538 65.3348 88.712 61.2672C83.5779 45.363 75.0668 32.5943 65.2044 18.5407C49.8195 24.5062 37.8053 32.601 24.9058 41.9792C26.3834 49.714 27.861 57.4487 29.3834 65.4178C24.9506 64.1286 20.5177 62.8395 15.9505 61.5113C12.5923 48.8155 12.5923 48.8155 11.4729 34.1664C21.1917 22.6592 27.2423 19.1634 42.8163 14.6343C44.2939 10.7669 45.7715 6.89959 47.2939 2.91504Z" fill="#EDEDE5"/>
<path d="M20.4292 41.9785C26.3397 41.9785 32.2501 41.9785 38.3397 41.9785C38.3397 44.5568 38.3397 47.135 38.3397 49.7914C45.7278 48.5022 53.1159 47.2131 60.7279 45.8849C59.2502 49.7523 57.7726 53.6196 56.2502 57.6042C61.8715 67.4126 67.4471 68.8205 78.6384 73.2299C78.6384 80.9646 78.6384 88.6993 78.6384 96.6684C68.2951 97.9575 57.9517 99.2466 47.295 100.575C48.7726 95.4184 50.2502 90.2619 51.7726 84.9491C56.2055 84.9491 60.6383 84.9491 65.2055 84.9491C65.2055 82.3709 65.2055 79.7927 65.2055 77.1363C61.9732 76.9752 58.7409 76.814 55.4107 76.648C37.0775 71.672 31.5136 63.3299 20.4292 49.7914C20.4292 47.2131 20.4292 44.6349 20.4292 41.9785Z" fill="#C1CBC4"/>
<path d="M87.5926 53.6973C89.0702 53.6973 90.5478 53.6973 92.0702 53.6973C97.1178 68.7432 97.5245 78.0471 89.2717 91.7849C82.5269 100.925 78.5922 104.505 67.7231 110.34C54.9334 112.518 46.3147 111.491 33.861 108.387C34.0457 104.198 34.2304 100.008 34.4207 95.6913C33.9121 82.3803 32.9085 76.3256 24.9058 65.4165C27.861 62.8383 30.8162 60.2601 33.861 57.6037C35.708 60.1014 37.5551 62.599 39.4581 65.1724C48.0914 74.0494 52.2831 75.5809 65.2044 77.1358C65.2044 79.714 65.2044 82.2923 65.2044 84.9486C60.7716 86.2378 56.3387 87.5269 51.7715 88.8551C50.2939 92.7224 48.8163 96.5898 47.2939 100.574C62.8089 98.6406 62.8089 98.6406 78.6373 96.6679C82.0063 82.3916 84.9082 68.0833 87.5926 53.6973Z" fill="#7C7D8A"/>
<path d="M83.1149 2.914C95.5262 29.5973 104.573 57.3525 93.1371 85.544C87.0649 95.7832 81.6747 103.156 69.682 108.387C59.9852 108.387 52.0327 107.065 42.8163 104.481C44.2939 99.3245 45.7715 94.168 47.2939 88.8553C47.2939 92.7226 47.2939 96.59 47.2939 100.575C62.8089 98.6408 62.8089 98.6408 78.6373 96.6681C80.172 90.1649 81.6536 83.6521 83.1149 77.136C84.4078 73.5909 85.7008 70.0458 87.0329 66.3933C87.8784 47.2134 76.8286 34.3306 65.2044 18.5397C62.5262 19.7482 59.8481 20.9568 57.0887 22.202C47.2939 26.3525 47.2939 26.3525 33.861 30.2589C33.861 27.6807 33.861 25.1025 33.861 22.4461C30.9058 21.157 27.9505 19.8679 24.9058 18.5397C45.2092 0.826378 53.7514 -3.7466 83.1149 2.914Z" fill="#93949F"/>
<path d="M56.2492 14.6348C75.1592 20.134 78.7612 29.5863 87.8199 44.467C93.4948 56.7933 92.9097 64.7672 87.5926 77.1375C84.6373 78.4266 81.6821 79.7157 78.6373 81.0439C75.6821 79.7548 72.7268 78.4657 69.682 77.1375C69.682 74.5593 69.682 71.981 69.682 69.3247C65.2492 68.0355 60.8163 66.7464 56.2492 65.4182C54.7715 61.5509 53.2939 57.6835 51.7715 53.699C54.7268 53.699 57.682 53.699 60.7268 53.699C60.7268 51.1207 60.7268 48.5425 60.7268 45.8861C57.3098 46.7724 53.8928 47.6587 50.3723 48.5718C46.4012 48.9746 42.4301 49.3775 38.3386 49.7926C30.8701 44.0092 30.8701 44.0092 24.9058 38.0733C29.7991 34.0381 34.7552 30.0609 39.7379 26.1099C42.4911 23.8892 45.2443 21.6685 48.081 19.3805C52.1242 17.0313 52.1242 17.0313 56.2492 14.6348Z" fill="#AEAEB6"/>
<path d="M20.4292 22.4468C20.4292 34.166 20.4292 34.166 16.7911 42.9555C15.7934 55.7217 17.9812 57.0798 26.8658 66.6382C41.0221 82.1273 40.2877 92.9205 38.3397 112.294C66.7692 106.644 66.7692 106.644 87.5936 90.0767C92.7719 75.1118 95.0107 61.4515 96.5489 45.8853C98.0265 45.8853 99.5041 45.8853 101.026 45.8853C104.109 87.8691 104.109 87.8691 92.6309 103.261C89.491 106.242 86.3511 109.223 83.116 112.294C80.1607 112.294 77.2055 112.294 74.1607 112.294C74.1607 114.873 74.1607 117.451 74.1607 120.107C56.5336 125.233 46.7358 121.056 29.3844 116.201C28.9689 109.191 28.9689 109.191 28.5449 102.04C26.6393 87.7077 24.7644 84.8011 13.4329 72.9861C2.51867 61.511 2.51867 61.511 0 47.1061C2.51867 34.166 2.51867 34.166 11.4739 26.5973C14.4292 25.2277 17.3844 23.858 20.4292 22.4468Z" fill="#666776"/>
<path d="M20.4292 41.9785C26.3397 41.9785 32.2501 41.9785 38.3397 41.9785C38.3397 44.5568 38.3397 47.135 38.3397 49.7914C45.7278 48.5022 53.1159 47.2131 60.7279 45.8849C59.2502 49.7523 57.7726 53.6196 56.2502 57.6042C58.4667 59.3767 60.6831 61.1493 62.9667 62.9755C69.6831 69.3235 69.6831 69.3235 69.6831 77.1363C72.6384 77.1363 75.5936 77.1363 78.6384 77.1363C78.6384 83.5819 78.6384 90.0275 78.6384 96.6684C68.2951 97.9575 57.9517 99.2466 47.295 100.575C48.7726 95.4184 50.2502 90.2619 51.7726 84.9491C56.2055 84.9491 60.6383 84.9491 65.2055 84.9491C65.2055 82.3709 65.2055 79.7927 65.2055 77.1363C61.9732 76.9752 58.7409 76.814 55.4107 76.648C37.0775 71.672 31.5136 63.3299 20.4292 49.7914C20.4292 47.2131 20.4292 44.6349 20.4292 41.9785Z" fill="#E4E4E7"/>
<path d="M24.9075 22.4468C27.8628 22.4468 30.818 22.4468 33.8628 22.4468C33.124 24.7027 32.3852 26.9587 31.624 29.283C28.7376 39.1141 28.7376 39.1141 29.3852 53.6981C37.6386 64.7562 42.9425 71.8588 57.3703 76.4042C59.9562 76.6459 62.542 76.8876 65.2062 77.1367C65.2062 79.7149 65.2062 82.2931 65.2062 84.9495C57.8181 86.2386 50.43 87.5277 42.8181 88.8559C42.8181 94.0124 42.8181 99.1689 42.8181 104.482C48.7285 105.771 54.639 107.06 60.7286 108.388C53.3405 109.677 45.9524 110.966 38.3404 112.294C37.9248 105.406 37.9248 105.406 37.5009 98.3778C35.7169 84.8254 31.8133 77.2855 22.109 66.6382C11.4442 54.867 11.4442 54.867 11.7545 42.9555C15.9523 34.166 15.9523 34.166 24.9075 22.4468Z" fill="#7C7D8A"/>
</svg>
