<svg width="835" height="327" viewBox="0 0 835 327" fill="none" xmlns="http://www.w3.org/2000/svg">
<g style="mix-blend-mode:multiply">
<path d="M665.157 149.222C697.181 153.52 728.614 159.498 760.179 165.802C755.998 167.626 751.817 169.449 747.509 171.328C747.509 174.976 747.509 178.624 747.509 182.382C762.143 184.206 776.776 186.03 791.853 187.909C791.853 189.732 791.853 191.556 791.853 193.435C779.31 193.435 766.767 193.435 753.844 193.435C756.98 198.907 756.98 198.907 760.179 204.489C792.747 210.882 792.747 210.882 823.527 204.489C823.527 213.608 823.527 222.727 823.527 232.122C787.647 235.36 787.647 235.36 772.849 232.122C767.982 226.701 763.115 221.279 758.1 215.693C737.714 196.664 719.65 196.045 690.446 194.709C673.279 194.467 656.187 194.382 639.025 194.472C621.851 194.368 604.679 194.187 587.505 194.018C576.125 194.031 576.125 194.031 564.514 194.044C548.15 193.539 534.975 192.141 519.456 187.909C540.146 177.336 557.429 174.884 581.22 173.401C587.459 172.988 593.698 172.575 600.126 172.149C604.862 171.878 609.598 171.607 614.478 171.328C616.569 165.857 618.659 160.386 620.813 154.748C629.175 154.748 637.537 154.748 646.152 154.748C646.152 158.396 646.152 162.044 646.152 165.802C656.605 163.978 667.057 162.154 677.826 160.275C673.645 156.627 669.464 152.98 665.157 149.222Z" fill="#19316C"/>
<path d="M696.831 99.4814C741.025 100.788 741.025 100.788 757.928 111.787C771.897 125.484 778.887 135.783 781.164 154.058C780.184 159.871 780.184 159.871 779.184 165.802C795.908 167.626 812.632 169.449 829.863 171.329C838.569 192.427 834.169 210.416 829.863 232.122C823.591 228.475 817.32 224.827 810.858 221.069C810.858 217.421 810.858 213.774 810.858 210.015C794.134 210.015 777.41 210.015 760.18 210.015C758.089 204.544 755.999 199.073 753.845 193.435C760.116 191.612 766.388 189.788 772.849 187.909C764.487 186.085 756.125 184.261 747.51 182.382C747.51 178.734 747.51 175.087 747.51 171.329C741.447 169.726 741.447 169.726 735.261 168.09C730.027 166.651 724.792 165.212 719.399 163.729C714.181 162.319 708.963 160.908 703.587 159.455C690.496 154.748 690.496 154.748 684.162 143.695C686.252 140.047 688.343 136.4 690.496 132.642C707.22 136.289 723.944 139.937 741.175 143.695C727.972 132.176 707.487 127.787 690.496 121.588C692.587 114.293 694.677 106.998 696.831 99.4814Z" fill="#224792"/>
<path d="M348.414 116.062C363.311 119.37 378.098 123.076 392.758 127.115C394.848 130.763 396.939 134.41 399.092 138.168C392.821 140.904 392.821 140.904 386.423 143.695C401.056 147.343 415.69 150.99 430.767 154.748C432.857 149.277 434.948 143.806 437.101 138.168C452.78 140.904 452.78 140.904 468.776 143.695C462.441 160.275 462.441 160.275 449.771 165.802C468.585 168.538 468.585 168.538 487.78 171.329C487.78 176.8 487.78 182.271 487.78 187.909C456.423 187.909 425.065 187.909 392.758 187.909C411.762 176.855 411.762 176.855 424.432 171.329C418.324 170.723 412.215 170.117 405.922 169.493C397.919 168.617 389.917 167.741 381.672 166.838C369.766 165.588 369.766 165.588 357.619 164.312C336.311 160.38 326.175 156.377 310.405 143.695C314.324 141.187 318.244 138.68 322.283 136.096C336.119 127.275 336.119 127.275 348.414 116.062Z" fill="#25589B"/>
<path d="M549.152 81.8648C553.598 81.9396 558.044 82.0144 562.626 82.0915C573.577 82.2865 584.527 82.5839 595.475 82.9011C595.475 86.5487 595.475 90.1963 595.475 93.9545C603.837 93.9545 612.199 93.9545 620.814 93.9545C620.814 101.25 620.814 108.545 620.814 116.061C604.09 116.061 587.366 116.061 570.136 116.061C572.226 119.709 574.317 123.357 576.471 127.115C572.29 127.115 568.109 127.115 563.801 127.115C561.71 132.586 559.62 138.058 557.466 143.695C547.014 143.695 536.561 143.695 525.792 143.695C525.792 140.047 525.792 136.4 525.792 132.641C532.063 132.641 538.335 132.641 544.796 132.641C542.706 123.522 540.615 114.403 538.462 105.008C532.811 105.471 527.16 105.934 521.338 106.411C510.216 107.255 510.216 107.255 498.869 108.117C487.845 108.982 487.845 108.982 476.598 109.865C458.956 110.442 447.273 109.72 430.769 105.008C426.066 103.982 421.362 102.956 416.516 101.899C412.858 101.101 409.199 100.303 405.43 99.4812C411.765 93.9545 411.765 93.9545 432.749 93.2636C456.109 93.9545 456.109 93.9545 470.362 97.7541C474.021 98.324 477.679 98.894 481.448 99.4812C483.808 96.8024 486.168 94.1237 488.6 91.3638C506.916 78.2861 526.616 81.1489 549.152 81.8648Z" fill="#274D8B"/>
<path d="M665.155 149.222C697.179 153.52 728.612 159.498 760.177 165.802C755.996 167.626 751.815 169.449 747.508 171.328C747.508 174.976 747.508 178.624 747.508 182.382C762.141 184.206 776.775 186.03 791.851 187.909C791.851 189.732 791.851 191.556 791.851 193.435C779.308 193.435 766.766 193.435 753.842 193.435C756.978 198.907 756.978 198.907 760.177 204.489C792.745 210.882 792.745 210.882 823.526 204.489C823.526 213.608 823.526 222.727 823.526 232.122C787.645 235.36 787.645 235.36 772.847 232.122C768.209 226.765 763.57 221.407 758.792 215.888C732.004 190.859 693.876 193.463 657.187 192.118C647.437 191.863 637.688 191.611 627.938 191.363C618.039 190.996 608.141 190.615 598.243 190.219C574.095 189.284 549.949 188.543 525.789 187.909C546.598 175.805 556.392 174.906 580.822 173.401C587.118 172.988 593.414 172.575 599.901 172.149C604.711 171.878 609.521 171.607 614.476 171.328C616.567 165.857 618.657 160.386 620.811 154.748C629.173 154.748 637.535 154.748 646.15 154.748C646.15 158.396 646.15 162.044 646.15 165.802C656.603 163.978 667.055 162.154 677.824 160.275C673.644 156.627 669.463 152.98 665.155 149.222Z" fill="#18316C"/>
<path d="M361.085 11.0544C356.904 25.6449 352.723 40.2354 348.416 55.268C380.383 59.0496 411.169 61.078 443.438 60.7947C494.28 60.3738 544.774 63.355 595.474 66.3214C595.474 69.9691 595.474 73.6167 595.474 77.3748C574.471 83.4827 556.172 84.676 534.105 86.0103C522.897 86.7049 522.897 86.7049 511.463 87.4136C505.739 87.7484 500.015 88.0833 494.117 88.4282C494.117 84.7806 494.117 81.133 494.117 77.3748C487.933 77.5051 487.933 77.5051 481.625 77.638C462.958 77.9825 444.291 78.1982 425.621 78.4111C419.133 78.55 412.646 78.6889 405.961 78.8321C396.621 78.9122 396.621 78.9122 387.093 78.994C378.484 79.1242 378.484 79.1242 369.701 79.2571C354.75 77.3748 354.75 77.3748 343.103 70.2573C335.746 60.7947 335.746 60.7947 337.726 40.415C339.163 34.3737 340.6 28.3323 342.081 22.1078C329.538 25.7555 316.995 29.4031 304.072 33.1612C304.072 29.5136 304.072 25.866 304.072 22.1078C339.705 4.8369 339.705 4.8369 361.085 11.0544Z" fill="#E9E7DD"/>
<path d="M549.152 81.8648C553.598 81.9396 558.044 82.0144 562.626 82.0915C573.577 82.2865 584.527 82.5839 595.475 82.9011C595.475 86.5487 595.475 90.1963 595.475 93.9545C600.832 94.2964 606.189 94.6384 611.708 94.9907C639.93 100.81 655.06 111.621 677.828 127.115C669.658 134.717 661.187 142.079 652.489 149.221C648.308 149.221 644.127 149.221 639.819 149.221C639.819 145.574 639.819 141.926 639.819 138.168C623.095 136.344 606.371 134.52 589.14 132.641C589.14 130.818 589.14 128.994 589.14 127.115C601.683 125.291 614.226 123.467 627.149 121.588C608.335 119.764 589.52 117.94 570.136 116.061C572.226 119.709 574.317 123.357 576.471 127.115C572.29 127.115 568.109 127.115 563.801 127.115C561.71 132.586 559.62 138.058 557.466 143.695C547.014 143.695 536.561 143.695 525.792 143.695C525.792 140.047 525.792 136.4 525.792 132.641C532.063 132.641 538.335 132.641 544.796 132.641C542.706 123.522 540.615 114.403 538.462 105.008C532.811 105.471 527.16 105.934 521.338 106.411C510.216 107.255 510.216 107.255 498.869 108.117C487.845 108.982 487.845 108.982 476.598 109.865C458.956 110.442 447.273 109.72 430.769 105.008C426.066 103.982 421.362 102.956 416.516 101.899C412.858 101.101 409.199 100.303 405.43 99.4812C411.765 93.9545 411.765 93.9545 432.749 93.2636C456.109 93.9545 456.109 93.9545 470.362 97.7541C474.021 98.324 477.679 98.894 481.448 99.4812C483.808 96.8024 486.168 94.1237 488.6 91.3638C506.916 78.2861 526.616 81.1489 549.152 81.8648Z" fill="#254C8E"/>
<path d="M620.814 99.4814C629.319 103.063 637.756 106.767 646.154 110.535C668.91 116.4 668.91 116.4 690.497 110.535C690.497 114.182 690.497 117.83 690.497 121.588C709.312 127.06 728.126 132.531 747.511 138.168C745.42 141.816 743.33 145.464 741.176 149.222C724.452 143.75 707.728 138.279 690.497 132.642C683.476 143.049 683.476 143.049 677.828 154.748C679.918 158.396 682.009 162.044 684.163 165.802C660.407 172.019 660.407 172.019 646.154 165.802C646.154 162.154 646.154 158.507 646.154 154.748C639.882 152.925 633.611 151.101 627.149 149.222C629.24 145.574 631.33 141.927 633.484 138.168C618.85 136.345 604.217 134.521 589.14 132.642C589.14 130.818 589.14 128.994 589.14 127.115C601.683 125.291 614.226 123.467 627.149 121.588C620.878 116.117 614.606 110.645 608.145 105.008C612.326 103.184 616.507 101.361 620.814 99.4814Z" fill="#29529D"/>
<path d="M494.116 105.008C508.75 105.008 523.383 105.008 538.46 105.008C540.551 114.127 542.641 123.246 544.795 132.641C538.524 132.641 532.252 132.641 525.791 132.641C525.791 138.113 525.791 143.584 525.791 149.221C466.18 150.241 466.18 150.241 437.103 143.695C435.012 147.342 432.922 150.99 430.768 154.748C424.497 152.924 418.225 151.1 411.764 149.221C432.929 129.437 448.111 116.63 479.863 115.37C484.567 115.598 489.27 115.826 494.116 116.061C494.116 112.414 494.116 108.766 494.116 105.008Z" fill="#648DB2"/>
<path d="M449.775 99.4808C451.866 101.305 453.956 103.128 456.11 105.008C468.777 105.233 481.452 105.243 494.119 105.008C496.21 110.479 498.3 115.95 500.454 121.588C492.615 120.733 492.615 120.733 484.617 119.861C461.467 121.664 455.994 124.455 437.898 135.75C418.211 147.554 407.073 150.975 383.26 148.185C375.943 146.703 368.626 145.221 361.088 143.694C361.088 141.871 361.088 140.047 361.088 138.168C371.54 136.344 381.993 134.52 392.762 132.641C386.49 130.817 380.219 128.993 373.757 127.114C367.486 125.291 361.214 123.467 354.753 121.588C361.088 110.534 361.088 110.534 377.321 104.317C402.994 98.6154 423.356 98.3088 449.775 99.4808Z" fill="#2E68AC"/>
<path d="M657.635 190.672C664.555 190.444 671.476 190.217 678.606 189.982C728.054 189.562 728.054 189.562 748.113 201.013C758.67 210.189 758.67 210.189 772.849 226.596C770.759 230.244 768.668 233.891 766.514 237.649C759.59 234.002 752.665 230.354 745.53 226.596C717.379 214.208 694.796 214.322 663.771 215.586C645.964 215.542 632.326 212.837 615.27 208.634C580.338 201.642 554.686 210.727 521.609 220.918C489.603 229.507 457.746 231.075 424.434 232.123C424.434 228.475 424.434 224.827 424.434 221.069C436.702 218.517 448.977 215.989 461.255 213.47C468.09 212.059 474.925 210.649 481.967 209.196C490.233 207.601 498.507 206.035 506.786 204.489C511.915 203.522 517.044 202.555 522.328 201.559C567.547 193.653 611.57 191.059 657.635 190.672Z" fill="#8F99A4"/>
<path d="M563.798 110.534C576.34 111.161 588.877 111.867 601.411 112.607C611.884 113.184 611.884 113.184 622.568 113.772C628.26 114.528 633.952 115.283 639.816 116.061C641.906 119.709 643.997 123.356 646.151 127.114C635.698 128.938 625.246 130.762 614.477 132.641C620.748 134.465 627.019 136.289 633.481 138.168C633.481 141.815 633.481 145.463 633.481 149.221C586.998 155.71 541.109 155.266 494.115 154.748C494.115 152.924 494.115 151.1 494.115 149.221C500.754 148.313 500.754 148.313 507.527 147.386C516.175 146.072 516.175 146.072 524.997 144.731C533.596 143.48 533.596 143.48 542.368 142.205C559.643 139.104 559.643 139.104 570.133 121.588C568.042 117.94 565.952 114.292 563.798 110.534Z" fill="#4575B9"/>
<path d="M348.416 132.641C337.963 136.289 327.511 139.937 316.742 143.695C333.466 145.519 350.19 147.342 367.42 149.221C363.631 151.615 359.842 154.009 355.939 156.475C343.932 164.556 333.511 172.823 323.077 182.382C301.301 175.473 301.301 175.473 278.733 165.802C272.794 153.712 272.794 153.712 272.398 143.695C299.71 124.122 316.631 115.805 348.416 132.641Z" fill="#3869A6"/>
<path d="M399.095 99.481C438.069 98.9412 438.069 98.9412 449.773 99.481C451.864 101.305 453.954 103.129 456.108 105.008C469.959 105.409 483.823 105.47 497.68 105.353C505.267 105.303 512.853 105.253 520.669 105.202C529.476 105.106 529.476 105.106 538.461 105.008C540.551 114.127 542.642 123.246 544.796 132.641C538.524 132.641 532.253 132.641 525.791 132.641C525.791 138.113 525.791 143.584 525.791 149.221C466.18 150.241 466.18 150.241 437.104 143.695C435.013 147.342 432.923 150.99 430.769 154.748C424.497 152.924 418.226 151.1 411.764 149.221C422.217 140.102 432.669 130.983 443.438 121.588C441.348 117.94 439.257 114.293 437.104 110.534C422.47 112.358 407.837 114.182 392.76 116.061C394.85 110.59 396.941 105.118 399.095 99.481Z" fill="#5986B1"/>
<path d="M601.81 143.695C610.172 145.519 618.534 147.343 627.149 149.222C625.059 154.693 622.968 160.165 620.814 165.802C627.086 167.626 633.357 169.45 639.819 171.329C613.909 177.684 588.939 177.469 562.217 177.201C557.497 177.176 552.777 177.151 547.914 177.125C536.317 177.061 524.719 176.961 513.122 176.856C513.122 173.208 513.122 169.56 513.122 165.802C519.394 165.802 525.665 165.802 532.127 165.802C532.127 162.154 532.127 158.507 532.127 154.749C566.62 152.013 566.62 152.013 601.81 149.222C601.81 147.398 601.81 145.574 601.81 143.695Z" fill="#28519D"/>
<path d="M772.849 138.168C774.94 138.168 777.03 138.168 779.184 138.168C779.184 147.287 779.184 156.406 779.184 165.801C795.908 167.625 812.632 169.449 829.863 171.328C838.569 192.427 834.169 210.416 829.863 232.122C823.591 228.474 817.32 224.827 810.858 221.068C810.858 217.421 810.858 213.773 810.858 210.015C794.134 210.015 777.41 210.015 760.18 210.015C758.089 204.544 755.999 199.072 753.845 193.435C760.116 191.611 766.388 189.787 772.849 187.908C764.487 186.084 756.125 184.261 747.51 182.382C747.51 178.734 747.51 175.086 747.51 171.328C738.272 162.346 738.272 162.346 728.505 154.748C743.139 156.572 757.772 158.396 772.849 160.275C772.849 152.98 772.849 145.684 772.849 138.168Z" fill="#28529F"/>
<path d="M437.105 105.008C441.286 112.303 445.467 119.598 449.774 127.115C419.471 148.223 402.865 151.675 363.066 148.185C354.81 147.537 346.555 146.889 338.049 146.221C316.743 143.695 316.743 143.695 297.738 138.168C297.738 134.52 297.738 130.873 297.738 127.115C332.303 115.138 361.517 108.713 398.823 110.491C412.598 110.537 423.928 108.366 437.105 105.008Z" fill="#2964A9"/>
<path d="M285.068 132.642C295.659 134.332 306.212 136.208 316.742 138.168C329 139.337 341.276 140.373 353.563 141.277C359.745 141.74 365.926 142.203 372.295 142.68C379.289 143.183 379.289 143.183 386.425 143.695C386.425 147.343 386.425 150.99 386.425 154.748C392.696 156.572 398.968 158.396 405.429 160.275C403.339 162.099 401.248 163.923 399.095 165.802C384.75 165.752 370.508 165.069 356.186 164.377C339.305 164.791 339.305 164.791 323.077 182.382C306.353 175.087 289.629 167.791 272.398 160.275C278.733 138.168 278.733 138.168 285.068 132.642Z" fill="#2E61A2"/>
<path d="M354.752 0C361.023 1.82381 367.295 3.64762 373.756 5.5267C373.756 21.941 373.756 38.3553 373.756 55.267C380.559 55.2029 387.361 55.1388 394.369 55.0727C403.467 55.0208 412.565 54.9705 421.664 54.9216C428.358 54.8521 428.358 54.8521 435.187 54.7813C463.895 54.6658 491.024 56.864 519.457 60.7937C530.013 60.9896 540.578 61.0727 551.132 60.7937C551.132 64.4413 551.132 68.0889 551.132 71.8471C505.141 71.8471 459.15 71.8471 411.765 71.8471C411.765 73.6709 411.765 75.4947 411.765 77.3738C392.951 77.3738 374.136 77.3738 354.752 77.3738C348.928 57.0503 348.45 46.4298 351.189 26.2518C351.834 21.3218 352.479 16.3918 353.143 11.3125C353.674 7.57935 354.205 3.84624 354.752 0Z" fill="#B2C0CE"/>
<path d="M696.833 99.4814C743.04 101.497 743.04 101.497 763.349 117.443C772.851 132.642 772.851 132.642 772.851 160.275C749.856 160.275 726.86 160.275 703.168 160.275C707.349 158.451 711.53 156.628 715.838 154.748C715.838 151.101 715.838 147.453 715.838 143.695C707.476 143.695 699.114 143.695 690.499 143.695C690.499 140.047 690.499 136.4 690.499 132.642C707.222 136.289 723.946 139.937 741.177 143.695C733.898 136.521 733.898 136.521 715.838 132.642C715.838 128.994 715.838 125.346 715.838 121.588C707.476 121.588 699.114 121.588 690.499 121.588C692.589 114.293 694.68 106.998 696.833 99.4814Z" fill="#1B3A82"/>
<path d="M563.798 110.534C576.34 111.161 588.877 111.867 601.411 112.607C611.884 113.184 611.884 113.184 622.568 113.772C628.26 114.528 633.952 115.283 639.816 116.061C641.906 119.709 643.997 123.356 646.151 127.114C635.698 128.938 625.246 130.762 614.477 132.641C620.748 134.465 627.019 136.289 633.481 138.168C633.481 141.815 633.481 145.463 633.481 149.221C586.998 155.71 541.109 155.266 494.115 154.748C494.115 152.924 494.115 151.1 494.115 149.221C500.754 148.313 500.754 148.313 507.527 147.386C516.175 146.072 516.175 146.072 524.997 144.731C533.596 143.48 533.596 143.48 542.368 142.205C559.643 139.104 559.643 139.104 570.133 121.588C568.042 117.94 565.952 114.292 563.798 110.534Z" fill="#4575B9"/>
<path d="M373.752 66.3215C447.958 65.6401 521.445 67.2702 595.471 71.8482C573.13 84.8426 563.615 84.0868 537.27 83.5925C526.944 83.4429 526.944 83.4429 516.41 83.2902C508.509 83.0979 508.509 83.0979 500.449 82.9016C498.359 88.3731 496.268 93.8445 494.114 99.4817C483.662 101.306 473.209 103.129 462.44 105.008C460.35 99.537 458.259 94.0656 456.105 88.4283C443.562 88.4283 431.019 88.4283 418.096 88.4283C437.101 77.3749 437.101 77.3749 449.374 79.102C453.686 80.3559 457.998 81.6098 462.44 82.9016C467.144 83.9275 471.847 84.9534 476.693 86.0104C482.181 87.2073 482.181 87.2073 487.779 88.4283C487.779 84.7807 487.779 81.1331 487.779 77.3749C450.15 75.5511 412.522 73.7273 373.752 71.8482C373.752 70.0244 373.752 68.2006 373.752 66.3215Z" fill="#DEE3EA"/>
<path d="M551.129 66.3214C594.388 62.128 615.439 71.3228 650.606 93.3072C664.843 101.188 664.843 101.188 679.311 95.2934C690.105 89.0847 690.105 89.0847 696.83 82.9015C707.385 82.6769 717.95 82.6653 728.505 82.9015C715.464 99.9675 710.417 102.125 690.496 110.535C688.405 114.183 686.315 117.83 684.161 121.588C656.832 118.879 642.104 114.342 620.813 99.4816C607.209 95.5844 607.209 95.5844 595.473 93.9549C595.473 90.3072 595.473 86.6596 595.473 82.9015C589.202 81.0776 582.93 79.2538 576.469 77.3748C567.974 73.7752 559.517 70.1064 551.129 66.3214Z" fill="#B8C5D3"/>
<path d="M684.163 110.534C686.253 114.182 688.344 117.829 690.498 121.588C698.86 121.588 707.222 121.588 715.837 121.588C715.837 125.235 715.837 128.883 715.837 132.641C731.516 135.377 731.516 135.377 747.511 138.168C745.421 141.815 743.33 145.463 741.176 149.221C724.452 143.75 707.728 138.278 690.498 132.641C690.498 136.289 690.498 139.936 690.498 143.694C698.86 143.694 707.222 143.694 715.837 143.694C715.837 147.342 715.837 150.99 715.837 154.748C703.294 154.748 690.751 154.748 677.828 154.748C679.919 158.395 682.009 162.043 684.163 165.801C660.407 172.019 660.407 172.019 646.154 165.801C646.154 162.154 646.154 158.506 646.154 154.748C631.52 152.924 616.887 151.1 601.81 149.221C620.815 143.694 620.815 143.694 633.484 149.221C635.575 145.573 637.665 141.926 639.819 138.168C639.819 141.815 639.819 145.463 639.819 149.221C647.266 142.382 647.266 142.382 654.864 135.404C671.493 121.588 671.493 121.588 684.163 121.588C684.163 117.94 684.163 114.292 684.163 110.534Z" fill="#2B56A1"/>
<path d="M437.101 138.168C447.553 139.992 458.006 141.816 468.775 143.695C462.44 160.275 462.44 160.275 449.77 165.801C468.585 168.537 468.585 168.537 487.779 171.328C487.779 176.8 487.779 182.271 487.779 187.908C456.422 187.908 425.065 187.908 392.757 187.908C411.761 176.855 411.761 176.855 424.431 171.328C418.421 169.618 412.411 167.909 406.218 166.147C386.422 160.275 386.422 160.275 373.752 154.748C380.087 149.221 380.087 149.221 398.696 148.531C418.096 149.221 418.096 149.221 430.766 154.748C432.856 149.277 434.947 143.805 437.101 138.168Z" fill="#295898"/>
<path d="M620.814 154.748C620.814 158.395 620.814 162.043 620.814 165.801C627.086 167.625 633.357 169.449 639.819 171.328C613.909 177.683 588.939 177.468 562.217 177.2C557.497 177.175 552.777 177.15 547.914 177.124C536.317 177.06 524.719 176.96 513.122 176.855C513.122 173.207 513.122 169.559 513.122 165.801C519.394 165.801 525.665 165.801 532.127 165.801C532.127 162.154 532.127 158.506 532.127 154.748C563.935 150.442 588.995 148.502 620.814 154.748Z" fill="#254F9C"/>
<path d="M361.085 105.008C361.085 108.655 361.085 112.303 361.085 116.061C355.671 117.401 350.257 118.74 344.679 120.12C337.681 121.972 330.683 123.824 323.472 125.733C316.49 127.528 309.508 129.324 302.315 131.173C284.056 136.508 284.056 136.508 279.5 149.999C279.246 153.39 278.993 156.781 278.733 160.275C284.743 162.669 290.753 165.062 296.945 167.529C316.741 176.855 316.741 176.855 329.411 193.435C337.773 191.611 346.135 189.787 354.75 187.908C354.75 191.556 354.75 195.204 354.75 198.962C343.534 202.534 332.315 206.102 321.097 209.67C314.85 211.657 308.603 213.645 302.166 215.693C259.4 229.138 231.094 229.588 188.065 217.96C153.754 209.448 123.089 205.238 88.6876 215.542C72.2243 226.472 61.8263 239.148 50.6786 254.229C47.6736 257.997 44.6685 261.766 41.5723 265.649C26.4983 285.338 15.2587 301.983 12.6697 326.076C8.48867 322.428 4.30768 318.781 0 315.022C1.76121 290.481 14.6282 273.94 30.0904 253.883C34.3694 248.234 38.6484 242.584 43.057 236.763C60.6041 217.031 76.3223 202.281 104.129 194.817C147.918 191.09 179.383 198.547 220.63 211.159C250.687 217.715 275.136 212.922 304.072 204.488C304.072 197.193 304.072 189.898 304.072 182.382C298.976 181.584 293.881 180.786 288.631 179.964C272.398 176.855 272.398 176.855 266.063 171.328C263.082 141.424 263.082 141.424 274.105 129.381C285.836 121.041 295.822 116.752 310.011 112.262C316.368 110.178 316.368 110.178 322.854 108.052C335.746 105.008 335.746 105.008 361.085 105.008Z" fill="#D2D8DF"/>
<path d="M462.445 149.222C496.939 151.957 496.939 151.957 532.128 154.748C532.128 158.396 532.128 162.044 532.128 165.802C525.857 165.802 519.586 165.802 513.124 165.802C513.124 169.449 513.124 173.097 513.124 176.855C523.576 176.855 534.029 176.855 544.798 176.855C524.804 191.789 507.335 197.462 481.846 202.762C472.157 204.845 472.157 204.845 462.272 206.971C435 211.38 418.525 213.291 393.95 201.38C366.873 190.727 351.905 194.192 323.079 198.962C323.079 191.667 323.079 184.371 323.079 176.855C327.26 176.855 331.441 176.855 335.749 176.855C337.839 171.384 339.93 165.912 342.084 160.275C355.549 160.904 369.01 161.609 382.468 162.348C393.713 162.925 393.713 162.925 405.184 163.513C424.436 165.802 424.436 165.802 437.106 176.855C428.744 178.679 420.382 180.503 411.767 182.382C415.662 182.318 419.557 182.254 423.57 182.188C428.69 182.138 433.81 182.088 439.086 182.036C446.692 181.94 446.692 181.94 454.453 181.842C468.78 182.382 468.78 182.382 487.785 187.909C487.785 182.437 487.785 176.966 487.785 171.328C478.769 171.67 478.769 171.67 469.572 172.019C449.776 171.328 449.776 171.328 437.106 160.275C445.468 160.275 453.83 160.275 462.445 160.275C462.445 156.627 462.445 152.98 462.445 149.222Z" fill="#163779"/>
<path d="M462.445 149.222C496.939 151.957 496.939 151.957 532.128 154.748C532.128 158.396 532.128 162.044 532.128 165.802C525.857 165.802 519.586 165.802 513.124 165.802C513.124 169.449 513.124 173.097 513.124 176.855C523.576 176.855 534.029 176.855 544.798 176.855C544.798 182.327 544.798 187.798 544.798 193.435C528.572 196.23 512.339 198.988 496.099 201.725C489.246 202.912 489.246 202.912 482.254 204.122C420.816 214.401 420.816 214.401 393.95 201.38C366.873 190.727 351.905 194.192 323.079 198.962C323.079 191.667 323.079 184.371 323.079 176.855C327.26 176.855 331.441 176.855 335.749 176.855C337.839 171.384 339.93 165.912 342.084 160.275C355.549 160.904 369.01 161.609 382.468 162.348C393.713 162.925 393.713 162.925 405.184 163.513C424.436 165.802 424.436 165.802 437.106 176.855C428.744 178.679 420.382 180.503 411.767 182.382C415.662 182.318 419.557 182.254 423.57 182.188C428.69 182.138 433.81 182.088 439.086 182.036C446.692 181.94 446.692 181.94 454.453 181.842C468.78 182.382 468.78 182.382 487.785 187.909C487.785 182.437 487.785 176.966 487.785 171.328C478.769 171.67 478.769 171.67 469.572 172.019C449.776 171.328 449.776 171.328 437.106 160.275C445.468 160.275 453.83 160.275 462.445 160.275C462.445 156.627 462.445 152.98 462.445 149.222Z" fill="#173779"/>
<path d="M354.753 187.908C378.413 190.66 391.573 192.744 411.766 204.488C436.89 203.097 460.807 200.344 485.478 196.066C535.117 187.678 581.56 187.497 631.902 189.981C643.171 190.451 643.171 190.451 654.668 190.931C672.951 191.702 691.227 192.538 709.503 193.435C709.503 195.259 709.503 197.083 709.503 198.962C705.237 199.042 700.97 199.123 696.574 199.206C619.788 200.821 545.177 202.803 470.091 217.636C434.817 223.596 411.937 223.671 380.884 207.252C375.936 204.687 370.987 202.122 365.888 199.48C362.214 197.485 358.539 195.49 354.753 193.435C354.753 191.611 354.753 189.787 354.753 187.908Z" fill="#E3E8EB"/>
<path d="M354.753 187.908C378.413 190.66 391.573 192.744 411.766 204.488C436.89 203.097 460.807 200.344 485.478 196.066C535.117 187.678 581.56 187.497 631.902 189.981C643.171 190.451 643.171 190.451 654.668 190.931C672.951 191.702 691.227 192.538 709.503 193.435C709.503 195.259 709.503 197.083 709.503 198.962C697.303 198.577 697.303 198.577 684.857 198.184C607.521 196.539 537.297 202.965 462.171 219.039C449.775 221.068 449.775 221.068 424.436 221.068C424.436 224.716 424.436 228.364 424.436 232.122C411.766 226.595 411.766 226.595 403.848 218.996C389.155 207.093 372.823 200.792 354.753 193.435C354.753 191.611 354.753 189.787 354.753 187.908Z" fill="#DEE4EA"/>
</g>
</svg>
