<svg width="735" height="449" viewBox="0 0 735 449" fill="none" xmlns="http://www.w3.org/2000/svg">
<path d="M513.122 160.179C515.212 169.298 517.303 178.417 519.457 187.812C523.638 187.812 527.819 187.812 532.126 187.812C532.126 184.165 532.126 180.517 532.126 176.759C540.488 178.583 548.85 180.406 557.466 182.286C559.556 191.405 561.647 200.524 563.8 209.919C567.981 209.919 572.162 209.919 576.47 209.919C567.029 230.886 553.091 241.33 532.126 254.133C527.945 254.133 523.764 254.133 519.457 254.133C521.547 261.428 523.638 268.723 525.791 276.239C540.425 276.239 555.058 276.239 570.135 276.239C568.045 279.887 565.954 283.535 563.8 287.293C570.072 287.293 576.343 287.293 582.805 287.293C564.391 311.146 564.391 311.146 551.131 320.453C526.979 319.762 526.979 319.762 506.787 314.926C506.787 307.631 506.787 300.336 506.787 292.82C502.606 290.996 498.425 289.172 494.117 287.293C489.154 276.279 484.741 265.073 480.656 253.787C478.418 247.682 476.181 241.576 473.876 235.286C472.193 230.562 470.511 225.839 468.778 220.972C449.964 218.237 449.964 218.237 430.769 215.446C432.86 211.798 434.95 208.15 437.104 204.392C443.375 204.392 449.647 204.392 456.108 204.392C451.927 195.273 447.746 186.154 443.439 176.759C451.474 173.961 459.528 171.206 467.59 168.469C472.073 166.93 476.556 165.391 481.175 163.806C494.117 160.179 494.117 160.179 513.122 160.179Z" fill="#4E8CC6"/>
<path d="M620.813 226.5C657.238 235.481 657.238 235.481 671.491 254.133C672.283 268.987 672.283 268.987 671.491 281.767C654.768 285.415 638.044 289.062 620.813 292.82C621.577 305.893 621.577 305.893 627.148 320.454C634.987 325.925 634.987 325.925 642.985 331.507C658.822 342.561 658.822 342.561 664.365 357.068C665.157 370.194 665.157 370.194 658.822 381.248C654.641 379.424 650.46 377.6 646.152 375.721C646.152 368.426 646.152 361.13 646.152 353.614C640.011 356.35 633.871 359.086 627.544 361.904C599.988 372.397 574.377 371.774 544.795 370.194C544.795 362.899 544.795 355.604 544.795 348.087C548.976 348.087 553.157 348.087 557.465 348.087C557.465 342.616 557.465 337.145 557.465 331.507C544.922 331.507 532.379 331.507 519.456 331.507C519.456 327.86 519.456 324.212 519.456 320.454C529.908 320.454 540.361 320.454 551.13 320.454C553.22 314.982 555.311 309.511 557.465 303.874C567.651 293.827 575.338 287.787 589.139 281.767C589.139 269 589.139 256.234 589.139 243.08C597.501 244.904 605.863 246.728 614.478 248.607C608.935 274.859 608.935 274.859 601.808 287.294C608.08 283.646 614.351 279.998 620.813 276.24C627.084 276.24 633.356 276.24 639.817 276.24C639.817 272.593 639.817 268.945 639.817 265.187C635.636 265.187 631.455 265.187 627.148 265.187C627.148 257.892 627.148 250.596 627.148 243.08C622.967 243.08 618.786 243.08 614.478 243.08C616.569 237.609 618.659 232.137 620.813 226.5Z" fill="#6396C3"/>
<path d="M234.388 66.2251C246.761 70.3917 246.761 70.3917 259.728 77.2785C263.588 87.4468 263.588 87.4468 264.479 99.0399C264.838 102.851 265.197 106.663 265.567 110.59C265.983 119.745 266.062 128.91 266.062 138.072C268.002 145.477 270.082 152.857 272.397 160.179C268.216 160.179 264.035 160.179 259.728 160.179C263.01 171.038 263.01 171.038 272.397 182.286C286.942 188.271 301.758 193.77 316.741 198.866C321.837 201.602 326.932 204.337 332.182 207.156C375.597 229.328 412.34 234.445 462.442 232.026C462.442 233.85 462.442 235.674 462.442 237.553C445.718 237.553 428.994 237.553 411.763 237.553C411.763 241.2 411.763 244.848 411.763 248.606C399.758 249.057 387.747 249.377 375.734 249.642C365.702 249.931 365.702 249.931 355.468 250.225C333.501 248.422 321.908 243.026 304.071 232.026C327.024 225.351 333.474 229.025 354.75 237.553C354.75 233.905 354.75 230.258 354.75 226.499C350.438 226.043 346.127 225.588 341.684 225.118C317.535 219.738 300.013 210.151 278.732 198.866C282.913 206.161 287.094 213.456 291.402 220.973C280.949 219.149 270.497 217.325 259.728 215.446C259.728 219.094 259.728 222.741 259.728 226.499C270.18 228.323 280.632 230.147 291.402 232.026C280.885 235.869 280.885 235.869 266.062 237.553C228.18 221.693 191.618 199.57 164.705 171.232C164.705 167.585 164.705 163.937 164.705 160.179C158.434 158.355 152.162 156.531 145.701 154.652C143.61 149.181 141.52 143.709 139.366 138.072C158.706 144.321 168.556 152.517 180.938 166.397C188.581 174.262 188.581 174.262 196.379 182.286C202.651 182.286 208.922 182.286 215.384 182.286C228.126 185.774 240.809 189.436 253.393 193.339C246.269 176.914 239.311 163.858 228.053 149.126C228.053 141.83 228.053 134.535 228.053 127.019C223.872 125.195 219.691 123.371 215.384 121.492C219.565 119.668 223.746 117.844 228.053 115.965C231.009 104.217 231.009 104.217 232.013 90.7498C232.486 86.1832 232.96 81.6165 233.448 76.9115C233.758 73.385 234.068 69.8585 234.388 66.2251Z" fill="#7AABD0"/>
<path d="M119.397 109.9C132.388 110.08 145.379 110.26 158.371 110.44C158.371 112.263 158.371 114.087 158.371 115.966C143.737 115.966 129.104 115.966 114.027 115.966C114.579 127.6 115.264 139.228 116.007 150.854C116.374 157.33 116.742 163.806 117.12 170.478C120.58 188.979 123.729 192.706 139.366 204.394C137.713 223.628 132.816 232.309 120.362 248.607C124.543 248.607 128.724 248.607 133.031 248.607C130.159 275.542 122.206 289.452 101.357 309.401C104.541 320.533 104.541 320.533 114.027 331.508C143.313 340.292 171.221 344.446 201.997 346.684C210.028 347.322 218.059 347.96 226.334 348.617C238.926 349.565 251.519 350.513 264.116 351.414C276.41 352.308 288.694 353.294 300.979 354.284C308.26 354.821 315.542 355.359 323.044 355.912C342.966 359.291 352.549 363.963 367.42 375.721C352.109 374.94 336.801 374.13 321.493 373.303C317.173 373.086 312.853 372.869 308.402 372.645C275.144 370.814 275.144 370.814 259.184 367.215C235.251 362.187 209.998 364.928 185.541 365.553C152.866 364.165 124.989 353.326 95.0224 342.561C85.0983 310.593 85.0983 310.593 95.3194 291.461C103.261 280.543 111.465 270 120.362 259.661C113.437 260.23 106.512 260.8 99.3776 261.388C62.425 261.677 32.1775 246.476 0 232.027C18.1543 225.607 25.4426 226.53 44.4428 232.005C51.2042 234.634 57.9657 237.263 64.932 239.972C71.7588 242.586 78.5855 245.201 85.6192 247.895C90.8128 249.954 96.0063 252.013 101.357 254.134C102.619 249.133 102.619 249.133 103.906 244.03C108.645 229.005 117.124 217.466 126.697 204.394C120.425 202.57 114.154 200.746 107.692 198.867C98.6132 183.025 100.521 169.175 100.565 151.544C100.541 141.788 100.541 141.788 100.516 131.834C101.636 110.719 101.636 110.719 119.397 109.9Z" fill="#D2DCE1"/>
<path d="M639.819 204.393C671.177 204.393 702.534 204.393 734.842 204.393C734.842 206.217 734.842 208.041 734.842 209.92C722.299 209.92 709.756 209.92 696.833 209.92C696.596 214.052 696.359 218.184 696.115 222.441C695.699 227.884 695.282 233.327 694.853 238.935C694.302 247.014 694.302 247.014 693.74 255.256C690.14 272.419 685.427 280.435 671.494 292.82C651.301 296.965 651.301 296.965 633.485 298.347C633.485 303.818 633.485 309.29 633.485 314.927C638.343 317.242 643.202 319.558 648.208 321.943C670.76 334.668 674.285 346.587 682.975 368.467C685.629 374.986 688.283 381.504 691.018 388.221C692.937 393.215 694.856 398.209 696.833 403.354C692.652 407.002 688.471 410.65 684.163 414.408C669.069 414.278 669.069 414.278 651.697 412.335C645.932 411.722 640.167 411.11 634.227 410.479C629.801 409.951 625.375 409.424 620.815 408.881C619.9 412.415 618.986 415.948 618.043 419.589C614.48 430.988 614.48 430.988 608.145 436.514C570.511 438.273 533.529 435.647 496.098 432.369C491.509 432.029 486.919 431.688 482.191 431.337C434.417 426.734 406.354 405.832 373.757 375.721C392.378 381.455 405.984 387.151 421.664 397.828C477.123 425.979 545.901 421.38 608.145 419.934C610.236 412.639 612.326 405.344 614.48 397.828C635.385 397.828 656.29 397.828 677.828 397.828C662.772 359.937 652.63 337.62 614.48 314.927C616.856 301.456 616.856 301.456 620.815 287.294C633.485 281.767 633.485 281.767 671.494 281.767C674.629 246.203 674.629 246.203 677.828 209.92C665.285 209.92 652.742 209.92 639.819 209.92C639.819 208.096 639.819 206.272 639.819 204.393Z" fill="#D0DCE3"/>
<path d="M392.76 320.454C407.394 320.454 422.027 320.454 437.104 320.454C437.104 324.101 437.104 327.749 437.104 331.507C440.632 331.315 444.159 331.122 447.794 330.924C484.913 329.775 510.778 335.137 544.796 348.087C543.228 352.191 541.66 356.294 540.045 360.522C539.522 365.538 539 370.553 538.461 375.721C550.077 388.623 550.077 388.623 563.801 397.827C538.657 391.346 521.109 384.01 500.452 370.194C486.849 366.297 486.849 366.297 475.113 364.667C475.113 368.315 475.113 371.962 475.113 375.721C493.927 378.456 493.927 378.456 513.122 381.247C513.122 384.895 513.122 388.543 513.122 392.301C531.936 397.772 550.751 403.244 570.135 408.881C565.955 410.705 561.774 412.528 557.466 414.408C557.466 418.055 557.466 421.703 557.466 425.461C544.923 425.461 532.38 425.461 519.457 425.461C523.638 421.813 527.819 418.166 532.127 414.408C525.202 413.952 518.277 413.496 511.142 413.026C484.164 408.239 483.801 405.009 468.778 386.774C449.128 382.3 449.128 382.3 430.769 381.247C430.769 377.6 430.769 373.952 430.769 370.194C434.95 370.194 439.131 370.194 443.439 370.194C443.439 366.546 443.439 362.899 443.439 359.141C437.167 357.317 430.896 355.493 424.434 353.614C432.796 353.614 441.158 353.614 449.774 353.614C449.774 359.085 449.774 364.557 449.774 370.194C453.955 370.194 458.136 370.194 462.443 370.194C460.353 364.722 458.262 359.251 456.109 353.614C460.29 351.79 464.471 349.966 468.778 348.087C462.115 346.491 455.451 344.895 448.586 343.251C429.324 338.292 411.213 332.81 392.76 325.98C392.76 324.157 392.76 322.333 392.76 320.454Z" fill="#2B75BF"/>
<path d="M114.027 165.708C119.515 167.246 119.515 167.246 125.113 168.816C139.173 172.328 139.173 172.328 151.219 167.348C164.706 165.708 164.706 165.708 178.093 174.062C184.989 180.015 184.989 180.015 192.025 186.087C209.381 200.431 225.067 212.657 246.267 222.356C265.184 231.598 273.978 238.2 285.068 254.135C239.558 252.691 213.344 239.201 177.375 215.448C190.091 232.088 195.359 235.511 215.384 243.081C202.841 248.553 202.841 248.553 190.045 254.135C185.864 250.487 181.683 246.839 177.375 243.081C175.285 246.729 173.194 250.377 171.041 254.135C164.769 250.487 158.498 246.839 152.036 243.081C145.765 245.817 145.765 245.817 139.366 248.608C135.185 246.784 131.004 244.96 126.697 243.081C128.853 234.019 128.853 234.019 131.052 224.774C131.705 218.049 132.359 211.324 133.032 204.394C124.32 194.951 124.32 194.951 114.027 187.814C114.027 180.519 114.027 173.224 114.027 165.708Z" fill="#427DB6"/>
<path d="M247.059 10.959C258.162 11.1703 269.256 11.8217 280.317 12.6861C286.36 13.1207 292.403 13.5552 298.629 14.003C317.095 16.534 331.669 20.3351 348.416 27.5391C360.464 42.1791 367.221 54.65 373.756 71.7527C367.484 69.9289 361.213 68.1051 354.751 66.226C353.265 61.7591 351.779 57.2922 350.248 52.6899C343.205 36.4067 343.205 36.4067 320.058 32.267C311.323 30.9113 302.56 29.6849 293.778 28.5753C287.066 27.5762 287.066 27.5762 280.218 26.5568C269.186 24.931 258.124 23.4569 247.059 22.0124C247.19 27.2558 247.32 32.4993 247.455 37.9016C247.059 55.1726 247.059 55.1726 240.724 66.226C239.301 74.7188 238.14 83.2465 237.161 91.787C236.63 96.3038 236.099 100.821 235.552 105.474C235.169 108.937 234.785 112.399 234.389 115.966C209.574 122.433 190.175 119.812 164.706 115.966C164.706 112.319 164.706 108.671 164.706 104.913C175.159 104.913 185.611 104.913 196.38 104.913C196.38 101.265 196.38 97.6176 196.38 93.8595C188.018 92.0357 179.656 90.2119 171.041 88.3328C168.951 79.2137 166.86 70.0947 164.706 60.6993C170.978 60.6993 177.249 60.6993 183.711 60.6993C183.711 57.0517 183.711 53.404 183.711 49.6459C200.435 49.6459 217.159 49.6459 234.389 49.6459C235.304 44.2884 236.219 38.931 237.161 33.4112C240.724 16.4857 240.724 16.4857 247.059 10.959Z" fill="#D6D8C4"/>
<path d="M481.447 270.714C484.583 281.657 484.583 281.657 487.782 292.821C467.44 304.652 456.178 306.447 432.352 309.401C410.074 312.335 388.859 315.432 367.42 321.491C348.924 325.861 340.592 326.567 323.076 320.455C323.076 316.807 323.076 313.159 323.076 309.401C306.352 305.754 289.628 302.106 272.397 298.348C272.397 294.7 272.397 291.053 272.397 287.294C268.216 285.471 264.035 283.647 259.728 281.768C264.293 281.826 268.858 281.884 273.562 281.943C294.422 282.174 315.281 282.317 336.142 282.459C343.324 282.551 350.506 282.644 357.905 282.739C400.717 282.957 440.467 270.714 481.447 270.714Z" fill="#2B74BF"/>
<path d="M278.734 198.868C300.286 202.226 312.11 209.654 329.412 220.975C343.015 224.872 343.015 224.872 354.752 226.502C354.752 230.149 354.752 233.797 354.752 237.555C340.118 235.731 325.485 233.907 310.408 232.028C343.658 249.586 373.851 252.239 411.765 254.135C411.765 255.959 411.765 257.783 411.765 259.662C358.458 262.398 358.458 262.398 304.073 265.189C304.073 268.836 304.073 272.484 304.073 276.242C264.426 279.186 237.867 269.712 202.716 254.135C204.806 250.488 206.897 246.84 209.051 243.082C201.211 239.491 201.211 239.491 193.214 235.828C187.987 232.75 182.761 229.673 177.376 226.502C177.376 221.03 177.376 215.559 177.376 209.922C181.051 212.251 184.726 214.581 188.512 216.981C226.88 240.487 226.88 240.487 272.399 248.608C272.399 243.137 272.399 237.666 272.399 232.028C268.218 230.205 264.037 228.381 259.729 226.502C259.729 222.854 259.729 219.206 259.729 215.448C268.091 215.448 276.453 215.448 285.069 215.448C282.978 209.977 280.888 204.505 278.734 198.868Z" fill="#285A99"/>
<path d="M380.091 342.561C400.996 348.032 421.901 353.504 443.439 359.141C443.439 362.789 443.439 366.436 443.439 370.195C439.258 370.195 435.077 370.195 430.769 370.195C430.769 373.842 430.769 377.49 430.769 381.248C436.649 380.792 442.528 380.336 448.586 379.866C455.25 380.322 461.913 380.778 468.778 381.248C473.09 386.548 473.09 386.548 477.489 391.956C486.411 404.229 486.411 404.229 500.18 406.053C512.899 407.355 525.683 408.15 538.462 408.881C536.371 412.529 534.281 416.177 532.127 419.935C476.242 420.427 438.044 417.074 394.542 385.069C364.118 365.389 328.934 362.239 292.195 358.45C285.654 357.734 285.654 357.734 278.981 357.004C268.345 355.844 257.703 354.725 247.059 353.614C247.059 351.791 247.059 349.967 247.059 348.088C252.767 348.131 252.767 348.131 258.589 348.175C275.73 348.29 292.871 348.362 310.012 348.433C316.001 348.479 321.991 348.526 328.162 348.573C333.858 348.591 339.554 348.609 345.422 348.627C350.697 348.656 355.972 348.685 361.406 348.715C373.789 349.284 373.789 349.284 380.091 342.561Z" fill="#2161A9"/>
<path d="M329.412 33.0659C335.684 34.8897 341.955 36.7135 348.417 38.5926C350.246 42.9242 352.075 47.2557 353.96 51.7185C363.537 71.2147 370.188 74.7682 392.761 82.8062C415.942 85.7402 439.057 87.2967 462.444 88.3329C458.263 101.1 454.082 113.866 449.774 127.02C441.412 127.02 433.05 127.02 424.435 127.02C422.344 123.372 420.254 119.725 418.1 115.966C413.919 119.614 409.738 123.262 405.43 127.02C378.899 125.878 354.973 121.013 334.955 105.604C328.096 91.0716 330.876 86.6276 335.747 71.7528C334.017 58.814 331.959 45.9016 329.412 33.0659Z" fill="#719CB1"/>
<path d="M513.123 160.179C515.213 169.298 517.304 178.417 519.458 187.812C523.639 187.812 527.82 187.812 532.127 187.812C532.127 184.165 532.127 180.517 532.127 176.759C540.489 178.583 548.851 180.406 557.467 182.286C559.557 189.581 561.648 196.876 563.801 204.392C559.621 204.392 555.44 204.392 551.132 204.392C549.433 207.926 547.735 211.46 545.985 215.1C538.462 226.499 538.462 226.499 519.458 232.026C519.458 226.554 519.458 221.083 519.458 215.446C515.277 215.446 511.096 215.446 506.788 215.446C506.788 209.974 506.788 204.503 506.788 198.866C492.625 208.616 492.625 208.616 494.118 220.972C500.39 222.796 506.661 224.62 513.123 226.499C513.123 239.266 513.123 252.032 513.123 265.186C517.304 265.186 521.485 265.186 525.793 265.186C525.793 268.834 525.793 272.481 525.793 276.239C540.426 276.239 555.059 276.239 570.136 276.239C568.046 279.887 565.955 283.535 563.801 287.293C570.073 287.293 576.344 287.293 582.806 287.293C564.392 311.146 564.392 311.146 551.132 320.453C526.98 319.762 526.98 319.762 506.788 314.926C506.788 307.631 506.788 300.336 506.788 292.82C502.607 290.996 498.426 289.172 494.118 287.293C489.155 276.279 484.742 265.073 480.657 253.787C478.419 247.682 476.182 241.576 473.877 235.286C472.194 230.562 470.512 225.839 468.779 220.972C460.417 220.972 452.055 220.972 443.44 220.972C449.711 224.62 455.983 228.268 462.444 232.026C451.237 233.254 440.016 234.388 428.79 235.48C419.42 236.442 419.42 236.442 409.86 237.423C392.761 237.553 392.761 237.553 373.757 226.499C382.119 222.852 390.481 219.204 399.096 215.446C399.096 211.798 399.096 208.15 399.096 204.392C415.82 200.745 432.544 197.097 449.775 193.339C447.684 187.867 445.594 182.396 443.44 176.759C451.475 173.961 459.529 171.206 467.591 168.469C472.074 166.93 476.558 165.391 481.177 163.806C494.118 160.179 494.118 160.179 513.123 160.179Z" fill="#4683C0"/>
<path d="M411.764 237.554C414.9 243.025 414.9 243.025 418.099 248.607C434.823 248.607 451.547 248.607 468.778 248.607C468.778 252.255 468.778 255.902 468.778 259.661C452.054 265.132 435.33 270.603 418.099 276.241C418.099 279.888 418.099 283.536 418.099 287.294C373.833 287.88 329.686 287.477 285.464 285.567C277.828 285.246 270.193 284.926 262.327 284.595C238.955 281.536 222.883 275.807 202.715 265.187C200.624 261.54 198.534 257.892 196.38 254.134C205.756 255.836 215.125 257.569 224.491 259.315C229.709 260.277 234.927 261.239 240.303 262.23C253.394 265.187 253.394 265.187 259.728 270.714C274.477 272.746 289.26 274.596 304.072 276.241C304.072 272.593 304.072 268.945 304.072 265.187C318.706 261.54 333.339 257.892 348.416 254.134C348.416 252.31 348.416 250.486 348.416 248.607C369.321 248.607 390.226 248.607 411.764 248.607C411.764 244.959 411.764 241.312 411.764 237.554Z" fill="#5593C9"/>
<path d="M247.059 22.0127C257.511 23.8365 267.964 25.6603 278.733 27.5394C276.643 38.4823 274.552 49.4251 272.398 60.6996C266.127 58.8758 259.855 57.052 253.394 55.1729C253.394 58.8205 253.394 62.4681 253.394 66.2263C257.575 66.2263 261.756 66.2263 266.063 66.2263C267.305 70.8214 268.546 75.4166 269.825 80.151C278.944 114.612 278.944 114.612 304.147 140.254C319.483 144.965 319.483 144.965 342.081 149.127C344.172 152.774 346.262 156.422 348.416 160.18C340.054 158.356 331.692 156.533 323.077 154.654C323.077 160.125 323.077 165.596 323.077 171.234C314.715 173.057 306.353 174.881 297.738 176.76C297.738 180.408 297.738 184.056 297.738 187.814C287.285 185.99 276.833 184.166 266.063 182.287C262.557 170.816 259.729 161.044 259.729 149.127C257.735 141.733 255.637 134.359 253.394 127.02C257.575 127.02 261.756 127.02 266.063 127.02C262.928 119.326 262.928 119.326 259.729 111.476C253.394 93.8598 253.394 93.8598 253.394 77.2797C249.213 82.7511 245.032 88.2226 240.724 93.8598C242.815 70.1503 244.905 46.4407 247.059 22.0127Z" fill="#4F89BF"/>
<path d="M614.479 187.814C620.751 187.814 627.022 187.814 633.484 187.814C635.574 195.11 637.665 202.405 639.819 209.921C652.362 209.921 664.905 209.921 677.828 209.921C677.828 229.983 677.828 250.045 677.828 270.715C665.158 254.135 665.158 254.135 658.823 243.081C652.552 245.817 652.552 245.817 646.153 248.608C641.972 243.137 637.791 237.665 633.484 232.028C629.303 232.028 625.122 232.028 620.814 232.028C618.724 235.676 616.633 239.323 614.479 243.081C618.66 243.081 622.841 243.081 627.149 243.081C627.149 250.377 627.149 257.672 627.149 265.188C631.33 265.188 635.511 265.188 639.819 265.188C639.819 268.836 639.819 272.483 639.819 276.242C627.276 279.889 614.733 283.537 601.81 287.295C603.9 274.528 605.991 261.762 608.144 248.608C601.873 246.784 595.601 244.961 589.14 243.081C589.14 255.848 589.14 268.615 589.14 281.768C576.597 287.24 564.054 292.711 551.131 298.348C551.131 294.701 551.131 291.053 551.131 287.295C555.312 285.471 559.493 283.647 563.801 281.768C557.529 279.945 551.258 278.121 544.796 276.242C544.796 272.594 544.796 268.946 544.796 265.188C555.249 265.188 565.701 265.188 576.47 265.188C574.38 257.893 572.289 250.598 570.135 243.081C593.891 226.501 593.891 226.501 608.144 226.501C610.235 213.735 612.325 200.968 614.479 187.814Z" fill="#7EADCD"/>
<path d="M620.813 226.5C657.238 235.481 657.238 235.481 671.491 254.133C672.283 268.987 672.283 268.987 671.491 281.767C654.768 285.415 638.044 289.062 620.813 292.82C621.577 305.893 621.577 305.893 627.148 320.454C634.987 325.925 634.987 325.925 642.985 331.507C658.822 342.561 658.822 342.561 664.365 357.068C665.157 370.194 665.157 370.194 658.822 381.248C654.641 379.424 650.46 377.6 646.152 375.721C646.152 368.426 646.152 361.13 646.152 353.614C640.011 356.35 633.871 359.086 627.544 361.904C599.988 372.397 574.377 371.774 544.795 370.194C544.795 362.899 544.795 355.604 544.795 348.087C548.976 348.087 553.157 348.087 557.465 348.087C557.465 342.616 557.465 337.145 557.465 331.507C544.922 331.507 532.379 331.507 519.456 331.507C519.456 327.86 519.456 324.212 519.456 320.454C529.908 320.454 540.361 320.454 551.13 320.454C553.22 314.982 555.311 309.511 557.465 303.874C567.651 293.827 575.338 287.787 589.139 281.767C589.139 269 589.139 256.234 589.139 243.08C597.501 244.904 605.863 246.728 614.478 248.607C608.935 274.859 608.935 274.859 601.808 287.294C608.08 283.646 614.351 279.998 620.813 276.24C627.084 276.24 633.356 276.24 639.817 276.24C639.817 272.593 639.817 268.945 639.817 265.187C635.636 265.187 631.455 265.187 627.148 265.187C627.148 257.892 627.148 250.596 627.148 243.08C622.967 243.08 618.786 243.08 614.478 243.08C616.569 237.609 618.659 232.137 620.813 226.5Z" fill="#6498C5"/>
<path d="M247.058 99.3857C251.239 99.3857 255.42 99.3857 259.728 99.3857C263.908 112.152 268.089 124.919 272.397 138.073C268.216 138.073 264.035 138.073 259.728 138.073C263.908 145.368 268.089 152.663 272.397 160.179C268.216 160.179 264.035 160.179 259.728 160.179C263.01 171.038 263.01 171.038 272.397 182.286C286.942 188.272 301.758 193.771 316.741 198.866C321.837 201.602 326.932 204.338 332.182 207.156C375.597 229.328 412.34 234.445 462.442 232.027C462.442 233.85 462.442 235.674 462.442 237.553C445.718 237.553 428.994 237.553 411.763 237.553C411.763 241.201 411.763 244.848 411.763 248.607C399.758 249.058 387.747 249.377 375.734 249.643C365.702 249.931 365.702 249.931 355.468 250.226C333.501 248.422 321.908 243.026 304.071 232.027C327.024 225.352 333.474 229.025 354.75 237.553C354.75 233.906 354.75 230.258 354.75 226.5C350.438 226.044 346.127 225.588 341.684 225.118C317.535 219.739 300.013 210.151 278.732 198.866C282.913 206.162 287.094 213.457 291.402 220.973C280.949 219.149 270.497 217.326 259.728 215.446C259.728 219.094 259.728 222.742 259.728 226.5C270.18 228.324 280.632 230.147 291.402 232.027C280.885 235.869 280.885 235.869 266.062 237.553C228.18 221.693 191.618 199.57 164.705 171.233C164.705 167.585 164.705 163.938 164.705 160.179C158.434 158.356 152.162 156.532 145.701 154.653C143.61 149.181 141.52 143.71 139.366 138.073C158.706 144.322 168.556 152.518 180.938 166.397C188.581 174.262 188.581 174.262 196.379 182.286C202.651 182.286 208.922 182.286 215.384 182.286C228.126 185.774 240.809 189.436 253.393 193.34C246.269 176.915 239.311 163.858 228.053 149.126C228.053 141.831 228.053 134.536 228.053 127.019C223.872 125.195 219.691 123.372 215.384 121.493C234.388 115.966 234.388 115.966 247.058 121.493C247.058 114.197 247.058 106.902 247.058 99.3857Z" fill="#7CADD1"/>
<path d="M278.734 27.5396C295.458 29.3634 312.182 31.1872 329.412 33.0663C327.322 38.5377 325.231 44.0091 323.078 49.6464C310.012 53.446 310.012 53.446 297.738 55.1731C291.301 80.7573 292.43 101.291 297.738 127.02C301.919 127.02 306.1 127.02 310.408 127.02C308.318 123.259 306.227 119.497 304.073 115.621C296.642 96.5769 296.84 80.6844 297.738 60.6998C301.919 62.5236 306.1 64.3474 310.408 66.2265C316.679 68.0503 322.951 69.8741 329.412 71.7532C337.557 118.335 337.557 118.335 329.412 143.6C311.596 142.909 311.596 142.909 291.404 138.074C273.423 115.354 269.178 93.3883 266.064 66.2265C261.883 66.2265 257.702 66.2265 253.395 66.2265C253.395 62.5788 253.395 58.9312 253.395 55.1731C257.576 53.3492 261.757 51.5254 266.064 49.6464C273.245 38.5007 273.245 38.5007 278.734 27.5396Z" fill="#74AAD0"/>
<path d="M335.746 127.02C354.299 130.488 369.707 135.786 386.424 143.6C386.424 145.423 386.424 147.247 386.424 149.126C421.454 153.052 452.939 156.326 487.782 149.126C487.782 156.495 487.782 163.864 487.782 171.233C475.239 173.057 462.696 174.881 449.773 176.76C449.773 182.231 449.773 187.703 449.773 193.34C428.254 204.738 428.254 204.738 412.952 203.357C393.207 196.959 374.014 189.72 354.75 182.287C373.755 171.233 373.755 171.233 386.424 165.706C370.746 160.235 370.746 160.235 354.75 154.653C354.75 151.005 354.75 147.358 354.75 143.6C348.479 141.776 342.207 139.952 335.746 138.073C335.746 134.425 335.746 130.778 335.746 127.02Z" fill="#80A9C6"/>
<path d="M373.757 71.7539C384.209 71.7539 394.662 71.7539 405.431 71.7539C405.431 75.4015 405.431 79.0492 405.431 82.8073C409.252 81.9453 413.074 81.0832 417.012 80.1951C424.606 78.5814 424.606 78.5814 432.354 76.9352C437.351 75.8452 442.349 74.7552 447.498 73.6321C463.312 71.6449 472.849 72.5786 487.784 77.2806C494.252 82.6885 500.584 88.2224 506.788 93.8607C520.09 100.359 520.09 100.359 532.127 104.914C525.856 108.562 519.584 112.209 513.123 115.968C506.851 112.32 500.58 108.672 494.118 104.914C490.329 110.272 486.54 115.629 482.636 121.149C468.779 138.074 468.779 138.074 449.775 143.601C439.885 143.974 429.978 144.072 420.08 143.946C412.4 143.872 412.4 143.872 404.565 143.795C398.722 143.699 398.722 143.699 392.761 143.601C402.387 124.99 408.731 118.132 430.77 110.441C428.68 115.912 426.589 121.384 424.435 127.021C432.797 127.021 441.159 127.021 449.775 127.021C447.684 121.549 445.594 116.078 443.44 110.441C447.621 110.441 451.802 110.441 456.109 110.441C456.109 104.969 456.109 99.4979 456.109 93.8607C451.757 93.6541 447.404 93.4475 442.92 93.2346C437.212 92.8713 431.504 92.508 425.623 92.1336C417.134 91.6527 417.134 91.6527 408.474 91.1621C390.822 87.9851 384.897 83.7983 373.757 71.7539Z" fill="#CED0AC"/>
<path d="M544.796 93.8609C561.5 91.2891 572.35 91.4092 586.591 99.8841C616.742 124.25 625.639 148.263 628.732 184.015C627.149 198.868 627.149 198.868 614.479 209.922C612.388 215.393 610.298 220.864 608.144 226.502C591.911 233.065 591.911 233.065 576.47 237.555C578.56 234.705 580.651 231.856 582.805 228.92C590.517 214.946 590.517 214.946 589.14 196.45C589.14 177.22 592.32 166.202 601.809 149.128C599.719 152.776 597.628 156.423 595.474 160.181C593.384 160.181 591.293 160.181 589.14 160.181C589.14 147.415 589.14 134.648 589.14 121.494C580.778 119.671 572.416 117.847 563.8 115.968C563.8 130.558 563.8 145.149 563.8 160.181C557.529 162.005 551.257 163.829 544.796 165.708C537.458 143.301 539.494 131.342 551.131 110.441C546.95 110.441 542.769 110.441 538.461 110.441C540.551 104.97 542.642 99.4981 544.796 93.8609Z" fill="#4E83B4"/>
<path d="M171.041 237.554C190.045 243.08 190.045 243.08 203.903 256.206C225.983 274.185 243.864 279.277 272.398 287.294C272.398 290.942 272.398 294.589 272.398 298.347C284.353 299.202 284.353 299.202 296.55 300.075C314.24 301.932 321.457 302.77 335.746 312.51C337.837 315.131 339.927 317.753 342.081 320.454C295.022 314.928 295.022 314.928 272.398 309.401C272.398 313.048 272.398 316.696 272.398 320.454C240.724 311.243 209.05 302.032 177.376 292.821C179.466 285.525 181.557 278.23 183.71 270.714C179.529 270.714 175.348 270.714 171.041 270.714C171.041 267.066 171.041 263.419 171.041 259.661C166.86 259.661 162.679 259.661 158.371 259.661C158.371 256.013 158.371 252.365 158.371 248.607C162.552 246.783 166.733 244.959 171.041 243.08C171.041 241.257 171.041 239.433 171.041 237.554Z" fill="#1C5FA5"/>
<path d="M335.748 165.708C340.026 167.638 344.305 169.569 348.714 171.558C354.365 174.073 360.016 176.588 365.838 179.179C374.216 182.93 374.216 182.93 382.764 186.756C410.331 197.871 426.486 199.802 456.109 193.341C456.109 196.989 456.109 200.636 456.109 204.394C449.838 206.218 443.566 208.042 437.105 209.921C443.178 222.803 443.178 222.803 462.444 232.028C408.344 241.249 370.008 235.735 323.078 209.921C314.371 202.786 305.84 195.473 297.739 187.814C319.898 191.394 335.617 199.817 354.752 209.921C358.933 209.921 363.114 209.921 367.422 209.921C362.195 207.755 356.969 205.59 351.585 203.358C346.358 200.053 341.132 196.747 335.748 193.341C334.758 178.898 334.758 178.898 335.748 165.708Z" fill="#4983B9"/>
<path d="M392.76 320.454C407.394 320.454 422.027 320.454 437.104 320.454C437.104 324.101 437.104 327.749 437.104 331.507C440.632 331.315 444.159 331.122 447.794 330.924C484.913 329.775 510.778 335.137 544.796 348.087C543.228 352.191 541.66 356.294 540.045 360.522C539.522 365.538 539 370.553 538.461 375.721C550.077 388.623 550.077 388.623 563.801 397.827C538.657 391.346 521.109 384.01 500.452 370.194C486.849 366.297 486.849 366.297 475.113 364.667C475.113 368.315 475.113 371.962 475.113 375.721C493.927 378.456 493.927 378.456 513.122 381.247C513.122 384.895 513.122 388.543 513.122 392.301C531.936 397.772 550.751 403.244 570.135 408.881C565.955 410.705 561.774 412.528 557.466 414.408C557.466 418.055 557.466 421.703 557.466 425.461C544.923 425.461 532.38 425.461 519.457 425.461C523.638 421.813 527.819 418.166 532.127 414.408C525.202 413.952 518.277 413.496 511.142 413.026C484.164 408.239 483.801 405.009 468.778 386.774C449.128 382.3 449.128 382.3 430.769 381.247C430.769 377.6 430.769 373.952 430.769 370.194C434.95 370.194 439.131 370.194 443.439 370.194C443.439 366.546 443.439 362.899 443.439 359.141C437.167 357.317 430.896 355.493 424.434 353.614C432.796 353.614 441.158 353.614 449.774 353.614C449.774 359.085 449.774 364.557 449.774 370.194C453.955 370.194 458.136 370.194 462.443 370.194C460.353 364.722 458.262 359.251 456.109 353.614C460.29 351.79 464.471 349.966 468.778 348.087C462.115 346.491 455.451 344.895 448.586 343.251C429.324 338.292 411.213 332.81 392.76 325.98C392.76 324.157 392.76 322.333 392.76 320.454Z" fill="#2B75BF"/>
<path d="M177.376 60.6987C189.646 60.2507 201.921 59.9293 214.198 59.6625C221.033 59.4701 227.868 59.2778 234.91 59.0796C253.394 60.6987 253.394 60.6987 264.876 67.3265C274.209 79.6735 276.638 90.4369 279.922 104.912C285.958 125.756 285.958 125.756 303.652 139.454C317.342 143.766 317.342 143.766 331.046 146.363C334.688 147.275 338.33 148.186 342.082 149.126C344.173 152.774 346.263 156.421 348.417 160.179C340.055 158.356 331.693 156.532 323.078 154.653C323.078 160.124 323.078 165.596 323.078 171.233C314.716 173.057 306.354 174.88 297.738 176.759C297.738 180.407 297.738 184.055 297.738 187.813C287.286 185.989 276.833 184.165 266.064 182.286C262.558 170.815 259.729 161.043 259.729 149.126C257.735 141.732 255.638 134.358 253.394 127.019C257.575 127.019 261.756 127.019 266.064 127.019C263.974 117.9 261.883 108.781 259.729 99.3856C255.548 99.3856 251.367 99.3856 247.06 99.3856C247.06 106.681 247.06 113.976 247.06 121.492C242.879 121.492 238.698 121.492 234.39 121.492C234.39 112.373 234.39 103.254 234.39 93.8589C227.335 93.175 220.279 92.4911 213.01 91.7864C190.046 88.3322 190.046 88.3322 177.376 77.2788C177.376 71.8074 177.376 66.336 177.376 60.6987Z" fill="#5B91BD"/>
<path d="M627.149 143.6C633.42 145.424 639.692 147.248 646.153 149.127C648.244 163.717 650.334 178.308 652.488 193.34C677.574 193.34 702.66 193.34 728.506 193.34C728.506 195.164 728.506 196.988 728.506 198.867C699.239 198.867 669.972 198.867 639.819 198.867C639.819 202.515 639.819 206.162 639.819 209.921C652.362 209.921 664.905 209.921 677.828 209.921C677.828 229.982 677.828 250.044 677.828 270.714C665.158 254.134 665.158 254.134 658.823 243.081C654.642 244.905 650.461 246.728 646.153 248.607C641.972 243.136 637.791 237.665 633.484 232.027C629.303 232.027 625.122 232.027 620.814 232.027C618.724 235.675 616.633 239.323 614.479 243.081C618.66 243.081 622.841 243.081 627.149 243.081C627.149 250.376 627.149 257.671 627.149 265.188C631.33 265.188 635.511 265.188 639.819 265.188C639.819 268.835 639.819 272.483 639.819 276.241C627.276 279.889 614.733 283.536 601.81 287.294C603.9 274.528 605.991 261.761 608.144 248.607C601.873 246.784 595.601 244.96 589.14 243.081C589.14 255.847 589.14 268.614 589.14 281.768C576.597 287.239 564.054 292.71 551.131 298.348C551.131 294.7 551.131 291.052 551.131 287.294C555.312 285.47 559.493 283.647 563.801 281.768C557.529 279.944 551.258 278.12 544.796 276.241C544.796 272.593 544.796 268.946 544.796 265.188C555.249 265.188 565.701 265.188 576.47 265.188C574.38 257.892 572.289 250.597 570.135 243.081C593.891 226.501 593.891 226.501 608.144 226.501C610.235 213.734 612.325 200.967 614.479 187.814C618.66 187.814 622.841 187.814 627.149 187.814C627.149 173.223 627.149 158.633 627.149 143.6Z" fill="#80ACC9"/>
<path d="M601.81 132.546C608.145 149.126 608.145 149.126 602.206 161.562C594.088 177.053 594.088 177.053 595.871 196.103C595.434 217.467 589.611 225.635 576.471 243.08C578.561 246.728 580.652 250.376 582.806 254.134C580.715 257.781 578.625 261.429 576.471 265.187C566.018 265.187 555.566 265.187 544.797 265.187C544.797 268.835 544.797 272.482 544.797 276.241C538.525 276.241 532.254 276.241 525.792 276.241C525.792 272.593 525.792 268.945 525.792 265.187C521.611 265.187 517.43 265.187 513.123 265.187C506.506 247.869 507.204 243.137 513.123 226.5C502.67 226.5 492.218 226.5 481.448 226.5C485.629 224.676 489.81 222.853 494.118 220.974C494.118 217.326 494.118 213.678 494.118 209.92C489.937 208.096 485.756 206.273 481.448 204.393C489.81 202.57 498.172 200.746 506.788 198.867C506.788 204.338 506.788 209.81 506.788 215.447C515.15 213.623 523.512 211.799 532.127 209.92C527.946 217.215 523.765 224.511 519.457 232.027C524.422 227.467 529.387 222.908 534.503 218.21C551.132 204.393 551.132 204.393 563.801 204.393C561.711 193.451 559.62 182.508 557.466 171.233C570.009 167.586 582.552 163.938 595.475 160.18C597.566 151.061 599.656 141.942 601.81 132.546Z" fill="#6AA2D0"/>
<path d="M601.808 132.546C608.143 149.126 608.143 149.126 602.204 161.562C594.086 177.053 594.086 177.053 595.869 196.103C595.432 217.467 589.609 225.635 576.469 243.08C578.56 246.728 580.65 250.376 582.804 254.134C580.713 257.781 578.623 261.429 576.469 265.187C566.017 265.187 555.564 265.187 544.795 265.187C544.795 268.835 544.795 272.482 544.795 276.241C538.523 276.241 532.252 276.241 525.79 276.241C523.7 268.945 521.609 261.65 519.456 254.134C523.04 251.868 526.625 249.603 530.319 247.269C534.965 244.291 539.612 241.313 544.399 238.245C551.344 233.82 551.344 233.82 558.43 229.307C570.837 221.636 570.837 221.636 576.469 209.92C572.288 209.92 568.107 209.92 563.799 209.92C561.709 197.154 559.618 184.387 557.465 171.233C570.008 167.586 582.55 163.938 595.474 160.18C597.564 151.061 599.655 141.942 601.808 132.546Z" fill="#6DA3CC"/>
<path d="M278.734 198.868C300.286 202.226 312.11 209.654 329.412 220.975C343.015 224.872 343.015 224.872 354.752 226.502C354.752 230.149 354.752 233.797 354.752 237.555C340.118 235.731 325.485 233.907 310.408 232.028C343.658 249.586 373.851 252.239 411.765 254.135C411.765 255.959 411.765 257.783 411.765 259.662C358.458 262.398 358.458 262.398 304.073 265.189C304.073 268.836 304.073 272.484 304.073 276.242C264.426 279.186 237.867 269.712 202.716 254.135C204.806 250.488 206.897 246.84 209.051 243.082C201.211 239.491 201.211 239.491 193.214 235.828C187.987 232.75 182.761 229.673 177.376 226.502C177.376 221.03 177.376 215.559 177.376 209.922C181.051 212.251 184.726 214.581 188.512 216.981C226.88 240.487 226.88 240.487 272.399 248.608C272.399 243.137 272.399 237.666 272.399 232.028C268.218 230.205 264.037 228.381 259.729 226.502C259.729 222.854 259.729 219.206 259.729 215.448C268.091 215.448 276.453 215.448 285.069 215.448C282.978 209.977 280.888 204.505 278.734 198.868Z" fill="#285A99"/>
<path d="M380.091 342.561C400.996 348.032 421.901 353.504 443.439 359.141C443.439 362.789 443.439 366.436 443.439 370.195C439.258 370.195 435.077 370.195 430.769 370.195C430.769 373.842 430.769 377.49 430.769 381.248C436.649 380.792 442.528 380.336 448.586 379.866C455.25 380.322 461.913 380.778 468.778 381.248C473.09 386.548 473.09 386.548 477.489 391.956C486.411 404.229 486.411 404.229 500.18 406.053C512.899 407.355 525.683 408.15 538.462 408.881C536.371 412.529 534.281 416.177 532.127 419.935C476.242 420.427 438.044 417.074 394.542 385.069C364.118 365.389 328.934 362.239 292.195 358.45C285.654 357.734 285.654 357.734 278.981 357.004C268.345 355.844 257.703 354.725 247.059 353.614C247.059 351.791 247.059 349.967 247.059 348.088C252.767 348.131 252.767 348.131 258.589 348.175C275.73 348.29 292.871 348.362 310.012 348.433C316.001 348.479 321.991 348.526 328.162 348.573C333.858 348.591 339.554 348.609 345.422 348.627C350.697 348.656 355.972 348.685 361.406 348.715C373.789 349.284 373.789 349.284 380.091 342.561Z" fill="#2161A9"/>
<path d="M329.412 33.0659C335.684 34.8897 341.955 36.7135 348.417 38.5926C351.422 43.9501 354.427 49.3075 357.523 54.8273C368.417 73.4548 371.255 75.7745 392.761 82.8062C410.593 85.3085 410.593 85.3085 429.186 86.2604C435.425 86.6736 441.664 87.0868 448.091 87.5126C452.828 87.7833 457.564 88.054 462.444 88.3329C460.353 95.6282 458.263 102.923 456.109 110.44C451.928 110.44 447.747 110.44 443.439 110.44C445.53 115.911 447.62 121.383 449.774 127.02C441.412 127.02 433.05 127.02 424.435 127.02C422.344 123.372 420.254 119.725 418.1 115.966C413.919 119.614 409.738 123.262 405.43 127.02C378.899 125.878 354.973 121.013 334.955 105.604C328.096 91.0716 330.876 86.6276 335.747 71.7528C334.017 58.814 331.959 45.9016 329.412 33.0659Z" fill="#709BB1"/>
<path d="M411.764 237.554C414.9 243.025 414.9 243.025 418.099 248.607C434.823 248.607 451.547 248.607 468.778 248.607C468.778 252.255 468.778 255.902 468.778 259.661C452.054 265.132 435.33 270.603 418.099 276.241C418.099 279.888 418.099 283.536 418.099 287.294C373.833 287.88 329.686 287.477 285.464 285.567C277.828 285.246 270.193 284.926 262.327 284.595C238.955 281.536 222.883 275.807 202.715 265.187C200.624 261.54 198.534 257.892 196.38 254.134C205.756 255.836 215.125 257.569 224.491 259.315C229.709 260.277 234.927 261.239 240.303 262.23C253.394 265.187 253.394 265.187 259.728 270.714C274.477 272.746 289.26 274.596 304.072 276.241C304.072 272.593 304.072 268.945 304.072 265.187C318.706 261.54 333.339 257.892 348.416 254.134C348.416 252.31 348.416 250.486 348.416 248.607C369.321 248.607 390.226 248.607 411.764 248.607C411.764 244.959 411.764 241.312 411.764 237.554Z" fill="#5593C9"/>
<path d="M475.113 364.668C506.782 367.299 525.655 375.896 551.131 392.301C544.86 385.006 538.588 377.711 532.127 370.195C564.053 372.652 578.855 385.191 601.81 403.355C601.81 399.707 601.81 396.06 601.81 392.301C617.048 385.654 626.832 386.218 643.778 386.429C651.544 386.504 651.544 386.504 659.467 386.58C665.42 386.677 665.42 386.677 671.493 386.775C671.493 390.422 671.493 394.07 671.493 397.828C652.679 397.828 633.864 397.828 614.48 397.828C612.389 406.947 610.299 416.066 608.145 425.462C591.421 425.462 574.697 425.462 557.466 425.462C557.466 419.99 557.466 414.519 557.466 408.882C542.833 403.41 528.199 397.939 513.122 392.301C513.122 388.654 513.122 385.006 513.122 381.248C494.308 378.512 494.308 378.512 475.113 375.721C475.113 372.074 475.113 368.426 475.113 364.668Z" fill="#1C5396"/>
<path d="M475.113 259.661C481.384 261.485 487.656 263.309 494.117 265.188C494.117 272.483 494.117 279.778 494.117 287.295C502.479 289.118 510.841 290.942 519.456 292.821C515.275 292.821 511.094 292.821 506.787 292.821C506.787 298.293 506.787 303.764 506.787 309.401C497.38 310.427 497.38 310.427 487.782 311.474C461.88 314.663 437.049 320.176 411.764 325.982C433.585 338.673 449.381 340.02 475.113 342.562C468.841 356.24 468.841 356.24 462.443 370.195C458.262 370.195 454.081 370.195 449.773 370.195C449.773 364.724 449.773 359.252 449.773 353.615C437.23 353.615 424.687 353.615 411.764 353.615C411.764 348.144 411.764 342.672 411.764 337.035C399.613 336.009 399.613 336.009 387.217 334.962C362.669 332.89 362.669 332.89 348.416 320.455C354.304 319.386 360.191 318.318 366.257 317.217C424.306 306.57 424.306 306.57 481.447 292.821C479.357 281.878 477.266 270.936 475.113 259.661Z" fill="#16488D"/>
<path d="M367.025 328.398C371.357 329.214 375.689 330.029 380.152 330.87C390.704 332.866 401.237 334.941 411.764 337.033C411.764 340.681 411.764 344.329 411.764 348.087C406.93 347.973 402.096 347.859 397.115 347.741C379.445 347.372 379.445 347.372 361.086 353.614C351.24 354.062 341.374 354.208 331.515 354.153C325.86 354.135 320.205 354.118 314.379 354.099C305.553 354.03 305.553 354.03 296.55 353.959C290.593 353.934 284.635 353.909 278.498 353.883C263.795 353.818 249.092 353.727 234.389 353.614C234.389 349.966 234.389 346.318 234.389 342.56C239.485 341.876 244.58 341.192 249.83 340.488C255.187 339.348 260.544 338.208 266.063 337.033C268.154 333.386 270.244 329.738 272.398 325.98C306.616 319.021 333.596 321.672 367.025 328.398Z" fill="#4487C6"/>
<path d="M139.367 182.287C165.323 178.261 177.959 179.345 201.057 191.16C231.363 210.229 259.952 229.955 285.068 254.134C239.558 252.69 213.345 239.2 177.376 215.447C171.104 223.654 171.104 223.654 164.706 232.027C168.887 239.322 173.068 246.618 177.376 254.134C173.456 252.196 169.537 250.258 165.498 248.262C161.056 246.552 156.613 244.842 152.037 243.081C145.765 245.816 145.765 245.816 139.367 248.607C135.186 246.783 131.005 244.96 126.697 243.081C127.873 236.925 129.049 230.77 130.261 224.428C135.039 205.357 135.039 205.357 126.697 193.34C130.878 193.34 135.059 193.34 139.367 193.34C139.367 189.693 139.367 186.045 139.367 182.287Z" fill="#548DC1"/>
<path d="M183.711 276.239C187.786 276.638 191.861 277.037 196.059 277.448C236.678 281.088 276.271 281.975 317.089 280.881C336.511 281.802 349.927 285.639 367.421 292.819C367.421 294.643 367.421 296.467 367.421 298.346C356.969 300.17 346.516 301.994 335.747 303.873C346.2 307.52 356.652 311.168 367.421 314.926C348.417 325.98 348.417 325.98 330.6 324.598C310.676 320.508 291.667 315.403 272.399 309.399C272.399 313.047 272.399 316.695 272.399 320.453C240.725 311.242 209.051 302.031 177.376 292.819C179.467 287.348 181.557 281.876 183.711 276.239Z" fill="#2469AE"/>
<path d="M646.154 353.615C650.335 362.734 654.516 371.853 658.823 381.248C658.823 377.601 658.823 373.953 658.823 370.195C663.004 370.195 667.185 370.195 671.493 370.195C673.583 379.314 675.674 388.433 677.828 397.828C675.737 394.181 673.647 390.533 671.493 386.775C637 389.511 637 389.511 601.81 392.302C601.81 395.949 601.81 399.597 601.81 403.355C580.487 395.383 566.902 384.937 551.131 370.195C558.84 369.511 566.548 368.827 574.491 368.122C599.191 365.491 622.1 353.615 646.154 353.615Z" fill="#4B86BE"/>
<path d="M215.385 303.875C236.567 306.955 253.604 311.346 272.398 320.456C272.398 316.808 272.398 313.16 272.398 309.402C291.007 311.475 291.007 311.475 310.407 314.929C312.498 318.577 314.588 322.224 316.742 325.982C302.109 327.806 287.475 329.63 272.398 331.509C278.67 335.157 284.941 338.804 291.403 342.562C278.999 342.86 266.593 343.075 254.186 343.253C247.277 343.381 240.369 343.51 233.251 343.642C215.385 342.562 215.385 342.562 202.715 331.509C202.715 326.038 202.715 320.566 202.715 314.929C206.896 314.929 211.077 314.929 215.385 314.929C215.385 311.281 215.385 307.634 215.385 303.875Z" fill="#7EA6C4"/>
<path d="M532.127 314.929C525.855 317.664 525.855 317.664 519.457 320.455C519.457 324.103 519.457 327.751 519.457 331.509C532 329.685 544.543 327.861 557.466 325.982C559.557 335.101 561.647 344.22 563.801 353.616C559.432 352.483 555.063 351.35 550.562 350.183C512.521 340.668 476.544 334.329 437.104 331.509C437.104 326.037 437.104 320.566 437.104 314.929C474.213 302.788 494.377 304.529 532.127 314.929Z" fill="#2061AA"/>
<path d="M329.411 127.02C333.984 131.351 338.557 135.683 343.268 140.145C360.027 153.792 371.244 159.807 392.759 165.706C373.754 176.76 373.754 176.76 356.73 174.687C351.895 173.547 347.061 172.408 342.08 171.233C342.08 178.528 342.08 185.824 342.08 193.34C358.804 198.811 375.528 204.283 392.759 209.92C392.759 211.744 392.759 213.568 392.759 215.447C355.492 219.615 327.061 206.933 297.736 187.813C295.646 182.342 293.555 176.87 291.402 171.233C301.854 171.233 312.307 171.233 323.076 171.233C323.076 165.762 323.076 160.29 323.076 154.653C329.347 154.653 335.619 154.653 342.08 154.653C337.899 151.005 333.718 147.358 329.411 143.6C329.411 138.128 329.411 132.657 329.411 127.02Z" fill="#A5C5CC"/>
<path d="M323.076 44.1177C338.14 57.2593 339.484 64.6811 342.081 82.8046C339.99 86.4522 337.9 90.0998 335.746 93.858C340.58 98.0755 345.415 102.293 350.395 106.638C362.405 117.116 374.415 127.594 386.425 138.072C367.226 134.815 348.404 131.161 329.411 127.018C327.321 108.78 325.23 90.542 323.076 71.7512C316.805 77.2226 310.533 82.694 304.072 88.3313C305.559 108.478 305.559 108.478 310.407 127.018C306.226 127.018 302.045 127.018 297.737 127.018C287.671 101.19 280.868 81.5173 291.402 55.1711C307.635 47.5719 307.635 47.5719 323.076 44.1177Z" fill="#467EB1"/>
<path d="M335.746 127.02C354.299 130.488 369.707 135.786 386.424 143.6C386.424 145.423 386.424 147.247 386.424 149.126C421.454 153.052 452.939 156.326 487.782 149.126C487.782 156.495 487.782 163.864 487.782 171.233C475.239 173.057 462.696 174.881 449.773 176.76C449.773 182.231 449.773 187.703 449.773 193.34C428.254 204.738 428.254 204.738 412.952 203.357C393.207 196.959 374.014 189.72 354.75 182.287C373.755 171.233 373.755 171.233 386.424 165.706C370.746 160.235 370.746 160.235 354.75 154.653C354.75 151.005 354.75 147.358 354.75 143.6C348.479 141.776 342.207 139.952 335.746 138.073C335.746 134.425 335.746 130.778 335.746 127.02Z" fill="#80A9C6"/>
<path d="M558.653 91.4414C581.804 94.5832 590.758 102.393 606.288 117.197C626.396 141.311 630.248 169.801 627.149 198.867C622.968 202.514 618.787 206.162 614.479 209.92C612.388 215.391 610.298 220.863 608.144 226.5C591.911 233.063 591.911 233.063 576.47 237.554C578.56 234.704 580.651 231.854 582.805 228.918C590.517 214.944 590.517 214.944 589.14 196.449C589.14 177.218 592.32 166.201 601.809 149.126C599.719 152.774 597.628 156.422 595.474 160.18C593.384 160.18 591.293 160.18 589.14 160.18C589.14 147.413 589.14 134.646 589.14 121.493C580.778 119.669 572.416 117.845 563.8 115.966C563.8 130.557 563.8 145.147 563.8 160.18C557.529 162.004 551.257 163.827 544.796 165.706C537.458 143.299 539.494 131.341 551.131 110.439C546.95 106.792 542.769 103.144 538.461 99.386C544.796 93.8593 544.796 93.8593 558.653 91.4414Z" fill="#4D83B4"/>
<path d="M563.801 115.966C574.253 117.79 584.706 119.614 595.475 121.493C591.576 157.544 591.576 157.544 579.242 170.888C576.237 172.826 573.232 174.763 570.135 176.76C568.045 174.936 565.954 173.112 563.801 171.233C561.71 174.881 559.62 178.529 557.466 182.287C549.104 180.463 540.742 178.639 532.126 176.76C532.126 180.408 532.126 184.055 532.126 187.813C527.945 187.813 523.764 187.813 519.457 187.813C515.276 176.871 511.095 165.928 506.787 154.653C517.24 152.829 527.692 151.006 538.461 149.127C540.552 154.598 542.642 160.069 544.796 165.707C548.977 163.883 553.158 162.059 557.466 160.18C557.335 154.936 557.204 149.693 557.07 144.291C557.466 127.02 557.466 127.02 563.801 115.966Z" fill="#85AFCC"/>
<path d="M177.375 132.546C186.16 141.009 186.16 141.009 194.4 151.89C197.168 155.48 199.937 159.071 202.789 162.771C204.855 165.563 206.921 168.356 209.049 171.233C211.14 162.114 213.23 152.995 215.384 143.6C237.376 149.995 241.557 154.336 253.393 171.233C257.748 186.432 257.748 186.432 259.728 198.867C250.713 195.96 250.713 195.96 241.515 192.995C222.539 185.878 222.539 185.878 209.049 193.34C188.397 175.823 169.632 157.973 152.036 138.073C158.371 132.546 158.371 132.546 177.375 132.546Z" fill="#2A66A8"/>
<path d="M361.086 115.966C373.629 119.614 386.172 123.262 399.095 127.02C397.005 132.491 394.914 137.963 392.76 143.6C434.965 147.815 434.965 147.815 474.123 137.447C483.708 129.18 483.708 129.18 494.118 115.966C502.564 119.651 511.01 123.335 519.457 127.02C517.477 140.146 517.477 140.146 513.122 154.653C506.851 158.301 500.579 161.948 494.118 165.707C487.846 163.883 481.575 162.059 475.113 160.18C466.751 160.18 458.389 160.18 449.774 160.18C438.81 159.622 427.854 158.925 416.912 158.107C411.334 157.723 405.757 157.338 400.011 156.942C393.286 155.809 393.286 155.809 386.426 154.653C384.335 151.006 382.245 147.358 380.091 143.6C382.181 139.952 384.272 136.305 386.426 132.546C378.064 128.899 369.702 125.251 361.086 121.493C361.086 119.669 361.086 117.845 361.086 115.966Z" fill="#A4BFC3"/>
<path d="M481.447 93.8608C485.236 95.6847 489.025 97.5085 492.929 99.3875C507.128 106.063 507.128 106.063 525.791 104.914C544.795 104.914 544.795 104.914 557.465 110.441C549.547 129.439 549.547 129.439 538.461 149.128C524.603 154.309 524.603 154.309 513.121 154.655C515.212 145.535 517.302 136.416 519.456 127.021C515.275 127.021 511.094 127.021 506.786 127.021C504.696 130.669 502.606 134.316 500.452 138.074C498.361 132.603 496.271 127.132 494.117 121.494C489.805 126.054 485.494 130.613 481.051 135.311C462.443 149.128 462.443 149.128 438.291 150.855C431.628 150.285 424.964 149.715 418.099 149.128C418.099 147.304 418.099 145.48 418.099 143.601C426.2 143.145 434.3 142.689 442.646 142.219C463.732 140.444 463.732 140.444 478.28 127.712C482.173 115.289 482.173 115.289 481.447 99.3875C481.447 97.5637 481.447 95.7399 481.447 93.8608Z" fill="#8AA9B3"/>
<path d="M460.463 217.518C465.298 218.658 470.132 219.798 475.113 220.973C488.574 258.278 488.574 258.278 481.447 270.713C451.113 286.933 419.909 280.437 386.425 276.24C386.425 274.416 386.425 272.592 386.425 270.713C390.247 270.378 394.068 270.043 398.006 269.698C403.069 269.235 408.132 268.772 413.348 268.295C418.346 267.846 423.343 267.397 428.492 266.935C442.321 265.317 455.331 262.861 468.778 259.659C468.778 256.012 468.778 252.364 468.778 248.606C452.054 248.606 435.33 248.606 418.099 248.606C418.099 244.958 418.099 241.311 418.099 237.553C432.733 237.553 447.366 237.553 462.443 237.553C462.443 233.905 462.443 230.257 462.443 226.499C449.9 226.499 437.357 226.499 424.434 226.499C443.439 215.446 443.439 215.446 460.463 217.518Z" fill="#215999"/>
<path d="M500.452 71.7526C511.934 80.7334 511.934 80.7334 519.456 88.3327C525.728 88.3327 531.999 88.3327 538.461 88.3327C538.461 93.8041 538.461 99.2755 538.461 104.913C544.732 106.737 551.004 108.56 557.465 110.439C549.547 129.437 549.547 129.437 538.461 149.126C524.603 154.308 524.603 154.308 513.121 154.653C515.212 145.534 517.302 136.415 519.456 127.02C515.275 127.02 511.094 127.02 506.786 127.02C504.696 132.491 502.606 137.962 500.452 143.6C496.271 139.952 492.09 136.304 487.782 132.546C484.516 135.282 481.249 138.018 477.884 140.836C457.332 151.87 441.777 150.318 418.099 149.126C418.099 147.303 418.099 145.479 418.099 143.6C426.2 143.144 434.3 142.688 442.646 142.218C456.454 140.982 456.454 140.982 468.778 138.073C478.658 128.207 478.658 128.207 481.447 115.966C483.538 110.495 485.628 105.023 487.782 99.3861C494.053 99.3861 500.325 99.3861 506.786 99.3861C497.448 87.0701 497.448 87.0701 481.447 77.2793C463.557 76.9516 448.492 79.7135 430.769 82.806C430.769 77.3345 430.769 71.8631 430.769 66.2259C456.634 58.7039 475.234 63.727 500.452 71.7526Z" fill="#92ACB4"/>
<path d="M82.353 303.875C84.0516 307.181 85.7501 310.487 87.5001 313.893C97.5661 330.07 107.812 339.851 126.697 348.089C144.913 350.039 163.071 351.744 181.335 353.27C237.155 358.144 292.785 363.903 348.416 370.196C348.416 373.844 348.416 377.491 348.416 381.249C355.471 380.565 355.471 380.565 362.669 379.868C385.144 381.65 390.538 389.254 405.429 403.356C401.2 402.295 396.971 401.235 392.614 400.142C335.8 386.745 279.248 380.612 220.927 375.032C206.655 373.64 192.384 372.235 178.116 370.806C165.343 369.53 152.563 368.295 139.784 367.063C120.362 364.669 120.362 364.669 107.692 359.142C107.692 355.495 107.692 351.847 107.692 348.089C101.421 346.265 95.1494 344.441 88.6879 342.562C86.5974 329.796 84.5069 317.029 82.353 303.875Z" fill="#7F97A5"/>
<path d="M126.696 248.607C133.138 263.281 133.856 269.01 126.721 283.754C123.707 288.114 120.694 292.474 117.59 296.966C114.593 301.383 111.596 305.8 108.508 310.351C106.148 313.685 103.788 317.019 101.357 320.455C113.595 335.438 121.202 337.185 142.29 340.946C151.295 341.868 160.31 342.711 169.332 343.49C174.086 343.957 178.84 344.424 183.738 344.905C198.898 346.38 214.068 347.753 229.241 349.124C239.532 350.107 249.822 351.097 260.111 352.093C285.314 354.518 310.526 356.854 335.745 359.141C302.806 378.3 266.477 370.113 228.845 365.014C203.093 361.575 177.603 358.545 151.639 356.724C127.381 353.7 114.159 350.078 95.0218 337.035C85.8269 320.991 86.3279 310.658 88.687 292.821C98.0225 280.234 108.416 270.603 120.361 259.661C116.18 257.837 111.999 256.013 107.691 254.134C113.963 252.31 120.234 250.487 126.696 248.607Z" fill="#C3D3DC"/>
<path d="M481.448 270.714C483.539 278.01 485.629 285.305 487.783 292.821C467.272 304.751 455.23 306.658 431.166 309.747C404.799 313.052 404.799 313.052 378.977 318.512C359.498 321.787 345.971 312.083 329.412 303.875C341.98 288.138 349.854 287.06 371.999 283.452C381.155 282.588 390.32 281.799 399.491 281.077C427.28 278.646 454.498 270.714 481.448 270.714Z" fill="#2E77C4"/>
<path d="M171.041 220.974C186.72 227.132 200.68 235.241 215.385 243.08C209.113 251.288 209.113 251.288 202.715 259.661C219.439 266.956 236.163 274.251 253.393 281.767C253.393 283.591 253.393 285.415 253.393 287.294C219.07 288.024 186.733 284.81 153.224 278.313C139.136 274.978 139.136 274.978 126.697 281.767C128.787 270.824 130.878 259.882 133.032 248.607C128.851 248.607 124.67 248.607 120.362 248.607C122.453 244.96 124.543 241.312 126.697 237.554C132.968 239.378 139.24 241.201 145.701 243.08C151.973 243.08 158.244 243.08 164.706 243.08C162.615 237.609 160.525 232.138 158.371 226.5C162.552 224.677 166.733 222.853 171.041 220.974Z" fill="#2262AA"/>
<path d="M405.43 403.354C409.481 404.95 413.531 406.546 417.704 408.19C479.237 427.91 543.127 431.888 608.145 430.988C612.326 423.692 616.507 416.397 620.815 408.881C630.842 408.58 640.874 408.367 650.905 408.19C659.283 407.998 659.283 407.998 667.831 407.801C684.882 408.928 694.926 412.387 709.502 419.934C692.885 427.183 682.704 424.889 664.367 423.043C658.601 422.48 652.836 421.917 646.896 421.337C642.47 420.874 638.044 420.411 633.484 419.934C632.308 425.235 632.308 425.235 631.109 430.642C629.802 434.404 628.496 438.165 627.149 442.041C602.278 452.89 570.844 447.15 543.609 446.186C537.088 446.036 530.568 445.887 523.85 445.733C486.289 444.431 457.539 441.389 424.435 425.461C412.161 413.371 412.161 413.371 405.43 403.354Z" fill="#7C99A6"/>
<path d="M475.113 364.668C506.782 367.299 525.655 375.896 551.131 392.301C544.86 385.006 538.588 377.711 532.127 370.195C564.053 372.652 578.855 385.191 601.81 403.355C601.81 399.707 601.81 396.06 601.81 392.301C617.048 385.654 626.832 386.218 643.778 386.429C651.544 386.504 651.544 386.504 659.467 386.58C665.42 386.677 665.42 386.677 671.493 386.775C671.493 390.422 671.493 394.07 671.493 397.828C652.679 397.828 633.864 397.828 614.48 397.828C612.389 406.947 610.299 416.066 608.145 425.462C591.421 425.462 574.697 425.462 557.466 425.462C557.466 419.99 557.466 414.519 557.466 408.882C542.833 403.41 528.199 397.939 513.122 392.301C513.122 388.654 513.122 385.006 513.122 381.248C494.308 378.512 494.308 378.512 475.113 375.721C475.113 372.074 475.113 368.426 475.113 364.668Z" fill="#1C5396"/>
<path d="M475.113 259.661C481.384 261.485 487.656 263.309 494.117 265.188C494.117 272.483 494.117 279.778 494.117 287.295C502.479 289.118 510.841 290.942 519.456 292.821C515.275 292.821 511.094 292.821 506.787 292.821C506.787 298.293 506.787 303.764 506.787 309.401C497.38 310.427 497.38 310.427 487.782 311.474C461.88 314.663 437.049 320.176 411.764 325.982C433.585 338.673 449.381 340.02 475.113 342.562C468.841 356.24 468.841 356.24 462.443 370.195C458.262 370.195 454.081 370.195 449.773 370.195C449.773 364.724 449.773 359.252 449.773 353.615C437.23 353.615 424.687 353.615 411.764 353.615C411.764 348.144 411.764 342.672 411.764 337.035C399.613 336.009 399.613 336.009 387.217 334.962C362.669 332.89 362.669 332.89 348.416 320.455C354.304 319.386 360.191 318.318 366.257 317.217C424.306 306.57 424.306 306.57 481.447 292.821C479.357 281.878 477.266 270.936 475.113 259.661Z" fill="#16488D"/>
<path d="M335.747 359.142C366.219 366.475 388.048 376.313 413.348 392.647C470.209 426.821 541.836 421.476 608.144 419.935C610.235 414.464 612.325 408.992 614.479 403.355C631.203 403.355 647.927 403.355 665.158 403.355C665.158 405.179 665.158 407.003 665.158 408.882C650.524 408.882 635.891 408.882 620.814 408.882C619.899 412.416 618.985 415.949 618.043 419.59C614.479 430.989 614.479 430.989 608.144 436.515C531.008 440.057 457.823 436.995 394.864 395.389C379.043 386.164 367.131 383.365 348.416 381.248C348.416 377.601 348.416 373.953 348.416 370.195C337.964 370.195 327.511 370.195 316.742 370.195C323.014 366.547 329.285 362.9 335.747 359.142Z" fill="#DDE4E7"/>
<path d="M304.072 314.929C357.38 325.872 357.38 325.872 411.764 337.036C411.764 340.683 411.764 344.331 411.764 348.089C406.93 347.975 402.096 347.861 397.115 347.743C379.445 347.374 379.445 347.374 361.086 353.616C351.24 354.064 341.374 354.21 331.515 354.155C325.86 354.138 320.205 354.12 314.379 354.101C305.553 354.032 305.553 354.032 296.55 353.961C290.593 353.936 284.635 353.911 278.498 353.885C263.795 353.82 249.092 353.729 234.389 353.616C234.389 349.968 234.389 346.32 234.389 342.562C239.485 341.878 244.58 341.194 249.83 340.49C255.187 339.35 260.544 338.21 266.063 337.036C268.154 333.388 270.244 329.74 272.398 325.982C282.851 325.982 293.303 325.982 304.072 325.982C304.072 322.334 304.072 318.687 304.072 314.929Z" fill="#4587C6"/>
<path d="M253.394 10.959C333.986 14.7647 333.986 14.7647 353.465 32.2022C358.208 40.0255 362.691 47.974 366.877 56.0361C375.515 68.8317 381.716 70.7194 397.907 74.516C404.571 75.4279 411.234 76.3399 418.1 77.2794C422.281 73.6318 426.462 69.9841 430.769 66.226C430.769 71.6974 430.769 77.1689 430.769 82.8061C435.473 80.8683 440.177 78.9305 445.023 76.934C463.64 71.3968 470.044 70.5732 487.783 77.2794C494.251 82.6873 500.583 88.2212 506.787 93.8595C520.09 100.357 520.09 100.357 532.127 104.913C521.437 109.058 521.437 109.058 506.787 110.44C502.1 106.82 497.413 103.201 492.583 99.4725C470.893 85.6418 460.711 86.598 434.333 88.3328C388.697 89.5488 388.697 89.5488 369.401 79.0065C354.751 66.226 354.751 66.226 350.52 52.2365C343.06 36.4334 343.06 36.4334 320.058 32.267C311.323 30.9113 302.56 29.6849 293.779 28.5753C287.066 27.5762 287.066 27.5762 280.218 26.5568C269.186 24.931 258.125 23.4569 247.059 22.0124C249.15 18.3648 251.24 14.7171 253.394 10.959Z" fill="#DBE7EB"/>
<path d="M253.394 10.959C333.986 14.7647 333.986 14.7647 353.465 32.2022C358.208 40.0255 362.691 47.974 366.877 56.0361C375.515 68.8317 381.716 70.7194 397.907 74.516C404.571 75.4279 411.234 76.3399 418.1 77.2794C422.281 73.6318 426.462 69.9841 430.769 66.226C430.769 71.6974 430.769 77.1689 430.769 82.8061C435.473 80.8683 440.177 78.9305 445.023 76.934C463.64 71.3968 470.044 70.5732 487.783 77.2794C494.251 82.6873 500.583 88.2212 506.787 93.8595C520.09 100.357 520.09 100.357 532.127 104.913C521.437 109.058 521.437 109.058 506.787 110.44C502.1 106.82 497.413 103.201 492.583 99.4725C470.893 85.6418 460.711 86.598 434.333 88.3328C388.697 89.5488 388.697 89.5488 369.401 79.0065C354.751 66.226 354.751 66.226 350.52 52.2365C343.06 36.4334 343.06 36.4334 320.058 32.267C311.323 30.9113 302.56 29.6849 293.779 28.5753C287.066 27.5762 287.066 27.5762 280.218 26.5568C269.186 24.931 258.125 23.4569 247.059 22.0124C249.15 18.3648 251.24 14.7171 253.394 10.959Z" fill="#DBE7EB"/>
<path d="M278.733 60.7002C282.914 62.524 287.095 64.3478 291.403 66.2269C294.026 80.0652 294.026 80.0652 295.362 96.9692C295.836 102.562 296.31 108.154 296.798 113.916C297.263 120.403 297.263 120.403 297.738 127.021C301.919 127.021 306.1 127.021 310.408 127.021C308.317 123.259 306.227 119.497 304.073 115.622C296.642 96.5773 296.84 80.6849 297.738 60.7002C301.919 62.524 306.1 64.3478 310.408 66.2269C316.679 68.0507 322.951 69.8745 329.412 71.7536C337.557 118.336 337.557 118.336 329.412 143.601C311.595 142.91 311.595 142.91 291.403 138.074C272.112 114.512 269.838 94.7109 272.399 66.2269C274.489 64.4031 276.58 62.5793 278.733 60.7002Z" fill="#79AED0"/>
<path d="M639.819 198.868C671.176 198.868 702.534 198.868 734.841 198.868C734.841 202.516 734.841 206.163 734.841 209.922C722.298 209.922 709.755 209.922 696.832 209.922C696.595 214.054 696.359 218.186 696.115 222.443C695.698 227.886 695.282 233.329 694.853 238.937C694.485 244.323 694.118 249.709 693.739 255.258C690.144 272.4 685.408 280.452 671.493 292.822C652.092 296.276 652.092 296.276 633.484 298.349C629.303 301.996 625.122 305.644 620.814 309.402C620.814 302.107 620.814 294.812 620.814 287.295C633.484 281.769 633.484 281.769 671.493 281.769C673.583 258.059 675.674 234.35 677.828 209.922C665.285 209.922 652.742 209.922 639.819 209.922C639.819 206.274 639.819 202.626 639.819 198.868Z" fill="#C4D3E1"/>
<path d="M646.154 353.615C650.335 362.734 654.516 371.853 658.823 381.248C658.823 377.601 658.823 373.953 658.823 370.195C663.004 370.195 667.185 370.195 671.493 370.195C673.583 379.314 675.674 388.433 677.828 397.828C675.737 394.181 673.647 390.533 671.493 386.775C637 389.511 637 389.511 601.81 392.302C601.81 395.949 601.81 399.597 601.81 403.355C580.487 395.383 566.902 384.937 551.131 370.195C558.84 369.511 566.548 368.827 574.491 368.122C599.191 365.491 622.1 353.615 646.154 353.615Z" fill="#4B86BE"/>
<path d="M354.751 16.4857C367.945 27.3245 376.127 37.5256 385.312 51.0708C392.462 62.3874 392.462 62.3874 410.973 66.226C415.415 66.226 419.857 66.226 424.434 66.226C422.344 71.6975 420.253 77.1689 418.099 82.8061C400.898 80.4521 388.944 78.7447 373.755 71.7527C366.876 61.5629 366.876 61.5629 360.69 49.6459C353.991 37.2419 353.991 37.2419 342.081 27.5391C312.748 20.2942 283.77 17.9202 253.394 16.4857C251.303 29.2524 249.213 42.0191 247.059 55.1726C242.878 53.3488 238.697 51.525 234.389 49.6459C235.973 30.9933 235.973 30.9933 240.724 10.959C272.72 -11.1567 320.449 5.19821 354.751 16.4857Z" fill="#91A5B3"/>
<path d="M532.127 314.929C525.855 317.664 525.855 317.664 519.457 320.455C519.457 324.103 519.457 327.751 519.457 331.509C532 329.685 544.543 327.861 557.466 325.982C559.557 335.101 561.647 344.22 563.801 353.616C559.432 352.483 555.063 351.35 550.562 350.183C512.521 340.668 476.544 334.329 437.104 331.509C437.104 326.037 437.104 320.566 437.104 314.929C474.213 302.788 494.377 304.529 532.127 314.929Z" fill="#2061AA"/>
<path d="M329.411 127.02C333.984 131.351 338.557 135.683 343.268 140.145C360.027 153.792 371.244 159.807 392.759 165.706C373.754 176.76 373.754 176.76 356.73 174.687C351.895 173.547 347.061 172.408 342.08 171.233C342.08 178.528 342.08 185.824 342.08 193.34C358.804 198.811 375.528 204.283 392.759 209.92C392.759 211.744 392.759 213.568 392.759 215.447C355.492 219.615 327.061 206.933 297.736 187.813C295.646 182.342 293.555 176.87 291.402 171.233C301.854 171.233 312.307 171.233 323.076 171.233C323.076 165.762 323.076 160.29 323.076 154.653C329.347 154.653 335.619 154.653 342.08 154.653C337.899 151.005 333.718 147.358 329.411 143.6C329.411 138.128 329.411 132.657 329.411 127.02Z" fill="#A5C5CC"/>
<path d="M323.076 44.1177C338.14 57.2593 339.484 64.6811 342.081 82.8046C339.99 86.4522 337.9 90.0998 335.746 93.858C340.58 98.0755 345.415 102.293 350.395 106.638C362.405 117.116 374.415 127.594 386.425 138.072C367.226 134.815 348.404 131.161 329.411 127.018C327.321 108.78 325.23 90.542 323.076 71.7512C316.805 77.2226 310.533 82.694 304.072 88.3313C305.559 108.478 305.559 108.478 310.407 127.018C306.226 127.018 302.045 127.018 297.737 127.018C287.671 101.19 280.868 81.5173 291.402 55.1711C307.635 47.5719 307.635 47.5719 323.076 44.1177Z" fill="#467EB1"/>
<path d="M563.801 115.966C574.253 117.79 584.706 119.614 595.475 121.493C591.576 157.544 591.576 157.544 579.242 170.888C576.237 172.826 573.232 174.763 570.135 176.76C568.045 174.936 565.954 173.112 563.801 171.233C561.71 174.881 559.62 178.529 557.466 182.287C549.104 180.463 540.742 178.639 532.126 176.76C532.126 180.408 532.126 184.055 532.126 187.813C527.945 187.813 523.764 187.813 519.457 187.813C515.276 176.871 511.095 165.928 506.787 154.653C517.24 152.829 527.692 151.006 538.461 149.127C540.552 154.598 542.642 160.069 544.796 165.707C548.977 163.883 553.158 162.059 557.466 160.18C557.335 154.936 557.204 149.693 557.07 144.291C557.466 127.02 557.466 127.02 563.801 115.966Z" fill="#85AFCC"/>
<path d="M215.385 303.875C236.567 306.955 253.604 311.346 272.398 320.456C272.398 316.808 272.398 313.16 272.398 309.402C282.851 311.226 293.303 313.05 304.073 314.929C304.073 318.577 304.073 322.224 304.073 325.982C293.62 327.806 283.168 329.63 272.398 331.509C278.67 335.157 284.941 338.804 291.403 342.562C278.999 342.86 266.593 343.075 254.186 343.253C247.277 343.381 240.369 343.51 233.251 343.642C215.385 342.562 215.385 342.562 202.715 331.509C202.715 326.038 202.715 320.566 202.715 314.929C206.896 314.929 211.077 314.929 215.385 314.929C215.385 311.281 215.385 307.634 215.385 303.875Z" fill="#7FA6C4"/>
<path d="M335.748 165.708C346.196 170.042 356.617 174.427 367.026 178.833C372.832 181.27 378.638 183.706 384.62 186.217C399.096 193.341 399.096 193.341 405.431 204.394C403.34 208.042 401.25 211.69 399.096 215.448C403.277 217.272 407.458 219.095 411.765 220.975C393.83 228.798 381.036 227.84 361.087 226.501C334.599 217.258 316.743 206.307 297.739 187.814C319.898 191.394 335.617 199.817 354.752 209.921C358.933 209.921 363.114 209.921 367.422 209.921C362.195 207.755 356.969 205.59 351.585 203.358C346.358 200.053 341.132 196.747 335.748 193.341C334.758 178.898 334.758 178.898 335.748 165.708Z" fill="#5187B4"/>
<path d="M544.796 77.2783C570.973 74.5594 580.866 76.1176 602.997 89.3679C639.818 121.492 639.818 121.492 639.818 143.599C635.637 143.599 631.456 143.599 627.149 143.599C629.239 147.246 631.33 150.894 633.483 154.652C633.737 165.703 633.759 176.761 633.483 187.812C624.553 173.429 618.142 159.029 612.103 143.599C603.849 124.395 596.41 111.314 576.47 99.3851C556.402 97.5365 556.402 97.5365 538.461 99.3851C540.551 92.0898 542.642 84.7946 544.796 77.2783Z" fill="#C1CED7"/>
<path d="M449.774 82.8071C468.589 85.5428 468.589 85.5428 487.783 88.3338C492.534 97.6601 492.534 97.6601 494.118 110.441C482.809 125.07 474.352 135.643 456.109 143.601C421.024 144.876 421.024 144.876 405.43 138.074C407.521 130.779 409.611 123.484 411.765 115.967C418.037 115.967 424.308 115.967 430.77 115.967C428.679 119.615 426.589 123.263 424.435 127.021C430.706 125.197 436.978 123.373 443.439 121.494C443.439 117.846 443.439 114.199 443.439 110.441C447.62 110.441 451.801 110.441 456.109 110.441C454.019 101.322 451.928 92.2025 449.774 82.8071Z" fill="#BABE91"/>
<path d="M177.375 132.546C186.16 141.009 186.16 141.009 194.4 151.89C197.168 155.48 199.937 159.071 202.789 162.771C204.855 165.563 206.921 168.356 209.049 171.233C211.14 162.114 213.23 152.995 215.384 143.6C237.376 149.995 241.557 154.336 253.393 171.233C257.748 186.432 257.748 186.432 259.728 198.867C250.713 195.96 250.713 195.96 241.515 192.995C222.539 185.878 222.539 185.878 209.049 193.34C188.397 175.823 169.632 157.973 152.036 138.073C158.371 132.546 158.371 132.546 177.375 132.546Z" fill="#2A66A8"/>
<path d="M361.086 115.966C375.72 119.614 390.353 123.262 405.43 127.02C405.43 130.667 405.43 134.315 405.43 138.073C409.611 138.073 413.792 138.073 418.1 138.073C418.1 141.721 418.1 145.368 418.1 149.127C427.216 147.559 436.32 145.936 445.419 144.291C450.49 143.393 455.561 142.495 460.786 141.57C476.716 138.378 476.716 138.378 494.118 127.02C496.208 130.667 498.299 134.315 500.452 138.073C502.543 134.425 504.633 130.778 506.787 127.02C510.968 127.02 515.149 127.02 519.457 127.02C517.477 140.146 517.477 140.146 513.122 154.653C506.851 158.301 500.579 161.948 494.118 165.707C487.846 163.883 481.575 162.059 475.113 160.18C466.751 160.18 458.389 160.18 449.774 160.18C438.81 159.622 427.854 158.925 416.912 158.107C411.334 157.723 405.757 157.338 400.011 156.942C393.286 155.809 393.286 155.809 386.426 154.653C384.335 151.006 382.245 147.358 380.091 143.6C382.181 139.952 384.272 136.305 386.426 132.546C378.064 128.899 369.702 125.251 361.086 121.493C361.086 119.669 361.086 117.845 361.086 115.966Z" fill="#A6BEBF"/>
<path d="M247.059 22.0127C274.235 25.6603 301.412 29.3079 329.412 33.0661C327.321 38.5375 325.231 44.009 323.077 49.6462C308.437 55.4519 293.646 60.9763 278.733 66.2263C274.552 69.8739 270.371 73.5215 266.063 77.2797C266.063 73.6321 266.063 69.9845 266.063 66.2263C257.701 62.5787 249.339 58.9311 240.724 55.1729C242.815 44.23 244.905 33.2872 247.059 22.0127Z" fill="#669FCE"/>
<path d="M460.463 217.518C465.298 218.658 470.132 219.798 475.113 220.973C488.574 258.278 488.574 258.278 481.447 270.713C451.113 286.933 419.909 280.437 386.425 276.24C386.425 274.416 386.425 272.592 386.425 270.713C390.247 270.378 394.068 270.043 398.006 269.698C403.069 269.235 408.132 268.772 413.348 268.295C418.346 267.846 423.343 267.397 428.492 266.935C442.321 265.317 455.331 262.861 468.778 259.659C468.778 256.012 468.778 252.364 468.778 248.606C452.054 248.606 435.33 248.606 418.099 248.606C418.099 244.958 418.099 241.311 418.099 237.553C432.733 237.553 447.366 237.553 462.443 237.553C462.443 233.905 462.443 230.257 462.443 226.499C449.9 226.499 437.357 226.499 424.434 226.499C443.439 215.446 443.439 215.446 460.463 217.518Z" fill="#215999"/>
<path d="M158.371 99.3857C160.461 104.857 162.552 110.329 164.705 115.966C171.63 115.738 178.555 115.51 185.689 115.275C209.049 115.966 209.049 115.966 228.054 127.019C228.054 132.491 228.054 137.962 228.054 143.599C223.873 143.599 219.692 143.599 215.384 143.599C215.384 154.542 215.384 165.485 215.384 176.76C184.502 151.199 184.502 151.199 177.375 132.546C166.923 136.194 156.47 139.841 145.701 143.599C151.972 150.895 158.244 158.19 164.705 165.706C150.056 171.924 150.056 171.924 133.031 176.76C126.76 173.112 120.488 169.464 114.027 165.706C112.394 154.135 112.394 154.135 113.235 140.836C114.707 122.148 114.707 122.148 107.692 104.912C124.416 103.089 141.14 101.265 158.371 99.3857Z" fill="#5190C8"/>
<path d="M158.371 99.3857C160.461 104.857 162.552 110.329 164.705 115.966C171.63 115.738 178.555 115.51 185.689 115.275C209.049 115.966 209.049 115.966 228.054 127.019C228.054 132.491 228.054 137.962 228.054 143.599C223.873 143.599 219.692 143.599 215.384 143.599C215.384 154.542 215.384 165.485 215.384 176.76C184.502 151.199 184.502 151.199 177.375 132.546C166.923 136.194 156.47 139.841 145.701 143.599C150.927 148.843 156.153 154.086 161.538 159.489C177.375 175.378 177.375 175.378 177.375 187.813C158.561 185.077 158.561 185.077 139.366 182.286C139.366 185.934 139.366 189.581 139.366 193.34C131.004 191.516 122.642 189.692 114.027 187.813C114.1 182.755 114.174 177.696 114.249 172.485C114.307 165.916 114.364 159.348 114.423 152.58C114.496 146.04 114.57 139.5 114.645 132.762C115.387 116.412 115.387 116.412 107.692 104.912C124.416 103.089 141.14 101.265 158.371 99.3857Z" fill="#4282BF"/>
<path d="M215.386 303.875C215.386 307.522 215.386 311.17 215.386 314.928C211.205 314.928 207.024 314.928 202.716 314.928C211.394 332.399 215.316 336.995 234.39 348.088C148.975 350.291 148.975 350.291 114.028 337.035C106.555 325.55 106.555 325.55 101.359 314.928C140.304 305.932 175.097 302.759 215.386 303.875Z" fill="#306CAA"/>
<path d="M120.363 237.554C124.152 238.466 127.941 239.378 131.845 240.317C146.421 243.696 146.421 243.696 164.707 243.08C162.616 248.552 160.526 254.023 158.372 259.661C162.553 259.661 166.734 259.661 171.041 259.661C171.041 263.308 171.041 266.956 171.041 270.714C175.222 270.714 179.403 270.714 183.711 270.714C181.621 278.009 179.53 285.304 177.376 292.821C196.191 295.556 196.191 295.556 215.385 298.347C215.385 300.171 215.385 301.995 215.385 303.874C208.82 304.608 202.254 305.342 195.49 306.098C186.812 307.083 178.135 308.069 169.458 309.055C165.138 309.536 160.818 310.017 156.367 310.513C135.564 312.891 115.219 315.414 95.0234 320.454C101.075 305.835 106.787 293.864 117.591 281.422C127.059 270.289 130.267 262.12 133.032 248.607C128.851 248.607 124.67 248.607 120.363 248.607C120.363 244.959 120.363 241.312 120.363 237.554Z" fill="#4E89C2"/>
<path d="M215.385 303.873C215.385 307.52 215.385 311.168 215.385 314.926C211.204 314.926 207.023 314.926 202.716 314.926C211.393 332.397 215.316 336.993 234.39 348.086C149.685 350.271 149.685 350.271 114.028 337.033C103.363 325.548 103.363 325.548 95.0234 314.926C135.997 306.568 173.296 302.688 215.385 303.873Z" fill="#306CAB"/>
<path d="M139.368 270.714C141.458 274.362 143.549 278.01 145.702 281.768C158.245 279.944 170.788 278.12 183.711 276.241C181.621 281.712 179.53 287.184 177.377 292.821C196.191 295.557 196.191 295.557 215.386 298.348C215.386 300.172 215.386 301.995 215.386 303.875C158.942 309.346 158.942 309.346 101.359 314.928C115.612 283.84 115.612 283.84 139.368 270.714Z" fill="#6098C9"/>
</svg>
