<svg width="849" height="571" viewBox="0 0 849 571" fill="none" xmlns="http://www.w3.org/2000/svg">
<g style="mix-blend-mode:multiply">
<path d="M772.849 198.961C770.143 213.129 767.546 224.9 759.784 237.648C752.509 251.188 752.904 261.558 753.845 276.335C743.392 279.982 732.94 283.63 722.171 287.388C722.171 289.212 722.171 291.036 722.171 292.915C726.352 294.739 730.533 296.562 734.84 298.442C710.128 313.841 688.059 324.314 658.822 331.602C658.822 324.306 658.822 317.011 658.822 309.495C656.732 304.023 654.641 298.552 652.488 292.915C646.216 294.739 639.945 296.562 633.483 298.442C637.664 291.146 641.845 283.851 646.153 276.335C653.208 277.247 660.264 278.159 667.533 279.098C694.996 282.403 704.55 281.954 728.506 270.808C728.506 265.337 728.506 259.865 728.506 254.228C722.234 256.964 722.234 256.964 715.836 259.755C715.836 256.107 715.836 252.459 715.836 248.701C695.541 245.453 695.541 245.453 671.492 248.701C658.696 257.481 648.426 267.108 637.566 277.673C625.089 289.309 611.655 296.696 595.474 303.968C603.836 305.792 612.198 307.616 620.813 309.495C614.479 315.022 614.479 315.022 598.617 315.561C592.223 315.497 585.829 315.433 579.241 315.367C572.831 315.317 566.421 315.267 559.816 315.216C554.859 315.152 549.902 315.088 544.796 315.022C542.705 311.374 540.615 307.726 538.461 303.968C543.752 302.75 543.752 302.75 549.151 301.507C587.965 291.554 615.244 276.68 646.153 254.228C652.424 249.896 658.696 245.565 665.157 241.102C669.338 238.138 673.519 235.175 677.827 232.121C675.736 228.473 673.646 224.826 671.492 221.068C704.59 196.752 730.451 196.329 772.849 198.961Z" fill="#C77D15"/>
<path d="M235.576 173.401C241.284 174.013 246.992 174.626 252.873 175.257C257.226 175.784 261.578 176.312 266.063 176.855C266.152 180.125 266.242 183.395 266.335 186.764C268.069 211.823 269.103 223.301 288.63 242.83C293.726 246.591 298.822 250.353 304.072 254.229C304.072 257.876 304.072 261.524 304.072 265.282C299.891 265.282 295.71 265.282 291.402 265.282C287.221 259.811 283.04 254.339 278.732 248.702C272.461 246.878 266.189 245.054 259.728 243.175C259.728 246.823 259.728 250.471 259.728 254.229C263.909 254.229 268.09 254.229 272.397 254.229C276.186 257.762 279.976 261.296 283.879 264.937C296.671 277.506 296.671 277.506 314.366 279.099C319.331 280.011 324.296 280.923 329.411 281.862C337.725 293.261 337.725 293.261 342.081 303.969C337.9 305.793 333.719 307.617 329.411 309.496C327.32 304.024 325.23 298.553 323.076 292.916C318.895 291.092 314.714 289.268 310.406 287.389C310.406 291.036 310.406 294.684 310.406 298.442C291.721 290.874 275.408 282.535 259.728 270.809C259.728 267.161 259.728 263.514 259.728 259.755C255.547 259.755 251.366 259.755 247.058 259.755C247.058 256.108 247.058 252.46 247.058 248.702C240.787 248.702 234.515 248.702 228.054 248.702C225.963 252.35 223.873 255.997 221.719 259.755C207.085 256.108 192.452 252.46 177.375 248.702C175.285 252.35 173.194 255.997 171.04 259.755C166.859 259.755 162.678 259.755 158.371 259.755C156.28 270.698 154.19 281.641 152.036 292.916C149.945 292.916 147.855 292.916 145.701 292.916C143.325 275.299 143.325 275.299 145.701 254.229C151.972 249.783 158.244 245.338 164.705 240.757C184.746 228.973 184.746 228.973 185.566 215.455C184.952 204.431 184.331 193.406 183.71 182.382C205.579 169.662 210.537 170.564 235.576 173.401Z" fill="#DFA23E"/>
<path d="M215.384 381.342C219.565 381.342 223.746 381.342 228.054 381.342C228.054 384.989 228.054 388.637 228.054 392.395C231.998 393.756 235.942 395.117 240.006 396.519C256.266 404.936 258.45 410.688 264.875 425.901C270.558 437.846 270.558 437.846 278.732 447.662C301.706 453.96 301.706 453.96 323.076 453.189C323.076 456.837 323.076 460.484 323.076 464.242C316.805 466.978 316.805 466.978 310.406 469.769C310.406 473.417 310.406 477.064 310.406 480.822C327.13 484.47 343.854 488.118 361.085 491.876C361.085 495.523 361.085 499.171 361.085 502.929C369.447 504.753 377.809 506.577 386.424 508.456C384.334 512.104 382.243 515.751 380.089 519.509C374.341 518.027 368.592 516.546 362.669 515.019C347.283 511.105 331.959 507.707 316.32 504.613C309.535 503.26 302.749 501.906 295.757 500.511C289.249 499.265 282.74 498.018 276.035 496.733C259.728 491.876 259.728 491.876 247.058 475.296C253.329 475.296 259.601 475.296 266.063 475.296C249.339 469.824 232.615 464.353 215.384 458.716C214.6 449.825 214.6 449.825 213.8 440.754C208.702 418.515 203.491 411.84 183.71 397.922C185.8 394.274 187.891 390.627 190.045 386.868C199.452 392.34 199.452 392.34 209.049 397.922C211.14 392.45 213.23 386.979 215.384 381.342Z" fill="#CA770D"/>
<path d="M266.063 425.556C275.305 428.194 284.543 430.844 293.778 433.5C298.922 434.975 304.067 436.45 309.367 437.969C323.076 442.136 323.076 442.136 335.746 447.662C335.746 451.31 335.746 454.958 335.746 458.716C339.927 458.716 344.108 458.716 348.416 458.716C348.416 462.363 348.416 466.011 348.416 469.769C342.144 471.593 335.873 473.417 329.411 475.296C348.226 477.12 367.04 478.944 386.425 480.823C386.425 475.351 386.425 469.88 386.425 464.243C401.863 463.166 417.303 462.136 432.748 461.134C437.121 460.824 441.494 460.514 445.999 460.195C466.403 458.905 480.834 458.538 500.452 464.243C500.452 467.89 500.452 471.538 500.452 475.296C471.185 477.12 441.918 478.944 411.764 480.823C407.583 491.766 403.402 502.708 399.094 513.983C388.8 527.109 388.8 527.109 380.09 536.09C350.185 527.564 320.437 519.079 291.402 508.456C293.493 504.809 295.583 501.161 297.737 497.403C324.914 502.874 352.09 508.346 380.09 513.983C373.421 507.582 373.421 507.582 361.085 502.929C361.085 499.282 361.085 495.634 361.085 491.876C344.361 490.052 327.638 488.228 310.407 486.349C310.407 479.054 310.407 471.759 310.407 464.243C314.588 464.243 318.769 464.243 323.076 464.243C323.076 460.595 323.076 456.947 323.076 453.189C312.493 453.531 312.493 453.531 301.696 453.88C278.733 453.189 278.733 453.189 266.063 442.136C266.063 436.664 266.063 431.193 266.063 425.556Z" fill="#9E550F"/>
<path d="M766.515 171.327C781.148 171.327 795.782 171.327 810.859 171.327C810.859 178.622 810.859 185.918 810.859 193.434C806.678 193.434 802.497 193.434 798.189 193.434C798.189 189.786 798.189 186.139 798.189 182.381C794.008 182.381 789.827 182.381 785.519 182.381C789.404 203.232 793.391 224.067 797.397 244.901C798.499 250.825 799.602 256.749 800.738 262.852C801.84 268.534 802.942 274.216 804.078 280.069C805.074 285.308 806.069 290.546 807.094 295.944C810.278 310.789 810.278 310.789 823.528 326.075C823.528 331.546 823.528 337.018 823.528 342.655C826.261 350.227 829.323 357.713 832.635 365.107C834.325 368.933 836.015 372.759 837.757 376.7C842.489 387.136 842.489 387.136 848.868 397.922C836.325 396.098 823.782 394.274 810.859 392.395C808.768 396.043 806.678 399.69 804.524 403.449C798.642 379.503 798.642 361.074 804.524 337.128C794.071 337.128 783.619 337.128 772.85 337.128C772.85 333.481 772.85 329.833 772.85 326.075C781.212 324.251 789.574 322.427 798.189 320.548C795.053 313.937 791.917 307.325 788.687 300.514C774.971 265.402 777.571 230.073 779.184 193.434C773.876 194.339 768.569 195.244 763.1 196.176C739.876 199.126 717.911 199.499 694.456 199.306C682.624 199.231 682.624 199.231 670.552 199.155C661.61 199.059 661.61 199.059 652.488 198.961C652.488 197.137 652.488 195.313 652.488 193.434C660.058 193.028 660.058 193.028 667.78 192.614C718.253 189.564 718.253 189.564 766.515 176.854C766.515 175.03 766.515 173.206 766.515 171.327Z" fill="#D8D5BF"/>
<path d="M342.081 265.281C348.964 266.478 348.964 266.478 355.987 267.699C387.596 272.994 417.419 277.86 449.773 276.335C449.773 287.278 449.773 298.22 449.773 309.495C443.501 309.495 437.23 309.495 430.768 309.495C430.768 304.023 430.768 298.552 430.768 292.915C420.316 292.915 409.863 292.915 399.094 292.915C403.275 296.562 407.456 300.21 411.764 303.968C405.492 305.792 399.221 307.616 392.759 309.495C390.669 314.966 388.578 320.438 386.424 326.075C432.601 319.565 432.601 319.565 477.488 308.459C496.705 303.269 506.8 304.121 525.791 309.495C532.062 313.142 538.334 316.79 544.795 320.548C525.308 322.167 525.308 322.167 505.821 323.787C501.959 324.542 498.096 325.297 494.116 326.075C492.026 329.723 489.936 333.37 487.782 337.128C479.42 337.128 471.058 337.128 462.442 337.128C460.352 340.776 458.261 344.424 456.108 348.182C431.022 346.358 405.936 344.534 380.09 342.655C378.13 336.386 376.17 330.116 374.151 323.657C369.769 305.141 369.769 305.141 361.085 298.441C354.647 287.433 348.307 276.381 342.081 265.281Z" fill="#D47C0F"/>
<path d="M259.728 182.381C297.44 184.026 321.19 199.696 348.416 221.068C350.506 224.715 352.597 228.363 354.751 232.121C370.597 236.256 386.187 239.881 402.262 243.175C418.337 246.468 433.927 250.093 449.773 254.228C451.864 257.876 453.954 261.523 456.108 265.281C407.311 268.715 377.731 259.059 335.746 237.648C326.611 245.617 322.33 255.206 316.742 265.281C312.561 265.281 308.38 265.281 304.072 265.281C303.288 260.152 303.288 260.152 302.488 254.919C296.228 239.444 288.846 239.079 272.398 232.121C259.295 215.546 258.466 202.205 259.728 182.381Z" fill="#E09521"/>
<path d="M126.697 326.076C135.758 351.897 141.925 376.541 145.702 403.45C137.34 401.626 128.978 399.802 120.363 397.923C120.363 394.276 120.363 390.628 120.363 386.87C116.182 386.87 112.001 386.87 107.693 386.87C104.818 381.512 101.944 376.155 98.9825 370.635C90.8558 353.318 90.8558 353.318 76.0187 348.183C76.0187 351.831 76.0187 355.478 76.0187 359.236C80.1997 359.236 84.3807 359.236 88.6884 359.236C87.5125 364.48 86.3366 369.723 85.125 375.126C80.5363 391.837 80.5363 391.837 88.6884 403.45C107.879 407.085 107.879 407.085 126.697 408.977C128.788 416.272 130.878 423.567 133.032 431.083C128.851 431.083 124.67 431.083 120.363 431.083C121.808 434.083 123.253 437.082 124.742 440.172C126.563 444.126 128.384 448.08 130.261 452.154C132.098 456.065 133.935 459.976 135.828 464.006C139.367 475.297 139.367 475.297 133.032 491.877C127.873 482.095 122.729 472.307 117.591 462.517C114.725 457.067 111.859 451.616 108.905 446.001C101.358 431.083 101.358 431.083 95.0232 414.503C88.7517 416.327 82.4802 418.151 76.0187 420.03C80.5637 433.638 80.5637 433.638 88.6884 447.664C93 449.259 97.3117 450.855 101.754 452.499C105.804 454.551 109.855 456.603 114.028 458.717C118.779 478.751 118.779 478.751 120.363 497.404C89.1809 497.404 78.5921 490.016 54.7376 473.829C44.3446 464.244 44.3446 464.244 41.1771 445.591C42.2224 440.804 43.2676 436.016 44.3446 431.083C48.5256 431.083 52.7065 431.083 57.0142 431.083C56.8836 424.586 56.7529 418.089 56.6183 411.395C56.5741 389.776 59.2789 369.489 63.3491 348.183C46.6251 348.183 29.9011 348.183 12.6704 348.183C12.6704 346.359 12.6704 344.535 12.6704 342.656C20.571 342.25 20.571 342.25 28.6312 341.836C35.5151 341.423 42.3991 341.009 49.4916 340.584C56.3265 340.199 63.1615 339.814 70.2035 339.418C93.0575 336.589 103.344 326.076 126.697 326.076Z" fill="#E4A740"/>
<path d="M772.849 198.961C770.143 213.129 767.546 224.9 759.784 237.648C752.509 251.188 752.904 261.558 753.845 276.335C743.392 279.982 732.94 283.63 722.171 287.388C722.171 289.212 722.171 291.036 722.171 292.915C726.352 294.739 730.533 296.562 734.84 298.442C710.128 313.841 688.059 324.314 658.822 331.602C658.822 324.306 658.822 317.011 658.822 309.495C656.732 304.023 654.641 298.552 652.488 292.915C646.216 294.739 639.945 296.562 633.483 298.442C637.664 291.146 641.845 283.851 646.153 276.335C653.208 277.247 660.264 278.159 667.533 279.098C694.996 282.403 704.55 281.954 728.506 270.808C728.506 265.337 728.506 259.865 728.506 254.228C722.234 256.964 722.234 256.964 715.836 259.755C715.836 256.107 715.836 252.459 715.836 248.701C695.541 245.453 695.541 245.453 671.492 248.701C658.696 257.481 648.426 267.108 637.566 277.673C625.089 289.309 611.655 296.696 595.474 303.968C603.836 305.792 612.198 307.616 620.813 309.495C614.479 315.022 614.479 315.022 598.617 315.561C592.223 315.497 585.829 315.433 579.241 315.367C572.831 315.317 566.421 315.267 559.816 315.216C554.859 315.152 549.902 315.088 544.796 315.022C542.705 311.374 540.615 307.726 538.461 303.968C543.752 302.75 543.752 302.75 549.151 301.507C587.965 291.554 615.244 276.68 646.153 254.228C652.424 249.896 658.696 245.565 665.157 241.102C669.338 238.138 673.519 235.175 677.827 232.121C675.736 228.473 673.646 224.826 671.492 221.068C704.59 196.752 730.451 196.329 772.849 198.961Z" fill="#C77D15"/>
<path d="M209.05 232.122C216.177 243.52 216.177 243.52 221.72 254.228C230.082 252.405 238.444 250.581 247.059 248.702C247.059 252.349 247.059 255.997 247.059 259.755C251.24 259.755 255.421 259.755 259.729 259.755C259.729 263.403 259.729 267.05 259.729 270.808C263.387 272.29 267.045 273.772 270.815 275.299C285.275 281.957 297.572 289.643 310.407 298.442C310.407 294.794 310.407 291.147 310.407 287.389C316.679 289.212 322.95 291.036 329.412 292.915C327.321 298.387 325.231 303.858 323.077 309.495C318.896 307.672 314.715 305.848 310.407 303.969C310.407 307.616 310.407 311.264 310.407 315.022C291.403 320.549 291.403 320.549 278.733 315.022C276.643 318.67 274.552 322.317 272.398 326.075C272.398 322.428 272.398 318.78 272.398 315.022C268.217 315.022 264.036 315.022 259.729 315.022C257.638 307.727 255.548 300.432 253.394 292.915C247.122 292.915 240.851 292.915 234.389 292.915C234.389 289.268 234.389 285.62 234.389 281.862C230.208 281.862 226.027 281.862 221.72 281.862C223.68 287.789 225.639 293.717 227.659 299.824C232.287 314.075 236.764 328.259 240.724 342.656C234.453 342.656 228.181 342.656 221.72 342.656C209.23 328.127 198.746 313.744 189.65 297.406C183.068 286.305 175.253 279.173 164.706 270.808C169.853 251.81 169.853 251.81 177.376 232.122C196.38 226.595 196.38 226.595 209.05 232.122Z" fill="#BF6D0F"/>
<path d="M215.384 381.342C219.565 381.342 223.746 381.342 228.054 381.342C228.054 384.989 228.054 388.637 228.054 392.395C231.998 393.756 235.942 395.117 240.006 396.519C256.266 404.936 258.45 410.688 264.875 425.901C270.558 437.846 270.558 437.846 278.732 447.662C301.706 453.96 301.706 453.96 323.076 453.189C323.076 456.837 323.076 460.484 323.076 464.242C316.805 466.978 316.805 466.978 310.406 469.769C310.406 473.417 310.406 477.064 310.406 480.822C327.13 484.47 343.854 488.118 361.085 491.876C361.085 495.523 361.085 499.171 361.085 502.929C369.447 504.753 377.809 506.577 386.424 508.456C384.334 512.104 382.243 515.751 380.089 519.509C374.341 518.027 368.592 516.546 362.669 515.019C347.283 511.105 331.959 507.707 316.32 504.613C309.535 503.26 302.749 501.906 295.757 500.511C289.249 499.265 282.74 498.018 276.035 496.733C259.728 491.876 259.728 491.876 247.058 475.296C253.329 475.296 259.601 475.296 266.063 475.296C249.339 469.824 232.615 464.353 215.384 458.716C214.6 449.825 214.6 449.825 213.8 440.754C208.702 418.515 203.491 411.84 183.71 397.922C185.8 394.274 187.891 390.627 190.045 386.868C199.452 392.34 199.452 392.34 209.049 397.922C211.14 392.45 213.23 386.979 215.384 381.342Z" fill="#CA770D"/>
<path d="M235.578 173.401C241.286 174.013 246.994 174.626 252.875 175.257C259.403 176.048 259.403 176.048 266.064 176.855C266.154 180.125 266.244 183.395 266.336 186.764C268.07 211.823 269.105 223.301 288.632 242.83C293.727 246.591 298.823 250.353 304.073 254.229C304.073 257.876 304.073 261.524 304.073 265.282C299.892 265.282 295.711 265.282 291.403 265.282C287.222 259.811 283.041 254.339 278.734 248.702C272.462 246.878 266.191 245.054 259.729 243.175C259.729 246.823 259.729 250.471 259.729 254.229C263.91 254.229 268.091 254.229 272.399 254.229C276.188 257.762 279.977 261.296 283.881 264.937C296.673 277.506 296.673 277.506 314.367 279.099C319.332 280.011 324.297 280.923 329.412 281.862C337.727 293.261 337.727 293.261 342.082 303.969C337.901 305.793 333.72 307.617 329.412 309.496C327.322 304.024 325.231 298.553 323.078 292.916C318.897 291.092 314.716 289.268 310.408 287.389C310.408 291.036 310.408 294.684 310.408 298.442C291.723 290.874 275.41 282.535 259.729 270.809C259.729 267.161 259.729 263.514 259.729 259.755C255.548 259.755 251.367 259.755 247.06 259.755C247.06 256.108 247.06 252.46 247.06 248.702C240.788 248.702 234.517 248.702 228.055 248.702C225.965 252.35 223.874 255.997 221.72 259.755C217.801 255.31 213.881 250.864 209.842 246.284C198.018 231.908 198.018 231.908 183.711 226.595C181.855 193.133 181.855 193.133 183.711 182.382C205.58 169.662 210.538 170.564 235.578 173.401Z" fill="#DFA542"/>
<path d="M310.407 414.503C326.086 419.974 326.086 419.974 342.081 425.556C342.081 429.204 342.081 432.852 342.081 436.61C350.443 436.61 358.805 436.61 367.42 436.61C369.511 432.962 371.601 429.314 373.755 425.556C376.891 427.266 380.027 428.976 383.258 430.738C405.302 438.911 425.956 440.059 449.773 442.136C449.773 445.784 449.773 449.432 449.773 453.19C453.954 455.014 458.135 456.837 462.443 458.717C456.108 464.243 456.108 464.243 440.246 464.783C430.655 464.687 430.655 464.687 420.871 464.589C414.46 464.539 408.05 464.489 401.445 464.438C394.01 464.341 394.01 464.341 386.425 464.243C386.425 469.715 386.425 475.186 386.425 480.823C367.61 480.823 348.796 480.823 329.411 480.823C327.321 477.176 325.23 473.528 323.077 469.77C331.439 469.77 339.801 469.77 348.416 469.77C348.416 466.122 348.416 462.475 348.416 458.717C344.235 458.717 340.054 458.717 335.746 458.717C335.746 455.069 335.746 451.421 335.746 447.663C331.565 447.663 327.384 447.663 323.077 447.663C323.077 442.192 323.077 436.72 323.077 431.083C318.896 431.083 314.715 431.083 310.407 431.083C310.407 425.612 310.407 420.14 310.407 414.503Z" fill="#C46F0B"/>
<path d="M177.376 403.449C196.38 414.503 196.38 414.503 200.735 429.01C201.388 433.342 202.042 437.673 202.715 442.136C187.036 436.665 187.036 436.665 171.041 431.083C178.265 437.935 178.265 437.935 194.004 444.209C209.05 458.716 209.05 458.716 209.718 473.699C208.015 489.112 205.759 504.257 202.715 519.51C198.534 519.51 194.353 519.51 190.045 519.51C190.045 523.158 190.045 526.805 190.045 530.563C193.834 531.361 197.623 532.159 201.527 532.981C212.607 535.467 223.536 538.461 234.389 541.617C238.744 553.016 238.744 553.016 240.724 563.724C226.09 561.9 211.457 560.076 196.38 558.197C196.38 550.902 196.38 543.606 196.38 536.09C192.46 534.608 188.541 533.126 184.502 531.6C171.041 525.037 171.041 525.037 158.371 508.457C162.552 506.633 166.733 504.809 171.041 502.93C166.076 498.712 161.111 494.495 155.995 490.149C134.331 470.799 125.262 457.442 120.362 431.083C124.543 431.083 128.724 431.083 133.032 431.083C135.122 427.435 137.213 423.787 139.367 420.029C151.64 414.157 151.64 414.157 164.706 408.976C168.887 407.152 173.068 405.328 177.376 403.449Z" fill="#DB9120"/>
<path d="M557.464 160.274C576.469 165.801 576.469 165.801 589.138 182.381C570.965 202.64 558.997 215.71 532.125 226.595C530.035 232.066 527.944 237.538 525.79 243.175C532.062 243.175 538.333 243.175 544.795 243.175C544.795 246.823 544.795 250.47 544.795 254.228C521.039 260.446 521.039 260.446 506.786 254.228C485.938 251.802 465.094 249.727 444.18 247.806C417.119 245.107 393.104 240.542 367.419 232.122C371.6 230.298 375.781 228.474 380.089 226.595C381.918 222.947 383.747 219.3 385.632 215.541C392.759 204.488 392.759 204.488 404.241 198.616C426.126 199.161 434.776 213.511 449.772 226.595C470.908 229.709 479.597 227.592 497.952 217.7C503.349 213.796 508.747 209.892 514.308 205.87C519.755 202.023 525.202 198.175 530.814 194.212C543.882 183.154 550.729 174.851 557.464 160.274Z" fill="#DF9825"/>
<path d="M551.13 149.22C591.019 150.112 618.393 170.13 646.152 193.433C646.152 197.081 646.152 200.729 646.152 204.487C650.333 206.311 654.514 208.134 658.822 210.013C622.397 232.12 622.397 232.12 608.143 232.12C608.143 235.768 608.143 239.415 608.143 243.174C587.238 246.821 566.333 250.469 544.795 254.227C544.795 250.579 544.795 246.932 544.795 243.174C538.524 243.174 532.252 243.174 525.791 243.174C526.582 233.502 526.582 233.502 532.125 221.067C544.587 213.433 557.266 206.062 570.134 198.96C574.315 193.489 578.496 188.017 582.804 182.38C572.374 170.675 572.374 170.675 563.8 171.327C557.528 174.062 557.528 174.062 551.13 176.853C551.13 167.734 551.13 158.615 551.13 149.22Z" fill="#D18317"/>
<path d="M266.063 425.556C275.305 428.194 284.543 430.844 293.778 433.5C298.922 434.975 304.067 436.45 309.367 437.969C323.076 442.136 323.076 442.136 335.746 447.662C335.746 451.31 335.746 454.958 335.746 458.716C339.927 458.716 344.108 458.716 348.416 458.716C348.416 462.363 348.416 466.011 348.416 469.769C342.144 471.593 335.873 473.417 329.411 475.296C348.226 477.12 367.04 478.944 386.425 480.823C386.425 475.351 386.425 469.88 386.425 464.243C401.863 463.166 417.303 462.136 432.748 461.134C437.121 460.824 441.494 460.514 445.999 460.195C466.403 458.905 480.834 458.538 500.452 464.243C500.452 467.89 500.452 471.538 500.452 475.296C471.185 477.12 441.918 478.944 411.764 480.823C407.583 491.766 403.402 502.708 399.094 513.983C388.8 527.109 388.8 527.109 380.09 536.09C350.185 527.564 320.437 519.079 291.402 508.456C293.493 504.809 295.583 501.161 297.737 497.403C324.914 502.874 352.09 508.346 380.09 513.983C373.421 507.582 373.421 507.582 361.085 502.929C361.085 499.282 361.085 495.634 361.085 491.876C344.361 490.052 327.638 488.228 310.407 486.349C310.407 479.054 310.407 471.759 310.407 464.243C314.588 464.243 318.769 464.243 323.076 464.243C323.076 460.595 323.076 456.947 323.076 453.189C312.493 453.531 312.493 453.531 301.696 453.88C278.733 453.189 278.733 453.189 266.063 442.136C266.063 436.664 266.063 431.193 266.063 425.556Z" fill="#9E550F"/>
<path d="M310.407 303.969C319.649 306.607 328.887 309.257 338.122 311.913C343.266 313.388 348.411 314.863 353.711 316.382C367.42 320.549 367.42 320.549 380.09 326.076C380.09 331.547 380.09 337.018 380.09 342.656C405.176 342.656 430.262 342.656 456.108 342.656C458.199 349.951 460.289 357.246 462.443 364.762C473.026 363.224 473.026 363.224 483.823 361.654C506.787 359.236 506.787 359.236 519.456 364.762C519.456 368.41 519.456 372.058 519.456 375.816C525.728 377.64 531.999 379.463 538.461 381.343C534.28 386.814 530.099 392.285 525.791 397.923C536.244 397.923 546.696 397.923 557.465 397.923C532.812 419.431 494.811 415.383 461.651 415.539C454.057 415.617 446.462 415.696 438.638 415.776C419.264 414.575 408.568 413.01 392.76 403.449C388.009 391.705 388.009 391.705 386.425 381.343C392.696 383.166 398.968 384.99 405.429 386.869C403.339 390.517 401.248 394.165 399.095 397.923C413.341 398.521 427.597 398.949 441.855 399.304C453.761 399.689 453.761 399.689 465.907 400.082C488.278 399.626 488.278 399.626 503.322 386.783C506.556 383.164 509.79 379.545 513.122 375.816C502.538 376.5 502.538 376.5 491.741 377.198C462.368 377.379 440.439 368.779 413.892 358.588C395.79 352.619 380.258 352.873 361.086 353.709C356.905 350.061 352.724 346.414 348.416 342.656C350.506 340.832 352.597 339.008 354.751 337.129C340.117 331.658 325.484 326.186 310.407 320.549C310.407 315.077 310.407 309.606 310.407 303.969Z" fill="#A45809"/>
<path d="M76.0181 348.181C88.2918 351.98 88.2918 351.98 101.357 359.234C106.109 373.742 106.109 373.742 107.692 386.868C111.873 386.868 116.054 386.868 120.362 386.868C122.452 390.515 124.543 394.163 126.697 397.921C132.968 399.745 139.24 401.569 145.701 403.448C141.52 390.681 137.339 377.914 133.032 364.761C137.213 362.937 141.394 361.113 145.701 359.234C170.249 390.322 170.249 390.322 177.375 408.974C171.104 411.71 171.104 411.71 164.706 414.501C160.076 427.29 155.828 440.191 152.036 453.188C147.855 453.188 143.674 453.188 139.366 453.188C137.276 456.836 135.185 460.483 133.032 464.241C120.362 447.661 120.362 447.661 120.362 431.081C124.543 431.081 128.724 431.081 133.032 431.081C130.941 425.61 128.851 420.138 126.697 414.501C104.449 407.705 104.449 407.705 82.3529 403.448C78.3936 390.667 78.3936 390.667 76.0181 375.814C80.1991 370.343 84.38 364.871 88.6877 359.234C84.5067 359.234 80.3258 359.234 76.0181 359.234C76.0181 355.586 76.0181 351.939 76.0181 348.181Z" fill="#CC7F16"/>
<path d="M228.055 248.702C234.327 248.702 240.598 248.702 247.06 248.702C247.06 252.35 247.06 255.997 247.06 259.756C251.241 259.756 255.422 259.756 259.729 259.756C259.729 263.403 259.729 267.051 259.729 270.809C263.388 272.291 267.046 273.773 270.815 275.299C285.275 281.957 297.572 289.644 310.408 298.442C310.408 294.795 310.408 291.147 310.408 287.389C316.679 289.213 322.951 291.037 329.412 292.916C327.322 298.387 325.231 303.859 323.078 309.496C318.897 307.672 314.716 305.848 310.408 303.969C310.408 307.617 310.408 311.264 310.408 315.023C291.403 320.549 291.403 320.549 278.734 315.023C276.643 318.67 274.553 322.318 272.399 326.076C272.399 322.428 272.399 318.781 272.399 315.023C268.218 315.023 264.037 315.023 259.729 315.023C257.639 307.727 255.548 300.432 253.394 292.916C247.123 292.916 240.851 292.916 234.39 292.916C234.39 289.268 234.39 285.621 234.39 281.862C225.571 283.743 225.571 283.743 216.573 285.662C196.381 287.389 196.381 287.389 184.503 280.135C177.376 270.809 177.376 270.809 177.376 259.756C207.467 264.591 207.467 264.591 221.72 270.809C223.811 263.514 225.901 256.218 228.055 248.702Z" fill="#C97610"/>
<path d="M741.175 193.435C753.718 193.435 766.261 193.435 779.184 193.435C781.275 222.616 783.365 251.797 785.519 281.862C781.338 281.862 777.157 281.862 772.849 281.862C772.849 285.509 772.849 289.157 772.849 292.915C764.487 294.739 756.125 296.563 747.51 298.442C747.51 303.913 747.51 309.385 747.51 315.022C737.144 320.819 726.574 326.347 715.836 331.602C713.745 335.25 711.655 338.897 709.501 342.655C705.32 342.655 701.139 342.655 696.831 342.655C694.741 335.36 692.65 328.065 690.497 320.549C700.949 313.253 711.402 305.958 722.171 298.442C717.99 296.618 713.809 294.794 709.501 292.915C717.42 284.625 717.42 284.625 728.506 276.335C736.868 276.335 745.23 276.335 753.845 276.335C752.408 272.345 750.97 268.356 749.49 264.245C746.946 244.272 753.977 237.475 766.515 221.068C770.922 208.957 770.922 208.957 772.849 198.961C762.397 198.961 751.944 198.961 741.175 198.961C741.175 197.137 741.175 195.314 741.175 193.435Z" fill="#E3AD41"/>
<path d="M734.84 232.12C741.175 248.7 741.175 248.7 737.612 259.408C725.046 275.137 709.089 283.04 690.497 292.914C690.497 289.266 690.497 285.619 690.497 281.86C669.121 280.016 669.121 280.016 646.153 281.86C633.595 292.147 633.595 292.147 627.148 303.967C631.329 303.967 635.51 303.967 639.818 303.967C633.483 320.547 633.483 320.547 618.834 327.456C601.184 331.753 593.356 331.53 576.47 326.074C586.922 320.603 597.375 315.131 608.144 309.494C601.872 307.67 595.601 305.846 589.139 303.967C592.961 301.431 596.783 298.895 600.72 296.282C608.315 291.195 608.315 291.195 616.062 286.005C621.06 282.671 626.058 279.337 631.207 275.902C646.446 265.598 646.446 265.598 659.02 253.018C671.492 243.174 671.492 243.174 685.053 241.015C697.425 241.734 709.798 242.454 722.171 243.174C722.171 246.821 722.171 250.469 722.171 254.227C726.352 246.932 730.533 239.636 734.84 232.12Z" fill="#ECBB4D"/>
<path d="M348.416 226.596C356.256 228.192 364.095 229.787 372.172 231.432C408.352 238.479 444.848 243.624 481.448 248.703C475.113 265.283 475.113 265.283 462.443 270.809C462.443 274.457 462.443 278.105 462.443 281.863C468.715 285.51 474.986 289.158 481.448 292.916C481.448 296.564 481.448 300.211 481.448 303.97C470.995 305.793 460.543 307.617 449.774 309.496C447.683 300.377 445.593 291.258 443.439 281.863C438.939 281.592 434.44 281.321 429.804 281.042C423.982 280.629 418.159 280.216 412.161 279.79C406.355 279.405 400.549 279.021 394.567 278.624C387.401 277.492 387.401 277.492 380.09 276.336C378 272.688 375.91 269.041 373.756 265.283C366.57 262.661 359.384 260.039 351.98 257.338C329.412 248.703 329.412 248.703 316.742 232.122C338.226 234.465 353.919 239.966 372.568 249.048C399.548 261.467 419.616 261.635 449.774 259.756C439.595 257.555 439.595 257.555 429.21 255.309C420.359 253.339 411.508 251.367 402.658 249.393C398.179 248.432 393.7 247.47 389.085 246.479C377.533 243.875 366.126 240.793 354.751 237.649C352.661 234.001 350.57 230.354 348.416 226.596Z" fill="#C7750E"/>
<path d="M103.536 347.146C115.236 360.628 118.241 370.211 120.363 386.869C116.182 386.869 112.001 386.869 107.693 386.869C104.818 381.511 101.944 376.154 98.9825 370.634C90.8558 353.317 90.8558 353.317 76.0187 348.182C76.0187 351.83 76.0187 355.477 76.0187 359.235C80.1997 359.235 84.3807 359.235 88.6884 359.235C87.5125 364.479 86.3366 369.722 85.125 375.125C80.5363 391.836 80.5363 391.836 88.6884 403.449C107.879 407.084 107.879 407.084 126.697 408.976C128.788 416.271 130.878 423.566 133.032 431.083C128.851 431.083 124.67 431.083 120.363 431.083C121.808 434.082 123.253 437.081 124.742 440.171C126.563 444.125 128.384 448.079 130.261 452.153C132.098 456.064 133.935 459.976 135.828 464.005C139.367 475.296 139.367 475.296 133.032 491.876C127.873 482.094 122.729 472.306 117.591 462.516C114.725 457.066 111.859 451.616 108.905 446C101.358 431.083 101.358 431.083 95.0232 414.502C88.7517 416.326 82.4802 418.15 76.0187 420.029C78.1092 429.148 80.1997 438.267 82.3535 447.663C63.349 436.609 63.349 436.609 59.8847 426.009C57.0964 398.83 57.4596 375.015 63.349 348.182C46.6251 348.182 29.9011 348.182 12.6704 348.182C12.6704 346.358 12.6704 344.534 12.6704 342.655C24.7889 341.126 36.9377 339.779 49.0957 338.51C55.8571 337.741 62.6186 336.971 69.5849 336.179C88.6884 337.129 88.6884 337.129 103.536 347.146Z" fill="#EBB754"/>
<path d="M646.154 193.435C667.059 195.258 687.964 197.082 709.502 198.961C673.626 238.607 673.626 238.607 633.484 243.175C633.223 246.367 632.961 249.558 632.692 252.847C624.17 271.965 609.302 277.89 589.14 287.388C582.869 285.565 576.597 283.741 570.136 281.862C576.407 278.214 582.679 274.567 589.14 270.808C578.688 272.632 568.235 274.456 557.466 276.335C561.821 265.627 561.821 265.627 570.136 254.228C586.765 250.083 586.765 250.083 601.81 248.702C603.9 243.23 605.991 237.759 608.145 232.121C617.748 226.65 617.748 226.65 627.545 221.068C633.686 217.42 639.827 213.773 646.154 210.015C646.154 204.543 646.154 199.072 646.154 193.435Z" fill="#E3AE37"/>
<path d="M671.492 237.648C637.531 270.706 600.212 301.667 547.567 305.695C539.924 304.84 539.924 304.84 532.126 303.968C534.217 293.025 536.307 282.083 538.461 270.808C528.009 270.808 517.556 270.808 506.787 270.808C516.106 254.547 531.024 252.36 549.794 246.478C569.984 241.716 587.336 242.04 608.144 243.175C598.625 259.784 583.334 259.601 563.8 265.281C561.71 268.929 559.619 272.577 557.466 276.335C563.737 272.687 570.008 269.04 576.47 265.281C582.741 267.105 589.013 268.929 595.474 270.808C593.384 274.456 591.294 278.103 589.14 281.862C593.059 279.126 596.979 276.39 601.017 273.571C614.479 265.281 614.479 265.281 627.149 265.281C627.671 261.862 628.194 258.442 628.732 254.919C633.483 243.175 633.483 243.175 645.757 235.921C658.823 232.121 658.823 232.121 671.492 237.648Z" fill="#ECBD54"/>
<path d="M342.081 265.281C348.964 266.478 348.964 266.478 355.987 267.699C387.596 272.994 417.419 277.86 449.773 276.335C449.773 287.278 449.773 298.22 449.773 309.495C443.501 309.495 437.23 309.495 430.768 309.495C430.768 304.023 430.768 298.552 430.768 292.915C420.316 292.915 409.863 292.915 399.094 292.915C403.275 296.562 407.456 300.21 411.764 303.968C405.492 305.792 399.221 307.616 392.759 309.495C390.669 314.966 388.578 320.438 386.424 326.075C432.601 319.565 432.601 319.565 477.488 308.459C496.705 303.269 506.8 304.121 525.791 309.495C532.062 313.142 538.334 316.79 544.795 320.548C525.308 322.167 525.308 322.167 505.821 323.787C501.959 324.542 498.096 325.297 494.116 326.075C492.026 329.723 489.936 333.37 487.782 337.128C479.42 337.128 471.058 337.128 462.442 337.128C460.352 340.776 458.261 344.424 456.108 348.182C431.022 346.358 405.936 344.534 380.09 342.655C378.13 336.386 376.17 330.116 374.151 323.657C369.769 305.141 369.769 305.141 361.085 298.441C354.647 287.433 348.307 276.381 342.081 265.281Z" fill="#D47C0F"/>
<path d="M259.728 243.174C272.002 244.901 272.002 244.901 285.067 248.701C287.158 254.172 289.248 259.643 291.402 265.281C311.153 261.708 311.153 261.708 316.741 248.701C326.13 250.107 335.497 251.625 344.852 253.191C352.679 254.441 352.679 254.441 360.664 255.717C364.984 257.049 369.304 258.381 373.755 259.754C375.845 265.225 377.936 270.697 380.09 276.334C364.411 273.598 364.411 273.598 348.415 270.807C352.596 274.455 356.777 278.103 361.085 281.861C361.085 287.332 361.085 292.804 361.085 298.441C367.357 296.617 373.628 294.793 380.09 292.914C380.09 303.968 380.09 315.021 380.09 326.074C365.456 322.427 350.823 318.779 335.746 315.021C333.655 305.902 331.565 296.783 329.411 287.387C322.355 286.02 315.3 284.652 308.031 283.242C285.067 276.334 285.067 276.334 275.961 264.59C274.785 261.17 273.609 257.751 272.397 254.227C268.216 254.227 264.035 254.227 259.728 254.227C259.728 250.58 259.728 246.932 259.728 243.174Z" fill="#D98D23"/>
<path d="M671.492 292.915C667.312 292.915 663.131 292.915 658.823 292.915C658.823 296.563 658.823 300.21 658.823 303.969C663.004 305.792 667.185 307.616 671.492 309.495C665.221 312.231 665.221 312.231 658.823 315.022C654.692 326.212 654.692 326.212 652.488 337.129C646.217 337.129 639.945 337.129 633.484 337.129C633.484 333.481 633.484 329.834 633.484 326.075C629.303 326.075 625.122 326.075 620.814 326.075C621.075 332.231 621.336 338.386 621.606 344.728C620.814 364.762 620.814 364.762 608.144 375.816C594.683 379.27 594.683 379.27 582.805 381.342C580.714 390.461 578.624 399.581 576.47 408.976C572.289 403.505 568.108 398.033 563.8 392.396C559.619 390.572 555.438 388.748 551.131 386.869C553.221 381.398 555.312 375.926 557.466 370.289C553.285 368.465 549.104 366.641 544.796 364.762C557.466 353.709 557.466 353.709 574.094 353.018C579.059 353.246 584.024 353.474 589.14 353.709C589.14 350.061 589.14 346.414 589.14 342.656C614.479 320.549 614.479 320.549 633.484 315.022C635.574 311.374 637.665 307.727 639.818 303.969C635.637 303.969 631.456 303.969 627.149 303.969C638.135 284.8 649.892 286.634 671.492 292.915Z" fill="#D89121"/>
<path d="M215.385 458.717C253.014 466.924 253.014 466.924 291.403 475.297C291.403 477.121 291.403 478.945 291.403 480.824C278.86 480.824 266.317 480.824 253.394 480.824C275.344 489.031 275.344 489.031 297.738 497.404C297.738 501.051 297.738 504.699 297.738 508.457C324.914 517.576 352.091 526.695 380.091 536.091C380.091 537.914 380.091 539.738 380.091 541.617C355.871 549.48 336.299 553.999 310.408 552.671C308.317 549.023 306.227 545.375 304.073 541.617C310.344 537.97 316.616 534.322 323.077 530.564C319.452 529.773 315.826 528.982 312.09 528.168C279.575 521.076 279.575 521.076 247.059 513.984C247.059 508.512 247.059 503.041 247.059 497.404C242.878 493.756 238.697 490.108 234.39 486.35C234.39 480.879 234.39 475.407 234.39 469.77C230.209 469.77 226.028 469.77 221.72 469.77C223.81 477.065 225.901 484.361 228.055 491.877C221.783 488.229 215.512 484.582 209.05 480.824C211.141 473.528 213.231 466.233 215.385 458.717Z" fill="#A86014"/>
<path d="M177.376 403.449C196.381 414.503 196.381 414.503 200.736 429.01C201.389 433.342 202.042 437.673 202.715 442.136C187.037 436.665 187.037 436.665 171.041 431.083C173.132 432.907 175.222 434.73 177.376 436.609C179.667 443.938 181.793 451.307 183.711 458.716C187.892 458.716 192.073 458.716 196.381 458.716C192.2 466.011 188.019 473.307 183.711 480.823C177.439 478.999 171.168 477.175 164.706 475.296C177.249 489.887 189.792 504.477 202.715 519.51C190.172 519.51 177.629 519.51 164.706 519.51C162.616 515.862 160.525 512.215 158.372 508.457C162.553 506.633 166.734 504.809 171.041 502.93C165.946 498.598 160.85 494.267 155.6 489.804C139.367 475.296 139.367 475.296 133.032 464.243C135.123 460.595 137.213 456.948 139.367 453.19C143.548 453.19 147.729 453.19 152.037 453.19C152.69 447.034 153.343 440.879 154.016 434.537C155.454 427.926 156.891 421.314 158.372 414.503C164.643 410.855 170.915 407.207 177.376 403.449Z" fill="#E5A12B"/>
<path d="M259.728 182.381C297.44 184.026 321.19 199.696 348.416 221.068C350.506 224.715 352.597 228.363 354.751 232.121C370.597 236.256 386.187 239.881 402.262 243.175C418.337 246.468 433.927 250.093 449.773 254.228C451.864 257.876 453.954 261.523 456.108 265.281C407.311 268.715 377.731 259.059 335.746 237.648C326.611 245.617 322.33 255.206 316.742 265.281C312.561 265.281 308.38 265.281 304.072 265.281C303.288 260.152 303.288 260.152 302.488 254.919C296.228 239.444 288.846 239.079 272.398 232.121C259.295 215.546 258.466 202.205 259.728 182.381Z" fill="#E09521"/>
<path d="M209.05 458.717C218.033 460.291 227.006 461.912 235.973 463.553C240.971 464.45 245.968 465.348 251.117 466.273C265.863 469.723 278.038 474.459 291.403 480.824C278.86 480.824 266.317 480.824 253.394 480.824C275.344 489.031 275.344 489.031 297.738 497.404C297.738 501.051 297.738 504.699 297.738 508.457C324.914 517.576 352.091 526.695 380.091 536.091C380.091 537.914 380.091 539.738 380.091 541.617C355.871 549.48 336.299 553.999 310.407 552.671C308.317 549.023 306.226 545.375 304.073 541.617C310.344 537.97 316.616 534.322 323.077 530.564C298.676 524.983 274.031 521.162 249.212 517.287C234.389 513.984 234.389 513.984 215.385 502.93C211.204 508.402 207.023 513.873 202.715 519.511C192.574 497.393 200.86 480.572 209.05 458.717Z" fill="#B16814"/>
<path d="M741.175 193.435C753.718 193.435 766.261 193.435 779.184 193.435C779.968 197.538 780.752 201.642 781.56 205.87C784.643 220.898 784.643 220.898 792.646 232.467C799.647 245.992 797.445 251.535 791.854 265.282C789.763 270.753 787.673 276.225 785.519 281.862C781.338 281.862 777.157 281.862 772.849 281.862C772.849 285.509 772.849 289.157 772.849 292.915C764.487 294.739 756.125 296.563 747.51 298.442C747.51 303.913 747.51 309.385 747.51 315.022C737.144 320.819 726.574 326.347 715.836 331.602C713.745 335.25 711.655 338.897 709.501 342.655C705.32 342.655 701.139 342.655 696.831 342.655C694.741 335.36 692.65 328.065 690.497 320.549C700.949 313.253 711.402 305.958 722.171 298.442C717.99 296.618 713.809 294.794 709.501 292.915C717.42 284.625 717.42 284.625 728.506 276.335C736.868 276.335 745.23 276.335 753.845 276.335C752.408 272.345 750.97 268.356 749.49 264.245C746.946 244.272 753.977 237.475 766.515 221.068C770.922 208.957 770.922 208.957 772.849 198.961C762.397 198.961 751.944 198.961 741.175 198.961C741.175 197.137 741.175 195.314 741.175 193.435Z" fill="#E3AE48"/>
<path d="M57.0146 420.029C61.7182 424.361 66.4218 428.692 71.2679 433.155C86.7915 447.929 86.7915 447.929 102.942 452.499C106.6 454.55 110.259 456.602 114.028 458.716C118.779 478.75 118.779 478.75 120.363 497.403C89.1812 497.403 78.5925 490.015 54.738 473.828C44.3449 464.243 44.3449 464.243 41.1775 445.59C42.2227 440.803 43.268 436.015 44.3449 431.083C48.5259 431.083 52.7069 431.083 57.0146 431.083C57.0146 427.435 57.0146 423.787 57.0146 420.029Z" fill="#DD9830"/>
<path d="M183.71 447.663C199.152 451.808 199.152 451.808 215.385 458.716C220.532 470.461 220.532 470.461 221.719 480.823C221.719 477.176 221.719 473.528 221.719 469.77C225.9 469.77 230.081 469.77 234.389 469.77C243.861 482.331 252.025 495.016 259.728 508.457C248.246 511.911 248.246 511.911 234.389 513.983C228.118 510.336 221.846 506.688 215.385 502.93C209.113 511.137 209.113 511.137 202.715 519.51C188.081 504.92 173.448 490.329 158.371 475.297C160.462 471.649 162.552 468.001 164.706 464.243C168.887 467.891 173.068 471.538 177.376 475.297C183.647 469.825 189.919 464.354 196.38 458.716C192.199 458.716 188.018 458.716 183.71 458.716C183.71 455.069 183.71 451.421 183.71 447.663Z" fill="#CC7E13"/>
<path d="M253.395 359.234C276.161 366.612 296.186 375.595 316.743 386.868C316.743 383.22 316.743 379.573 316.743 375.814C323.014 373.991 329.286 372.167 335.747 370.288C339.928 366.64 344.109 362.993 348.417 359.234C360.96 364.706 373.503 370.177 386.426 375.814C386.426 383.11 386.426 390.405 386.426 397.921C351.933 403.393 351.933 403.393 316.743 408.975C316.743 405.327 316.743 401.679 316.743 397.921C312.17 396.667 307.597 395.414 302.885 394.122C281.698 385.496 269.13 374.139 253.395 359.234Z" fill="#D0780B"/>
<path d="M772.85 281.861C777.031 281.861 781.212 281.861 785.519 281.861C791.791 296.452 798.062 311.042 804.524 326.075C798.342 327.607 792.161 329.138 785.792 330.716C777.65 332.738 769.509 334.761 761.368 336.783C753.357 338.771 745.346 340.758 737.093 342.806C723.596 346.219 710.163 349.832 696.832 353.708C696.832 350.061 696.832 346.413 696.832 342.655C701.013 342.655 705.194 342.655 709.501 342.655C711.853 337.355 711.853 337.355 714.253 331.947C722.171 320.548 722.171 320.548 735.633 316.403C739.552 315.947 743.472 315.491 747.51 315.022C747.51 309.55 747.51 304.079 747.51 298.441C755.872 296.618 764.234 294.794 772.85 292.915C772.85 289.267 772.85 285.619 772.85 281.861Z" fill="#DA911E"/>
<path d="M171.041 243.174C185.675 244.998 200.308 246.821 215.385 248.701C217.475 255.996 219.566 263.291 221.72 270.807C207.086 267.16 192.453 263.512 177.376 259.754C185.142 271.248 185.142 271.248 196.38 281.861C204.742 281.861 213.104 281.861 221.72 281.861C235.294 322.916 235.294 322.916 240.724 342.654C234.453 342.654 228.181 342.654 221.72 342.654C209.133 328.013 198.61 313.614 189.65 297.059C183.657 285.474 183.657 285.474 164.706 276.334C166.797 265.391 168.887 254.448 171.041 243.174Z" fill="#A95A0C"/>
<path d="M38.0099 436.61C40.1004 436.61 42.1909 436.61 44.3447 436.61C44.3692 440.543 44.3937 444.476 44.419 448.527C54.1364 472.922 75.7739 481.345 100.17 494.641C131.327 511.892 154.915 526.62 177.376 552.671C194.066 557.531 194.066 557.531 209.05 558.198C209.05 561.845 209.05 565.493 209.05 569.251C195.193 570.978 195.193 570.978 177.376 569.251C161.143 556.125 161.143 556.125 145.702 541.618C133.755 533.17 133.755 533.17 120.363 530.564C103.136 534.914 103.136 534.914 88.6885 541.618C90.779 530.675 92.8695 519.732 95.0234 508.457C88.8499 505.54 88.8499 505.54 82.5517 502.564C66.3958 494.233 51.9822 486.251 38.0099 475.297C34.4466 453.881 34.4466 453.881 38.0099 436.61Z" fill="#E5E7E3"/>
<path d="M310.407 414.503C326.086 419.974 326.086 419.974 342.081 425.556C342.081 429.204 342.081 432.852 342.081 436.61C350.443 436.61 358.805 436.61 367.42 436.61C369.511 432.962 371.601 429.314 373.755 425.556C376.891 427.266 380.027 428.976 383.258 430.738C405.302 438.911 425.956 440.059 449.773 442.136C449.773 445.784 449.773 449.432 449.773 453.19C453.954 455.014 458.135 456.837 462.443 458.717C456.108 464.243 456.108 464.243 440.246 464.783C430.655 464.687 430.655 464.687 420.871 464.589C414.46 464.539 408.05 464.489 401.445 464.438C394.01 464.341 394.01 464.341 386.425 464.243C386.425 469.715 386.425 475.186 386.425 480.823C367.61 480.823 348.796 480.823 329.411 480.823C327.321 477.176 325.23 473.528 323.077 469.77C331.439 469.77 339.801 469.77 348.416 469.77C348.416 466.122 348.416 462.475 348.416 458.717C344.235 458.717 340.054 458.717 335.746 458.717C335.746 455.069 335.746 451.421 335.746 447.663C331.565 447.663 327.384 447.663 323.077 447.663C323.077 442.192 323.077 436.72 323.077 431.083C318.896 431.083 314.715 431.083 310.407 431.083C310.407 425.612 310.407 420.14 310.407 414.503Z" fill="#C46F0B"/>
<path d="M95.0239 414.503C109.699 436.269 123.11 457.016 133.033 480.823C137.214 477.176 141.395 473.528 145.703 469.77C156.155 480.713 166.607 491.656 177.377 502.93C173.196 506.578 169.015 510.225 164.707 513.984C172.546 518.771 172.546 518.771 180.544 523.655C188.383 529.811 188.383 529.811 196.381 536.09C196.381 543.386 196.381 550.681 196.381 558.197C175.839 555.107 165.147 550.387 152.037 536.09C152.037 532.443 152.037 528.795 152.037 525.037C146.942 523.555 141.846 522.073 136.596 520.546C131.239 518.381 125.882 516.215 120.363 513.984C114.028 497.403 114.028 497.403 112.049 477.715C109.893 468.311 109.893 468.311 107.694 458.717C95.5518 452.269 95.5518 452.269 82.3542 447.663C74.4357 433.156 74.4357 433.156 69.6846 420.03C76.0194 414.503 76.0194 414.503 95.0239 414.503Z" fill="#C47C1D"/>
<path d="M12.6704 348.181C29.3944 348.181 46.1183 348.181 63.349 348.181C69.4301 368.812 69.2497 382.856 63.349 403.448C62.1731 408.577 60.9972 413.707 59.7857 418.992C58.8711 422.981 57.9565 426.971 57.0142 431.081C52.8332 431.081 48.6522 431.081 44.3446 431.081C33.7865 403.448 23.2285 375.814 12.6704 348.181Z" fill="#D37D13"/>
<path d="M386.425 287.388C401.058 289.212 415.692 291.035 430.769 292.914C430.769 298.386 430.769 303.857 430.769 309.494C435.431 308.298 440.094 307.101 444.898 305.868C451.08 304.329 457.262 302.79 463.631 301.204C469.731 299.666 475.831 298.127 482.115 296.541C499.523 293.098 514.363 292.234 532.126 292.914C536.307 300.21 540.488 307.505 544.796 315.021C537.218 313.881 529.639 312.741 521.832 311.567C496.501 308.771 480.102 312.531 456.108 320.548C441.342 322.48 426.562 324.337 411.764 326.075C405.493 328.81 405.493 328.81 399.094 331.601C394.913 329.777 390.732 327.954 386.425 326.075C391.968 304.659 391.968 304.659 399.094 298.441C394.913 294.793 390.732 291.146 386.425 287.388Z" fill="#B56009"/>
<path d="M95.0239 414.503C109.699 436.269 123.11 457.016 133.033 480.823C137.214 477.176 141.395 473.528 145.703 469.77C155.067 486.11 152.42 501.506 152.037 519.51C133.033 519.51 133.033 519.51 114.028 508.457C111.42 495.619 111.249 483.311 110.886 470.288C109.832 466.469 108.779 462.651 107.694 458.717C95.4395 452.349 95.4395 452.349 82.3542 447.663C74.4357 433.156 74.4357 433.156 69.6846 420.03C76.0194 414.503 76.0194 414.503 95.0239 414.503Z" fill="#CA8320"/>
<path d="M367.419 392.396C375.781 392.396 384.143 392.396 392.758 392.396C394.849 396.043 396.939 399.691 399.093 403.449C411.629 407.466 424.303 411.176 437.102 414.502C435.012 423.621 432.921 432.74 430.767 442.136C396.8 439.856 384.323 435.431 361.084 414.502C341.162 410.064 341.162 410.064 323.075 408.976C323.075 407.152 323.075 405.328 323.075 403.449C337.709 403.449 352.342 403.449 367.419 403.449C367.419 399.801 367.419 396.154 367.419 392.396Z" fill="#BC6706"/>
<path d="M240.724 364.764C242.814 368.411 244.905 372.059 247.059 375.817C257.924 381.49 257.924 381.49 272.398 386.87C279.323 389.72 286.248 392.57 293.382 395.506C316.381 404.263 316.381 404.263 340.893 406.214C350.889 407.582 350.889 407.582 361.086 408.977C367.357 417.184 367.357 417.184 373.755 425.557C371.665 429.205 369.574 432.853 367.421 436.611C342.081 436.611 342.081 436.611 331.787 428.666C328.913 425.816 326.038 422.967 323.077 420.031C318.896 418.207 314.715 416.383 310.407 414.504C310.407 419.975 310.407 425.447 310.407 431.084C304.136 429.26 297.864 427.436 291.403 425.557C289.312 420.086 287.222 414.615 285.068 408.977C278.927 406.356 272.786 403.734 266.459 401.033C246.412 392.109 241.518 388.326 234.389 370.29C236.48 368.467 238.57 366.643 240.724 364.764Z" fill="#D98313"/>
<path d="M734.84 232.12C741.175 248.7 741.175 248.7 737.612 259.408C725.046 275.137 709.089 283.04 690.497 292.914C690.497 289.266 690.497 285.619 690.497 281.86C669.121 280.016 669.121 280.016 646.153 281.86C633.595 292.147 633.595 292.147 627.148 303.967C631.329 303.967 635.51 303.967 639.818 303.967C633.483 320.547 633.483 320.547 618.834 327.456C601.184 331.753 593.356 331.53 576.47 326.074C586.922 320.603 597.375 315.131 608.144 309.494C601.872 307.67 595.601 305.846 589.139 303.967C592.961 301.431 596.783 298.895 600.72 296.282C608.315 291.195 608.315 291.195 616.062 286.005C621.06 282.671 626.058 279.337 631.207 275.902C646.446 265.598 646.446 265.598 659.02 253.018C671.492 243.174 671.492 243.174 685.053 241.015C697.425 241.734 709.798 242.454 722.171 243.174C722.171 246.821 722.171 250.469 722.171 254.227C726.352 246.932 730.533 239.636 734.84 232.12Z" fill="#ECBB4D"/>
<path d="M348.416 226.596C356.256 228.192 364.095 229.787 372.172 231.432C408.352 238.479 444.848 243.624 481.448 248.703C475.113 265.283 475.113 265.283 462.443 270.809C462.443 274.457 462.443 278.105 462.443 281.863C468.715 285.51 474.986 289.158 481.448 292.916C481.448 296.564 481.448 300.211 481.448 303.97C470.995 305.793 460.543 307.617 449.774 309.496C447.683 300.377 445.593 291.258 443.439 281.863C438.939 281.592 434.44 281.321 429.804 281.042C423.982 280.629 418.159 280.216 412.161 279.79C406.355 279.405 400.549 279.021 394.567 278.624C387.401 277.492 387.401 277.492 380.09 276.336C378 272.688 375.91 269.041 373.756 265.283C366.57 262.661 359.384 260.039 351.98 257.338C329.412 248.703 329.412 248.703 316.742 232.122C338.226 234.465 353.919 239.966 372.568 249.048C399.548 261.467 419.616 261.635 449.774 259.756C439.595 257.555 439.595 257.555 429.21 255.309C420.359 253.339 411.508 251.367 402.658 249.393C398.179 248.432 393.7 247.47 389.085 246.479C377.533 243.875 366.126 240.793 354.751 237.649C352.661 234.001 350.57 230.354 348.416 226.596Z" fill="#C7750E"/>
<path d="M646.154 193.435C667.059 195.258 687.964 197.082 709.502 198.961C673.626 238.607 673.626 238.607 633.484 243.175C633.223 246.367 632.961 249.558 632.692 252.847C624.17 271.965 609.302 277.89 589.14 287.388C582.869 285.565 576.597 283.741 570.136 281.862C576.407 278.214 582.679 274.567 589.14 270.808C578.688 272.632 568.235 274.456 557.466 276.335C561.821 265.627 561.821 265.627 570.136 254.228C586.765 250.083 586.765 250.083 601.81 248.702C603.9 243.23 605.991 237.759 608.145 232.121C617.748 226.65 617.748 226.65 627.545 221.068C633.686 217.42 639.827 213.773 646.154 210.015C646.154 204.543 646.154 199.072 646.154 193.435Z" fill="#E3AE37"/>
<path d="M671.492 237.648C637.531 270.706 600.212 301.667 547.567 305.695C539.924 304.84 539.924 304.84 532.126 303.968C534.217 293.025 536.307 282.083 538.461 270.808C528.009 270.808 517.556 270.808 506.787 270.808C516.106 254.547 531.024 252.36 549.794 246.478C569.984 241.716 587.336 242.04 608.144 243.175C598.625 259.784 583.334 259.601 563.8 265.281C561.71 268.929 559.619 272.577 557.466 276.335C563.737 272.687 570.008 269.04 576.47 265.281C582.741 267.105 589.013 268.929 595.474 270.808C593.384 274.456 591.294 278.103 589.14 281.862C593.059 279.126 596.979 276.39 601.017 273.571C614.479 265.281 614.479 265.281 627.149 265.281C627.671 261.862 628.194 258.442 628.732 254.919C633.483 243.175 633.483 243.175 645.757 235.921C658.823 232.121 658.823 232.121 671.492 237.648Z" fill="#ECBD54"/>
<path d="M259.728 243.174C272.002 244.901 272.002 244.901 285.067 248.701C287.158 254.172 289.248 259.643 291.402 265.281C311.153 261.708 311.153 261.708 316.741 248.701C326.13 250.107 335.497 251.625 344.852 253.191C352.679 254.441 352.679 254.441 360.664 255.717C364.984 257.049 369.304 258.381 373.755 259.754C375.845 265.225 377.936 270.697 380.09 276.334C364.411 273.598 364.411 273.598 348.415 270.807C352.596 274.455 356.777 278.103 361.085 281.861C361.085 287.332 361.085 292.804 361.085 298.441C367.357 296.617 373.628 294.793 380.09 292.914C380.09 303.968 380.09 315.021 380.09 326.074C365.456 322.427 350.823 318.779 335.746 315.021C333.655 305.902 331.565 296.783 329.411 287.387C322.355 286.02 315.3 284.652 308.031 283.242C285.067 276.334 285.067 276.334 275.961 264.59C274.785 261.17 273.609 257.751 272.397 254.227C268.216 254.227 264.035 254.227 259.728 254.227C259.728 250.58 259.728 246.932 259.728 243.174Z" fill="#D98D23"/>
<path d="M671.492 292.915C667.312 292.915 663.131 292.915 658.823 292.915C658.823 296.563 658.823 300.21 658.823 303.969C663.004 305.792 667.185 307.616 671.492 309.495C665.221 312.231 665.221 312.231 658.823 315.022C654.692 326.212 654.692 326.212 652.488 337.129C646.217 337.129 639.945 337.129 633.484 337.129C633.484 333.481 633.484 329.834 633.484 326.075C629.303 326.075 625.122 326.075 620.814 326.075C621.075 332.231 621.336 338.386 621.606 344.728C620.814 364.762 620.814 364.762 608.144 375.816C594.683 379.27 594.683 379.27 582.805 381.342C580.714 390.461 578.624 399.581 576.47 408.976C572.289 403.505 568.108 398.033 563.8 392.396C559.619 390.572 555.438 388.748 551.131 386.869C553.221 381.398 555.312 375.926 557.466 370.289C553.285 368.465 549.104 366.641 544.796 364.762C557.466 353.709 557.466 353.709 574.094 353.018C579.059 353.246 584.024 353.474 589.14 353.709C589.14 350.061 589.14 346.414 589.14 342.656C614.479 320.549 614.479 320.549 633.484 315.022C635.574 311.374 637.665 307.727 639.818 303.969C635.637 303.969 631.456 303.969 627.149 303.969C638.135 284.8 649.892 286.634 671.492 292.915Z" fill="#D89121"/>
<path d="M76.0181 348.181C88.2918 351.98 88.2918 351.98 101.357 359.234C106.109 373.742 106.109 373.742 107.692 386.868C111.873 386.868 116.054 386.868 120.362 386.868C122.452 390.515 124.543 394.163 126.697 397.921C132.968 399.745 139.24 401.569 145.701 403.448C141.52 390.681 137.339 377.914 133.032 364.761C137.213 362.937 141.394 361.113 145.701 359.234C170.249 390.322 170.249 390.322 177.375 408.974C169.013 414.446 160.651 419.917 152.036 425.554C147.136 423.161 147.136 423.161 142.138 420.719C122.747 412.91 102.945 408.284 82.3529 403.448C78.3936 390.667 78.3936 390.667 76.0181 375.814C80.1991 370.343 84.38 364.871 88.6877 359.234C84.5067 359.234 80.3258 359.234 76.0181 359.234C76.0181 355.586 76.0181 351.939 76.0181 348.181Z" fill="#CB7F17"/>
<path d="M297.737 315.022C306.99 317.514 316.225 320.057 325.452 322.622C330.596 324.032 335.741 325.443 341.041 326.896C354.75 331.603 354.75 331.603 367.42 342.656C365.329 344.48 363.239 346.304 361.085 348.183C369.447 351.83 377.809 355.478 386.424 359.236C386.424 361.06 386.424 362.884 386.424 364.763C405.239 368.41 424.053 372.058 443.438 375.816C443.438 383.111 443.438 390.407 443.438 397.923C428.804 397.923 414.171 397.923 399.094 397.923C399.094 394.275 399.094 390.628 399.094 386.87C392.345 384.262 392.345 384.262 385.459 381.602C379.637 379.237 373.815 376.871 367.816 374.434C362.01 372.126 356.204 369.818 350.222 367.44C335.746 359.236 335.746 359.236 331.589 347.665C330.87 344.188 330.151 340.711 329.411 337.129C313.635 329.963 313.635 329.963 297.737 326.076C297.737 322.428 297.737 318.781 297.737 315.022Z" fill="#DD9526"/>
<path d="M785.52 248.702C808.022 269.187 807.844 287.84 810.859 315.023C812.95 318.67 815.04 322.318 817.194 326.076C810.923 334.283 810.923 334.283 804.525 342.656C794.269 344.147 783.986 345.556 773.642 346.477C742.897 350.373 712.947 359.98 683.594 368.692C671.889 372.017 671.889 372.017 652.489 375.816C646.217 372.169 639.946 368.521 633.484 364.763C637.123 363.816 640.762 362.87 644.511 361.894C661.162 357.559 677.809 353.217 694.457 348.874C700.181 347.385 705.906 345.896 711.803 344.362C740.758 336.802 769.589 329.088 798.19 320.549C796.099 316.902 794.009 313.254 791.855 309.496C783.703 288.159 784.649 271.132 785.52 248.702Z" fill="#E3DDCA"/>
<path d="M373.754 348.181C408.843 350.82 430.785 356.478 462.442 370.287C479.396 373.165 495.87 374.517 513.121 375.814C506.786 392.394 506.786 392.394 487.781 403.448C473.009 403.885 458.208 403.934 443.438 403.448C443.438 394.329 443.438 385.21 443.438 375.814C439.469 375.543 435.5 375.273 431.411 374.994C426.234 374.581 421.057 374.167 415.723 373.742C408.006 373.165 408.006 373.165 400.133 372.576C386.424 370.287 386.424 370.287 373.754 359.234C373.754 355.586 373.754 351.939 373.754 348.181Z" fill="#D17E0E"/>
<path d="M253.395 359.234C276.161 366.612 296.186 375.595 316.743 386.868C316.743 383.22 316.743 379.573 316.743 375.814C323.014 373.991 329.286 372.167 335.747 370.288C339.928 366.64 344.109 362.993 348.417 359.234C360.96 364.706 373.503 370.177 386.426 375.814C386.426 383.11 386.426 390.405 386.426 397.921C351.933 403.393 351.933 403.393 316.743 408.975C316.743 405.327 316.743 401.679 316.743 397.921C312.17 396.667 307.597 395.414 302.885 394.122C281.698 385.496 269.13 374.139 253.395 359.234Z" fill="#D0780B"/>
<path d="M772.85 281.861C777.031 281.861 781.212 281.861 785.519 281.861C791.791 296.452 798.062 311.042 804.524 326.075C798.342 327.607 792.161 329.138 785.792 330.716C777.65 332.738 769.509 334.761 761.368 336.783C753.357 338.771 745.346 340.758 737.093 342.806C723.596 346.219 710.163 349.832 696.832 353.708C696.832 350.061 696.832 346.413 696.832 342.655C701.013 342.655 705.194 342.655 709.501 342.655C711.853 337.355 711.853 337.355 714.253 331.947C722.171 320.548 722.171 320.548 735.633 316.403C739.552 315.947 743.472 315.491 747.51 315.022C747.51 309.55 747.51 304.079 747.51 298.441C755.872 296.618 764.234 294.794 772.85 292.915C772.85 289.267 772.85 285.619 772.85 281.861Z" fill="#DA911E"/>
<path d="M12.6704 348.181C29.3944 348.181 46.1183 348.181 63.349 348.181C69.4301 368.812 69.2497 382.856 63.349 403.448C62.1731 408.577 60.9972 413.707 59.7857 418.992C58.8711 422.981 57.9565 426.971 57.0142 431.081C52.8332 431.081 48.6522 431.081 44.3446 431.081C33.8921 403.724 23.4396 376.367 12.6704 348.181Z" fill="#D37E15"/>
<path d="M386.425 287.388C401.058 289.212 415.692 291.035 430.769 292.914C430.769 298.386 430.769 303.857 430.769 309.494C435.431 308.298 440.094 307.101 444.898 305.868C451.08 304.329 457.262 302.79 463.631 301.204C469.731 299.666 475.831 298.127 482.115 296.541C499.523 293.098 514.363 292.234 532.126 292.914C536.307 300.21 540.488 307.505 544.796 315.021C537.218 313.881 529.639 312.741 521.832 311.567C496.501 308.771 480.102 312.531 456.108 320.548C441.342 322.48 426.562 324.337 411.764 326.075C405.493 328.81 405.493 328.81 399.094 331.601C394.913 329.777 390.732 327.954 386.425 326.075C391.968 304.659 391.968 304.659 399.094 298.441C394.913 294.793 390.732 291.146 386.425 287.388Z" fill="#B56009"/>
<path d="M367.419 392.396C375.781 392.396 384.143 392.396 392.758 392.396C394.849 396.043 396.939 399.691 399.093 403.449C411.629 407.466 424.303 411.176 437.102 414.502C435.012 423.621 432.921 432.74 430.767 442.136C396.8 439.856 384.323 435.431 361.084 414.502C341.162 410.064 341.162 410.064 323.075 408.976C323.075 407.152 323.075 405.328 323.075 403.449C337.709 403.449 352.342 403.449 367.419 403.449C367.419 399.801 367.419 396.154 367.419 392.396Z" fill="#BC6706"/>
<path d="M240.724 364.764C242.814 368.411 244.905 372.059 247.059 375.817C257.924 381.49 257.924 381.49 272.398 386.87C279.323 389.72 286.248 392.57 293.382 395.506C316.381 404.263 316.381 404.263 340.893 406.214C350.889 407.582 350.889 407.582 361.086 408.977C367.357 417.184 367.357 417.184 373.755 425.557C371.665 429.205 369.574 432.853 367.421 436.611C342.081 436.611 342.081 436.611 331.787 428.666C328.913 425.816 326.038 422.967 323.077 420.031C318.896 418.207 314.715 416.383 310.407 414.504C310.407 419.975 310.407 425.447 310.407 431.084C304.136 429.26 297.864 427.436 291.403 425.557C289.312 420.086 287.222 414.615 285.068 408.977C278.927 406.356 272.786 403.734 266.459 401.033C246.412 392.109 241.518 388.326 234.389 370.29C236.48 368.467 238.57 366.643 240.724 364.764Z" fill="#D98313"/>
<path d="M126.696 315.022C132.967 316.846 139.239 318.67 145.7 320.549C145.7 327.844 145.7 335.14 145.7 342.656C151.972 340.832 158.243 339.008 164.705 337.129C160.524 329.834 156.343 322.539 152.035 315.022C178.879 323.387 188.789 338.179 202.714 359.236C216.717 388.906 216.717 388.906 209.048 408.976C202.777 405.329 196.505 401.681 190.044 397.923C195.401 402.824 200.758 407.726 206.277 412.776C221.883 428.877 221.883 428.877 220.53 446.972C218.832 450.848 217.133 454.724 215.383 458.717C196.557 452.502 181.591 446.431 164.705 436.61C166.795 432.962 168.886 429.315 171.039 425.556C179.401 427.38 187.763 429.204 196.379 431.083C180.793 406.155 160.886 385.847 139.365 364.763C141.456 377.529 143.546 390.296 145.7 403.45C137.338 401.626 128.976 399.802 120.361 397.923C118.532 391.996 116.702 386.068 114.818 379.961C109.413 364.243 104.121 351.305 95.0215 337.129C109.671 325.73 109.671 325.73 126.696 315.022Z" fill="#E8AF48"/>
<path d="M557.464 160.274C576.469 165.801 576.469 165.801 589.138 182.381C570.965 202.64 558.997 215.71 532.125 226.595C530.035 232.066 527.944 237.538 525.79 243.175C532.062 243.175 538.333 243.175 544.795 243.175C544.795 246.823 544.795 250.47 544.795 254.228C521.039 260.446 521.039 260.446 506.786 254.228C485.938 251.802 465.094 249.727 444.18 247.806C417.119 245.107 393.104 240.542 367.419 232.122C371.6 230.298 375.781 228.474 380.089 226.595C381.918 222.947 383.747 219.3 385.632 215.541C392.759 204.488 392.759 204.488 404.241 198.616C426.126 199.161 434.776 213.511 449.772 226.595C470.908 229.709 479.597 227.592 497.952 217.7C503.349 213.796 508.747 209.892 514.308 205.87C519.755 202.023 525.202 198.175 530.814 194.212C543.882 183.154 550.729 174.851 557.464 160.274Z" fill="#DF9825"/>
<path d="M551.13 149.22C591.019 150.112 618.393 170.13 646.152 193.433C646.152 197.081 646.152 200.729 646.152 204.487C650.333 206.311 654.514 208.134 658.822 210.013C622.397 232.12 622.397 232.12 608.143 232.12C608.143 235.768 608.143 239.415 608.143 243.174C587.238 246.821 566.333 250.469 544.795 254.227C544.795 250.579 544.795 246.932 544.795 243.174C538.524 243.174 532.252 243.174 525.791 243.174C526.582 233.502 526.582 233.502 532.125 221.067C544.587 213.433 557.266 206.062 570.134 198.96C574.315 193.489 578.496 188.017 582.804 182.38C572.374 170.675 572.374 170.675 563.8 171.327C557.528 174.062 557.528 174.062 551.13 176.853C551.13 167.734 551.13 158.615 551.13 149.22Z" fill="#D18317"/>
<path d="M310.407 303.969C319.649 306.607 328.887 309.257 338.122 311.913C343.266 313.388 348.411 314.863 353.711 316.382C367.42 320.549 367.42 320.549 380.09 326.076C380.09 331.547 380.09 337.018 380.09 342.656C405.176 342.656 430.262 342.656 456.108 342.656C458.199 349.951 460.289 357.246 462.443 364.762C473.026 363.224 473.026 363.224 483.823 361.654C506.787 359.236 506.787 359.236 519.456 364.762C519.456 368.41 519.456 372.058 519.456 375.816C525.728 377.64 531.999 379.463 538.461 381.343C534.28 386.814 530.099 392.285 525.791 397.923C536.244 397.923 546.696 397.923 557.465 397.923C532.812 419.431 494.811 415.383 461.651 415.539C454.057 415.617 446.462 415.696 438.638 415.776C419.264 414.575 408.568 413.01 392.76 403.449C388.009 391.705 388.009 391.705 386.425 381.343C392.696 383.166 398.968 384.99 405.429 386.869C403.339 390.517 401.248 394.165 399.095 397.923C413.341 398.521 427.597 398.949 441.855 399.304C453.761 399.689 453.761 399.689 465.907 400.082C488.278 399.626 488.278 399.626 503.322 386.783C506.556 383.164 509.79 379.545 513.122 375.816C502.538 376.5 502.538 376.5 491.741 377.198C462.368 377.379 440.439 368.779 413.892 358.588C395.79 352.619 380.258 352.873 361.086 353.709C356.905 350.061 352.724 346.414 348.416 342.656C350.506 340.832 352.597 339.008 354.751 337.129C340.117 331.658 325.484 326.186 310.407 320.549C310.407 315.077 310.407 309.606 310.407 303.969Z" fill="#A45809"/>
<path d="M278.733 315.022C303.612 322.258 319 330.441 335.747 348.183C340.498 360.618 340.498 360.618 342.081 370.289C333.719 372.113 325.357 373.937 316.742 375.816C316.742 379.464 316.742 383.111 316.742 386.87C311.908 385.16 307.074 383.45 302.093 381.688C290.212 377.591 278.183 373.814 266.063 370.289C291.149 383.968 291.149 383.968 316.742 397.923C297.738 403.45 297.738 403.45 285.018 398.722C280.592 396.292 276.167 393.863 271.606 391.36C267.148 389.002 262.689 386.644 258.095 384.214C245.208 374.408 243.079 368.245 240.724 353.709C246.996 353.709 253.267 353.709 259.729 353.709C257.638 346.414 255.548 339.119 253.394 331.603C261.756 329.779 270.118 327.955 278.733 326.076C278.733 322.428 278.733 318.781 278.733 315.022Z" fill="#B96007"/>
<path d="M158.372 259.756C183.775 279.386 198.936 299.404 214.667 325.601C222.128 338.247 222.128 338.247 234.39 353.71C232.299 357.357 230.209 361.005 228.055 364.763C223.874 364.763 219.693 364.763 215.385 364.763C217.476 370.235 219.566 375.706 221.72 381.343C217.539 381.343 213.358 381.343 209.05 381.343C202.361 372.325 196.104 363.061 190.046 353.71C175.006 330.703 175.006 330.703 152.037 315.023C158.308 324.142 164.58 333.261 171.041 342.656C162.679 344.48 154.317 346.304 145.702 348.183C141.521 342.712 137.34 337.24 133.032 331.603C137.213 331.603 141.394 331.603 145.702 331.603C145.702 327.955 145.702 324.308 145.702 320.55C141.521 320.55 137.34 320.55 133.032 320.55C136.056 312.486 139.094 304.427 142.139 296.37C143.829 291.882 145.519 287.394 147.261 282.769C152.037 270.809 152.037 270.809 158.372 259.756Z" fill="#D78314"/>
<path d="M183.71 198.962C185.801 198.962 187.891 198.962 190.045 198.962C192.42 211.052 192.42 211.052 190.045 226.595C180.461 232.957 170.862 239.304 161.142 245.507C148.981 257.155 148.621 266.017 146.493 281.517C142.57 303.535 137.506 314.838 117.986 329.53C85.1408 348.352 50.5168 345.628 12.6697 342.656C15.3032 347.967 15.3032 347.967 17.9899 353.386C35.855 390.604 50.6589 423.778 38.009 464.244C35.9185 464.244 33.828 464.244 31.6741 464.244C30.4493 458.58 29.2244 452.916 27.9623 447.081C26.2978 439.56 24.6315 432.04 22.9638 424.52C22.1635 420.798 21.3632 417.076 20.5387 413.24C15.841 392.236 9.24949 373.462 0 353.71C0 348.238 0 342.767 0 337.129C16.7078 329.841 30.4418 330.788 49.0949 330.221C82.3673 328.006 82.3673 328.006 111.651 315.368C129.566 295.214 131.756 280.61 135.828 255.891C140.989 237.344 153.209 231.181 171.04 221.069C179.35 209.371 179.35 209.371 183.71 198.962Z" fill="#DDE2DD"/>
<path d="M221.718 281.861C225.899 281.861 230.08 281.861 234.388 281.861C234.388 285.509 234.388 289.157 234.388 292.915C240.66 292.915 246.931 292.915 253.393 292.915C255.483 300.21 257.574 307.505 259.727 315.022C263.908 315.022 268.089 315.022 272.397 315.022C272.397 318.669 272.397 322.317 272.397 326.075C266.126 328.811 266.126 328.811 259.727 331.602C259.727 338.897 259.727 346.192 259.727 353.708C253.456 353.708 247.184 353.708 240.723 353.708C238.076 366.824 238.076 366.824 240.723 381.342C254.767 390.542 254.767 390.542 272.397 397.922C283.07 405.164 293.66 412.503 304.071 420.029C301.981 421.853 299.89 423.676 297.736 425.556C306.098 427.379 314.46 429.203 323.076 431.082C323.076 434.73 323.076 438.378 323.076 442.136C300.505 438.76 280.07 434.896 259.727 425.556C249.829 412.43 249.829 412.43 240.723 397.922C236.15 393.932 231.577 389.943 226.865 385.832C215.384 375.815 215.384 375.815 215.384 364.762C219.565 364.762 223.746 364.762 228.053 364.762C233.528 339.924 236.463 325.913 221.718 303.968C221.718 296.673 221.718 289.378 221.718 281.861Z" fill="#E59B2A"/>
<path d="M145.701 320.549C145.701 327.844 145.701 335.14 145.701 342.656C151.972 340.832 158.244 339.008 164.705 337.129C160.525 329.834 156.344 322.539 152.036 315.022C178.88 323.387 188.79 338.179 202.714 359.236C216.718 388.906 216.718 388.906 209.049 408.976C202.778 405.329 196.506 401.681 190.045 397.923C195.402 402.824 200.759 407.726 206.278 412.776C221.884 428.877 221.884 428.877 220.531 446.972C218.833 450.848 217.134 454.724 215.384 458.717C196.557 452.502 181.592 446.431 164.705 436.61C166.796 432.962 168.886 429.315 171.04 425.556C179.402 427.38 187.764 429.204 196.38 431.083C185.927 414.765 175.116 401.142 161.142 386.87C147.139 371.834 140.622 360.485 133.031 342.656C128.85 340.832 124.669 339.008 120.362 337.129C122.452 333.482 124.543 329.834 126.697 326.076C122.516 324.252 118.335 322.428 114.027 320.549C126.697 315.022 126.697 315.022 145.701 320.549Z" fill="#EBB650"/>
<path d="M164.706 237.649C168.887 239.473 173.068 241.297 177.376 243.176C175.286 255.943 173.195 268.709 171.041 281.863C176.896 283.925 176.896 283.925 182.87 286.03C198.855 294.178 202.436 300.1 209.842 314.678C217.235 328.936 224.323 340.536 234.39 353.71C232.299 357.358 230.209 361.005 228.055 364.764C223.874 364.764 219.693 364.764 215.385 364.764C217.476 370.235 219.566 375.706 221.72 381.344C217.539 381.344 213.358 381.344 209.05 381.344C202.361 372.325 196.104 363.062 190.046 353.71C175.006 330.703 175.006 330.703 152.037 315.023C158.308 324.142 164.58 333.261 171.041 342.657C162.679 344.481 154.317 346.304 145.702 348.183C141.521 342.712 137.34 337.241 133.032 331.603C137.213 331.603 141.394 331.603 145.702 331.603C145.702 327.956 145.702 324.308 145.702 320.55C141.521 320.55 137.34 320.55 133.032 320.55C134.651 309.831 136.39 299.125 138.179 288.426C139.135 282.463 140.09 276.5 141.074 270.356C145.804 253.874 149.634 247.917 164.706 237.649Z" fill="#D78619"/>
<path d="M278.733 315.022C303.612 322.258 319 330.441 335.747 348.183C340.498 360.618 340.498 360.618 342.081 370.289C333.719 372.113 325.357 373.937 316.742 375.816C316.742 379.464 316.742 383.111 316.742 386.87C311.908 385.16 307.074 383.45 302.093 381.688C290.212 377.591 278.183 373.814 266.063 370.289C291.149 383.968 291.149 383.968 316.742 397.923C297.738 403.45 297.738 403.45 285.018 398.722C280.592 396.292 276.167 393.863 271.606 391.36C267.148 389.002 262.689 386.644 258.095 384.214C245.208 374.408 243.079 368.245 240.724 353.709C246.996 353.709 253.267 353.709 259.729 353.709C257.638 346.414 255.548 339.119 253.394 331.603C261.756 329.779 270.118 327.955 278.733 326.076C278.733 322.428 278.733 318.781 278.733 315.022Z" fill="#B96007"/>
<path d="M145.702 480.824C157.976 485.315 157.976 485.315 171.042 491.878C173.132 497.349 175.223 502.82 177.376 508.458C171.105 511.193 171.105 511.193 164.707 513.984C173.069 513.984 181.431 513.984 190.046 513.984C190.046 519.456 190.046 524.927 190.046 530.565C193.835 531.362 197.624 532.16 201.528 532.982C212.608 535.468 223.537 538.462 234.39 541.618C238.745 553.017 238.745 553.017 240.725 563.725C187.089 563.543 187.089 563.543 166.117 552.002C148.98 536.011 143.938 521.991 143.723 500.859C144.376 494.247 145.029 487.636 145.702 480.824Z" fill="#C57B19"/>
<path d="M297.737 315.022C306.99 317.514 316.225 320.057 325.452 322.622C330.596 324.032 335.741 325.443 341.041 326.896C354.75 331.603 354.75 331.603 367.42 342.656C365.329 344.48 363.239 346.304 361.085 348.183C369.447 351.83 377.809 355.478 386.424 359.236C386.424 361.06 386.424 362.884 386.424 364.763C405.239 368.41 424.053 372.058 443.438 375.816C443.438 383.111 443.438 390.407 443.438 397.923C428.804 397.923 414.171 397.923 399.094 397.923C399.094 394.275 399.094 390.628 399.094 386.87C392.345 384.262 392.345 384.262 385.459 381.602C379.637 379.237 373.815 376.871 367.816 374.434C362.01 372.126 356.204 369.818 350.222 367.44C335.746 359.236 335.746 359.236 331.589 347.665C330.87 344.188 330.151 340.711 329.411 337.129C313.635 329.963 313.635 329.963 297.737 326.076C297.737 322.428 297.737 318.781 297.737 315.022Z" fill="#DE9526"/>
<path d="M373.754 348.181C408.843 350.82 430.785 356.478 462.442 370.287C479.396 373.165 495.87 374.517 513.121 375.814C506.786 392.394 506.786 392.394 487.781 403.448C473.009 403.885 458.208 403.934 443.438 403.448C443.438 394.329 443.438 385.21 443.438 375.814C439.469 375.543 435.5 375.273 431.411 374.994C426.234 374.581 421.057 374.167 415.723 373.742C408.006 373.165 408.006 373.165 400.133 372.576C386.424 370.287 386.424 370.287 373.754 359.234C373.754 355.586 373.754 351.939 373.754 348.181Z" fill="#D17E0E"/>
<path d="M411.765 182.381C418.036 182.381 424.308 182.381 430.769 182.381C434.95 189.676 439.131 196.971 443.439 204.488C447.62 204.488 451.801 204.488 456.109 204.488C458.199 199.016 460.29 193.545 462.444 187.908C474.987 187.908 487.53 187.908 500.453 187.908C501.64 203.797 501.64 203.797 500.453 221.068C481.448 232.121 481.448 232.121 459.276 231.085C429.883 225.132 429.883 225.132 418.1 210.014C418.1 206.367 418.1 202.719 418.1 198.961C413.919 197.137 409.738 195.313 405.43 193.434C407.521 189.787 409.611 186.139 411.765 182.381Z" fill="#E1A938"/>
<path d="M468.778 160.274C468.778 163.922 468.778 167.57 468.778 171.328C497 168.592 497 168.592 525.791 165.801C524.208 184.454 524.208 184.454 519.457 204.488C506.391 212.433 506.391 212.433 494.117 215.541C496.208 206.422 498.298 197.303 500.452 187.908C487.909 189.732 475.366 191.556 462.443 193.435C462.443 198.906 462.443 204.377 462.443 210.015C454.081 208.191 445.719 206.367 437.104 204.488C432.353 194.816 432.353 194.816 430.769 182.381C451.181 160.274 451.181 160.274 468.778 160.274Z" fill="#F2D170"/>
<path d="M525.791 154.746C534.153 154.746 542.515 154.746 551.13 154.746C553.11 167.182 553.11 167.182 551.13 182.38C535.293 195.16 535.293 195.16 519.456 204.487C521.546 191.72 523.637 178.953 525.791 165.8C521.348 167.624 516.906 169.447 512.329 171.327C492.469 177.353 476.977 177.7 456.108 176.853C460.289 175.029 464.47 173.206 468.777 171.327C468.777 167.679 468.777 164.031 468.777 160.273C463.943 164.035 459.109 167.796 454.128 171.672C448.51 175.206 442.892 178.739 437.103 182.38C430.832 180.556 424.56 178.732 418.099 176.853C447.135 139.76 478.919 149.065 525.791 154.746Z" fill="#EABE4F"/>
<path d="M221.718 281.861C225.899 281.861 230.08 281.861 234.388 281.861C234.388 285.509 234.388 289.157 234.388 292.915C240.66 292.915 246.931 292.915 253.393 292.915C255.483 300.21 257.574 307.505 259.727 315.022C263.908 315.022 268.089 315.022 272.397 315.022C272.397 318.669 272.397 322.317 272.397 326.075C266.126 328.811 266.126 328.811 259.727 331.602C259.727 338.897 259.727 346.192 259.727 353.708C253.456 353.708 247.184 353.708 240.723 353.708C238.076 366.824 238.076 366.824 240.723 381.342C254.767 390.542 254.767 390.542 272.397 397.922C283.07 405.164 293.66 412.503 304.071 420.029C301.981 421.853 299.89 423.676 297.736 425.556C306.098 427.379 314.46 429.203 323.076 431.082C323.076 434.73 323.076 438.378 323.076 442.136C300.505 438.76 280.07 434.896 259.727 425.556C249.829 412.43 249.829 412.43 240.723 397.922C236.15 393.932 231.577 389.943 226.865 385.832C215.384 375.815 215.384 375.815 215.384 364.762C219.565 364.762 223.746 364.762 228.053 364.762C233.528 339.924 236.463 325.913 221.718 303.968C221.718 296.673 221.718 289.378 221.718 281.861Z" fill="#E59B2A"/>
<path d="M215.384 497.402C221.656 501.05 227.927 504.698 234.389 508.456C249.131 510.523 263.917 512.367 278.733 513.982C285.004 515.806 291.276 517.63 297.737 519.509C302.179 520.307 306.622 521.105 311.199 521.927C315.118 522.953 319.038 523.979 323.076 525.036C325.167 528.683 327.257 532.331 329.411 536.089C311.237 544.017 293.083 543.711 272.992 545.049C258.378 546.221 258.378 546.221 247.058 558.196C240.787 556.372 234.515 554.548 228.054 552.669C230.144 549.022 232.235 545.374 234.389 541.616C230.6 540.818 226.811 540.02 222.907 539.198C211.827 536.712 200.898 533.719 190.045 530.563C190.045 526.915 190.045 523.267 190.045 519.509C196.316 519.509 202.588 519.509 209.049 519.509C211.14 512.214 213.23 504.919 215.384 497.402Z" fill="#955413"/>
<path d="M563.801 105.008C567.982 105.008 572.163 105.008 576.471 105.008C576.863 108.997 577.254 112.987 577.658 117.097C586.165 142.788 607.506 155.143 630.292 171.911C660.752 186.28 687.263 186.083 721.38 186.527C730.64 186.772 730.64 186.772 740.087 187.023C755.232 187.412 770.371 187.704 785.52 187.908C785.52 200.675 785.52 213.442 785.52 226.595C783.429 226.595 781.339 226.595 779.185 226.595C779.185 215.652 779.185 204.709 779.185 193.435C773.779 194.283 768.373 195.131 762.804 196.004C705.168 203.886 660.169 206.883 610.124 177.546C598.79 170.079 587.55 162.5 576.471 154.748C570.199 151.1 563.928 147.453 557.466 143.695C557.466 130.276 560.639 118.111 563.801 105.008Z" fill="#D7D2C6"/>
<path d="M215.384 497.402C221.656 501.05 227.927 504.698 234.389 508.456C249.131 510.523 263.917 512.367 278.733 513.982C285.004 515.806 291.276 517.63 297.737 519.509C302.179 520.307 306.622 521.105 311.199 521.927C315.118 522.953 319.038 523.979 323.076 525.036C325.167 528.683 327.257 532.331 329.411 536.089C311.237 544.017 293.083 543.711 272.992 545.049C258.378 546.221 258.378 546.221 247.058 558.196C240.787 556.372 234.515 554.548 228.054 552.669C230.144 549.022 232.235 545.374 234.389 541.616C230.6 540.818 226.811 540.02 222.907 539.198C211.827 536.712 200.898 533.719 190.045 530.563C190.045 526.915 190.045 523.267 190.045 519.509C196.316 519.509 202.588 519.509 209.049 519.509C211.14 512.214 213.23 504.919 215.384 497.402Z" fill="#955413"/>
<path d="M595.473 143.695C637.527 152.868 637.527 152.868 650.408 163.449C673.376 175.721 695.872 172.428 722.17 171.329C774.869 169.125 774.869 169.125 795.416 179.619C798.421 182.355 801.426 185.09 804.523 187.909C808.704 186.085 812.885 184.261 817.192 182.382C812.045 198.617 812.045 198.617 804.523 215.542C798.251 217.366 791.98 219.19 785.518 221.069C785.518 210.126 785.518 199.183 785.518 187.909C781.754 188.083 777.989 188.256 774.11 188.435C756.799 189.131 739.492 189.558 722.17 189.981C713.289 190.398 713.289 190.398 704.229 190.823C664.111 191.558 641.926 185.615 611.063 163.009C601.808 154.749 601.808 154.749 595.473 143.695Z" fill="#A39581"/>
<path d="M601.809 315.023C595.538 318.671 589.266 322.319 582.805 326.077C584.895 329.724 586.986 333.372 589.139 337.13C581.349 338.733 581.349 338.733 573.401 340.368C566.575 341.807 559.748 343.247 552.714 344.729C545.953 346.14 539.191 347.551 532.225 349.004C513.617 352.992 513.617 352.992 499.561 359.798C487.782 364.764 487.782 364.764 462.443 364.764C462.443 355.645 462.443 346.525 462.443 337.13C470.805 337.13 479.167 337.13 487.782 337.13C489.873 331.659 491.963 326.187 494.117 320.55C506.113 318.53 518.127 316.588 530.146 314.678C536.834 313.588 543.522 312.498 550.413 311.375C569.575 309.55 583.31 310.742 601.809 315.023Z" fill="#E6A53A"/>
<path d="M502.035 250.084C510.658 252.136 510.658 252.136 519.456 254.229C517.365 257.876 515.275 261.524 513.121 265.282C523.573 265.282 534.026 265.282 544.795 265.282C542.705 274.401 540.614 283.52 538.46 292.916C515.465 294.74 492.469 296.563 468.777 298.442C464.596 289.323 460.415 280.204 456.107 270.809C476.379 248.362 476.379 248.362 502.035 250.084Z" fill="#CE7510"/>
<path d="M563.799 386.868C574.226 403.243 580.603 417.89 582.804 436.608C576.532 444.816 576.532 444.816 570.134 453.189C567.695 462.338 565.523 471.55 563.799 480.822C539.926 473.88 537.956 466.12 525.79 447.662C521.609 445.838 517.428 444.014 513.121 442.135C513.121 438.488 513.121 434.84 513.121 431.082C506.849 431.082 500.578 431.082 494.116 431.082C492.026 434.729 489.935 438.377 487.781 442.135C487.781 434.84 487.781 427.545 487.781 420.028C506.786 408.975 506.786 408.975 529.354 403.448C551.324 399.526 551.324 399.526 563.799 386.868Z" fill="#C77818"/>
<path d="M601.809 315.023C595.538 318.671 589.266 322.319 582.805 326.077C584.895 329.724 586.986 333.372 589.139 337.13C581.349 338.733 581.349 338.733 573.401 340.368C566.575 341.807 559.748 343.247 552.714 344.729C545.953 346.14 539.191 347.551 532.225 349.004C513.617 352.992 513.617 352.992 499.561 359.798C487.782 364.764 487.782 364.764 462.443 364.764C462.443 355.645 462.443 346.525 462.443 337.13C470.805 337.13 479.167 337.13 487.782 337.13C489.873 331.659 491.963 326.187 494.117 320.55C506.113 318.53 518.127 316.588 530.146 314.678C536.834 313.588 543.522 312.498 550.413 311.375C569.575 309.55 583.31 310.742 601.809 315.023Z" fill="#E6A53A"/>
<path d="M608.144 337.128C601.873 338.952 595.601 340.776 589.14 342.655C589.14 346.303 589.14 349.95 589.14 353.708C576.597 357.356 564.054 361.004 551.131 364.762C557.402 366.586 563.674 368.409 570.135 370.288C563.404 383.76 563.404 383.76 551.131 397.922C527.771 402.412 527.771 402.412 506.787 403.449C515.149 399.801 523.511 396.153 532.126 392.395C532.126 388.748 532.126 385.1 532.126 381.342C527.945 379.518 523.764 377.694 519.457 375.815C519.457 372.167 519.457 368.52 519.457 364.762C515.276 364.762 511.095 364.762 506.787 364.762C508.877 359.29 510.968 353.819 513.122 348.182C529.701 342.741 529.701 342.741 550.339 338.51C557.117 337.057 563.894 335.603 570.878 334.106C589.14 331.602 589.14 331.602 608.144 337.128Z" fill="#BE700D"/>
<path d="M502.035 250.084C510.658 252.136 510.658 252.136 519.456 254.229C517.365 257.876 515.275 261.524 513.121 265.282C523.573 265.282 534.026 265.282 544.795 265.282C542.705 274.401 540.614 283.52 538.46 292.916C515.465 294.74 492.469 296.563 468.777 298.442C464.596 289.323 460.415 280.204 456.107 270.809C476.379 248.362 476.379 248.362 502.035 250.084Z" fill="#CE7510"/>
<path d="M411.765 182.381C418.036 182.381 424.308 182.381 430.769 182.381C434.95 189.676 439.131 196.971 443.439 204.488C447.62 204.488 451.801 204.488 456.109 204.488C458.199 199.016 460.29 193.545 462.444 187.908C474.987 187.908 487.53 187.908 500.453 187.908C501.64 203.797 501.64 203.797 500.453 221.068C481.448 232.121 481.448 232.121 459.276 231.085C429.883 225.132 429.883 225.132 418.1 210.014C418.1 206.367 418.1 202.719 418.1 198.961C413.919 197.137 409.738 195.313 405.43 193.434C407.521 189.787 409.611 186.139 411.765 182.381Z" fill="#E1A938"/>
<path d="M690.496 320.549C692.586 331.492 694.677 342.435 696.83 353.709C631.116 372.744 631.116 372.744 595.473 370.289C603.835 368.465 612.197 366.642 620.812 364.762C620.812 351.996 620.812 339.229 620.812 326.076C624.993 326.076 629.174 326.076 633.482 326.076C633.482 329.723 633.482 333.371 633.482 337.129C639.362 334.393 645.241 331.657 651.299 328.839C671.491 320.549 671.491 320.549 690.496 320.549Z" fill="#B25F0C"/>
<path d="M468.778 160.274C468.778 163.922 468.778 167.57 468.778 171.328C497 168.592 497 168.592 525.791 165.801C524.208 184.454 524.208 184.454 519.457 204.488C506.391 212.433 506.391 212.433 494.117 215.541C496.208 206.422 498.298 197.303 500.452 187.908C487.909 189.732 475.366 191.556 462.443 193.435C462.443 198.906 462.443 204.377 462.443 210.015C454.081 208.191 445.719 206.367 437.104 204.488C432.353 194.816 432.353 194.816 430.769 182.381C451.181 160.274 451.181 160.274 468.778 160.274Z" fill="#F2D16F"/>
<path d="M525.791 154.746C534.153 154.746 542.515 154.746 551.13 154.746C553.11 167.182 553.11 167.182 551.13 182.38C535.293 195.16 535.293 195.16 519.456 204.487C521.546 191.72 523.637 178.953 525.791 165.8C521.348 167.624 516.906 169.447 512.329 171.327C492.469 177.353 476.977 177.7 456.108 176.853C460.289 175.029 464.47 173.206 468.777 171.327C468.777 167.679 468.777 164.031 468.777 160.273C463.943 164.035 459.109 167.796 454.128 171.672C448.51 175.206 442.892 178.739 437.103 182.38C430.832 180.556 424.56 178.732 418.099 176.853C447.135 139.76 478.919 149.065 525.791 154.746Z" fill="#EABE4F"/>
<path d="M437.104 414.503C455.918 414.503 474.733 414.503 494.117 414.503C494.117 419.974 494.117 425.446 494.117 431.083C500.389 432.907 506.66 434.731 513.122 436.61C508.941 436.61 504.76 436.61 500.452 436.61C500.452 445.729 500.452 454.848 500.452 464.243C464.027 459.407 464.027 459.407 449.774 453.19C449.774 449.542 449.774 445.895 449.774 442.136C443.502 442.136 437.231 442.136 430.769 442.136C432.86 433.017 434.95 423.898 437.104 414.503Z" fill="#D48B1F"/>
<path d="M532.127 0C532.127 3.64762 532.127 7.29524 532.127 11.0534C525.855 14.701 519.584 18.3486 513.122 22.1068C521.484 22.1068 529.846 22.1068 538.462 22.1068C540.552 16.6354 542.643 11.1639 544.797 5.5267C551.068 7.35051 557.34 9.17432 563.801 11.0534C570.073 9.22959 576.344 7.40578 582.806 5.5267C582.806 9.17432 582.806 12.8219 582.806 16.5801C578.625 16.5801 574.444 16.5801 570.136 16.5801C570.136 20.2277 570.136 23.8753 570.136 27.6335C576.799 28.3174 583.463 29.0014 590.328 29.706C611.056 32.6706 627.183 36.6907 646.154 44.2136C646.154 51.5089 646.154 58.8041 646.154 66.3204C635.871 70.0281 625.574 73.7072 615.272 77.3738C609.539 79.4256 603.807 81.4774 597.9 83.5913C582.806 88.4272 582.806 88.4272 570.136 88.4272C568.045 104.842 565.955 121.256 563.801 138.168C568.113 138.395 572.424 138.623 576.867 138.858C599.999 144.87 612.478 155.159 629.995 169.255C649.207 184.116 666.243 183.863 691.29 185.49C698.231 185.953 705.172 186.416 712.323 186.893C720.334 187.395 720.334 187.395 728.507 187.908C728.507 189.732 728.507 191.555 728.507 193.435C644.043 200.124 644.043 200.124 607.749 173.746C581.902 155.178 567.444 152.623 534.107 155.438C523.67 156.806 523.67 156.806 513.023 158.202C495.598 160.112 485.705 159.523 469.175 155.438C449.816 152.832 449.816 152.832 438.688 162.973C428.949 172.788 420.135 182.709 411.765 193.435C405.43 176.854 405.43 176.854 412.062 165.175C423.849 151.896 433.723 142.016 449.774 132.641C469.058 132.185 484.181 135.098 502.68 139.722C519.629 143.735 533.667 144.354 551.131 143.694C550.348 136.741 549.564 129.788 548.756 122.624C548.315 118.712 547.874 114.801 547.42 110.771C545.261 97.8233 545.261 97.8233 532.127 82.9005C541.534 80.6777 541.534 80.6777 551.131 78.4101C577.08 71.9751 601.99 63.7388 627.149 55.267C575.911 36.109 536.126 36.2632 481.448 44.2136C483.604 26.6642 487.939 21.981 503.224 9.67173C519.457 0 519.457 0 532.127 0Z" fill="#E6E7E3"/>
<path d="M563.799 386.868C574.226 403.243 580.603 417.89 582.804 436.608C576.532 444.816 576.532 444.816 570.134 453.189C567.695 462.338 565.523 471.55 563.799 480.822C539.926 473.88 537.956 466.12 525.79 447.662C521.609 445.838 517.428 444.014 513.121 442.135C513.121 438.488 513.121 434.84 513.121 431.082C506.849 431.082 500.578 431.082 494.116 431.082C492.026 434.729 489.935 438.377 487.781 442.135C487.781 434.84 487.781 427.545 487.781 420.028C506.786 408.975 506.786 408.975 529.354 403.448C551.324 399.526 551.324 399.526 563.799 386.868Z" fill="#C77818"/>
<path d="M608.144 337.128C601.873 338.952 595.601 340.776 589.14 342.655C589.14 346.303 589.14 349.95 589.14 353.708C576.597 357.356 564.054 361.004 551.131 364.762C557.402 366.586 563.674 368.409 570.135 370.288C563.404 383.76 563.404 383.76 551.131 397.922C527.771 402.412 527.771 402.412 506.787 403.449C515.149 399.801 523.511 396.153 532.126 392.395C532.126 388.748 532.126 385.1 532.126 381.342C527.945 379.518 523.764 377.694 519.457 375.815C519.457 372.167 519.457 368.52 519.457 364.762C515.276 364.762 511.095 364.762 506.787 364.762C508.877 359.29 510.968 353.819 513.122 348.182C529.701 342.741 529.701 342.741 550.339 338.51C557.117 337.057 563.894 335.603 570.878 334.106C589.14 331.602 589.14 331.602 608.144 337.128Z" fill="#BE700D"/>
<path d="M437.104 414.503C455.918 414.503 474.733 414.503 494.117 414.503C494.117 419.974 494.117 425.446 494.117 431.083C500.389 432.907 506.66 434.731 513.122 436.61C508.941 436.61 504.76 436.61 500.452 436.61C500.452 445.729 500.452 454.848 500.452 464.243C464.027 459.407 464.027 459.407 449.774 453.19C449.774 449.542 449.774 445.895 449.774 442.136C443.502 442.136 437.231 442.136 430.769 442.136C432.86 433.017 434.95 423.898 437.104 414.503Z" fill="#D48B1F"/>
<path d="M690.496 320.549C692.586 331.492 694.677 342.435 696.83 353.709C631.116 372.744 631.116 372.744 595.473 370.289C603.835 368.465 612.197 366.642 620.812 364.762C620.812 351.996 620.812 339.229 620.812 326.076C624.993 326.076 629.174 326.076 633.482 326.076C633.482 329.723 633.482 333.371 633.482 337.129C639.362 334.393 645.241 331.657 651.299 328.839C671.491 320.549 671.491 320.549 690.496 320.549Z" fill="#B25F0C"/>
</g>
</svg>
