<svg width="900" height="441" viewBox="0 0 900 441" fill="none" xmlns="http://www.w3.org/2000/svg">
<path d="M335.747 185.143C398.132 180.322 448.337 193.519 500.452 223.83C504.633 222.006 508.814 220.182 513.122 218.303C525.665 225.599 538.208 232.894 551.131 240.41C522.623 254.272 494.883 257.543 462.443 256.99C448.165 253.428 448.165 253.428 435.124 248.7C411.979 240.486 402.988 238.067 380.09 245.937C378 249.584 375.91 253.232 373.756 256.99C361.213 256.99 348.67 256.99 335.747 256.99C337.837 247.871 339.928 238.752 342.082 229.357C333.72 225.709 325.358 222.061 316.742 218.303C325.104 211.008 333.466 203.713 342.082 196.196C339.991 192.549 337.901 188.901 335.747 185.143Z" fill="#265095"/>
<path d="M715.836 268.045C717.926 268.045 720.017 268.045 722.171 268.045C722.865 271.65 723.559 275.255 724.274 278.969C730.219 307.557 737.643 330.772 753.845 356.472C753.845 360.12 753.845 363.767 753.845 367.526C741.302 367.526 728.759 367.526 715.836 367.526C715.836 376.645 715.836 385.764 715.836 395.159C701.202 398.807 686.569 402.454 671.492 406.212C669.401 413.508 667.311 420.803 665.157 428.319C660.976 428.319 656.795 428.319 652.487 428.319C635.607 399.455 631.402 383.653 639.818 350.945C650.27 350.945 660.723 350.945 671.492 350.945C673.582 354.593 675.673 358.241 677.827 361.999C684.098 361.999 690.37 361.999 696.831 361.999C688.469 354.704 680.107 347.408 671.492 339.892C681.944 339.892 692.397 339.892 703.166 339.892C701.076 330.773 698.985 321.654 696.831 312.259C688.469 314.082 680.107 315.906 671.492 317.785C665.22 305.019 658.949 292.252 652.487 279.098C674.438 276.363 674.438 276.363 696.831 273.572C696.831 277.219 696.831 280.867 696.831 284.625C703.103 282.801 709.374 280.977 715.836 279.098C715.836 275.451 715.836 271.803 715.836 268.045Z" fill="#1B3B81"/>
<path d="M665.158 96.7158C675.611 98.5396 686.063 100.363 696.833 102.243C696.833 105.89 696.833 109.538 696.833 113.296C700.883 113.866 704.933 114.436 709.106 115.023C713.418 116.277 717.73 117.531 722.172 118.823C724.262 124.294 726.353 129.765 728.507 135.403C750.457 132.667 750.457 132.667 772.851 129.876C772.851 133.524 772.851 137.171 772.851 140.929C779.122 139.106 785.393 137.282 791.855 135.403C788.292 145.765 788.292 145.765 779.185 157.51C760.181 163.036 760.181 163.036 748.377 165.433C726.878 170.405 706.763 178.22 686.266 185.683C672.826 190.22 660.35 194.048 646.154 196.196C641.973 194.373 637.792 192.549 633.484 190.67C635.575 187.022 637.665 183.374 639.819 179.616C644 181.44 648.181 183.264 652.489 185.143C650.398 177.848 648.308 170.553 646.154 163.036C650.335 163.036 654.516 163.036 658.824 163.036C658.824 159.389 658.824 155.741 658.824 151.983C663.919 150.387 669.015 148.791 674.265 147.147C691.338 142.407 691.338 142.407 696.833 129.876C701.014 131.7 705.195 133.524 709.502 135.403C709.502 131.755 709.502 128.107 709.502 124.349C668.738 127.085 668.738 127.085 627.149 129.876C652.489 107.769 652.489 107.769 665.158 107.769C665.158 104.122 665.158 100.474 665.158 96.7158Z" fill="#2D519E"/>
<path d="M804.524 96.7158C825.869 98.578 838.917 107.151 855.203 118.823C847.907 132.463 842.23 141.194 829.864 151.983C828.404 171.51 829.599 188.536 836.198 207.25C831.103 208.618 826.007 209.986 820.757 211.395C815.4 213.675 810.043 215.954 804.524 218.303C800.119 229.524 800.119 229.524 798.189 240.41C789.08 239.627 779.975 238.816 770.87 237.992C765.799 237.543 760.728 237.094 755.504 236.632C737.171 234.394 720.707 228.931 703.167 223.83C722.171 212.777 722.171 212.777 741.572 210.359C747.713 209.333 753.854 208.307 760.18 207.25C764.361 201.778 768.542 196.307 772.85 190.67C781.212 190.67 789.574 190.67 798.189 190.67C798.189 181.551 798.189 172.432 798.189 163.036C802.37 163.036 806.551 163.036 810.859 163.036C810.859 155.741 810.859 148.446 810.859 140.929C806.678 139.106 802.497 137.282 798.189 135.403C793.438 121.931 793.438 121.931 791.855 107.769C796.036 104.122 800.217 100.474 804.524 96.7158Z" fill="#23438B"/>
<path d="M457.693 248.357C463.343 249.945 468.994 251.534 474.816 253.171C479.095 254.432 483.374 255.693 487.783 256.992C485.693 269.759 483.602 282.526 481.448 295.679C489.81 295.679 498.172 295.679 506.788 295.679C504.697 292.031 502.607 288.384 500.453 284.626C500.453 279.154 500.453 273.683 500.453 268.046C515.086 269.869 529.72 271.693 544.796 273.572C544.796 295.674 533.863 305.638 519.457 323.313C500.643 321.489 481.828 319.665 462.444 317.786C460.353 321.433 458.263 325.081 456.109 328.839C456.109 319.72 456.109 310.601 456.109 301.206C409.073 295.734 409.073 295.734 361.086 290.152C361.086 286.505 361.086 282.857 361.086 279.099C369.448 279.099 377.81 279.099 386.426 279.099C388.516 275.451 390.607 271.804 392.761 268.046C405.304 268.046 417.847 268.046 430.77 268.046C428.679 271.693 426.589 275.341 424.435 279.099C436.978 279.099 449.521 279.099 462.444 279.099C464.534 275.451 466.625 271.804 468.779 268.046C445.783 264.398 422.788 260.75 399.095 256.992C399.095 253.345 399.095 249.697 399.095 245.939C421.563 239.023 435.347 241.944 457.693 248.357Z" fill="#224287"/>
<path d="M354.752 295.677C360.476 296.14 366.201 296.603 372.098 297.08C379.57 297.643 387.042 298.206 394.741 298.786C402.163 299.363 409.586 299.94 417.234 300.534C437.297 302.23 437.297 302.23 456.109 295.677C463.571 315.207 461.328 325.551 456.109 345.417C449.838 353.624 449.838 353.624 443.44 361.997C403.459 355.922 367.02 347.731 329.413 334.364C333.594 332.54 337.775 330.716 342.082 328.837C346.687 317.9 350.939 306.843 354.752 295.677Z" fill="#1B3673"/>
<path d="M272.399 185.145C278.671 186.968 284.942 188.792 291.404 190.671C294.291 201.826 297.17 212.983 299.965 224.155C303.429 236.249 303.429 236.249 318.327 245.593C336.874 251.845 354.035 254.991 373.756 256.992C375.847 251.52 377.937 246.049 380.091 240.412C395.136 236.957 395.136 236.957 411.765 234.885C415.946 238.532 420.127 242.18 424.435 245.938C416.073 245.938 407.711 245.938 399.096 245.938C399.096 249.586 399.096 253.233 399.096 256.992C403.064 257.326 407.033 257.661 411.122 258.006C416.299 258.469 421.476 258.932 426.811 259.41C431.955 259.858 437.1 260.307 442.4 260.77C456.109 262.518 456.109 262.518 468.779 268.045C466.688 273.516 464.598 278.988 462.444 284.625C447.81 284.625 433.177 284.625 418.1 284.625C420.191 280.978 422.281 277.33 424.435 273.572C416.424 272.838 408.413 272.104 400.16 271.348C389.643 270.363 379.126 269.377 368.609 268.39C363.33 267.91 358.051 267.429 352.611 266.933C344.986 266.212 344.986 266.212 337.207 265.476C332.53 265.042 327.852 264.608 323.033 264.16C310.408 262.518 310.408 262.518 291.404 256.992C293.494 266.111 295.584 275.23 297.738 284.625C287.286 286.449 276.833 288.273 266.064 290.152C266.064 295.623 266.064 301.095 266.064 306.732C261.883 306.732 257.702 306.732 253.395 306.732C253.395 297.613 253.395 288.494 253.395 279.098C257.576 277.275 261.757 275.451 266.064 273.572C261.883 269.924 257.702 266.276 253.395 262.518C255.77 250.774 255.77 250.774 259.729 240.412C266.001 240.412 272.272 240.412 278.734 240.412C277.252 235.122 277.252 235.122 275.74 229.725C274.507 225.158 273.274 220.592 272.003 215.887C270.754 211.334 269.504 206.782 268.217 202.092C267.507 198.323 266.796 194.554 266.064 190.671C268.155 188.847 270.245 187.024 272.399 185.145Z" fill="#15275A"/>
<path d="M247.06 157.509C258.407 157.211 269.758 156.996 281.109 156.818C287.43 156.69 293.75 156.562 300.262 156.43C316.743 157.509 316.743 157.509 329.412 168.563C321.05 168.563 312.688 168.563 304.073 168.563C304.073 179.505 304.073 190.448 304.073 201.723C310.344 203.547 316.616 205.37 323.077 207.249C325.168 212.721 327.258 218.192 329.412 223.83C333.593 225.653 337.774 227.477 342.082 229.356C346.041 240.755 346.041 240.755 348.417 251.463C313.918 248.788 313.918 248.788 298.926 236.61C289.944 221.349 287.278 207.636 285.069 190.669C280.888 190.669 276.707 190.669 272.399 190.669C274.489 207.084 276.58 223.498 278.734 240.41C272.462 238.586 266.191 236.762 259.729 234.883C255.548 244.002 251.367 253.121 247.06 262.516C242.879 260.693 238.698 258.869 234.39 256.99C234.39 249.694 234.39 242.399 234.39 234.883C238.571 234.883 242.752 234.883 247.06 234.883C243.924 226.163 243.924 226.163 240.725 217.267C235.406 199.574 233.139 186.573 234.39 168.563C241.641 170.101 241.641 170.101 249.039 171.671C266.632 175.35 266.632 175.35 285.069 168.563C266.254 165.827 266.254 165.827 247.06 163.036C247.06 161.212 247.06 159.388 247.06 157.509Z" fill="#2E5C9D"/>
<path d="M145.702 201.723C147.793 205.371 149.883 209.018 152.037 212.777C158.308 214.6 164.58 216.424 171.041 218.303C168.951 221.951 166.86 225.598 164.707 229.357C175.159 231.18 185.612 233.004 196.381 234.883C190.109 237.619 190.109 237.619 183.711 240.41C196.733 257.452 211.283 270.377 228.055 284.624C205.211 290.021 191.544 293.122 169.482 284.753C156.522 277.86 144.43 271.272 133.032 262.517C133.032 258.869 133.032 255.222 133.032 251.463C127.937 250.096 122.841 248.728 117.591 247.318C112.234 245.039 106.877 242.759 101.358 240.41C99.2678 233.115 97.1773 225.82 95.0234 218.303C111.747 212.832 128.471 207.36 145.702 201.723Z" fill="#416CA1"/>
<path d="M545.193 223.485C554.404 223.656 554.404 223.656 563.801 223.831C561.711 231.126 559.62 238.421 557.467 245.938C562.832 248.267 562.832 248.267 568.305 250.644C582.958 257.057 597.59 263.468 612.105 270.117C617.02 272.325 621.936 274.534 627.001 276.809C639.819 284.624 639.819 284.624 652.489 306.731C629.494 295.788 606.498 284.846 582.806 273.571C582.806 277.219 582.806 280.866 582.806 284.624C589.077 286.448 595.349 288.272 601.81 290.151C583.994 293.951 583.994 293.951 563.801 295.678C557.327 290.275 551.006 284.732 544.797 279.098C521.927 275.061 521.927 275.061 500.453 273.571C506.725 277.219 512.996 280.866 519.458 284.624C515.277 284.624 511.096 284.624 506.788 284.624C506.788 288.272 506.788 291.92 506.788 295.678C498.426 297.502 490.064 299.325 481.449 301.205C475.553 286.803 474.169 281.076 481.053 266.663C484.384 261.875 484.384 261.875 487.783 256.991C491.964 256.991 496.145 256.991 500.453 256.991C502.544 253.343 504.634 249.696 506.788 245.938C526.188 242.483 526.188 242.483 544.797 240.411C536.435 236.763 528.073 233.116 519.458 229.357C525.792 223.831 525.792 223.831 545.193 223.485Z" fill="#173176"/>
<path d="M221.719 129.877C221.719 133.525 221.719 137.172 221.719 140.93C230.081 142.754 238.443 144.578 247.059 146.457C218.837 149.193 218.837 149.193 190.045 151.984C191.809 158.31 191.809 158.31 193.608 164.764C196.38 179.617 196.38 179.617 190.045 196.197C192.136 201.669 194.226 207.14 196.38 212.778C206.832 209.13 217.285 205.482 228.054 201.724C228.054 218.138 228.054 234.553 228.054 251.464C222.211 247.97 222.211 247.97 216.251 244.405C208.57 239.863 208.57 239.863 200.735 235.23C195.664 232.216 190.593 229.203 185.368 226.098C170.877 217.539 170.877 217.539 152.036 212.778C152.931 202.068 153.861 191.36 154.808 180.654C155.322 174.691 155.837 168.728 156.367 162.584C158.371 146.457 158.371 146.457 164.706 129.877C200.339 123.659 200.339 123.659 221.719 129.877Z" fill="#285193"/>
<path d="M335.747 185.143C398.132 180.322 448.337 193.519 500.452 223.83C504.633 222.006 508.814 220.182 513.122 218.303C525.665 225.599 538.208 232.894 551.131 240.41C522.623 254.272 494.883 257.543 462.443 256.99C448.165 253.428 448.165 253.428 435.124 248.7C411.979 240.486 402.988 238.067 380.09 245.937C378 249.584 375.91 253.232 373.756 256.99C361.213 256.99 348.67 256.99 335.747 256.99C337.837 247.871 339.928 238.752 342.082 229.357C333.72 225.709 325.358 222.061 316.742 218.303C325.104 211.008 333.466 203.713 342.082 196.196C339.991 192.549 337.901 188.901 335.747 185.143Z" fill="#265095"/>
<path d="M715.836 268.045C717.926 268.045 720.017 268.045 722.171 268.045C722.865 271.65 723.559 275.255 724.274 278.969C730.219 307.557 737.643 330.772 753.845 356.472C753.845 360.12 753.845 363.767 753.845 367.526C741.302 367.526 728.759 367.526 715.836 367.526C715.836 376.645 715.836 385.764 715.836 395.159C701.202 398.807 686.569 402.454 671.492 406.212C669.401 413.508 667.311 420.803 665.157 428.319C660.976 428.319 656.795 428.319 652.487 428.319C635.607 399.455 631.402 383.653 639.818 350.945C650.27 350.945 660.723 350.945 671.492 350.945C673.582 354.593 675.673 358.241 677.827 361.999C684.098 361.999 690.37 361.999 696.831 361.999C688.469 354.704 680.107 347.408 671.492 339.892C681.944 339.892 692.397 339.892 703.166 339.892C701.076 330.773 698.985 321.654 696.831 312.259C688.469 314.082 680.107 315.906 671.492 317.785C665.22 305.019 658.949 292.252 652.487 279.098C674.438 276.363 674.438 276.363 696.831 273.572C696.831 277.219 696.831 280.867 696.831 284.625C703.103 282.801 709.374 280.977 715.836 279.098C715.836 275.451 715.836 271.803 715.836 268.045Z" fill="#1B3B81"/>
<path d="M684.162 58.0303C695.644 58.3757 695.644 58.3757 709.502 63.557C720.192 82.555 720.192 82.555 728.506 102.244C730.597 105.891 732.687 109.539 734.841 113.297C728.569 113.297 722.298 113.297 715.836 113.297C720.017 120.593 724.198 127.888 728.506 135.404C750.456 132.668 750.456 132.668 772.85 129.877C772.85 133.525 772.85 137.173 772.85 140.931C779.121 139.107 785.393 137.283 791.854 135.404C788.291 145.767 788.291 145.767 779.185 157.511C758.992 163.728 758.992 163.728 734.841 168.564C726.512 170.592 718.197 172.663 709.898 174.782C700.294 177.176 700.294 177.176 690.497 179.618C689.321 174.488 689.321 174.488 688.122 169.255C684.973 156.454 684.973 156.454 671.493 146.457C677.764 144.634 684.036 142.81 690.497 140.931C692.588 137.283 694.678 133.636 696.832 129.877C701.013 131.701 705.194 133.525 709.502 135.404C709.502 131.756 709.502 128.109 709.502 124.351C668.737 127.086 668.737 127.086 627.149 129.877C633.42 122.582 639.692 115.287 646.153 107.771C633.61 113.242 633.61 113.242 620.814 118.824C620.814 113.353 620.814 107.881 620.814 102.244C637.538 94.9486 654.262 87.6534 671.493 80.1371C656.859 81.9609 642.226 83.7847 627.149 85.6638C646.068 74.6602 662.604 69.4084 684.162 63.557C684.162 61.7332 684.162 59.9094 684.162 58.0303Z" fill="#2E519B"/>
<path d="M672.285 34.8869C680.541 34.7693 680.541 34.7693 688.964 34.6494C703.168 35.9231 703.168 35.9231 715.837 46.9765C716.629 61.4841 716.629 61.4841 715.837 74.61C713.51 71.8957 711.183 69.1814 708.785 66.3848C691.712 54.4505 679.177 56.3875 657.636 56.9937C647.31 57.2181 647.31 57.2181 636.776 57.4471C628.875 57.7356 628.875 57.7356 620.815 58.0299C618.377 65.0723 618.377 65.0723 615.89 72.2569C607.664 92.366 597.323 110.122 585.577 128.841C581.649 135.146 577.722 141.451 573.675 147.947C563.801 163.037 563.801 163.037 557.466 168.564C539.254 169.946 539.254 169.946 519.458 168.564C513.123 163.037 506.788 157.511 500.453 151.984C485.562 153.563 485.562 153.563 468.779 157.511C434.62 159.087 406.55 154.668 374.152 146.457C367.654 144.876 367.654 144.876 361.025 143.262C350.473 140.687 339.941 138.052 329.413 135.404C329.413 133.58 329.413 131.756 329.413 129.877C357.903 124.06 375.066 123.623 402.659 132.64C427.539 140.734 442.63 141.487 468.779 135.404C488.971 131.259 488.971 131.259 506.788 129.877C517.082 137.822 517.082 137.822 525.792 146.457C534.154 146.457 542.516 146.457 551.132 146.457C552.601 143.669 554.069 140.881 555.583 138.008C562.253 125.384 568.965 112.777 575.679 100.171C577.99 95.7825 580.301 91.3939 582.682 86.8724C586.051 80.5674 586.051 80.5674 589.487 74.1351C591.544 70.2568 593.601 66.3786 595.72 62.3828C603.462 49.8246 610.229 42.7103 625.912 38.0604C641.57 35.654 656.387 34.9904 672.285 34.8869Z" fill="#C1CEDF"/>
<path d="M680.203 52.1567C685.691 52.2707 691.178 52.3847 696.832 52.5022C692.775 68.4306 688.297 77.7436 672.483 86.8929C637.673 102.242 637.673 102.242 620.814 102.242C614.476 135.42 608.397 169.225 620.814 201.723C601.81 196.196 601.81 196.196 595.475 185.143C595.032 175.709 594.94 166.26 595.079 156.819C595.136 151.789 595.193 146.759 595.252 141.577C595.326 137.716 595.399 133.854 595.475 129.876C591.294 129.876 587.113 129.876 582.805 129.876C586.798 120.587 591.101 111.4 595.475 102.242C597.173 98.4524 598.872 94.6622 600.622 90.7573C606.469 78.9386 612.228 68.5067 620.814 58.0289C641.602 51.7208 658.278 52.511 680.203 52.1567Z" fill="#3F65B2"/>
<path d="M544.797 284.625C551.068 286.449 557.34 288.273 563.801 290.152C566.937 312.037 566.937 312.037 570.136 334.365C604.629 339.837 604.629 339.837 639.819 345.419C637.729 356.362 635.638 367.304 633.484 378.579C631.394 378.579 629.303 378.579 627.15 378.579C627.15 369.46 627.15 360.341 627.15 350.945C623.254 351.138 619.359 351.33 615.346 351.528C607.666 351.753 607.666 351.753 599.831 351.982C592.224 352.27 592.224 352.27 584.464 352.565C570.136 350.945 570.136 350.945 559.05 343.519C548.831 331.706 547.043 321.236 544.797 306.732C542.706 310.265 540.616 313.799 538.462 317.44C523.695 330.726 520.632 330.102 500.453 330.911C487.134 331.372 487.134 331.372 475.114 334.365C460.803 352.121 460.803 352.121 456.109 373.052C441.299 371.329 426.539 369.468 411.765 367.526C402.848 366.414 402.848 366.414 393.751 365.28C387.545 364.425 381.338 363.57 374.944 362.69C369.024 361.906 363.104 361.122 357.004 360.315C342.082 356.472 342.082 356.472 329.413 339.892C369.345 343.118 405.346 351.17 443.44 361.999C450.251 347.34 456.708 332.797 462.444 317.785C466.339 318.106 470.234 318.426 474.248 318.757C489.841 319.516 503.996 319.798 519.458 317.785C532.759 305.061 532.759 305.061 538.462 290.152C540.552 288.328 542.643 286.504 544.797 284.625Z" fill="#E2E8E8"/>
<path d="M722.172 223.831C725.993 224.963 729.815 226.096 733.753 227.263C741.347 229.497 741.347 229.497 749.095 231.775C754.092 233.25 759.09 234.725 764.239 236.244C777.59 239.966 790.889 243.127 804.524 245.937C804.524 249.585 804.524 253.233 804.524 256.991C778.654 252.887 753.723 246.881 728.507 240.411C730.597 244.058 732.687 247.706 734.841 251.464C737.681 270.82 740.121 290.198 742.488 309.602C748.03 330.824 756.829 340.225 772.85 356.471C772.85 361.943 772.85 367.414 772.85 373.051C758.217 374.875 743.583 376.699 728.507 378.578C726.416 387.697 724.326 396.816 722.172 406.212C703.357 411.683 684.543 417.155 665.158 422.792C667.249 415.497 669.339 408.201 671.493 400.685C684.036 398.861 696.579 397.037 709.502 395.158C711.593 386.039 713.683 376.92 715.837 367.525C728.38 367.525 740.923 367.525 753.846 367.525C751.633 364.497 749.42 361.469 747.14 358.35C719.341 316.097 714.84 277.496 715.837 229.357C717.927 227.533 720.018 225.71 722.172 223.831Z" fill="#D4DDE5"/>
<path d="M424.434 179.616C442.916 180.247 461.388 180.947 479.864 181.689C487.703 181.945 487.703 181.945 495.701 182.207C500.764 182.421 505.827 182.634 511.043 182.855C515.687 183.028 520.332 183.202 525.117 183.381C550.89 186.784 570.142 199.476 590.723 212.776C595.198 215.626 599.673 218.476 604.284 221.412C609.33 225.344 609.33 225.344 614.479 229.357C614.479 233.004 614.479 236.652 614.479 240.41C544.953 230.658 486.441 214.781 424.434 185.143C424.434 183.319 424.434 181.495 424.434 179.616Z" fill="#365EA2"/>
<path d="M582.804 129.877C586.985 129.877 591.166 129.877 595.474 129.877C595.474 153.586 595.474 177.296 595.474 201.724C575.932 198.308 556.402 194.848 536.877 191.361C531.348 190.4 525.82 189.438 520.124 188.447C514.775 187.485 509.427 186.523 503.916 185.533C499.006 184.664 494.096 183.796 489.038 182.901C474.722 179.525 462.771 174.731 449.773 168.564C460.463 157.165 460.463 157.165 475.112 146.457C496.597 147.35 504.144 149.679 519.456 163.037C537.918 166.725 537.918 166.725 557.465 163.037C571.923 146.881 571.923 146.881 582.804 129.877Z" fill="#365CAA"/>
<path d="M696.832 107.77C728.189 107.77 759.547 107.77 791.854 107.77C793.945 116.889 796.035 126.008 798.189 135.403C804.461 137.227 810.732 139.051 817.194 140.93C815.103 148.225 813.013 155.52 810.859 163.037C806.678 163.037 802.497 163.037 798.189 163.037C798.189 172.156 798.189 181.275 798.189 190.67C781.164 194.815 781.164 194.815 760.18 196.197C741.968 185.489 741.968 185.489 728.506 174.09C750.456 171.354 750.456 171.354 772.85 168.563C777.031 159.444 781.212 150.325 785.52 140.93C781.339 140.93 777.158 140.93 772.85 140.93C772.85 137.282 772.85 133.634 772.85 129.876C758.217 131.7 743.583 133.524 728.506 135.403C724.325 129.932 720.144 124.46 715.837 118.823C709.565 115.175 703.294 111.528 696.832 107.77Z" fill="#3B65A9"/>
<path d="M525 269.08C531.533 270.562 538.065 272.044 544.796 273.57C544.796 290.151 544.796 290.151 535.69 305.004C517.282 319.497 513.083 319.576 489.366 319.511C480.382 319.069 471.401 318.535 462.443 317.784C461.659 320.976 460.875 324.167 460.068 327.456C456.067 340.02 450.479 350.532 443.439 361.998C433.4 360.427 423.372 358.805 413.348 357.162C407.763 356.264 402.177 355.367 396.423 354.442C380.917 351.121 368.65 346.634 354.751 339.891C362.199 337.668 362.199 337.668 369.796 335.4C388.206 329.677 388.206 329.677 399.095 312.257C397.005 308.61 394.914 304.962 392.76 301.204C399.554 301.318 406.348 301.432 413.348 301.549C450.973 301.039 450.973 301.039 480.26 281.17C500.452 268.044 500.452 268.044 525 269.08Z" fill="#1D397A"/>
<path d="M804.524 96.7158C828.562 98.8852 839.43 109.114 855.203 124.349C850.107 125.831 845.012 127.313 839.762 128.84C834.405 131.006 829.048 133.171 823.529 135.403C821.438 140.874 819.348 146.346 817.194 151.983C815.103 155.63 813.013 159.278 810.859 163.036C806.678 163.036 802.497 163.036 798.189 163.036C798.189 172.155 798.189 181.274 798.189 190.67C781.164 194.815 781.164 194.815 760.18 196.196C741.968 185.488 741.968 185.488 728.506 174.09C750.456 171.354 750.456 171.354 772.85 168.563C777.031 159.444 781.212 150.325 785.52 140.929C781.339 140.929 777.158 140.929 772.85 140.929C772.85 137.282 772.85 133.634 772.85 129.876C758.217 131.7 743.583 133.524 728.506 135.403C724.325 129.931 720.144 124.46 715.837 118.823C709.565 115.175 703.294 111.527 696.832 107.769C704.075 107.434 711.319 107.1 718.781 106.755C728.226 106.288 737.67 105.82 747.115 105.351C751.896 105.134 756.677 104.917 761.603 104.693C785.009 105.335 785.009 105.335 804.524 96.7158Z" fill="#3A62A6"/>
<path d="M620.813 218.306C625.909 220.129 631.004 221.953 636.254 223.832C663.498 230.504 687.77 230.338 715.836 229.359C722.962 266.664 722.962 266.664 715.836 279.099C711.655 279.099 707.474 279.099 703.166 279.099C701.076 284.571 698.985 290.042 696.831 295.679C688.469 293.856 680.107 292.032 671.492 290.153C679.854 288.329 688.216 286.505 696.831 284.626C696.831 280.978 696.831 277.331 696.831 273.573C680.107 275.396 663.383 277.22 646.153 279.099C643.213 274.141 643.213 274.141 640.214 269.082C623.051 253.201 606.288 250.037 582.557 244.342C570.135 240.412 570.135 240.412 563.8 229.359C580.524 233.007 597.248 236.654 614.478 240.412C616.569 236.765 618.659 233.117 620.813 229.359C631.266 240.302 641.718 251.245 652.487 262.519C658.759 260.695 665.03 258.872 671.492 256.993C667.834 254.663 664.175 252.333 660.406 249.933C655.702 246.905 650.999 243.877 646.153 240.758C641.449 237.744 636.745 234.731 631.899 231.626C628.241 229.054 624.583 226.482 620.813 223.832C620.813 222.009 620.813 220.185 620.813 218.306Z" fill="#2B4F93"/>
<path d="M183.71 240.413C195.983 242.14 195.983 242.14 209.049 245.939C211.139 251.411 213.23 256.882 215.384 262.519C219.565 262.519 223.746 262.519 228.053 262.519C228.053 266.167 228.053 269.815 228.053 273.573C234.325 275.397 240.596 277.22 247.058 279.1C247.058 286.395 247.058 293.69 247.058 301.206C240.786 301.206 234.515 301.206 228.053 301.206C230.144 306.678 232.234 312.149 234.388 317.786C206.448 323.455 190.511 323.517 164.705 312.26C164.705 308.612 164.705 304.964 164.705 301.206C160.524 301.206 156.343 301.206 152.035 301.206C147.854 288.44 143.673 275.673 139.366 262.519C145.899 266.281 152.431 270.043 159.162 273.918C177.843 283.378 182.843 284.681 205.486 283.245C213.521 281.193 213.521 281.193 221.719 279.1C209.278 270.779 197.756 263.12 183.71 256.993C183.71 251.521 183.71 246.05 183.71 240.413Z" fill="#265793"/>
<path d="M713.064 49.7397C716.069 52.4754 719.074 55.2111 722.17 58.0298C720.08 65.325 717.989 72.6202 715.836 80.1366C713.508 76.5174 711.181 72.8983 708.783 69.1695C697.596 56.3874 697.596 56.3874 678.346 55.8709C668.094 56.2556 668.094 56.2556 657.634 56.6481C650.75 56.8476 643.867 57.047 636.774 57.2526C631.507 57.509 626.24 57.7655 620.813 58.0298C619.262 62.6605 617.71 67.2913 616.112 72.0624C607.121 93.6453 595.356 112.245 582.012 131.949C579.652 135.49 577.292 139.031 574.861 142.679C569.093 151.323 563.284 159.946 557.465 168.564C521.732 170.291 521.732 170.291 501.243 154.747C496.801 150.187 492.359 145.628 487.782 140.93C492.355 141.728 496.928 142.526 501.639 143.348C507.519 144.374 513.398 145.4 519.456 146.457C525.05 147.433 530.643 148.409 536.407 149.415C541.265 150.262 546.124 151.11 551.13 151.984C559.46 137.598 567.772 123.205 576.073 108.806C578.437 104.728 580.802 100.649 583.237 96.4468C585.503 92.5106 587.769 88.5745 590.104 84.5191C592.194 80.9013 594.284 77.2835 596.437 73.5561C602.558 62.665 602.558 62.665 608.144 46.9764C642.201 39.3086 681.868 33.8082 713.064 49.7397Z" fill="#E7E9E4"/>
<path d="M272.399 185.145C278.671 186.968 284.942 188.792 291.404 190.671C294.291 201.826 297.17 212.983 299.965 224.155C303.429 236.249 303.429 236.249 318.327 245.593C336.874 251.845 354.035 254.991 373.756 256.992C375.847 251.52 377.937 246.049 380.091 240.412C395.136 236.957 395.136 236.957 411.765 234.885C415.946 238.532 420.127 242.18 424.435 245.938C416.073 245.938 407.711 245.938 399.096 245.938C399.096 249.586 399.096 253.233 399.096 256.992C403.064 257.326 407.033 257.661 411.122 258.006C416.299 258.469 421.476 258.932 426.811 259.41C431.955 259.858 437.1 260.307 442.4 260.77C456.109 262.518 456.109 262.518 468.779 268.045C466.688 273.516 464.598 278.988 462.444 284.625C447.81 284.625 433.177 284.625 418.1 284.625C420.191 280.978 422.281 277.33 424.435 273.572C416.424 272.838 408.413 272.104 400.16 271.348C389.643 270.363 379.126 269.377 368.609 268.39C363.33 267.91 358.051 267.429 352.611 266.933C344.986 266.212 344.986 266.212 337.207 265.476C332.53 265.042 327.852 264.608 323.033 264.16C310.408 262.518 310.408 262.518 291.404 256.992C293.494 266.111 295.584 275.23 297.738 284.625C287.286 286.449 276.833 288.273 266.064 290.152C266.064 295.623 266.064 301.095 266.064 306.732C261.883 306.732 257.702 306.732 253.395 306.732C253.395 297.613 253.395 288.494 253.395 279.098C257.576 277.275 261.757 275.451 266.064 273.572C261.883 269.924 257.702 266.276 253.395 262.518C255.77 250.774 255.77 250.774 259.729 240.412C266.001 240.412 272.272 240.412 278.734 240.412C277.252 235.122 277.252 235.122 275.74 229.725C274.507 225.158 273.274 220.592 272.003 215.887C270.754 211.334 269.504 206.782 268.217 202.092C267.507 198.323 266.796 194.554 266.064 190.671C268.155 188.847 270.245 187.024 272.399 185.145Z" fill="#15275A"/>
<path d="M715.837 52.5034C728.507 63.5568 728.507 63.5568 731.674 74.9556C732.72 78.4893 733.765 82.0229 734.842 85.6636C752.193 93.2326 766.331 91.8879 785.52 91.1903C789.701 89.3665 793.882 87.5427 798.19 85.6636C839.18 83.713 839.18 83.713 861.538 96.717C861.538 100.365 861.538 104.012 861.538 107.77C871.991 107.77 882.443 107.77 893.212 107.77C895.303 113.242 897.393 118.713 899.547 124.351C894.582 124.92 889.617 125.49 884.502 126.078C865.78 128.639 865.78 128.639 855.203 146.457C851.022 146.457 846.841 146.457 842.534 146.457C845.67 184.757 845.67 184.757 848.869 223.831C838.416 225.655 827.964 227.479 817.194 229.358C813.013 233.005 808.833 236.653 804.525 240.411C804.525 231.292 804.525 222.173 804.525 212.778C814.977 210.954 825.43 209.13 836.199 207.251C834.108 204.287 832.018 201.324 829.864 198.27C821.561 181.066 820.551 170.546 823.529 151.984C832.911 139.436 843.267 129.758 855.203 118.824C838.566 111.048 823.205 105.054 804.525 102.244C802.434 104.068 800.344 105.891 798.19 107.77C782.996 109.087 782.996 109.087 764.14 109.498C754.856 109.807 754.856 109.807 745.383 110.124C728.507 107.77 728.507 107.77 716.654 97.7317C706.776 81.063 710.742 70.284 715.837 52.5034Z" fill="#BDCCDC"/>
<path d="M247.06 157.509C258.407 157.211 269.758 156.996 281.109 156.818C287.43 156.69 293.75 156.562 300.262 156.43C316.743 157.509 316.743 157.509 329.412 168.563C321.05 168.563 312.688 168.563 304.073 168.563C304.073 179.505 304.073 190.448 304.073 201.723C310.344 203.547 316.616 205.37 323.077 207.249C325.168 212.721 327.258 218.192 329.412 223.83C333.593 225.653 337.774 227.477 342.082 229.356C346.041 240.755 346.041 240.755 348.417 251.463C313.918 248.788 313.918 248.788 298.926 236.61C289.944 221.349 287.278 207.636 285.069 190.669C280.888 190.669 276.707 190.669 272.399 190.669C274.489 207.084 276.58 223.498 278.734 240.41C272.462 238.586 266.191 236.762 259.729 234.883C255.548 244.002 251.367 253.121 247.06 262.516C242.879 260.693 238.698 258.869 234.39 256.99C234.39 249.694 234.39 242.399 234.39 234.883C238.571 234.883 242.752 234.883 247.06 234.883C243.924 226.163 243.924 226.163 240.725 217.267C235.406 199.574 233.139 186.573 234.39 168.563C241.641 170.101 241.641 170.101 249.039 171.671C266.632 175.35 266.632 175.35 285.069 168.563C266.254 165.827 266.254 165.827 247.06 163.036C247.06 161.212 247.06 159.388 247.06 157.509Z" fill="#2E5C9D"/>
<path d="M722.171 223.831C725.993 224.963 729.814 226.096 733.752 227.263C738.815 228.752 743.878 230.241 749.094 231.775C754.092 233.25 759.089 234.725 764.238 236.244C777.59 239.966 790.888 243.127 804.524 245.937C804.524 249.585 804.524 253.233 804.524 256.991C778.654 252.887 753.722 246.881 728.506 240.411C730.596 244.058 732.687 247.706 734.841 251.464C737.681 270.82 740.12 290.198 742.487 309.602C748.029 330.824 756.828 340.225 772.85 356.471C772.85 361.943 772.85 367.414 772.85 373.051C758.216 374.875 743.583 376.699 728.506 378.578C726.415 387.697 724.325 396.816 722.171 406.212C714.985 407.694 707.799 409.175 700.395 410.702C689.224 413.951 689.224 413.951 677.827 417.265C675.737 422.737 673.646 428.208 671.492 433.845C679.854 435.669 688.216 437.493 696.832 439.372C686.675 439.821 676.511 440.142 666.345 440.408C657.857 440.697 657.857 440.697 649.197 440.991C630.845 439.1 625.72 435.205 614.479 422.792C650.904 422.101 650.904 422.101 665.158 428.318C667.248 419.199 669.339 410.08 671.492 400.685C684.035 398.861 696.578 397.037 709.501 395.158C711.592 386.039 713.682 376.92 715.836 367.525C728.379 367.525 740.922 367.525 753.845 367.525C751.632 364.497 749.419 361.469 747.139 358.35C719.341 316.097 714.84 277.496 715.836 229.357C717.927 227.533 720.017 225.71 722.171 223.831Z" fill="#D8E0E6"/>
<path d="M145.702 201.723C147.793 205.371 149.883 209.018 152.037 212.777C158.308 214.6 164.58 216.424 171.041 218.303C168.951 221.951 166.86 225.598 164.707 229.357C175.159 231.18 185.612 233.004 196.381 234.883C190.109 237.619 190.109 237.619 183.711 240.41C196.733 257.452 211.283 270.377 228.055 284.624C205.211 290.021 191.544 293.122 169.482 284.753C156.522 277.86 144.43 271.272 133.032 262.517C133.032 258.869 133.032 255.222 133.032 251.463C127.937 250.096 122.841 248.728 117.591 247.318C112.234 245.039 106.877 242.759 101.358 240.41C99.2678 233.115 97.1773 225.82 95.0234 218.303C111.747 212.832 128.471 207.36 145.702 201.723Z" fill="#416CA1"/>
<path d="M772.85 163.039C760.181 174.092 760.181 174.092 741.176 179.619C749.538 185.09 757.9 190.562 766.515 196.199C764.425 201.67 762.334 207.142 760.181 212.779C727.467 222.128 699.389 225.077 665.158 223.833C665.158 216.537 665.158 209.242 665.158 201.726C675.611 198.078 686.063 194.43 696.832 190.672C686.38 190.672 675.927 190.672 665.158 190.672C692.506 166.813 735.316 160.52 772.85 163.039Z" fill="#6485BA"/>
<path d="M253.394 229.359C257.575 233.007 261.756 236.654 266.063 240.412C265.018 243.946 263.973 247.48 262.896 251.12C261.851 254.882 260.805 258.643 259.728 262.519C266 270.726 266 270.726 272.398 279.099C266.127 279.099 259.855 279.099 253.394 279.099C253.394 288.218 253.394 297.337 253.394 306.733C257.575 306.733 261.756 306.733 266.063 306.733C266.063 301.261 266.063 295.79 266.063 290.153C272.335 291.976 278.606 293.8 285.068 295.679C280.887 295.679 276.706 295.679 272.398 295.679C272.398 301.151 272.398 306.622 272.398 312.259C287.031 308.612 301.665 304.964 316.742 301.206C314.651 308.501 312.561 315.796 310.407 323.313C305.434 323.648 300.461 323.982 295.337 324.327C288.682 324.791 282.026 325.254 275.17 325.731C268.228 326.208 261.287 326.685 254.136 327.177C238.851 328.464 224.449 330.337 209.446 332.985C186.101 334.647 176.75 329.933 158.371 317.786C160.462 312.315 162.552 306.843 164.706 301.206C166.796 304.854 168.887 308.501 171.041 312.259C185.966 314.843 185.966 314.843 203.111 315.714C211.844 316.333 211.844 316.333 220.754 316.966C225.254 317.236 229.753 317.507 234.389 317.786C228.118 308.667 221.846 299.548 215.385 290.153C223.747 291.976 232.109 293.8 240.724 295.679C241.638 289.866 242.553 284.052 243.495 278.063C246.269 261.665 249.454 245.563 253.394 229.359Z" fill="#193569"/>
<path d="M342.081 157.512C347.814 159.403 347.814 159.403 353.662 161.333C358.725 162.922 363.788 164.51 369.004 166.147C374.002 167.75 378.999 169.353 384.148 171.005C400.727 174.429 408.643 173.774 424.434 168.565C430.705 164.918 436.977 161.27 443.438 157.512C460.463 156.821 460.463 156.821 475.112 157.512C470.931 161.159 466.751 164.807 462.443 168.565C483.348 174.037 504.253 179.508 525.791 185.145C525.791 186.969 525.791 188.793 525.791 190.672C481.891 187.936 481.891 187.936 437.104 185.145C458.008 194.264 478.913 203.383 500.452 212.779C500.452 218.25 500.452 223.722 500.452 229.359C496.777 227.492 493.102 225.626 489.316 223.703C439.907 199.091 398.673 188.853 342.081 185.145C346.262 183.321 350.443 181.498 354.751 179.619C354.751 175.971 354.751 172.323 354.751 168.565C350.57 168.565 346.389 168.565 342.081 168.565C342.081 164.918 342.081 161.27 342.081 157.512Z" fill="#173373"/>
<path d="M278.733 245.938C284.809 248.502 284.809 248.502 291.007 251.119C316.238 258.756 340.919 260.603 367.421 262.518C367.421 266.165 367.421 269.813 367.421 273.571C348.606 273.571 329.792 273.571 310.407 273.571C314.502 290.802 314.502 290.802 329.412 295.678C331.502 297.502 333.593 299.325 335.746 301.205C337.837 297.557 339.927 293.909 342.081 290.151C354.751 301.205 354.751 301.205 354.751 317.785C350.57 317.785 346.389 317.785 342.081 317.785C342.081 321.432 342.081 325.08 342.081 328.838C323.616 333.313 313.821 335.572 295.758 329.183C292.23 327.246 288.702 325.308 285.068 323.311C291.339 319.664 297.611 316.016 304.072 312.258C299.891 312.258 295.71 312.258 291.403 312.258C285.131 312.258 278.86 312.258 272.398 312.258C272.398 306.786 272.398 301.315 272.398 295.678C276.579 295.678 280.76 295.678 285.068 295.678C285.068 292.03 285.068 288.383 285.068 284.624C289.249 284.624 293.43 284.624 297.738 284.624C291.466 271.858 285.195 259.091 278.733 245.938Z" fill="#1E4483"/>
<path d="M589.14 174.091C599.593 183.21 610.045 192.329 620.815 201.725C622.905 198.077 624.996 194.43 627.149 190.671C631.461 195.117 635.773 199.562 640.215 204.143C661.895 220.642 674.932 222.383 703.167 223.832C701.077 227.479 698.986 231.127 696.833 234.885C675.658 235.296 660.068 235.247 639.819 229.358C652.362 238.477 664.905 247.596 677.828 256.992C665.285 262.463 665.285 262.463 652.489 268.045C646.609 260.864 646.609 260.864 640.611 253.538C618.172 229.706 588.079 216.349 557.466 201.725C581.222 195.507 581.222 195.507 595.475 201.725C593.385 192.606 591.294 183.487 589.14 174.091Z" fill="#1A3373"/>
<path d="M27.319 0C51.5613 3.93483 60.0719 14.3448 76.018 30.3969C80.5909 34.3864 85.1639 38.376 89.8754 42.4865C106.617 65.151 109.158 86.7507 114.027 113.297C149.565 113.297 185.104 113.297 221.719 113.297C224.855 121.505 224.855 121.505 228.054 129.877C265.683 135.349 265.683 135.349 304.072 140.931C304.072 142.755 304.072 144.578 304.072 146.458C295.098 146.608 286.124 146.715 277.149 146.803C269.652 146.899 269.652 146.899 262.005 146.997C247.443 146.471 235.462 145.149 221.719 140.931C218.583 135.459 218.583 135.459 215.384 129.877C179.846 128.054 144.307 126.23 107.692 124.351C83.4916 77.9016 83.4916 77.9016 76.018 56.3033C68.4451 38.5476 62.1583 30.2648 44.3438 19.3435C21.1107 17.4965 21.1107 17.4965 0 19.3435C12.6697 2.76335 12.6697 2.76335 27.319 0Z" fill="#DFE8E9"/>
<path d="M557.466 234.884C595.412 240.539 625.963 245.494 650.113 273.225C661.269 287.824 667.525 300.589 671.493 317.784C679.855 315.96 688.217 314.137 696.833 312.258C696.833 315.905 696.833 319.553 696.833 323.311C684.29 326.959 671.747 330.606 658.824 334.364C658.824 328.893 658.824 323.422 658.824 317.784C655.459 316.317 652.095 314.849 648.628 313.337C626.688 303.766 604.747 294.195 582.806 284.624C582.806 280.976 582.806 277.329 582.806 273.571C605.572 280.948 625.597 289.931 646.154 301.204C623.595 279.96 599.19 267.488 570.433 253.493C566.154 251 561.875 248.506 557.466 245.937C557.466 242.29 557.466 238.642 557.466 234.884Z" fill="#325AA7"/>
<path d="M221.719 129.877C221.719 133.525 221.719 137.172 221.719 140.93C230.081 142.754 238.443 144.578 247.059 146.457C218.837 149.193 218.837 149.193 190.045 151.984C191.809 158.31 191.809 158.31 193.608 164.764C196.38 179.617 196.38 179.617 190.045 196.197C192.136 201.669 194.226 207.14 196.38 212.778C206.832 209.13 217.285 205.482 228.054 201.724C228.054 218.138 228.054 234.553 228.054 251.464C222.211 247.97 222.211 247.97 216.251 244.405C208.57 239.863 208.57 239.863 200.735 235.23C195.664 232.216 190.593 229.203 185.368 226.098C170.877 217.539 170.877 217.539 152.036 212.778C152.931 202.068 153.861 191.36 154.808 180.654C155.322 174.691 155.837 168.728 156.367 162.584C158.371 146.457 158.371 146.457 164.706 129.877C200.339 123.659 200.339 123.659 221.719 129.877Z" fill="#285193"/>
<path d="M842.533 124.352C846.714 126.175 850.895 127.999 855.203 129.878C851.022 132.842 846.841 135.806 842.533 138.859C828.152 151.266 828.152 151.266 827.884 168.565C829.5 182.103 831.622 194.277 836.198 207.252C831.103 208.62 826.007 209.988 820.757 211.397C815.4 213.677 810.043 215.957 804.524 218.305C800.119 229.526 800.119 229.526 798.189 240.412C789.08 239.629 779.975 238.818 770.87 237.994C765.799 237.546 760.728 237.097 755.504 236.634C737.171 234.397 720.707 228.933 703.167 223.832C722.171 212.779 722.171 212.779 741.572 210.361C750.783 208.822 750.783 208.822 760.18 207.252C764.361 201.781 768.542 196.309 772.85 190.672C781.212 190.672 789.574 190.672 798.189 190.672C798.189 181.553 798.189 172.434 798.189 163.038C802.37 163.038 806.551 163.038 810.859 163.038C810.859 153.919 810.859 144.8 810.859 135.405C825.904 129.533 825.904 129.533 842.533 124.352Z" fill="#203E87"/>
<path d="M646.154 102.245C652.425 104.068 658.697 105.892 665.158 107.771C656.796 113.243 648.434 118.714 639.819 124.351C643.714 123.76 647.609 123.169 651.622 122.56C659.303 121.566 659.303 121.566 667.138 120.552C672.209 119.847 677.28 119.141 682.505 118.415C696.832 118.825 696.832 118.825 708.19 127.007C710.714 129.778 713.237 132.55 715.837 135.405C712.44 135.975 709.043 136.545 705.543 137.132C686.538 141.931 669.986 149.532 652.489 157.512C650.398 155.688 648.308 153.864 646.154 151.985C644.063 157.456 641.973 162.928 639.819 168.565C635.638 168.565 631.457 168.565 627.149 168.565C625.059 172.213 622.968 175.86 620.814 179.618C616.593 162.882 613.558 147.044 614.48 129.878C629.921 112.953 629.921 112.953 646.154 102.245Z" fill="#6D86BB"/>
<path d="M587.555 291.188C607.428 297.448 622.975 306.765 639.818 317.785C639.818 321.433 639.818 325.08 639.818 328.839C629.365 330.662 618.913 332.486 608.144 334.365C618.596 336.189 629.049 338.013 639.818 339.892C639.818 341.716 639.818 343.54 639.818 345.419C611.007 346.404 589.903 345.407 563.8 334.365C563.8 321.599 563.8 308.832 563.8 295.678C576.469 290.152 576.469 290.152 587.555 291.188Z" fill="#214591"/>
<path d="M209.05 163.038C215.322 164.861 221.593 166.685 228.055 168.564C234.068 179.402 234.068 179.402 238.745 192.744C241.133 199.305 241.133 199.305 243.57 205.999C247.059 218.305 247.059 218.305 247.059 234.885C242.878 234.885 238.697 234.885 234.389 234.885C238.57 247.651 242.751 260.418 247.059 273.572C240.788 273.572 234.516 273.572 228.055 273.572C228.055 269.924 228.055 266.276 228.055 262.518C223.874 262.518 219.693 262.518 215.385 262.518C204.827 253.307 194.269 244.096 183.711 234.885C177.439 233.061 171.168 231.237 164.706 229.358C164.706 225.71 164.706 222.063 164.706 218.305C188.912 221.238 203.106 226.578 221.72 240.411C221.72 229.469 221.72 218.526 221.72 207.251C213.358 209.075 204.996 210.899 196.38 212.778C192.199 205.483 188.018 198.187 183.711 190.671C192.073 190.671 200.435 190.671 209.05 190.671C209.05 185.2 209.05 179.728 209.05 174.091C209.05 170.443 209.05 166.796 209.05 163.038Z" fill="#5080AF"/>
<path d="M595.474 290.152C662.047 312.359 662.047 312.359 671.492 328.839C684.035 325.191 696.578 321.544 709.501 317.785C707.41 325.081 705.32 332.376 703.166 339.892C694.804 341.716 686.442 343.54 677.826 345.419C686.188 352.714 694.55 360.009 703.166 367.526C692.713 365.702 682.261 363.878 671.492 361.999C671.492 358.351 671.492 354.704 671.492 350.946C661.039 350.946 650.587 350.946 639.817 350.946C639.817 347.298 639.817 343.65 639.817 339.892C627.274 339.892 614.732 339.892 601.808 339.892C603.899 336.245 605.989 332.597 608.143 328.839C618.596 328.839 629.048 328.839 639.817 328.839C636.028 325.533 632.239 322.227 628.336 318.822C617.382 309.265 606.428 299.708 595.474 290.152Z" fill="#112A6D"/>
<path d="M304.072 135.403C338.307 134.16 366.234 138.229 398.699 146.456C405.197 148.038 405.197 148.038 411.826 149.652C422.378 152.227 432.91 154.862 443.438 157.51C432.352 168.909 432.352 168.909 418.099 179.617C406.716 178.947 406.716 178.947 392.76 174.09C385.541 172.316 378.322 170.542 370.885 168.714C362.947 166.727 355.01 164.739 346.832 162.691C338.829 160.689 330.827 158.687 322.582 156.625C316.473 155.093 310.365 153.561 304.072 151.983C304.072 146.512 304.072 141.04 304.072 135.403Z" fill="#3865A9"/>
<path d="M595.474 107.77C604.507 123.531 602.645 137.197 602.6 154.746C602.625 164.407 602.625 164.407 602.65 174.263C601.809 190.67 601.809 190.67 595.474 201.723C575.929 198.32 556.402 194.847 536.877 191.361C531.348 190.399 525.82 189.437 520.124 188.446C514.775 187.485 509.427 186.523 503.916 185.532C499.006 184.664 494.096 183.795 489.038 182.901C474.722 179.525 462.771 174.73 449.773 168.563C465.951 156.969 479.098 147.658 500.451 146.456C503.326 149.078 506.2 151.7 509.162 154.401C519.397 164.329 519.397 164.329 537.273 167.527C563.027 161.8 565.49 154.877 578.845 135.403C584.524 126.255 590.111 117.061 595.474 107.77Z" fill="#355BAA"/>
<path d="M545.191 223.485C554.402 223.656 554.402 223.656 563.8 223.831C561.709 231.126 559.619 238.421 557.465 245.938C562.83 248.267 562.83 248.267 568.303 250.644C582.956 257.057 597.588 263.468 612.103 270.117C617.019 272.325 621.935 274.534 627 276.809C639.818 284.624 639.818 284.624 652.487 306.731C629.492 295.788 606.496 284.846 582.804 273.571C582.804 277.219 582.804 280.866 582.804 284.624C589.076 286.448 595.347 288.272 601.809 290.151C583.992 293.951 583.992 293.951 563.8 295.678C560.86 293.056 557.92 290.434 554.891 287.733C541.747 276.491 533.207 276.443 515.101 275.298C507.421 274.753 507.421 274.753 499.585 274.197C495.69 273.991 491.795 273.784 487.782 273.571C487.782 268.1 487.782 262.628 487.782 256.991C491.963 256.991 496.144 256.991 500.451 256.991C502.542 253.343 504.632 249.696 506.786 245.938C526.187 242.483 526.187 242.483 544.795 240.411C536.433 236.763 528.071 233.116 519.456 229.357C525.791 223.831 525.791 223.831 545.191 223.485Z" fill="#183073"/>
<path d="M304.072 268.045C333.339 268.045 362.606 268.045 392.76 268.045C390.669 273.516 388.579 278.988 386.425 284.625C378.063 282.801 369.701 280.977 361.085 279.098C361.085 282.746 361.085 286.394 361.085 290.152C366.426 290.422 371.767 290.693 377.269 290.972C387.681 291.592 387.681 291.592 398.303 292.224C405.211 292.609 412.119 292.994 419.237 293.39C437.103 295.678 437.103 295.678 449.773 306.732C435.14 306.732 420.506 306.732 405.429 306.732C404.449 311.861 404.449 311.861 403.45 317.094C399.094 328.839 399.094 328.839 380.09 339.892C360.69 341.274 360.69 341.274 342.081 339.892C337.9 336.244 333.719 332.597 329.411 328.839C333.592 328.839 337.773 328.839 342.081 328.839C344.171 319.72 346.262 310.601 348.416 301.205C346.325 303.029 344.235 304.853 342.081 306.732C335.81 306.732 329.538 306.732 323.077 306.732C325.167 303.084 327.257 299.437 329.411 295.678C323.14 293.855 316.868 292.031 310.407 290.152C308.316 282.856 306.226 275.561 304.072 268.045Z" fill="#102A6A"/>
<path d="M424.434 179.616C442.916 180.247 461.388 180.947 479.864 181.689C487.703 181.945 487.703 181.945 495.701 182.207C500.764 182.421 505.827 182.634 511.043 182.855C515.687 183.028 520.332 183.202 525.117 183.381C550.89 186.784 570.142 199.476 590.723 212.776C595.198 215.626 599.673 218.476 604.284 221.412C609.33 225.344 609.33 225.344 614.479 229.357C614.479 233.004 614.479 236.652 614.479 240.41C544.953 230.658 486.441 214.781 424.434 185.143C424.434 183.319 424.434 181.495 424.434 179.616Z" fill="#365EA2"/>
<path d="M608.143 118.823C612.324 118.823 616.505 118.823 620.813 118.823C620.813 133.414 620.813 148.004 620.813 163.037C627.084 164.861 633.356 166.684 639.817 168.564C641.908 161.268 643.998 153.973 646.152 146.457C662.876 150.104 679.6 153.752 696.831 157.51C694.74 164.805 692.65 172.101 690.496 179.617C684.224 182.353 684.224 182.353 677.826 185.144C690.369 185.144 702.912 185.144 715.835 185.144C702.288 196.963 695.99 198.554 677.826 201.724C686.188 205.371 694.55 209.019 703.166 212.777C690.623 212.777 678.08 212.777 665.157 212.777C663.066 216.425 660.976 220.072 658.822 223.831C656.731 218.359 654.641 212.888 652.487 207.25C643.276 205.199 643.276 205.199 633.878 203.105C614.478 196.197 614.478 196.197 605.372 178.581C601.707 156.912 603.145 140.19 608.143 118.823Z" fill="#2B4F9E"/>
<path d="M272.398 151.984C285.068 163.383 285.068 163.383 291.402 174.091C283.04 174.091 274.678 174.091 266.063 174.091C263.973 177.738 261.882 181.386 259.728 185.144C259.728 181.496 259.728 177.849 259.728 174.091C253.457 175.914 247.185 177.738 240.724 179.617C238.633 185.089 236.543 190.56 234.389 196.197C232.56 191.752 230.731 187.306 228.846 182.726C223.413 167.831 223.413 167.831 209.05 163.037C215.321 171.244 215.321 171.244 221.719 179.617C219.629 185.089 217.538 190.56 215.384 196.197C209.113 196.197 202.842 196.197 196.38 196.197C190.197 180.014 189.524 168.806 190.045 151.984C219.546 144.745 242.727 146.556 272.398 151.984Z" fill="#1A3A7B"/>
<path d="M253.395 146.457C286.461 145.463 310.868 146.618 342.082 157.511C342.082 161.158 342.082 164.806 342.082 168.564C346.263 168.564 350.444 168.564 354.752 168.564C354.752 172.212 354.752 175.859 354.752 179.618C348.48 182.353 348.48 182.353 342.082 185.144C345.218 187.766 348.354 190.388 351.584 193.089C361.087 201.724 361.087 201.724 361.087 207.251C343.27 210.705 343.27 210.705 323.078 212.778C316.806 209.13 310.535 205.483 304.073 201.724C302.885 184.453 302.885 184.453 304.073 168.564C308.254 166.74 312.435 164.917 316.743 163.038C295.838 159.39 274.933 155.742 253.395 151.984C253.395 150.16 253.395 148.336 253.395 146.457Z" fill="#2D569C"/>
<path d="M158.371 323.311C162.266 323.774 166.161 324.237 170.175 324.715C177.855 325.559 177.855 325.559 185.69 326.42C190.761 326.997 195.832 327.574 201.057 328.169C216.45 329.653 216.45 329.653 234.389 323.311C272.395 321.596 305.329 326.052 342.081 334.365C325.594 348.749 318.518 346.84 295.585 346.886C285.485 346.907 285.485 346.907 275.182 346.929C268.122 346.887 261.063 346.844 253.789 346.8C243.237 346.864 243.237 346.864 232.471 346.929C225.73 346.915 218.989 346.901 212.044 346.886C205.855 346.874 199.665 346.861 193.288 346.848C177.376 345.418 177.376 345.418 158.371 334.365C158.371 330.717 158.371 327.069 158.371 323.311Z" fill="#DDDDD4"/>
<path d="M393.553 135.751C432.735 144.021 467.305 141.029 506.788 135.405C476.869 152.806 460.401 161.371 424.435 157.512C412.785 154.868 401.174 152.091 389.593 149.222C343.796 138.422 300.504 139.416 253.395 140.932C253.395 139.108 253.395 137.284 253.395 135.405C303.409 122.924 343.578 124.074 393.553 135.751Z" fill="#E8E8DC"/>
<path d="M608.144 140.93C609.842 144.464 611.541 147.997 613.291 151.638C620.095 164.868 620.095 164.868 639.818 168.564C641.908 161.268 643.999 153.973 646.153 146.457C650.334 151.928 654.515 157.4 658.822 163.037C654.641 163.037 650.46 163.037 646.153 163.037C647.329 166.571 648.504 170.104 649.716 173.745C650.631 177.507 651.545 181.268 652.487 185.144C650.397 186.968 648.307 188.791 646.153 190.67C680.646 187.935 680.646 187.935 715.836 185.144C702.288 196.963 695.99 198.555 677.827 201.724C686.189 205.372 694.551 209.019 703.166 212.777C690.623 212.777 678.08 212.777 665.157 212.777C663.067 216.425 660.976 220.073 658.822 223.831C656.732 218.359 654.641 212.888 652.487 207.251C639.899 203.361 627.226 199.672 614.479 196.197C604.297 178.432 607.78 160.627 608.144 140.93Z" fill="#3558A5"/>
<path d="M620.813 218.306C625.909 220.129 631.004 221.953 636.254 223.832C663.498 230.504 687.77 230.338 715.836 229.359C722.962 266.664 722.962 266.664 715.836 279.099C711.655 279.099 707.474 279.099 703.166 279.099C701.076 284.571 698.985 290.042 696.831 295.679C688.469 293.856 680.107 292.032 671.492 290.153C679.854 288.329 688.216 286.505 696.831 284.626C696.831 280.978 696.831 277.331 696.831 273.573C680.107 275.396 663.383 277.22 646.153 279.099C643.213 274.141 643.213 274.141 640.214 269.082C623.051 253.201 606.288 250.037 582.557 244.342C570.135 240.412 570.135 240.412 563.8 229.359C580.524 233.007 597.248 236.654 614.478 240.412C616.569 236.765 618.659 233.117 620.813 229.359C631.266 240.302 641.718 251.245 652.487 262.519C658.759 260.695 665.03 258.872 671.492 256.993C667.834 254.663 664.175 252.333 660.406 249.933C655.702 246.905 650.999 243.877 646.153 240.758C641.449 237.744 636.745 234.731 631.899 231.626C628.241 229.054 624.583 226.482 620.813 223.832C620.813 222.009 620.813 220.185 620.813 218.306Z" fill="#2B4F93"/>
<path d="M183.71 240.413C195.983 242.14 195.983 242.14 209.049 245.939C211.139 251.411 213.23 256.882 215.384 262.519C219.565 262.519 223.746 262.519 228.053 262.519C228.053 266.167 228.053 269.815 228.053 273.573C234.325 275.397 240.596 277.22 247.058 279.1C247.058 286.395 247.058 293.69 247.058 301.206C240.786 301.206 234.515 301.206 228.053 301.206C230.144 306.678 232.234 312.149 234.388 317.786C206.448 323.455 190.511 323.517 164.705 312.26C164.705 308.612 164.705 304.964 164.705 301.206C160.524 301.206 156.343 301.206 152.035 301.206C147.854 288.44 143.673 275.673 139.366 262.519C145.899 266.281 152.431 270.043 159.162 273.918C177.843 283.378 182.843 284.681 205.486 283.245C213.521 281.193 213.521 281.193 221.719 279.1C209.278 270.779 197.756 263.12 183.71 256.993C183.71 251.521 183.71 246.05 183.71 240.413Z" fill="#265793"/>
<path d="M680.203 52.1567C685.69 52.2707 691.178 52.3847 696.832 52.5022C694.741 57.9736 692.651 63.445 690.497 69.0823C677.431 72.8819 677.431 72.8819 665.157 74.609C671.429 76.4328 677.7 78.2566 684.162 80.1357C675.995 83.8471 667.809 87.5253 659.614 91.1891C655.058 93.2408 650.501 95.2926 645.807 97.4066C633.483 102.242 633.483 102.242 620.814 102.242C620.814 107.714 620.814 113.185 620.814 118.823C616.633 118.823 612.452 118.823 608.144 118.823C606.714 148.769 611.522 172.845 620.814 201.723C601.809 196.196 601.809 196.196 595.474 185.143C587.844 95.8758 587.844 95.8758 620.814 58.0289C641.601 51.7208 658.277 52.511 680.203 52.1567Z" fill="#4369B5"/>
<path d="M304.072 268.045C333.339 268.045 362.606 268.045 392.76 268.045C390.669 273.516 388.579 278.988 386.425 284.625C378.063 282.801 369.701 280.977 361.085 279.098C361.085 282.746 361.085 286.394 361.085 290.152C366.426 290.422 371.767 290.693 377.269 290.972C387.681 291.592 387.681 291.592 398.303 292.224C405.211 292.609 412.119 292.994 419.237 293.39C437.103 295.678 437.103 295.678 449.773 306.732C436.574 305.95 423.377 305.138 410.18 304.314C402.831 303.865 395.482 303.416 387.91 302.954C371.793 301.578 357.541 299.651 342.081 295.678C339.991 301.15 337.9 306.621 335.746 312.259C331.565 310.435 327.384 308.611 323.077 306.732C325.167 303.084 327.257 299.437 329.411 295.678C323.14 293.855 316.868 292.031 310.407 290.152C308.316 282.856 306.226 275.561 304.072 268.045Z" fill="#0F2564"/>
<path d="M684.162 58.0303C695.644 58.3757 695.644 58.3757 709.502 63.557C719.796 82.555 719.796 82.555 728.506 102.244C732.687 105.891 736.868 109.539 741.176 113.297C736.203 112.307 731.23 111.317 726.106 110.296C683.955 102.851 658.348 99.474 620.814 118.824C620.814 113.353 620.814 107.881 620.814 102.244C624.325 100.905 627.837 99.5652 631.454 98.1852C636.044 96.3329 640.633 94.4806 645.361 92.5721C649.918 90.7768 654.475 88.9815 659.169 87.1318C673.628 78.9251 677.851 71.8241 684.162 58.0303Z" fill="#264992"/>
<path d="M772.85 163.039C760.181 174.092 760.181 174.092 741.176 179.619C749.538 185.09 757.9 190.562 766.515 196.199C764.425 201.67 762.334 207.142 760.181 212.779C727.467 222.128 699.389 225.077 665.158 223.833C665.158 216.537 665.158 209.242 665.158 201.726C675.611 198.078 686.063 194.43 696.832 190.672C686.38 190.672 675.927 190.672 665.158 190.672C692.506 166.813 735.316 160.52 772.85 163.039Z" fill="#6485BA"/>
<path d="M487.782 157.51C475.239 162.981 475.239 162.981 462.443 168.563C483.348 174.035 504.253 179.506 525.791 185.144C525.791 186.967 525.791 188.791 525.791 190.67C481.891 187.935 481.891 187.935 437.104 185.144C458.008 194.263 478.913 203.382 500.452 212.777C500.452 218.248 500.452 223.72 500.452 229.357C496.777 227.491 493.102 225.624 489.316 223.701C439.907 199.089 398.673 188.851 342.081 185.144C346.262 183.32 350.443 181.496 354.751 179.617C354.751 175.969 354.751 172.322 354.751 168.563C350.57 168.563 346.389 168.563 342.081 168.563C342.081 164.916 342.081 161.268 342.081 157.51C347.814 159.402 347.814 159.402 353.662 161.331C358.725 162.92 363.788 164.509 369.004 166.145C374.002 167.748 378.999 169.351 384.148 171.003C409.342 176.207 423.729 168.844 447.002 159.583C468.778 151.983 468.778 151.983 487.782 157.51Z" fill="#173473"/>
<path d="M253.394 229.359C257.575 233.007 261.756 236.654 266.063 240.412C265.018 243.946 263.973 247.48 262.896 251.12C261.851 254.882 260.805 258.643 259.728 262.519C266 270.726 266 270.726 272.398 279.099C266.127 279.099 259.855 279.099 253.394 279.099C253.394 288.218 253.394 297.337 253.394 306.733C257.575 306.733 261.756 306.733 266.063 306.733C266.063 301.261 266.063 295.79 266.063 290.153C272.335 291.976 278.606 293.8 285.068 295.679C280.887 295.679 276.706 295.679 272.398 295.679C272.398 301.151 272.398 306.622 272.398 312.259C287.031 308.612 301.665 304.964 316.742 301.206C314.651 308.501 312.561 315.796 310.407 323.313C305.434 323.648 300.461 323.982 295.337 324.327C288.682 324.791 282.026 325.254 275.17 325.731C268.228 326.208 261.287 326.685 254.136 327.177C238.851 328.464 224.449 330.337 209.446 332.985C186.101 334.647 176.75 329.933 158.371 317.786C160.462 312.315 162.552 306.843 164.706 301.206C166.796 304.854 168.887 308.501 171.041 312.259C185.966 314.843 185.966 314.843 203.111 315.714C211.844 316.333 211.844 316.333 220.754 316.966C225.254 317.236 229.753 317.507 234.389 317.786C228.118 308.667 221.846 299.548 215.385 290.153C223.747 291.976 232.109 293.8 240.724 295.679C241.638 289.866 242.553 284.052 243.495 278.063C246.269 261.665 249.454 245.563 253.394 229.359Z" fill="#193569"/>
<path d="M82.3533 223.831C122.185 240.007 135.809 252.965 152.432 288.769C156.266 298.302 156.266 298.302 160.178 308.026C169.742 325.36 169.742 325.36 193.188 328.579C215.213 329.898 215.213 329.898 234.389 323.311C243.222 322.943 252.074 322.839 260.916 322.966C272.871 323.137 272.871 323.137 285.068 323.311C288.204 328.783 288.204 328.783 291.403 334.365C279.532 336.241 267.652 338.075 255.769 339.891C249.155 340.917 242.54 341.943 235.725 343C194.282 347.926 171.264 343.215 133.032 328.838C116.079 326.031 99.5792 324.629 82.3533 323.311C82.3533 321.487 82.3533 319.664 82.3533 317.784C103.258 317.784 124.163 317.784 145.702 317.784C130.388 279.246 119.959 258.744 82.3533 234.884C82.3533 231.236 82.3533 227.589 82.3533 223.831Z" fill="#D6DEE1"/>
<path d="M278.733 245.938C284.809 248.502 284.809 248.502 291.007 251.119C316.238 258.756 340.919 260.603 367.421 262.518C367.421 266.165 367.421 269.813 367.421 273.571C348.606 273.571 329.792 273.571 310.407 273.571C314.502 290.802 314.502 290.802 329.412 295.678C331.502 297.502 333.593 299.325 335.746 301.205C337.837 297.557 339.927 293.909 342.081 290.151C354.751 301.205 354.751 301.205 354.751 317.785C350.57 317.785 346.389 317.785 342.081 317.785C342.081 321.432 342.081 325.08 342.081 328.838C323.616 333.313 313.821 335.572 295.758 329.183C292.23 327.246 288.702 325.308 285.068 323.311C291.339 319.664 297.611 316.016 304.072 312.258C299.891 312.258 295.71 312.258 291.403 312.258C285.131 312.258 278.86 312.258 272.398 312.258C272.398 306.786 272.398 301.315 272.398 295.678C276.579 295.678 280.76 295.678 285.068 295.678C285.068 292.03 285.068 288.383 285.068 284.624C289.249 284.624 293.43 284.624 297.738 284.624C291.466 271.858 285.195 259.091 278.733 245.938Z" fill="#1E4483"/>
<path d="M457.693 248.357C463.343 249.945 468.994 251.534 474.816 253.171C479.095 254.432 483.374 255.693 487.783 256.992C485.421 271.416 480.991 279.68 471.451 291.793C452.948 303.145 442.053 302.194 420.104 299.22C415.784 298.507 411.465 297.795 407.014 297.061C402.596 296.434 398.178 295.807 393.627 295.161C382.758 293.602 371.919 291.892 361.086 290.152C361.086 286.505 361.086 282.857 361.086 279.099C369.448 279.099 377.81 279.099 386.426 279.099C388.516 275.451 390.607 271.804 392.761 268.046C405.304 268.046 417.847 268.046 430.77 268.046C428.679 271.693 426.589 275.341 424.435 279.099C436.978 279.099 449.521 279.099 462.444 279.099C464.534 275.451 466.625 271.804 468.779 268.046C445.783 264.398 422.788 260.75 399.095 256.992C399.095 253.345 399.095 249.697 399.095 245.939C421.563 239.023 435.347 241.944 457.693 248.357Z" fill="#1F4288"/>
<path d="M595.475 190.669C603.837 194.317 612.199 197.965 620.815 201.723C622.905 198.075 624.996 194.428 627.149 190.669C631.461 195.115 635.773 199.561 640.215 204.141C661.895 220.64 674.932 222.381 703.167 223.83C701.077 227.477 698.986 231.125 696.833 234.883C675.658 235.294 660.068 235.245 639.819 229.356C652.362 238.475 664.905 247.594 677.828 256.99C665.285 262.461 665.285 262.461 652.489 268.043C646.609 260.862 646.609 260.862 640.611 253.536C618.172 229.704 588.079 216.347 557.466 201.723C581.222 195.505 581.222 195.505 595.475 201.723C595.475 198.075 595.475 194.428 595.475 190.669Z" fill="#1A3272"/>
<path d="M557.466 234.884C595.412 240.539 625.963 245.494 650.113 273.225C661.269 287.824 667.525 300.589 671.493 317.784C679.855 315.96 688.217 314.137 696.833 312.258C696.833 315.905 696.833 319.553 696.833 323.311C684.29 326.959 671.747 330.606 658.824 334.364C658.824 328.893 658.824 323.422 658.824 317.784C655.459 316.317 652.095 314.849 648.628 313.337C626.688 303.766 604.747 294.195 582.806 284.624C582.806 280.976 582.806 277.329 582.806 273.571C605.572 280.948 625.597 289.931 646.154 301.204C623.595 279.96 599.19 267.488 570.433 253.493C566.154 251 561.875 248.506 557.466 245.937C557.466 242.29 557.466 238.642 557.466 234.884Z" fill="#325AA7"/>
<path d="M544.796 284.625C551.067 286.449 557.339 288.273 563.8 290.152C565.891 304.742 567.981 319.333 570.135 334.365C604.628 339.837 604.628 339.837 639.818 345.419C639.557 352.03 639.295 358.641 639.026 365.453C638.941 386.445 643.492 403.171 652.488 422.793C644.126 424.616 635.764 426.44 627.148 428.319C625.911 418.537 624.735 408.749 623.585 398.959C622.924 393.509 622.262 388.058 621.581 382.443C620.814 367.526 620.814 367.526 627.148 350.945C623.253 351.138 619.358 351.33 615.345 351.528C607.665 351.753 607.665 351.753 599.829 351.982C592.223 352.27 592.223 352.27 584.463 352.565C570.135 350.945 570.135 350.945 559.049 343.519C548.83 331.706 547.042 321.236 544.796 306.732C542.313 310.379 539.831 314.027 537.273 317.785C525.791 328.839 525.791 328.839 508.766 330.22C503.932 329.764 499.098 329.308 494.117 328.839C498.037 328.497 501.956 328.155 505.995 327.802C521.097 324.331 521.097 324.331 526.583 309.841C529.327 302.83 529.327 302.83 532.126 295.678C536.307 292.031 540.488 288.383 544.796 284.625Z" fill="#D5E0E9"/>
<path d="M646.154 102.245C652.425 104.068 658.697 105.892 665.158 107.771C656.796 113.243 648.434 118.714 639.819 124.351C643.714 123.76 647.609 123.169 651.622 122.56C659.303 121.566 659.303 121.566 667.138 120.552C672.209 119.847 677.28 119.141 682.505 118.415C696.832 118.825 696.832 118.825 708.19 127.007C710.714 129.778 713.237 132.55 715.837 135.405C712.44 135.975 709.043 136.545 705.543 137.132C686.538 141.931 669.986 149.532 652.489 157.512C650.398 155.688 648.308 153.864 646.154 151.985C644.063 157.456 641.973 162.928 639.819 168.565C635.638 168.565 631.457 168.565 627.149 168.565C625.059 172.213 622.968 175.86 620.814 179.618C616.593 162.882 613.558 147.044 614.48 129.878C629.921 112.953 629.921 112.953 646.154 102.245Z" fill="#6D86BB"/>
<path d="M587.555 291.188C607.428 297.448 622.975 306.765 639.818 317.785C639.818 321.433 639.818 325.08 639.818 328.839C629.365 330.662 618.913 332.486 608.144 334.365C618.596 336.189 629.049 338.013 639.818 339.892C639.818 341.716 639.818 343.54 639.818 345.419C611.007 346.404 589.903 345.407 563.8 334.365C563.8 321.599 563.8 308.832 563.8 295.678C576.469 290.152 576.469 290.152 587.555 291.188Z" fill="#214591"/>
<path d="M209.05 163.038C215.322 164.861 221.593 166.685 228.055 168.564C234.068 179.402 234.068 179.402 238.745 192.744C241.133 199.305 241.133 199.305 243.57 205.999C247.059 218.305 247.059 218.305 247.059 234.885C242.878 234.885 238.697 234.885 234.389 234.885C238.57 247.651 242.751 260.418 247.059 273.572C240.788 273.572 234.516 273.572 228.055 273.572C228.055 269.924 228.055 266.276 228.055 262.518C223.874 262.518 219.693 262.518 215.385 262.518C204.827 253.307 194.269 244.096 183.711 234.885C177.439 233.061 171.168 231.237 164.706 229.358C164.706 225.71 164.706 222.063 164.706 218.305C188.912 221.238 203.106 226.578 221.72 240.411C221.72 229.469 221.72 218.526 221.72 207.251C213.358 209.075 204.996 210.899 196.38 212.778C192.199 205.483 188.018 198.187 183.711 190.671C192.073 190.671 200.435 190.671 209.05 190.671C209.05 185.2 209.05 179.728 209.05 174.091C209.05 170.443 209.05 166.796 209.05 163.038Z" fill="#5080AF"/>
<path d="M595.474 290.152C662.047 312.359 662.047 312.359 671.492 328.839C684.035 325.191 696.578 321.544 709.501 317.785C707.41 325.081 705.32 332.376 703.166 339.892C694.804 341.716 686.442 343.54 677.826 345.419C686.188 352.714 694.55 360.009 703.166 367.526C692.713 365.702 682.261 363.878 671.492 361.999C671.492 358.351 671.492 354.704 671.492 350.946C661.039 350.946 650.587 350.946 639.817 350.946C639.817 347.298 639.817 343.65 639.817 339.892C627.274 339.892 614.732 339.892 601.808 339.892C603.899 336.245 605.989 332.597 608.143 328.839C618.596 328.839 629.048 328.839 639.817 328.839C636.028 325.533 632.239 322.227 628.336 318.822C617.382 309.265 606.428 299.708 595.474 290.152Z" fill="#112A6D"/>
<path d="M310.407 135.403C356.695 137.944 399.079 145.812 443.438 157.51C432.352 168.909 432.352 168.909 418.099 179.617C406.716 178.948 406.716 178.948 392.76 174.09C385.541 172.316 378.322 170.542 370.885 168.715C362.947 166.727 355.01 164.739 346.832 162.691C338.829 160.689 330.827 158.688 322.582 156.625C316.473 155.093 310.365 153.562 304.072 151.983C306.163 146.512 308.253 141.041 310.407 135.403Z" fill="#3A65AA"/>
<path d="M196.38 107.771C210.238 106.389 210.238 106.389 228.054 107.771C233.15 111.533 238.245 115.294 243.495 119.17C259.032 131.826 259.032 131.826 279.921 128.842C297.241 124.986 297.241 124.986 310.407 118.825C320.202 119.303 329.976 120.151 339.706 121.242C347.472 122.087 347.472 122.087 355.394 122.948C359.363 123.411 363.332 123.874 367.421 124.351C367.421 126.175 367.421 127.999 367.421 129.878C361.357 130.979 361.357 130.979 355.172 132.102C347.32 133.566 347.32 133.566 339.31 135.059C331.483 136.502 331.483 136.502 323.497 137.974C310.555 139.868 310.555 139.868 304.072 146.458C294.984 147.005 285.863 147.175 276.753 147.149C269.343 147.17 269.343 147.17 261.782 147.192C238.298 146.021 225.511 143.78 207.466 130.223C196.38 118.825 196.38 118.825 196.38 107.771Z" fill="#B9C7D5"/>
<path d="M272.398 151.984C285.068 163.383 285.068 163.383 291.402 174.091C283.04 174.091 274.678 174.091 266.063 174.091C263.973 177.738 261.882 181.386 259.728 185.144C259.728 181.496 259.728 177.849 259.728 174.091C253.457 175.914 247.185 177.738 240.724 179.617C238.633 185.089 236.543 190.56 234.389 196.197C232.56 191.752 230.731 187.306 228.846 182.726C223.413 167.831 223.413 167.831 209.05 163.037C215.321 171.244 215.321 171.244 221.719 179.617C219.629 185.089 217.538 190.56 215.384 196.197C209.113 196.197 202.842 196.197 196.38 196.197C190.197 180.014 189.524 168.806 190.045 151.984C219.546 144.745 242.727 146.556 272.398 151.984Z" fill="#1A3A7B"/>
<path d="M253.395 146.457C286.461 145.463 310.868 146.618 342.082 157.511C342.082 161.158 342.082 164.806 342.082 168.564C346.263 168.564 350.444 168.564 354.752 168.564C354.752 172.212 354.752 175.859 354.752 179.618C348.48 182.353 348.48 182.353 342.082 185.144C345.218 187.766 348.354 190.388 351.584 193.089C361.087 201.724 361.087 201.724 361.087 207.251C343.27 210.705 343.27 210.705 323.078 212.778C316.806 209.13 310.535 205.483 304.073 201.724C302.885 184.453 302.885 184.453 304.073 168.564C308.254 166.74 312.435 164.917 316.743 163.038C295.838 159.39 274.933 155.742 253.395 151.984C253.395 150.16 253.395 148.336 253.395 146.457Z" fill="#2D569C"/>
</svg>
