<svg width="1259" height="696" viewBox="0 0 1259 696" fill="none" xmlns="http://www.w3.org/2000/svg">
<path d="M69.6846 192.405C73.5063 196.37 73.5063 196.37 77.4051 200.415C91.1092 210.824 99.2854 211.939 117.196 213.476C124.545 214.213 124.545 214.213 132.043 214.965C147.611 215.488 147.611 215.488 164.707 203.459C181.732 205.531 181.732 205.531 196.381 208.985C198.472 214.457 200.562 219.928 202.716 225.565C209.281 225.708 215.847 225.85 222.611 225.997C231.289 226.308 239.966 226.625 248.644 226.947C252.963 227.026 257.283 227.104 261.734 227.185C283.812 228.12 295.323 229.197 312.017 242.297C315.667 245.894 319.317 249.492 323.078 253.199C355.773 255.616 386.508 252.225 418.843 247.802C424.747 247.738 424.747 247.738 430.77 247.672C446.371 261.283 449.76 273.685 456.109 291.886C458.849 289.516 461.589 287.146 464.411 284.705C503.285 254.895 535.759 254.609 585.973 256.653C596.507 256.878 596.507 256.878 607.254 257.107C624.457 257.495 641.634 258.038 658.824 258.726C642.66 272.828 636.358 271.225 613.936 271.485C607.517 271.624 601.099 271.762 594.486 271.906C580.942 272.099 567.398 272.272 553.854 272.424C547.419 272.57 540.984 272.716 534.354 272.866C528.464 272.941 522.573 273.015 516.504 273.092C497.596 275.7 488.853 280.403 475.114 291.886C470.019 306.247 470.019 306.247 468.779 319.519C483.412 321.343 498.046 323.167 513.123 325.046C513.123 326.87 513.123 328.694 513.123 330.573C492.218 332.397 471.313 334.22 449.774 336.099C437.994 312.608 431.2 289.126 424.435 264.252C417.412 264.908 410.39 265.563 403.154 266.239C393.883 266.964 384.612 267.684 375.34 268.397C370.718 268.846 366.096 269.295 361.334 269.757C347.724 270.729 347.724 270.729 323.078 269.779C309.369 258.963 309.369 258.963 297.738 247.672C280.38 244.401 280.38 244.401 262.105 245.254C256.013 245.261 249.921 245.269 243.645 245.276C238.5 246.067 233.356 246.858 228.055 247.672C221.784 255.879 221.784 255.879 215.386 264.252C211.205 264.252 207.024 264.252 202.716 264.252C205.852 302.552 205.852 302.552 209.051 341.626C198.598 343.45 188.146 345.274 177.377 347.153C173.196 350.801 169.015 354.448 164.707 358.206C164.707 349.087 164.707 339.968 164.707 330.573C175.159 328.749 185.612 326.925 196.381 325.046C194.291 322.082 192.2 319.119 190.046 316.065C181.743 298.861 180.733 288.341 183.712 269.779C193.093 257.231 203.449 247.553 215.386 236.619C198.781 228.858 183.511 222.156 164.707 220.039C158.436 223.686 152.164 227.334 145.703 231.092C126.111 232.021 107.652 229.909 88.6891 225.565C75.6235 214.857 75.6235 214.857 69.6846 203.459C69.6846 199.811 69.6846 196.163 69.6846 192.405Z" fill="#D4DDDE"/>
<path d="M772.849 418.998C783.463 420.579 794.032 422.413 804.524 424.525C807.659 432.732 807.659 432.732 810.858 441.105C816.215 441.789 821.572 442.473 827.091 443.177C849.833 446.785 871.092 451.896 893.211 457.685C891.121 479.571 889.03 501.456 886.876 524.005C895.238 525.829 903.6 527.653 912.216 529.532C908.165 530.9 904.115 532.268 899.942 533.677C886.031 539.363 886.031 539.363 883.115 550.236C877.964 575.17 874.655 598.447 880.542 623.486C892.559 636.219 904.638 644.84 920.134 654.228C923.793 656.85 927.451 659.472 931.22 662.173C931.22 667.644 931.22 673.116 931.22 678.753C922.261 679.989 913.282 681.12 904.297 682.207C899.3 682.848 894.302 683.49 889.153 684.15C871.623 684.302 863.072 682.164 848.867 673.226C845.001 661.733 845.001 661.733 842.533 651.119C834.816 650.578 827.099 650.037 819.148 649.479C808.862 648.649 798.576 647.814 788.291 646.974C783.224 646.632 778.157 646.291 772.936 645.938C736.996 642.867 714.451 635.091 684.162 617.959C677.106 614.996 670.051 612.032 662.782 608.978C646.153 601.379 646.153 601.379 639.818 590.326C668.093 597.863 694.404 605.281 719.795 618.65C751.746 633.551 786.908 632.494 822.291 633.568C842.533 634.539 842.533 634.539 855.202 640.066C859.162 651.465 859.162 651.465 861.537 662.173C878.261 662.173 894.985 662.173 912.216 662.173C908.557 660.356 904.899 658.539 901.13 656.668C894.074 652.724 894.074 652.724 886.876 648.702C882.173 646.201 877.469 643.7 872.623 641.124C855.022 621.895 859.349 602.976 861.537 579.272C861.928 574.954 862.319 570.635 862.722 566.186C864.085 553.248 865.73 540.362 867.476 527.46C868.027 523.078 868.578 518.697 869.146 514.183C871.471 496.428 874.046 480.213 880.542 463.212C872.702 462.414 864.863 461.616 856.786 460.794C816.875 456.303 816.875 456.303 804.524 452.158C800.343 446.687 796.162 441.215 791.854 435.578C788.209 436.763 784.564 437.948 780.808 439.169C735.963 452.467 695.604 454.168 648.528 453.195C641.563 453.12 634.597 453.045 627.421 452.968C610.434 452.775 593.453 452.503 576.47 452.158C576.47 450.334 576.47 448.511 576.47 446.632C580.651 446.551 584.833 446.47 589.141 446.387C608.28 445.973 627.413 445.44 646.549 444.904C653.126 444.78 659.704 444.655 666.481 444.527C724.059 443.389 724.059 443.389 772.849 418.998Z" fill="#E3E9E6"/>
<path d="M437.104 308.466C439.26 313.424 439.26 313.424 441.459 318.483C451.972 333.769 463.742 338.657 481.448 347.153C485.629 350.8 489.81 354.448 494.117 358.206C487.846 360.942 487.846 360.942 481.448 363.733C482.509 368.392 483.571 373.051 484.664 377.852C485.955 383.907 487.245 389.963 488.574 396.202C489.897 402.229 491.22 408.256 492.583 414.466C493.089 419.61 493.596 424.754 494.117 430.053C489.936 433.701 485.755 437.348 481.448 441.107C479.357 437.459 477.267 433.811 475.113 430.053C468.841 430.053 462.57 430.053 456.108 430.053C458.199 440.996 460.289 451.939 462.443 463.213C458.262 463.213 454.081 463.213 449.773 463.213C445.519 456.089 441.303 448.947 437.104 441.797C434.752 437.822 432.4 433.847 429.977 429.751C424.434 419 424.434 419 424.434 407.946C428.615 404.299 432.796 400.651 437.104 396.893C432.923 395.069 428.742 393.245 424.434 391.366C422.344 387.719 420.253 384.071 418.099 380.313C414.702 381.111 411.305 381.909 407.805 382.731C390.231 386.362 372.582 388.891 354.751 391.366C363.113 384.071 371.475 376.776 380.09 369.26C375.909 367.436 371.728 365.612 367.421 363.733C371.602 354.614 375.783 345.495 380.09 336.099C396.814 334.276 413.538 332.452 430.769 330.573C432.859 323.277 434.95 315.982 437.104 308.466Z" fill="#5B8FB8"/>
<path d="M475.114 424.527C475.506 427.605 475.898 430.682 476.301 433.853C483.563 451.883 497.247 461.482 513.123 474.267C509.203 473.241 505.283 472.215 501.245 471.158C487.52 467.431 487.52 467.431 475.114 474.267C483.476 477.915 491.838 481.562 500.453 485.321C494.181 493.528 494.181 493.528 487.783 501.901C479.421 501.901 471.059 501.901 462.444 501.901C462.444 505.548 462.444 509.196 462.444 512.954C481.258 514.778 500.073 516.602 519.457 518.481C519.457 522.128 519.457 525.776 519.457 529.534C498.553 529.534 477.648 529.534 456.109 529.534C456.109 533.182 456.109 536.829 456.109 540.588C439.385 540.588 422.661 540.588 405.431 540.588C407.521 536.94 409.611 533.292 411.765 529.534C401.313 524.063 390.86 518.591 380.091 512.954C400.367 504.11 416.344 512.779 437.105 518.481C435.014 513.009 432.924 507.538 430.77 501.901C426.066 503.269 421.363 504.636 416.516 506.046C399.096 507.427 399.096 507.427 384.05 498.101C373.756 485.321 373.756 485.321 373.756 473.922C381.855 460.232 390.278 454.41 405.431 446.634C411.702 446.634 417.973 446.634 424.435 446.634C426.525 457.577 428.616 468.519 430.77 479.794C434.951 479.794 439.132 479.794 443.439 479.794C441.218 475.576 438.997 471.359 436.709 467.013C430.77 452.16 430.77 452.16 437.105 435.58C441.286 444.699 445.467 453.818 449.774 463.214C457.986 457.32 457.986 457.32 456.505 443.525C456.374 439.079 456.244 434.634 456.109 430.054C462.381 428.23 468.652 426.406 475.114 424.527Z" fill="#4D86B6"/>
<path d="M367.42 330.573C367.42 334.221 367.42 337.868 367.42 341.627C371.601 343.45 375.782 345.274 380.089 347.153C373.818 355.36 373.818 355.36 367.42 363.733C373.691 365.557 379.963 367.381 386.424 369.26C378.062 374.732 369.7 380.203 361.085 385.84C363.175 391.312 365.266 396.783 367.42 402.42C359.893 416.428 352.337 423.032 336.067 429.233C327.03 432.036 317.93 434.691 308.773 437.178C296.439 440.335 296.439 440.335 291.402 452.161C287.221 452.161 283.04 452.161 278.732 452.161C278.732 437.57 278.732 422.98 278.732 407.947C274.551 407.947 270.37 407.947 266.062 407.947C263.972 411.595 261.881 415.242 259.728 419C261.818 406.234 263.909 393.467 266.062 380.314C270.243 380.314 274.424 380.314 278.732 380.314C278.732 383.961 278.732 387.609 278.732 391.367C293.641 386.492 293.641 386.492 297.737 369.26C289.375 367.436 281.013 365.613 272.397 363.733C276.578 363.733 280.759 363.733 285.067 363.733C287.157 358.262 289.248 352.791 291.402 347.153C299.764 350.801 308.126 354.449 316.741 358.207C319.093 352.906 319.093 352.906 321.492 347.499C329.411 336.1 329.411 336.1 342.08 331.955C354.75 330.573 354.75 330.573 367.42 330.573Z" fill="#3076BC"/>
<path d="M848.868 463.212C859.32 463.212 869.773 463.212 880.542 463.212C874.27 517.927 867.999 572.641 861.537 629.013C859.447 625.366 857.356 621.718 855.203 617.96C840.086 614.578 826.472 612.433 810.859 612.433C812.949 616.081 815.04 619.729 817.194 623.487C798.431 620.1 789.443 616.558 772.85 606.907C771.662 589.636 771.662 589.636 772.85 573.746C766.578 573.746 760.307 573.746 753.845 573.746C751.885 567.591 749.926 561.436 747.906 555.094C742.295 536.195 742.295 536.195 734.841 524.006C753.603 527.393 762.591 530.935 779.185 540.586C802.248 543.763 809.303 541.551 828.675 529.533C835.535 524.061 835.535 524.061 842.533 518.479C836.261 516.656 829.99 514.832 823.528 512.953C821.438 518.424 819.347 523.896 817.194 529.533C813.013 529.533 808.832 529.533 804.524 529.533C812.15 515.751 820.071 503.66 829.863 490.846C838.225 490.846 846.587 490.846 855.203 490.846C857.293 485.374 859.384 479.903 861.537 474.266C857.356 470.618 853.175 466.971 848.868 463.212ZM855.203 524.006C842.29 531.047 829.619 538.434 817.194 546.113C817.194 549.761 817.194 553.408 817.194 557.166C804.651 557.166 792.108 557.166 779.185 557.166C781.275 569.933 783.366 582.7 785.519 595.853C793.881 595.853 802.243 595.853 810.859 595.853C810.859 590.382 810.859 584.91 810.859 579.273C815.04 577.449 819.221 575.625 823.528 573.746C823.528 577.394 823.528 581.042 823.528 584.8C831.89 586.624 840.252 588.447 848.868 590.327C848.868 586.679 848.868 583.031 848.868 579.273C844.687 579.273 840.506 579.273 836.198 579.273C836.198 573.802 836.198 568.33 836.198 562.693C840.379 562.693 844.56 562.693 848.868 562.693C850.958 566.341 853.049 569.988 855.203 573.746C855.203 568.275 855.203 562.804 855.203 557.166C851.022 557.166 846.841 557.166 842.533 557.166C848.804 549.871 855.076 542.576 861.537 535.06C859.447 531.412 857.356 527.764 855.203 524.006Z" fill="#407DB1"/>
<path d="M665.157 258.724C681.656 258.426 698.147 258.206 714.648 258.033C719.323 257.94 723.998 257.848 728.814 257.752C753.29 257.559 764.671 257.652 785.519 269.777C798.123 271.933 810.796 273.823 823.528 275.304C821.548 285.666 821.548 285.666 817.193 297.411C796.744 309.304 790.054 309.574 766.514 308.464C766.514 315.759 766.514 323.054 766.514 330.571C738.677 335.31 712.505 336.592 684.161 336.097C679.98 343.393 675.799 350.688 671.492 358.204C611.54 355.682 553.169 351.674 494.116 341.624C498.722 346.316 498.722 346.316 503.421 351.102C516.541 368.184 515.951 381.683 516.882 401.749C520.088 416.349 525.27 420.889 538.46 430.051C550.979 435.834 563.633 441.405 576.469 446.631C566.175 450.777 566.175 450.777 551.13 452.158C531.919 442.437 516.15 432.694 500.451 418.998C499.519 409.003 499.051 398.973 498.868 388.947C498.08 372.724 498.08 372.724 494.116 358.204C475.927 345.407 475.927 345.407 456.107 341.624C456.107 337.977 456.107 334.329 456.107 330.571C504.448 328.993 550.352 332.819 598.146 339.206C620.73 341.615 642.43 342.031 665.157 341.624C669.338 334.329 673.519 327.034 677.826 319.517C702.912 319.517 727.998 319.517 753.844 319.517C755.935 314.046 758.025 308.575 760.179 302.937C782.129 300.202 782.129 300.202 804.523 297.411C804.523 293.763 804.523 290.115 804.523 286.357C800.865 285.673 797.206 284.989 793.437 284.285C779.184 280.83 779.184 280.83 768.494 275.304C748.318 267.692 729.794 267.383 707.917 266.323C695.913 265.703 695.913 265.703 683.666 265.071C674.504 264.665 674.504 264.665 665.157 264.25C665.157 262.427 665.157 260.603 665.157 258.724Z" fill="#DFE5E2"/>
<path d="M652.487 275.305C650.527 279.409 648.567 283.512 646.548 287.74C641.024 300.214 636.798 312.03 633.483 325.045C637.664 321.398 641.845 317.75 646.152 313.992C662.781 316.065 662.781 316.065 677.826 319.519C673.645 328.638 669.464 337.757 665.157 347.152C633.266 347.694 602.916 345.736 571.322 341.971C558.914 340.528 558.914 340.528 546.255 339.057C525.791 336.099 525.791 336.099 513.121 330.572C503.386 329.33 493.612 328.317 483.822 327.463C478.645 327 473.468 326.537 468.134 326.06C464.165 325.725 460.196 325.39 456.107 325.045C460.288 323.222 464.469 321.398 468.777 319.519C468.777 310.4 468.777 301.281 468.777 291.885C472.958 291.885 477.139 291.885 481.447 291.885C481.447 295.533 481.447 299.181 481.447 302.939C504.987 304.049 511.677 303.778 532.125 291.885C545.983 293.958 545.983 293.958 557.465 297.412C551.193 305.619 551.193 305.619 544.795 313.992C544.795 310.344 544.795 306.697 544.795 302.939C538.524 306.586 532.252 310.234 525.791 313.992C532.341 320.953 532.341 320.953 546.601 320.058C552.407 319.994 558.213 319.93 564.195 319.864C570.018 319.814 575.84 319.764 581.839 319.713C586.338 319.649 590.838 319.585 595.474 319.519C595.474 315.871 595.474 312.224 595.474 308.465C603.836 306.642 612.198 304.818 620.813 302.939C612.451 299.291 604.089 295.643 595.474 291.885C617.27 279.208 625.392 275.305 652.487 275.305Z" fill="#2565A7"/>
<path d="M456.108 369.259C447.746 374.73 439.384 380.201 430.769 385.839C437.04 385.839 443.312 385.839 449.773 385.839C445.592 393.134 441.411 400.429 437.103 407.945C432.922 407.945 428.741 407.945 424.434 407.945C425.732 411.28 427.031 414.614 428.368 418.049C430.075 422.466 431.782 426.883 433.54 431.434C435.23 435.794 436.921 440.154 438.662 444.646C442.929 456.294 446.552 467.897 449.773 479.793C441.411 479.793 433.049 479.793 424.434 479.793C424.434 468.85 424.434 457.907 424.434 446.632C411.891 450.28 399.348 453.928 386.425 457.686C373.395 433.613 373.395 433.613 374.943 418.308C380.833 406.449 387.984 399.794 399.094 391.365C385.656 396.315 385.656 396.315 373.755 407.945C369.563 424.447 368.231 440.822 367.42 457.686C361.933 453.753 361.933 453.753 356.334 449.741C342.551 441.39 333.047 438.119 316.742 435.579C329.411 424.526 329.411 424.526 342.081 419.69C355.691 414.432 355.691 414.432 360.393 402.807C378.245 373.742 421.13 366.207 456.108 369.259Z" fill="#82B2D4"/>
<path d="M741.176 264.251C763.264 270.383 784.093 276.76 804.524 286.358C804.524 290.006 804.524 293.654 804.524 297.412C789.891 299.235 775.257 301.059 760.18 302.938C758.09 310.234 755.999 317.529 753.846 325.045C740.646 324.263 727.449 323.451 714.253 322.627C706.903 322.178 699.554 321.73 691.982 321.267C675.865 319.892 661.613 317.965 646.153 313.992C644.063 319.463 641.972 324.935 639.819 330.572C635.638 328.748 631.457 326.924 627.149 325.045C630.355 313.059 633.483 302.94 639.819 291.885C654.525 289.634 669.319 287.771 684.162 286.358C686.253 290.006 688.343 293.654 690.497 297.412C690.497 291.94 690.497 286.469 690.497 280.832C696.507 281.174 702.518 281.515 708.71 281.868C718.509 281.355 718.509 281.355 728.506 280.832C732.687 275.36 736.868 269.889 741.176 264.251Z" fill="#3C7BB9"/>
<path d="M456.108 529.534C477.013 529.534 497.918 529.534 519.456 529.534C519.456 533.182 519.456 536.829 519.456 540.588C523.637 540.588 527.818 540.588 532.126 540.588C532.126 536.94 532.126 533.292 532.126 529.534C538.397 531.358 544.669 533.182 551.13 535.061C551.13 542.356 551.13 549.651 551.13 557.168C544.859 557.168 538.587 557.168 532.126 557.168C532.126 560.815 532.126 564.463 532.126 568.221C554.076 565.485 554.076 565.485 576.47 562.694C576.47 566.342 576.47 569.99 576.47 573.748C558.685 578.585 540.875 583.282 523.019 587.91C515.578 589.956 515.578 589.956 507.987 592.044C462.534 603.63 422.459 605.007 380.09 584.801C407.155 578.361 428.641 580.807 456.108 584.801C462.379 584.801 468.651 584.801 475.112 584.801C471.473 563.077 471.473 563.077 456.108 546.114C468.651 546.114 481.194 546.114 494.117 546.114C475.302 543.379 475.302 543.379 456.108 540.588C456.108 536.94 456.108 533.292 456.108 529.534Z" fill="#225C9D"/>
<path d="M190.046 407.944C200.498 409.768 210.951 411.592 221.72 413.471C221.72 431.709 221.72 449.947 221.72 468.738C230.082 470.562 238.444 472.386 247.059 474.265C254.978 488.427 254.978 488.427 259.729 501.898C240.915 501.898 222.1 501.898 202.715 501.898C202.715 505.546 202.715 509.193 202.715 512.952C198.012 511.926 193.308 510.9 188.462 509.843C171.359 507.469 161.879 508.247 145.702 512.952C143.612 507.48 141.521 502.009 139.367 496.372C143.548 492.724 147.729 489.076 152.037 485.318C158.308 487.142 164.58 488.966 171.041 490.845C171.352 487.639 171.662 484.433 171.982 481.13C174.82 455.257 179.264 432.401 190.046 407.944Z" fill="#1F60A9"/>
<path d="M240.724 253.198C259.538 253.198 278.353 253.198 297.737 253.198C295.647 260.493 293.556 267.789 291.402 275.305C299.764 269.834 308.126 264.362 316.742 258.725C320.923 267.844 325.104 276.963 329.411 286.358C314.778 288.182 300.144 290.006 285.068 291.885C285.068 297.357 285.068 302.828 285.068 308.465C272.596 317.84 260.446 326.125 247.059 334.372C243.433 336.669 239.807 338.967 236.072 341.334C227.104 347.006 218.082 352.612 209.05 358.206C204.869 350.91 200.688 343.615 196.38 336.099C202.651 334.275 208.923 332.451 215.384 330.572C224.686 316.482 224.686 316.482 232.409 299.83C235.178 294.237 237.946 288.645 240.798 282.883C242.864 278.558 244.93 274.234 247.059 269.778C242.878 269.778 238.697 269.778 234.389 269.778C236.479 264.307 238.57 258.835 240.724 253.198Z" fill="#86B0C5"/>
<path d="M430.769 264.252C434.728 275.651 434.728 275.651 437.103 286.359C418.694 293.304 406.721 297.412 386.425 297.412C386.425 301.06 386.425 304.707 386.425 308.466C401.058 304.818 415.692 301.17 430.769 297.412C420.905 311.203 415.164 318.437 397.387 324.096C392.071 324.865 386.755 325.635 381.278 326.427C375.7 327.24 370.123 328.052 364.377 328.888C346.242 330.802 328.652 331.41 310.407 330.572C315.633 326.355 320.859 322.137 326.244 317.792C344.238 304.297 344.238 304.297 342.081 286.359C337.9 286.359 333.719 286.359 329.411 286.359C329.411 282.711 329.411 279.064 329.411 275.305C325.23 273.482 321.049 271.658 316.742 269.779C333.365 267.78 349.993 265.829 366.628 263.907C371.356 263.333 376.085 262.76 380.956 262.169C416.664 258.099 416.664 258.099 430.769 264.252Z" fill="#4B88C0"/>
<path d="M564.593 512.608C570.358 512.658 576.123 512.708 582.063 512.759C586.489 512.823 590.915 512.888 595.475 512.954C595.475 516.601 595.475 520.249 595.475 524.007C603.576 524.463 611.676 524.919 620.022 525.389C634.028 526.835 634.028 526.835 646.154 529.534C655.656 540.933 655.656 540.933 658.823 551.641C650.461 551.641 642.099 551.641 633.484 551.641C639.755 553.464 646.027 555.288 652.488 557.167C652.488 560.815 652.488 564.463 652.488 568.221C631.095 565.251 610.066 562.082 589.14 557.167C587.05 562.639 584.959 568.11 582.805 573.747C580.715 570.1 578.624 566.452 576.471 562.694C561.837 564.518 547.204 566.342 532.127 568.221C532.127 557.167 532.127 557.167 544.796 546.114C544.796 542.466 544.796 538.819 544.796 535.06C540.615 533.237 536.434 531.413 532.127 529.534C532.127 533.181 532.127 536.829 532.127 540.587C527.946 540.587 523.765 540.587 519.457 540.587C519.457 533.292 519.457 525.997 519.457 518.48C535.451 511.504 546.773 512.409 564.593 512.608Z" fill="#3A7FBC"/>
<path d="M158.371 336.098C162.552 339.746 166.733 343.393 171.041 347.152C179.403 343.504 187.765 339.856 196.38 336.098C201.527 347.152 201.527 347.152 202.715 363.732C193.772 379.481 182.768 393.679 171.041 407.945C168.95 404.298 166.86 400.65 164.706 396.892C156.344 398.716 147.982 400.539 139.367 402.419C139.367 406.066 139.367 409.714 139.367 413.472C124.733 417.12 110.1 420.767 95.0228 424.525C92.9323 402.64 90.8418 380.754 88.688 358.205C116.04 361.012 139.576 364.819 164.706 374.785C164.706 371.137 164.706 367.49 164.706 363.732C156.344 361.908 147.982 360.084 139.367 358.205C145.638 358.205 151.91 358.205 158.371 358.205C158.371 350.91 158.371 343.614 158.371 336.098Z" fill="#5B95D0"/>
<path d="M475.114 424.527C475.506 427.605 475.898 430.682 476.301 433.853C483.563 451.883 497.247 461.482 513.123 474.267C509.203 473.241 505.283 472.215 501.245 471.158C487.52 467.431 487.52 467.431 475.114 474.267C483.476 477.915 491.838 481.562 500.453 485.321C494.181 493.528 494.181 493.528 487.783 501.901C479.421 501.901 471.059 501.901 462.444 501.901C462.444 505.548 462.444 509.196 462.444 512.954C481.258 514.778 500.073 516.602 519.457 518.481C519.457 522.128 519.457 525.776 519.457 529.534C498.553 529.534 477.648 529.534 456.109 529.534C456.109 533.182 456.109 536.829 456.109 540.588C474.924 540.588 493.738 540.588 513.123 540.588C494.118 551.641 494.118 551.641 468.779 551.641C470.869 557.112 472.96 562.584 475.114 568.221C459.672 563.731 459.672 563.731 443.439 557.168C441.349 551.696 439.258 546.225 437.105 540.588C426.652 540.588 416.2 540.588 405.431 540.588C407.521 536.94 409.611 533.292 411.765 529.534C401.313 524.063 390.86 518.591 380.091 512.954C400.367 504.11 416.344 512.779 437.105 518.481C435.014 513.009 432.924 507.538 430.77 501.901C426.066 503.269 421.363 504.636 416.516 506.046C399.096 507.427 399.096 507.427 384.05 498.101C373.756 485.321 373.756 485.321 373.756 473.922C381.855 460.232 390.278 454.41 405.431 446.634C411.702 446.634 417.973 446.634 424.435 446.634C426.525 457.577 428.616 468.519 430.77 479.794C434.951 479.794 439.132 479.794 443.439 479.794C441.218 475.576 438.997 471.359 436.709 467.013C430.77 452.16 430.77 452.16 437.105 435.58C441.286 444.699 445.467 453.818 449.774 463.214C457.986 457.32 457.986 457.32 456.505 443.525C456.374 439.079 456.244 434.634 456.109 430.054C462.381 428.23 468.652 426.406 475.114 424.527Z" fill="#4A85B8"/>
<path d="M494.117 358.205C494.664 362.337 495.212 366.469 495.775 370.727C500.721 404.792 500.721 404.792 521.04 433.161C562.224 451.943 599.724 454.318 645.361 455.613C651.535 455.827 657.708 456.041 664.069 456.261C679.212 456.779 694.355 457.253 709.501 457.686C712.857 466.651 716.144 475.635 719.4 484.628C721.237 489.63 723.074 494.631 724.967 499.784C728.506 512.953 728.506 512.953 722.171 524.006C718.774 521.27 715.377 518.535 711.877 515.716C693.072 505.354 680.658 506.127 658.823 507.426C658.823 503.778 658.823 500.131 658.823 496.373C627.465 499.108 627.465 499.108 595.475 501.899C595.475 498.252 595.475 494.604 595.475 490.846C591.294 490.846 587.113 490.846 582.805 490.846C584.895 483.551 586.986 476.255 589.14 468.739C584.33 468.468 579.52 468.198 574.565 467.919C565.121 467.299 565.121 467.299 555.486 466.667C549.239 466.282 542.992 465.897 536.556 465.501C519.457 463.212 519.457 463.212 500.452 452.159C489.627 432.939 484.586 413.747 480.26 392.747C479.125 387.418 477.99 382.089 476.82 376.599C476.257 372.353 475.693 368.107 475.113 363.732C481.448 358.205 481.448 358.205 494.117 358.205Z" fill="#3879B8"/>
<path d="M494.117 352.679C490.786 357.274 490.786 357.274 487.386 361.962C479.841 378.255 482.72 386.297 487.782 403.11C492.138 417.661 492.138 417.661 494.117 430.053C489.936 433.7 485.755 437.348 481.448 441.106C479.357 437.459 477.267 433.811 475.113 430.053C468.841 430.053 462.57 430.053 456.108 430.053C458.199 440.996 460.289 451.939 462.443 463.213C458.262 463.213 454.081 463.213 449.773 463.213C445.519 456.088 441.303 448.946 437.104 441.797C434.752 437.822 432.4 433.846 429.977 429.751C424.434 418.999 424.434 418.999 424.434 407.946C428.615 404.298 432.796 400.651 437.104 396.893C432.923 395.069 428.742 393.245 424.434 391.366C422.344 387.718 420.253 384.071 418.099 380.313C414.702 381.11 411.305 381.908 407.805 382.73C390.231 386.362 372.582 388.891 354.751 391.366C363.113 384.071 371.475 376.775 380.09 369.259C375.909 367.435 371.728 365.612 367.421 363.732C371.602 354.613 375.783 345.494 380.09 336.099C428.324 329.787 450.312 332.702 494.117 352.679Z" fill="#5B90B8"/>
<path d="M367.42 330.573C367.42 334.221 367.42 337.868 367.42 341.627C371.601 343.45 375.782 345.274 380.089 347.153C373.818 355.36 373.818 355.36 367.42 363.733C373.691 365.557 379.963 367.381 386.424 369.26C378.062 374.732 369.7 380.203 361.085 385.84C363.175 391.312 365.266 396.783 367.42 402.42C359.893 416.428 352.337 423.032 336.067 429.233C327.03 432.036 317.93 434.691 308.773 437.178C296.439 440.335 296.439 440.335 291.402 452.161C287.221 452.161 283.04 452.161 278.732 452.161C278.732 437.57 278.732 422.98 278.732 407.947C274.551 407.947 270.37 407.947 266.062 407.947C263.972 411.595 261.881 415.242 259.728 419C261.818 406.234 263.909 393.467 266.062 380.314C270.243 380.314 274.424 380.314 278.732 380.314C278.732 383.961 278.732 387.609 278.732 391.367C293.641 386.492 293.641 386.492 297.737 369.26C289.375 367.436 281.013 365.613 272.397 363.733C276.578 363.733 280.759 363.733 285.067 363.733C287.157 358.262 289.248 352.791 291.402 347.153C299.764 350.801 308.126 354.449 316.741 358.207C319.093 352.906 319.093 352.906 321.492 347.499C329.411 336.1 329.411 336.1 342.08 331.955C354.75 330.573 354.75 330.573 367.42 330.573Z" fill="#3076BC"/>
<path d="M354.752 280.833C350.571 284.481 346.39 288.128 342.082 291.886C342.082 297.358 342.082 302.829 342.082 308.467C329.412 317.793 329.412 317.793 316.743 325.047C328.904 323.744 341.064 322.433 353.217 321.074C366.252 319.648 379.308 318.368 392.365 317.102C398.767 316.076 405.169 315.05 411.765 313.993C413.856 310.346 415.946 306.698 418.1 302.94C407.647 304.764 397.195 306.587 386.426 308.467C386.426 304.819 386.426 301.171 386.426 297.413C404.835 290.468 416.808 286.36 437.104 286.36C437.723 320.362 437.723 320.362 437.104 330.573C426.567 339.767 413.142 338.092 398.7 339.209C392.877 339.672 387.055 340.135 381.056 340.612C376.557 340.947 372.057 341.282 367.421 341.627C367.421 337.979 367.421 334.331 367.421 330.573C336.943 339.005 336.943 339.005 316.743 358.207C308.381 358.207 300.019 358.207 291.403 358.207C292.449 353.989 293.494 349.772 294.571 345.426C298.764 325.762 297.428 310.941 291.403 291.886C299.562 288.957 307.75 286.09 315.951 283.251C320.507 281.648 325.064 280.045 329.759 278.393C342.082 275.306 342.082 275.306 354.752 280.833Z" fill="#296AB1"/>
<path d="M652.488 535.061C692.15 532.674 710.077 535.462 741.176 557.167C734.905 560.815 728.633 564.463 722.172 568.221C728.443 570.045 734.715 571.868 741.176 573.748C741.176 575.571 741.176 577.395 741.176 579.274C716.09 579.274 691.004 579.274 665.158 579.274C669.339 582.922 673.52 586.569 677.828 590.328C641.997 593.454 619.38 583.22 589.14 568.221C589.14 564.573 589.14 560.926 589.14 557.167C610.533 560.137 631.563 563.306 652.488 568.221C652.488 564.573 652.488 560.926 652.488 557.167C642.036 555.344 631.583 553.52 620.814 551.641C624.865 550.957 628.915 550.273 633.088 549.568C639.555 547.858 639.555 547.858 646.154 546.114C648.244 542.466 650.335 538.819 652.488 535.061Z" fill="#2362A7"/>
<path d="M603.096 452.289C609.302 452.573 615.508 452.858 621.903 453.152C631.555 453.686 631.555 453.686 641.402 454.232C651.201 454.702 651.201 454.702 661.198 455.181C677.304 455.962 693.403 456.799 709.501 457.686C709.501 461.333 709.501 464.981 709.501 468.739C703.23 468.739 696.959 468.739 690.497 468.739C690.497 472.387 690.497 476.034 690.497 479.792C669.592 476.145 648.687 472.497 627.149 468.739C644.982 481.325 644.982 481.325 665.158 479.792C677.654 483.851 677.654 483.851 690.893 489.464C695.278 491.26 699.663 493.055 704.181 494.905C717.966 503.177 722.294 510.64 728.506 524.006C724.064 521.27 719.621 518.535 715.044 515.716C694.48 506.356 681.67 506.035 658.823 507.426C658.823 503.778 658.823 500.131 658.823 496.373C637.918 498.196 617.013 500.02 595.475 501.899C595.475 498.252 595.475 494.604 595.475 490.846C591.294 490.846 587.113 490.846 582.805 490.846C584.895 483.551 586.986 476.255 589.14 468.739C574.506 466.915 559.873 465.091 544.796 463.212C565.317 452.507 579.386 451.086 603.096 452.289Z" fill="#3074B8"/>
<path d="M285.067 291.886C286.897 295.419 288.726 298.953 290.61 302.594C296.649 314.833 296.649 314.833 310.407 319.519C302.045 334.11 293.683 348.7 285.067 363.733C278.796 363.733 272.524 363.733 266.063 363.733C266.063 367.38 266.063 371.028 266.063 374.786C259.791 376.61 253.52 378.434 247.058 380.313C242.413 391.45 242.413 391.45 240.724 402.42C236.5 391.366 232.277 380.313 228.054 369.26C217.601 380.202 207.149 391.145 196.38 402.42C194.289 398.772 192.199 395.124 190.045 391.366C194.749 386.408 194.749 386.408 199.547 381.349C210.841 369.424 210.841 369.424 209.049 352.679C222.461 341.389 222.461 341.389 239.932 329.536C245.664 325.582 251.397 321.628 257.303 317.555C272.398 308.466 272.398 308.466 285.067 308.466C285.067 302.994 285.067 297.523 285.067 291.886Z" fill="#4A8EC6"/>
<path d="M1076.92 242.145C1093.55 244.217 1093.55 244.217 1108.6 247.671C1108.6 251.319 1108.6 254.966 1108.6 258.725C1116.7 259.181 1124.8 259.637 1133.14 260.106C1147.15 261.553 1147.15 261.553 1159.28 264.251C1168.78 275.65 1168.78 275.65 1171.94 286.358C1160.22 296.589 1141.43 294.265 1125.62 295.339C1118.33 295.866 1111.04 296.393 1103.52 296.937C1086.29 297.34 1074.09 296.554 1057.92 291.885C1062.67 254.58 1062.67 254.58 1076.92 242.145Z" fill="#B4C4D2"/>
<path d="M564.591 512.608C570.357 512.658 576.122 512.708 582.062 512.759C588.701 512.856 588.701 512.856 595.474 512.954C595.474 516.601 595.474 520.249 595.474 524.007C603.574 524.463 611.675 524.919 620.021 525.389C634.027 526.835 634.027 526.835 646.152 529.534C655.655 540.933 655.655 540.933 658.822 551.641C650.46 551.641 642.098 551.641 633.483 551.641C639.754 553.464 646.026 555.288 652.487 557.167C652.487 560.815 652.487 564.463 652.487 568.221C631.094 565.251 610.065 562.082 589.139 557.167C587.048 562.639 584.958 568.11 582.804 573.747C580.714 570.1 578.623 566.452 576.469 562.694C535.705 565.43 535.705 565.43 494.116 568.221C494.116 564.573 494.116 560.925 494.116 557.167C500.388 557.167 506.659 557.167 513.121 557.167C513.121 551.696 513.121 546.224 513.121 540.587C494.306 540.587 475.492 540.587 456.107 540.587C456.107 536.94 456.107 533.292 456.107 529.534C477.012 529.534 497.917 529.534 519.456 529.534C519.456 525.886 519.456 522.239 519.456 518.48C535.45 511.504 546.772 512.409 564.591 512.608Z" fill="#387BB8"/>
<path d="M462.443 341.627C477.076 343.451 491.71 345.275 506.787 347.154C507.828 354.046 507.828 354.046 508.89 361.078C510.397 370.087 510.397 370.087 511.934 379.278C513.367 388.222 513.367 388.222 514.829 397.347C519.615 414.027 523.045 419.857 538.461 430.054C566.341 442.216 604.057 436.851 634.671 436.963C646.265 437.134 646.265 437.134 658.093 437.308C699.035 437.463 730.628 436.943 766.515 419.001C768.605 417.177 770.696 415.353 772.85 413.474C783.404 413.249 793.969 413.238 804.524 413.474C808.705 422.593 812.886 431.712 817.193 441.108C838.098 442.931 859.003 444.755 880.542 446.634C880.542 448.458 880.542 450.282 880.542 452.161C868.14 452.608 855.733 452.93 843.325 453.197C832.962 453.486 832.962 453.486 822.39 453.78C816.494 453.246 810.598 452.711 804.524 452.161C800.343 446.69 796.162 441.218 791.854 435.581C784.366 438.267 776.878 440.953 769.162 443.72C727.304 455.85 685.498 454.79 641.798 454.579C629.518 454.745 629.518 454.745 616.99 454.914C563.56 454.889 538.261 451.987 500.452 419.001C493.216 396.906 493.603 375.533 494.117 352.68C483.665 350.857 473.212 349.033 462.443 347.154C462.443 345.33 462.443 343.506 462.443 341.627Z" fill="#C0D1DF"/>
<path d="M867.872 518.48C868.593 555.874 867.113 591.921 861.537 629.014C859.447 625.367 857.356 621.719 855.203 617.961C840.086 614.579 826.472 612.434 810.859 612.434C812.949 616.082 815.04 619.73 817.194 623.488C798.431 620.101 789.443 616.559 772.85 606.908C771.662 589.637 771.662 589.637 772.85 573.747C766.578 573.747 760.307 573.747 753.845 573.747C751.885 567.592 749.926 561.437 747.906 555.095C742.295 536.196 742.295 536.196 734.841 524.007C753.603 527.394 762.591 530.936 779.185 540.587C794.482 543.354 794.482 543.354 810.859 540.587C843.325 518.48 843.325 518.48 867.872 518.48ZM855.203 524.007C842.29 531.048 829.619 538.435 817.194 546.114C817.194 549.762 817.194 553.409 817.194 557.167C804.651 557.167 792.108 557.167 779.185 557.167C781.275 569.934 783.366 582.701 785.519 595.854C793.881 595.854 802.243 595.854 810.859 595.854C810.859 590.383 810.859 584.911 810.859 579.274C815.04 577.45 819.221 575.627 823.528 573.747C823.528 577.395 823.528 581.043 823.528 584.801C831.89 586.625 840.252 588.448 848.868 590.328C848.868 586.68 848.868 583.032 848.868 579.274C844.687 579.274 840.506 579.274 836.198 579.274C836.198 573.803 836.198 568.331 836.198 562.694C840.379 562.694 844.56 562.694 848.868 562.694C850.958 566.342 853.049 569.989 855.203 573.747C855.203 568.276 855.203 562.805 855.203 557.167C851.022 557.167 846.841 557.167 842.533 557.167C848.804 549.872 855.076 542.577 861.537 535.061C859.447 531.413 857.356 527.765 855.203 524.007Z" fill="#3779B6"/>
<path d="M791.854 441.105C796.209 452.504 796.209 452.504 798.189 463.211C794.008 465.035 789.827 466.859 785.519 468.738C807.469 466.002 807.469 466.002 829.863 463.211C823.591 468.683 817.32 474.154 810.858 479.792C815.039 481.615 819.22 483.439 823.528 485.318C821.438 494.437 819.347 503.556 817.193 512.952C802.544 513.988 802.544 513.988 785.519 512.952C776.017 505.353 776.017 505.353 766.515 496.372C750.049 489.793 750.049 489.793 734.84 485.318C734.84 488.966 734.84 492.614 734.84 496.372C730.659 496.372 726.479 496.372 722.171 496.372C717.99 483.605 713.809 470.838 709.501 457.685C665.601 457.685 621.7 457.685 576.47 457.685C576.47 455.861 576.47 454.037 576.47 452.158C583.367 451.994 583.367 451.994 590.404 451.826C611.365 451.298 632.322 450.692 653.28 450.086C660.515 449.915 667.75 449.744 675.204 449.567C682.227 449.354 689.249 449.14 696.485 448.92C702.921 448.746 709.357 448.572 715.988 448.394C735.389 447.191 735.389 447.191 755.054 440.616C772.849 435.578 772.849 435.578 791.854 441.105Z" fill="#7CACCC"/>
<path d="M152.036 525.387C159.875 527.824 159.875 527.824 167.873 530.309C196.668 538.945 217.355 541.722 247.058 535.059C247.058 538.707 247.058 542.354 247.058 546.112C243.008 546.796 238.957 547.48 234.784 548.185C230.473 549.325 226.161 550.465 221.719 551.639C219.628 555.287 217.538 558.934 215.384 562.692C186.644 563.676 165.289 562.947 139.366 551.639C137.275 549.815 135.185 547.991 133.031 546.112C120.316 547.697 107.637 549.531 95.0221 551.639C95.0221 553.463 95.0221 555.287 95.0221 557.166C74.1172 555.342 53.2122 553.518 31.6738 551.639C33.7643 544.344 35.8548 537.049 38.0087 529.532C45.7174 530.786 53.4261 532.04 61.3683 533.332C83.9476 536.142 83.9476 536.142 103.733 526.078C124.602 516.541 130.064 519.45 152.036 525.387Z" fill="#357DC4"/>
<path d="M742.759 539.897C753.845 551.641 753.845 551.641 753.845 573.748C760.117 573.748 766.388 573.748 772.85 573.748C773.111 578.763 773.372 583.779 773.642 588.946C777.402 608.453 777.402 608.453 798.585 619.688C804.726 622.766 810.867 625.844 817.194 629.015C817.194 630.838 817.194 632.662 817.194 634.541C800.47 634.541 783.746 634.541 766.515 634.541C770.696 630.894 774.877 627.246 779.185 623.488C772.913 619.84 766.642 616.193 760.18 612.434C760.18 608.787 760.18 605.139 760.18 601.381C756.554 600.59 752.929 599.799 749.193 598.985C716.678 591.893 716.678 591.893 684.162 584.801C684.162 582.977 684.162 581.153 684.162 579.274C700.886 577.45 717.61 575.627 734.841 573.748C730.66 571.924 726.479 570.1 722.171 568.221C724.262 564.573 726.352 560.926 728.506 557.167C706.383 539.378 686.643 537.112 657.239 534.024C649.236 533.148 641.234 532.272 632.989 531.369C626.88 530.763 620.772 530.158 614.479 529.534C614.479 527.71 614.479 525.886 614.479 524.007C657.876 514.333 704.088 520.432 742.759 539.897Z" fill="#134E97"/>
<path d="M576.47 452.158C600.356 451.517 624.239 451.124 648.132 450.776C654.923 450.591 661.713 450.406 668.708 450.215C675.221 450.144 681.733 450.073 688.443 449.999C694.447 449.883 700.452 449.768 706.638 449.648C722.171 452.158 722.171 452.158 732.94 462.893C735.657 466.646 738.375 470.398 741.175 474.265C770.478 490.055 797.282 484.034 829.863 479.792C811.048 479.792 792.234 479.792 772.849 479.792C772.849 474.32 772.849 468.849 772.849 463.212C777.03 464.351 781.211 465.491 785.519 466.666C811.468 469.496 830.131 463.987 855.202 457.685C859.383 464.98 863.564 472.275 867.872 479.792C863.691 485.263 859.51 490.734 855.202 496.372C846.84 494.548 838.478 492.724 829.863 490.845C827.772 496.316 825.682 501.788 823.528 507.425C819.347 503.778 815.166 500.13 810.858 496.372C804.587 498.196 798.315 500.019 791.854 501.898C794.99 507.37 794.99 507.37 798.189 512.952C777.073 503.741 755.957 494.529 734.84 485.318C734.84 488.966 734.84 492.614 734.84 496.372C730.66 496.372 726.479 496.372 722.171 496.372C717.99 483.605 713.809 470.838 709.501 457.685C665.601 457.685 621.7 457.685 576.47 457.685C576.47 455.861 576.47 454.037 576.47 452.158Z" fill="#8BB6CD"/>
<path d="M793.734 434.933C797.295 436.97 800.855 439.008 804.523 441.107C804.523 444.755 804.523 448.403 804.523 452.161C823.338 454.896 823.338 454.896 842.532 457.687C823.738 466.797 806.701 471.188 785.519 474.268C793.881 474.268 802.243 474.268 810.858 474.268C821.416 474.268 831.974 474.268 842.532 474.268C825.219 489.372 811.35 489.15 787.573 491.02C765.814 490.765 752.434 485.124 734.84 474.268C727.491 462.588 727.491 462.588 722.17 452.161C731.083 448.14 740.073 444.25 749.093 440.416C754.091 438.236 759.089 436.056 764.238 433.81C779.184 430.054 779.184 430.054 793.734 434.933Z" fill="#5D96C4"/>
<path d="M487.782 430.052C491.963 431.876 496.144 433.699 500.452 435.578C500.452 441.05 500.452 446.521 500.452 452.159C509.149 453.259 509.149 453.259 518.021 454.382C525.55 455.358 533.079 456.334 540.837 457.34C552.081 458.783 552.081 458.783 563.553 460.254C582.805 463.212 582.805 463.212 595.474 468.739C582.805 479.792 582.805 479.792 570.482 480.871C557.696 480.512 544.911 480.152 532.126 479.792C532.126 483.44 532.126 487.087 532.126 490.845C546.76 490.845 561.393 490.845 576.47 490.845C576.47 494.493 576.47 498.141 576.47 501.899C516.859 509.264 516.859 509.264 487.782 501.899C489.873 496.427 491.963 490.956 494.117 485.319C485.755 481.671 477.393 478.024 468.778 474.265C477.14 470.618 485.502 466.97 494.117 463.212C487.846 457.741 481.574 452.269 475.113 446.632C481.447 435.578 481.447 435.578 487.782 430.052Z" fill="#649ABE"/>
<path d="M399.095 385.839C403.276 387.663 407.457 389.487 411.764 391.366C401.312 398.661 390.859 405.957 380.09 413.473C383.168 430.732 386.416 446.61 392.76 463.213C388.579 463.213 384.398 463.213 380.09 463.213C382.181 474.156 384.271 485.099 386.425 496.373C378.063 496.373 369.701 496.373 361.086 496.373C361.086 501.845 361.086 507.316 361.086 512.953C350.633 514.777 340.181 516.601 329.412 518.48C327.321 514.833 325.231 511.185 323.077 507.427C329.412 496.373 329.412 496.373 348.416 490.847C326.028 479.127 304.427 476.853 278.733 474.267C285.068 463.213 285.068 463.213 295.362 458.723C318.512 457.128 333.971 465.551 354.751 474.267C358.406 463.335 361.028 453.006 361.803 441.624C363.507 418.863 364.14 410.739 383.654 394.129C388.749 391.394 393.845 388.658 399.095 385.839Z" fill="#458ECF"/>
<path d="M342.082 485.32C346.263 488.967 350.444 492.615 354.751 496.373C346.389 496.373 338.027 496.373 329.412 496.373C327.322 503.668 325.231 510.964 323.077 518.48C335.62 522.128 348.163 525.775 361.086 529.533C348.543 535.005 348.543 535.005 335.747 540.587C346.199 549.706 356.652 558.825 367.421 568.22C331.485 569.842 310.467 568.251 278.733 551.64C278.733 547.993 278.733 544.345 278.733 540.587C287.095 538.763 295.457 536.939 304.073 535.06C289.439 535.06 274.806 535.06 259.729 535.06C257.638 529.589 255.548 524.117 253.394 518.48C275.344 515.744 275.344 515.744 297.738 512.953C295.647 509.306 293.557 505.658 291.403 501.9C301.855 501.9 312.308 501.9 323.077 501.9C323.077 498.252 323.077 494.605 323.077 490.847C329.349 489.023 335.62 487.199 342.082 485.32Z" fill="#2C78C0"/>
<path d="M456.108 369.259C447.746 374.73 439.384 380.201 430.769 385.839C437.04 385.839 443.312 385.839 449.773 385.839C445.592 393.134 441.411 400.429 437.103 407.945C432.922 407.945 428.741 407.945 424.434 407.945C425.732 411.28 427.031 414.614 428.368 418.049C430.075 422.466 431.782 426.883 433.54 431.434C435.23 435.794 436.921 440.154 438.662 444.646C442.929 456.294 446.552 467.897 449.773 479.793C441.411 479.793 433.049 479.793 424.434 479.793C424.434 468.85 424.434 457.907 424.434 446.632C411.891 450.28 399.348 453.928 386.425 457.686C373.395 433.613 373.395 433.613 374.943 418.308C380.833 406.449 387.984 399.794 399.094 391.365C385.656 396.315 385.656 396.315 373.755 407.945C369.563 424.447 368.231 440.822 367.42 457.686C361.933 453.753 361.933 453.753 356.334 449.741C342.551 441.39 333.047 438.119 316.742 435.579C329.411 424.526 329.411 424.526 342.081 419.69C355.691 414.432 355.691 414.432 360.393 402.807C378.245 373.742 421.13 366.207 456.108 369.259Z" fill="#82B2D4"/>
<path d="M297.738 225.566C313.373 231.931 323.381 236.884 335.747 247.673C360.132 248.949 382.978 247.43 407.014 244.219C430.77 242.146 430.77 242.146 449.774 253.199C450.962 267.707 450.962 267.707 449.774 280.833C453.003 278.826 456.232 276.819 459.559 274.752C501.702 251.18 534.25 250.49 583.202 254.236C589.894 254.624 596.586 255.012 603.48 255.412C619.835 256.381 636.159 257.488 652.489 258.726C650.398 262.374 648.308 266.021 646.154 269.78C641.84 269.86 637.526 269.941 633.081 270.024C613.547 270.435 594.021 270.969 574.491 271.507C567.701 271.631 560.911 271.756 553.915 271.884C547.403 272.08 540.891 272.276 534.181 272.478C528.176 272.623 522.172 272.768 515.985 272.917C497.977 275.687 493.239 280.201 481.448 291.886C477.267 291.886 473.086 291.886 468.779 291.886C470.869 301.005 472.96 310.124 475.114 319.52C487.656 321.344 500.199 323.167 513.123 325.047C513.123 326.87 513.123 328.694 513.123 330.573C481.765 333.309 481.765 333.309 449.774 336.1C437.523 314.723 435.629 307.637 436.313 284.978C436.427 280.048 436.541 275.118 436.659 270.039C436.806 266.305 436.953 262.572 437.105 258.726C417.789 253.138 417.789 253.138 399.096 258.726C386.721 259.686 374.298 260.202 361.878 260.453C351.908 260.763 351.908 260.763 341.736 261.079C318.866 258.195 311.628 252.396 297.738 236.619C297.738 232.972 297.738 229.324 297.738 225.566Z" fill="#B5C7D3"/>
<path d="M190.046 407.944C200.498 409.768 210.951 411.592 221.72 413.471C221.72 431.709 221.72 449.947 221.72 468.738C230.082 470.562 238.444 472.386 247.059 474.265C254.978 488.427 254.978 488.427 259.729 501.898C240.915 501.898 222.1 501.898 202.715 501.898C202.715 505.546 202.715 509.193 202.715 512.952C183.901 512.952 165.087 512.952 145.702 512.952C143.612 507.48 141.521 502.009 139.367 496.372C143.548 492.724 147.729 489.076 152.037 485.318C158.308 487.142 164.58 488.966 171.041 490.845C171.352 487.639 171.662 484.433 171.982 481.13C174.82 455.257 179.264 432.401 190.046 407.944Z" fill="#1C5FAD"/>
<path d="M316.742 584.8C341.828 584.8 366.914 584.8 392.76 584.8C394.85 588.448 396.941 592.095 399.094 595.853C436.103 608.768 475.407 601.868 512.33 593.09C558.947 582.241 601.47 577.509 646.153 595.853C654.515 595.853 662.877 595.853 671.492 595.853C671.492 601.325 671.492 606.796 671.492 612.433C663.13 610.61 654.768 608.786 646.153 606.907C646.153 612.378 646.153 617.85 646.153 623.487C617.931 626.223 617.931 626.223 589.139 629.014C586.004 615.335 586.004 615.335 582.805 601.38C574.879 602.481 574.879 602.481 566.794 603.604C559.665 604.58 552.536 605.556 545.192 606.561C538.21 607.523 531.228 608.485 524.034 609.476C516.252 610.452 508.47 611.428 500.452 612.433C493.811 613.4 493.811 613.4 487.035 614.386C450.169 619.086 419.661 615.659 383.653 607.943C378.578 606.956 373.503 605.97 368.274 604.953C331.187 597.402 331.187 597.402 316.742 584.8Z" fill="#919FA3"/>
<path d="M361.085 496.373C372.441 496.704 383.791 497.195 395.135 497.755C404.616 498.139 404.616 498.139 414.288 498.532C419.727 499.643 425.165 500.755 430.769 501.9C434.95 509.195 439.13 516.49 443.438 524.007C424.624 520.359 405.809 516.711 386.425 512.953C398.968 518.425 411.511 523.896 424.434 529.533C422.343 535.005 420.253 540.476 418.099 546.113C409.737 546.113 401.375 546.113 392.76 546.113C394.85 553.409 396.941 560.704 399.094 568.22C390.732 566.396 382.37 564.573 373.755 562.693C373.755 559.046 373.755 555.398 373.755 551.64C369.574 551.64 365.393 551.64 361.085 551.64C361.085 547.992 361.085 544.345 361.085 540.587C352.691 536.925 344.244 533.354 335.746 529.879C323.076 524.007 323.076 524.007 310.407 512.953C327.131 512.953 343.855 512.953 361.085 512.953C361.085 507.482 361.085 502.01 361.085 496.373Z" fill="#236BB6"/>
<path d="M297.738 242.145C304.469 252.162 304.469 252.162 310.408 264.252C308.318 269.723 306.227 275.195 304.073 280.832C295.711 279.008 287.349 277.184 278.734 275.305C282.915 275.305 287.096 275.305 291.404 275.305C291.404 271.658 291.404 268.01 291.404 264.252C274.244 256.766 259.67 258.366 240.725 258.725C238.634 262.373 236.544 266.02 234.39 269.778C238.571 269.778 242.752 269.778 247.06 269.778C238.613 291.885 230.167 313.992 221.72 336.099C209.051 330.572 209.051 330.572 203.928 319.109C196.769 293.154 193.827 280.093 207.071 255.271C231.524 234.057 265.88 239.516 297.738 242.145Z" fill="#4D8AC5"/>
<path d="M158.372 396.893C166.29 433.507 166.29 433.507 152.037 452.16C149.266 461.635 146.915 471.208 144.91 480.829C143.849 485.809 142.787 490.789 141.693 495.92C140.926 499.717 140.158 503.514 139.367 507.427C133.096 505.603 126.824 503.779 120.363 501.9C120.363 498.252 120.363 494.605 120.363 490.846C124.544 490.846 128.725 490.846 133.032 490.846C128.982 484.577 124.932 478.308 120.759 471.848C118.48 468.322 116.202 464.795 113.855 461.162C108.344 452.277 108.344 452.277 101.358 446.633C101.099 433.739 101.089 420.839 101.358 407.946C103.449 411.594 105.539 415.241 107.693 418.999C118.145 417.176 128.598 415.352 139.367 413.473C139.367 409.825 139.367 406.177 139.367 402.419C152.037 396.893 152.037 396.893 158.372 396.893Z" fill="#296EB7"/>
<path d="M228.054 363.732C232.235 371.027 236.416 378.322 240.724 385.839C244.905 378.543 249.086 371.248 253.393 363.732C253.393 367.38 253.393 371.027 253.393 374.785C257.574 374.785 261.755 374.785 266.063 374.785C268.154 371.138 270.244 367.49 272.398 363.732C280.76 365.556 289.122 367.38 297.737 369.259C295.647 376.554 293.556 383.849 291.402 391.365C287.221 391.365 283.04 391.365 278.733 391.365C278.733 387.718 278.733 384.07 278.733 380.312C274.552 380.312 270.371 380.312 266.063 380.312C265.295 383.71 264.528 387.109 263.737 390.61C262.145 397.31 262.145 397.31 260.52 404.146C258.977 410.782 258.977 410.782 257.402 417.552C253.393 430.052 253.393 430.052 240.724 446.632C236.543 446.632 232.362 446.632 228.054 446.632C228.054 435.69 228.054 424.747 228.054 413.472C217.602 413.472 207.149 413.472 196.38 413.472C200.013 392.077 212.135 379.86 228.054 363.732Z" fill="#1A56A0"/>
<path d="M627.148 490.847C637.762 492.428 648.331 494.261 658.823 496.373C658.823 500.021 658.823 503.669 658.823 507.427C664.441 506.173 670.059 504.919 675.848 503.627C701.269 501.535 708.709 504.845 728.506 518.48C743.155 533.333 743.155 533.333 753.845 546.114C749.787 544.981 745.728 543.848 741.547 542.681C692.129 529.252 647.161 523.216 595.474 524.007C595.474 520.359 595.474 516.712 595.474 512.953C591.293 511.13 587.112 509.306 582.805 507.427C592.016 504.862 592.016 504.862 601.413 502.245C619.804 498.058 619.804 498.058 627.148 490.847Z" fill="#4E95D2"/>
<path d="M747.509 490.847C761.248 493.643 772.847 496.372 785.518 501.9C789.699 500.076 793.88 498.252 798.188 496.373C802.369 494.55 806.55 492.726 810.858 490.847C815.039 492.67 819.22 494.494 823.527 496.373C817.256 507.316 810.984 518.259 804.523 529.534C806.875 526.798 809.226 524.062 811.649 521.244C828.259 509.651 840.875 511.752 861.536 512.953C814.498 546.227 814.498 546.227 788.686 545.423C766.514 540.587 766.514 540.587 754.24 529.188C752.019 525.655 749.798 522.121 747.509 518.48C751.69 518.48 755.871 518.48 760.179 518.48C760.179 514.833 760.179 511.185 760.179 507.427C755.998 507.427 751.817 507.427 747.509 507.427C747.509 501.955 747.509 496.484 747.509 490.847Z" fill="#81A9B7"/>
<path d="M658.823 573.749C667.185 573.749 675.547 573.749 684.162 573.749C684.162 577.396 684.162 581.044 684.162 584.802C688.057 585.073 691.952 585.343 695.966 585.622C701.086 586.036 706.206 586.449 711.481 586.874C719.088 587.452 719.088 587.452 726.848 588.04C741.175 590.329 741.175 590.329 760.18 601.382C760.18 605.03 760.18 608.677 760.18 612.435C768.542 616.083 776.904 619.731 785.519 623.489C766.515 634.542 766.515 634.542 751.519 633.312C733.901 628.773 718.697 622.882 702.375 615.544C697.001 613.158 691.628 610.771 686.092 608.312C671.492 601.382 671.492 601.382 652.488 590.329C656.669 588.505 660.85 586.681 665.157 584.802C663.067 581.154 660.976 577.507 658.823 573.749Z" fill="#3074B8"/>
<path d="M215.385 358.205C213.425 361.283 211.465 364.36 209.446 367.531C202.268 381.161 199.268 393.19 196.381 407.945C192.717 426.668 187.334 440.867 177.376 457.686C174.95 468.69 172.777 479.743 171.041 490.846C162.679 489.022 154.317 487.198 145.702 485.319C144.437 461.585 148.14 446.283 158.372 424.525C159.436 409.554 159.436 409.554 158.372 396.892C162.553 396.892 166.734 396.892 171.041 396.892C179.791 386.02 188.24 374.958 196.381 363.732C202.715 358.205 202.715 358.205 215.385 358.205Z" fill="#327CC5"/>
<path d="M240.724 253.198C259.538 253.198 278.353 253.198 297.737 253.198C295.647 260.493 293.556 267.789 291.402 275.305C299.764 269.834 308.126 264.362 316.742 258.725C320.923 267.844 325.104 276.963 329.411 286.358C314.778 288.182 300.144 290.006 285.068 291.885C285.068 297.357 285.068 302.828 285.068 308.465C272.596 317.84 260.446 326.125 247.059 334.372C243.433 336.669 239.807 338.967 236.072 341.334C227.104 347.006 218.082 352.612 209.05 358.206C204.869 350.91 200.688 343.615 196.38 336.099C202.651 334.275 208.923 332.451 215.384 330.572C224.686 316.482 224.686 316.482 232.409 299.83C235.178 294.237 237.946 288.645 240.798 282.883C242.864 278.558 244.93 274.234 247.059 269.778C242.878 269.778 238.697 269.778 234.389 269.778C236.479 264.307 238.57 258.835 240.724 253.198Z" fill="#86B0C5"/>
<path d="M430.769 264.252C434.728 275.651 434.728 275.651 437.103 286.359C418.694 293.304 406.721 297.412 386.425 297.412C386.425 301.06 386.425 304.707 386.425 308.466C401.058 304.818 415.692 301.17 430.769 297.412C420.905 311.203 415.164 318.437 397.387 324.096C392.071 324.865 386.755 325.635 381.278 326.427C375.7 327.24 370.123 328.052 364.377 328.888C346.242 330.802 328.652 331.41 310.407 330.572C315.633 326.355 320.859 322.137 326.244 317.792C344.238 304.297 344.238 304.297 342.081 286.359C337.9 286.359 333.719 286.359 329.411 286.359C329.411 282.711 329.411 279.064 329.411 275.305C325.23 273.482 321.049 271.658 316.742 269.779C333.365 267.78 349.993 265.829 366.628 263.907C371.356 263.333 376.085 262.76 380.956 262.169C416.664 258.099 416.664 258.099 430.769 264.252Z" fill="#4B88C0"/>
<path d="M1110.57 237.654C1118.28 239.136 1125.99 240.618 1133.93 242.145C1136.02 249.44 1138.11 256.735 1140.27 264.252C1148.63 266.076 1156.99 267.899 1165.61 269.778C1163.52 277.074 1161.43 284.369 1159.27 291.885C1124.24 295.811 1092.76 299.085 1057.92 291.885C1052.77 279.796 1052.77 279.796 1051.58 264.252C1068.71 242.077 1080.5 234.34 1110.57 237.654Z" fill="#AEBFCF"/>
<path d="M456.109 546.112C474.923 546.112 493.738 546.112 513.122 546.112C513.122 549.76 513.122 553.408 513.122 557.166C506.851 557.166 500.579 557.166 494.118 557.166C494.118 560.813 494.118 564.461 494.118 568.219C499.001 567.357 503.884 566.495 508.915 565.607C515.269 564.531 521.622 563.455 528.167 562.347C537.648 560.712 537.648 560.712 547.32 559.044C563.801 557.166 563.801 557.166 576.47 562.692C576.47 566.34 576.47 569.988 576.47 573.746C558.686 578.583 540.876 583.28 523.02 587.908C515.579 589.954 515.579 589.954 507.987 592.042C471.132 601.437 443.319 601.378 405.43 595.853C407.521 592.205 409.611 588.557 411.765 584.799C407.584 581.152 403.403 577.504 399.095 573.746C433.289 556.796 433.289 556.796 451.358 558.547C459.389 561.55 467.297 564.81 475.113 568.219C468.842 560.924 462.57 553.629 456.109 546.112Z" fill="#235FA2"/>
<path d="M158.371 336.098C162.552 339.746 166.733 343.393 171.041 347.152C179.403 343.504 187.765 339.856 196.38 336.098C201.527 347.152 201.527 347.152 202.715 363.732C193.772 379.481 182.768 393.679 171.041 407.945C168.95 404.298 166.86 400.65 164.706 396.892C156.344 398.716 147.982 400.539 139.367 402.419C139.367 406.066 139.367 409.714 139.367 413.472C124.733 417.12 110.1 420.767 95.0228 424.525C92.9323 402.64 90.8418 380.754 88.688 358.205C116.04 361.012 139.576 364.819 164.706 374.785C164.706 371.137 164.706 367.49 164.706 363.732C156.344 361.908 147.982 360.084 139.367 358.205C145.638 358.205 151.91 358.205 158.371 358.205C158.371 350.91 158.371 343.614 158.371 336.098Z" fill="#5B95D0"/>
<path d="M354.752 280.833C350.571 284.481 346.39 288.128 342.082 291.886C342.082 297.358 342.082 302.829 342.082 308.467C329.412 317.793 329.412 317.793 316.743 325.047C328.904 323.744 341.064 322.433 353.217 321.074C366.252 319.648 379.308 318.368 392.365 317.102C398.767 316.076 405.169 315.05 411.765 313.993C413.856 310.346 415.946 306.698 418.1 302.94C407.647 304.764 397.195 306.587 386.426 308.467C386.426 304.819 386.426 301.171 386.426 297.413C404.835 290.468 416.808 286.36 437.104 286.36C439.195 302.774 441.285 319.188 443.439 336.1C405.81 338.836 405.81 338.836 367.421 341.627C367.421 337.979 367.421 334.331 367.421 330.573C336.943 339.005 336.943 339.005 316.743 358.207C308.381 358.207 300.019 358.207 291.403 358.207C292.449 353.989 293.494 349.772 294.571 345.426C298.764 325.762 297.428 310.941 291.403 291.886C299.562 288.957 307.75 286.09 315.951 283.251C320.507 281.648 325.064 280.045 329.759 278.393C342.082 275.306 342.082 275.306 354.752 280.833Z" fill="#2A6AB1"/>
<path d="M665.157 258.726C680.468 258.427 695.771 258.208 711.084 258.035C715.404 257.943 719.724 257.85 724.175 257.755C748.307 257.55 764.801 258.935 785.519 269.78C798.132 271.896 810.801 273.792 823.528 275.306C821.548 285.669 821.548 285.669 817.193 297.413C796.744 309.306 790.054 309.577 766.514 308.467C764.424 315.762 762.333 323.057 760.179 330.573C731.54 338.621 712.564 332.067 684.161 325.047C682.071 334.166 679.98 343.285 677.826 352.68C569.326 354.636 569.326 354.636 525.815 344.088C502.664 339.599 479.708 340.973 456.107 341.627C456.107 337.979 456.107 334.332 456.107 330.573C505.135 329.163 551.364 332.148 599.755 339.209C621.789 341.739 642.958 342.02 665.157 341.627C669.338 334.332 673.519 327.036 677.826 319.52C702.912 319.52 727.998 319.52 753.844 319.52C755.935 314.049 758.025 308.577 760.179 302.94C782.129 300.204 782.129 300.204 804.523 297.413C804.523 293.766 804.523 290.118 804.523 286.36C800.865 285.676 797.206 284.992 793.437 284.287C779.184 280.833 779.184 280.833 768.494 275.306C748.318 267.695 729.794 267.386 707.917 266.326C695.913 265.706 695.913 265.706 683.666 265.073C674.504 264.667 674.504 264.667 665.157 264.253C665.157 262.429 665.157 260.605 665.157 258.726Z" fill="#DFE5E7"/>
<path d="M861.536 579.273C865.717 581.097 869.898 582.921 874.206 584.8C874.467 590.5 874.728 596.199 874.998 602.071C882.081 629.438 895.389 637.068 920.356 653.452C923.941 656.33 927.526 659.209 931.219 662.174C931.219 667.645 931.219 673.117 931.219 678.754C922.26 679.99 913.281 681.121 904.296 682.208C899.299 682.849 894.301 683.491 889.152 684.151C871.622 684.303 863.071 682.165 848.866 673.227C845 661.734 845 661.734 842.532 651.121C834.431 650.643 826.33 650.166 817.984 649.674C807.162 648.896 796.34 648.111 785.518 647.321C780.202 647.025 774.886 646.73 769.409 646.425C731.185 643.452 700.684 635.07 671.491 612.434C671.491 608.786 671.491 605.138 671.491 601.38C680.609 603.882 689.713 606.422 698.81 608.979C703.881 610.39 708.952 611.801 714.177 613.254C728.505 617.96 728.505 617.96 747.509 629.014C763.635 630.535 779.252 631.576 795.416 632.123C841.021 633.882 841.021 633.882 855.201 640.067C859.161 651.466 859.161 651.466 861.536 662.174C878.26 662.174 894.984 662.174 912.215 662.174C908.556 660.357 904.898 658.541 901.129 656.669C863.168 635.453 863.168 635.453 858.171 615.737C858.351 603.318 859.288 591.53 861.536 579.273Z" fill="#D2DDE1"/>
<path d="M608.145 269.778C608.145 277.074 608.145 284.369 608.145 291.885C614.416 295.533 620.687 299.18 627.149 302.939C616.697 304.762 606.244 306.586 595.475 308.465C595.475 312.113 595.475 315.76 595.475 319.519C599.656 321.342 603.837 323.166 608.145 325.045C595.873 325.344 583.598 325.558 571.323 325.736C564.488 325.864 557.653 325.993 550.611 326.125C532.127 325.045 532.127 325.045 513.122 313.992C519.263 311.484 525.404 308.976 531.731 306.393C551.58 299.303 551.58 299.303 557.466 286.358C561.647 286.358 565.828 286.358 570.136 286.358C570.136 282.711 570.136 279.063 570.136 275.305C582.805 269.778 582.805 269.778 608.145 269.778Z" fill="#468CCA"/>
<path d="M266.062 407.944C270.243 407.944 274.424 407.944 278.732 407.944C278.732 422.535 278.732 437.125 278.732 452.158C282.913 452.158 287.094 452.158 291.402 452.158C293.492 446.687 295.583 441.215 297.737 435.578C314.46 435.578 331.184 435.578 348.415 435.578C350.506 448.345 352.596 461.111 354.75 474.265C350.855 473.339 346.96 472.412 342.946 471.458C337.826 470.333 332.706 469.207 327.431 468.047C322.36 466.893 317.289 465.739 312.064 464.55C295.95 461.696 295.95 461.696 278.732 474.265C282.913 474.265 287.094 474.265 291.402 474.265C289.311 479.736 287.221 485.208 285.067 490.845C276.705 485.373 268.343 479.902 259.728 474.265C261.295 468.622 261.295 468.622 262.895 462.866C266.511 444.329 266.484 426.714 266.062 407.944Z" fill="#1E60AD"/>
<path d="M342.082 479.792C342.082 483.439 342.082 487.087 342.082 490.845C335.81 490.845 329.539 490.845 323.077 490.845C323.077 494.493 323.077 498.141 323.077 501.899C314.715 503.722 306.353 505.546 297.738 507.425C299.828 511.073 301.919 514.721 304.073 518.479C267.066 520.416 241.655 519.403 209.05 501.899C209.05 500.075 209.05 498.251 209.05 496.372C216.106 496.486 223.161 496.6 230.43 496.717C252.331 497.83 252.331 497.83 266.064 490.845C266.064 487.198 266.064 483.55 266.064 479.792C274.426 479.792 282.788 479.792 291.403 479.792C299.438 478.253 299.438 478.253 307.636 476.683C323.077 474.265 323.077 474.265 342.082 479.792Z" fill="#154D94"/>
<path d="M874.207 557.166C884.66 560.814 895.112 564.461 905.881 568.219C905.881 577.338 905.881 586.458 905.881 595.853C903.791 588.558 901.7 581.262 899.546 573.746C895.365 573.746 891.184 573.746 886.877 573.746C886.877 590.16 886.877 606.575 886.877 623.486C895.239 627.134 903.601 630.782 912.216 634.54C929.637 644.557 929.637 644.557 943.89 656.647C946.662 671.154 946.662 671.154 943.89 684.28C931.221 695.334 931.221 695.334 914.022 695.787C907.286 695.295 900.549 694.804 893.607 694.297C886.887 693.877 880.166 693.457 873.242 693.024C854.056 689.602 847.164 687.194 836.198 673.227C836.198 667.755 836.198 662.284 836.198 656.647C828.408 656.935 828.408 656.935 820.46 657.23C813.633 657.379 806.806 657.529 799.773 657.683C789.631 657.971 789.631 657.971 779.284 658.266C760.18 656.647 760.18 656.647 734.841 640.067C770.379 641.89 805.918 643.714 842.533 645.593C846.714 654.712 850.895 663.831 855.203 673.227C879.628 681.142 905.412 679.195 931.221 678.753C920.171 660.009 912.684 651.384 892.024 639.721C882.002 633.072 882.002 633.072 874.207 623.486C870.886 601.126 871.994 579.586 874.207 557.166Z" fill="#6F8EA0"/>
<path d="M652.488 535.061C692.15 532.674 710.077 535.462 741.176 557.167C734.905 560.815 728.633 564.463 722.172 568.221C728.443 570.045 734.715 571.868 741.176 573.748C741.176 575.571 741.176 577.395 741.176 579.274C716.09 579.274 691.004 579.274 665.158 579.274C669.339 582.922 673.52 586.569 677.828 590.328C641.997 593.454 619.38 583.22 589.14 568.221C589.14 564.573 589.14 560.926 589.14 557.167C610.533 560.137 631.563 563.306 652.488 568.221C652.488 564.573 652.488 560.926 652.488 557.167C642.036 555.344 631.583 553.52 620.814 551.641C624.865 550.957 628.915 550.273 633.088 549.568C639.555 547.858 639.555 547.858 646.154 546.114C648.244 542.466 650.335 538.819 652.488 535.061Z" fill="#2362A7"/>
<path d="M685.745 249.053C697.529 249.278 697.529 249.278 709.55 249.507C720.942 249.838 720.942 249.838 732.563 250.176C742.807 250.446 742.807 250.446 753.257 250.721C775.508 253.535 791.369 260.202 810.858 269.779C799.772 273.233 799.772 273.233 785.519 275.305C777.021 271.711 768.571 268.03 760.179 264.252C739.415 268.405 739.415 268.405 728.505 286.359C711.876 287.395 711.876 287.395 696.831 286.359C694.741 291.83 692.65 297.301 690.496 302.939C680.044 302.939 669.591 302.939 658.822 302.939C667.184 301.115 675.546 299.291 684.161 297.412C684.161 293.764 684.161 290.117 684.161 286.359C671.618 288.182 659.075 290.006 646.152 291.885C648.243 286.414 650.333 280.942 652.487 275.305C633.673 278.953 614.858 282.6 595.474 286.359C599.655 284.535 603.836 282.711 608.143 280.832C608.143 277.184 608.143 273.537 608.143 269.779C620.686 267.955 633.229 266.131 646.152 264.252C608.524 262.428 570.895 260.604 532.125 258.725C532.125 256.901 532.125 255.078 532.125 253.198C583.565 247.144 633.948 247.484 685.745 249.053Z" fill="#92B7D8"/>
<path d="M470.361 0.351968C481.447 4.49699 481.447 4.49699 487.782 10.0237C488.237 18.4203 488.314 26.8341 488.178 35.2393C488.121 39.8059 488.064 44.3726 488.005 49.0776C487.931 52.6041 487.858 56.1306 487.782 59.764C463.563 67.6262 443.991 72.1461 418.099 70.8174C412.904 54.9557 411.307 44.8589 415.723 28.6763C428.518 9.39541 443.953 -2.20799 470.361 0.351968Z" fill="#A1B5C3"/>
<path d="M741.176 264.251C763.263 270.383 784.093 276.76 804.524 286.358C804.524 290.006 804.524 293.654 804.524 297.412C789.89 299.235 775.257 301.059 760.18 302.938C758.09 310.234 755.999 317.529 753.845 325.045C726.669 325.045 699.492 325.045 671.492 325.045C671.492 321.398 671.492 317.75 671.492 313.992C667.311 312.168 663.13 310.344 658.823 308.465C669.275 304.817 679.728 301.17 690.497 297.412C690.497 291.94 690.497 286.469 690.497 280.832C696.507 281.174 702.517 281.515 708.71 281.868C718.509 281.355 718.509 281.355 728.506 280.832C732.687 275.36 736.868 269.889 741.176 264.251Z" fill="#3675B4"/>
<path d="M304.073 529.532C307.209 535.004 307.209 535.004 310.408 540.586C299.956 540.586 289.503 540.586 278.734 540.586C287.552 555.972 298.725 557.05 316.743 562.693C316.743 566.34 316.743 569.988 316.743 573.746C289.567 571.922 262.39 570.098 234.39 568.219C228.119 576.426 228.119 576.426 221.72 584.799C202.753 582.292 188.125 578.486 170.646 571.328C138.767 558.72 104.073 555.827 69.6846 551.639C69.6846 549.815 69.6846 547.992 69.6846 546.113C90.5895 546.113 111.494 546.113 133.033 546.113C133.033 542.465 133.033 538.817 133.033 535.059C137.214 536.883 141.395 538.707 145.703 540.586C143.612 544.233 141.522 547.881 139.368 551.639C176.997 557.111 176.997 557.111 215.386 562.693C217.476 557.221 219.567 551.75 221.72 546.113C247.225 533.48 274.777 527.136 304.073 529.532Z" fill="#1C5596"/>
<path d="M285.067 291.886C286.897 295.419 288.726 298.953 290.61 302.594C296.649 314.833 296.649 314.833 310.407 319.519C302.045 334.11 293.683 348.7 285.067 363.733C278.796 363.733 272.524 363.733 266.063 363.733C266.063 367.38 266.063 371.028 266.063 374.786C259.791 376.61 253.52 378.434 247.058 380.313C242.413 391.45 242.413 391.45 240.724 402.42C236.5 391.366 232.277 380.313 228.054 369.26C217.601 380.202 207.149 391.145 196.38 402.42C194.289 398.772 192.199 395.124 190.045 391.366C194.749 386.408 194.749 386.408 199.547 381.349C210.841 369.424 210.841 369.424 209.049 352.679C222.461 341.389 222.461 341.389 239.932 329.536C245.664 325.582 251.397 321.628 257.303 317.555C272.398 308.466 272.398 308.466 285.067 308.466C285.067 302.994 285.067 297.523 285.067 291.886Z" fill="#4A8EC6"/>
<path d="M545.984 293.957C551.667 295.667 551.667 295.667 557.465 297.411C541.787 305.618 541.787 305.618 525.791 313.991C545.884 322.756 567.824 321.611 589.931 322.627C597.097 322.985 597.097 322.985 604.408 323.35C616.21 323.937 628.014 324.493 639.818 325.045C641.909 321.397 643.999 317.75 646.153 313.991C654.515 313.991 662.877 313.991 671.492 313.991C671.763 323.199 671.75 332.416 671.492 341.625C669.402 343.449 667.311 345.272 665.158 347.152C649.853 347.084 634.883 346.615 619.626 345.77C615.122 345.528 610.619 345.286 605.979 345.037C561.272 342.195 518.622 334.475 475.113 325.045C473.022 315.926 470.932 306.807 468.778 297.411C475.703 298.551 482.627 299.691 489.762 300.865C515.811 303.177 522.876 290.501 545.984 293.957Z" fill="#2664A4"/>
<path d="M152.036 525.387C159.875 527.824 159.875 527.824 167.873 530.309C196.668 538.945 217.355 541.722 247.058 535.059C247.058 538.707 247.058 542.354 247.058 546.112C243.008 546.796 238.957 547.48 234.784 548.185C230.473 549.325 226.161 550.465 221.719 551.639C219.628 555.287 217.538 558.934 215.384 562.692C186.644 563.676 165.289 562.947 139.366 551.639C137.275 549.815 135.185 547.991 133.031 546.112C120.316 547.697 107.637 549.531 95.0221 551.639C95.0221 553.463 95.0221 555.287 95.0221 557.166C74.1172 555.342 53.2122 553.518 31.6738 551.639C33.7643 544.344 35.8548 537.049 38.0087 529.532C45.7174 530.786 53.4261 532.04 61.3683 533.332C83.9476 536.142 83.9476 536.142 103.733 526.078C124.602 516.541 130.064 519.45 152.036 525.387Z" fill="#357DC4"/>
<path d="M779.184 430.052C787.546 433.699 795.908 437.347 804.524 441.105C804.524 444.753 804.524 448.4 804.524 452.159C812.363 452.956 820.202 453.754 828.279 454.576C846.491 456.43 862.555 459.289 880.542 463.212C878.451 486.922 876.361 510.631 874.207 535.059C870.026 529.588 865.845 524.116 861.537 518.479C839.006 511.743 839.006 511.743 817.193 507.426C819.284 500.13 821.374 492.835 823.528 485.319C817.257 483.495 810.985 481.671 804.524 479.792C808.705 476.144 812.886 472.497 817.193 468.739C812.228 469.879 807.264 471.018 802.148 472.193C796.661 472.877 791.173 473.561 785.519 474.265C781.338 470.618 777.157 466.97 772.85 463.212C781.212 463.212 789.574 463.212 798.189 463.212C796.098 455.917 794.008 448.621 791.854 441.105C787.673 441.105 783.492 441.105 779.184 441.105C779.184 437.458 779.184 433.81 779.184 430.052Z" fill="#5F92B6"/>
<path d="M741.176 264.251C736.995 271.546 732.814 278.841 728.507 286.357C718.054 286.357 707.602 286.357 696.832 286.357C694.742 291.829 692.651 297.3 690.498 302.938C680.045 302.938 669.593 302.938 658.823 302.938C667.185 301.114 675.547 299.29 684.163 297.411C684.163 293.763 684.163 290.116 684.163 286.357C671.62 288.181 659.077 290.005 646.154 291.884C648.244 286.413 650.335 280.941 652.489 275.304C633.674 278.952 614.86 282.599 595.475 286.357C599.656 284.534 603.837 282.71 608.145 280.831C608.145 277.183 608.145 273.536 608.145 269.777C653.737 256.519 693.808 259.589 741.176 264.251Z" fill="#81B2D9"/>
<path d="M329.412 535.059C345.091 537.795 345.091 537.795 361.086 540.586C361.086 544.233 361.086 547.881 361.086 551.639C365.267 551.639 369.448 551.639 373.756 551.639C375.846 555.287 377.937 558.934 380.091 562.693C386.362 564.516 392.634 566.34 399.095 568.219C397.005 560.924 394.914 553.629 392.76 546.112C414.711 543.377 414.711 543.377 437.104 540.586C439.195 546.057 441.285 551.529 443.439 557.166C413.349 573.746 413.349 573.746 399.095 573.746C399.095 577.394 399.095 581.041 399.095 584.799C356.335 585.49 356.335 585.49 342.082 579.273C342.082 575.625 342.082 571.977 342.082 568.219C346.263 566.395 350.444 564.572 354.751 562.693C346.389 553.574 338.027 544.454 329.412 535.059Z" fill="#154788"/>
<path d="M190.045 479.793C193.442 483.099 196.839 486.404 200.339 489.81C215.035 502.832 215.035 502.832 235.577 510.19C253.393 518.48 253.393 518.48 258.936 530.57C259.198 533.875 259.459 537.181 259.728 540.587C253.849 540.473 247.969 540.359 241.911 540.241C221.574 539.715 221.574 539.715 202.715 546.113C182.844 540.608 182.844 540.608 160.35 532.642C152.879 530.027 145.407 527.413 137.708 524.719C131.984 522.66 126.26 520.601 120.362 518.48C139.366 512.953 139.366 512.953 152.036 518.48C166.815 518.702 181.601 518.719 196.38 518.48C194.289 505.713 192.199 492.947 190.045 479.793Z" fill="#1F69B8"/>
<path d="M798.188 601.38C817.003 606.852 835.817 612.323 855.202 617.96C855.202 621.608 855.202 625.256 855.202 629.014C859.775 630.268 864.348 631.522 869.059 632.813C890.247 641.44 902.815 652.796 918.55 667.701C899.736 667.701 880.921 667.701 861.537 667.701C859.446 658.582 857.356 649.463 855.202 640.067C838.478 636.42 821.754 632.772 804.523 629.014C806.614 625.366 808.704 621.719 810.858 617.96C806.677 616.137 802.496 614.313 798.188 612.434C798.188 608.786 798.188 605.139 798.188 601.38Z" fill="#2662AA"/>
<path d="M855.203 524.005C855.203 540.585 855.203 540.585 842.533 557.166C846.714 557.166 850.895 557.166 855.203 557.166C853.113 562.637 851.022 568.108 848.868 573.746C848.868 570.098 848.868 566.45 848.868 562.692C844.687 562.692 840.506 562.692 836.199 562.692C836.199 568.164 836.199 573.635 836.199 579.272C840.38 579.272 844.561 579.272 848.868 579.272C848.868 582.92 848.868 586.568 848.868 590.326C840.506 588.502 832.144 586.678 823.529 584.799C823.529 581.151 823.529 577.504 823.529 573.746C809.366 583.496 809.366 583.496 810.859 595.852C802.497 595.852 794.135 595.852 785.52 595.852C783.429 583.086 781.339 570.319 779.185 557.166C791.728 557.166 804.271 557.166 817.194 557.166C819.285 551.694 821.375 546.223 823.529 540.585C839.762 531.259 839.762 531.259 855.203 524.005Z" fill="#68A4D0"/>
<path d="M620.814 463.212C630.057 464.921 639.294 466.653 648.529 468.394C653.673 469.355 658.818 470.317 664.118 471.308C677.827 474.266 677.827 474.266 690.497 479.793C690.497 476.145 690.497 472.497 690.497 468.739C698.859 468.739 707.221 468.739 715.836 468.739C717.927 477.858 720.017 486.977 722.171 496.373C726.352 496.373 730.533 496.373 734.841 496.373C734.841 492.725 734.841 489.077 734.841 485.319C739.022 485.319 743.203 485.319 747.511 485.319C747.511 492.614 747.511 499.91 747.511 507.426C751.692 507.426 755.873 507.426 760.18 507.426C760.18 511.074 760.18 514.721 760.18 518.479C749.886 522.97 749.886 522.97 734.841 524.006C725.488 517.478 716.171 510.888 707.349 503.821C690.633 491.983 672.522 486.434 652.488 479.793C654.579 483.44 656.669 487.088 658.823 490.846C638.798 483.275 633.53 479.853 620.814 463.212Z" fill="#5594CB"/>
<path d="M437.104 540.587C462.19 540.587 487.276 540.587 513.122 540.587C494.118 551.641 494.118 551.641 468.778 551.641C470.869 553.465 472.959 555.288 475.113 557.168C475.371 566.376 475.384 575.593 475.113 584.801C428.333 592.283 428.333 592.283 408.597 582.383C405.462 579.533 402.326 576.684 399.095 573.748C411.638 568.276 424.181 562.805 437.104 557.168C437.104 551.696 437.104 546.225 437.104 540.587Z" fill="#2974C0"/>
<path d="M114.027 490.847C116.118 494.494 118.208 498.142 120.362 501.9C141.776 505.36 161.93 507.427 183.711 507.427C197.568 515.717 197.568 515.717 209.05 524.007C149.439 526.046 149.439 526.046 120.362 512.953C120.362 516.601 120.362 520.249 120.362 524.007C101.198 537.284 92.4093 540.893 67.7041 538.86C62.0859 537.606 56.4676 536.352 50.6792 535.06C56.5587 533.179 56.5587 533.179 62.557 531.261C77.5307 524.819 77.5307 524.819 82.3533 509.845C84.4438 505.399 86.5343 500.954 88.6882 496.373C102.15 491.883 102.15 491.883 114.027 490.847Z" fill="#3B82CB"/>
<path d="M576.47 474.266C578.56 479.738 580.651 485.209 582.805 490.846C586.986 490.846 591.167 490.846 595.474 490.846C595.474 496.318 595.474 501.789 595.474 507.426C572.166 520.983 560.233 519.795 532.522 519.516C524.756 519.48 516.99 519.445 508.989 519.408C492.149 518.671 478.404 517.315 462.443 512.953C462.443 509.305 462.443 505.658 462.443 501.9C500.072 501.9 537.701 501.9 576.47 501.9C576.47 498.252 576.47 494.604 576.47 490.846C561.836 490.846 547.203 490.846 532.126 490.846C532.126 487.199 532.126 483.551 532.126 479.793C554.076 477.057 554.076 477.057 576.47 474.266Z" fill="#A6BCBA"/>
<path d="M500.452 358.205C500.542 362.337 500.632 366.469 500.724 370.727C501.676 404.879 501.676 404.879 521.04 433.161C537.183 440.523 552.904 447.005 570.135 452.159C554.376 460.816 546.978 463.439 528.167 461.485C513.122 457.686 513.122 457.686 500.452 452.159C489.887 432.834 484.587 413.751 480.26 392.747C479.125 387.418 477.99 382.089 476.82 376.599C476.257 372.353 475.693 368.107 475.113 363.732C481.448 358.205 481.448 358.205 500.452 358.205Z" fill="#3A71A7"/>
<path d="M543.212 268.743C554.334 268.967 554.334 268.967 565.681 269.196C571.332 269.389 576.983 269.581 582.805 269.779C576.533 272.515 576.533 272.515 570.135 275.306C570.135 278.953 570.135 282.601 570.135 286.359C519.235 308.901 519.235 308.901 493.721 307.084C489.671 305.716 485.621 304.349 481.448 302.939C479.357 297.468 477.267 291.996 475.113 286.359C497.197 268.189 513.484 267.965 543.212 268.743Z" fill="#5593CB"/>
<path d="M742.759 539.897C753.845 551.641 753.845 551.641 753.845 573.748C760.117 573.748 766.388 573.748 772.85 573.748C773.111 578.763 773.372 583.779 773.642 588.946C777.402 608.453 777.402 608.453 798.585 619.688C804.726 622.766 810.867 625.844 817.194 629.015C817.194 630.838 817.194 632.662 817.194 634.541C800.47 634.541 783.746 634.541 766.515 634.541C770.696 630.894 774.877 627.246 779.185 623.488C772.913 619.84 766.642 616.193 760.18 612.434C760.18 608.787 760.18 605.139 760.18 601.381C756.554 600.59 752.929 599.799 749.193 598.985C716.678 591.893 716.678 591.893 684.162 584.801C684.162 582.977 684.162 581.153 684.162 579.274C700.886 577.45 717.61 575.627 734.841 573.748C730.66 571.924 726.479 570.1 722.171 568.221C724.262 564.573 726.352 560.926 728.506 557.167C706.383 539.378 686.643 537.112 657.239 534.024C649.236 533.148 641.234 532.272 632.989 531.369C626.88 530.763 620.772 530.158 614.479 529.534C614.479 527.71 614.479 525.886 614.479 524.007C657.876 514.333 704.088 520.432 742.759 539.897Z" fill="#134E97"/>
<path d="M734.84 485.32C771.265 494.992 771.265 494.992 785.519 507.427C798.239 507.427 810.962 507.404 823.676 507.081C838.879 507.501 848.932 511.149 861.537 518.48C850.195 524.057 838.853 529.634 827.512 535.211C817.327 540.019 817.327 540.019 810.858 546.114C774.92 544.859 747.063 535.793 722.17 512.953C722.17 507.482 722.17 502.01 722.17 496.373C726.351 496.373 730.532 496.373 734.84 496.373C734.84 492.726 734.84 489.078 734.84 485.32Z" fill="#78A2B4"/>
<path d="M487.782 430.052C491.963 431.876 496.144 433.699 500.452 435.578C500.452 441.05 500.452 446.521 500.452 452.159C509.149 453.259 509.149 453.259 518.021 454.382C525.55 455.358 533.079 456.334 540.837 457.34C552.081 458.783 552.081 458.783 563.553 460.254C582.805 463.212 582.805 463.212 595.474 468.739C582.805 479.792 582.805 479.792 570.482 480.871C557.696 480.512 544.911 480.152 532.126 479.792C532.126 483.44 532.126 487.087 532.126 490.845C546.76 490.845 561.393 490.845 576.47 490.845C576.47 494.493 576.47 498.141 576.47 501.899C516.859 509.264 516.859 509.264 487.782 501.899C489.873 496.427 491.963 490.956 494.117 485.319C485.755 481.671 477.393 478.024 468.778 474.265C477.14 470.618 485.502 466.97 494.117 463.212C487.846 457.741 481.574 452.269 475.113 446.632C481.447 435.578 481.447 435.578 487.782 430.052Z" fill="#649ABE"/>
<path d="M399.095 385.839C403.276 387.663 407.457 389.487 411.764 391.366C401.312 398.661 390.859 405.957 380.09 413.473C383.168 430.732 386.416 446.61 392.76 463.213C388.579 463.213 384.398 463.213 380.09 463.213C382.181 474.156 384.271 485.099 386.425 496.373C378.063 496.373 369.701 496.373 361.086 496.373C361.086 501.845 361.086 507.316 361.086 512.953C350.633 514.777 340.181 516.601 329.412 518.48C327.321 514.833 325.231 511.185 323.077 507.427C329.412 496.373 329.412 496.373 348.416 490.847C326.028 479.127 304.427 476.853 278.733 474.267C285.068 463.213 285.068 463.213 295.362 458.723C318.512 457.128 333.971 465.551 354.751 474.267C358.406 463.335 361.028 453.006 361.803 441.624C363.507 418.863 364.14 410.739 383.654 394.129C388.749 391.394 393.845 388.658 399.095 385.839Z" fill="#458ECF"/>
<path d="M361.085 496.373C372.441 496.704 383.791 497.195 395.135 497.755C404.616 498.139 404.616 498.139 414.288 498.532C419.727 499.643 425.165 500.755 430.769 501.9C434.95 509.195 439.13 516.49 443.438 524.007C424.624 520.359 405.809 516.711 386.425 512.953C398.968 518.425 411.511 523.896 424.434 529.533C422.343 535.005 420.253 540.476 418.099 546.113C409.737 546.113 401.375 546.113 392.76 546.113C394.85 553.409 396.941 560.704 399.094 568.22C390.732 566.396 382.37 564.573 373.755 562.693C373.755 559.046 373.755 555.398 373.755 551.64C369.574 551.64 365.393 551.64 361.085 551.64C361.085 547.992 361.085 544.345 361.085 540.587C352.691 536.925 344.244 533.354 335.746 529.879C323.076 524.007 323.076 524.007 310.407 512.953C327.131 512.953 343.855 512.953 361.085 512.953C361.085 507.482 361.085 502.01 361.085 496.373Z" fill="#236BB6"/>
<path d="M297.738 242.145C304.469 252.162 304.469 252.162 310.408 264.252C308.318 269.723 306.227 275.195 304.073 280.832C295.711 279.008 287.349 277.184 278.734 275.305C282.915 275.305 287.096 275.305 291.404 275.305C291.404 271.658 291.404 268.01 291.404 264.252C274.244 256.766 259.67 258.366 240.725 258.725C238.634 262.373 236.544 266.02 234.39 269.778C238.571 269.778 242.752 269.778 247.06 269.778C238.613 291.885 230.167 313.992 221.72 336.099C209.051 330.572 209.051 330.572 203.928 319.109C196.769 293.154 193.827 280.093 207.071 255.271C231.524 234.057 265.88 239.516 297.738 242.145Z" fill="#4D8AC5"/>
<path d="M158.372 396.893C166.29 433.507 166.29 433.507 152.037 452.16C149.266 461.635 146.915 471.208 144.91 480.829C143.849 485.809 142.787 490.789 141.693 495.92C140.926 499.717 140.158 503.514 139.367 507.427C133.096 505.603 126.824 503.779 120.363 501.9C120.363 498.252 120.363 494.605 120.363 490.846C124.544 490.846 128.725 490.846 133.032 490.846C128.982 484.577 124.932 478.308 120.759 471.848C118.48 468.322 116.202 464.795 113.855 461.162C108.344 452.277 108.344 452.277 101.358 446.633C101.099 433.739 101.089 420.839 101.358 407.946C103.449 411.594 105.539 415.241 107.693 418.999C118.145 417.176 128.598 415.352 139.367 413.473C139.367 409.825 139.367 406.177 139.367 402.419C152.037 396.893 152.037 396.893 158.372 396.893Z" fill="#296EB7"/>
<path d="M228.054 363.732C232.235 371.027 236.416 378.322 240.724 385.839C244.905 378.543 249.086 371.248 253.393 363.732C253.393 367.38 253.393 371.027 253.393 374.785C257.574 374.785 261.755 374.785 266.063 374.785C268.154 371.138 270.244 367.49 272.398 363.732C280.76 365.556 289.122 367.38 297.737 369.259C295.647 376.554 293.556 383.849 291.402 391.365C287.221 391.365 283.04 391.365 278.733 391.365C278.733 387.718 278.733 384.07 278.733 380.312C274.552 380.312 270.371 380.312 266.063 380.312C265.295 383.71 264.528 387.109 263.737 390.61C262.145 397.31 262.145 397.31 260.52 404.146C258.977 410.782 258.977 410.782 257.402 417.552C253.393 430.052 253.393 430.052 240.724 446.632C236.543 446.632 232.362 446.632 228.054 446.632C228.054 435.69 228.054 424.747 228.054 413.472C217.602 413.472 207.149 413.472 196.38 413.472C200.013 392.077 212.135 379.86 228.054 363.732Z" fill="#1856A1"/>
<path d="M191.506 574.633C203.509 580.459 203.509 580.459 221.72 579.274C225.901 573.803 230.082 568.331 234.39 562.694C341.843 571.766 341.843 571.766 373.756 590.328C362.671 590.478 351.584 590.584 340.498 590.673C331.238 590.769 331.238 590.769 321.791 590.867C306.242 590.394 293.546 588.709 278.734 584.801C278.734 581.153 278.734 577.506 278.734 573.748C263.693 572.362 263.693 572.362 247.059 573.748C244.316 576.597 241.572 579.447 238.745 582.383C228.055 590.328 228.055 590.328 203.507 589.291C188.835 587.409 177.326 584.781 163.791 579.382C137.531 571.202 111.196 569.725 83.5416 567.53C75.1449 566.814 75.1449 566.814 66.5786 566.084C52.8365 564.917 39.0889 563.801 25.3403 562.694C25.3403 560.87 25.3403 559.047 25.3403 557.167C80.9889 545.213 141.12 551.015 191.506 574.633Z" fill="#D1DCE1"/>
<path d="M627.148 490.847C637.762 492.428 648.331 494.261 658.823 496.373C658.823 500.021 658.823 503.669 658.823 507.427C664.441 506.173 670.059 504.919 675.848 503.627C701.269 501.535 708.709 504.845 728.506 518.48C743.155 533.333 743.155 533.333 753.845 546.114C749.787 544.981 745.728 543.848 741.547 542.681C692.129 529.252 647.161 523.216 595.474 524.007C595.474 520.359 595.474 516.712 595.474 512.953C591.293 511.13 587.112 509.306 582.805 507.427C592.016 504.862 592.016 504.862 601.413 502.245C619.804 498.058 619.804 498.058 627.148 490.847Z" fill="#4E95D2"/>
<path d="M481.448 336.098C490.292 336.888 499.134 337.698 507.975 338.516C512.899 338.965 517.824 339.414 522.897 339.876C538.462 341.625 538.462 341.625 552.913 344.388C576.135 348.114 599.244 349.14 622.794 350.26C627.485 350.499 632.177 350.738 637.01 350.984C648.503 351.566 659.998 352.124 671.493 352.678C671.493 358.15 671.493 363.621 671.493 369.258C650.901 368.65 630.315 367.928 609.729 367.186C603.898 367.015 598.068 366.844 592.06 366.668C586.426 366.454 580.791 366.24 574.986 366.02C569.811 365.846 564.636 365.673 559.304 365.494C543.73 363.602 533.029 359.454 519.457 352.678C521.79 375.313 524.769 397.156 532.127 418.999C550.535 432.138 550.535 432.138 570.136 435.579C551.131 441.105 551.131 441.105 534.898 436.615C511.309 418.145 510.029 395.978 506.788 369.258C506.788 361.963 506.788 354.668 506.788 347.152C498.426 345.328 490.064 343.504 481.448 341.625C481.448 339.801 481.448 337.977 481.448 336.098Z" fill="#799FAC"/>
<path d="M658.823 573.749C667.185 573.749 675.547 573.749 684.162 573.749C684.162 577.396 684.162 581.044 684.162 584.802C688.057 585.073 691.952 585.343 695.966 585.622C701.086 586.036 706.206 586.449 711.481 586.874C719.088 587.452 719.088 587.452 726.848 588.04C741.175 590.329 741.175 590.329 760.18 601.382C760.18 605.03 760.18 608.677 760.18 612.435C768.542 616.083 776.904 619.731 785.519 623.489C766.515 634.542 766.515 634.542 751.519 633.312C733.901 628.773 718.697 622.882 702.375 615.544C697.001 613.158 691.628 610.771 686.092 608.312C671.492 601.382 671.492 601.382 652.488 590.329C656.669 588.505 660.85 586.681 665.157 584.802C663.067 581.154 660.976 577.507 658.823 573.749Z" fill="#3074B8"/>
<path d="M215.385 358.205C213.425 361.283 211.465 364.36 209.446 367.531C202.268 381.161 199.268 393.19 196.381 407.945C192.717 426.668 187.334 440.867 177.376 457.686C174.95 468.69 172.777 479.743 171.041 490.846C162.679 489.022 154.317 487.198 145.702 485.319C144.437 461.585 148.14 446.283 158.372 424.525C159.436 409.554 159.436 409.554 158.372 396.892C162.553 396.892 166.734 396.892 171.041 396.892C179.791 386.02 188.24 374.958 196.381 363.732C202.715 358.205 202.715 358.205 215.385 358.205Z" fill="#327CC5"/>
<path d="M576.47 286.359C580.651 288.183 584.832 290.007 589.14 291.886C589.14 295.533 589.14 299.181 589.14 302.939C597.502 304.763 605.864 306.587 614.479 308.466C608.208 308.466 601.936 308.466 595.475 308.466C595.475 312.113 595.475 315.761 595.475 319.519C622.277 310.19 622.277 310.19 639.819 291.886C654.525 289.635 669.319 287.772 684.162 286.359C684.162 290.007 684.162 293.654 684.162 297.412C662.234 313.992 662.234 313.992 646.154 313.992C644.063 319.464 641.973 324.935 639.819 330.572C623.448 329.941 607.088 329.241 590.724 328.5C586.102 328.329 581.48 328.158 576.718 327.982C552.782 326.843 533.524 325.515 513.122 313.992C535.072 311.257 535.072 311.257 557.466 308.466C559.556 302.994 561.647 297.523 563.801 291.886C567.982 290.062 572.163 288.238 576.47 286.359Z" fill="#4D92CF"/>
<path d="M329.411 535.059C339.864 536.883 350.316 538.707 361.086 540.586C361.086 544.233 361.086 547.881 361.086 551.639C365.266 551.639 369.447 551.639 373.755 551.639C375.846 555.287 377.936 558.934 380.09 562.693C386.361 564.516 392.633 566.34 399.094 568.219C397.004 560.924 394.913 553.629 392.76 546.112C414.71 543.377 414.71 543.377 437.103 540.586C439.194 546.057 441.284 551.529 443.438 557.166C432.986 564.461 422.533 571.756 411.764 579.273C415.945 582.92 420.126 586.568 424.434 590.326C351.446 586.021 351.446 586.021 316.742 573.746C316.742 571.922 316.742 570.098 316.742 568.219C329.285 566.395 341.828 564.572 354.751 562.693C346.389 553.574 338.027 544.454 329.411 535.059Z" fill="#164789"/>
<path d="M823.527 280.832C827.883 290.849 827.883 290.849 829.862 302.939C822.736 312.611 822.736 312.611 810.858 319.519C793.833 320.555 793.833 320.555 779.184 319.519C778.269 323.053 777.354 326.586 776.412 330.227C772.849 341.626 772.849 341.626 766.514 347.152C748.672 347.102 730.912 346.417 713.089 345.728C707.724 346.198 702.358 346.668 696.831 347.152C690.559 355.36 690.559 355.36 684.161 363.733C661.197 364.769 661.197 364.769 639.817 363.733C639.817 361.909 639.817 360.085 639.817 358.206C644.782 357.864 649.747 357.522 654.863 357.17C663.094 354.947 663.094 354.947 671.492 352.679C680.2 338.993 680.2 338.993 684.161 325.046C688.587 325.509 693.013 325.972 697.573 326.449C706.221 327.293 706.221 327.293 715.043 328.154C720.776 328.731 726.509 329.309 732.415 329.903C747.614 331.66 747.614 331.66 760.179 325.046C762.27 319.574 764.36 314.103 766.514 308.466C781.275 304.719 796.057 301.037 810.858 297.412C815.039 291.941 819.22 286.469 823.527 280.832Z" fill="#6F8491"/>
<path d="M266.062 407.944C270.243 407.944 274.424 407.944 278.732 407.944C278.732 422.535 278.732 437.125 278.732 452.158C282.913 452.158 287.094 452.158 291.402 452.158C293.492 446.687 295.583 441.215 297.737 435.578C314.46 435.578 331.184 435.578 348.415 435.578C350.506 448.345 352.596 461.111 354.75 474.265C350.855 473.339 346.96 472.412 342.946 471.458C337.826 470.333 332.706 469.207 327.431 468.047C322.36 466.893 317.289 465.739 312.064 464.55C295.95 461.696 295.95 461.696 278.732 474.265C282.913 474.265 287.094 474.265 291.402 474.265C289.311 479.736 287.221 485.208 285.067 490.845C276.705 485.373 268.343 479.902 259.728 474.265C261.295 468.622 261.295 468.622 262.895 462.866C266.511 444.329 266.484 426.714 266.062 407.944Z" fill="#1D5EA9"/>
<path d="M342.082 479.792C342.082 483.439 342.082 487.087 342.082 490.845C335.81 490.845 329.539 490.845 323.077 490.845C323.077 494.493 323.077 498.141 323.077 501.899C314.715 503.722 306.353 505.546 297.738 507.425C299.828 511.073 301.919 514.721 304.073 518.479C267.066 520.416 241.655 519.403 209.05 501.899C209.05 500.075 209.05 498.251 209.05 496.372C216.106 496.486 223.161 496.6 230.43 496.717C252.331 497.83 252.331 497.83 266.064 490.845C266.064 487.198 266.064 483.55 266.064 479.792C274.426 479.792 282.788 479.792 291.403 479.792C299.438 478.253 299.438 478.253 307.636 476.683C323.077 474.265 323.077 474.265 342.082 479.792Z" fill="#154D94"/>
<path d="M1254.3 302.938C1259.36 321.105 1261.24 328.971 1254.3 347.152C1233.39 347.152 1212.49 347.152 1190.95 347.152C1188.86 339.857 1186.77 332.562 1184.61 325.045C1203.62 300.179 1221.75 300.754 1254.3 302.938Z" fill="#B5BEC4"/>
<path d="M641.798 585.147C649.603 588.684 657.397 592.243 665.157 595.855C646.153 601.382 646.153 601.382 633.087 596.2C585.669 581.237 540.085 592.076 493.003 603.174C452.84 611.558 418.818 607.118 380.09 595.855C399.926 590.533 407.56 590.669 429.185 594.128C506.909 603.313 567.027 552.646 641.798 585.147Z" fill="#DBE4E5"/>
<path d="M190.045 479.793C193.442 483.099 196.839 486.404 200.339 489.81C215.035 502.832 215.035 502.832 235.577 510.19C253.393 518.48 253.393 518.48 258.936 530.57C259.198 533.875 259.459 537.181 259.728 540.587C253.849 540.473 247.969 540.359 241.911 540.241C221.574 539.715 221.574 539.715 202.715 546.113C182.844 540.608 182.844 540.608 160.35 532.642C152.879 530.027 145.407 527.413 137.708 524.719C131.984 522.66 126.26 520.601 120.362 518.48C139.366 512.953 139.366 512.953 152.036 518.48C166.815 518.702 181.601 518.719 196.38 518.48C194.289 505.713 192.199 492.947 190.045 479.793Z" fill="#1F69B8"/>
<path d="M608.143 269.778C610.234 273.426 612.324 277.074 614.478 280.832C627.021 279.008 639.564 277.184 652.487 275.305C644.515 296.75 637.131 308.14 614.478 319.519C608.207 319.519 601.935 319.519 595.474 319.519C591.293 310.4 587.112 301.281 582.804 291.885C576.533 291.885 570.261 291.885 563.8 291.885C561.709 299.18 559.619 306.476 557.465 313.992C549.103 310.344 540.741 306.697 532.125 302.939C540.487 301.115 548.849 299.291 557.465 297.412C557.465 293.764 557.465 290.117 557.465 286.358C561.646 286.358 565.827 286.358 570.134 286.358C570.134 282.711 570.134 279.063 570.134 275.305C582.804 269.778 582.804 269.778 608.143 269.778Z" fill="#2D73B6"/>
<path d="M798.188 601.38C817.003 606.852 835.817 612.323 855.202 617.96C855.202 621.608 855.202 625.256 855.202 629.014C859.775 630.268 864.348 631.522 869.059 632.813C890.247 641.44 902.815 652.796 918.55 667.701C899.736 667.701 880.921 667.701 861.537 667.701C859.446 658.582 857.356 649.463 855.202 640.067C838.478 636.42 821.754 632.772 804.523 629.014C806.614 625.366 808.704 621.719 810.858 617.96C806.677 616.137 802.496 614.313 798.188 612.434C798.188 608.786 798.188 605.139 798.188 601.38Z" fill="#2662AA"/>
<path d="M855.203 524.005C855.203 540.585 855.203 540.585 842.533 557.166C846.714 557.166 850.895 557.166 855.203 557.166C853.113 562.637 851.022 568.108 848.868 573.746C848.868 570.098 848.868 566.45 848.868 562.692C844.687 562.692 840.506 562.692 836.199 562.692C836.199 568.164 836.199 573.635 836.199 579.272C840.38 579.272 844.561 579.272 848.868 579.272C848.868 582.92 848.868 586.568 848.868 590.326C840.506 588.502 832.144 586.678 823.529 584.799C823.529 581.151 823.529 577.504 823.529 573.746C809.366 583.496 809.366 583.496 810.859 595.852C802.497 595.852 794.135 595.852 785.52 595.852C783.429 583.086 781.339 570.319 779.185 557.166C791.728 557.166 804.271 557.166 817.194 557.166C819.285 551.694 821.375 546.223 823.529 540.585C839.762 531.259 839.762 531.259 855.203 524.005Z" fill="#68A4D0"/>
<path d="M1140.27 258.725C1159.08 261.46 1159.08 261.46 1178.28 264.251C1182.63 274.268 1182.63 274.268 1184.61 286.358C1167.03 306.514 1145.92 308.587 1118.59 312.804C1094.86 314.53 1079.85 310.913 1057.92 302.938C1045.25 291.885 1045.25 291.885 1045.25 275.305C1049.43 275.305 1053.61 275.305 1057.92 275.305C1057.92 280.776 1057.92 286.248 1057.92 291.885C1092.42 292.42 1125.31 292.596 1159.27 286.358C1159.27 280.887 1159.27 275.415 1159.27 269.778C1153 266.13 1146.73 262.483 1140.27 258.725Z" fill="#8E9A9E"/>
<path d="M576.47 474.266C578.56 479.738 580.651 485.209 582.805 490.846C586.986 490.846 591.167 490.846 595.474 490.846C595.474 496.318 595.474 501.789 595.474 507.426C572.166 520.983 560.233 519.795 532.522 519.516C524.756 519.48 516.99 519.445 508.989 519.408C492.149 518.671 478.404 517.315 462.443 512.953C462.443 509.305 462.443 505.658 462.443 501.9C500.072 501.9 537.701 501.9 576.47 501.9C576.47 498.252 576.47 494.604 576.47 490.846C561.836 490.846 547.203 490.846 532.126 490.846C532.126 487.199 532.126 483.551 532.126 479.793C554.076 477.057 554.076 477.057 576.47 474.266Z" fill="#A6BCBA"/>
<path d="M543.608 268.397C554.644 268.696 554.644 268.696 565.904 269.001C571.481 269.258 577.058 269.514 582.805 269.778C576.533 272.514 576.533 272.514 570.135 275.305C570.135 278.953 570.135 282.6 570.135 286.358C511.693 311.738 511.693 311.738 475.113 308.465C473.022 302.994 470.932 297.522 468.778 291.885C493.903 270.915 509.117 267.181 543.608 268.397Z" fill="#5392CB"/>
<path d="M291.403 220.037C295.453 224.483 299.504 228.928 303.677 233.508C312.98 243.664 312.98 243.664 323.077 253.197C335.338 253.748 347.622 253.914 359.898 253.888C366.603 253.902 373.307 253.917 380.214 253.931C398.482 253.863 398.482 253.863 413.027 249.7C416.791 249.03 420.556 248.361 424.434 247.671C430.706 251.318 436.977 254.966 443.439 258.724C444.627 275.995 444.627 275.995 443.439 291.884C430.769 280.831 430.769 280.831 418.1 264.251C411.534 264.906 404.969 265.562 398.204 266.237C389.528 266.963 380.85 267.682 372.172 268.396C367.852 268.845 363.532 269.293 359.082 269.756C346.338 270.727 346.338 270.727 323.077 269.777C308.824 259.242 308.824 259.242 297.738 247.671C274.708 240.609 274.708 240.609 253.394 236.617C253.394 232.97 253.394 229.322 253.394 225.564C265.937 223.74 278.48 221.916 291.403 220.037Z" fill="#D2E0E9"/>
<path d="M114.027 490.847C116.118 494.494 118.208 498.142 120.362 501.9C136.117 503.878 151.707 504.352 167.601 504.987C186.084 507.786 195.079 513.352 209.05 524.007C149.439 526.046 149.439 526.046 120.362 512.953C120.362 516.601 120.362 520.249 120.362 524.007C101.198 537.284 92.4093 540.893 67.7041 538.86C62.0859 537.606 56.4676 536.352 50.6792 535.06C56.5587 533.179 56.5587 533.179 62.557 531.261C77.5307 524.819 77.5307 524.819 82.3533 509.845C84.4438 505.399 86.5343 500.954 88.6882 496.373C102.15 491.883 102.15 491.883 114.027 490.847Z" fill="#3C83CB"/>
<path d="M810.859 446.634C835.945 446.634 861.031 446.634 886.877 446.634C891.96 468.808 893.694 479.733 890.44 500.865C889.795 505.232 889.15 509.599 888.485 514.098C887.955 517.368 887.424 520.638 886.877 524.008C895.239 525.831 903.601 527.655 912.216 529.534C905.945 529.534 899.673 529.534 893.212 529.534C893.212 533.182 893.212 536.83 893.212 540.588C889.031 540.588 884.85 540.588 880.542 540.588C878.452 555.178 876.361 569.769 874.207 584.801C872.117 584.801 870.026 584.801 867.872 584.801C866.256 543.201 872.415 504.175 880.542 463.214C867.963 462.134 855.384 461.055 842.805 459.976C829.863 457.687 829.863 457.687 810.859 446.634Z" fill="#DBE7EA"/>
<path d="M107.692 562.695C135.755 561.406 156.547 560.681 182.126 571.33C201.274 580.42 201.274 580.42 217.76 578.239C229.307 574.324 229.307 574.324 234.389 562.695C285.787 566.691 334.651 576.259 384.754 586.788C417.091 593.26 442.468 598.196 475.112 590.328C483.827 588.459 492.546 586.604 501.268 584.759C515.395 581.669 529.508 578.549 543.595 575.324C580.865 567.275 605.588 568.211 639.818 584.802C639.818 588.449 639.818 592.097 639.818 595.855C636.682 594.943 633.546 594.031 630.315 593.092C583.752 584.967 543.118 593.551 497.68 603.282C446.624 611.487 404.121 604.262 354.354 593.783C348.307 592.557 342.261 591.332 336.03 590.069C303.989 583.51 272.274 576.392 240.723 568.222C236.542 575.517 232.361 582.812 228.054 590.328C197.748 587.64 173.844 584.086 145.701 573.748C133.079 571.671 120.413 569.77 107.692 568.222C107.692 566.398 107.692 564.574 107.692 562.695Z" fill="#DFE6E2"/>
<path d="M304.073 529.532C307.209 535.004 307.209 535.004 310.408 540.586C299.956 540.586 289.503 540.586 278.734 540.586C283.941 552.696 283.941 552.696 298.159 556.346C303.377 557.756 308.595 559.167 313.971 560.62C319.206 562.059 324.44 563.498 329.833 564.981C333.875 566.05 337.918 567.118 342.082 568.219C342.082 571.867 342.082 575.515 342.082 579.273C288.775 571.066 288.775 571.066 234.39 562.693C230.209 569.988 226.028 577.283 221.72 584.799C202.753 582.292 188.125 578.486 170.646 571.328C138.767 558.72 104.073 555.827 69.6846 551.639C69.6846 549.815 69.6846 547.992 69.6846 546.113C90.5895 546.113 111.494 546.113 133.033 546.113C133.033 542.465 133.033 538.817 133.033 535.059C137.214 536.883 141.395 538.707 145.703 540.586C143.612 544.233 141.522 547.881 139.368 551.639C176.997 557.111 176.997 557.111 215.386 562.693C217.476 557.221 219.567 551.75 221.72 546.113C247.225 533.48 274.777 527.136 304.073 529.532Z" fill="#1F5797"/>
<path d="M253.393 407.944C268.939 421.507 268.494 427.548 270.418 446.286C270.965 451.123 271.512 455.961 272.076 460.945C272.398 474.265 272.398 474.265 266.063 490.845C261.882 490.845 257.701 490.845 253.393 490.845C249.212 485.373 245.031 479.902 240.724 474.265C232.362 474.265 224 474.265 215.384 474.265C215.042 466.207 214.796 458.147 214.592 450.085C214.372 443.353 214.372 443.353 214.147 436.485C215.384 424.524 215.384 424.524 228.054 413.471C228.054 424.414 228.054 435.357 228.054 446.631C232.235 446.631 236.416 446.631 240.724 446.631C244.905 433.865 249.086 421.098 253.393 407.944Z" fill="#2173C5"/>
<path d="M342.082 485.32C346.263 488.967 350.444 492.615 354.751 496.373C346.389 496.373 338.027 496.373 329.412 496.373C327.322 503.668 325.231 510.964 323.077 518.48C335.62 522.128 348.163 525.775 361.086 529.533C348.543 535.005 348.543 535.005 335.747 540.587C346.199 549.706 356.652 558.825 367.421 568.22C331.485 569.842 310.467 568.251 278.733 551.64C278.733 547.993 278.733 544.345 278.733 540.587C287.095 538.763 295.457 536.939 304.073 535.06C289.439 535.06 274.806 535.06 259.729 535.06C257.638 529.589 255.548 524.117 253.394 518.48C275.344 515.744 275.344 515.744 297.738 512.953C295.647 509.306 293.557 505.658 291.403 501.9C301.855 501.9 312.308 501.9 323.077 501.9C323.077 498.252 323.077 494.605 323.077 490.847C329.349 489.023 335.62 487.199 342.082 485.32Z" fill="#2C78C0"/>
<path d="M0 557.166C23.2379 558.555 46.4599 560.093 69.6831 561.656C76.2078 562.045 82.7324 562.433 89.4547 562.833C128.707 565.56 160.148 571.412 196.38 584.8C217.712 587.337 224.583 586.764 242.703 576.509C246.231 573.774 249.759 571.038 253.393 568.219C261.755 571.867 270.117 575.515 278.733 579.273C274.029 580.755 269.325 582.237 264.479 583.763C247.011 589.433 247.011 589.433 235.054 599.433C221.719 606.906 221.719 606.906 208.31 605.324C203.475 603.701 198.64 602.079 193.658 600.408C154.772 588.765 115.797 583.525 75.2261 578.237C67.9584 577.257 60.6906 576.277 53.2027 575.268C35.4742 572.884 17.7405 570.535 0 568.219C0 564.572 0 560.924 0 557.166Z" fill="#789199"/>
<path d="M253.393 407.944C268.939 421.507 268.494 427.548 270.418 446.286C270.965 451.123 271.512 455.961 272.076 460.945C272.398 474.265 272.398 474.265 266.063 490.845C261.882 490.845 257.701 490.845 253.393 490.845C249.212 485.373 245.031 479.902 240.724 474.265C232.362 474.265 224 474.265 215.384 474.265C215.042 466.207 214.796 458.147 214.592 450.085C214.372 443.353 214.372 443.353 214.147 436.485C215.384 424.524 215.384 424.524 228.054 413.471C228.054 424.414 228.054 435.357 228.054 446.631C232.235 446.631 236.416 446.631 240.724 446.631C244.905 433.865 249.086 421.098 253.393 407.944Z" fill="#2173C5"/>
</svg>
