<svg width="735" height="614" viewBox="0 0 735 614" fill="none" xmlns="http://www.w3.org/2000/svg">
<path d="M620.811 303.97C622.379 307.39 623.947 310.81 625.563 314.333C632.366 326.906 632.366 326.906 646.547 331.604C658.82 337.13 658.82 337.13 663.967 347.148C665.377 361.497 662.065 372.715 658.82 386.871C658.244 403.462 658.447 420.018 658.82 436.611C665.092 432.963 671.363 429.316 677.825 425.558C684.096 427.381 690.368 429.205 696.829 431.084C694.739 449.322 692.648 467.561 690.495 486.351C686.314 486.351 682.133 486.351 677.825 486.351C678.576 490.084 679.327 493.818 680.101 497.664C686.82 538.226 686.82 538.226 673.866 554.744C668.901 557.708 663.936 560.672 658.82 563.725C653.725 567.943 648.629 572.16 643.379 576.506C627.146 585.832 627.146 585.832 595.472 580.305C589.201 551.124 582.929 521.943 576.468 491.878C540.413 497.121 520.881 504.589 490.106 519.727C473.235 525.702 466.483 525.088 449.771 519.512C491.739 497.405 491.739 497.405 513.119 497.405C513.119 493.757 513.119 490.109 513.119 486.351C517.398 485.397 521.677 484.442 526.086 483.458C561.164 474.262 561.164 474.262 585.203 451.637C589.151 442.066 592.864 432.418 596.338 422.708C604.376 402.527 616.27 390.833 633.481 375.817C637.662 375.817 641.843 375.817 646.151 375.817C646.151 370.346 646.151 364.874 646.151 359.237C642.231 358.553 638.311 357.869 634.273 357.165C620.811 353.711 620.811 353.711 608.142 342.657C611.741 311.883 611.741 311.883 620.811 303.97ZM627.146 397.924C625.056 407.043 622.965 416.162 620.811 425.558C616.63 425.558 612.449 425.558 608.142 425.558C608.142 436.5 608.142 447.443 608.142 458.718C601.87 460.542 595.599 462.365 589.137 464.245C589.007 471.312 588.876 478.379 588.741 485.66C588.668 489.636 588.594 493.611 588.519 497.707C588.336 508.911 588.336 508.911 595.472 519.512C596.905 528.927 598.062 538.376 599.035 547.836C599.566 552.866 600.097 557.895 600.644 563.077C601.028 566.939 601.411 570.8 601.807 574.779C629.741 569.429 654.236 562.501 671.49 541.618C673.461 518.852 670.02 497.662 665.155 475.298C669.336 475.298 673.517 475.298 677.825 475.298C679.915 464.355 682.006 453.412 684.16 442.138C677.888 443.962 671.617 445.785 665.155 447.664C665.155 451.312 665.155 454.96 665.155 458.718C660.974 458.718 656.793 458.718 652.486 458.718C652.486 440.48 652.486 422.242 652.486 403.451C644.124 401.627 635.762 399.803 627.146 397.924Z" fill="#DCE2DD"/>
<path d="M519.455 342.656C534.897 346.801 534.897 346.801 551.13 353.709C556.277 365.453 556.277 365.453 557.464 375.816C562.429 376.5 567.394 377.184 572.51 377.888C589.139 381.343 589.139 381.343 601.808 392.396C587.175 390.572 572.541 388.748 557.464 386.869C565.826 394.165 574.188 401.46 582.804 408.976C576.532 408.976 570.261 408.976 563.799 408.976C563.799 412.624 563.799 416.271 563.799 420.03C570.071 420.03 576.342 420.03 582.804 420.03C582.804 423.677 582.804 427.325 582.804 431.083C574.442 431.083 566.08 431.083 557.464 431.083C561.56 448.314 561.56 448.314 576.469 453.19C578.559 449.542 580.65 445.895 582.804 442.136C580.713 449.432 578.623 456.727 576.469 464.243C554.911 458.392 538.374 453.14 519.455 442.136C523.636 449.432 527.817 456.727 532.125 464.243C525.854 462.419 519.582 460.596 513.121 458.716C513.121 455.069 513.121 451.421 513.121 447.663C509.152 446.659 505.183 445.654 501.094 444.619C495.917 443.23 490.74 441.841 485.406 440.409C480.261 439.063 475.117 437.716 469.816 436.329C456.107 431.083 456.107 431.083 443.438 414.503C470.614 416.327 497.79 418.15 525.79 420.03C516.775 416.154 507.76 412.278 498.471 408.285C472.076 395.556 459.025 385.181 449.772 359.236C451.863 355.588 453.953 351.941 456.107 348.182C460.358 352.874 460.358 352.874 464.694 357.66C468.524 361.714 472.354 365.767 476.299 369.944C480.048 373.983 483.796 378.023 487.658 382.185C502.51 394.04 512.385 396.049 532.125 397.923C532.125 394.275 532.125 390.628 532.125 386.869C527.552 386.641 522.979 386.413 518.268 386.179C492.642 379.223 484.647 366.775 468.777 348.182C494.116 359.236 519.455 370.289 544.795 381.343C544.795 374.047 544.795 366.752 544.795 359.236C536.433 355.588 528.071 351.941 519.455 348.182C519.455 346.359 519.455 344.535 519.455 342.656Z" fill="#B0C4B2"/>
<path d="M468.778 309.495C477.14 309.495 485.502 309.495 494.117 309.495C494.117 313.143 494.117 316.79 494.117 320.549C504.543 321.473 514.969 322.393 525.395 323.312C531.201 323.825 537.007 324.338 542.989 324.866C553.379 325.76 553.379 325.76 563.8 326.075C580.404 326.075 592.366 327.805 608.144 331.602C610.234 342.545 612.325 353.488 614.479 364.762C598.8 356.555 598.8 356.555 582.805 348.182C582.805 351.83 582.805 355.477 582.805 359.235C559.049 365.453 559.049 365.453 544.796 359.235C544.796 366.531 544.796 373.826 544.796 381.342C516.195 378.407 498.256 368.265 475.112 353.709C480.992 358.154 486.871 362.6 492.929 367.18C496.236 369.681 499.544 372.181 502.951 374.758C513.8 382.496 513.8 382.496 532.126 386.869C532.126 390.517 532.126 394.164 532.126 397.922C512.489 399.644 503.385 399.807 487.213 389.416C475.454 377.834 464.965 367.135 456.108 353.709C459.671 335.056 459.671 335.056 468.778 320.549C468.778 316.901 468.778 313.253 468.778 309.495Z" fill="#5796C7"/>
<path d="M399.093 337.129C400.387 368.843 400.813 395.742 386.424 425.556C392.434 426.81 398.444 428.064 404.636 429.356C424.433 436.61 424.433 436.61 433.143 451.117C435.103 457.614 435.103 457.614 437.102 464.243C431.354 460.595 425.605 456.948 419.682 453.19C399.526 440.205 399.526 440.205 373.754 442.136C375.958 453.053 375.958 453.053 380.089 464.243C384.27 466.067 388.451 467.891 392.759 469.77C374.546 473.224 374.546 473.224 354.75 475.296C350.569 471.649 346.388 468.001 342.08 464.243C350.442 462.419 358.804 460.595 367.419 458.716C357.33 441.403 357.33 441.403 342.844 439.747C338.133 439.602 333.422 439.457 328.569 439.308C323.465 439.112 318.361 438.916 313.103 438.714C307.771 438.59 302.438 438.465 296.944 438.337C291.563 438.148 286.181 437.959 280.637 437.765C267.335 437.308 254.029 436.95 240.723 436.61C246.994 428.402 246.994 428.402 253.392 420.029C274.297 421.853 295.202 423.677 316.741 425.556C320.922 418.261 325.103 410.966 329.41 403.449C341.733 396.455 341.733 396.455 355.541 391.014C360.131 389.162 364.72 387.31 369.448 385.401C372.96 384.062 376.471 382.722 380.089 381.343C380.089 374.047 380.089 366.752 380.089 359.236C373.817 361.06 367.546 362.883 361.084 364.762C368.223 346.079 375.095 337.129 399.093 337.129Z" fill="#2365AD"/>
<path d="M304.071 303.97C310.342 303.97 316.614 303.97 323.075 303.97C323.075 318.561 323.075 333.151 323.075 348.184C333.528 348.184 343.98 348.184 354.749 348.184C354.749 364.764 354.749 364.764 344.331 374.263C339.799 377.512 335.267 380.76 330.598 384.107C311.582 397.836 311.582 397.836 293.777 412.712C271.2 431.681 231.836 425.988 202.713 425.558C212.121 406.408 212.121 406.408 221.718 386.871C230.08 386.871 238.442 386.871 247.057 386.871C249.148 381.399 251.238 375.928 253.392 370.291C259.663 375.762 265.935 381.233 272.397 386.871C266.125 386.871 259.854 386.871 253.392 386.871C253.392 390.518 253.392 394.166 253.392 397.924C263.844 397.924 274.297 397.924 285.066 397.924C288.052 375.817 288.052 375.817 272.397 364.764C282.849 362.94 293.301 361.116 304.071 359.237C304.071 340.999 304.071 322.761 304.071 303.97Z" fill="#5690C2"/>
<path d="M633.482 198.963C642.465 200.537 651.437 202.158 660.405 203.799C665.402 204.696 670.4 205.594 675.549 206.519C690.294 209.969 702.47 214.705 715.834 221.07C703.683 221.754 703.683 221.754 691.287 222.451C677.488 223.605 677.488 223.605 665.156 226.596C655.084 237.211 655.084 237.211 652.486 248.703C658.758 252.351 665.029 255.998 671.491 259.757C646.151 259.757 646.151 259.757 633.482 256.302C616.876 253.586 609.863 258.169 595.473 265.283C591.292 265.283 587.111 265.283 582.803 265.283C580.712 268.931 578.622 272.579 576.468 276.337C580.649 278.161 584.83 279.984 589.138 281.863C574.667 294.895 563.747 303.347 542.666 305.438C528.519 305.36 514.553 304.935 500.45 303.97C500.45 302.146 500.45 300.323 500.45 298.443C525.536 295.708 525.536 295.708 551.129 292.917C555.446 282.461 555.446 282.461 557.464 270.81C553.283 267.162 549.102 263.515 544.794 259.757C547.17 248.012 547.17 248.012 551.129 237.65C559.491 239.474 567.853 241.297 576.468 243.176C576.468 239.529 576.468 235.881 576.468 232.123C584.83 232.123 593.192 232.123 601.807 232.123C611.624 225.042 611.624 225.042 619.228 215.543C623.932 210.072 628.635 204.6 633.482 198.963Z" fill="#3478BC"/>
<path d="M335.745 226.595C337.835 232.066 339.926 237.538 342.08 243.175C346.914 243.973 351.748 244.771 356.729 245.593C373.754 248.702 373.754 248.702 392.758 254.228C394.849 263.347 396.939 272.466 399.093 281.862C390.731 276.39 382.369 270.919 373.754 265.282C375.975 268.017 378.196 270.753 380.485 273.572C389.338 294.17 384.208 310.037 380.089 331.602C386.36 312.452 386.36 312.452 392.758 292.915C394.849 292.915 396.939 292.915 399.093 292.915C401.073 310.877 401.073 310.877 399.093 331.602C386.028 345.419 386.028 345.419 367.419 353.709C343.267 352.327 343.267 352.327 323.075 348.182C322.904 339.317 322.781 330.451 322.679 321.585C322.606 316.648 322.532 311.711 322.457 306.624C323.224 289.607 329.591 275.863 335.745 259.755C338.489 265.055 338.489 265.055 341.288 270.463C347.326 282.702 347.326 282.702 361.084 287.388C359.124 284.083 357.164 280.777 355.145 277.371C348.414 265.282 348.414 265.282 342.08 248.702C337.899 246.878 333.718 245.054 329.41 243.175C331.501 237.703 333.591 232.232 335.745 226.595Z" fill="#A6C2BC"/>
<path d="M620.813 248.702C633.483 265.282 633.483 265.282 633.483 276.336C649.161 279.071 649.161 279.071 665.157 281.862C665.157 287.334 665.157 292.805 665.157 298.442C660.061 299.924 654.965 301.406 649.716 302.933C644.359 305.099 639.002 307.264 633.483 309.496C631.392 314.967 629.302 320.439 627.148 326.076C625.057 320.605 622.967 315.133 620.813 309.496C614.541 320.439 608.27 331.382 601.808 342.656C599.718 337.185 597.627 331.713 595.474 326.076C580.709 331.374 580.709 331.374 570.134 348.183C568.044 344.535 565.953 340.888 563.799 337.129C549.14 333.091 534.353 329.384 519.456 326.076C521.546 322.428 523.637 318.781 525.79 315.023C531.801 313.427 537.811 311.831 544.003 310.187C565.578 303.411 572.222 299.3 582.804 281.862C582.804 274.567 582.804 267.272 582.804 259.756C590.447 258.559 590.447 258.559 598.245 257.338C613.978 255.658 613.978 255.658 620.813 248.702Z" fill="#4085C3"/>
<path d="M589.138 464.243C593.319 464.243 597.5 464.243 601.808 464.243C601.808 471.538 601.808 478.834 601.808 486.35C608.079 484.526 614.351 482.702 620.812 480.823C624.993 488.119 629.174 495.414 633.482 502.93C635.572 499.282 637.663 495.635 639.817 491.877C643.998 491.877 648.179 491.877 652.486 491.877C654.577 486.405 656.667 480.934 658.821 475.297C673.019 487.683 671.886 509.488 673.594 526.073C671.491 541.617 671.491 541.617 661.271 553.016C640.853 566.563 627.887 574.777 601.808 574.777C601.424 570.916 601.04 567.054 600.645 563.076C600.114 558.046 599.583 553.017 599.036 547.835C598.522 542.833 598.007 537.832 597.477 532.679C596.297 519.449 596.297 519.449 589.138 508.457C588.288 493.687 588.864 479.041 589.138 464.243Z" fill="#3978B6"/>
<path d="M551.13 165.802C551.13 182.217 551.13 198.631 551.13 215.543C563.673 215.543 576.216 215.543 589.139 215.543C587.048 219.19 584.958 222.838 582.804 226.596C576.794 228.192 570.783 229.788 564.591 231.432C542.745 238.293 538.624 243.762 525.79 259.756C519.519 259.756 513.247 259.756 506.786 259.756C512.374 272.764 512.374 272.764 532.125 276.336C534.216 270.865 536.306 265.393 538.46 259.756C544.732 261.58 551.003 263.404 557.465 265.283C553.284 272.578 549.103 279.873 544.795 287.39C540.614 287.39 536.433 287.39 532.125 287.39C524.09 287.561 524.09 287.561 515.892 287.735C500.451 287.39 500.451 287.39 494.116 281.863C489.707 248.056 494.679 217.983 513.121 187.909C534.026 165.802 534.026 165.802 551.13 165.802Z" fill="#1E5EAA"/>
<path d="M627.148 397.924C635.51 399.748 643.872 401.571 652.487 403.451C652.487 421.689 652.487 439.927 652.487 458.718C656.668 458.718 660.849 458.718 665.157 458.718C667.247 453.246 669.338 447.775 671.492 442.137C675.673 442.137 679.854 442.137 684.161 442.137C682.071 453.08 679.98 464.023 677.826 475.298C671.555 477.121 665.283 478.945 658.822 480.824C656.731 484.472 654.641 488.12 652.487 491.878C648.306 491.878 644.125 491.878 639.817 491.878C637.727 497.349 635.636 502.821 633.483 508.458C630.608 504.81 627.734 501.163 624.772 497.404C621.375 493.757 617.978 490.109 614.478 486.351C610.297 486.351 606.116 486.351 601.808 486.351C599.718 477.232 597.627 468.113 595.474 458.718C599.655 458.718 603.836 458.718 608.143 458.718C608.143 447.775 608.143 436.832 608.143 425.557C612.324 425.557 616.505 425.557 620.813 425.557C622.903 416.438 624.994 407.319 627.148 397.924Z" fill="#6A9ABF"/>
<path d="M462.441 281.863C466.622 281.863 470.803 281.863 475.11 281.863C479.291 287.334 483.472 292.806 487.78 298.443C503.788 300.883 503.788 300.883 521.83 300.17C527.889 300.149 533.948 300.127 540.191 300.105C557.406 298.448 568.043 295.048 582.802 287.389C561.751 313.918 561.751 313.918 540.042 319.513C535.339 319.855 530.635 320.197 525.789 320.55C544.64 324.433 544.64 324.433 563.798 326.076C574.356 326.076 584.914 326.076 595.472 326.076C595.472 333.372 595.472 340.667 595.472 348.183C591.291 348.183 587.11 348.183 582.802 348.183C582.802 351.831 582.802 355.478 582.802 359.237C559.047 365.454 559.047 365.454 544.793 359.237C544.793 366.532 544.793 373.827 544.793 381.343C516.193 378.408 498.254 368.266 475.11 353.71C483.93 360.378 483.93 360.378 492.927 367.181C496.234 369.682 499.541 372.182 502.949 374.759C513.798 382.497 513.798 382.497 532.124 386.87C532.124 390.518 532.124 394.165 532.124 397.924C512.258 399.723 503.46 399.98 487.434 389.029C483.628 385.125 479.823 381.221 475.902 377.198C471.999 373.351 468.095 369.504 464.074 365.54C456.106 353.71 456.106 353.71 458.828 341.879C460.02 338.488 461.212 335.097 462.441 331.603C458.26 327.955 454.079 324.308 449.771 320.55C449.771 315.078 449.771 309.607 449.771 303.97C453.952 303.97 458.133 303.97 462.441 303.97C462.441 296.674 462.441 289.379 462.441 281.863Z" fill="#64A0CD"/>
<path d="M234.389 331.602C241.654 350.616 239.908 353.724 231.642 371.563C229.621 375.998 227.6 380.432 225.517 385.002C223.349 389.607 221.181 394.213 218.948 398.959C216.804 403.629 214.66 408.299 212.452 413.11C207.147 424.647 201.788 436.163 196.38 447.663C200.953 449.145 205.526 450.626 210.237 452.153C216.117 454.319 221.996 456.485 228.054 458.716C233.893 460.861 239.731 463.005 245.747 465.214C259.728 475.296 259.728 475.296 262.821 493.841C262.27 504.324 262.27 504.324 261.708 515.019C261.422 522.051 261.136 529.083 260.842 536.327C260.474 541.72 260.107 547.114 259.728 552.67C257.638 552.67 255.547 552.67 253.393 552.67C247.122 517.106 247.122 517.106 240.724 480.823C233.015 480.481 225.306 480.139 217.364 479.787C188.866 476.838 176.986 466.769 158.371 447.663C143.296 441.087 133.571 441.398 116.798 441.445C111.695 441.431 106.591 441.417 101.333 441.402C88.6913 440.92 88.6913 440.92 82.3528 447.663C68.5243 448.961 54.6567 449.949 40.7805 450.772C29.4012 451.466 29.4012 451.466 17.792 452.175C11.9206 452.51 6.04927 452.844 0 453.189C0 444.07 0 434.951 0 425.556C2.09049 429.204 4.18099 432.851 6.33483 436.609C13.9782 434.358 21.6216 432.107 29.4966 429.787C39.7216 426.987 49.9499 424.195 60.1809 421.411C65.1948 419.908 70.2087 418.404 75.3746 416.856C104.32 409.197 121.184 406.958 148.671 419.252C152.684 421.416 156.698 423.58 160.833 425.81C170.88 432.021 170.88 432.021 183.71 431.083C203.011 398.608 219.318 365.732 234.389 331.602Z" fill="#C7C0A7"/>
<path d="M715.835 221.069C703.684 221.753 703.684 221.753 691.287 222.451C677.488 223.604 677.488 223.604 665.156 226.596C655.084 237.21 655.084 237.21 652.486 248.702C658.758 252.35 665.029 255.998 671.491 259.756C663.129 259.756 654.767 259.756 646.151 259.756C629.228 264.186 629.228 264.186 614.477 270.809C612.387 274.457 610.296 278.104 608.142 281.863C614.414 283.686 620.685 285.51 627.147 287.389C625.056 294.685 622.966 301.98 620.812 309.496C610.36 307.672 599.907 305.849 589.138 303.969C584.957 291.203 580.776 278.436 576.468 265.283C591.102 254.34 605.735 243.397 620.812 232.122C610.36 235.77 599.907 239.418 589.138 243.176C589.138 239.528 589.138 235.88 589.138 232.122C584.957 232.122 580.776 232.122 576.468 232.122C576.468 235.77 576.468 239.418 576.468 243.176C568.106 243.176 559.744 243.176 551.129 243.176C551.129 248.647 551.129 254.119 551.129 259.756C543.21 269.428 543.21 269.428 532.124 276.336C518.267 274.609 518.267 274.609 506.785 270.809C506.785 267.162 506.785 263.514 506.785 259.756C513.057 257.932 519.328 256.108 525.79 254.229C531.669 247.39 531.669 247.39 537.667 240.412C552.848 224.831 559.977 222.728 582.803 221.069C580.713 217.421 578.622 213.774 576.468 210.016C628.047 196.186 668.009 198.941 715.835 221.069Z" fill="#498AC5"/>
<path d="M576.469 292.917C589.012 296.564 601.555 300.212 614.478 303.97C613.498 313.032 613.498 313.032 612.498 322.277C613.152 329.002 613.805 335.728 614.478 342.657C629.509 353.758 629.509 353.758 646.152 359.237C636.555 378.265 623.21 394.028 609.257 410.726C601.228 420.755 594.786 430.94 589.139 442.137C584.958 442.137 580.777 442.137 576.469 442.137C576.469 445.785 576.469 449.433 576.469 453.191C570.198 451.367 563.926 449.543 557.465 447.664C557.465 442.193 557.465 436.721 557.465 431.084C565.827 431.084 574.188 431.084 582.804 431.084C582.804 427.436 582.804 423.789 582.804 420.031C576.532 420.031 570.261 420.031 563.799 420.031C563.799 416.383 563.799 412.735 563.799 408.977C567.98 407.153 572.161 405.33 576.469 403.451C568.107 396.155 559.745 388.86 551.13 381.344C559.492 381.344 567.854 381.344 576.469 381.344C570.198 379.52 563.926 377.696 557.465 375.817C559.555 370.346 561.646 364.874 563.799 359.237C570.071 359.237 576.342 359.237 582.804 359.237C582.804 355.589 582.804 351.942 582.804 348.184C586.985 348.184 591.166 348.184 595.474 348.184C595.474 340.888 595.474 333.593 595.474 326.077C580.709 331.375 580.709 331.375 570.134 348.184C568.044 344.536 565.953 340.888 563.799 337.13C549.14 333.091 534.353 329.385 519.456 326.077C525.79 315.023 525.79 315.023 544.399 309.497C550.801 307.673 557.203 305.849 563.799 303.97C567.98 300.322 572.161 296.675 576.469 292.917Z" fill="#427FB6"/>
<path d="M259.727 508.456C263.908 513.927 268.089 519.399 272.397 525.036C272.397 521.389 272.397 517.741 272.397 513.983C287.031 517.63 301.664 521.278 316.741 525.036C316.741 528.684 316.741 532.331 316.741 536.09C312.56 536.09 308.379 536.09 304.071 536.09C304.071 539.737 304.071 543.385 304.071 547.143C312.433 545.319 320.795 543.495 329.411 541.616C329.411 537.969 329.411 534.321 329.411 530.563C335.682 530.563 341.953 530.563 348.415 530.563C348.415 534.21 348.415 537.858 348.415 541.616C354.687 543.44 360.958 545.264 367.42 547.143C332.401 572.602 298.147 584.849 253.393 591.357C255.483 563.999 257.574 536.642 259.727 508.456Z" fill="#2E72B7"/>
<path d="M278.731 303.97C289.183 305.794 299.636 307.618 310.405 309.497C310.405 325.911 310.405 342.326 310.405 359.237C297.862 364.709 297.862 364.709 285.066 370.291C287.156 375.762 289.247 381.233 291.4 386.871C289.31 390.518 287.219 394.166 285.066 397.924C274.613 397.924 264.161 397.924 253.391 397.924C253.391 390.629 253.391 383.334 253.391 375.817C251.301 379.465 249.21 383.113 247.057 386.871C238.695 385.047 230.333 383.223 221.717 381.344C230.079 361.282 238.441 341.22 247.057 320.55C249.147 324.198 251.238 327.846 253.391 331.604C265.927 335.621 278.601 339.331 291.4 342.657C291.4 337.186 291.4 331.714 291.4 326.077C283.038 326.077 274.676 326.077 266.061 326.077C270.242 318.782 274.423 311.487 278.731 303.97Z" fill="#8DB5D0"/>
<path d="M582.804 348.183C586.593 349.095 590.382 350.006 594.285 350.946C608.862 354.325 608.862 354.325 627.147 353.709C633.419 355.533 639.69 357.357 646.152 359.236C646.152 382.621 633.147 387.162 614.478 403.45C605.092 416.033 597.205 428.844 589.138 442.137C584.957 442.137 580.776 442.137 576.469 442.137C576.469 445.784 576.469 449.432 576.469 453.19C570.197 451.366 563.926 449.542 557.464 447.663C557.464 442.192 557.464 436.72 557.464 431.083C565.826 431.083 574.188 431.083 582.804 431.083C582.804 427.436 582.804 423.788 582.804 420.03C576.532 420.03 570.261 420.03 563.799 420.03C563.799 416.382 563.799 412.734 563.799 408.976C567.98 407.153 572.161 405.329 576.469 403.45C568.107 396.154 559.745 388.859 551.129 381.343C559.491 381.343 567.853 381.343 576.469 381.343C570.197 379.519 563.926 377.695 557.464 375.816C559.555 370.345 561.645 364.873 563.799 359.236C570.071 359.236 576.342 359.236 582.804 359.236C582.804 355.588 582.804 351.941 582.804 348.183Z" fill="#5085B2"/>
<path d="M437.101 193.434C473.527 197.579 473.527 197.579 487.78 210.014C488.077 220.571 488.077 220.571 486.196 232.466C485.641 236.406 485.086 240.346 484.513 244.405C482.995 249.267 482.995 249.267 481.445 254.228C475.174 256.964 475.174 256.964 468.775 259.754C468.775 250.635 468.775 241.516 468.775 232.121C464.986 237.136 461.197 242.152 457.294 247.319C446.723 261.02 435.965 274.307 424.432 287.388C416.07 283.74 407.708 280.093 399.092 276.335C399.092 265.392 399.092 254.449 399.092 243.174C405.364 244.998 411.635 246.822 418.097 248.701C404.617 235.765 392.025 228.214 373.753 221.068C384.047 216.923 384.047 216.923 399.092 215.541C419.68 226.249 419.68 226.249 437.101 237.648C439.192 232.176 441.282 226.705 443.436 221.068C432.984 219.244 422.531 217.42 411.762 215.541C411.762 211.893 411.762 208.246 411.762 204.487C422.214 206.311 432.667 208.135 443.436 210.014C441.346 204.543 439.255 199.071 437.101 193.434Z" fill="#2B68B1"/>
<path d="M620.812 303.97C622.38 307.39 623.948 310.81 625.564 314.333C634.891 328.167 642.416 330.667 658.821 337.13C668.482 353.986 661.852 368.363 658.821 386.871C658.278 403.464 658.433 420.016 658.821 436.611C669.274 432.963 679.726 429.316 690.496 425.558C690.496 436.5 690.496 447.443 690.496 458.718C687.36 450.511 687.36 450.511 684.161 442.138C681.286 444.873 678.412 447.609 675.45 450.428C665.156 458.718 665.156 458.718 652.487 458.718C649.351 431.361 649.351 431.361 646.152 403.451C639.88 403.451 633.609 403.451 627.147 403.451C625.057 410.746 622.966 418.041 620.812 425.558C616.631 425.558 612.45 425.558 608.143 425.558C608.143 436.5 608.143 447.443 608.143 458.718C603.962 460.542 599.781 462.365 595.473 464.245C591.32 478.212 591.32 478.212 589.138 491.878C577.575 492.733 577.575 492.733 565.779 493.605C541.822 496.107 527.31 502.854 506.785 513.985C488.969 515.021 488.969 515.021 475.111 513.985C483.426 505.695 483.426 505.695 494.116 497.405C500.387 497.405 506.659 497.405 513.12 497.405C513.12 493.757 513.12 490.109 513.12 486.351C517.399 485.397 521.678 484.442 526.087 483.458C560.832 474.429 560.832 474.429 584.758 452.22C588.532 442.812 592.09 433.336 595.448 423.809C606.246 398.627 626.244 379.435 646.152 359.237C642.232 358.553 638.312 357.869 634.274 357.165C620.812 353.711 620.812 353.711 608.143 342.657C611.742 311.883 611.742 311.883 620.812 303.97Z" fill="#DCE3DF"/>
<path d="M519.455 116.061C521.545 123.356 523.636 130.652 525.79 138.168C534.152 138.168 542.514 138.168 551.129 138.168C553.109 150.603 553.109 150.603 551.129 165.801C540.765 173.377 530.181 180.726 519.455 187.908C507.99 205.133 507.99 205.133 500.45 221.068C496.269 221.068 492.088 221.068 487.781 221.068C483.73 217.421 479.68 213.773 475.507 210.015C463.201 197.038 463.201 197.038 443.437 198.962C443.437 202.609 443.437 206.257 443.437 210.015C432.984 208.191 422.532 206.367 411.763 204.488C409.672 208.136 407.582 211.783 405.428 215.542C401.247 213.718 397.066 211.894 392.758 210.015C392.758 206.367 392.758 202.72 392.758 198.962C403.399 191.6 403.399 191.6 417.306 183.418C438.361 170.209 449.953 160.986 456.107 138.168C462.837 148.53 462.837 148.53 468.776 160.275C466.686 163.922 464.595 167.57 462.441 171.328C458.26 171.328 454.079 171.328 449.772 171.328C449.772 174.976 449.772 178.623 449.772 182.381C477.993 187.853 477.993 187.853 506.785 193.435C510.966 167.901 515.147 142.368 519.455 116.061Z" fill="#4587C8"/>
<path d="M247.057 502.931C249.148 502.931 251.238 502.931 253.392 502.931C254.624 515.593 255.802 528.259 256.956 540.927C257.617 547.98 258.279 555.033 258.96 562.3C259.727 580.304 259.727 580.304 253.392 591.358C288.672 579.022 323.517 566.433 357.546 551.656C362.328 549.601 367.109 547.546 372.036 545.428C381.542 541.313 391.008 537.126 400.428 532.863C433.632 518.569 433.632 518.569 452.939 523.807C456.075 526.037 459.211 528.267 462.442 530.564C284.834 602.411 284.834 602.411 240.723 602.411C243.858 553.168 243.858 553.168 247.057 502.931Z" fill="#D9E0DF"/>
<path d="M676.861 220.529C689.852 220.709 702.844 220.889 715.835 221.069C715.835 230.188 715.835 239.307 715.835 248.702C701.202 245.054 686.568 241.407 671.491 237.649C677.763 245.856 677.763 245.856 684.161 254.229C682.015 285.427 670.872 313.497 658.822 342.656C650.46 339.008 642.098 335.361 633.482 331.603C633.482 324.307 633.482 317.012 633.482 309.496C643.935 305.848 654.387 302.2 665.156 298.442C665.156 292.971 665.156 287.499 665.156 281.862C654.704 280.038 644.252 278.215 633.482 276.336C631.392 270.864 629.301 265.393 627.147 259.755C639.817 259.755 652.487 259.755 665.156 259.755C658.885 256.108 652.613 252.46 646.152 248.702C661.382 221.243 661.382 221.243 676.861 220.529Z" fill="#2363A8"/>
<path d="M228.053 431.083C230.143 436.554 232.234 442.025 234.387 447.663C255.488 451.958 276.194 454.036 297.736 455.607C321.338 457.493 339.127 462.004 361.084 469.769C368.662 469.769 376.24 469.769 384.048 469.769C405.428 469.769 405.428 469.769 424.432 480.823C424.432 484.47 424.432 488.118 424.432 491.876C400.772 489.124 387.612 487.041 367.419 475.296C367.419 478.944 367.419 482.591 367.419 486.35C383.098 489.085 383.098 489.085 399.093 491.876C388.799 495.676 388.799 495.676 373.754 497.403C368.266 494.895 362.779 492.387 357.125 489.804C336.936 481.323 326.537 479.394 304.862 478.059C265 475.493 231.575 464.295 196.378 447.663C196.378 444.015 196.378 440.367 196.378 436.609C215.383 431.083 215.383 431.083 228.053 431.083Z" fill="#1B58A3"/>
<path d="M234.389 331.602C241.654 350.616 239.908 353.724 231.642 371.563C228.61 378.215 228.61 378.215 225.518 385.002C223.35 389.607 221.181 394.213 218.948 398.959C216.804 403.629 214.661 408.299 212.452 413.11C207.147 424.647 201.789 436.163 196.38 447.663C200.953 449.145 205.526 450.626 210.237 452.153C216.117 454.319 221.996 456.485 228.054 458.716C236.812 461.933 236.812 461.933 245.747 465.214C259.728 475.296 259.728 475.296 262.821 493.841C262.454 500.83 262.086 507.819 261.708 515.019C261.279 525.567 261.279 525.567 260.842 536.327C260.474 541.72 260.107 547.114 259.728 552.67C257.638 552.67 255.547 552.67 253.393 552.67C253.14 547.74 252.887 542.81 252.626 537.731C250.575 517.668 247.902 499.993 240.724 480.823C226.629 470.885 214.838 467.148 197.592 462.559C179.641 457.59 170.5 448.885 158.371 436.609C142.097 429.51 128.181 429.26 110.068 427.974C103.715 427.511 97.3615 427.048 90.8158 426.571C85.9326 426.236 81.0493 425.901 76.0181 425.556C92.8199 415.784 100.969 411.051 120.362 408.976C133.477 413.272 133.477 413.272 146.493 419.684C164.069 428.742 164.069 428.742 183.71 431.083C203.011 398.608 219.318 365.732 234.389 331.602Z" fill="#E1E7E3"/>
<path d="M304.071 303.97C310.342 303.97 316.614 303.97 323.075 303.97C323.075 318.561 323.075 333.151 323.075 348.184C333.528 348.184 343.98 348.184 354.749 348.184C354.749 364.764 354.749 364.764 344.331 374.263C339.799 377.512 335.267 380.76 330.598 384.107C311.582 397.836 311.582 397.836 293.777 412.712C271.2 431.681 231.836 425.988 202.713 425.558C212.121 406.408 212.121 406.408 221.718 386.871C230.08 386.871 238.442 386.871 247.057 386.871C249.148 381.399 251.238 375.928 253.392 370.291C259.663 375.762 265.935 381.233 272.397 386.871C266.125 386.871 259.854 386.871 253.392 386.871C253.392 390.518 253.392 394.166 253.392 397.924C263.844 397.924 274.297 397.924 285.066 397.924C288.052 375.817 288.052 375.817 272.397 364.764C282.849 362.94 293.301 361.116 304.071 359.237C304.071 340.999 304.071 322.761 304.071 303.97Z" fill="#5590C2"/>
<path d="M335.745 226.595C337.835 232.066 339.926 237.538 342.08 243.175C346.914 243.973 351.748 244.771 356.729 245.593C373.754 248.702 373.754 248.702 392.758 254.228C394.849 263.347 396.939 272.466 399.093 281.862C390.731 276.39 382.369 270.919 373.754 265.282C375.975 268.017 378.196 270.753 380.485 273.572C389.338 294.17 384.208 310.037 380.089 331.602C386.36 312.452 386.36 312.452 392.758 292.915C394.849 292.915 396.939 292.915 399.093 292.915C401.073 310.877 401.073 310.877 399.093 331.602C386.028 345.419 386.028 345.419 367.419 353.709C343.267 352.327 343.267 352.327 323.075 348.182C322.904 339.317 322.781 330.451 322.679 321.585C322.606 316.648 322.532 311.711 322.457 306.624C323.224 289.607 329.591 275.863 335.745 259.755C338.489 265.055 338.489 265.055 341.288 270.463C347.326 282.702 347.326 282.702 361.084 287.388C359.124 284.083 357.164 280.777 355.145 277.371C348.414 265.282 348.414 265.282 342.08 248.702C337.899 246.878 333.718 245.054 329.41 243.175C331.501 237.703 333.591 232.232 335.745 226.595Z" fill="#A6C2BC"/>
<path d="M671.491 326.075C675.672 326.075 679.853 326.075 684.161 326.075C682.07 355.256 679.98 384.437 677.826 414.502C686.188 416.326 694.55 418.15 703.165 420.029C701.075 447.386 698.984 474.743 696.83 502.93C694.74 497.458 692.649 491.987 690.495 486.35C686.314 486.35 682.133 486.35 677.826 486.35C678.414 490.752 679.002 495.155 679.607 499.691C683.246 546.285 683.246 546.285 667.655 564.652C654.132 573.971 643.42 580.801 627.147 585.83C616.695 584.006 606.242 582.182 595.473 580.303C593.383 558.418 591.292 536.532 589.138 513.983C593.319 515.807 597.5 517.631 601.808 519.51C601.808 537.748 601.808 555.986 601.808 574.777C606.381 572.383 610.954 569.989 615.665 567.523C633.482 558.197 633.482 558.197 650.309 551.461C667.13 542.642 667.13 542.642 668.249 525.49C667.882 519.527 667.514 513.564 667.136 507.42C666.85 501.414 666.564 495.409 666.27 489.221C665.902 484.626 665.535 480.031 665.156 475.296C669.337 475.296 673.518 475.296 677.826 475.296C679.916 460.706 682.007 446.115 684.161 431.083C675.799 432.906 667.437 434.73 658.821 436.609C651.48 395.324 652.189 364.607 671.491 326.075Z" fill="#ABB9C3"/>
<path d="M450.142 190.714C465.889 194.197 476.114 200.261 487.78 210.015C484.068 244.017 484.068 244.017 481.445 254.228C475.174 256.964 475.174 256.964 468.775 259.755C468.775 250.636 468.775 241.517 468.775 232.121C464.986 237.137 461.197 242.152 457.293 247.32C446.723 261.021 435.965 274.308 424.432 287.388C416.07 283.741 407.708 280.093 399.092 276.335C399.092 265.392 399.092 254.449 399.092 243.175C405.364 244.999 411.635 246.822 418.097 248.701C404.617 235.766 392.025 228.214 373.753 221.068C384.047 216.923 384.047 216.923 399.092 215.541C419.68 226.249 419.68 226.249 437.101 237.648C439.192 232.177 441.282 226.705 443.436 221.068C437.426 220.27 431.416 219.472 425.223 218.65C405.427 215.541 405.427 215.541 392.757 210.015C392.757 206.367 392.757 202.719 392.757 198.961C414.624 186.243 424.761 187.37 450.142 190.714Z" fill="#2D6BB3"/>
<path d="M468.776 215.542C470.867 215.542 472.957 215.542 475.111 215.542C475.111 228.308 475.111 241.075 475.111 254.228C479.292 243.286 483.473 232.343 487.781 221.068C491.962 221.068 496.143 221.068 500.45 221.068C500.45 241.13 500.45 261.192 500.45 281.862C528.342 281.862 539.723 280.41 563.799 270.809C558.256 292.224 558.256 292.224 551.129 298.442C540.475 299.729 529.773 300.723 519.059 301.551C513.236 302.014 507.414 302.477 501.415 302.954C496.916 303.289 492.416 303.624 487.781 303.969C483.6 296.673 479.419 289.378 475.111 281.862C470.93 281.862 466.749 281.862 462.441 281.862C462.441 287.333 462.441 292.805 462.441 298.442C458.26 298.442 454.079 298.442 449.772 298.442C447.774 265.337 451.785 245.189 468.776 215.542Z" fill="#3B84CC"/>
<path d="M202.713 425.556C225.709 425.556 248.704 425.556 272.396 425.556C272.396 427.379 272.396 429.203 272.396 431.082C280.983 431.2 280.983 431.2 289.743 431.32C297.215 431.583 304.687 431.847 312.385 432.119C319.808 432.311 327.231 432.503 334.879 432.702C354.749 436.609 354.749 436.609 366.899 450.706C369.161 455.173 371.423 459.64 373.754 464.243C327.861 465.113 278.793 464.085 234.387 453.189C230.206 449.542 226.025 445.894 221.718 442.136C223.808 438.488 225.899 434.841 228.053 431.082C217.6 432.906 207.148 434.73 196.378 436.609C198.469 432.961 200.559 429.314 202.713 425.556Z" fill="#3983C9"/>
<path d="M462.441 431.083C483.142 434.953 504.105 439.798 519.455 453.189C513.382 440.308 513.382 440.308 494.116 431.083C504.568 432.906 515.02 434.73 525.79 436.609C525.79 440.257 525.79 443.904 525.79 447.663C542.514 451.31 559.238 454.958 576.468 458.716C574.378 464.187 572.287 469.659 570.134 475.296C558.429 479.333 558.429 479.333 544.398 481.859C539.752 482.735 535.105 483.612 530.318 484.514C526.733 485.12 523.148 485.726 519.455 486.35C519.455 482.702 519.455 479.054 519.455 475.296C509.002 473.472 498.55 471.648 487.781 469.769C489.871 475.241 491.962 480.712 494.116 486.35C481.842 484.622 481.842 484.622 468.776 480.823C466.686 475.351 464.595 469.88 462.441 464.243C466.622 460.595 470.803 456.947 475.111 453.189C470.93 445.894 466.749 438.599 462.441 431.083Z" fill="#5C92B4"/>
<path d="M506.786 0C513.121 11.0534 513.121 11.0534 515.892 30.0514C517.937 50.2566 517.937 50.2566 532.125 66.3204C532.867 78.4316 532.867 78.4316 531.333 91.536C530.925 95.8746 530.517 100.213 530.096 104.683C525.79 116.061 525.79 116.061 512.774 123.12C508.708 124.438 504.641 125.756 500.451 127.114C494.116 116.061 494.116 116.061 500.055 98.7898C502.276 93.5463 504.497 88.3029 506.786 82.9005C502.605 82.9005 498.424 82.9005 494.116 82.9005C489.935 93.8434 485.754 104.786 481.446 116.061C479.356 112.413 477.265 108.765 475.112 105.007C464.7 101.019 454.14 97.3058 443.438 93.9539C445.528 90.3063 447.618 86.6587 449.772 82.9005C465.451 88.3719 465.451 88.3719 481.446 93.9539C490.402 79.3687 496.475 65.9269 500.451 49.7403C496.27 47.9165 492.089 46.0927 487.781 44.2136C499.659 6.21754 499.659 6.21754 506.786 0Z" fill="#2E6DAF"/>
<path d="M494.116 11.0537C493.855 15.1573 493.594 19.2609 493.324 23.4888C494.141 39.1713 497.73 47.4622 506.786 60.794C494.243 77.2083 494.243 77.2083 481.446 93.9542C468.904 90.3066 456.361 86.659 443.438 82.9008C444.889 74.0179 446.505 65.1553 448.189 56.3036C449.071 51.3665 449.952 46.4293 450.861 41.3426C458.109 22.4027 470.4 11.0537 494.116 11.0537Z" fill="#4D8EC8"/>
<path d="M253.393 469.77C304.066 471.118 342.714 474.224 386.424 497.404C386.424 502.875 386.424 508.346 386.424 513.984C353.845 528.195 317.66 517.742 285.067 508.457C285.067 502.985 285.067 497.514 285.067 491.877C301.791 495.524 318.515 499.172 335.745 502.93C323.186 500.6 310.653 498.162 298.132 495.676C291.15 494.33 284.168 492.983 276.975 491.596C271.283 489.865 265.592 488.134 259.727 486.35C257.637 480.879 255.546 475.407 253.393 469.77Z" fill="#3583CD"/>
<path d="M595.473 464.243C597.564 471.538 599.654 478.834 601.808 486.35C608.079 484.526 614.351 482.702 620.813 480.823C624.993 488.119 629.174 495.414 633.482 502.93C635.573 499.282 637.663 495.635 639.817 491.877C643.998 491.877 648.179 491.877 652.487 491.877C654.577 486.405 656.668 480.934 658.821 475.297C673.019 487.683 671.887 509.488 673.595 526.073C671.491 541.617 671.491 541.617 661.271 553.016C640.853 566.563 627.888 574.777 601.808 574.777C596.754 537.77 594.655 501.506 595.473 464.243Z" fill="#3675B5"/>
<path d="M551.128 165.802C551.128 182.217 551.128 198.631 551.128 215.543C563.671 215.543 576.214 215.543 589.137 215.543C587.047 219.19 584.956 222.838 582.802 226.596C576.792 228.192 570.782 229.788 564.59 231.432C542.743 238.293 538.622 243.762 525.789 259.756C519.517 259.756 513.246 259.756 506.784 259.756C512.373 272.764 512.373 272.764 532.124 276.336C534.214 270.865 536.305 265.393 538.458 259.756C540.549 263.404 542.639 267.051 544.793 270.81C540.612 276.281 536.431 281.752 532.124 287.39C515.891 288.771 515.891 288.771 500.449 287.39C490.744 278.922 492.809 271.186 492.531 259.411C493.015 226.245 501.874 199.801 526.185 174.092C538.458 165.802 538.458 165.802 551.128 165.802Z" fill="#1D5EA9"/>
<path d="M627.148 397.924C635.51 399.748 643.872 401.571 652.487 403.451C652.487 421.689 652.487 439.927 652.487 458.718C656.668 458.718 660.849 458.718 665.157 458.718C667.247 453.246 669.338 447.775 671.492 442.137C675.673 442.137 679.854 442.137 684.161 442.137C682.071 453.08 679.98 464.023 677.826 475.298C671.555 477.121 665.283 478.945 658.822 480.824C656.731 484.472 654.641 488.12 652.487 491.878C648.306 491.878 644.125 491.878 639.817 491.878C637.727 497.349 635.636 502.821 633.483 508.458C630.608 504.81 627.734 501.163 624.772 497.404C621.375 493.757 617.978 490.109 614.478 486.351C610.297 486.351 606.116 486.351 601.808 486.351C599.718 477.232 597.627 468.113 595.474 458.718C599.655 458.718 603.836 458.718 608.143 458.718C608.143 447.775 608.143 436.832 608.143 425.557C612.324 425.557 616.505 425.557 620.813 425.557C622.903 416.438 624.994 407.319 627.148 397.924Z" fill="#6A9ABF"/>
<path d="M323.076 248.702C329.347 248.702 335.619 248.702 342.08 248.702C356.334 261.483 356.334 261.483 367.42 276.336C365.329 281.807 363.239 287.279 361.085 292.916C342.08 281.862 342.08 281.862 335.745 276.336C331.564 285.455 327.383 294.574 323.076 303.969C316.02 304.539 308.965 305.109 301.696 305.696C294.118 306.95 286.54 308.204 278.732 309.496C272.46 317.703 272.46 317.703 266.062 326.076C274.424 326.076 282.786 326.076 291.402 326.076C291.402 331.547 291.402 337.019 291.402 342.656C277.663 339.859 266.064 337.13 253.393 331.603C253.789 319.168 253.789 319.168 259.727 303.969C270.743 298.452 281.793 292.963 293.158 288.015C310.33 278.334 315.905 264.893 323.076 248.702Z" fill="#7299B9"/>
<path d="M259.727 508.456C263.908 513.927 268.089 519.399 272.397 525.036C272.397 521.389 272.397 517.741 272.397 513.983C287.031 517.63 301.664 521.278 316.741 525.036C316.741 528.684 316.741 532.331 316.741 536.09C312.56 536.09 308.379 536.09 304.071 536.09C304.071 539.737 304.071 543.385 304.071 547.143C312.433 545.319 320.795 543.495 329.411 541.616C329.411 537.969 329.411 534.321 329.411 530.563C335.682 530.563 341.953 530.563 348.415 530.563C348.415 534.21 348.415 537.858 348.415 541.616C354.687 543.44 360.958 545.264 367.42 547.143C332.401 572.602 298.147 584.849 253.393 591.357C255.483 563.999 257.574 536.642 259.727 508.456Z" fill="#2E72B8"/>
<path d="M278.731 303.97C289.183 305.794 299.636 307.618 310.405 309.497C310.405 325.911 310.405 342.326 310.405 359.237C297.862 364.709 297.862 364.709 285.066 370.291C287.156 375.762 289.247 381.233 291.4 386.871C289.31 390.518 287.219 394.166 285.066 397.924C274.613 397.924 264.161 397.924 253.391 397.924C253.391 390.629 253.391 383.334 253.391 375.817C251.301 379.465 249.21 383.113 247.057 386.871C238.695 385.047 230.333 383.223 221.717 381.344C230.079 361.282 238.441 341.22 247.057 320.55C249.147 324.198 251.238 327.846 253.391 331.604C265.927 335.621 278.601 339.331 291.4 342.657C291.4 337.186 291.4 331.714 291.4 326.077C283.038 326.077 274.676 326.077 266.061 326.077C270.242 318.782 274.423 311.487 278.731 303.97Z" fill="#8DB5D0"/>
<path d="M589.138 464.243C591.228 464.243 593.319 464.243 595.473 464.243C595.399 468.454 595.326 472.664 595.25 477.002C594.9 511.985 596.508 545.627 601.808 580.304C629.908 577.502 643.772 568.301 665.156 552.67C669.337 552.67 673.518 552.67 677.826 552.67C677.826 530.785 677.826 508.899 677.826 486.35C682.007 486.35 686.188 486.35 690.495 486.35C700.874 542.514 700.874 542.514 684.16 563.724C673.656 565.786 663.092 567.631 652.486 569.25C645.096 579.843 645.096 579.843 639.817 591.357C620.812 602.411 620.812 602.411 607.351 600.684C595.473 596.884 595.473 596.884 589.138 591.357C587.964 583.784 587.091 576.175 586.366 568.56C583.743 545.487 578.203 524.988 570.133 502.93C549.229 506.578 528.324 510.225 506.785 513.983C517.374 495.508 535.947 492.92 557.464 486.35C576.072 488.077 576.072 488.077 589.138 491.877C589.138 482.758 589.138 473.639 589.138 464.243Z" fill="#7898A0"/>
<path d="M519.454 342.656C534.895 346.801 534.895 346.801 551.128 353.709C556.275 365.453 556.275 365.453 557.463 375.816C562.428 376.5 567.393 377.184 572.508 377.888C589.137 381.343 589.137 381.343 601.807 392.396C587.173 390.572 572.54 388.748 557.463 386.869C565.825 394.165 574.187 401.46 582.802 408.976C576.531 408.976 570.259 408.976 563.798 408.976C565.888 414.448 567.979 419.919 570.133 425.556C531.048 423.38 500.3 412.996 468.775 392.396C455.314 374.78 455.314 374.78 449.771 359.236C451.861 355.588 453.952 351.941 456.106 348.182C460.356 352.874 460.356 352.874 464.692 357.66C468.522 361.714 472.352 365.767 476.298 369.944C480.046 373.983 483.794 378.023 487.656 382.185C502.509 394.04 512.384 396.049 532.124 397.923C532.124 394.275 532.124 390.628 532.124 386.869C527.551 386.641 522.978 386.413 518.266 386.179C492.64 379.223 484.645 366.775 468.775 348.182C494.115 359.236 519.454 370.289 544.793 381.343C544.793 374.047 544.793 366.752 544.793 359.236C536.431 355.588 528.069 351.941 519.454 348.182C519.454 346.359 519.454 344.535 519.454 342.656Z" fill="#B3C9B9"/>
<path d="M386.424 353.709C388.799 366.145 388.799 366.145 386.424 381.343C369.613 393.009 353.038 401.487 333.765 409.667C321.877 413.885 321.877 413.885 316.741 425.557C306.288 425.557 295.836 425.557 285.066 425.557C285.066 421.909 285.066 418.261 285.066 414.503C289.247 414.503 293.428 414.503 297.736 414.503C300.1 409.577 300.1 409.577 302.512 404.551C311.55 390.634 320.569 384.121 335.349 374.78C341.902 370.559 341.902 370.559 348.588 366.252C360.559 359.531 371.63 353.709 386.424 353.709Z" fill="#4690D0"/>
<path d="M506.786 11.0537C513.058 19.2609 513.058 19.2609 519.456 27.6338C522.853 31.2814 526.25 34.9291 529.75 38.6872C542.916 63.748 541.069 88.8791 538.46 116.061C536.37 119.709 534.28 123.356 532.126 127.114C538.201 128.311 538.201 128.311 544.399 129.532C557.465 132.641 557.465 132.641 563.8 138.168C564.259 149.33 564.33 160.505 564.196 171.673C564.139 177.779 564.081 183.884 564.023 190.175C563.949 194.898 563.876 199.622 563.8 204.488C572.162 206.312 580.524 208.136 589.139 210.015C570.325 212.751 570.325 212.751 551.13 215.542C551.13 190.008 551.13 164.475 551.13 138.168C542.768 138.168 534.406 138.168 525.791 138.168C526.011 133.302 526.232 128.436 526.459 123.423C526.63 117.004 526.802 110.585 526.979 103.971C527.199 97.6236 527.42 91.2759 527.647 84.7359C525.62 64.6245 519.428 55.2303 506.786 38.6872C505.599 23.1434 505.599 23.1434 506.786 11.0537Z" fill="#DBE4E6"/>
<path d="M513.119 110.534C515.21 110.534 517.3 110.534 519.454 110.534C519.798 120.204 520.043 129.877 520.246 139.549C520.393 144.935 520.54 150.321 520.691 155.87C519.445 171.436 515.943 180.223 506.784 193.435C502.603 193.435 498.422 193.435 494.115 193.435C492.024 197.082 489.934 200.73 487.78 204.488C487.78 200.84 487.78 197.193 487.78 193.435C475.237 189.787 462.694 186.139 449.771 182.381C449.771 178.734 449.771 175.086 449.771 171.328C453.952 171.328 458.133 171.328 462.441 171.328C462.441 167.68 462.441 164.033 462.441 160.274C474.866 152.596 487.537 145.208 500.45 138.168C499.274 142.613 498.098 147.059 496.886 151.639C495.514 158.649 495.514 158.649 494.115 165.801C496.205 167.625 498.296 169.449 500.45 171.328C504.631 151.266 508.812 131.204 513.119 110.534Z" fill="#14519C"/>
<path d="M734.84 165.802C729.297 198.272 729.297 198.272 722.171 204.489C702.994 202.441 683.978 199.922 664.959 196.955C635.49 192.851 616.72 195.192 589.139 204.489C580.777 204.489 572.415 204.489 563.8 204.489C563.8 200.842 563.8 197.194 563.8 193.436C567.385 192.766 570.97 192.096 574.663 191.406C579.309 190.48 583.956 189.554 588.743 188.6C593.373 187.702 598.003 186.805 602.774 185.88C615.79 183.324 615.79 183.324 620.813 171.329C625.55 172.59 630.286 173.851 635.166 175.15C644.524 177.533 644.524 177.533 654.071 179.964C660.245 181.567 666.418 183.17 672.779 184.822C690.258 187.868 699.31 187.566 715.836 182.382C709.564 180.559 703.293 178.735 696.831 176.856C720.587 165.802 720.587 165.802 734.84 165.802Z" fill="#818B99"/>
<path d="M506.786 82.9019C504.696 95.6685 502.605 108.435 500.452 121.589C502.542 121.589 504.633 121.589 506.786 121.589C506.786 138.003 506.786 154.417 506.786 171.329C502.605 173.153 498.424 174.977 494.117 176.856C494.117 173.208 494.117 169.561 494.117 165.802C489.936 163.979 485.755 162.155 481.447 160.276C485.628 160.276 489.809 160.276 494.117 160.276C494.117 154.804 494.117 149.333 494.117 143.696C485.755 149.167 477.393 154.638 468.777 160.276C462.443 154.749 462.443 154.749 462.319 144.106C465.873 108.36 465.873 108.36 481.051 90.8465C494.117 82.9019 494.117 82.9019 506.786 82.9019Z" fill="#3A7EC1"/>
<path d="M228.054 475.297C234.326 477.121 240.597 478.944 247.059 480.824C262.773 556.171 262.773 556.171 253.394 591.358C258.203 589.698 263.013 588.038 267.969 586.327C274.265 584.226 280.561 582.124 287.047 579.959C293.294 577.843 299.541 575.727 305.978 573.547C323.077 569.251 323.077 569.251 342.081 574.777C338.914 584.795 338.914 584.795 329.411 596.884C298.431 612.013 269.317 615.369 234.389 613.464C234.92 608.919 235.451 604.374 235.997 599.691C244.601 536.217 244.601 536.217 228.054 475.297Z" fill="#90AFB9"/>
<path d="M297.736 425.557C301.917 429.205 306.098 432.852 310.405 436.61C293.681 438.434 276.957 440.258 259.727 442.137C280.632 445.785 301.537 449.432 323.075 453.191C304.071 458.717 304.071 458.717 291.401 458.717C306.034 462.365 320.668 466.013 335.745 469.771C331.564 473.418 327.383 477.066 323.075 480.824C277.128 478.751 236.744 466.739 196.378 447.664C198.469 440.369 200.559 433.073 202.713 425.557C236.286 420.932 264.045 419.091 297.736 425.557Z" fill="#2669B2"/>
<path d="M373.754 265.282C403.382 273.445 403.382 273.445 413.743 288.08C415.18 291.5 416.617 294.919 418.098 298.442C413.917 298.442 409.736 298.442 405.429 298.442C406.474 303.572 407.519 308.701 408.596 313.986C413.265 341.868 412.288 369.816 411.763 397.923C415.944 397.923 420.125 397.923 424.433 397.923C426.524 394.275 428.614 390.628 430.768 386.87C432.858 395.989 434.949 405.108 437.103 414.503C430.831 414.503 424.56 414.503 418.098 414.503C420.189 419.975 422.279 425.446 424.433 431.083C411.89 429.259 399.347 427.436 386.424 425.557C386.153 416.348 386.167 407.131 386.424 397.923C388.515 396.099 390.605 394.275 392.759 392.396C393.219 380.313 393.289 368.217 393.155 356.127C393.098 349.509 393.04 342.89 392.982 336.071C392.908 330.949 392.835 325.827 392.759 320.549C386.487 326.021 380.216 331.492 373.754 337.129C373.284 318.656 373.34 305.055 380.089 287.389C377.623 275.548 377.623 275.548 373.754 265.282Z" fill="#5997CD"/>
<path d="M627.147 204.489C618.32 223.099 608.276 232.045 589.138 243.176C589.138 239.529 589.138 235.881 589.138 232.123C584.957 232.123 580.776 232.123 576.468 232.123C576.468 235.771 576.468 239.418 576.468 243.176C568.106 243.176 559.744 243.176 551.129 243.176C551.129 248.648 551.129 254.119 551.129 259.756C543.21 269.428 543.21 269.428 532.124 276.337C518.267 274.609 518.267 274.609 506.785 270.81C506.785 267.162 506.785 263.515 506.785 259.756C513.057 257.933 519.328 256.109 525.79 254.23C531.669 247.39 531.669 247.39 537.667 240.413C552.848 224.832 559.977 222.729 582.803 221.069C580.713 217.422 578.622 213.774 576.468 210.016C593.628 202.531 608.202 204.13 627.147 204.489Z" fill="#4986C1"/>
<path d="M462.441 431.083C483.142 434.953 504.105 439.798 519.455 453.189C513.382 440.308 513.382 440.308 494.116 431.083C504.568 432.906 515.02 434.73 525.79 436.609C525.79 440.257 525.79 443.904 525.79 447.663C542.514 451.31 559.238 454.958 576.468 458.716C574.378 464.187 572.287 469.659 570.134 475.296C558.429 479.333 558.429 479.333 544.398 481.859C539.752 482.735 535.105 483.612 530.318 484.514C526.733 485.12 523.148 485.726 519.455 486.35C519.455 482.702 519.455 479.054 519.455 475.296C509.002 473.472 498.55 471.648 487.781 469.769C489.871 475.241 491.962 480.712 494.116 486.35C481.842 484.622 481.842 484.622 468.776 480.823C466.686 475.351 464.595 469.88 462.441 464.243C466.622 460.595 470.803 456.947 475.111 453.189C470.93 445.894 466.749 438.599 462.441 431.083Z" fill="#5B92B4"/>
<path d="M506.786 0C513.121 11.0534 513.121 11.0534 515.892 30.0514C517.937 50.2566 517.937 50.2566 532.125 66.3204C532.867 78.4316 532.867 78.4316 531.333 91.536C530.925 95.8746 530.517 100.213 530.096 104.683C525.79 116.061 525.79 116.061 512.774 123.12C508.708 124.438 504.641 125.756 500.451 127.114C494.116 116.061 494.116 116.061 500.055 98.7898C502.276 93.5463 504.497 88.3029 506.786 82.9005C502.605 82.9005 498.424 82.9005 494.116 82.9005C489.935 93.8434 485.754 104.786 481.446 116.061C479.356 112.413 477.265 108.765 475.112 105.007C464.7 101.019 454.14 97.3058 443.438 93.9539C445.528 90.3063 447.618 86.6587 449.772 82.9005C465.451 88.3719 465.451 88.3719 481.446 93.9539C490.402 79.3687 496.475 65.9269 500.451 49.7403C496.27 47.9165 492.089 46.0927 487.781 44.2136C499.659 6.21754 499.659 6.21754 506.786 0Z" fill="#2E6DAF"/>
<path d="M494.116 11.0537C493.855 15.1573 493.594 19.2609 493.324 23.4888C494.141 39.1713 497.73 47.4622 506.786 60.794C494.243 77.2083 494.243 77.2083 481.446 93.9542C468.904 90.3066 456.361 86.659 443.438 82.9008C444.889 74.0179 446.505 65.1553 448.189 56.3036C449.071 51.3665 449.952 46.4293 450.861 41.3426C458.109 22.4027 470.4 11.0537 494.116 11.0537Z" fill="#4D8EC8"/>
<path d="M253.393 469.77C304.066 471.118 342.714 474.224 386.424 497.404C386.424 502.875 386.424 508.346 386.424 513.984C353.845 528.195 317.66 517.742 285.067 508.457C285.067 502.985 285.067 497.514 285.067 491.877C301.791 495.524 318.515 499.172 335.745 502.93C323.186 500.6 310.653 498.162 298.132 495.676C291.15 494.33 284.168 492.983 276.975 491.596C271.283 489.865 265.592 488.134 259.727 486.35C257.637 480.879 255.546 475.407 253.393 469.77Z" fill="#3583CD"/>
<path d="M519.454 116.061C521.545 123.356 523.635 130.652 525.789 138.168C534.151 138.168 542.513 138.168 551.129 138.168C553.108 150.603 553.108 150.603 551.129 165.801C540.765 173.377 530.181 180.726 519.454 187.908C507.99 205.133 507.99 205.133 500.45 221.068C496.269 221.068 492.088 221.068 487.78 221.068C484.253 217.649 480.725 214.229 477.09 210.706C458.719 195.978 442.121 192.745 418.097 187.908C422.017 184.83 425.937 181.753 429.975 178.582C443.823 165.434 449.694 154.949 456.106 138.168C462.837 148.53 462.837 148.53 468.776 160.275C466.685 163.922 464.595 167.57 462.441 171.328C458.26 171.328 454.079 171.328 449.771 171.328C449.771 174.976 449.771 178.623 449.771 182.381C477.993 187.853 477.993 187.853 506.785 193.435C510.966 167.901 515.147 142.368 519.454 116.061Z" fill="#4083C6"/>
<path d="M620.812 259.756C624.993 261.58 629.174 263.403 633.481 265.283C633.481 268.93 633.481 272.578 633.481 276.336C648.115 278.16 662.748 279.984 677.825 281.863C673.644 300.101 669.463 318.339 665.155 337.13C639.816 337.13 639.816 337.13 627.146 326.076C624.61 313.239 622.461 300.336 620.812 287.389C614.54 287.389 608.269 287.389 601.807 287.389C613.685 265.973 613.685 265.973 620.812 259.756Z" fill="#3679B9"/>
<path d="M323.076 248.702C329.347 248.702 335.619 248.702 342.08 248.702C356.334 261.483 356.334 261.483 367.42 276.336C365.329 281.807 363.239 287.279 361.085 292.916C342.08 281.862 342.08 281.862 335.745 276.336C331.564 285.455 327.383 294.574 323.076 303.969C316.02 304.539 308.965 305.109 301.696 305.696C294.118 306.95 286.54 308.204 278.732 309.496C272.46 317.703 272.46 317.703 266.062 326.076C274.424 326.076 282.786 326.076 291.402 326.076C291.402 331.547 291.402 337.019 291.402 342.656C277.663 339.859 266.064 337.13 253.393 331.603C253.789 319.168 253.789 319.168 259.727 303.969C270.743 298.452 281.793 292.963 293.158 288.015C310.33 278.334 315.905 264.893 323.076 248.702Z" fill="#7299B9"/>
<path d="M443.438 414.502C453.751 415.1 453.751 415.1 464.273 415.711C473.429 416.23 482.585 416.748 491.741 417.265C498.514 417.661 498.514 417.661 505.425 418.064C531.27 419.512 556.887 420.314 582.804 420.029C582.804 423.676 582.804 427.324 582.804 431.082C574.442 431.082 566.08 431.082 557.464 431.082C561.56 448.313 561.56 448.313 576.469 453.189C578.559 449.541 580.65 445.894 582.804 442.135C580.713 449.431 578.623 456.726 576.469 464.242C554.911 458.391 538.374 453.139 519.455 442.135C523.636 449.431 527.817 456.726 532.125 464.242C525.854 462.418 519.582 460.595 513.121 458.716C513.121 455.068 513.121 451.42 513.121 447.662C509.152 446.658 505.183 445.653 501.094 444.618C495.917 443.229 490.74 441.84 485.406 440.408C480.261 439.062 475.117 437.715 469.816 436.328C456.107 431.082 456.107 431.082 443.438 414.502Z" fill="#ABBCA8"/>
<path d="M608.142 226.595C614.414 228.419 620.685 230.242 627.147 232.121C624.019 234.387 620.892 236.652 617.669 238.987C611.582 243.454 611.582 243.454 605.371 248.011C601.329 250.96 597.286 253.91 593.122 256.948C582.119 264.852 582.119 264.852 576.468 276.335C580.649 278.159 584.83 279.983 589.138 281.862C574.667 294.894 563.747 303.345 542.666 305.437C528.519 305.359 514.553 304.934 500.45 303.969C500.45 302.145 500.45 300.321 500.45 298.442C517.174 296.618 533.898 294.794 551.129 292.915C551.129 291.091 551.129 289.268 551.129 287.388C544.857 285.565 538.586 283.741 532.124 281.862C534.084 277.644 536.044 273.427 538.063 269.081C542.76 258.716 547.089 248.222 551.129 237.648C559.491 239.472 567.853 241.296 576.468 243.175C576.468 239.527 576.468 235.88 576.468 232.121C584.83 232.121 593.192 232.121 601.807 232.121C603.898 230.298 605.988 228.474 608.142 226.595Z" fill="#286EB6"/>
<path d="M386.424 353.709C388.799 366.145 388.799 366.145 386.424 381.343C369.613 393.009 353.038 401.487 333.765 409.667C321.877 413.885 321.877 413.885 316.741 425.557C306.288 425.557 295.836 425.557 285.066 425.557C285.066 421.909 285.066 418.261 285.066 414.503C289.247 414.503 293.428 414.503 297.736 414.503C300.1 409.577 300.1 409.577 302.512 404.551C311.55 390.634 320.569 384.121 335.349 374.78C341.902 370.559 341.902 370.559 348.588 366.252C360.559 359.531 371.63 353.709 386.424 353.709Z" fill="#4690D0"/>
<path d="M506.786 11.0537C513.058 19.2609 513.058 19.2609 519.456 27.6338C522.853 31.2814 526.25 34.9291 529.75 38.6872C542.916 63.748 541.069 88.8791 538.46 116.061C536.37 119.709 534.28 123.356 532.126 127.114C538.201 128.311 538.201 128.311 544.399 129.532C557.465 132.641 557.465 132.641 563.8 138.168C564.259 149.33 564.33 160.505 564.196 171.673C564.139 177.779 564.081 183.884 564.023 190.175C563.949 194.898 563.876 199.622 563.8 204.488C572.162 206.312 580.524 208.136 589.139 210.015C570.325 212.751 570.325 212.751 551.13 215.542C551.13 190.008 551.13 164.475 551.13 138.168C542.768 138.168 534.406 138.168 525.791 138.168C526.011 133.302 526.232 128.436 526.459 123.423C526.63 117.004 526.802 110.585 526.979 103.971C527.199 97.6236 527.42 91.2759 527.647 84.7359C525.62 64.6245 519.428 55.2303 506.786 38.6872C505.599 23.1434 505.599 23.1434 506.786 11.0537Z" fill="#DBE4E6"/>
<path d="M676.861 220.529C689.852 220.709 702.844 220.889 715.835 221.069C715.835 230.188 715.835 239.307 715.835 248.702C701.202 245.054 686.568 241.407 671.491 237.649C677.763 245.856 677.763 245.856 684.161 254.229C681.785 269.082 681.785 269.082 677.826 281.862C663.193 280.038 648.559 278.215 633.482 276.336C631.392 270.864 629.301 265.393 627.147 259.755C639.817 259.755 652.487 259.755 665.156 259.755C658.885 256.108 652.613 252.46 646.152 248.702C661.382 221.243 661.382 221.243 676.861 220.529Z" fill="#1F60A4"/>
<path d="M513.119 110.534C515.21 110.534 517.3 110.534 519.454 110.534C519.798 120.204 520.043 129.877 520.246 139.549C520.393 144.935 520.54 150.321 520.691 155.87C519.445 171.436 515.943 180.223 506.784 193.435C502.603 193.435 498.422 193.435 494.115 193.435C492.024 197.082 489.934 200.73 487.78 204.488C487.78 200.84 487.78 197.193 487.78 193.435C475.237 189.787 462.694 186.139 449.771 182.381C449.771 178.734 449.771 175.086 449.771 171.328C453.952 171.328 458.133 171.328 462.441 171.328C462.441 167.68 462.441 164.033 462.441 160.274C474.866 152.596 487.537 145.208 500.45 138.168C499.274 142.613 498.098 147.059 496.886 151.639C495.514 158.649 495.514 158.649 494.115 165.801C496.205 167.625 498.296 169.449 500.45 171.328C504.631 151.266 508.812 131.204 513.119 110.534Z" fill="#14519C"/>
<path d="M506.786 82.9019C504.696 95.6685 502.605 108.435 500.452 121.589C502.542 121.589 504.633 121.589 506.786 121.589C506.786 138.003 506.786 154.417 506.786 171.329C502.605 173.153 498.424 174.977 494.117 176.856C494.117 173.208 494.117 169.561 494.117 165.802C489.936 163.979 485.755 162.155 481.447 160.276C485.628 160.276 489.809 160.276 494.117 160.276C494.117 154.804 494.117 149.333 494.117 143.696C485.755 149.167 477.393 154.638 468.777 160.276C462.443 154.749 462.443 154.749 462.319 144.106C465.873 108.36 465.873 108.36 481.051 90.8465C494.117 82.9019 494.117 82.9019 506.786 82.9019Z" fill="#3A7EC1"/>
<path d="M443.438 259.756C447.618 261.58 451.799 263.403 456.107 265.283C454.017 276.225 451.926 287.168 449.772 298.443C453.953 298.443 458.134 298.443 462.442 298.443C462.442 292.971 462.442 287.5 462.442 281.863C466.623 281.863 470.804 281.863 475.112 281.863C481.383 290.07 481.383 290.07 487.781 298.443C503.789 300.882 503.789 300.882 521.831 300.17C527.89 300.148 533.949 300.127 540.192 300.105C557.407 298.448 568.044 295.048 582.804 287.389C574.093 300.861 574.093 300.861 557.464 315.023C536.396 319.114 515.66 320.155 494.116 320.55C494.116 316.902 494.116 313.254 494.116 309.496C485.754 309.496 477.392 309.496 468.777 309.496C470.867 316.791 472.958 324.087 475.112 331.603C454.379 331.603 438.074 329.949 418.098 326.076C416.008 318.781 413.917 311.486 411.763 303.969C409.673 329.503 407.582 355.036 405.429 381.343C403.338 381.343 401.248 381.343 399.094 381.343C397.003 361.281 394.913 341.219 392.759 320.55C386.487 326.021 380.216 331.492 373.754 337.13C373.284 318.657 373.34 305.055 380.089 287.389C377.623 275.548 377.623 275.548 373.754 265.283C378.589 266.992 383.423 268.702 388.404 270.464C400.284 274.562 412.314 278.338 424.433 281.863C430.704 274.567 436.976 267.272 443.438 259.756Z" fill="#66A1D4"/>
<path d="M402.261 441.1C418.098 447.663 418.098 447.663 430.768 458.716C434.949 455.069 439.13 451.421 443.437 447.663C453.89 458.606 464.342 469.549 475.112 480.823C482.448 475.005 482.448 475.005 487.781 464.243C498.234 467.891 508.686 471.538 519.455 475.296C517.365 482.592 515.274 489.887 513.121 497.403C493.783 502.826 481.78 502.826 462.442 497.403C460.351 501.051 458.261 504.698 456.107 508.457C437.72 516.055 425.944 519.51 405.428 519.51C405.036 516.09 404.644 512.671 404.241 509.147C400.177 495.869 400.177 495.869 382.861 490.495C377.765 489.127 372.669 487.759 367.419 486.35C367.419 482.702 367.419 479.055 367.419 475.296C386.234 480.768 405.048 486.239 424.433 491.876C407.793 475.361 407.793 475.361 391.967 470.115C380.089 464.243 380.089 464.243 375.338 452.499C374.815 449.079 374.293 445.659 373.754 442.136C386.424 436.609 386.424 436.609 402.261 441.1Z" fill="#72A6C7"/>
<path d="M259.728 486.351C320.701 489.805 320.701 489.805 342.081 508.457C313.859 502.986 313.859 502.986 285.067 497.404C306.503 516.105 330.888 514.29 359.898 514.33C368.74 514.241 377.583 514.135 386.425 513.984C386.425 508.513 386.425 503.041 386.425 497.404C392.696 497.404 398.968 497.404 405.429 497.404C405.429 504.699 405.429 511.994 405.429 519.511C410.263 517.687 415.098 515.863 420.078 513.984C437.103 508.457 437.103 508.457 456.108 508.457C458.198 502.986 460.289 497.515 462.443 491.877C470.805 495.525 479.167 499.173 487.782 502.931C475.78 508.241 463.768 513.534 451.753 518.82C445.065 521.769 438.377 524.719 431.486 527.758C380.032 549.499 380.032 549.499 348.416 541.618C348.416 537.97 348.416 534.322 348.416 530.564C342.144 530.564 335.873 530.564 329.411 530.564C329.411 534.212 329.411 537.859 329.411 541.618C321.049 543.441 312.687 545.265 304.072 547.144C304.072 543.497 304.072 539.849 304.072 536.091C308.253 536.091 312.434 536.091 316.741 536.091C311.082 523.06 311.082 523.06 291.006 518.82C284.865 517.224 278.725 515.628 272.398 513.984C274.488 519.456 276.579 524.927 278.733 530.564C274.552 534.212 270.371 537.859 266.063 541.618C263.972 523.379 261.882 505.141 259.728 486.351Z" fill="#1B58A2"/>
<path d="M399.093 337.129C400.387 368.843 400.813 395.742 386.424 425.556C396.876 425.556 407.329 425.556 418.098 425.556C416.007 421.908 413.917 418.261 411.763 414.503C440.698 419.357 453.07 422.16 471.548 442.827C474.814 448.071 478.081 453.314 481.446 458.716C469.568 462.171 469.568 462.171 456.107 464.243C451.926 460.595 447.745 456.948 443.437 453.19C439.256 456.837 435.075 460.485 430.768 464.243C426.064 460.595 421.36 456.948 416.514 453.19C399.268 439.969 399.268 439.969 373.754 442.136C375.958 453.053 375.958 453.053 380.089 464.243C384.27 466.067 388.451 467.891 392.759 469.77C376.526 473.915 376.526 473.915 354.75 475.296C344.225 470.075 333.718 464.802 323.57 459.04C297.951 447.655 268.95 445.521 240.723 442.136C240.723 440.312 240.723 438.489 240.723 436.61C244.618 436.275 248.513 435.94 252.526 435.595C257.646 435.132 262.766 434.669 268.042 434.192C273.113 433.743 278.184 433.294 283.409 432.831C298.755 431.344 298.755 431.344 316.741 425.556C318.684 422.051 320.628 418.546 322.63 414.934C331.143 400.514 338.815 397.604 355.541 391.014C360.131 389.162 364.72 387.31 369.448 385.401C372.96 384.062 376.471 382.722 380.089 381.343C380.089 374.047 380.089 366.752 380.089 359.236C373.817 361.06 367.546 362.883 361.084 364.762C368.223 346.079 375.095 337.129 399.093 337.129Z" fill="#3073B8"/>
<path d="M278.733 453.19C325.637 457.351 325.637 457.351 345.644 464.589C361.9 470.969 361.9 470.969 384.049 469.77C405.429 469.77 405.429 469.77 424.434 480.823C424.434 484.471 424.434 488.119 424.434 491.877C381.674 481.514 381.674 481.514 367.42 475.297C367.42 478.944 367.42 482.592 367.42 486.35C379.963 489.998 392.506 493.645 405.429 497.404C405.429 504.699 405.429 511.994 405.429 519.51C410.263 517.687 415.098 515.863 420.078 513.984C437.103 508.457 437.103 508.457 456.108 508.457C458.198 502.986 460.289 497.514 462.443 491.877C470.805 495.524 479.167 499.172 487.782 502.93C475.78 508.241 463.768 513.534 451.753 518.82C445.065 521.769 438.377 524.718 431.486 527.757C380.032 549.498 380.032 549.498 348.416 541.617C348.416 537.97 348.416 534.322 348.416 530.564C342.144 530.564 335.873 530.564 329.411 530.564C329.411 534.211 329.411 537.859 329.411 541.617C321.049 543.441 312.687 545.265 304.072 547.144C304.072 543.496 304.072 539.849 304.072 536.09C308.253 536.09 312.434 536.09 316.741 536.09C311.082 523.059 311.082 523.059 291.006 518.82C284.865 517.224 278.725 515.628 272.398 513.984C274.488 519.455 276.579 524.927 278.733 530.564C274.552 534.211 270.371 537.859 266.063 541.617C263.972 523.379 261.882 505.141 259.728 486.35C320.701 489.804 320.701 489.804 342.081 508.457C313.859 502.986 313.859 502.986 285.067 497.404C306.503 516.104 330.888 514.289 359.898 514.329C368.74 514.241 377.583 514.135 386.425 513.984C386.425 508.512 386.425 503.041 386.425 497.404C380.414 495.694 374.404 493.984 368.212 492.222C348.416 486.35 348.416 486.35 335.746 480.823C335.746 477.176 335.746 473.528 335.746 469.77C328.691 469.086 321.635 468.402 314.366 467.698C291.402 464.243 291.402 464.243 278.733 453.19Z" fill="#1A559F"/>
<path d="M468.777 215.542C470.868 215.542 472.958 215.542 475.112 215.542C475.112 228.308 475.112 241.075 475.112 254.228C479.293 243.286 483.474 232.343 487.782 221.068C491.963 221.068 496.144 221.068 500.451 221.068C500.451 241.13 500.451 261.192 500.451 281.862C517.175 283.686 533.899 285.51 551.13 287.389C553.22 281.917 555.311 276.446 557.465 270.809C559.555 276.28 561.646 281.751 563.8 287.389C547.994 301.178 540.53 300.429 518.664 301.896C512.899 302.309 507.134 302.723 501.194 303.148C494.555 303.554 494.555 303.554 487.782 303.969C483.601 296.673 479.42 289.378 475.112 281.862C470.931 281.862 466.75 281.862 462.442 281.862C462.442 289.157 462.442 296.452 462.442 303.969C458.261 303.969 454.08 303.969 449.773 303.969C449.773 313.088 449.773 322.207 449.773 331.602C439.32 329.778 428.868 327.955 418.099 326.076C412.556 315.022 412.556 315.022 411.764 298.442C420.154 286.701 429.791 276.379 439.825 265.67C453.566 249.865 460.823 234.047 468.777 215.542Z" fill="#4088CF"/>
<path d="M402.261 441.1C418.098 447.663 418.098 447.663 430.768 458.716C434.949 455.069 439.13 451.421 443.437 447.663C453.89 458.606 464.342 469.549 475.112 480.823C482.448 475.005 482.448 475.005 487.781 464.243C498.234 467.891 508.686 471.538 519.455 475.296C517.365 482.592 515.274 489.887 513.121 497.403C493.783 502.826 481.78 502.826 462.442 497.403C460.351 501.051 458.261 504.698 456.107 508.457C437.72 516.055 425.944 519.51 405.428 519.51C405.036 516.09 404.644 512.671 404.241 509.147C400.177 495.869 400.177 495.869 382.861 490.495C377.765 489.127 372.669 487.759 367.419 486.35C367.419 482.702 367.419 479.055 367.419 475.296C386.234 480.768 405.048 486.239 424.433 491.876C407.793 475.361 407.793 475.361 391.967 470.115C380.089 464.243 380.089 464.243 375.338 452.499C374.815 449.079 374.293 445.659 373.754 442.136C386.424 436.609 386.424 436.609 402.261 441.1Z" fill="#71A6C7"/>
<path d="M424.433 353.709C428.614 353.709 432.795 353.709 437.103 353.709C441.284 359.181 445.464 364.652 449.772 370.29C453.953 368.466 458.134 366.642 462.442 364.763C464.532 373.882 466.623 383.001 468.777 392.396C472.174 392.852 475.571 393.308 479.071 393.778C499.407 399.381 514.786 409.372 532.125 420.03C511.381 426.062 499.791 425.182 478.279 423.139C460.102 421.455 442.724 420.03 424.433 420.03C424.433 408.976 424.433 397.923 424.433 386.87C423.257 383.108 422.081 379.346 420.87 375.471C418.098 364.763 418.098 364.763 424.433 353.709Z" fill="#72A8C8"/>
<path d="M405.427 337.129C407.518 337.129 409.608 337.129 411.762 337.129C411.762 357.191 411.762 377.253 411.762 397.923C415.943 397.923 420.124 397.923 424.432 397.923C426.522 394.275 428.613 390.627 430.766 386.869C432.857 395.988 434.947 405.107 437.101 414.503C432.92 414.503 428.739 414.503 424.432 414.503C429.135 415.643 433.839 416.782 438.685 417.957C461.125 427.746 468.93 440.115 481.445 458.716C465.926 463.552 458.421 464.956 442.644 460.098C430.766 453.19 430.766 453.19 418.097 436.61C401.931 429.953 401.931 429.953 386.423 425.556C385.15 405.019 385.46 399.182 399.092 381.343C401.952 370.017 401.952 370.017 403.051 358.199C403.835 351.246 404.619 344.293 405.427 337.129Z" fill="#3F83C2"/>
<path d="M443.436 221.067C441.346 228.363 439.255 235.658 437.102 243.174C431.091 239.526 425.081 235.879 418.889 232.121C401.231 220.074 401.231 220.074 386.423 221.067C401.056 230.186 415.69 239.305 430.767 248.701C428.676 254.172 426.586 259.644 424.432 265.281C416.07 257.986 407.708 250.69 399.093 243.174C397.002 250.469 394.912 257.765 392.758 265.281C392.758 261.633 392.758 257.986 392.758 254.227C387.27 253.031 387.27 253.031 381.672 251.81C368.474 248.931 355.277 246.053 342.079 243.174C342.079 235.879 342.079 228.584 342.079 221.067C381.436 201.342 402.623 205.323 443.436 221.067Z" fill="#69A0CE"/>
<path d="M405.429 298.441C411.7 301.177 411.7 301.177 418.098 303.968C422.058 315.367 422.058 315.367 424.433 326.075C432.795 327.899 441.157 329.723 449.773 331.602C451.863 327.954 453.954 324.306 456.107 320.548C460.288 327.843 464.469 335.139 468.777 342.655C462.506 344.479 456.234 346.303 449.773 348.182C451.863 357.301 453.954 366.42 456.107 375.815C449.836 372.168 443.564 368.52 437.103 364.762C437.103 361.114 437.103 357.467 437.103 353.708C432.922 353.708 428.741 353.708 424.433 353.708C424.433 368.299 424.433 382.889 424.433 397.922C420.252 397.922 416.071 397.922 411.764 397.922C409.673 365.093 407.583 332.265 405.429 298.441Z" fill="#2668B3"/>
<path d="M513.121 513.984C494.116 525.037 494.116 525.037 481.446 527.455C468.423 529.589 468.423 529.589 461.18 537.926C445.105 550.915 426.488 557.627 406.616 565.106C398.997 568.098 391.379 571.09 383.529 574.173C359.787 580.659 346.841 580.239 323.076 574.778C345.461 553.128 373.892 543.848 403.845 531.946C409.43 529.602 415.016 527.258 420.771 524.843C454.962 511.216 476.438 505.415 513.121 513.984Z" fill="#B8C8CB"/>
<path d="M424.433 353.709C428.614 353.709 432.795 353.709 437.103 353.709C441.284 359.181 445.464 364.652 449.772 370.29C453.953 368.466 458.134 366.642 462.442 364.763C464.532 373.882 466.623 383.001 468.777 392.396C472.174 392.852 475.571 393.308 479.071 393.778C499.407 399.381 514.786 409.372 532.125 420.03C511.381 426.062 499.791 425.182 478.279 423.139C460.102 421.455 442.724 420.03 424.433 420.03C424.433 408.976 424.433 397.923 424.433 386.87C423.257 383.108 422.081 379.346 420.87 375.471C418.098 364.763 418.098 364.763 424.433 353.709Z" fill="#72A8C8"/>
<path d="M443.436 221.067C441.346 228.363 439.255 235.658 437.102 243.174C431.091 239.526 425.081 235.879 418.889 232.121C401.231 220.074 401.231 220.074 386.423 221.067C401.056 230.186 415.69 239.305 430.767 248.701C428.676 254.172 426.586 259.644 424.432 265.281C416.07 257.986 407.708 250.69 399.093 243.174C397.002 250.469 394.912 257.765 392.758 265.281C392.758 261.633 392.758 257.986 392.758 254.227C387.27 253.031 387.27 253.031 381.672 251.81C368.474 248.931 355.277 246.053 342.079 243.174C342.079 235.879 342.079 228.584 342.079 221.067C381.436 201.342 402.623 205.323 443.436 221.067Z" fill="#69A0CE"/>
<path d="M405.429 298.441C411.7 301.177 411.7 301.177 418.098 303.968C422.058 315.367 422.058 315.367 424.433 326.075C432.795 327.899 441.157 329.723 449.773 331.602C451.863 327.954 453.954 324.306 456.107 320.548C460.288 327.843 464.469 335.139 468.777 342.655C462.506 344.479 456.234 346.303 449.773 348.182C451.863 357.301 453.954 366.42 456.107 375.815C449.836 372.168 443.564 368.52 437.103 364.762C437.103 361.114 437.103 357.467 437.103 353.708C432.922 353.708 428.741 353.708 424.433 353.708C424.433 368.299 424.433 382.889 424.433 397.922C420.252 397.922 416.071 397.922 411.764 397.922C409.673 365.093 407.583 332.265 405.429 298.441Z" fill="#2668B3"/>
</svg>
