<svg width="1082" height="1138" viewBox="0 0 1082 1138" fill="none" xmlns="http://www.w3.org/2000/svg">
<path d="M112.838 907.393C133.563 911.361 141.36 918.271 154.411 932.608C154.411 936.256 154.411 939.903 154.411 943.662C160.878 944.004 160.878 944.004 167.476 944.352C194.036 951.255 210.533 965.991 230.429 982.348C228.338 991.468 226.248 1000.59 224.094 1009.98C191.521 1015.67 172.656 1014.21 141.741 1004.46C135.078 1004.46 128.414 1004.46 121.549 1004.46C103.732 1004.46 103.732 1004.46 84.7276 993.402C70.0062 991.225 55.2204 989.34 40.3838 987.875C46.6553 984.228 52.9268 980.58 59.3883 976.822C66.022 964.041 72.3333 951.131 78.3928 938.135C92.713 911.444 92.713 911.444 112.838 907.393ZM103.732 927.081C102.948 930.615 102.164 934.149 101.357 937.789C100.05 941.551 98.7434 945.313 97.3973 949.188C91.1258 951.924 91.1258 951.924 84.7276 954.715C84.7276 960.186 84.7276 965.658 84.7276 971.295C102.561 983.881 102.561 983.881 122.737 982.348C122.737 978.701 122.737 975.053 122.737 971.295C129.4 975.057 136.063 978.818 142.929 982.694C160.133 991.388 165.21 993.541 185.689 992.02C190.001 990.652 194.312 989.284 198.755 987.875C186.814 971.151 186.814 971.151 167.476 962.314C163.165 961.63 158.853 960.946 154.411 960.242C137.178 954.493 130.624 951.491 121.153 937.444C118.801 932.315 118.801 932.315 116.402 927.081C112.221 927.081 108.04 927.081 103.732 927.081Z" fill="#C4C6C5"/>
<path d="M97.3989 916.028C107.851 916.028 118.304 916.028 129.073 916.028C131.164 919.676 133.254 923.324 135.408 927.082C139.589 927.082 143.77 927.082 148.078 927.082C150.168 936.201 152.259 945.32 154.412 954.715C158.103 953.468 161.794 952.222 165.597 950.937C179.752 949.189 179.752 949.189 191.926 955.903C195.748 959.044 199.57 962.186 203.507 965.423C207.394 968.551 211.281 971.678 215.286 974.901C218.193 977.358 221.1 979.816 224.095 982.349C222.005 989.644 219.915 996.939 217.761 1004.46C182.908 1005.98 169.465 1006.42 141.743 987.875C135.602 988.787 129.461 989.699 123.134 990.639C103.734 993.402 103.734 993.402 85.5211 985.457C81.0788 982.608 76.6365 979.758 72.0596 976.822C75.9047 954.01 84.9706 936.3 97.3989 916.028ZM103.734 927.082C102.95 930.615 102.166 934.149 101.358 937.79C100.052 941.551 98.745 945.313 97.3989 949.189C91.1274 951.924 91.1274 951.924 84.7292 954.715C84.7292 960.187 84.7292 965.658 84.7292 971.295C102.562 983.882 102.562 983.882 122.738 982.349C122.738 978.701 122.738 975.053 122.738 971.295C129.402 975.057 136.065 978.819 142.93 982.694C160.134 991.389 165.212 993.541 185.691 992.02C190.002 990.653 194.314 989.285 198.756 987.875C186.816 971.151 186.816 971.151 167.478 962.314C163.166 961.631 158.855 960.947 154.412 960.242C137.179 954.493 130.625 951.491 121.155 937.444C118.803 932.315 118.803 932.315 116.403 927.082C112.222 927.082 108.041 927.082 103.734 927.082Z" fill="#E9E9E3"/>
<path d="M110.068 661.8C112.214 669.622 114.317 677.454 116.403 685.288C118.167 691.828 118.167 691.828 119.966 698.501C122.738 711.54 122.738 711.54 122.738 733.647C118.557 733.647 114.376 733.647 110.068 733.647C110.068 737.295 110.068 740.942 110.068 744.7C97.7944 741.246 97.7944 741.246 84.7288 733.647C79.9777 716.376 79.9777 716.376 78.394 700.487C72.1225 703.222 72.1225 703.222 65.7243 706.013C53.0572 706.234 40.382 706.254 27.7153 706.013C39.5931 679.762 39.5931 679.762 46.7198 667.327C55.9311 667.497 55.9311 667.497 65.3284 667.672C87.9073 667.27 87.6208 661.8 110.068 661.8Z" fill="#E7CA6E"/>
<path d="M53.0538 987.876C76.8367 989.472 92.9875 990.568 112.443 1003.07C124.455 1017.58 129.575 1025.13 129.072 1043.14C107.345 1068.61 87.1545 1075.41 53.0538 1081.83C27.7145 1050.05 27.7145 1050.05 27.7145 1037.62C21.443 1039.44 15.1715 1041.26 8.70996 1043.14C8.70996 1034.02 8.70996 1024.9 8.70996 1015.51C10.8005 1019.16 12.8909 1022.8 15.0448 1026.56C19.2258 1026.56 23.4068 1026.56 27.7145 1026.56C31.8954 1019.27 36.0764 1011.97 40.3841 1004.46C48.7461 1004.46 57.1081 1004.46 65.7234 1004.46C65.7234 1000.81 65.7234 997.161 65.7234 993.403C61.5424 991.579 57.3615 989.755 53.0538 987.876ZM78.3931 1004.46C69.8186 1020.38 69.8186 1020.38 78.3931 1032.09C72.1216 1028.44 65.8501 1024.79 59.3886 1021.04C53.1171 1021.04 46.8456 1021.04 40.3841 1021.04C44.5651 1037.45 48.7461 1053.86 53.0538 1070.78C59.3253 1068.95 65.5967 1067.13 72.0583 1065.25C72.0583 1061.6 72.0583 1057.95 72.0583 1054.2C80.4202 1056.02 88.7822 1057.84 97.3976 1059.72C103.669 1052.43 109.941 1045.13 116.402 1037.62C109.758 1023.13 105.954 1016.65 90.2709 1008.6C86.3512 1007.23 82.4315 1005.87 78.3931 1004.46Z" fill="#E2E3DA"/>
<path d="M1015.95 20.7029C1038.65 27.3045 1044.1 35.622 1055.32 53.5608C1063.62 72.5059 1061.91 89.0507 1060.29 109.13C1056.11 110.954 1051.93 112.778 1047.62 114.657C1045.53 111.009 1043.44 107.362 1041.29 103.603C1037.11 101.894 1032.93 100.184 1028.62 98.4221C1015.95 92.55 1015.95 92.55 1009.61 75.9699C1013.79 75.9699 1017.98 75.9699 1022.28 75.9699C1022.28 72.3223 1022.28 68.6746 1022.28 64.9165C1017.45 66.1704 1012.62 67.4242 1007.63 68.7161C1002.02 69.286 996.398 69.856 990.609 70.4432C980.043 62.2611 980.043 62.2611 971.605 53.8631C978.528 48.1543 985.54 42.5274 992.589 36.9376C996.484 33.7958 1000.38 30.654 1004.39 27.417C1010.11 24.0935 1010.11 24.0935 1015.95 20.7029Z" fill="#FAF4AE"/>
<path d="M122.736 650.747C142.856 678.258 154.606 712.415 148.076 744.701C132.239 760.936 132.239 760.936 116.402 772.335C101.752 769.917 101.752 769.917 84.7275 761.281C78.2751 748.556 74.0266 736.029 70.0039 722.573C66.956 710.458 66.956 710.458 53.0533 706.014C61.4153 704.19 69.7773 702.366 78.3926 700.487C81.2671 706.757 84.1415 713.026 87.103 719.485C94.6792 739.435 94.6792 739.435 110.067 744.701C110.067 741.053 110.067 737.406 110.067 733.648C114.248 731.824 118.429 730 122.736 728.121C119.601 719.401 119.601 719.401 116.402 710.505C111.082 692.812 108.816 679.811 110.067 661.801C104.449 663.624 98.8304 665.448 93.0419 667.327C73.8998 672.369 60.1247 673.867 40.3837 672.854C38.2932 665.559 36.2027 658.263 34.0488 650.747C42.8582 648.57 51.7098 646.523 60.5759 644.53C65.5 643.375 70.4241 642.221 75.4974 641.032C95.3215 639.327 105.501 642.101 122.736 650.747Z" fill="#CBD1D6"/>
<path d="M84.7276 645.22C99.3769 645.22 99.3769 645.22 116.402 650.747C123.007 661.546 127.088 672.153 131.125 683.864C135.38 696.485 135.38 696.485 148.076 711.541C148.076 728.121 148.076 728.121 133.823 742.974C116.402 755.754 116.402 755.754 91.0624 755.754C65.7231 727.507 65.7231 727.507 65.7231 711.541C61.5421 709.717 57.3611 707.893 53.0534 706.014C61.4154 704.19 69.7774 702.366 78.3928 700.487C81.2672 706.757 84.1416 713.026 87.1032 719.485C94.6793 739.435 94.6794 739.435 110.067 744.701C110.067 741.053 110.067 737.406 110.067 733.647C114.248 731.824 118.429 730 122.737 728.121C119.601 719.401 119.601 719.401 116.402 710.504C111.083 692.812 108.816 679.811 110.067 661.8C104.449 663.624 98.8305 665.448 93.0421 667.327C73.8999 672.369 60.1248 673.867 40.3838 672.854C40.3838 667.382 40.3838 661.911 40.3838 656.274C55.0172 656.274 69.6507 656.274 84.7276 656.274C84.7276 652.626 84.7276 648.978 84.7276 645.22Z" fill="#E9EAE5"/>
<path d="M1003.28 4.12256C1015.82 4.12256 1028.36 4.12256 1041.29 4.12256C1044.03 10.9619 1046.77 17.8011 1049.6 24.8477C1055.61 39.141 1060.18 48.2151 1071.38 60.0804C1079.3 70.443 1079.3 70.443 1077.32 88.4047C1075.16 95.928 1075.16 95.928 1072.96 103.603C1070.87 103.603 1068.78 103.603 1066.63 103.603C1065.06 98.0177 1063.49 92.4323 1061.88 86.6777C1054.61 64.1769 1042.57 46.112 1028.62 26.2294C1006.85 34.6691 989.854 46.1214 971.604 59.3896C973.695 70.3324 975.785 81.2753 977.939 92.5498C971.667 90.726 965.396 88.9021 958.934 87.0231C954.183 69.0613 954.183 69.0613 952.6 48.3362C966.35 32.056 974.91 27.1103 996.943 20.7027C999.034 15.2312 1001.12 9.75979 1003.28 4.12256Z" fill="#EDEDE5"/>
<path d="M27.7145 987.875C69.524 984.897 94.8121 988.188 129.072 1009.98C135.407 1026.56 135.407 1026.56 127.488 1043.49C109.105 1070.41 86.3625 1074.15 53.0538 1081.83C49.1341 1075.67 49.1341 1075.67 45.1352 1069.39C34.4455 1054.74 23.2248 1043.88 8.70996 1032.09C10.8005 1028.44 12.8909 1024.79 15.0448 1021.04C19.2258 1022.86 23.4068 1024.68 27.7145 1026.56C27.7145 1013.8 27.7145 1001.03 27.7145 987.875ZM78.3931 1004.46C69.8186 1020.38 69.8186 1020.38 78.3931 1032.09C72.1216 1028.44 65.8501 1024.79 59.3886 1021.04C53.1171 1021.04 46.8456 1021.04 40.3841 1021.04C44.5651 1037.45 48.7461 1053.86 53.0538 1070.78C59.3253 1068.95 65.5967 1067.13 72.0583 1065.25C72.0583 1061.6 72.0583 1057.95 72.0583 1054.2C80.4202 1056.02 88.7822 1057.84 97.3976 1059.72C103.669 1052.43 109.941 1045.13 116.402 1037.62C109.758 1023.13 105.954 1016.65 90.2709 1008.6C86.3512 1007.23 82.4315 1005.86 78.3931 1004.46Z" fill="#DDDDD4"/>
<path d="M103.733 927.082C112.094 930.73 120.456 934.377 129.072 938.135C129.072 941.783 129.072 945.431 129.072 949.189C142.929 955.458 156.311 960.834 171.04 965.424C186.085 971.296 186.085 971.296 198.755 987.876C182.254 993.111 171.472 995.073 155.104 988.847C144.112 983.292 133.402 977.316 122.737 971.296C122.737 974.943 122.737 978.591 122.737 982.349C108.998 979.552 97.3997 976.823 84.728 971.296C84.728 965.824 84.728 960.353 84.728 954.716C88.909 952.892 93.09 951.068 97.3977 949.189C101.529 937.999 101.529 937.999 103.733 927.082Z" fill="#E7CA6E"/>
<path d="M965.27 59.3894C973.632 59.3894 981.994 59.3894 990.609 59.3894C990.609 63.037 990.609 66.6846 990.609 70.4428C1001.06 68.619 1011.51 66.7952 1022.28 64.9161C1020.19 70.3875 1018.1 75.859 1015.95 81.4962C1023.9 95.3728 1031.79 97.3648 1047.62 103.603C1047.62 114.546 1047.62 125.489 1047.62 136.763C1032.99 138.587 1018.36 140.411 1003.28 142.29C1005.37 134.995 1007.46 127.699 1009.61 120.183C1015.89 120.183 1022.16 120.183 1028.62 120.183C1028.62 116.535 1028.62 112.888 1028.62 109.13C1024.05 108.902 1019.47 108.674 1014.76 108.439C988.823 101.399 980.952 89.5968 965.27 70.4428C965.27 66.7952 965.27 63.1476 965.27 59.3894Z" fill="#DB901C"/>
<path d="M1060.29 75.9697C1062.38 75.9697 1064.47 75.9697 1066.63 75.9697C1073.77 97.2563 1074.34 110.419 1062.67 129.855C1053.13 142.786 1047.56 147.851 1032.18 156.107C1014.09 159.187 1001.89 157.735 984.275 153.344C984.536 147.416 984.797 141.489 985.066 135.382C984.347 116.55 982.927 107.984 971.605 92.5498C975.786 88.9022 979.967 85.2546 984.275 81.4964C986.888 85.0301 989.501 88.5637 992.193 92.2044C1004.41 104.763 1010.34 106.93 1028.62 109.13C1028.62 112.778 1028.62 116.425 1028.62 120.183C1022.35 122.007 1016.08 123.831 1009.61 125.71C1007.52 131.181 1005.43 136.653 1003.28 142.29C1025.23 139.554 1025.23 139.554 1047.62 136.763C1052.39 116.566 1056.49 96.3227 1060.29 75.9697Z" fill="#DDDFE0"/>
<path d="M1053.96 4.12265C1071.52 41.8735 1084.32 81.1408 1068.14 121.025C1059.55 135.512 1051.92 145.942 1034.95 153.344C1021.23 153.344 1009.98 151.473 996.944 147.817C999.035 140.522 1001.13 133.226 1003.28 125.71C1003.28 131.182 1003.28 136.653 1003.28 142.29C1025.23 139.554 1025.23 139.554 1047.62 136.763C1049.79 127.563 1051.89 118.349 1053.96 109.13C1055.79 104.114 1057.62 99.099 1059.5 93.9315C1060.7 66.7963 1045.06 48.5701 1028.62 26.2295C1024.83 27.9393 1021.04 29.6491 1017.14 31.4107C1003.28 37.2829 1003.28 37.2829 984.275 42.8096C984.275 39.1619 984.275 35.5143 984.275 31.7562C980.094 29.9323 975.913 28.1085 971.605 26.2295C1000.33 1.16914 1012.41 -5.30058 1053.96 4.12265Z" fill="#CDD3D6"/>
<path d="M21.3801 993.402C28.1108 1003.76 28.1108 1003.76 34.0497 1015.51C27.7149 1026.56 27.7149 1026.56 15.0452 1032.09C18.9649 1035.28 22.8846 1038.47 26.923 1041.76C39.2029 1053.1 46.0868 1062.12 53.0542 1076.3C94.7452 1067.91 111.998 1057.2 135.407 1026.56C140.554 1035.89 140.554 1035.89 141.742 1048.67C121.634 1071 103.367 1080.37 72.0587 1087.36C72.0587 1091 72.0587 1094.65 72.0587 1098.41C78.3302 1100.23 84.6017 1102.06 91.0632 1103.94C98.5858 1115.33 98.5858 1115.33 103.733 1126.04C97.4614 1129.69 91.1899 1133.34 84.7283 1137.1C84.7283 1133.45 84.7283 1129.8 84.7283 1126.04C78.7182 1124.79 72.708 1123.53 66.5157 1122.24C46.7194 1114.99 46.7194 1114.99 38.009 1101.86C34.0497 1087.36 34.0497 1087.36 34.0497 1065.25C29.8687 1065.25 25.6877 1065.25 21.3801 1065.25C9.34621 1051.12 2.86663 1040.61 0 1023.11C2.78405 1007.72 7.60358 1002.92 21.3801 993.402Z" fill="#A7ACAC"/>
<path d="M78.3928 1004.46C95.0019 1010.25 102.425 1013.57 111.651 1027.25C113.218 1030.67 114.786 1034.09 116.402 1037.62C110.13 1044.91 103.859 1052.21 97.3973 1059.72C89.0353 1057.9 80.6733 1056.07 72.0579 1054.2C69.9674 1059.67 67.877 1065.14 65.7231 1070.78C61.5421 1070.78 57.3611 1070.78 53.0534 1070.78C48.8725 1054.36 44.6915 1037.95 40.3838 1021.04C65.7231 1026.56 65.7231 1026.56 78.3928 1032.09C76.6289 1026.79 76.6289 1026.79 74.8294 1021.38C73.9148 1017.62 73.0002 1013.86 72.0579 1009.98C74.1484 1008.16 76.2389 1006.33 78.3928 1004.46Z" fill="#ECD574"/>
<path d="M1015.95 20.7029C1042.7 28.4831 1047.8 41.8559 1060.61 62.9087C1068.64 80.3477 1067.82 91.629 1060.29 109.13C1056.11 110.954 1051.93 112.778 1047.62 114.657C1043.44 112.833 1039.26 111.009 1034.95 109.13C1034.95 105.482 1034.95 101.835 1034.95 98.0767C1028.68 96.2529 1022.41 94.4291 1015.95 92.55C1013.86 87.0786 1011.77 81.6071 1009.61 75.9699C1013.79 75.9699 1017.98 75.9699 1022.28 75.9699C1022.28 72.3223 1022.28 68.6746 1022.28 64.9165C1017.45 66.1704 1012.62 67.4242 1007.63 68.7161C1002.02 69.286 996.398 69.856 990.609 70.4432C980.043 62.2611 980.043 62.2611 971.605 53.8631C978.528 48.1543 985.54 42.5274 992.589 36.9376C996.484 33.7958 1000.38 30.654 1004.39 27.417C1010.11 24.0935 1010.11 24.0935 1015.95 20.7029Z" fill="#F1E389"/>
<path d="M965.27 31.7563C965.27 48.3364 965.27 48.3364 960.123 60.7715C958.712 78.8328 961.807 80.7542 974.377 94.2771C994.405 116.191 993.366 131.461 990.61 158.87C1030.83 150.876 1030.83 150.876 1060.29 127.437C1067.62 106.265 1070.79 86.9393 1072.96 64.9165C1075.05 64.9165 1077.14 64.9165 1079.3 64.9165C1083.66 124.314 1083.66 124.314 1067.42 146.09C1062.98 150.308 1058.53 154.525 1053.96 158.87C1049.78 158.87 1045.6 158.87 1041.29 158.87C1041.29 162.518 1041.29 166.166 1041.29 169.924C1016.35 177.176 1002.49 171.267 977.94 164.397C977.352 154.48 977.352 154.48 976.752 144.363C974.056 124.086 971.404 119.974 955.372 103.258C939.931 87.0233 939.931 87.0233 936.368 66.6436C939.931 48.3364 939.931 48.3364 952.601 37.6285C956.782 35.6907 960.963 33.7529 965.27 31.7563Z" fill="#8D959A"/>
<path d="M103.733 927.082C112.094 930.73 120.456 934.377 129.072 938.135C129.072 941.783 129.072 945.431 129.072 949.189C142.929 955.458 156.311 960.834 171.04 965.424C186.085 971.296 186.085 971.296 198.755 987.876C182.254 993.111 171.472 995.073 155.104 988.847C144.112 983.292 133.402 977.316 122.737 971.296C122.737 974.943 122.737 978.591 122.737 982.349C108.998 979.552 97.3997 976.823 84.728 971.296C84.728 965.824 84.728 960.353 84.728 954.716C88.909 952.892 93.09 951.068 97.3977 949.189C101.529 937.999 101.529 937.999 103.733 927.082Z" fill="#E8D48F"/>
<path d="M965.27 59.3894C973.632 59.3894 981.994 59.3894 990.609 59.3894C990.609 63.037 990.609 66.6846 990.609 70.4428C1001.06 68.619 1011.51 66.7952 1022.28 64.9161C1020.19 70.3875 1018.1 75.859 1015.95 81.4962C1019.08 84.0039 1022.22 86.5117 1025.45 89.0954C1034.95 98.0763 1034.95 98.0763 1034.95 109.13C1039.13 109.13 1043.31 109.13 1047.62 109.13C1047.62 118.249 1047.62 127.368 1047.62 136.763C1032.99 138.587 1018.36 140.411 1003.28 142.29C1005.37 134.995 1007.46 127.699 1009.61 120.183C1015.89 120.183 1022.16 120.183 1028.62 120.183C1028.62 116.535 1028.62 112.888 1028.62 109.13C1024.05 108.902 1019.47 108.674 1014.76 108.439C988.823 101.399 980.952 89.5968 965.27 70.4428C965.27 66.7952 965.27 63.1476 965.27 59.3894Z" fill="#EFCC6C"/>
<path d="M78.3928 1004.46C95.0019 1010.25 102.425 1013.57 111.651 1027.25C113.218 1030.67 114.786 1034.09 116.402 1037.62C110.13 1044.91 103.859 1052.21 97.3973 1059.72C89.0353 1057.9 80.6733 1056.07 72.0579 1054.2C69.9674 1059.67 67.877 1065.14 65.7231 1070.78C61.5421 1070.78 57.3611 1070.78 53.0534 1070.78C48.8725 1054.36 44.6915 1037.95 40.3838 1021.04C65.7231 1026.56 65.7231 1026.56 78.3928 1032.09C76.6289 1026.79 76.6289 1026.79 74.8294 1021.38C73.9148 1017.62 73.0002 1013.86 72.0579 1009.98C74.1484 1008.16 76.2389 1006.33 78.3928 1004.46Z" fill="#E7CA6E"/>
<path d="M971.605 31.7563C975.786 31.7563 979.967 31.7563 984.274 31.7563C983.229 34.948 982.184 38.1397 981.107 41.4281C977.023 55.3368 977.023 55.3368 977.939 75.97C989.616 91.6146 997.12 101.663 1017.53 108.094C1021.19 108.436 1024.85 108.778 1028.62 109.13C1028.62 112.778 1028.62 116.425 1028.62 120.184C1018.17 122.007 1007.71 123.831 996.944 125.71C996.944 133.006 996.944 140.301 996.944 147.817C1005.31 149.641 1013.67 151.465 1022.28 153.344C1011.83 155.168 1001.38 156.991 990.609 158.87C990.021 149.124 990.021 149.124 989.421 139.182C986.897 120.008 981.375 109.341 967.645 94.2771C952.557 77.6236 952.557 77.6236 952.996 60.7715C958.935 48.3364 958.935 48.3364 971.605 31.7563Z" fill="#EEF0EF"/>
</svg>
