<svg width="572" height="549" viewBox="0 0 572 549" fill="none" xmlns="http://www.w3.org/2000/svg">
<path d="M424.434 0C428.614 0 432.795 0 437.103 0C431.56 42.1411 431.56 42.1411 424.434 60.7937C434.886 64.4413 445.338 68.089 456.108 71.8471C452.972 44.4899 452.972 44.4899 449.773 16.5801C453.954 16.5801 458.135 16.5801 462.442 16.5801C471.85 35.7301 471.85 35.7301 481.447 55.267C483.537 51.6194 485.628 47.9718 487.782 44.2136C494.053 46.0374 500.325 47.8612 506.786 49.7403C506.786 58.8594 506.786 67.9784 506.786 77.3738C483.031 83.5913 483.031 83.5913 468.777 77.3738C483.831 115.264 483.831 115.264 517.476 139.895C522.311 141.148 527.145 142.402 532.126 143.694C535.261 135.487 535.261 135.487 538.46 127.114C543.347 140.969 544.743 151.477 544.399 166.146C543.155 183.45 543.155 183.45 557.465 198.961C559.104 212.055 559.104 212.055 559.148 227.458C559.172 235.943 559.172 235.943 559.197 244.6C559.148 250.513 559.099 256.426 559.049 262.518C559.122 271.132 559.122 271.132 559.197 279.919C559.087 318.523 554.216 354.688 544.795 392.396C542.705 392.396 540.614 392.396 538.46 392.396C538.288 384.567 538.166 376.737 538.065 368.907C537.991 364.547 537.918 360.187 537.842 355.695C538.46 342.655 538.46 342.655 541.586 332.385C547.555 310.37 546.231 287.804 546.379 265.282C546.51 260.295 546.64 255.308 546.775 250.17C546.808 245.354 546.84 240.538 546.874 235.576C546.933 231.201 546.992 226.827 547.053 222.32C544.257 207.083 536.425 200.01 525.791 187.908C524.603 167.183 524.603 167.183 525.791 149.221C521.087 149.891 516.384 150.56 511.537 151.25C494.117 149.221 494.117 149.221 481.051 135.102C477.001 129.046 472.95 122.991 468.777 116.752C452.546 92.5984 443.399 79.4178 411.764 71.8471C408.383 77.6391 405.002 83.4312 401.519 89.3987C364.698 149.366 364.698 149.366 337.75 163.944C312.961 170.307 291.938 171.328 266.063 171.328C266.063 167.68 266.063 164.032 266.063 160.274C271.861 159.398 277.658 158.522 283.632 157.619C291.161 156.329 298.69 155.04 306.447 153.711C313.944 152.493 321.44 151.275 329.164 150.02C349.412 145.487 349.412 145.487 356.186 130.849C357.802 125.969 359.419 121.089 361.085 116.061C367.157 107.396 373.496 98.8694 380.09 90.4997C383.356 86.3249 386.622 82.1501 389.988 77.8488C392.993 74.0444 395.998 70.24 399.094 66.3204C414.106 49.9958 414.106 49.9958 411.764 27.6335C405.492 29.4573 399.221 31.2811 392.759 33.1602C392.759 24.0411 392.759 14.9221 392.759 5.5267C401.121 7.35051 409.483 9.17432 418.099 11.0534C420.189 7.40578 422.28 3.75816 424.434 0Z" fill="#D7DDC7"/>
<path d="M424.434 215.541C430.706 217.365 436.977 219.189 443.439 221.068C445.268 226.083 447.097 231.099 448.982 236.266C457.344 257.343 469.46 266.717 487.783 281.861C487.783 285.509 487.783 289.157 487.783 292.915C494.054 294.739 500.326 296.562 506.787 298.442C506.787 305.737 506.787 313.032 506.787 320.548C500.516 320.548 494.244 320.548 487.783 320.548C487.783 333.315 487.783 346.082 487.783 359.235C483.602 361.059 479.421 362.883 475.113 364.762C475.113 359.29 475.113 353.819 475.113 348.182C470.932 348.182 466.751 348.182 462.443 348.182C466.624 337.239 470.805 326.296 475.113 315.022C466.751 313.198 458.389 311.374 449.774 309.495C451.864 318.614 453.955 327.733 456.108 337.128C440.507 323.517 437.118 311.116 430.769 292.915C424.498 292.915 418.226 292.915 411.765 292.915C411.765 298.386 411.765 303.858 411.765 309.495C392.95 309.495 374.136 309.495 354.751 309.495C356.842 305.847 358.932 302.2 361.086 298.442C371.539 298.442 381.991 298.442 392.76 298.442C392.76 294.794 392.76 291.146 392.76 287.388C386.489 287.388 380.217 287.388 373.756 287.388C371.665 280.093 369.575 272.798 367.421 265.281C389.371 262.546 389.371 262.546 411.765 259.755C407.584 257.931 403.403 256.107 399.095 254.228C399.095 250.58 399.095 246.933 399.095 243.175C409.547 241.351 420 239.527 430.769 237.648C428.679 230.353 426.588 223.057 424.434 215.541Z" fill="#E3A33A"/>
<path d="M456.108 243.176C458.329 245.798 460.55 248.419 462.838 251.12C480.286 263.396 497.532 262.598 519.456 265.283C534.897 272.882 534.897 272.882 544.795 281.863C544.795 287.334 544.795 292.806 544.795 298.443C536.433 298.443 528.071 298.443 519.456 298.443C527.818 302.09 536.18 305.738 544.795 309.496C546.059 333.205 542.68 348.623 532.125 370.29C529.744 381.301 527.566 392.352 525.791 403.45C504.391 408.118 489.843 409.576 468.777 403.45C466.687 396.155 464.596 388.86 462.442 381.343C466.525 380.047 470.608 378.75 474.815 377.414C489.098 371.331 489.098 371.331 491.642 358.33C491.936 353.841 492.23 349.353 492.533 344.729C492.892 340.212 493.251 335.695 493.622 331.042C493.785 327.579 493.948 324.117 494.117 320.55C498.298 320.55 502.478 320.55 506.786 320.55C504.582 309.632 504.582 309.632 500.451 298.443C496.27 296.619 492.089 294.795 487.782 292.916C487.782 289.268 487.782 285.621 487.782 281.863C483.862 280.381 479.942 278.899 475.904 277.372C462.442 270.809 462.442 270.809 449.773 254.229C451.863 250.582 453.954 246.934 456.108 243.176Z" fill="#DA942B"/>
<path d="M400.282 303.624C412.237 303.795 412.237 303.795 424.434 303.969C426.524 309.441 428.615 314.912 430.769 320.549C414.045 320.549 397.321 320.549 380.09 320.549C380.09 324.197 380.09 327.845 380.09 331.603C394.724 331.603 409.357 331.603 424.434 331.603C423.642 349.91 423.642 349.91 418.099 370.29C398.699 380.998 398.699 380.998 380.09 386.87C380.09 390.517 380.09 394.165 380.09 397.923C370.858 398.371 361.617 398.692 352.375 398.959C347.231 399.152 342.086 399.344 336.786 399.542C332.262 399.008 327.738 398.474 323.077 397.923C318.896 392.452 314.715 386.98 310.407 381.343C320.859 381.343 331.312 381.343 342.081 381.343C341.403 377.546 340.726 373.749 340.027 369.836C339.268 364.856 338.508 359.877 337.726 354.746C336.918 349.809 336.109 344.872 335.276 339.785C335.746 326.076 335.746 326.076 343.937 316.34C362.292 304.723 378.364 303.31 400.282 303.624Z" fill="#C56F0E"/>
<path d="M183.711 193.435C185.801 198.906 187.892 204.377 190.046 210.015C200.498 211.838 210.951 213.662 221.72 215.541C221.72 217.365 221.72 219.189 221.72 221.068C211.267 221.068 200.815 221.068 190.046 221.068C190.046 224.716 190.046 228.363 190.046 232.121C198.408 233.945 206.77 235.769 215.385 237.648C211.204 244.943 207.023 252.239 202.715 259.755C234.073 251.548 234.073 251.548 266.064 243.175C253.521 243.175 240.978 243.175 228.055 243.175C225.964 239.527 223.874 235.88 221.72 232.121C231.713 229.809 241.753 227.651 251.81 225.559C257.396 224.34 262.981 223.122 268.736 221.867C285.068 221.068 285.068 221.068 299.816 229.077C305.059 233.32 305.059 233.32 310.407 237.648C306.226 237.648 302.045 237.648 297.738 237.648C297.738 241.296 297.738 244.943 297.738 248.702C302.441 246.878 307.145 245.054 311.991 243.175C329.412 237.648 329.412 237.648 354.751 237.648C354.751 241.296 354.751 244.943 354.751 248.702C321.518 258.366 290.622 261.698 255.646 263.382C232.597 266.316 222.786 281.491 208.258 296.369C203.138 301.606 203.138 301.606 197.915 306.948C195.318 309.612 192.721 312.277 190.046 315.022C168.969 287.44 168.424 264.252 171.041 232.121C174.264 218.698 178.631 206.454 183.711 193.435Z" fill="#E5A43B"/>
<path d="M456.108 99.4805C471.317 115.402 484.444 130.231 494.117 149.221C504.57 149.221 515.022 149.221 525.792 149.221C526.445 155.148 527.098 161.076 527.771 167.183C530.021 187.508 530.021 187.508 542.421 198.616C556.537 217.089 549.207 232.886 544.796 254.228C544.796 256.052 544.796 257.876 544.796 259.755C542.745 267.137 540.637 274.507 538.461 281.862C532.19 278.214 525.918 274.566 519.457 270.808C513.185 270.808 506.914 270.808 500.452 270.808C502.673 273.886 504.895 276.964 507.183 280.134C514.506 295.893 511.916 304.439 506.787 320.548C502.606 320.548 498.425 320.548 494.117 320.548C494.117 313.253 494.117 305.958 494.117 298.442C489.936 298.442 485.755 298.442 481.448 298.442C481.448 294.794 481.448 291.146 481.448 287.388C473.086 285.564 464.724 283.741 456.108 281.862C456.108 278.214 456.108 274.566 456.108 270.808C440.43 265.337 440.43 265.337 424.434 259.755C426.525 265.226 428.615 270.698 430.769 276.335C424.498 279.982 418.226 283.63 411.765 287.388C413.855 292.86 415.946 298.331 418.1 303.968C396.097 310.367 377.806 309.875 354.751 309.495C356.842 305.847 358.932 302.2 361.086 298.442C371.539 298.442 381.991 298.442 392.76 298.442C392.76 294.794 392.76 291.146 392.76 287.388C386.489 287.388 380.217 287.388 373.756 287.388C371.665 280.093 369.575 272.798 367.421 265.281C389.371 262.546 389.371 262.546 411.765 259.755C407.584 257.931 403.403 256.107 399.095 254.228C399.095 250.58 399.095 246.933 399.095 243.175C409.547 241.351 420 239.527 430.769 237.648C428.679 228.529 426.588 219.41 424.434 210.014C428.615 210.014 432.796 210.014 437.104 210.014C437.104 202.719 437.104 195.424 437.104 187.908C445.466 184.26 453.828 180.612 462.443 176.854C462.443 164.088 462.443 151.321 462.443 138.167C458.785 139.877 455.127 141.587 451.357 143.349C438.099 148.811 426.047 152.077 411.765 154.747C416.73 150.758 421.695 146.768 426.81 142.658C442.451 128.037 449.347 118.251 456.108 99.4805Z" fill="#E2A138"/>
<path d="M456.109 99.4805C471.318 115.402 484.445 130.231 494.118 149.221C504.571 149.221 515.023 149.221 525.793 149.221C526.446 155.148 527.099 161.076 527.772 167.183C532.112 187.834 536.798 194.247 551.132 210.014C551.132 217.31 551.132 224.605 551.132 232.121C546.951 232.121 542.77 232.121 538.462 232.121C536.372 226.65 534.281 221.178 532.127 215.541C519.584 213.717 507.041 211.894 494.118 210.014C494.118 206.367 494.118 202.719 494.118 198.961C487.847 197.137 481.575 195.313 475.114 193.434C481.385 191.611 487.657 189.787 494.118 187.908C494.118 184.26 494.118 180.612 494.118 176.854C485.756 178.678 477.394 180.502 468.779 182.381C462.596 166.197 461.923 154.99 462.444 138.167C458.786 139.877 455.128 141.587 451.358 143.349C438.1 148.811 426.048 152.077 411.766 154.747C416.731 150.758 421.695 146.768 426.811 142.658C442.452 128.037 449.348 118.251 456.109 99.4805Z" fill="#DF9A2D"/>
<path d="M418.099 160.276C418.099 169.395 418.099 178.514 418.099 187.909C413.918 187.909 409.737 187.909 405.429 187.909C405.429 191.557 405.429 195.204 405.429 198.962C401.387 199.632 397.345 200.302 393.18 200.992C387.946 201.918 382.712 202.844 377.319 203.798C369.491 205.145 369.491 205.145 361.506 206.519C357.186 207.673 352.867 208.827 348.416 210.016C346.325 213.664 344.235 217.311 342.081 221.069C352.533 226.541 362.986 232.012 373.755 237.649C355.626 245.557 342.501 240.965 323.077 237.649C323.077 224.883 323.077 212.116 323.077 198.962C308.443 198.962 293.81 198.962 278.733 198.962C278.733 202.61 278.733 206.258 278.733 210.016C266.19 213.664 253.647 217.311 240.724 221.069C240.724 217.422 240.724 213.774 240.724 210.016C244.905 210.016 249.086 210.016 253.393 210.016C253.393 206.368 253.393 202.721 253.393 198.962C247.122 197.139 240.85 195.315 234.389 193.436C255.977 188.212 277.531 185.666 299.717 183.073C323.804 179.967 345.32 176.898 367.42 167.875C386.374 160.296 397.592 158.649 418.099 160.276Z" fill="#A15407"/>
<path d="M462.444 198.963C481.448 204.49 481.448 204.49 487.783 215.543C491.442 214.631 495.1 213.719 498.869 212.78C513.123 210.016 513.123 210.016 538.462 210.016C538.462 217.312 538.462 224.607 538.462 232.123C542.643 232.123 546.824 232.123 551.132 232.123C551.132 261.304 551.132 290.485 551.132 320.55C549.041 316.903 546.951 313.255 544.797 309.497C534.385 305.509 523.825 301.795 513.123 298.443C525.792 292.917 525.792 292.917 544.797 298.443C540.636 281.548 540.636 281.548 527.203 275.991C522.687 274.281 518.171 272.572 513.519 270.81C492.812 262.941 488.314 260.451 475.114 243.176C477.204 241.353 479.295 239.529 481.448 237.65C468.905 230.355 456.363 223.059 443.439 215.543C445.53 211.895 447.62 208.248 449.774 204.49C453.955 204.49 458.136 204.49 462.444 204.49C462.444 202.666 462.444 200.842 462.444 198.963Z" fill="#E6AD47"/>
<path d="M443.44 381.343C443.44 384.991 443.44 388.639 443.44 392.397C439.259 392.397 435.078 392.397 430.77 392.397C430.77 397.868 430.77 403.34 430.77 408.977C432.86 405.329 434.951 401.682 437.105 397.923C441.286 397.923 445.467 397.923 449.774 397.923C451.865 405.219 453.955 412.514 456.109 420.03C449.838 423.678 443.566 427.325 437.105 431.084C428.881 437.434 428.881 437.434 424.435 453.19C418.164 445.895 411.892 438.6 405.431 431.084C403.291 433.876 401.152 436.669 398.947 439.546C396.122 443.137 393.297 446.728 390.385 450.427C387.593 454.018 384.8 457.608 381.923 461.308C377.88 465.497 377.88 465.497 373.757 469.77C369.576 469.77 365.395 469.77 361.087 469.77C361.087 473.418 361.087 477.066 361.087 480.824C352.725 479 344.363 477.176 335.748 475.297C335.748 471.65 335.748 468.002 335.748 464.244C342.019 462.42 348.291 460.596 354.752 458.717C356.843 455.069 358.933 451.422 361.087 447.664C352.725 444.016 344.363 440.368 335.748 436.61C335.748 431.139 335.748 425.667 335.748 420.03C354.562 420.03 373.376 420.03 392.761 420.03C392.761 416.383 392.761 412.735 392.761 408.977C382.309 407.153 371.856 405.329 361.087 403.45C381.535 391.557 388.225 391.287 411.766 392.397C411.766 388.749 411.766 385.101 411.766 381.343C424.435 375.817 424.435 375.817 443.44 381.343Z" fill="#C17011"/>
<path d="M190.045 193.435C206.691 196.124 216.522 199.623 230.825 207.942C246.639 217.07 246.639 217.07 264.875 213.814C271.735 211.933 271.735 211.933 278.733 210.015C278.733 206.367 278.733 202.719 278.733 198.961C300.683 196.226 300.683 196.226 323.076 193.435C328.845 210.419 329.974 225.495 329.411 243.175C318.959 244.999 308.506 246.822 297.737 248.702C297.737 243.23 297.737 237.759 297.737 232.121C270.542 225.143 254.164 228.642 228.054 237.648C242.687 237.648 257.321 237.648 272.398 237.648C257.537 252.963 246.122 257.105 223.699 260.791C218.579 261.668 213.459 262.544 208.183 263.447C204.288 264.052 200.393 264.658 196.38 265.282C200.561 256.163 204.742 247.044 209.049 237.648C202.778 235.824 196.506 234.001 190.045 232.121C190.045 228.474 190.045 224.826 190.045 221.068C196.316 219.244 202.588 217.42 209.049 215.541C202.778 213.718 196.506 211.894 190.045 210.015C190.045 204.543 190.045 199.072 190.045 193.435Z" fill="#C87711"/>
<path d="M544.795 375.816C548.976 375.816 553.157 375.816 557.465 375.816C556.889 379.464 556.313 383.113 555.72 386.871C553.104 403.562 550.533 420.259 547.963 436.956C547.056 442.694 546.15 448.433 545.216 454.345C540.728 483.71 537.304 511.992 538.46 541.617C525.395 546.453 525.395 546.453 506.786 547.144C477.911 531.077 454.833 507.345 430.768 486.35C420.324 478.859 409.8 471.449 399.094 464.244C399.89 469.533 399.89 469.533 400.703 474.93C401.348 479.497 401.993 484.063 402.657 488.768C403.319 493.321 403.98 497.873 404.662 502.564C404.915 506.332 405.168 510.101 405.429 513.984C403.338 515.808 401.248 517.632 399.094 519.511C360.956 518.153 334.079 506.847 304.072 486.35C301.981 482.703 299.891 479.055 297.737 475.297C301.297 476.936 304.858 478.574 308.526 480.262C323.201 486.403 337.691 490.963 353.167 495.331C358.229 496.77 363.292 498.21 368.509 499.692C372.33 500.761 376.152 501.829 380.09 502.931C378.522 496.433 376.954 489.936 375.338 483.242C371.141 455.85 381.526 442.324 399.094 420.03C422.814 439.939 442.398 461.76 462.442 484.472C474.213 496.486 485.539 505.126 500.451 513.984C504.632 501.217 508.813 488.451 513.121 475.297C517.302 478.945 521.483 482.592 525.791 486.35C526.632 480.224 527.473 474.097 528.339 467.784C529.469 459.696 530.599 451.607 531.73 443.518C532.281 439.486 532.832 435.454 533.4 431.299C536.055 412.426 539.203 394.187 544.795 375.816Z" fill="#BBAB8A"/>
<path d="M247.059 292.917C251.24 292.917 255.421 292.917 259.729 292.917C259.729 296.565 259.729 300.212 259.729 303.97C272.272 302.147 284.815 300.323 297.738 298.444C297.738 319.262 296.247 325.59 285.068 342.657C289.249 342.657 293.43 342.657 297.738 342.657C299.828 335.362 301.919 328.067 304.073 320.55C310.344 322.374 316.616 324.198 323.077 326.077C318.896 340.668 314.715 355.258 310.408 370.291C316.679 372.115 322.951 373.938 329.412 375.817C318.96 377.641 308.507 379.465 297.738 381.344C297.738 388.639 297.738 395.935 297.738 403.451C285.736 402.048 285.736 402.048 272.399 397.924C251.549 367.093 249.484 327.864 247.059 292.917Z" fill="#EDB447"/>
<path d="M31.6741 298.441C44.3438 302.586 44.3438 302.586 57.0135 309.495C67.4908 311.66 78.067 313.477 88.6876 315.022C95.6124 316.047 102.537 317.073 109.672 318.13C115.29 318.928 120.908 319.726 126.697 320.548C128.787 327.843 130.878 335.139 133.031 342.655C143.484 342.655 153.936 342.655 164.706 342.655C166.404 345.961 168.103 349.266 169.853 352.672C176.675 365.001 176.675 365.001 187.669 373.743C196.38 381.342 196.38 381.342 196.38 392.395C188.018 392.395 179.656 392.395 171.04 392.395C171.04 403.338 171.04 414.281 171.04 425.556C164.769 421.908 158.497 418.26 152.036 414.502C150.848 400.685 150.848 400.685 152.036 386.869C152.036 383.221 152.036 379.573 152.036 375.815C152.036 370.344 152.036 364.872 152.036 359.235C146.156 357.525 140.277 355.815 134.219 354.054C121.154 350.254 108.088 346.455 95.0224 342.655C82.3735 340.708 69.7053 338.851 57.0135 337.128C57.0135 333.481 57.0135 329.833 57.0135 326.075C52.3099 327.329 47.6062 328.583 42.7601 329.875C25.3393 331.602 25.3393 331.602 10.69 323.657C7.16232 320.807 3.63461 317.958 0 315.022C14.2534 306.041 14.2534 306.041 31.6741 298.441Z" fill="#DB9524"/>
<path d="M456.107 149.222C460.288 151.045 464.469 152.869 468.777 154.748C472.736 166.147 472.736 166.147 475.112 176.855C481.383 176.855 487.655 176.855 494.116 176.855C494.116 180.503 494.116 184.15 494.116 187.909C487.845 190.644 487.845 190.644 481.446 193.435C485.627 195.259 489.808 197.083 494.116 198.962C492.026 206.257 489.935 213.552 487.781 221.069C481.51 215.597 475.238 210.126 468.777 204.489C466.686 208.136 464.596 211.784 462.442 215.542C458.261 215.542 454.08 215.542 449.772 215.542C471.722 226.485 471.722 226.485 494.116 237.649C489.935 241.297 485.754 244.944 481.446 248.702C485.627 254.174 489.808 259.645 494.116 265.282C474.617 263.46 469.059 260.032 455.711 246.975C451.661 242.074 447.611 237.172 443.437 232.122C439.779 227.905 436.121 223.687 432.351 219.342C429.738 216.264 427.125 213.186 424.433 210.015C428.614 210.015 432.795 210.015 437.103 210.015C437.103 202.72 437.103 195.425 437.103 187.909C424.56 193.38 424.56 193.38 411.763 198.962C413.854 191.667 415.944 184.371 418.098 176.855C413.917 175.031 409.736 173.208 405.428 171.328C413.578 167.476 421.769 163.688 429.976 159.93C434.533 157.814 439.089 155.698 443.784 153.518C447.851 152.1 451.917 150.682 456.107 149.222Z" fill="#D58414"/>
<path d="M31.6741 298.441C44.3438 302.586 44.3438 302.586 57.0135 309.495C83.9534 315.811 110.496 315.667 138.178 315.367C142.568 315.342 146.957 315.317 151.479 315.291C162.223 315.227 172.967 315.128 183.71 315.022C185.853 323.766 187.957 332.518 190.045 341.273C191.221 346.146 192.397 351.019 193.608 356.04C196.38 370.289 196.38 370.289 196.38 392.395C188.018 392.395 179.656 392.395 171.04 392.395C171.04 403.338 171.04 414.281 171.04 425.556C164.769 421.908 158.497 418.26 152.036 414.502C150.848 400.685 150.848 400.685 152.036 386.869C152.34 374.439 152.34 374.439 148.868 356.817C145.701 337.128 145.701 337.128 145.701 320.548C141.52 320.548 137.339 320.548 133.031 320.548C130.941 329.667 128.85 338.786 126.697 348.182C117.455 347.402 108.218 346.59 98.9817 345.764C91.2649 345.091 91.2649 345.091 83.3921 344.404C69.6831 342.655 69.6831 342.655 57.0135 337.128C57.0135 333.481 57.0135 329.833 57.0135 326.075C52.3099 327.329 47.6062 328.583 42.7601 329.875C25.3393 331.602 25.3393 331.602 10.69 323.657C7.16232 320.807 3.63461 317.958 0 315.022C14.2534 306.041 14.2534 306.041 31.6741 298.441Z" fill="#D89021"/>
<path d="M400.282 303.624C412.237 303.795 412.237 303.795 424.434 303.969C426.524 309.441 428.615 314.912 430.769 320.549C414.045 320.549 397.321 320.549 380.09 320.549C380.09 324.197 380.09 327.845 380.09 331.603C394.724 331.603 409.357 331.603 424.434 331.603C423.642 349.91 423.642 349.91 418.099 370.29C398.699 380.998 398.699 380.998 380.09 386.87C380.09 390.517 380.09 394.165 380.09 397.923C370.858 398.371 361.617 398.692 352.375 398.959C347.231 399.152 342.086 399.344 336.786 399.542C332.262 399.008 327.738 398.474 323.077 397.923C318.896 392.452 314.715 386.98 310.407 381.343C320.859 381.343 331.312 381.343 342.081 381.343C341.403 377.546 340.726 373.749 340.027 369.836C339.268 364.856 338.508 359.877 337.726 354.746C336.918 349.809 336.109 344.872 335.276 339.785C335.746 326.076 335.746 326.076 343.937 316.34C362.292 304.723 378.364 303.31 400.282 303.624Z" fill="#C56F0D"/>
<path d="M183.711 193.435C185.801 198.906 187.892 204.377 190.046 210.015C200.498 211.838 210.951 213.662 221.72 215.541C221.72 217.365 221.72 219.189 221.72 221.068C211.267 221.068 200.815 221.068 190.046 221.068C190.046 224.716 190.046 228.363 190.046 232.121C198.408 233.945 206.77 235.769 215.385 237.648C211.204 244.943 207.023 252.239 202.715 259.755C234.073 251.548 234.073 251.548 266.064 243.175C253.521 243.175 240.978 243.175 228.055 243.175C225.964 239.527 223.874 235.88 221.72 232.121C231.713 229.809 241.753 227.651 251.81 225.559C257.396 224.34 262.981 223.122 268.736 221.867C285.068 221.068 285.068 221.068 299.816 229.077C305.059 233.32 305.059 233.32 310.407 237.648C306.226 237.648 302.045 237.648 297.738 237.648C297.738 241.296 297.738 244.943 297.738 248.702C302.441 246.878 307.145 245.054 311.991 243.175C329.412 237.648 329.412 237.648 354.751 237.648C354.751 241.296 354.751 244.943 354.751 248.702C321.518 258.366 290.622 261.698 255.646 263.382C232.597 266.316 222.786 281.491 208.258 296.369C203.138 301.606 203.138 301.606 197.915 306.948C195.318 309.612 192.721 312.277 190.046 315.022C168.969 287.44 168.424 264.252 171.041 232.121C174.264 218.698 178.631 206.454 183.711 193.435Z" fill="#E5A43B"/>
<path d="M456.109 381.344C460.29 383.168 464.471 384.991 468.778 386.87C468.778 392.342 468.778 397.813 468.778 403.451C483.412 405.274 498.045 407.098 513.122 408.977C506.318 425.089 501.858 435.384 487.783 447.664C498.235 447.664 508.688 447.664 519.457 447.664C518.735 457.57 517.927 467.472 517.081 477.37C516.64 482.884 516.199 488.399 515.745 494.08C513.122 508.458 513.122 508.458 500.452 519.511C492.375 513.552 484.331 507.558 476.301 501.549C471.818 498.215 467.335 494.881 462.716 491.446C450.191 481.166 440.183 471.257 430.769 458.718C430.769 455.07 430.769 451.422 430.769 447.664C439.131 445.84 447.493 444.017 456.109 442.137C456.109 436.666 456.109 431.195 456.109 425.557C456.109 410.819 456.109 396.082 456.109 381.344Z" fill="#B46814"/>
<path d="M335.746 215.541C363.968 221.012 363.968 221.012 392.76 226.594C390.669 232.066 388.579 237.537 386.425 243.175C390.606 243.175 394.787 243.175 399.095 243.175C399.095 246.822 399.095 250.47 399.095 254.228C405.366 256.052 411.638 257.876 418.099 259.755C399.549 265.149 386.703 265.736 367.421 265.281C365.33 268.929 363.24 272.577 361.086 276.335C344.853 279.789 344.853 279.789 329.412 281.861C329.412 278.214 329.412 274.566 329.412 270.808C321.05 272.632 312.688 274.456 304.072 276.335C308.253 279.982 312.434 283.63 316.742 287.388C297.928 284.652 297.928 284.652 278.733 281.861C276.643 274.566 274.552 267.271 272.398 259.755C325.792 247.122 325.792 247.122 354.751 248.701C356.841 245.054 358.932 241.406 361.086 237.648C352.724 230.353 344.362 223.057 335.746 215.541Z" fill="#DD8A17"/>
<path d="M557.466 198.963C573.553 212.998 571.763 218.102 571.818 237.542C571.835 243.067 571.851 248.592 571.868 254.284C571.819 260.079 571.77 265.875 571.719 271.846C571.768 277.535 571.817 283.224 571.868 289.085C571.777 320.159 569.448 346.491 557.466 375.817C553.285 375.817 549.104 375.817 544.796 375.817C544.479 379.137 544.162 382.456 543.834 385.876C542.369 400.836 540.813 415.787 539.253 430.739C538.755 435.965 538.257 441.19 537.744 446.574C537.213 451.543 536.682 456.513 536.136 461.632C535.671 466.234 535.207 470.836 534.728 475.577C533.87 479.133 533.011 482.688 532.127 486.351C525.855 489.087 525.855 489.087 519.457 491.878C517.552 450.144 523.092 411.251 532.127 370.291C525.855 372.114 519.584 373.938 513.122 375.817C515.213 355.755 517.303 335.693 519.457 315.024C523.638 315.024 527.819 315.024 532.127 315.024C532.127 324.143 532.127 333.262 532.127 342.657C536.308 342.657 540.489 342.657 544.796 342.657C544.796 315.3 544.796 287.943 544.796 259.757C540.615 259.757 536.434 259.757 532.127 259.757C536.308 250.638 540.489 241.518 544.796 232.123C546.887 232.123 548.977 232.123 551.131 232.123C553.222 221.18 555.312 210.237 557.466 198.963Z" fill="#E5C98B"/>
<path d="M430.769 447.663C439.131 447.663 447.493 447.663 456.109 447.663C456.109 451.311 456.109 454.958 456.109 458.716C473.57 455.967 473.57 455.967 487.783 447.663C498.338 447.438 508.902 447.427 519.457 447.663C518.735 457.569 517.927 467.47 517.081 477.369C516.64 482.883 516.199 488.397 515.745 494.079C513.122 508.457 513.122 508.457 500.452 519.51C492.375 513.551 484.331 507.557 476.301 501.548C471.818 498.214 467.335 494.88 462.716 491.445C450.191 481.165 440.183 471.256 430.769 458.716C430.769 455.069 430.769 451.421 430.769 447.663Z" fill="#B36A17"/>
<path d="M525.791 370.29C527.881 370.29 529.972 370.29 532.125 370.29C534.212 423.086 534.212 423.086 519.456 447.664C499.099 455.977 484.872 458.717 462.442 458.717C458.261 449.598 454.08 440.479 449.773 431.084C451.863 429.26 453.954 427.436 456.108 425.557C456.56 418.083 456.64 410.589 456.503 403.105C456.373 395.924 456.242 388.742 456.108 381.343C460.289 383.167 464.47 384.991 468.777 386.87C468.777 392.342 468.777 397.813 468.777 403.45C487.592 403.45 506.406 403.45 525.791 403.45C525.791 392.507 525.791 381.565 525.791 370.29Z" fill="#BD6D11"/>
<path d="M266.065 276.337C262.406 277.819 258.748 279.301 254.979 280.828C231.49 291.643 217.647 298.054 209.051 320.551C208.624 329.179 208.512 337.822 208.655 346.457C208.712 350.924 208.77 355.391 208.828 359.993C208.902 363.392 208.975 366.79 209.051 370.291C213.232 362.996 217.413 355.701 221.721 348.184C227.992 350.008 234.264 351.832 240.725 353.711C242.816 348.24 244.906 342.768 247.06 337.131C253.246 370.593 253.246 370.593 253.395 381.345C249.214 384.992 245.033 388.64 240.725 392.398C240.725 388.75 240.725 385.103 240.725 381.345C236.544 381.345 232.363 381.345 228.056 381.345C230.146 386.816 232.237 392.287 234.39 397.925C215.027 392.902 204.471 388.666 191.234 375.127C181.554 354.681 178.401 336.589 183.712 315.024C205.092 282.969 224.93 275.557 266.065 276.337Z" fill="#ECB549"/>
<path d="M0 320.549C18.8144 322.373 37.6289 324.196 57.0135 326.076C57.0135 329.723 57.0135 333.371 57.0135 337.129C68.3805 336.445 68.3805 336.445 79.9772 335.747C108.281 335.791 124.564 342.178 145.701 359.236C148.077 374.434 148.077 374.434 145.701 386.869C135.249 379.574 124.796 372.279 114.027 364.762C116.117 372.058 118.208 379.353 120.362 386.869C116.181 386.869 112 386.869 107.692 386.869C101.421 375.926 95.1491 364.984 88.6876 353.709C86.5971 362.828 84.5066 371.947 82.3528 381.343C88.6243 381.343 94.8958 381.343 101.357 381.343C103.448 388.638 105.538 395.933 107.692 403.449C95.1491 399.802 82.6062 396.154 69.6831 392.396C64.6182 374.23 62.7364 366.364 69.6831 348.182C65.2408 349.664 60.7985 351.146 56.2216 352.673C35.2506 353.866 32.5404 351.804 17.0249 340.583C11.4067 335.796 5.78845 331.008 0 326.076C0 324.252 0 322.428 0 320.549Z" fill="#B36C1A"/>
<path d="M361.085 138.168C365.266 138.168 369.447 138.168 373.755 138.168C372.171 154.057 372.171 154.057 367.42 171.328C346.941 183.609 324.728 185.57 300.509 188.599C293.314 189.525 286.12 190.451 278.708 191.406C259.728 193.435 259.728 193.435 240.724 193.435C244.905 195.259 249.086 197.083 253.393 198.962C253.393 202.609 253.393 206.257 253.393 210.015C226.177 207.317 211.193 202.869 190.045 187.908C213.923 182.349 237.814 176.834 261.708 171.328C268.498 169.747 275.288 168.165 282.284 166.535C292.052 164.291 292.052 164.291 302.018 162.002C308.023 160.613 314.027 159.223 320.214 157.792C335.746 154.748 335.746 154.748 354.751 154.748C356.841 149.277 358.931 143.805 361.085 138.168Z" fill="#D1851C"/>
<path d="M291.404 381.344C298.198 383.168 304.992 384.991 311.992 386.87C335.73 393.346 335.73 393.346 361.087 392.397C361.087 396.045 361.087 399.692 361.087 403.451C371.539 405.274 381.992 407.098 392.761 408.977C392.761 412.625 392.761 416.272 392.761 420.031C376.037 421.854 359.313 423.678 342.082 425.557C344.173 434.676 346.263 443.795 348.417 453.191C333.784 455.015 319.15 456.838 304.073 458.718C301.983 455.07 299.892 451.422 297.738 447.664C306.1 447.664 314.462 447.664 323.078 447.664C321.902 444.245 320.726 440.825 319.514 437.302C316.743 425.557 316.743 425.557 323.078 414.504C319.027 413.136 314.977 411.768 310.804 410.359C297.738 403.451 297.738 403.451 292.987 391.706C292.465 388.287 291.942 384.867 291.404 381.344Z" fill="#DC8716"/>
<path d="M418.099 160.276C418.099 169.395 418.099 178.514 418.099 187.909C413.918 187.909 409.737 187.909 405.429 187.909C405.429 191.557 405.429 195.204 405.429 198.962C401.387 199.632 397.345 200.302 393.18 200.992C387.946 201.918 382.712 202.844 377.319 203.798C369.491 205.145 369.491 205.145 361.506 206.519C357.186 207.673 352.867 208.827 348.416 210.016C346.325 213.664 344.235 217.311 342.081 221.069C352.533 226.541 362.986 232.012 373.755 237.649C355.626 245.557 342.501 240.965 323.077 237.649C323.077 224.883 323.077 212.116 323.077 198.962C308.443 198.962 293.81 198.962 278.733 198.962C278.733 202.61 278.733 206.258 278.733 210.016C266.19 213.664 253.647 217.311 240.724 221.069C240.724 217.422 240.724 213.774 240.724 210.016C244.905 210.016 249.086 210.016 253.393 210.016C253.393 206.368 253.393 202.721 253.393 198.962C247.122 197.139 240.85 195.315 234.389 193.436C255.977 188.212 277.531 185.666 299.717 183.073C323.804 179.967 345.32 176.898 367.42 167.875C386.374 160.296 397.592 158.649 418.099 160.276Z" fill="#A15407"/>
<path d="M234.389 442.137C289.143 445.375 310.391 463.282 348.416 497.404C318.388 487.263 289.096 475.742 259.728 464.244C262.864 470.855 266 477.466 269.231 484.278C277.786 504.099 281.123 520.246 278.733 541.617C272.398 547.144 272.398 547.144 251.81 548.871C224.564 546.89 214.931 542.203 196.38 525.037C196.38 519.566 196.38 514.094 196.38 508.457C217.987 512.807 238.726 518.863 259.728 525.037C257.899 520.442 256.07 515.847 254.185 511.113C251.834 505.107 249.482 499.101 247.059 492.913C244.707 486.95 242.355 480.987 239.932 474.844C234.389 458.717 234.389 458.717 234.389 442.137Z" fill="#DAC8A9"/>
<path d="M190.045 193.435C206.691 196.124 216.522 199.623 230.825 207.942C246.639 217.07 246.639 217.07 264.875 213.814C271.735 211.933 271.735 211.933 278.733 210.015C278.733 206.367 278.733 202.719 278.733 198.961C300.683 196.226 300.683 196.226 323.076 193.435C328.845 210.419 329.974 225.495 329.411 243.175C318.959 244.999 308.506 246.822 297.737 248.702C297.737 243.23 297.737 237.759 297.737 232.121C270.542 225.143 254.164 228.642 228.054 237.648C242.687 237.648 257.321 237.648 272.398 237.648C257.537 252.963 246.122 257.105 223.699 260.791C218.579 261.668 213.459 262.544 208.183 263.447C204.288 264.052 200.393 264.658 196.38 265.282C200.561 256.163 204.742 247.044 209.049 237.648C202.778 235.824 196.506 234.001 190.045 232.121C190.045 228.474 190.045 224.826 190.045 221.068C196.316 219.244 202.588 217.42 209.049 215.541C202.778 213.718 196.506 211.894 190.045 210.015C190.045 204.543 190.045 199.072 190.045 193.435Z" fill="#C87711"/>
<path d="M247.059 292.917C251.24 292.917 255.421 292.917 259.729 292.917C259.729 296.565 259.729 300.212 259.729 303.97C272.272 302.147 284.815 300.323 297.738 298.444C297.738 319.262 296.247 325.59 285.068 342.657C289.249 342.657 293.43 342.657 297.738 342.657C299.828 335.362 301.919 328.067 304.073 320.55C310.344 322.374 316.616 324.198 323.077 326.077C318.896 340.668 314.715 355.258 310.408 370.291C316.679 372.115 322.951 373.938 329.412 375.817C318.96 377.641 308.507 379.465 297.738 381.344C297.738 388.639 297.738 395.935 297.738 403.451C285.736 402.048 285.736 402.048 272.399 397.924C251.549 367.093 249.484 327.864 247.059 292.917Z" fill="#EDB447"/>
<path d="M456.108 149.222C460.289 151.045 464.47 152.869 468.777 154.748C468.777 163.867 468.777 172.986 468.777 182.382C458.325 184.206 447.872 186.03 437.103 187.909C437.103 195.204 437.103 202.499 437.103 210.015C432.922 210.015 428.741 210.015 424.434 210.015C428.615 220.958 432.796 231.901 437.103 243.176C420.379 243.176 403.655 243.176 386.425 243.176C386.425 239.528 386.425 235.88 386.425 232.122C371.791 226.651 357.158 221.179 342.081 215.542C348.812 207.252 348.812 207.252 361.085 198.962C384.445 197.926 384.445 197.926 405.429 198.962C405.429 195.314 405.429 191.667 405.429 187.909C409.61 187.909 413.791 187.909 418.099 187.909C418.099 184.261 418.099 180.613 418.099 176.855C413.918 175.031 409.737 173.208 405.429 171.328C413.579 167.476 421.769 163.688 429.977 159.93C434.533 157.814 439.09 155.698 443.785 153.518C447.851 152.1 451.918 150.682 456.108 149.222Z" fill="#D27B0C"/>
<path d="M196.38 381.344C233.768 399.857 233.768 399.857 247.059 414.504C247.059 419.975 247.059 425.447 247.059 431.084C234.516 431.084 221.973 431.084 209.05 431.084C209.05 434.732 209.05 438.379 209.05 442.137C215.322 443.961 221.593 445.785 228.055 447.664C228.055 451.312 228.055 454.959 228.055 458.718C212.613 455.263 212.613 455.263 196.38 447.664C191.233 430.393 191.233 430.393 190.046 414.504C183.774 416.328 177.503 418.152 171.041 420.031C168.951 410.912 166.86 401.793 164.706 392.397C183.711 386.87 183.711 386.87 196.38 392.397C196.38 388.75 196.38 385.102 196.38 381.344Z" fill="#CE7F16"/>
<path d="M405.429 187.91C415.987 187.91 426.545 187.91 437.103 187.91C437.103 195.205 437.103 202.501 437.103 210.017C432.922 210.017 428.741 210.017 424.434 210.017C428.615 220.96 432.796 231.903 437.103 243.177C420.379 243.177 403.655 243.177 386.425 243.177C386.425 239.53 386.425 235.882 386.425 232.124C371.791 226.652 357.158 221.181 342.081 215.544C348.812 207.254 348.812 207.254 361.085 198.964C384.445 197.927 384.445 197.927 405.429 198.964C405.429 195.316 405.429 191.668 405.429 187.91Z" fill="#CF7609"/>
<path d="M209.051 431.083C232.046 431.083 255.041 431.083 278.734 431.083C278.734 434.731 278.734 438.378 278.734 442.136C298.846 452.681 311.078 454.079 334.163 451.117C341.758 450.198 341.758 450.198 349.506 449.261C353.327 448.733 357.149 448.206 361.086 447.663C358.996 453.135 356.905 458.606 354.752 464.243C348.48 464.243 342.209 464.243 335.747 464.243C341.335 477.251 341.335 477.251 361.086 480.823C361.086 477.176 361.086 473.528 361.086 469.77C365.267 469.77 369.448 469.77 373.756 469.77C375.847 480.713 377.937 491.656 380.091 502.93C352.765 497.429 335.516 487.914 314.367 472.533C287.989 453.74 267.804 446.907 234.39 442.136C232.299 449.432 230.209 456.727 228.055 464.243C225.965 458.772 223.874 453.3 221.72 447.663C217.539 445.839 213.358 444.015 209.051 442.136C209.051 438.489 209.051 434.841 209.051 431.083Z" fill="#9C5B1C"/>
<path d="M228.054 381.343C242.703 379.616 242.703 379.616 259.728 381.343C262.603 385.789 265.477 390.234 268.438 394.815C271.836 399.488 275.233 404.162 278.733 408.977C301.533 413.928 301.533 413.928 323.076 414.503C323.076 425.446 323.076 436.389 323.076 447.664C308.443 445.84 293.809 444.016 278.733 442.137C278.733 438.489 278.733 434.842 278.733 431.083C268.28 431.083 257.828 431.083 247.058 431.083C228.054 399.996 228.054 399.996 228.054 381.343Z" fill="#E19B2B"/>
<path d="M285.068 265.282C282.978 270.753 280.887 276.225 278.734 281.862C282.915 283.686 287.096 285.51 291.403 287.389C285.132 295.596 285.132 295.596 278.734 303.969C272.462 303.969 266.191 303.969 259.729 303.969C259.729 300.321 259.729 296.674 259.729 292.915C236.747 303.226 236.747 303.226 221.72 320.549C220.287 329.964 219.13 339.413 218.157 348.873C217.626 353.903 217.095 358.933 216.548 364.115C216.164 367.976 215.781 371.838 215.385 375.816C211.204 373.992 207.023 372.168 202.716 370.289C199.123 317.01 199.123 317.01 221.72 292.915C227.992 289.268 234.263 285.62 240.725 281.862C234.453 278.214 228.182 274.567 221.72 270.809C246.111 256.622 257.105 260.679 285.068 265.282Z" fill="#D18014"/>
<path d="M291.403 270.81C303.946 270.81 316.489 270.81 329.412 270.81C329.412 274.457 329.412 278.105 329.412 281.863C334.377 279.925 339.342 277.987 344.457 275.991C349.945 274.281 355.432 272.571 361.086 270.81C365.267 272.633 369.448 274.457 373.756 276.336C373.756 279.984 373.756 283.632 373.756 287.39C380.027 287.39 386.299 287.39 392.76 287.39C392.76 291.037 392.76 294.685 392.76 298.443C388.938 299.177 385.117 299.911 381.179 300.667C376.116 301.643 371.053 302.619 365.837 303.624C358.341 305.067 358.341 305.067 350.693 306.539C337.211 309.207 323.803 312.048 310.407 315.023C310.407 311.376 310.407 307.728 310.407 303.97C299.955 302.146 289.502 300.322 278.733 298.443C285.068 287.39 285.068 287.39 304.072 281.863C299.891 278.215 295.71 274.568 291.403 270.81Z" fill="#C8720F"/>
<path d="M291.404 381.344C298.198 383.168 304.992 384.991 311.992 386.87C335.73 393.347 335.73 393.347 361.087 392.397C361.087 396.045 361.087 399.692 361.087 403.451C371.539 405.274 381.992 407.098 392.761 408.977C392.761 412.625 392.761 416.272 392.761 420.031C380.218 423.678 367.675 427.326 354.752 431.084C365.204 436.555 375.657 442.027 386.426 447.664C382.245 454.959 378.064 462.255 373.756 469.771C369.575 469.771 365.394 469.771 361.087 469.771C361.087 473.419 361.087 477.066 361.087 480.824C352.725 479.001 344.363 477.177 335.747 475.298C335.747 471.65 335.747 468.002 335.747 464.244C342.019 462.42 348.29 460.597 354.752 458.718C356.842 455.07 358.933 451.422 361.087 447.664C357.559 449.488 354.031 451.312 350.397 453.191C333.829 459.441 321.933 459.583 304.073 458.718C301.983 455.07 299.892 451.422 297.738 447.664C306.1 447.664 314.462 447.664 323.078 447.664C321.902 444.245 320.726 440.825 319.514 437.302C316.743 425.557 316.743 425.557 323.078 414.504C319.027 413.136 314.977 411.768 310.804 410.359C297.738 403.451 297.738 403.451 292.987 391.706C292.465 388.287 291.942 384.867 291.404 381.344Z" fill="#D58215"/>
<path d="M0 331.603C3.2664 333.312 6.53279 335.022 9.89817 336.784C29.5625 344.262 48.4687 346.047 69.6831 348.183C68.7828 356.855 68.7828 356.855 67.8643 365.703C70.1142 391.887 77.3643 398.127 98.7838 416.036C101.737 418.557 104.689 421.079 107.732 423.676C117.121 431.653 126.653 439.484 136.199 447.318C142.618 452.724 149.027 458.139 155.426 463.563C171.094 476.777 186.856 489.892 202.715 502.93C198.534 506.578 194.353 510.225 190.045 513.984C156.612 490.242 126.801 465.421 98.9817 436.61C84.2114 421.571 69.9394 409.965 51.0746 398.959C41.4714 392.975 41.4714 392.975 31.6742 386.87C31.6742 381.398 31.6742 375.927 31.6742 370.289C37.9456 370.289 44.2171 370.289 50.6786 370.289C47.0203 368.423 43.3619 366.556 39.5927 364.633C34.8891 362.168 30.1855 359.703 25.3393 357.164C20.6357 354.727 15.9321 352.291 11.086 349.78C7.42759 347.429 3.76922 345.078 0 342.656C0 339.008 0 335.361 0 331.603Z" fill="#E5DABA"/>
<path d="M0 320.549C18.8144 322.373 37.6289 324.196 57.0135 326.076C57.0135 329.723 57.0135 333.371 57.0135 337.129C75.8819 336.589 75.8819 336.589 94.7503 336.049C107.692 337.129 107.692 337.129 126.697 348.182C128.787 339.063 130.878 329.944 133.031 320.549C137.212 320.549 141.393 320.549 145.701 320.549C155.404 343.122 149.697 363.627 145.701 386.869C135.249 379.574 124.796 372.279 114.027 364.762C116.117 372.058 118.208 379.353 120.362 386.869C116.181 386.869 112 386.869 107.692 386.869C101.421 375.926 95.1491 364.984 88.6876 353.709C86.5971 362.828 84.5066 371.947 82.3528 381.343C88.6243 381.343 94.8958 381.343 101.357 381.343C103.448 388.638 105.538 395.933 107.692 403.449C95.1491 399.802 82.6062 396.154 69.6831 392.396C64.6182 374.23 62.7364 366.364 69.6831 348.182C65.2408 349.664 60.7985 351.146 56.2216 352.673C35.2506 353.866 32.5404 351.804 17.0249 340.583C11.4067 335.796 5.78845 331.008 0 326.076C0 324.252 0 322.428 0 320.549Z" fill="#B36B19"/>
<path d="M253.394 298.441C254.162 303.77 254.93 309.099 255.721 314.59C256.782 321.572 257.844 328.553 258.937 335.747C259.966 342.671 260.995 349.596 262.055 356.731C265.488 373.07 268.192 384.274 278.734 397.922C289.146 401.91 299.705 405.624 310.408 408.975C312.498 412.623 314.589 416.271 316.743 420.029C299.322 419.338 299.322 419.338 278.734 414.502C263.996 398.787 254.846 384.902 247.06 365.798C242.098 352.594 242.098 352.594 227.263 349.218C223.344 348.876 219.424 348.534 215.385 348.182C221.72 298.441 221.72 298.441 253.394 298.441Z" fill="#F4CE72"/>
<path d="M304.073 303.971C322.062 303.971 337.251 306.196 354.751 309.497C348.48 317.705 348.48 317.705 342.082 326.078C341.925 341.297 341.925 341.297 344.457 357.511C345.16 363.003 345.862 368.496 346.585 374.155C347.19 378.352 347.794 382.548 348.417 386.871C331.524 386.871 314.631 386.871 297.738 386.871C299.829 381.4 301.919 375.928 304.073 370.291C306.248 362.936 308.356 355.566 310.408 348.184C312.519 340.815 314.631 333.446 316.743 326.078C312.562 324.254 308.381 322.43 304.073 320.551C301.982 327.846 299.892 335.141 297.738 342.658C293.557 342.658 289.376 342.658 285.068 342.658C288.95 326.289 293.01 318.447 304.073 303.971Z" fill="#DC9220"/>
<path d="M405.428 287.389C416.91 288.425 416.91 288.425 430.768 292.915C441.854 307.078 441.854 307.078 449.772 320.549C449.772 316.901 449.772 313.254 449.772 309.495C458.134 311.319 466.496 313.143 475.112 315.022C470.931 325.965 466.75 336.908 462.442 348.182C466.623 348.182 470.804 348.182 475.112 348.182C477.202 351.83 479.293 355.478 481.446 359.236C483.537 346.469 485.627 333.702 487.781 320.549C489.872 320.549 491.962 320.549 494.116 320.549C494.116 336.963 494.116 353.377 494.116 370.289C479.071 376.161 479.071 376.161 462.442 381.343C458.261 379.519 454.08 377.695 449.772 375.816C447.601 366.615 445.505 357.401 443.437 348.182C433.419 325.536 423.379 306.032 405.428 287.389Z" fill="#EFBD5A"/>
<path d="M114.027 315.023C137.023 315.023 160.018 315.023 183.71 315.023C187.891 336.909 192.072 358.795 196.38 381.344C183.837 374.049 171.294 366.753 158.371 359.237C160.461 353.766 162.552 348.294 164.706 342.657C154.253 344.481 143.801 346.305 133.032 348.184C132.248 343.738 131.464 339.293 130.656 334.712C128.696 327.702 128.696 327.702 126.697 320.55C122.516 318.726 118.335 316.903 114.027 315.023Z" fill="#C77B18"/>
<path d="M82.3539 348.183C98.1934 360.199 104.122 368.8 107.693 386.87C111.874 386.87 116.055 386.87 120.363 386.87C110.956 370.455 110.956 370.455 101.358 353.709C116.993 360.075 127.001 365.027 139.367 375.816C141.458 370.345 143.548 364.873 145.702 359.236C151.974 366.531 158.245 373.827 164.707 381.343C158.435 384.079 158.435 384.079 152.037 386.87C160.079 413.533 160.079 413.533 183.711 431.083C181.621 436.555 179.53 442.026 177.376 447.663C158.768 443.173 158.768 443.173 139.367 436.61C137.277 431.138 135.186 425.667 133.033 420.03C128.852 420.03 124.671 420.03 120.363 420.03C120.363 416.382 120.363 412.734 120.363 408.976C116.182 408.976 112.001 408.976 107.693 408.976C105.603 399.857 103.512 390.738 101.358 381.343C95.0869 383.167 88.8154 384.99 82.3539 386.87C75.7372 369.552 76.4357 364.82 82.3539 348.183Z" fill="#D28616"/>
<path d="M196.38 381.344C233.767 399.857 233.767 399.857 247.058 414.504C247.058 419.975 247.058 425.447 247.058 431.084C204.298 426.248 204.298 426.248 190.045 420.031C190.045 423.678 190.045 427.326 190.045 431.084C194.226 432.908 198.407 434.732 202.715 436.611C200.624 440.258 198.534 443.906 196.38 447.664C202.651 449.488 208.923 451.312 215.384 453.191C215.384 456.838 215.384 460.486 215.384 464.244C200.751 460.597 186.117 456.949 171.04 453.191C168.95 456.838 166.859 460.486 164.706 464.244C160.525 456.949 156.344 449.654 152.036 442.137C160.398 442.137 168.76 442.137 177.375 442.137C179.466 438.49 181.556 434.842 183.71 431.084C179.529 431.084 175.348 431.084 171.04 431.084C168.95 418.317 166.859 405.551 164.706 392.397C183.71 386.87 183.71 386.87 196.38 392.397C196.38 388.75 196.38 385.102 196.38 381.344Z" fill="#C57410"/>
<path d="M335.746 215.541C363.968 221.012 363.968 221.012 392.76 226.594C390.669 232.066 388.579 237.537 386.425 243.175C390.606 243.175 394.787 243.175 399.095 243.175C399.095 246.822 399.095 250.47 399.095 254.228C405.366 256.052 411.638 257.876 418.099 259.755C399.549 265.149 386.703 265.736 367.421 265.281C365.33 268.929 363.24 272.577 361.086 276.335C344.853 279.789 344.853 279.789 329.412 281.861C329.412 278.214 329.412 274.566 329.412 270.808C321.05 272.632 312.688 274.456 304.072 276.335C308.253 279.982 312.434 283.63 316.742 287.388C297.928 284.652 297.928 284.652 278.733 281.861C276.643 274.566 274.552 267.271 272.398 259.755C325.792 247.122 325.792 247.122 354.751 248.701C356.841 245.054 358.932 241.406 361.086 237.648C352.724 230.353 344.362 223.057 335.746 215.541Z" fill="#DD8A17"/>
<path d="M266.065 276.337C262.406 277.819 258.748 279.301 254.979 280.828C231.49 291.643 217.647 298.054 209.051 320.551C208.624 329.179 208.512 337.822 208.655 346.457C208.712 350.924 208.77 355.391 208.828 359.993C208.902 363.392 208.975 366.79 209.051 370.291C213.232 362.996 217.413 355.701 221.721 348.184C227.992 350.008 234.264 351.832 240.725 353.711C242.816 348.24 244.906 342.768 247.06 337.131C253.246 370.593 253.246 370.593 253.395 381.345C249.214 384.992 245.033 388.64 240.725 392.398C240.725 388.75 240.725 385.103 240.725 381.345C236.544 381.345 232.363 381.345 228.056 381.345C230.146 386.816 232.237 392.287 234.39 397.925C215.027 392.902 204.471 388.666 191.234 375.127C181.554 354.681 178.401 336.589 183.712 315.024C205.092 282.969 224.93 275.557 266.065 276.337Z" fill="#ECB549"/>
<path d="M443.438 381.343C443.438 384.991 443.438 388.639 443.438 392.397C439.257 392.397 435.076 392.397 430.769 392.397C430.769 397.868 430.769 403.34 430.769 408.977C432.859 405.329 434.95 401.682 437.104 397.923C441.285 397.923 445.466 397.923 449.773 397.923C451.864 405.219 453.954 412.514 456.108 420.03C449.837 423.678 443.565 427.325 437.104 431.084C428.88 437.434 428.88 437.434 424.434 453.19C418.162 445.895 411.891 438.6 405.429 431.084C397.068 436.555 388.706 442.026 380.09 447.664C369.638 442.192 359.185 436.721 348.416 431.084C365.187 423.011 373.087 420.03 392.76 420.03C392.76 416.383 392.76 412.735 392.76 408.977C382.307 407.153 371.855 405.329 361.086 403.45C381.534 391.557 388.224 391.287 411.764 392.397C411.764 388.749 411.764 385.101 411.764 381.343C424.434 375.817 424.434 375.817 443.438 381.343Z" fill="#BE6D11"/>
<path d="M424.435 259.756C455.317 269.428 455.317 269.428 462.444 281.863C468.715 283.686 474.987 285.51 481.448 287.389C481.448 291.037 481.448 294.685 481.448 298.443C485.629 298.443 489.81 298.443 494.118 298.443C493.399 308.464 492.59 318.481 491.742 328.494C491.301 334.072 490.86 339.651 490.406 345.398C489.108 352.248 489.108 352.248 487.783 359.236C483.602 361.06 479.421 362.884 475.113 364.763C475.113 359.292 475.113 353.82 475.113 348.183C470.932 348.183 466.751 348.183 462.444 348.183C466.625 337.24 470.806 326.297 475.113 315.023C466.751 313.199 458.389 311.375 449.774 309.496C451.865 318.615 453.955 327.734 456.109 337.13C443.439 326.076 443.439 326.076 438.292 309.496C432.636 291.757 432.636 291.757 414.141 285.317C409.176 284.177 404.211 283.037 399.095 281.863C407.457 278.215 415.819 274.567 424.435 270.809C424.435 267.162 424.435 263.514 424.435 259.756Z" fill="#DB9224"/>
<path d="M361.085 138.168C365.266 138.168 369.447 138.168 373.755 138.168C372.171 154.057 372.171 154.057 367.42 171.328C346.941 183.609 324.728 185.57 300.509 188.599C293.314 189.525 286.12 190.451 278.708 191.406C259.728 193.435 259.728 193.435 240.724 193.435C244.905 195.259 249.086 197.083 253.393 198.962C253.393 202.609 253.393 206.257 253.393 210.015C226.177 207.317 211.193 202.869 190.045 187.908C213.923 182.349 237.814 176.834 261.708 171.328C268.498 169.747 275.288 168.165 282.284 166.535C292.052 164.291 292.052 164.291 302.018 162.002C308.023 160.613 314.027 159.223 320.214 157.792C335.746 154.748 335.746 154.748 354.751 154.748C356.841 149.277 358.931 143.805 361.085 138.168Z" fill="#D1851C"/>
<path d="M430.769 60.7949C463.343 75.3882 473.896 92.1319 490.158 119.862C502.396 135.056 512.029 138.483 532.126 143.695C532.649 140.048 533.171 136.4 533.71 132.642C540.029 110.588 551.584 91.8246 563.8 71.8483C570.35 89.5233 570.835 92.6229 561.425 110.535C558.027 116.007 554.63 121.478 551.13 127.115C542.974 147.169 543.45 166.782 544.796 187.909C548.977 191.557 553.158 195.204 557.465 198.962C558.703 210.923 558.703 210.923 558.257 224.523C558.143 229.04 558.028 233.557 557.911 238.211C557.764 241.673 557.617 245.135 557.465 248.703C555.375 248.703 553.284 248.703 551.13 248.703C550.363 245.24 549.595 241.778 548.804 238.211C547.743 233.694 546.681 229.177 545.587 224.523C544.559 220.035 543.53 215.547 542.47 210.923C539.306 197.93 539.306 197.93 525.791 187.909C524.999 167.875 524.999 167.875 525.791 149.222C521.104 149.885 516.417 150.547 511.587 151.23C494.117 149.222 494.117 149.222 480.606 135.297C476.441 129.292 472.277 123.286 467.986 117.098C449.098 89.6723 449.098 89.6723 424.434 66.3216C426.524 64.4978 428.615 62.674 430.769 60.7949Z" fill="#E7E8DA"/>
<path d="M209.051 431.083C232.046 431.083 255.041 431.083 278.734 431.083C278.734 434.731 278.734 438.378 278.734 442.136C298.846 452.681 311.078 454.079 334.163 451.117C341.758 450.198 341.758 450.198 349.506 449.261C353.327 448.733 357.149 448.206 361.086 447.663C358.996 453.135 356.905 458.606 354.752 464.243C348.48 464.243 342.209 464.243 335.747 464.243C341.335 477.251 341.335 477.251 361.086 480.823C361.086 477.176 361.086 473.528 361.086 469.77C365.267 469.77 369.448 469.77 373.756 469.77C375.847 480.713 377.937 491.656 380.091 502.93C352.765 497.429 335.516 487.914 314.367 472.533C287.989 453.74 267.804 446.907 234.39 442.136C234.39 453.079 234.39 464.022 234.39 475.297C232.299 475.297 230.209 475.297 228.055 475.297C227.271 470.851 226.487 466.406 225.679 461.825C223.72 454.815 223.72 454.815 221.72 447.663C217.539 445.839 213.358 444.015 209.051 442.136C209.051 438.489 209.051 434.841 209.051 431.083Z" fill="#9E5C1C"/>
<path d="M190.046 420.031C200.498 421.855 210.951 423.679 221.72 425.558C215.448 428.294 215.448 428.294 209.05 431.085C209.05 434.732 209.05 438.38 209.05 442.138C215.322 443.962 221.593 445.786 228.055 447.665C243.999 461.575 247.754 472.952 253.394 491.878C251.018 505.004 251.018 505.004 247.059 513.985C247.059 508.514 247.059 503.042 247.059 497.405C237.064 496.721 237.064 496.721 226.867 496.023C200.811 491.552 189.372 486.248 171.041 469.772C171.041 464.3 171.041 458.829 171.041 453.191C201.132 458.027 201.132 458.027 215.385 464.245C212.38 462.079 209.375 459.913 206.279 457.682C194.152 445.409 192.499 435.872 190.046 420.031Z" fill="#D6881D"/>
<path d="M228.054 381.343C242.703 379.616 242.703 379.616 259.728 381.343C262.603 385.789 265.477 390.234 268.438 394.815C271.836 399.488 275.233 404.162 278.733 408.977C301.533 413.928 301.533 413.928 323.076 414.503C323.076 425.446 323.076 436.389 323.076 447.664C308.443 445.84 293.809 444.016 278.733 442.137C278.733 438.489 278.733 434.842 278.733 431.083C268.28 431.083 257.828 431.083 247.058 431.083C228.054 399.996 228.054 399.996 228.054 381.343Z" fill="#E19B2B"/>
<path d="M285.068 265.282C282.978 270.753 280.887 276.225 278.734 281.862C282.915 283.686 287.096 285.51 291.403 287.389C285.132 295.596 285.132 295.596 278.734 303.969C272.462 303.969 266.191 303.969 259.729 303.969C259.729 300.321 259.729 296.674 259.729 292.915C236.747 303.226 236.747 303.226 221.72 320.549C220.287 329.964 219.13 339.413 218.157 348.873C217.626 353.903 217.095 358.933 216.548 364.115C216.164 367.976 215.781 371.838 215.385 375.816C211.204 373.992 207.023 372.168 202.716 370.289C199.123 317.01 199.123 317.01 221.72 292.915C227.992 289.268 234.263 285.62 240.725 281.862C234.453 278.214 228.182 274.567 221.72 270.809C246.111 256.622 257.105 260.679 285.068 265.282Z" fill="#CD7B11"/>
<path d="M494.117 265.283C518.219 268.204 533.604 272.363 551.13 287.39C552.219 301.099 552.219 301.099 549.547 316.06C548.73 321.04 547.914 326.019 547.072 331.15C546.321 334.947 545.57 338.745 544.796 342.657C540.615 342.657 536.434 342.657 532.126 342.657C532.126 333.538 532.126 324.419 532.126 315.024C527.945 315.024 523.764 315.024 519.456 315.024C519.456 324.143 519.456 333.262 519.456 342.657C515.275 342.657 511.094 342.657 506.787 342.657C502.606 335.362 498.425 328.067 494.117 320.55C498.298 320.55 502.479 320.55 506.787 320.55C505.741 316.219 504.696 311.887 503.619 307.424C500.452 292.917 500.452 292.917 500.452 281.863C498.361 276.392 496.271 270.92 494.117 265.283Z" fill="#D08D2E"/>
<path d="M291.403 270.81C303.946 270.81 316.489 270.81 329.412 270.81C329.412 274.457 329.412 278.105 329.412 281.863C334.377 279.925 339.342 277.987 344.457 275.991C349.945 274.281 355.432 272.571 361.086 270.81C365.267 272.633 369.448 274.457 373.756 276.336C373.756 279.984 373.756 283.632 373.756 287.39C380.027 287.39 386.299 287.39 392.76 287.39C392.76 291.037 392.76 294.685 392.76 298.443C388.938 299.177 385.117 299.911 381.179 300.667C376.116 301.643 371.053 302.619 365.837 303.624C358.341 305.067 358.341 305.067 350.693 306.539C337.211 309.207 323.803 312.048 310.407 315.023C310.407 311.376 310.407 307.728 310.407 303.97C299.955 302.146 289.502 300.322 278.733 298.443C285.068 287.39 285.068 287.39 304.072 281.863C299.891 278.215 295.71 274.568 291.403 270.81Z" fill="#C8720F"/>
<path d="M253.394 298.441C254.162 303.77 254.93 309.099 255.721 314.59C256.782 321.572 257.844 328.553 258.937 335.747C259.966 342.671 260.995 349.596 262.055 356.731C265.488 373.07 268.192 384.274 278.734 397.922C289.146 401.91 299.705 405.624 310.408 408.975C312.498 412.623 314.589 416.271 316.743 420.029C299.322 419.338 299.322 419.338 278.734 414.502C263.996 398.787 254.846 384.902 247.06 365.798C242.098 352.594 242.098 352.594 227.263 349.218C223.344 348.876 219.424 348.534 215.385 348.182C221.72 298.441 221.72 298.441 253.394 298.441Z" fill="#F4CE72"/>
<path d="M304.073 303.971C322.062 303.971 337.251 306.196 354.751 309.497C348.48 317.705 348.48 317.705 342.082 326.078C341.925 341.297 341.925 341.297 344.457 357.511C345.16 363.003 345.862 368.496 346.585 374.155C347.19 378.352 347.794 382.548 348.417 386.871C331.524 386.871 314.631 386.871 297.738 386.871C299.829 381.4 301.919 375.928 304.073 370.291C306.248 362.936 308.356 355.566 310.408 348.184C312.519 340.815 314.631 333.446 316.743 326.078C312.562 324.254 308.381 322.43 304.073 320.551C301.982 327.846 299.892 335.141 297.738 342.658C293.557 342.658 289.376 342.658 285.068 342.658C288.95 326.289 293.01 318.447 304.073 303.971Z" fill="#DC9220"/>
<path d="M405.428 287.389C416.91 288.425 416.91 288.425 430.768 292.915C441.854 307.078 441.854 307.078 449.772 320.549C449.772 316.901 449.772 313.254 449.772 309.495C458.134 311.319 466.496 313.143 475.112 315.022C470.931 325.965 466.75 336.908 462.442 348.182C466.623 348.182 470.804 348.182 475.112 348.182C477.202 351.83 479.293 355.478 481.446 359.236C483.537 346.469 485.627 333.702 487.781 320.549C489.872 320.549 491.962 320.549 494.116 320.549C494.116 336.963 494.116 353.377 494.116 370.289C479.071 376.161 479.071 376.161 462.442 381.343C458.261 379.519 454.08 377.695 449.772 375.816C447.601 366.615 445.505 357.401 443.437 348.182C433.419 325.536 423.379 306.032 405.428 287.389Z" fill="#EFBD5A"/>
<path d="M63.3496 386.87C96.148 410.746 126.502 435.914 156.392 462.517C164.584 469.805 172.791 477.081 181.014 484.343C184.58 487.518 188.146 490.693 191.82 493.965C213.659 511.936 229.636 521.391 259.729 525.038C257.9 521.369 256.071 517.7 254.186 513.919C251.835 509.039 249.483 504.159 247.06 499.131C244.708 494.322 242.356 489.513 239.933 484.559C234.272 469.454 233.348 457.905 234.39 442.137C271.848 444.353 288.122 447.774 316.743 469.771C337.569 481.256 358.803 492.112 380.091 502.931C378.523 496.433 376.955 489.936 375.34 483.242C371.143 455.851 381.527 442.324 399.096 420.03C417.164 435.235 432.946 450.997 448.191 468.389C454.021 475.015 454.021 475.015 459.969 481.774C464.33 486.775 464.33 486.775 468.779 491.877C449.774 491.877 449.774 491.877 439.604 483.415C436.297 479.824 432.989 476.233 429.582 472.534C426.226 468.943 422.87 465.353 419.412 461.653C416.888 458.861 414.365 456.068 411.765 453.191C405.494 455.014 399.222 456.838 392.761 458.717C392.761 475.132 392.761 491.546 392.761 508.458C367.421 513.984 367.421 513.984 352.203 508.047C346.903 505.105 341.604 502.163 336.143 499.131C330.582 496.068 325.021 493.004 319.292 489.848C304.073 480.824 304.073 480.824 285.861 468.044C272.119 458.523 263.841 456.284 247.06 453.191C248.962 456.795 250.865 460.4 252.825 464.114C276.752 512.09 276.752 512.09 266.064 541.618C222.682 543.338 222.682 543.338 202.716 530.564C194.077 519.624 185.649 508.557 177.377 497.404C159.543 480.549 140.292 465.676 120.363 450.773C98.7414 434.41 80.4464 417.967 63.3496 397.924C63.3496 394.276 63.3496 390.628 63.3496 386.87Z" fill="#EBE3CB"/>
<path d="M82.3539 348.183C98.1934 360.199 104.122 368.8 107.693 386.87C111.874 386.87 116.055 386.87 120.363 386.87C110.956 370.455 110.956 370.455 101.358 353.709C116.993 360.075 127.001 365.027 139.367 375.816C141.458 370.345 143.548 364.873 145.702 359.236C151.974 366.531 158.245 373.827 164.707 381.343C158.435 384.079 158.435 384.079 152.037 386.87C156.218 397.812 160.399 408.755 164.707 420.03C173.069 418.206 181.431 416.382 190.046 414.503C190.046 419.974 190.046 425.446 190.046 431.083C194.227 432.907 198.408 434.731 202.716 436.61C200.625 440.257 198.535 443.905 196.381 447.663C201.215 449.031 206.049 450.399 211.03 451.808C230.673 459.779 236.639 464.373 247.059 480.823C252.212 495.488 255.999 510.016 259.729 525.037C251.367 525.037 243.005 525.037 234.39 525.037C236.48 515.918 238.571 506.799 240.725 497.404C234.061 496.036 227.398 494.668 220.532 493.258C180.812 483.218 157.335 458.949 133.033 431.083C133.033 427.435 133.033 423.788 133.033 420.03C128.852 420.03 124.671 420.03 120.363 420.03C120.363 416.382 120.363 412.734 120.363 408.976C116.182 408.976 112.001 408.976 107.693 408.976C105.603 399.857 103.512 390.738 101.358 381.343C95.0869 383.167 88.8154 384.99 82.3539 386.87C75.7372 369.552 76.4357 364.82 82.3539 348.183Z" fill="#CC7E14"/>
<path d="M373.755 315.023C394.66 315.023 415.565 315.023 437.103 315.023C437.887 320.381 438.671 325.738 439.479 331.258C440.785 336.844 442.092 342.429 443.438 348.184C447.619 350.007 451.8 351.831 456.107 353.71C454.017 361.006 451.926 368.301 449.773 375.817C453.954 377.641 458.135 379.465 462.442 381.344C462.442 442.138 462.442 442.138 456.107 458.718C456.107 455.07 456.107 451.422 456.107 447.664C447.745 447.664 439.383 447.664 430.768 447.664C426.587 440.369 422.406 433.074 418.098 425.557C437.103 420.031 437.103 420.031 449.773 420.031C449.773 412.736 449.773 405.44 449.773 397.924C445.592 397.924 441.411 397.924 437.103 397.924C435.012 403.395 432.922 408.867 430.768 414.504C428.678 410.856 426.587 407.209 424.433 403.451C430.768 392.397 430.768 392.397 437.103 386.871C428.741 385.047 420.379 383.223 411.764 381.344C411.764 384.991 411.764 388.639 411.764 392.397C401.311 392.397 390.859 392.397 380.089 392.397C377.999 388.75 375.908 385.102 373.755 381.344C379.765 380.318 385.775 379.292 391.967 378.235C414.194 371.761 414.194 371.761 420.474 350.256C421.781 344.101 423.087 337.945 424.433 331.604C409.8 331.604 395.166 331.604 380.089 331.604C377.999 326.132 375.908 320.661 373.755 315.023Z" fill="#DE8B16"/>
<path d="M411.765 66.3203C441.392 74.4828 441.392 74.4828 451.753 89.118C453.191 92.5376 454.628 95.9572 456.109 99.4805C445.656 110.423 435.204 121.366 424.434 132.641C424.434 123.43 424.434 114.218 424.434 105.007C420.776 110.251 417.118 115.494 413.349 120.896C400.184 136.848 394.314 142.815 373.756 149.221C373.756 145.573 373.756 141.926 373.756 138.167C369.575 136.344 365.394 134.52 361.086 132.641C368.335 122.618 375.596 112.602 382.862 102.589C388.925 94.2218 388.925 94.2218 395.111 85.6854C405.43 71.847 405.43 71.847 411.765 66.3203Z" fill="#DFAE55"/>
<path d="M424.434 93.9561C428.615 97.6037 432.796 101.251 437.104 105.009C435.013 110.481 432.923 115.952 430.769 121.59C439.131 114.294 447.493 106.999 456.108 99.4828C449.199 120.349 444.019 135.243 424.434 149.223C435.916 140.588 435.916 140.588 449.773 132.643C456.045 134.467 462.316 136.291 468.778 138.17C466.687 143.641 464.597 149.113 462.443 154.75C431.364 164.71 400.425 169.41 367.421 171.33C361.149 167.682 354.878 164.035 348.416 160.276C356.778 160.276 365.14 160.276 373.755 160.276C373.755 156.629 373.755 152.981 373.755 149.223C378.59 146.031 383.424 142.84 388.405 139.551C407.311 125.742 414.753 113.515 424.434 93.9561Z" fill="#BE6B0F"/>
<path d="M82.3533 392.396C95.0229 397.922 107.693 403.449 120.362 408.976C120.362 412.623 120.362 416.271 120.362 420.029C124.543 420.029 128.724 420.029 133.032 420.029C143.079 430.327 143.079 430.327 154.412 443.863C179.345 473.617 200.017 486.91 240.724 497.403C238.634 506.522 236.543 515.641 234.389 525.036C196.105 501.503 162.763 475.301 129.864 446.281C125.259 442.306 120.653 438.33 115.908 434.234C111.564 430.43 107.219 426.626 102.744 422.706C98.8197 419.27 94.896 415.835 90.8533 412.295C82.3533 403.449 82.3533 403.449 82.3533 392.396Z" fill="#7E4A1C"/>
<path d="M373.755 315.023C394.66 315.023 415.565 315.023 437.103 315.023C437.887 320.381 438.671 325.738 439.479 331.258C440.785 336.844 442.092 342.429 443.438 348.184C447.619 350.007 451.8 351.831 456.107 353.71C454.017 361.006 451.926 368.301 449.773 375.817C453.954 377.641 458.135 379.465 462.442 381.344C462.442 442.138 462.442 442.138 456.107 458.718C456.107 455.07 456.107 451.422 456.107 447.664C447.745 447.664 439.383 447.664 430.768 447.664C426.587 440.369 422.406 433.074 418.098 425.557C437.103 420.031 437.103 420.031 449.773 420.031C449.773 412.736 449.773 405.44 449.773 397.924C445.592 397.924 441.411 397.924 437.103 397.924C435.012 403.395 432.922 408.867 430.768 414.504C428.678 410.856 426.587 407.209 424.433 403.451C430.768 392.397 430.768 392.397 437.103 386.871C428.741 385.047 420.379 383.223 411.764 381.344C411.764 384.991 411.764 388.639 411.764 392.397C401.311 392.397 390.859 392.397 380.089 392.397C377.999 388.75 375.908 385.102 373.755 381.344C379.765 380.318 385.775 379.292 391.967 378.235C414.194 371.761 414.194 371.761 420.474 350.256C421.781 344.101 423.087 337.945 424.433 331.604C409.8 331.604 395.166 331.604 380.089 331.604C377.999 326.132 375.908 320.661 373.755 315.023Z" fill="#DE8B16"/>
<path d="M532.126 353.709C534.217 353.709 536.307 353.709 538.461 353.709C539.694 364.528 540.871 375.352 542.025 386.178C542.686 392.205 543.347 398.233 544.029 404.442C544.796 420.029 544.796 420.029 538.461 431.083C536.131 445.821 534.022 460.515 532.126 475.296C526.648 518.016 526.648 518.016 519.457 530.563C498.197 527.251 485.388 520.36 468.778 508.457C470.869 504.809 472.959 501.161 475.113 497.403C483.475 502.875 491.837 508.346 500.452 513.983C519.157 461.531 527.52 408.389 532.126 353.709Z" fill="#E4DEC9"/>
<path d="M500.452 326.076C502.543 331.548 504.633 337.019 506.787 342.656C510.968 342.656 515.149 342.656 519.457 342.656C519.457 351.775 519.457 360.894 519.457 370.29C523.638 370.29 527.819 370.29 532.126 370.29C533.266 399.138 531.942 420.431 519.457 447.664C504.823 449.487 490.19 451.311 475.113 453.19C479.163 449.885 483.213 446.579 487.387 443.173C501.739 431.591 501.739 431.591 506.787 414.503C497.576 412.452 497.576 412.452 488.178 410.358C481.776 408.079 475.374 405.799 468.778 403.45C463.235 391.706 463.235 391.706 462.443 381.343C468.519 379.804 468.519 379.804 474.717 378.234C490.422 370.653 490.422 370.653 492.138 350.601C493.118 341.197 493.118 341.197 494.117 331.603C496.208 329.779 498.298 327.955 500.452 326.076Z" fill="#D7891D"/>
<path d="M411.765 66.3203C441.392 74.4828 441.392 74.4828 451.753 89.118C453.191 92.5376 454.628 95.9572 456.109 99.4805C445.656 110.423 435.204 121.366 424.434 132.641C424.434 123.43 424.434 114.218 424.434 105.007C420.776 110.251 417.118 115.494 413.349 120.896C400.184 136.848 394.314 142.815 373.756 149.221C373.756 145.573 373.756 141.926 373.756 138.167C369.575 136.344 365.394 134.52 361.086 132.641C368.335 122.618 375.596 112.602 382.862 102.589C388.925 94.2218 388.925 94.2218 395.111 85.6854C405.43 71.847 405.43 71.847 411.765 66.3203Z" fill="#DFAE55"/>
<path d="M82.3533 392.396C95.0229 397.922 107.693 403.449 120.362 408.976C120.362 412.623 120.362 416.271 120.362 420.029C124.543 420.029 128.724 420.029 133.032 420.029C140.243 427.617 147.042 435.504 153.62 443.517C176.715 470.103 195.599 487.373 233.597 496.021C238.04 496.477 242.482 496.933 247.059 497.403C247.059 502.874 247.059 508.346 247.059 513.983C251.24 513.983 255.421 513.983 259.729 513.983C259.729 517.631 259.729 521.278 259.729 525.036C237.114 527.799 229.459 525.944 210.782 513.875C204.582 508.803 198.465 503.652 192.421 498.439C189.173 495.732 185.925 493.026 182.578 490.237C172.318 481.64 162.177 472.946 152.036 464.243C145.226 458.512 138.413 452.783 131.597 447.058C96.5419 417.265 96.5419 417.265 82.3533 403.449C82.3533 399.801 82.3533 396.154 82.3533 392.396Z" fill="#814A1B"/>
<path d="M424.434 93.9561C428.615 97.6037 432.796 101.251 437.104 105.009C435.013 110.481 432.923 115.952 430.769 121.59C439.131 114.294 447.493 106.999 456.108 99.4828C449.199 120.349 444.019 135.243 424.434 149.223C435.916 140.588 435.916 140.588 449.773 132.643C456.045 134.467 462.316 136.291 468.778 138.17C466.687 143.641 464.597 149.113 462.443 154.75C431.364 164.71 400.425 169.41 367.421 171.33C361.149 167.682 354.878 164.035 348.416 160.276C356.778 160.276 365.14 160.276 373.755 160.276C373.755 156.629 373.755 152.981 373.755 149.223C378.59 146.031 383.424 142.84 388.405 139.551C407.311 125.742 414.753 113.515 424.434 93.9561Z" fill="#BE6B0F"/>
</svg>
