<svg width="1146" height="1128" viewBox="0 0 1146 1128" fill="none" xmlns="http://www.w3.org/2000/svg">
<g style="mix-blend-mode:multiply">
<path d="M1038.22 292.567C1046.58 292.567 1054.94 292.567 1063.56 292.567C1067.08 311.785 1068.37 328.732 1063.56 347.834C1047.02 363.08 1027.97 371.756 1006.54 380.995C999.358 384.414 992.172 387.834 984.768 391.357C968.535 397.575 968.535 397.575 955.866 397.575C964.831 416.478 974.127 425.319 993.874 436.262C1013.06 441.777 1013.06 441.777 1033.47 445.588C1040.29 446.977 1047.12 448.366 1054.15 449.798C1059.35 450.802 1064.54 451.807 1069.89 452.842C1065.71 454.666 1061.53 456.489 1057.22 458.368C1057.22 469.311 1057.22 480.254 1057.22 491.529C1024.23 488.592 998.635 481.358 968.535 469.422C955.912 465.617 943.257 461.89 930.526 458.368C930.526 452.897 930.526 447.426 930.526 441.788C934.707 441.788 938.888 441.788 943.196 441.788C939.015 438.141 934.834 434.493 930.526 430.735C920.074 434.383 909.621 438.03 898.852 441.788C898.852 438.141 898.852 434.493 898.852 430.735C911.278 423.056 923.949 415.669 936.861 408.628C934.771 403.157 932.68 397.685 930.526 392.048C917.983 397.519 917.983 397.519 905.187 403.101C926.238 376.573 926.238 376.573 947.947 370.977C952.651 370.635 957.354 370.294 962.2 369.941C962.2 364.47 962.2 358.998 962.2 353.361C969.129 343.279 969.129 343.279 978.037 332.981C980.977 329.54 983.917 326.099 986.946 322.554C990.375 318.654 990.375 318.654 993.874 314.674C1012.69 317.41 1012.69 317.41 1031.88 320.201C1031.88 323.849 1031.88 327.496 1031.88 331.254C1036.06 331.254 1040.25 331.254 1044.55 331.254C1044.55 327.607 1044.55 323.959 1044.55 320.201C1048.73 320.201 1052.92 320.201 1057.22 320.201C1057.22 314.729 1057.22 309.258 1057.22 303.621C1050.95 303.621 1044.68 303.621 1038.22 303.621C1038.22 299.973 1038.22 296.326 1038.22 292.567Z" fill="#1C5595"/>
<path d="M252.698 955.771C340.499 955.771 428.3 955.771 518.761 955.771C516.671 964.89 514.58 974.009 512.426 983.404C503.595 985.284 494.749 987.117 485.899 988.931C480.975 989.957 476.051 990.982 470.978 992.039C454.907 994.536 440.027 994.861 423.739 994.457C426.601 1005.98 429.515 1017.49 432.449 1029C434.066 1035.41 435.683 1041.82 437.349 1048.43C441.801 1065.73 441.801 1065.73 449.722 1078.31C455.413 1088.41 455.413 1088.41 455.413 1110.52C434.591 1114.94 425.574 1116.58 404.734 1110.52C378.934 1074.34 376.551 1040.89 385.73 999.984C379.458 1001.81 373.187 1003.63 366.725 1005.51C350.468 1006.77 334.311 1007.81 318.026 1008.62C313.58 1008.86 309.134 1009.1 304.552 1009.34C293.604 1009.93 282.654 1010.49 271.703 1011.04C267.522 1003.74 263.341 996.447 259.033 988.931C252.762 990.755 246.49 992.578 240.029 994.457C227.087 993.788 227.087 993.788 213.502 992.039C205.532 991.014 197.562 989.988 189.35 988.931C189.35 987.107 189.35 985.283 189.35 983.404C217.572 980.668 217.572 980.668 246.364 977.877C248.454 970.582 250.545 963.287 252.698 955.771ZM271.703 966.824C271.703 975.943 271.703 985.062 271.703 994.457C327.026 996.681 380.03 993.238 434.825 986.858C441.012 986.161 447.198 985.465 453.573 984.747C459.373 984.033 465.174 983.319 471.151 982.584C478.963 981.629 478.963 981.629 486.932 980.654C501.098 978.608 501.098 978.608 512.426 966.824C432.988 966.824 353.549 966.824 271.703 966.824ZM404.734 1005.51C388.659 1026.55 388.774 1035.76 392.065 1060.78C400.489 1076.95 409.896 1091.89 423.739 1104.99C430.01 1104.99 436.282 1104.99 442.743 1104.99C439.913 1088.2 435.886 1076.52 426.51 1061.47C415.989 1041.51 415.911 1027.22 417.404 1005.51C413.223 1005.51 409.042 1005.51 404.734 1005.51Z" fill="#DEE1DF"/>
<path d="M835.505 541.269C839.686 548.564 843.867 555.859 848.175 563.375C856.537 559.728 864.899 556.08 873.514 552.322C875.89 558.591 878.267 564.861 880.715 571.32C908.67 643.708 943.434 692.577 1000.21 751.283C964.785 751.283 933.679 735.646 905.188 718.123C895.038 703.915 889.593 691.5 884.575 675.399C879.348 661.526 872.834 656.098 860.844 646.276C860.844 642.628 860.844 638.981 860.844 635.222C850.392 635.222 839.939 635.222 829.17 635.222C828.408 603.291 830.234 572.883 835.505 541.269Z" fill="#265391"/>
<path d="M854.507 248.354C858.688 248.354 862.869 248.354 867.176 248.354C867.176 252.002 867.176 255.65 867.176 259.408C875.538 261.232 883.9 263.056 892.516 264.935C892.516 270.406 892.516 275.877 892.516 281.515C886.244 281.515 879.973 281.515 873.511 281.515C871.943 285.846 870.375 290.178 868.76 294.641C859.867 310.934 854.464 314.136 835.502 320.202C837.593 327.497 839.683 334.792 841.837 342.308C835.566 345.956 829.294 349.604 822.833 353.362C821.247 370.404 821.247 370.404 822.833 386.522C799.166 385.375 792.162 381.938 775.717 366.488C765.819 347.835 765.819 347.835 770.57 326.419C773.183 320.72 775.796 315.02 778.489 309.148C786.935 312.833 795.382 316.517 803.828 320.202C805.919 314.73 808.009 309.259 810.163 303.621C812.253 307.269 814.344 310.917 816.498 314.675C818.85 305.955 818.85 305.955 821.249 297.059C827.79 277.003 837.705 263.471 854.507 248.354Z" fill="#1B539C"/>
<path d="M170.346 939.192C178.708 939.192 187.07 939.192 195.685 939.192C197.776 935.544 199.866 931.896 202.02 928.138C210.382 929.962 218.744 931.786 227.359 933.665C227.359 937.313 227.359 940.96 227.359 944.718C235.721 944.718 244.083 944.718 252.699 944.718C252.699 955.661 252.699 966.604 252.699 977.879C249.563 966.936 249.563 966.936 246.364 955.772C235.911 959.419 225.459 963.067 214.69 966.825C211.554 955.882 211.554 955.882 208.355 944.718C206.264 948.366 204.174 952.014 202.02 955.772C192.776 955.141 183.539 954.436 174.305 953.699C166.588 953.122 166.588 953.122 158.715 952.534C145.006 950.245 145.006 950.245 132.337 939.192C100.32 934.457 69.7262 933.076 37.3143 933.665C27.4075 960.674 27.4075 989.556 37.3143 1016.57C45.6763 1016.57 54.0382 1016.57 62.6536 1016.57C62.6536 1012.92 62.6536 1009.27 62.6536 1005.51C71.6238 1002.85 80.5992 1000.21 89.5766 997.568C94.5742 996.093 99.5718 994.618 104.721 993.099C109.653 991.724 114.585 990.349 119.667 988.932C123.456 987.792 127.245 986.652 131.149 985.478C152.245 982.323 172.911 984.303 194.101 985.823C198.519 986.112 202.937 986.4 207.489 986.698C218.338 987.411 229.184 988.167 240.029 988.932C240.029 990.756 240.029 992.58 240.029 994.459C232.99 994.601 225.951 994.744 218.698 994.891C169.035 996.377 127.48 998.825 81.7323 1017.26C63.4938 1024.18 50.4319 1025.73 30.9795 1022.09C15.5383 1010.35 15.5383 1010.35 5.64014 994.459C6.43199 978.569 6.43199 978.569 11.975 961.299C13.0774 957.765 14.1798 954.231 15.3156 950.591C18.2797 941.228 21.4455 931.915 24.6446 922.612C79.3079 917.006 122.07 913.011 170.346 939.192Z" fill="#E2E6E5"/>
<path d="M696.136 618.643C720.454 621 743.668 632.202 765.819 640.749C765.819 644.397 765.819 648.045 765.819 651.803C770 651.803 774.181 651.803 778.489 651.803C778.489 655.45 778.489 659.098 778.489 662.856C765.819 657.329 753.15 651.803 740.48 646.276C744.661 682.752 748.842 719.229 753.15 756.81C746.878 754.986 740.607 753.162 734.145 751.283C733.623 746.952 733.1 742.62 732.562 738.157C729.533 722.835 729.533 722.835 714.745 716.396C710.694 715.142 706.644 713.888 702.471 712.596C700.381 716.244 698.29 719.892 696.136 723.65C683.76 692.608 678.781 662.581 683.467 629.696C687.648 626.048 691.829 622.401 696.136 618.643Z" fill="#ABB4C1"/>
<path d="M879.848 474.949C886.12 476.773 892.391 478.597 898.853 480.476C896.762 482.3 894.672 484.124 892.518 486.003C891.019 499.963 889.846 513.808 888.955 527.798C888.681 531.727 888.407 535.656 888.126 539.704C887.452 549.436 886.814 559.169 886.183 568.903C890.364 568.903 894.545 568.903 898.853 568.903C899.784 573.049 900.715 577.196 901.674 581.468C917.742 645.436 948.918 686.901 1001.74 732.912C1014.69 747.851 1015.33 755.107 1012.88 773.391C989.617 769.371 969.939 761.109 948.74 751.975C938.72 747.722 938.72 747.722 928.498 743.383C911.522 734.704 911.522 734.704 898.853 718.124C933.194 725.614 962.694 736.729 993.875 751.284C989.212 746.867 984.55 742.45 979.746 737.899C939.424 698.698 912.425 663.461 892.518 613.117C890.517 609.533 888.517 605.95 886.455 602.258C865.96 564.946 870.679 520.851 873.513 480.476C875.604 478.652 877.694 476.828 879.848 474.949Z" fill="#E3E6E2"/>
<path d="M1082.56 264.934C1083.25 277.363 1083.74 289.8 1084.14 302.239C1084.44 309.164 1084.73 316.088 1085.03 323.223C1082.56 342.307 1082.56 342.307 1071.15 355.153C1059.44 362.937 1048.4 369.781 1035.44 375.813C1021.67 382.339 1008.4 388.952 995.06 396.193C981.202 403.101 981.202 403.101 968.532 403.101C968.532 406.749 968.532 410.396 968.532 414.155C991.955 422.896 1015.02 428.758 1039.8 433.843C1075.53 441.18 1075.53 441.18 1082.56 447.315C1084.03 455.686 1085.17 464.102 1086.12 472.53C1086.65 477.097 1087.18 481.664 1087.73 486.369C1088.11 489.895 1088.5 493.422 1088.89 497.055C1101.44 500.703 1113.98 504.35 1126.9 508.108C1126.9 513.58 1126.9 519.051 1126.9 524.689C1103.24 521.936 1090.08 519.853 1069.89 508.108C1069.89 489.686 1069.89 471.264 1069.89 452.841C1063.36 452.157 1056.82 451.474 1050.09 450.769C1011.91 445.396 984.092 438.058 955.863 414.155C955.863 408.683 955.863 403.212 955.863 397.574C959.391 395.9 962.918 394.226 966.553 392.501C976.705 387.639 986.798 382.681 996.841 377.648C1012.88 369.941 1012.88 369.941 1027.72 364.479C1043.04 358.208 1052.54 353.611 1063.55 342.307C1068.3 323.108 1069.49 305.37 1069.67 285.745C1069.97 264.934 1069.97 264.934 1082.56 264.934Z" fill="#DBDBD2"/>
<path d="M512.427 955.771C515.563 966.714 515.563 966.714 518.762 977.878C488.327 991.154 457.117 992.309 423.739 994.458C428.837 1040.44 428.837 1040.44 456.601 1077.7C460.39 1081.24 464.179 1084.77 468.083 1088.41C467.06 1107.16 464.39 1113.74 449.079 1127.1C429.282 1127.79 429.282 1127.79 411.07 1127.1C381.455 1082.07 370.966 1051.51 385.73 999.985C379.459 1001.81 373.187 1003.63 366.726 1005.51C349.377 1005.9 332.199 1006.03 314.859 1005.86C310.111 1005.83 305.362 1005.81 300.47 1005.78C288.769 1005.72 277.069 1005.62 265.368 1005.51C262.233 997.304 262.233 997.304 259.034 988.931C254.853 990.755 250.672 992.579 246.364 994.458C237.336 995.473 228.269 996.227 219.193 996.833C211.023 997.442 211.023 997.442 202.688 998.063C191.308 998.873 179.925 999.651 168.54 1000.39C131.979 1003.19 102.976 1010.12 68.9887 1022.09C46.8168 1023.13 46.8168 1023.13 30.9797 1022.09C26.7987 1014.8 22.6177 1007.5 18.3101 999.985C24.5815 999.985 30.853 999.985 37.3145 999.985C37.3145 1005.46 37.3145 1010.93 37.3145 1016.56C45.6765 1016.56 54.0385 1016.56 62.6539 1016.56C62.6539 1012.92 62.6539 1009.27 62.6539 1005.51C66.696 1004.38 70.7382 1003.25 74.9029 1002.08C80.1373 1000.59 85.3717 999.101 90.7647 997.567C95.9827 996.092 101.201 994.617 106.577 993.098C119.428 989.918 119.428 989.918 126.002 983.405C134.955 982.541 143.952 982.02 152.95 981.656C158.36 981.424 163.77 981.193 169.344 980.954C175.031 980.737 180.719 980.52 186.579 980.296C195.147 979.938 195.147 979.938 203.888 979.573C218.046 978.984 232.204 978.421 246.364 977.878C248.454 972.407 250.545 966.935 252.699 961.298C279.506 960.499 306.313 959.712 333.121 958.937C342.213 958.672 351.305 958.404 360.397 958.132C411.089 956.621 461.696 955.425 512.427 955.771ZM271.703 966.825C271.703 975.944 271.703 985.063 271.703 994.458C327.027 996.682 380.03 993.239 434.825 986.859C441.012 986.162 447.199 985.465 453.573 984.747C459.374 984.033 465.175 983.32 471.151 982.584C478.963 981.629 478.963 981.629 486.933 980.655C501.098 978.609 501.098 978.609 512.427 966.825C432.988 966.825 353.549 966.825 271.703 966.825ZM404.735 1005.51C388.659 1026.55 388.775 1035.76 392.065 1060.78C400.489 1076.95 409.896 1091.89 423.739 1104.99C430.011 1104.99 436.282 1104.99 442.744 1104.99C439.913 1088.2 435.886 1076.52 426.511 1061.47C415.989 1041.51 415.911 1027.23 417.404 1005.51C413.223 1005.51 409.042 1005.51 404.735 1005.51Z" fill="#D1D6DC"/>
<path d="M898.848 93.6055C913.102 94.9871 913.102 94.9871 924.188 99.1322C920.525 121.583 912.207 136.977 898.452 156.126C894.982 161.006 891.511 165.887 887.936 170.915C883.93 176.418 883.93 176.418 879.844 182.033C885.87 182.994 885.87 182.994 892.019 183.976C905.183 187.559 905.183 187.559 913.102 200.685C923.342 243.865 922.806 281.01 898.848 320.2C894.667 316.553 890.486 312.905 886.179 309.147C888.212 305.456 890.245 301.766 892.34 297.964C900.293 277.862 901.212 260.617 901.62 239.372C901.873 232.12 902.126 224.867 902.387 217.395C901.173 197.65 901.173 197.65 882.838 187.775C877.669 185.88 872.5 183.985 867.174 182.033C876.384 159.267 889.768 141.195 905.183 121.239C907.274 115.768 909.364 110.296 911.518 104.659C894.384 117.326 877.579 130.284 860.839 143.346C855.76 147.207 850.681 151.068 845.448 155.047C809.958 183.573 793.42 206.92 784.821 248.353C782.666 258.27 782.666 258.27 780.466 268.387C779.813 272.719 779.16 277.05 778.487 281.513C765.817 264.933 765.817 264.933 766.609 250.426C784.621 189.813 822.448 157.535 873.509 115.712C880.515 109.226 880.515 109.226 887.663 102.608C891.354 99.6371 895.046 96.6663 898.848 93.6055Z" fill="#DFE4E0"/>
<path d="M886.183 419.682C888.273 423.329 890.364 426.977 892.518 430.735C882.065 434.383 871.613 438.03 860.843 441.788C862.934 443.612 865.024 445.436 867.178 447.315C867.178 450.963 867.178 454.61 867.178 458.369C873.45 460.192 879.721 462.016 886.183 463.895C884.092 469.367 882.002 474.838 879.848 480.475C878.143 499.01 877.029 517.542 875.913 536.109C873.513 552.322 873.513 552.322 860.843 563.376C854.572 565.2 848.3 567.023 841.839 568.903C841.839 547.017 841.839 525.131 841.839 502.582C837.658 502.582 833.477 502.582 829.169 502.582C824.814 492.565 824.814 492.565 822.834 480.475C831.941 470.804 831.941 470.804 841.839 463.895C837.658 462.071 833.477 460.248 829.169 458.369C831.26 447.426 833.35 436.483 835.504 425.208C841.514 425.322 847.524 425.436 853.717 425.554C872.922 426.455 872.922 426.455 886.183 419.682Z" fill="#185091"/>
<path d="M765.821 801.024C779.286 801.653 792.747 802.358 806.205 803.097C817.45 803.674 817.45 803.674 828.922 804.263C848.174 806.551 848.174 806.551 860.843 817.605C862.823 831.421 862.823 831.421 860.843 845.238C854.572 848.886 848.3 852.533 841.839 856.291C841.839 848.996 841.839 841.701 841.839 834.185C835.567 842.392 835.567 842.392 829.169 850.765C805.303 854.4 783.637 856.291 759.486 856.291C753.151 850.765 753.151 850.765 751.963 834.875C753.151 817.605 753.151 817.605 765.821 801.024Z" fill="#97A1A8"/>
<path d="M870.616 877.361C878.347 881.34 886.042 885.371 893.703 889.451C923.636 905.298 923.636 905.298 955.864 917.085C955.864 920.732 955.864 924.38 955.864 928.138C934.243 940.713 926.209 940.61 900.805 940.659C890.265 940.681 890.265 940.681 879.512 940.703C872.175 940.66 864.838 940.617 857.278 940.573C849.917 940.616 842.555 940.659 834.97 940.703C827.951 940.688 820.933 940.674 813.701 940.659C807.254 940.647 800.806 940.635 794.163 940.622C778.489 939.191 778.489 939.191 765.819 928.138C764.01 910.811 766.209 894.99 772.154 878.398C806.032 855.028 834.066 861.049 870.616 877.361Z" fill="#1B4886"/>
<path d="M1088.89 226.247C1101.56 237.301 1101.56 237.301 1102.84 248.595C1098.86 342.233 1098.86 342.233 1075.01 368.862C1058.93 378.269 1043.26 385.304 1025.55 392.048C1014.88 399.303 1004.26 406.603 993.872 414.155C995.962 417.803 998.053 421.45 1000.21 425.208C991.845 421.561 983.483 417.913 974.867 414.155C984.286 391.607 998.408 385.136 1022.38 374.432C1028.58 371.618 1034.79 368.804 1041.19 365.904C1050.75 361.719 1060.32 357.536 1069.89 353.361C1069.89 318.709 1069.89 284.056 1069.89 248.354C1018.95 255.144 977.846 264.865 943.193 299.821C941.103 302.899 939.012 305.977 936.858 309.148C945.22 312.795 953.582 316.443 962.198 320.201C953.641 335.131 945.509 335.103 927.752 340.581C906.214 348.117 906.214 348.117 892.267 363.4C888.329 375.173 888.329 375.173 886.18 392.048C867.362 398.994 860.405 397.441 840.648 391.357C822.831 380.995 822.831 380.995 817.288 366.142C817.027 361.924 816.766 357.707 816.497 353.361C831.542 344.726 831.542 344.726 848.171 336.781C852.352 338.605 856.533 340.429 860.84 342.308C856.79 343.676 852.74 345.044 848.567 346.453C834.314 352.342 834.314 352.342 830.75 365.105C830.227 368.525 829.705 371.945 829.166 375.468C837.528 373.644 845.89 371.82 854.506 369.941C854.506 373.589 854.506 377.237 854.506 380.995C862.868 379.171 871.23 377.347 879.845 375.468C881.674 369.313 883.503 363.157 885.388 356.815C892.515 336.781 892.515 336.781 905.184 325.728C913.546 325.728 921.908 325.728 930.524 325.728C928.433 312.961 926.343 300.194 924.189 287.041C975.952 250.411 1019.52 222.212 1088.89 226.247Z" fill="#ACBEC8"/>
<path d="M1020.01 258.37C1023.93 260.536 1027.85 262.702 1031.88 264.933C1036.06 266.757 1040.25 268.581 1044.55 270.46C1038.28 278.667 1038.28 278.667 1031.88 287.04C1040.25 285.216 1048.61 283.393 1057.22 281.513C1057.22 285.161 1057.22 288.809 1057.22 292.567C1050.95 292.567 1044.68 292.567 1038.22 292.567C1038.22 296.215 1038.22 299.862 1038.22 303.62C1044.49 303.62 1050.76 303.62 1057.22 303.62C1057.22 314.563 1057.22 325.506 1057.22 336.78C1046.77 336.78 1036.32 336.78 1025.55 336.78C1025.55 340.428 1025.55 344.076 1025.55 347.834C991.763 347.834 957.977 347.834 924.191 347.834C924.191 356.953 924.191 366.072 924.191 375.467C915.829 375.467 907.467 375.467 898.852 375.467C898.852 366.348 898.852 357.229 898.852 347.834C917.666 340.539 936.481 333.243 955.866 325.727C949.594 320.256 943.323 314.784 936.861 309.147C948.247 283.862 969.045 272.006 994.27 257.334C1006.54 253.88 1006.54 253.88 1020.01 258.37Z" fill="#3978AE"/>
<path d="M1069.89 242.827C1081.47 275.379 1079.7 309.631 1069.89 342.308C1051.61 360.408 1031.19 370.454 1006.54 380.995C1002.52 382.961 998.492 384.927 994.345 386.953C981.07 393.275 971.159 397.575 955.866 397.575C959.132 401.792 962.398 406.01 965.764 410.355C968.769 415.257 971.774 420.158 974.87 425.208C972.78 430.68 970.689 436.151 968.535 441.788C972.716 443.612 976.897 445.436 981.205 447.315C981.205 450.963 981.205 454.61 981.205 458.368C956.119 455.633 956.119 455.633 930.526 452.842C930.526 449.194 930.526 445.547 930.526 441.788C934.707 441.788 938.888 441.788 943.196 441.788C939.015 438.141 934.834 434.493 930.526 430.735C920.074 434.383 909.621 438.03 898.852 441.788C898.852 438.141 898.852 434.493 898.852 430.735C908.107 424.582 908.107 424.582 920.232 417.954C940.71 405.708 949.538 396.998 955.866 375.468C956.649 371.592 957.433 367.717 958.241 363.724C963.697 349.445 973.36 344.762 987.54 336.781C987.54 340.429 987.54 344.076 987.54 347.834C1000.08 347.834 1012.63 347.834 1025.55 347.834C1025.55 344.187 1025.55 340.539 1025.55 336.781C1036 336.781 1046.45 336.781 1057.22 336.781C1057.22 325.838 1057.22 314.895 1057.22 303.621C1050.95 303.621 1044.68 303.621 1038.22 303.621C1038.22 299.973 1038.22 296.326 1038.22 292.567C1044.49 292.567 1050.76 292.567 1057.22 292.567C1057.22 288.92 1057.22 285.272 1057.22 281.514C1048.86 283.338 1040.5 285.162 1031.88 287.041C1031.88 281.569 1031.88 276.098 1031.88 270.461C1025.61 268.637 1019.34 266.813 1012.88 264.934C1014.97 259.463 1017.06 253.991 1019.21 248.354C1035.94 246.53 1052.66 244.706 1069.89 242.827Z" fill="#194F8C"/>
<path d="M759.487 358.888C797.496 392.048 797.496 392.048 798.683 407.592C797.496 425.208 797.496 425.208 790.765 436.262C782.233 452.141 786.815 463.794 791.161 480.475C786.98 480.475 782.799 480.475 778.491 480.475C776.401 476.827 774.31 473.18 772.156 469.422C767.975 473.069 763.794 476.717 759.487 480.475C759.487 469.532 759.487 458.589 759.487 447.315C755.306 447.315 751.125 447.315 746.817 447.315C746.817 456.434 746.817 465.553 746.817 474.948C736.364 473.125 725.912 471.301 715.143 469.422C721.216 482.303 721.216 482.303 740.482 491.529C725.437 492.219 725.437 492.219 708.808 491.529C696.138 480.475 696.138 480.475 694.159 467.695C696.138 452.842 696.138 452.842 704.849 440.407C714.978 425.451 717.448 416.433 720.686 399.647C725.717 376.904 725.717 376.904 744.441 364.069C749.406 362.359 754.371 360.649 759.487 358.888Z" fill="#808E93"/>
<path d="M886.183 419.682C888.273 423.329 890.364 426.977 892.518 430.735C882.065 434.383 871.613 438.03 860.843 441.788C862.934 443.612 865.024 445.436 867.178 447.315C867.178 450.963 867.178 454.61 867.178 458.369C873.45 457.457 879.721 456.545 886.183 455.605C918.287 451.62 950.092 449.32 981.205 458.369C981.205 454.721 981.205 451.073 981.205 447.315C974.934 445.491 968.662 443.668 962.201 441.788C968.472 436.317 974.744 430.846 981.205 425.208C983.361 430.509 983.361 430.509 985.56 435.916C992.941 448.818 992.941 448.818 1010.5 451.46C1015.47 451.916 1020.43 452.372 1025.55 452.842C1023.46 456.489 1021.37 460.137 1019.21 463.895C1023.4 465.719 1027.58 467.543 1031.88 469.422C1031.88 473.07 1031.88 476.717 1031.88 480.475C1025.61 478.652 1019.34 476.828 1012.88 474.949C1003.11 474.438 993.318 474.226 983.531 474.215C977.905 474.208 972.279 474.2 966.482 474.193C960.627 474.214 954.772 474.236 948.739 474.258C942.835 474.236 936.931 474.215 930.848 474.193C922.433 474.204 922.433 474.204 913.848 474.215C906.118 474.224 906.118 474.224 898.231 474.234C886.116 473.795 886.116 473.795 879.848 480.475C878.04 498.876 877.004 517.278 875.913 535.721C873.513 552.322 873.513 552.322 860.843 563.376C854.572 565.2 848.3 567.023 841.839 568.903C841.839 547.017 841.839 525.131 841.839 502.582C837.658 502.582 833.477 502.582 829.169 502.582C824.814 492.565 824.814 492.565 822.834 480.475C831.941 470.804 831.941 470.804 841.839 463.895C837.658 462.071 833.477 460.248 829.169 458.369C831.26 447.426 833.35 436.483 835.504 425.208C841.514 425.322 847.524 425.436 853.717 425.554C872.922 426.455 872.922 426.455 886.183 419.682Z" fill="#1D5797"/>
<path d="M879.846 474.949C886.118 476.773 892.389 478.597 898.851 480.476C896.76 482.3 894.67 484.124 892.516 486.003C891.876 499.308 891.637 512.421 891.724 525.726C891.708 532.985 891.691 540.245 891.674 547.725C892.417 566.428 894.733 583.731 898.851 602.063C903.032 602.063 907.213 602.063 911.52 602.063C913.513 606.53 915.505 610.997 917.558 615.599C920.269 621.505 922.98 627.411 925.774 633.496C928.419 639.331 931.065 645.166 933.791 651.178C943.25 668.485 954.671 681.261 968.534 696.017C968.534 699.665 968.534 703.312 968.534 707.071C973.825 708.609 973.825 708.609 979.224 710.179C1000.64 721.792 1011.94 738.61 1025.55 756.811C1021.37 764.106 1017.19 771.401 1012.88 778.918C988.116 774.927 967.726 765.272 945.57 755.084C938.302 751.8 931.035 748.515 923.547 745.131C905.408 734.83 898.756 730.308 892.516 712.597C892.516 707.126 892.516 701.654 892.516 696.017C896.697 696.017 900.878 696.017 905.185 696.017C905.467 700.933 905.467 700.933 905.755 705.948C914.885 725.229 931.704 728.115 953.093 736.086C960.679 738.964 968.265 741.842 976.081 744.808C981.953 746.945 987.824 749.082 993.873 751.284C989.21 746.803 984.548 742.322 979.743 737.705C941.679 700.34 912.451 666.123 892.516 618.643C890.515 614.775 888.514 610.906 886.453 606.921C867.487 566.951 870.496 522.966 873.511 480.476C875.602 478.652 877.692 476.828 879.846 474.949Z" fill="#C9D3DC"/>
<path d="M829.168 502.582C833.349 502.582 837.53 502.582 841.838 502.582C838.69 546.929 835.378 591.108 829.168 635.223C833.872 634.653 838.575 634.083 843.421 633.496C860.842 635.223 860.842 635.223 874.304 646.967C906.517 690.06 906.517 690.06 902.489 708.085C901.288 711.397 900.088 714.71 898.851 718.123C893.829 710.297 888.816 702.467 883.806 694.635C881.013 690.275 878.22 685.915 875.343 681.423C868.08 669.825 861.181 658.139 854.507 646.276C844.055 646.276 833.603 646.276 822.833 646.276C824.924 649.924 827.014 653.571 829.168 657.33C830.646 693.437 830.646 693.437 822.833 707.07C833.286 710.718 843.738 714.365 854.507 718.123C841.964 720.859 841.964 720.859 829.168 723.65C820.806 714.531 812.444 705.412 803.829 696.017C808.01 692.369 812.191 688.721 816.498 684.963C814.809 673.993 814.809 673.993 810.164 662.856C808.073 657.385 805.983 651.913 803.829 646.276C791.286 648.1 778.743 649.924 765.82 651.803C773.738 643.167 773.738 643.167 784.824 635.223C793.186 637.047 801.548 638.87 810.164 640.75C816.435 595.154 822.707 549.559 829.168 502.582Z" fill="#E6E7E0"/>
<path d="M734.147 375.468C783.242 379.613 783.242 379.613 797.495 392.048C795.978 419.402 794.618 437.919 772.156 458.368C743.934 447.425 743.934 447.425 715.142 436.261C715.142 427.142 715.142 418.023 715.142 408.628C719.323 408.628 723.504 408.628 727.812 408.628C729.902 397.685 731.993 386.742 734.147 375.468Z" fill="#D7C37F"/>
<path d="M810.165 861.817C843.479 863.138 867.128 875.156 894.893 889.796C900.981 892.922 900.981 892.922 907.192 896.111C917.113 901.214 926.992 906.379 936.862 911.558C934.771 915.205 932.681 918.853 930.527 922.611C892.898 922.611 855.269 922.611 816.5 922.611C816.5 918.963 816.5 915.316 816.5 911.558C810.228 909.734 803.957 907.91 797.495 906.031C810.038 902.383 822.581 898.736 835.504 894.978C820.871 894.978 806.238 894.978 791.161 894.978C797.432 891.33 803.704 887.682 810.165 883.924C805.984 880.277 801.803 876.629 797.495 872.871C801.676 869.223 805.857 865.576 810.165 861.817Z" fill="#1B4E94"/>
<path d="M1031.88 5.17871C1046.93 6.9058 1046.93 6.9058 1063.55 10.7054C1080.16 32.4391 1075.66 40.7936 1069.89 65.9724C1062.66 91.653 1055.65 116.02 1038.22 137.82C1013.12 147.577 989.47 148.873 962.197 148.873C959.872 141.177 957.648 133.458 955.467 125.73C954.217 121.434 952.968 117.138 951.68 112.712C949.147 96.7333 949.984 86.8368 955.862 71.4991C968.507 57.9198 968.507 57.9198 983.973 44.9019C989.061 40.5347 994.148 36.1675 999.39 31.668C1012.88 21.7588 1012.88 21.7588 1025.55 21.7588C1027.64 16.2874 1029.73 10.8159 1031.88 5.17871ZM988.322 54.946C971.962 69.8508 963.042 78.6178 958.609 99.2622C960.429 112.94 963.156 124.893 968.532 137.82C977.776 137.189 987.013 136.484 996.247 135.747C1003.96 135.17 1003.96 135.17 1011.84 134.581C1026.83 133.238 1026.83 133.238 1038.22 121.239C1043.05 108.316 1047.13 95.715 1050.88 82.5525C1052.22 78.2566 1053.56 73.9607 1054.94 69.5345C1056.22 65.1674 1057.49 60.8002 1058.8 56.3007C1060.01 52.2256 1061.22 48.1505 1062.47 43.952C1065.06 31.0535 1065.06 31.0535 1050.88 16.2321C1025.79 16.2321 1005.73 40.2884 988.322 54.946Z" fill="#DBDFDD"/>
<path d="M892.516 353.361C894.607 353.361 896.697 353.361 898.851 353.361C898.851 364.304 898.851 375.247 898.851 386.522C909.303 382.874 919.756 379.226 930.525 375.468C926.344 382.763 922.163 390.059 917.855 397.575C924.127 393.927 930.398 390.28 936.86 386.522C938.95 393.817 941.041 401.112 943.195 408.628C932.742 415.924 922.29 423.219 911.521 430.735C919.883 428.911 928.244 427.088 936.86 425.208C938.95 430.68 941.041 436.151 943.195 441.789C939.014 441.789 934.833 441.789 930.525 441.789C930.525 445.436 930.525 449.084 930.525 452.842C906.306 460.704 886.734 465.224 860.842 463.895C862.932 458.424 865.023 452.952 867.177 447.315C860.905 449.139 854.634 450.963 848.172 452.842C846.082 447.371 843.991 441.899 841.837 436.262C846.672 436.376 851.506 436.49 856.487 436.607C874.157 436.977 874.157 436.977 892.516 430.735C890.426 427.088 888.335 423.44 886.181 419.682C879.91 419.682 873.638 419.682 867.177 419.682C875.623 397.575 884.07 375.468 892.516 353.361Z" fill="#3275B3"/>
<path d="M822.835 646.276C837.83 645.607 837.83 645.607 854.509 646.276C880.198 666.711 892.671 694.198 898.853 723.65C894.893 742.648 894.893 742.648 886.183 756.81C867.178 767.864 867.178 767.864 853.321 765.791C847.638 764.081 847.638 764.081 841.839 762.337C854.382 756.866 866.925 751.394 879.848 745.757C877.758 738.462 875.667 731.166 873.513 723.65C868.679 722.966 863.845 722.282 858.864 721.578C841.839 718.123 841.839 718.123 822.835 707.07C820.979 692.692 820.979 692.692 821.647 675.982C821.818 670.44 821.99 664.897 822.167 659.186C822.387 654.926 822.608 650.666 822.835 646.276Z" fill="#D6BA65"/>
<path d="M949.529 287.041C953.71 287.041 957.891 287.041 962.198 287.041C962.982 290.575 963.766 294.108 964.574 297.749C965.88 301.511 967.187 305.272 968.533 309.148C972.714 310.972 976.895 312.795 981.203 314.675C982.391 327.455 982.391 327.455 981.203 342.308C971.701 351.289 971.701 351.289 962.198 358.888C962.198 364.36 962.198 369.831 962.198 375.468C938.57 382.34 917.467 386.522 892.515 386.522C897.266 349.216 897.266 349.216 911.52 336.781C926.202 332.806 940.983 329.094 955.863 325.728C949.592 320.256 943.32 314.785 936.859 309.148C941.04 301.853 945.221 294.557 949.529 287.041Z" fill="#306FAD"/>
<path d="M721.475 624.17C730.098 625.538 730.098 625.538 738.896 626.933C760.186 630.257 760.186 630.257 784.823 629.697C803.828 629.697 803.828 629.697 813.776 636.994C841.184 664.75 841.184 664.75 845.004 686C846.572 693.694 846.572 693.694 848.172 701.544C854.443 705.191 860.715 708.839 867.176 712.597C886.181 723.651 886.181 723.651 891.724 741.612C891.985 746.628 892.246 751.643 892.516 756.811C879.45 765.792 879.45 765.792 860.841 773.391C837.086 769.591 837.086 769.591 816.498 762.337C814.407 758.69 812.317 755.042 810.163 751.284C812.253 747.636 814.344 743.989 816.498 740.231C797.683 747.526 778.869 754.821 759.484 762.337C751.687 726.967 751.687 726.967 759.088 710.179C761.309 707.329 763.53 704.48 765.819 701.544C770 701.544 774.181 701.544 778.489 701.544C776.398 714.31 774.308 727.077 772.154 740.231C775.681 738.293 779.209 736.355 782.844 734.359C801.115 727.896 810.624 729.457 829.167 734.704C831.258 738.352 833.348 741.999 835.502 745.757C848.045 745.757 860.588 745.757 873.511 745.757C871.421 740.286 869.33 734.814 867.176 729.177C860.121 727.467 853.065 725.758 845.796 723.996C821.802 717.86 815.804 714.455 803.828 696.017C808.009 692.369 812.19 688.722 816.498 684.964C814.808 673.994 814.808 673.994 810.163 662.857C808.072 657.385 805.982 651.914 803.828 646.277C795.466 648.101 787.104 649.924 778.489 651.803C778.489 655.451 778.489 659.099 778.489 662.857C772.217 661.033 765.946 659.209 759.484 657.33C757.394 651.859 755.303 646.387 753.149 640.75C737.284 634.015 737.284 634.015 721.475 629.697C721.475 627.873 721.475 626.049 721.475 624.17Z" fill="#B5BDC5"/>
<path d="M715.142 491.528C723.504 493.352 731.866 495.176 740.481 497.055C738.391 504.35 736.3 511.646 734.147 519.162C738.328 519.162 742.509 519.162 746.816 519.162C748.907 511.867 750.997 504.571 753.151 497.055C763.168 495.821 773.202 494.689 783.242 493.601C788.827 492.96 794.413 492.318 800.167 491.658C817.948 491.517 826.85 494.577 841.839 502.582C840.939 517.436 840.011 532.288 839.067 547.141C838.818 551.298 838.569 555.455 838.312 559.738C836.671 585.189 833.73 610.041 829.169 635.223C833.873 634.653 838.576 634.083 843.422 633.495C860.843 635.223 860.843 635.223 874.701 646.967C892.865 672.103 900.858 693.899 898.852 723.65C883.541 711.647 876.122 701.147 868.366 684.617C858.553 666.505 856.973 663.759 834.712 655.602C828.702 654.348 822.692 653.094 816.499 651.803C801.604 632.309 803.066 628.17 806.75 605.797C807.648 600.116 808.546 594.434 809.472 588.58C810.484 582.656 811.497 576.733 812.54 570.629C813.504 564.641 814.467 558.653 815.46 552.484C817.852 537.683 820.312 522.893 822.834 508.108C812.382 506.285 801.929 504.461 791.16 502.582C789.853 507.027 788.547 511.473 787.201 516.053C784.326 520.727 781.452 525.4 778.49 530.215C758.694 534.706 758.694 534.706 740.481 535.742C726.838 521.251 718.938 510.076 715.142 491.528Z" fill="#A8B5BC"/>
<path d="M740.478 646.275C753.148 651.802 765.818 657.329 778.487 662.855C778.487 659.208 778.487 655.56 778.487 651.802C786.849 649.978 795.211 648.154 803.827 646.275C813.725 655.947 813.725 655.947 822.831 668.382C820.852 679.781 820.852 679.781 816.496 690.489C814.257 707.72 814.257 707.72 829.166 718.122C843.848 722.098 858.629 725.81 873.51 729.176C873.51 734.647 873.51 740.119 873.51 745.756C860.967 747.58 848.424 749.404 835.501 751.283C831.32 745.811 827.139 740.34 822.831 734.703C797.745 737.438 797.745 737.438 772.153 740.229C774.243 727.463 776.334 714.696 778.487 701.542C774.306 701.542 770.125 701.542 765.818 701.542C761.637 708.838 757.456 716.133 753.148 723.649C740.662 696.417 739.338 675.124 740.478 646.275Z" fill="#254786"/>
<path d="M778.488 220.72C780.579 220.72 782.669 220.72 784.823 220.72C780.515 276.307 780.515 276.307 771.362 299.821C764.354 318.598 765.833 328.928 772.153 347.834C786.748 371.09 786.748 371.09 810.162 386.521C808.791 396.438 808.791 396.438 807.391 406.555C806.86 410.594 806.329 414.634 805.783 418.796C803.828 430.734 803.828 430.734 798.285 448.351C795.394 465.385 795.394 465.385 812.934 479.784C818.291 483.659 823.648 487.535 829.167 491.528C827.076 495.176 824.986 498.823 822.832 502.581C819.174 501.67 815.515 500.758 811.746 499.818C795.804 496.255 795.804 496.255 772.153 497.055C770.063 502.526 767.972 507.998 765.819 513.635C765.819 508.163 765.819 502.692 765.819 497.055C750.909 501.93 750.909 501.93 746.814 519.162C742.633 519.162 738.452 519.162 734.144 519.162C737.28 502.747 737.28 502.747 740.479 486.001C732.117 484.178 723.755 482.354 715.14 480.475C713.05 471.356 710.959 462.237 708.805 452.841C712.986 458.313 717.167 463.784 721.475 469.421C734.52 473.422 734.52 473.422 746.814 474.948C746.814 465.829 746.814 456.71 746.814 447.314C750.995 447.314 755.176 447.314 759.484 447.314C772.153 463.895 772.153 463.895 778.488 480.475C778.488 475.003 778.488 469.532 778.488 463.895C781.262 449.721 783.775 438.091 791.158 425.208C794.42 407.724 794.86 396.612 782.893 381.858C776.129 375.194 769.195 368.658 762.082 362.277C743.757 343.986 745.121 323.375 745.379 300.382C748.452 271.818 762.958 245.734 778.488 220.72Z" fill="#C3CDD0"/>
<path d="M917.855 93.6055C922.036 95.4293 926.217 97.2531 930.525 99.1322C932.593 122.135 933.1 134.299 918.647 154.054C905.185 165.453 905.185 165.453 892.516 165.453C892.516 169.1 892.516 172.748 892.516 176.506C896.435 177.874 900.355 179.242 904.394 180.651C921.119 189.234 924.091 193.74 930.525 209.666C930.154 228.794 930.154 228.794 927.753 250.426C924.858 276.96 924.171 299.588 930.525 325.727C923.273 327.095 923.273 327.095 915.875 328.49C890.965 340.62 887.416 357.905 879.846 380.994C854.76 378.258 854.76 378.258 829.167 375.467C831.258 366.348 833.348 357.229 835.502 347.834C844.91 345.098 844.91 345.098 854.507 342.307C858.688 336.836 862.869 331.364 867.176 325.727C871.357 325.727 875.538 325.727 879.846 325.727C881.675 321.509 883.504 317.292 885.389 312.946C892.516 298.093 892.516 298.093 905.185 281.513C912.321 249.533 916.749 217.228 898.851 187.559C892.579 185.736 886.308 183.912 879.846 182.033C883.618 164.746 889.775 154.53 902.414 140.928C914.129 127.301 917.707 122.451 919.835 105.004C919.181 101.243 918.528 97.4811 917.855 93.6055Z" fill="#687D98"/>
<path d="M841.839 801.023C860.843 806.55 860.843 806.55 867.178 817.604C867.433 830.497 867.452 843.397 867.178 856.29C889.128 864.498 889.128 864.498 911.522 872.871C909.431 876.518 907.341 880.166 905.187 883.924C896.825 882.1 888.463 880.276 879.847 878.397C879.847 874.75 879.847 871.102 879.847 867.344C876.189 866.66 872.531 865.976 868.762 865.271C853.857 861.659 842.134 858.174 829.169 850.764C824.418 839.019 824.418 839.019 822.834 828.657C812.382 826.833 801.929 825.009 791.16 823.13C795.341 832.249 799.522 841.368 803.83 850.764C795.527 852.76 787.21 854.709 778.886 856.636C774.256 857.726 769.626 858.816 764.855 859.939C760.993 860.559 757.13 861.179 753.151 861.817C746.816 856.29 746.816 856.29 744.836 837.983C746.816 817.604 746.816 817.604 755.131 803.787C782.959 790.236 811.304 796.265 841.839 801.023Z" fill="#AEB6BA"/>
<path d="M1000.21 425.208C1079.61 433.691 1079.61 433.691 1101.56 452.842C1102.36 472.876 1102.36 472.876 1101.56 491.528C1116.2 498.824 1130.83 506.119 1145.91 513.635C1143.82 522.754 1141.73 531.873 1139.57 541.269C1116.87 548.434 1105.11 545.144 1083.35 536.778C1060.1 528.106 1037.02 520.286 1012.88 513.635C1033.8 508.72 1054.83 505.551 1076.23 502.582C1074.13 500.758 1072.04 498.934 1069.89 497.055C1069 482.296 1069.62 467.629 1069.89 452.842C1062.7 452.158 1055.52 451.474 1048.11 450.769C1040.67 449.629 1033.22 448.489 1025.55 447.315C1023.46 443.667 1021.37 440.02 1019.21 436.261C1012.94 432.614 1006.67 428.966 1000.21 425.208Z" fill="#B5B9B4"/>
<path d="M835.505 828.656C839.686 830.48 843.867 832.304 848.175 834.183C846.084 841.478 843.994 848.773 841.84 856.29C847.719 857.772 853.599 859.253 859.657 860.78C878.344 866.854 886.539 870.793 898.853 883.923C896.763 887.571 894.672 891.218 892.519 894.977C888.77 892.918 885.022 890.859 881.16 888.738C876.155 886.123 871.149 883.508 865.991 880.814C861.067 878.186 856.143 875.557 851.07 872.848C832.034 866.115 823.294 867.914 803.831 872.87C796.58 874.409 796.58 874.409 789.182 875.979C785.654 876.777 782.126 877.574 778.492 878.397C776.026 885.512 773.671 892.657 771.365 899.813C770.042 903.788 768.719 907.763 767.356 911.859C766.85 915.407 766.344 918.955 765.822 922.61C786.621 940.756 812.628 939.822 840.974 940.939C846.588 941.17 852.202 941.402 857.986 941.641C866.652 941.967 866.652 941.967 875.494 942.299C881.394 942.538 887.294 942.776 893.372 943.022C907.868 943.606 922.365 944.17 936.862 944.717C936.862 946.541 936.862 948.365 936.862 950.244C915.615 950.568 894.368 950.762 873.118 950.935C867.145 951.027 861.171 951.12 855.017 951.215C820.572 951.425 791.931 949.56 759.487 939.19C757.397 937.366 755.306 935.543 753.152 933.664C753.721 923.396 754.711 913.146 755.924 902.921C756.569 897.329 757.214 891.736 757.879 885.974C758.675 879.488 758.675 879.488 759.487 872.87C749.035 872.87 738.582 872.87 727.813 872.87C727.813 871.046 727.813 869.222 727.813 867.343C762.306 864.607 762.306 864.607 797.496 861.816C797.496 858.169 797.496 854.521 797.496 850.763C807.949 848.939 818.401 847.115 829.17 845.236C831.261 839.765 833.351 834.293 835.505 828.656Z" fill="#EDEEE6"/>
<path d="M1020.1 258.241C1023.99 260.449 1027.88 262.658 1031.88 264.933C1036.06 266.757 1040.24 268.581 1044.55 270.46C1034.86 277.296 1025.17 284.133 1015.47 290.969C1005.7 297.909 1005.7 297.909 1000.21 309.147C1003.08 306.411 1005.96 303.675 1008.92 300.857C1019.21 292.567 1019.21 292.567 1031.88 292.567C1031.88 296.214 1031.88 299.862 1031.88 303.62C1040.24 303.62 1048.6 303.62 1057.22 303.62C1057.22 309.092 1057.22 314.563 1057.22 320.2C1053.04 320.2 1048.86 320.2 1044.55 320.2C1044.55 323.848 1044.55 327.496 1044.55 331.254C1040.37 331.254 1036.19 331.254 1031.88 331.254C1031.88 327.606 1031.88 323.958 1031.88 320.2C1004.91 317.948 1004.91 317.948 981.994 328.49C979.642 331.226 977.29 333.962 974.867 336.78C974.083 332.791 973.299 328.801 972.492 324.691C968.593 309.383 962.93 295.899 955.863 281.513C963.695 276.571 971.635 271.759 979.618 267.006C984.028 264.313 988.438 261.62 992.981 258.845C1006.54 253.88 1006.54 253.88 1020.1 258.241Z" fill="#508FBE"/>
<path d="M1030.44 39.9577C1037.43 41.8919 1037.43 41.8919 1044.55 43.8652C1036.81 71.9939 1027.5 92.587 1006.54 115.712C993.079 122.621 993.079 122.621 981.201 126.766C977.02 130.413 972.839 134.061 968.532 137.819C962.847 118.911 959.855 102.073 962.197 82.5521C978.462 59.6822 997.592 36.9301 1030.44 39.9577Z" fill="#2E659F"/>
<path d="M740.479 646.275C753.149 651.802 765.818 657.329 778.488 662.855C778.488 659.208 778.488 655.56 778.488 651.802C786.85 649.978 795.212 648.154 803.827 646.275C813.725 655.947 813.725 655.947 822.832 668.382C821.248 679.781 821.248 679.781 816.497 690.489C814.406 695.96 812.316 701.432 810.162 707.069C801.8 707.069 793.438 707.069 784.823 707.069C782.732 710.717 780.642 714.364 778.488 718.122C776.397 712.651 774.307 707.18 772.153 701.542C756.288 694.807 756.288 694.807 740.479 690.489C740.479 675.899 740.479 661.308 740.479 646.275Z" fill="#264A8C"/>
<path d="M791.157 182.033C795.51 195.798 797.492 206.234 797.492 220.72C799.583 215.249 801.673 209.777 803.827 204.14C814.279 202.316 824.732 200.492 835.501 198.613C835.501 204.085 835.501 209.556 835.501 215.193C831.32 213.37 827.139 211.546 822.831 209.667C822.831 213.314 822.831 216.962 822.831 220.72C827.012 220.72 831.193 220.72 835.501 220.72C835.501 228.015 835.501 235.311 835.501 242.827C841.716 235.697 847.916 228.556 854.11 221.411C859.291 215.448 859.291 215.448 864.577 209.364C873.761 198.925 873.761 198.925 879.845 187.56C886.116 189.384 892.388 191.208 898.849 193.087C849.963 251.314 849.963 251.314 822.831 275.987C820.741 275.987 818.65 275.987 816.497 275.987C812.316 290.578 808.135 305.168 803.827 320.201C801.736 320.201 799.646 320.201 797.492 320.201C797.492 311.082 797.492 301.963 797.492 292.567C789.13 290.743 780.768 288.92 772.153 287.041C772.684 283.706 773.214 280.372 773.761 276.937C774.406 272.52 775.052 268.103 775.716 263.552C776.378 259.192 777.039 254.832 777.721 250.34C779.252 237.407 779.252 237.407 774.924 225.729C770.36 208.38 781.498 196.865 791.157 182.033Z" fill="#2E64A3"/>
<path d="M106.997 928.139C101.454 949.555 101.454 949.555 94.3269 955.772C100.598 957.596 106.87 959.42 113.331 961.299C107.06 966.77 100.788 972.242 94.3269 977.879C102.689 979.703 111.051 981.527 119.666 983.406C115.485 986.027 111.304 988.649 106.997 991.35C100.725 995.625 100.725 995.625 94.3269 999.986C94.3269 1001.81 94.3269 1003.63 94.3269 1005.51C83.8744 1005.51 73.4219 1005.51 62.6527 1005.51C62.6527 1009.16 62.6527 1012.81 62.6527 1016.57C54.2907 1016.57 45.9288 1016.57 37.3134 1016.57C20.1144 993.121 21.5476 968.94 27.8112 942.301C28.8564 939.451 29.9016 936.601 30.9786 933.665C56.8562 930.655 80.8498 928.139 106.997 928.139Z" fill="#214E91"/>
<path d="M911.522 104.659C908.948 129.364 897.47 142.53 879.601 160.79C871.807 171.144 871.807 171.144 877.052 184.365C879.848 198.613 879.848 198.613 871.212 211.998C867.137 216.244 863.062 220.49 858.864 224.865C854.838 229.168 850.812 233.471 846.665 237.904C835.504 248.353 835.504 248.353 822.835 253.88C826.04 241.894 829.169 231.775 835.504 220.72C831.323 220.72 827.142 220.72 822.835 220.72C822.835 217.072 822.835 213.425 822.835 209.666C827.016 207.843 831.197 206.019 835.504 204.14C825.052 204.14 814.6 204.14 803.83 204.14C801.74 211.435 799.649 218.73 797.495 226.247C795.405 222.599 793.314 218.951 791.161 215.193C802.867 189.662 818.135 172.428 841.839 154.399C846.02 154.399 850.201 154.399 854.509 154.399C855.946 151.322 857.383 148.244 858.864 145.073C870.369 127.389 886.501 104.659 911.522 104.659Z" fill="#164787"/>
<path d="M860.844 176.507C876.522 181.978 876.522 181.978 892.518 187.56C878.57 223.305 855.157 250.766 822.835 275.987C808.557 280.176 808.557 280.176 797.495 281.514C797.325 272.534 797.202 263.553 797.1 254.571C797.026 249.57 796.953 244.569 796.877 239.416C797.495 226.247 797.495 226.247 803.83 215.194C799.649 215.194 795.468 215.194 791.161 215.194C795.342 207.898 799.523 200.603 803.83 193.087C803.83 196.735 803.83 200.382 803.83 204.14C814.283 202.317 824.735 200.493 835.504 198.614C835.504 204.085 835.504 209.557 835.504 215.194C831.323 213.37 827.142 211.546 822.835 209.667C822.835 213.315 822.835 216.962 822.835 220.72C827.016 220.72 831.197 220.72 835.504 220.72C835.504 228.016 835.504 235.311 835.504 242.827C840.6 237.698 845.696 232.568 850.946 227.283C853.812 224.398 856.678 221.513 859.631 218.54C868.501 209.075 868.501 209.075 873.513 193.087C869.332 193.087 865.151 193.087 860.844 193.087C860.844 187.616 860.844 182.144 860.844 176.507Z" fill="#2A63A1"/>
<path d="M1038.22 16.2324C1044.49 18.0562 1050.76 19.88 1057.22 21.7591C1065.35 45.8592 1060.99 59.3638 1050.89 82.5528C1048.8 89.3921 1046.71 96.2314 1044.55 103.278C1038.22 121.24 1038.22 121.24 1025.55 132.293C1008.73 135.417 992.028 136.371 974.87 137.82C974.87 128.701 974.87 119.582 974.87 110.186C976.96 115.658 979.051 121.129 981.204 126.766C983.295 123.119 985.385 119.471 987.539 115.713C993.811 115.713 1000.08 115.713 1006.54 115.713C1008.11 112.065 1009.68 108.418 1011.29 104.66C1021.23 83.8593 1032.8 63.9215 1044.55 43.8659C1036.19 40.2183 1027.83 36.5707 1019.21 32.8125C1025.48 27.3411 1031.76 21.8697 1038.22 16.2324Z" fill="#173E72"/>
<path d="M917.855 248.354C922.036 248.354 926.217 248.354 930.525 248.354C929.618 254.649 929.618 254.649 928.694 261.07C927.64 269.309 927.64 269.309 926.565 277.715C925.831 283.165 925.096 288.615 924.338 294.23C922.576 310.4 922.576 310.4 936.86 325.728C924.317 325.728 911.774 325.728 898.851 325.728C897.699 329.654 896.548 333.579 895.362 337.624C893.769 342.703 892.177 347.783 890.536 353.016C888.993 358.082 887.449 363.147 885.859 368.366C883.875 372.534 881.891 376.701 879.846 380.995C860.842 386.522 860.842 386.522 843.817 379.614C836.565 374.826 836.565 374.826 829.167 369.942C829.167 364.47 829.167 358.999 829.167 353.362C832.989 351.88 836.811 350.398 840.748 348.871C874.104 334.603 892.996 322.822 907.462 292.59C912.823 277.96 916.104 263.627 917.855 248.354Z" fill="#DFB54E"/>
<path d="M721.477 430.734C723.567 434.382 725.658 438.03 727.811 441.788C735.063 442.985 735.063 442.985 742.461 444.206C761.14 447.616 770.464 453.222 784.825 463.895C782.734 467.542 780.644 471.19 778.49 474.948C776.4 473.124 774.309 471.3 772.155 469.421C770.065 473.069 767.974 476.717 765.82 480.475C770.001 482.298 774.182 484.122 778.49 486.001C753.496 493.27 726.691 496.566 702.472 486.001C702.472 475.059 702.472 464.116 702.472 452.841C706.653 452.841 710.834 452.841 715.142 452.841C717.232 445.546 719.323 438.251 721.477 430.734Z" fill="#9A9C93"/>
<path d="M1050.49 0.343726C1069.83 7.50303 1074.49 16.1412 1082.56 32.8131C1080.98 49.7386 1080.98 49.7386 1076.22 65.9733C1075.05 70.3048 1073.87 74.6364 1072.66 79.0992C1071.75 82.0629 1070.83 85.0266 1069.89 88.0801C1065.71 88.0801 1061.53 88.0801 1057.22 88.0801C1056.57 91.1578 1055.91 94.2355 1055.24 97.4064C1049.71 113.629 1043.98 124.45 1031.88 137.82C1007.08 146.476 987.719 152.253 962.198 143.347C962.198 132.404 962.198 121.461 962.198 110.187C964.288 110.187 966.379 110.187 968.532 110.187C968.532 119.306 968.532 128.425 968.532 137.82C988.304 135.723 1006.86 132.905 1025.55 126.767C1039.07 111.469 1039.07 111.469 1044.55 93.6068C1045.86 90.0732 1047.16 86.5395 1048.51 82.8988C1057.42 51.6798 1057.42 51.6798 1050.89 21.7597C1027.59 30.2036 1013.5 42.5195 996.247 58.3741C987.251 66.6397 978.06 74.7545 968.532 82.5534C964.351 82.5534 960.17 82.5534 955.863 82.5534C958.953 58.949 974.524 47.837 993.476 31.7768C999.151 26.911 1004.83 22.0451 1010.67 17.0318C1032.86 -0.648608 1032.86 -0.648606 1050.49 0.343726Z" fill="#B9C8D3"/>
<path d="M259.034 988.932C262.169 994.403 262.169 994.403 265.368 999.985C305.088 999.985 344.807 999.985 385.73 999.985C383.64 1018.22 381.549 1036.46 379.395 1055.25C377.305 1055.25 375.214 1055.25 373.061 1055.25C373.061 1044.31 373.061 1033.37 373.061 1022.09C366.422 1022.22 359.783 1022.35 352.943 1022.48C344.207 1022.58 335.472 1022.68 326.737 1022.78C320.178 1022.92 320.178 1022.92 313.486 1023.06C289.622 1023.26 279.404 1022.89 259.034 1011.04C198.842 1002.66 150.174 1004 95.0456 1027.1C68.663 1037.88 52.9277 1039.77 24.6449 1033.15C22.5544 1025.85 20.4639 1018.55 18.3101 1011.04C24.5815 1013.77 24.5815 1013.77 30.9797 1016.57C54.8941 1018.55 69.074 1016.54 91.5565 1008.6C122.369 998.171 152.643 995.709 185.391 993.422C191.099 992.97 196.807 992.517 202.688 992.051C242.772 988.932 242.772 988.932 259.034 988.932Z" fill="#7E8890"/>
<path d="M886.181 613.116C904.436 621.079 906.427 631.851 914.687 648.004C936.69 687.78 966.679 718.68 1000.21 751.284C964.782 751.284 933.676 735.647 905.185 718.124C895.035 703.915 889.59 691.5 884.572 675.4C879.345 661.527 872.831 656.099 860.841 646.276C860.841 642.629 860.841 638.981 860.841 635.223C876.52 640.694 876.52 640.694 892.515 646.276C890.425 635.334 888.334 624.391 886.181 613.116Z" fill="#25508E"/>
<path d="M854.506 248.354C857.25 251.09 859.993 253.826 862.82 256.645C873.494 266.77 873.494 266.77 892.515 264.935C889.399 300.269 889.399 300.269 873.906 316.402C869.595 319.48 865.283 322.557 860.841 325.728C856.66 329.376 852.479 333.024 848.171 336.782C839.784 342.377 831.346 347.915 822.832 353.362C818.651 349.714 814.47 346.067 810.162 342.308C803.891 342.308 797.619 342.308 791.158 342.308C789.067 338.661 786.977 335.013 784.823 331.255C791.094 331.255 797.366 331.255 803.827 331.255C803.827 327.607 803.827 323.96 803.827 320.202C808.008 318.378 812.189 316.554 816.497 314.675C818.326 308.748 820.155 302.82 822.04 296.713C829.278 275.663 837.755 264.43 854.506 248.354Z" fill="#1D569D"/>
<path d="M106.997 928.139C101.454 949.555 101.454 949.555 94.3277 955.772C100.599 957.596 106.871 959.42 113.332 961.299C107.061 966.77 100.789 972.242 94.3277 977.879C128.821 975.143 128.821 975.143 164.011 972.352C134.82 989.33 111.301 1002.76 75.3232 999.986C75.3232 996.338 75.3232 992.691 75.3232 988.932C69.0517 988.932 62.7802 988.932 56.3187 988.932C54.2282 983.461 52.1377 977.99 49.9839 972.352C59.0902 960.263 59.0902 960.263 68.9884 950.245C64.8074 946.598 60.6264 942.95 56.3187 939.192C75.8813 929.44 83.1348 928.139 106.997 928.139Z" fill="#143E87"/>
<path d="M1088.9 231.773C1088.9 240.892 1088.9 250.011 1088.9 259.407C1082.63 262.143 1082.63 262.143 1076.23 264.933C1074.14 259.462 1072.05 253.991 1069.89 248.353C1026.98 253.494 989.007 261.387 955.866 287.04C948.138 298.497 948.138 298.497 943.196 309.147C949.467 314.619 955.739 320.09 962.2 325.727C927.895 337.971 927.895 337.971 909.146 331.945C905.749 329.893 902.352 327.841 898.852 325.727C909.305 323.903 919.757 322.08 930.526 320.201C926.345 312.905 922.164 305.61 917.857 298.094C969.133 256.652 1016.54 229.248 1088.9 231.773Z" fill="#E0E2D9"/>
<path d="M37.3144 933.666C52.3596 932.63 52.3596 932.63 68.9886 933.666C73.1696 939.137 77.3505 944.609 81.6582 950.246C75.3867 955.204 75.3867 955.204 68.9886 960.263C54.1816 971.662 54.1816 971.662 56.3189 988.933C62.5904 988.933 68.8619 988.933 75.3234 988.933C75.3234 992.58 75.3234 996.228 75.3234 999.986C81.5949 1001.81 87.8664 1003.63 94.3279 1005.51C83.8754 1005.51 73.4229 1005.51 62.6537 1005.51C62.6537 1009.16 62.6537 1012.81 62.6537 1016.57C54.2918 1016.57 45.9298 1016.57 37.3144 1016.57C22.5234 996.404 22.719 979.294 24.6448 955.773C30.9796 942.301 30.9796 942.301 37.3144 933.666Z" fill="#265394"/>
<path d="M879.847 867.344C905.179 870.744 922.947 881.728 943.195 894.977C943.195 898.625 943.195 902.272 943.195 906.031C949.467 906.031 955.738 906.031 962.2 906.031C964.29 916.974 966.381 927.916 968.535 939.191C937.345 953.987 907.719 950.528 873.512 948.517C867.878 948.25 862.243 947.983 856.438 947.708C829.966 946.346 804.343 944.689 778.49 939.191C778.49 937.367 778.49 935.543 778.49 933.664C783.188 933.693 787.886 933.722 792.726 933.752C813.98 933.867 835.233 933.939 856.487 934.01C863.882 934.056 871.276 934.102 878.894 934.15C885.978 934.168 893.062 934.186 900.361 934.204C910.164 934.247 910.164 934.247 920.165 934.292C937.554 934.307 937.554 934.307 955.865 928.137C955.865 924.49 955.865 920.842 955.865 917.084C951.161 916.4 946.458 915.716 941.612 915.012C924.516 911.622 913.178 909.253 898.852 900.504C887.766 883.233 887.766 883.233 879.847 867.344Z" fill="#ABB8C2"/>
<path d="M791.161 215.193C795.342 215.193 799.523 215.193 803.831 215.193C803.831 235.255 803.831 255.317 803.831 275.987C805.921 275.987 808.012 275.987 810.165 275.987C808.075 290.578 805.984 305.168 803.831 320.201C797.559 322.024 791.288 323.848 784.826 325.727C782.736 323.904 780.645 322.08 778.491 320.201C776.401 325.672 774.31 331.144 772.156 336.781C767.975 336.781 763.795 336.781 759.487 336.781C763.712 294 775.247 255.854 791.161 215.193Z" fill="#1D5499"/>
<path d="M955.865 917.084C955.865 920.732 955.865 924.379 955.865 928.138C936.326 939.502 932.29 940.572 910.234 940.465C905.065 940.454 899.896 940.443 894.57 940.432C889.189 940.365 883.808 940.297 878.263 940.227C870.338 940.222 870.338 940.222 862.253 940.216C831.693 940.028 802.128 939.095 772.155 933.664C770.064 930.017 767.974 926.369 765.82 922.611C829.224 919.169 892.3 916.106 955.865 917.084Z" fill="#0D285C"/>
<path d="M1069.89 242.827C1078.13 263.912 1075.55 283.037 1073.45 305.003C1072.81 311.984 1072.16 318.966 1071.5 326.159C1070.97 331.488 1070.44 336.817 1069.89 342.308C1067.8 342.308 1065.71 342.308 1063.56 342.308C1063.56 325.893 1063.56 309.479 1063.56 292.567C1055.19 292.567 1046.83 292.567 1038.22 292.567C1036.13 296.215 1034.04 299.863 1031.88 303.621C1031.88 299.973 1031.88 296.326 1031.88 292.567C1027.7 292.567 1023.52 292.567 1019.21 292.567C1017.12 298.039 1015.03 303.51 1012.88 309.148C1008.7 309.148 1004.52 309.148 1000.21 309.148C1008.4 293.206 1017.05 282.22 1031.88 270.461C1025.61 268.637 1019.34 266.813 1012.88 264.934C1014.97 259.463 1017.06 253.991 1019.21 248.354C1035.94 246.53 1052.66 244.706 1069.89 242.827Z" fill="#255F99"/>
<path d="M1012.88 480.475C1027.57 484.58 1042.3 488.076 1057.22 491.529C1057.22 480.586 1057.22 469.643 1057.22 458.369C1061.4 458.369 1065.58 458.369 1069.89 458.369C1070.81 464.524 1071.72 470.679 1072.66 477.021C1074.86 496.069 1074.86 496.069 1082.56 508.109C1047.38 506.17 1023.94 502.818 993.874 486.002C958.194 476.664 923.231 472.265 886.182 469.422C907.319 432.542 983.035 468.904 1012.88 480.475Z" fill="#19396C"/>
<path d="M765.822 264.934C771.992 282.007 771.564 293.139 767.405 310.529C763.333 337.02 772.037 351.025 789.107 372.532C797.128 381.718 797.128 381.718 810.165 386.521C808.793 396.438 808.793 396.438 807.394 406.555C806.863 410.595 806.332 414.634 805.785 418.796C803.831 430.735 803.831 430.735 798.288 448.351C795.397 465.385 795.397 465.385 812.937 479.784C820.972 485.597 820.972 485.597 829.17 491.528C827.079 495.176 824.989 498.824 822.835 502.582C786.746 479.135 786.746 479.135 778.491 461.131C778.491 444.861 783.909 434.568 791.161 419.681C794.277 404.533 794.409 396.166 784.282 383.326C776.262 374.995 767.885 366.929 759.487 358.888C750.9 343.905 752.08 331.733 751.964 315.019C751.874 309.156 751.784 303.293 751.692 297.252C753.152 281.514 753.152 281.514 765.822 264.934Z" fill="#E8EBE6"/>
<path d="M791.158 823.131C801.61 823.131 812.063 823.131 822.832 823.131C827.583 835.566 827.583 835.566 829.167 850.764C814.171 868.208 802.412 874.004 778.488 878.398C778.178 881.796 777.868 885.194 777.548 888.696C777.074 893.163 776.601 897.629 776.113 902.232C775.672 906.656 775.231 911.08 774.776 915.638C772.153 928.138 772.153 928.138 759.484 944.718C743.223 923.439 747.873 913.848 753.149 889.451C740.606 891.275 728.063 893.099 715.14 894.978C713.05 887.683 710.959 880.387 708.805 872.871C727.904 861.763 741.841 857.804 763.839 852.837C770.135 851.398 776.431 849.959 782.918 848.476C787.728 847.407 792.537 846.339 797.493 845.238C795.402 837.942 793.312 830.647 791.158 823.131Z" fill="#A4AAA7"/>
<path d="M892.518 88.0801C900.88 88.0801 909.242 88.0801 917.857 88.0801C923.4 101.897 923.4 101.897 924.192 121.24C915.702 133.686 906.07 144.291 895.339 155.329C884.894 165.702 884.894 165.702 879.848 182.034C883.768 182.262 887.688 182.49 891.726 182.725C905.188 187.561 905.188 187.561 913.502 200.341C919.788 229.754 915.577 257.501 911.522 287.041C909.432 287.041 907.341 287.041 905.188 287.041C905.098 280.85 905.008 274.659 904.915 268.281C904.618 260.142 904.313 252.003 904 243.864C903.963 239.785 903.926 235.707 903.888 231.504C903.584 217.982 903.584 217.982 898.853 198.614C883.685 187.109 883.685 187.109 867.179 182.034C876.388 159.268 889.773 141.196 905.188 121.24C907.278 115.769 909.369 110.297 911.522 104.66C870.183 135.714 831.969 167.191 797.495 204.141C795.405 200.493 793.314 196.846 791.161 193.087C806.68 163.065 826.217 145.547 855.202 124.802C868.517 115.309 868.517 115.309 881.432 99.4789C886.92 93.8365 886.92 93.8365 892.518 88.0801Z" fill="#C2D0D7"/>
<path d="M835.502 541.269C839.683 548.564 843.864 555.859 848.172 563.375C856.534 559.728 864.896 556.08 873.511 552.322C890.223 585.734 894.473 609.853 892.516 646.276C871.611 642.628 850.706 638.981 829.167 635.222C831.258 604.218 833.348 573.213 835.502 541.269Z" fill="#245595"/>
<path d="M917.856 878.397C940.526 887.526 960.604 899.304 981.204 911.558C978.051 931.911 974.471 942.785 955.865 955.771C933.27 965.627 907.103 962.319 882.222 962.334C876.661 962.402 871.1 962.47 865.371 962.539C829.978 962.608 799.783 958.982 765.82 950.245C765.82 944.773 765.82 939.302 765.82 933.664C770.71 933.832 775.6 933.999 780.638 934.172C802.753 934.927 824.869 935.678 846.985 936.428C854.681 936.691 862.378 936.955 870.307 937.227C881.362 937.601 881.362 937.601 892.64 937.982C899.441 938.214 906.242 938.445 913.248 938.684C925.337 939.039 937.435 939.191 949.53 939.191C953.711 939.191 957.892 939.191 962.2 939.191C962.004 925.839 962.004 925.839 955.865 911.558C937.069 901.283 937.069 901.283 917.856 894.978C917.856 889.506 917.856 884.035 917.856 878.397Z" fill="#97A3A7"/>
<path d="M961.803 473.222C967.086 474.155 972.369 475.088 977.813 476.05C993.873 480.476 993.873 480.476 1008.42 488.291C1030.72 499.702 1053.52 505.539 1078.21 511.909C1085.24 513.774 1085.24 513.774 1092.42 515.676C1103.9 518.714 1115.4 521.706 1126.9 524.689C1128.99 521.042 1131.09 517.394 1133.24 513.636C1133.24 519.107 1133.24 524.579 1133.24 530.216C1086.48 532.848 1055.18 524.853 1012.88 508.109C989.348 499.297 966.1 493.324 941.214 488.075C934.445 486.636 927.675 485.197 920.7 483.714C915.58 482.645 910.46 481.577 905.185 480.476C926.1 469.224 937.977 468.706 961.803 473.222Z" fill="#EAEBE4"/>
<path d="M512.428 966.825C497.485 979.862 491.628 980.081 471.153 982.584C465.352 983.298 459.551 984.012 453.574 984.747C447.387 985.444 441.201 986.141 434.826 986.859C425.436 987.952 425.436 987.952 415.856 989.068C367.484 994.385 320.472 996.419 271.705 994.458C271.705 992.634 271.705 990.811 271.705 988.932C286.338 988.932 300.972 988.932 316.048 988.932C316.048 985.284 316.048 981.636 316.048 977.878C332.772 977.878 349.496 977.878 366.727 977.878C366.727 976.054 366.727 974.231 366.727 972.351C385.071 971.421 403.416 970.501 421.761 969.588C429.521 969.193 429.521 969.193 437.437 968.789C462.469 967.552 487.343 966.468 512.428 966.825Z" fill="#152D6E"/>
<path d="M911.522 104.659C907.868 133.347 893.485 144.265 869.158 162.344C858.15 173.778 856.767 184.031 854.509 198.613C850.328 198.613 846.147 198.613 841.839 198.613C841.839 194.965 841.839 191.318 841.839 187.56C835.567 187.56 829.296 187.56 822.834 187.56C825.562 163.187 844.51 149.812 863.615 133.674C866.804 130.875 869.993 128.075 873.278 125.19C897.16 104.659 897.16 104.659 911.522 104.659Z" fill="#1C5090"/>
<path d="M195.685 955.773C172.96 967.288 150.03 971.255 124.418 975.807C112.414 977.966 112.414 977.966 100.167 980.168C94.0591 981.237 87.951 982.305 81.6577 983.406C90.0197 976.111 98.3817 968.816 106.997 961.3C100.726 961.3 94.4541 961.3 87.9925 961.3C87.9925 954.004 87.9925 946.709 87.9925 939.193C124.534 928.566 160.616 945.175 195.685 955.773Z" fill="#3160A2"/>
<path d="M753.149 696.017C761.511 697.84 769.873 699.664 778.488 701.543C776.398 714.31 774.307 727.077 772.153 740.23C775.681 738.292 779.209 736.355 782.843 734.358C801.114 727.896 810.624 729.457 829.167 734.704C831.257 738.351 833.348 741.999 835.502 745.757C848.045 745.757 860.588 745.757 873.511 745.757C869.33 736.638 865.149 727.519 860.841 718.123C869.203 721.771 877.565 725.419 886.18 729.177C884.201 739.539 884.201 739.539 879.846 751.284C860.841 762.337 860.841 762.337 845.4 760.955C829.167 756.81 829.167 756.81 817.289 749.902C802.085 743.818 802.085 743.818 780.072 753.356C773.278 756.32 766.484 759.284 759.484 762.337C759.557 758.476 759.631 754.614 759.706 750.636C759.764 745.606 759.821 740.576 759.88 735.394C759.953 730.393 760.027 725.392 760.102 720.239C760.513 706.977 760.513 706.977 753.149 696.017Z" fill="#DDE0D9"/>
<path d="M271.705 966.824C340.691 966.824 409.677 966.824 480.754 966.824C480.754 968.648 480.754 970.472 480.754 972.351C451.487 974.175 422.22 975.999 392.066 977.878C392.066 979.701 392.066 981.525 392.066 983.404C337.768 984.194 337.768 984.194 316.048 977.878C316.048 981.525 316.048 985.173 316.048 988.931C301.415 988.931 286.781 988.931 271.705 988.931C271.705 981.636 271.705 974.341 271.705 966.824Z" fill="#425D9C"/>
<path d="M836.542 384.082C841.687 385.685 846.831 387.288 852.132 388.939C857.309 390.528 862.486 392.117 867.82 393.754C871.789 395.015 875.758 396.276 879.847 397.575C877.756 403.046 875.666 408.518 873.512 414.155C877.693 414.155 881.874 414.155 886.182 414.155C886.182 417.803 886.182 421.45 886.182 425.208C858.734 430.34 837.611 430.34 810.164 425.208C810.164 412.442 810.164 399.675 810.164 386.521C822.833 380.995 822.833 380.995 836.542 384.082Z" fill="#2769B3"/>
<path d="M873.51 148.874C875.6 152.522 877.691 156.169 879.845 159.927C873.925 171.155 867.604 182.23 860.84 193.088C865.021 193.088 869.202 193.088 873.51 193.088C869.754 211.834 862.313 221.886 847.775 235.92C844.304 239.311 840.833 242.702 837.258 246.196C834.587 248.732 831.917 251.268 829.166 253.881C825.207 243.519 825.207 243.519 822.831 231.775C827.012 228.127 831.193 224.479 835.501 220.721C831.32 220.721 827.139 220.721 822.831 220.721C822.831 217.074 822.831 213.426 822.831 209.668C827.012 207.844 831.193 206.02 835.501 204.141C825.048 204.141 814.596 204.141 803.827 204.141C806.202 193.433 806.202 193.433 810.161 182.034C814.342 180.21 818.523 178.387 822.831 176.508C822.831 180.155 822.831 183.803 822.831 187.561C829.103 187.561 835.374 187.561 841.836 187.561C841.836 191.209 841.836 194.856 841.836 198.614C846.017 198.614 850.198 198.614 854.505 198.614C854.113 194.511 853.721 190.407 853.318 186.179C854.701 168.473 860.222 161.915 873.51 148.874Z" fill="#0F3E7D"/>
<path d="M208.354 939.192C210.445 939.192 212.535 939.192 214.689 939.192C214.689 948.311 214.689 957.43 214.689 966.826C225.141 963.178 235.594 959.531 246.363 955.772C246.363 964.892 246.363 974.011 246.363 983.406C196.191 986.142 196.191 986.142 145.006 988.933C145.006 981.637 145.006 974.342 145.006 966.826C164.184 963.318 164.184 963.318 183.361 959.81C198.031 956.198 198.031 956.198 208.354 939.192Z" fill="#234076"/>
<path d="M886.18 314.674C886.18 320.145 886.18 325.617 886.18 331.254C843.42 353.361 843.42 353.361 829.166 353.361C831.257 358.832 833.347 364.304 835.501 369.941C854.559 376.712 854.559 376.712 873.51 380.994C875.339 374.839 877.168 368.684 879.053 362.342C886.18 342.307 886.18 342.307 898.849 331.254C912.311 333.326 912.311 333.326 924.189 336.781C920.269 338.832 916.349 340.884 912.311 342.998C895.262 356.122 892.161 367.653 886.18 386.521C884.089 390.169 881.999 393.816 879.845 397.574C859.764 393.681 840.983 389.554 822.831 380.994C817.684 366.487 817.684 366.487 816.497 353.361C836.308 339.401 857.015 329.938 879.845 320.201C881.935 318.377 884.026 316.553 886.18 314.674Z" fill="#E8EADE"/>
<path d="M404.736 1005.51C408.917 1005.51 413.098 1005.51 417.405 1005.51C416.883 1010.98 416.36 1016.45 415.822 1022.09C415.614 1044.39 424.633 1059.44 437.202 1078.48C442.745 1088.41 442.745 1088.41 442.745 1104.99C431.659 1104.65 431.659 1104.65 417.405 1099.47C395.615 1073.06 387.667 1055.35 392.066 1022.09C396.247 1016.62 400.428 1011.15 404.736 1005.51Z" fill="#1E3774"/>
<path d="M886.182 469.421C929.064 467.64 960.488 472.244 1000.21 486.001C1006.04 487.989 1011.87 489.977 1017.88 492.025C1033.15 497.297 1048.37 502.658 1063.56 508.108C1042.5 514.147 1028.04 512.974 1006.54 508.799C1001.19 507.787 995.83 506.776 990.31 505.733C980.736 503.779 971.191 501.707 961.705 499.451C942.918 495.753 924.354 496.733 905.186 497.055C892.24 530.939 898.42 567.382 905.186 602.062C885.894 585.231 886.305 572.842 885.563 549.191C885.636 541.903 885.71 534.615 885.786 527.106C885.814 523.391 885.843 519.676 885.872 515.848C885.952 505.899 886.065 495.95 886.182 486.001C886.182 480.53 886.182 475.058 886.182 469.421Z" fill="#A8B6C0"/>
<path d="M993.874 441.788C1019.4 444.845 1044.68 448.176 1069.89 452.841C1071.34 463.996 1072.78 475.15 1074.22 486.304C1075.67 497.464 1075.67 497.464 1082.56 508.108C1047.56 506.179 1023.65 503.092 993.874 486.002C979.196 482.013 964.426 478.261 949.53 474.948C949.53 473.124 949.53 471.301 949.53 469.422C959.69 469.122 969.853 468.908 980.016 468.731C985.675 468.603 991.334 468.474 997.165 468.342C1012.88 469.422 1012.88 469.422 1031.88 480.475C1031.88 476.827 1031.88 473.18 1031.88 469.422C1025.61 467.598 1019.34 465.774 1012.88 463.895C1012.88 460.247 1012.88 456.6 1012.88 452.841C1006.61 449.194 1000.34 445.546 993.874 441.788Z" fill="#194279"/>
<path d="M1030.44 39.9577C1037.43 41.8919 1037.43 41.8919 1044.55 43.8652C1036.81 71.9939 1027.5 92.587 1006.54 115.712C993.079 122.621 993.079 122.621 981.201 126.766C977.02 130.413 972.839 134.061 968.532 137.819C962.847 118.911 959.855 102.073 962.197 82.5521C978.462 59.6822 997.592 36.9301 1030.44 39.9577Z" fill="#2E659F"/>
<path d="M930.525 375.468C938.887 379.115 947.249 382.763 955.864 386.521C943.756 406.064 932.892 418.519 911.521 430.735C919.883 428.911 928.244 427.087 936.86 425.208C938.95 430.68 941.041 436.151 943.195 441.788C939.014 441.788 934.833 441.788 930.525 441.788C930.525 445.436 930.525 449.083 930.525 452.842C906.306 460.704 886.734 465.224 860.842 463.895C862.932 458.424 865.023 452.952 867.177 447.315C860.905 449.139 854.634 450.962 848.172 452.842C846.082 447.37 843.991 441.899 841.837 436.261C846.672 436.375 851.506 436.489 856.487 436.607C874.157 436.977 874.157 436.977 892.516 430.735C893.104 424.75 893.104 424.75 893.704 418.645C900.4 398.423 912.822 389.328 930.525 375.468Z" fill="#276DAF"/>
<path d="M803.83 414.155C805.921 417.803 808.011 421.451 810.165 425.209C818.527 423.385 826.889 421.561 835.504 419.682C835.504 432.449 835.504 445.215 835.504 458.369C839.685 458.369 843.866 458.369 848.174 458.369C843.027 469.077 843.027 469.077 835.504 480.476C829.233 482.299 822.961 484.123 816.5 486.002C803.434 477.021 803.434 477.021 791.161 463.896C792.434 445.746 797.253 431.37 803.83 414.155Z" fill="#2360A5"/>
<path d="M778.491 872.871C799.869 875.896 810.687 878.701 829.17 889.451C833.351 891.275 837.532 893.099 841.84 894.978C837.659 897.486 833.478 899.993 829.17 902.577C824.989 905.541 820.808 908.504 816.5 911.558C816.5 915.206 816.5 918.853 816.5 922.611C797.686 922.611 778.871 922.611 759.487 922.611C765.758 906.197 772.03 889.783 778.491 872.871Z" fill="#255D9D"/>
<path d="M784.822 707.07C799.868 706.379 799.868 706.379 816.497 707.07C820.678 710.718 824.859 714.365 829.166 718.123C843.848 722.098 858.629 725.811 873.51 729.177C873.51 734.648 873.51 740.12 873.51 745.757C860.967 747.581 848.424 749.404 835.501 751.283C831.32 745.812 827.139 740.341 822.831 734.703C806.108 736.527 789.384 738.351 772.153 740.23C776.334 729.287 780.515 718.344 784.822 707.07Z" fill="#1D3D82"/>
<path d="M677.131 629.696C679.222 629.696 681.312 629.696 683.466 629.696C685.556 642.463 687.647 655.23 689.801 668.383C691.891 655.617 693.982 642.85 696.136 629.696C706.588 631.52 717.041 633.344 727.81 635.223C727.81 657.109 727.81 678.994 727.81 701.543C719.448 696.072 711.086 690.601 702.47 684.963C701.556 689.865 700.641 694.766 699.699 699.816C696.704 715.201 693.407 730.475 689.801 745.757C706.525 747.581 723.249 749.405 740.479 751.284C736.298 756.755 732.117 762.227 727.81 767.864C685.371 754.4 685.371 754.4 677.131 740.921C677.131 727.224 680.238 714.919 683.466 701.543C681.375 697.896 679.285 694.248 677.131 690.49C676.686 680.134 676.597 669.765 676.735 659.402C676.792 653.86 676.849 648.317 676.908 642.606C676.982 638.346 677.055 634.086 677.131 629.696Z" fill="#6B7A97"/>
<path d="M765.82 287.041C776.272 288.865 786.724 290.689 797.494 292.568C799.584 305.334 801.675 318.101 803.828 331.255C797.557 331.255 791.286 331.255 784.824 331.255C800.503 336.726 800.503 336.726 816.498 342.308C818.589 356.899 820.679 371.489 822.833 386.522C808.976 386.522 808.976 386.522 791.159 380.995C772.347 364.02 759.889 346.717 758.916 322.792C760.481 310.632 762.628 298.951 765.82 287.041Z" fill="#164A94"/>
<path d="M1038.22 16.2324C1044.49 18.0562 1050.76 19.88 1057.22 21.7591C1065.35 45.8592 1060.99 59.3638 1050.89 82.5528C1048.8 89.3921 1046.71 96.2314 1044.55 103.278C1038.22 121.24 1038.22 121.24 1025.55 132.293C1008.73 135.417 992.028 136.371 974.87 137.82C974.87 128.701 974.87 119.582 974.87 110.186C976.96 115.658 979.051 121.129 981.204 126.766C983.295 123.119 985.385 119.471 987.539 115.713C993.811 115.713 1000.08 115.713 1006.54 115.713C1008.11 112.065 1009.68 108.418 1011.29 104.66C1021.23 83.8593 1032.8 63.9215 1044.55 43.8659C1036.19 40.2183 1027.83 36.5707 1019.21 32.8125C1025.48 27.3411 1031.76 21.8697 1038.22 16.2324Z" fill="#183E72"/>
<path d="M696.137 613.116C709.598 615.189 709.598 615.189 721.476 618.643C721.476 622.291 721.476 625.938 721.476 629.696C727.617 631.292 733.758 632.888 740.085 634.532C759.485 640.75 759.485 640.75 765.82 651.803C757.458 649.979 749.096 648.155 740.481 646.276C740.481 671.81 740.481 697.343 740.481 723.65C727.938 720.003 715.395 716.355 702.472 712.597C702.472 718.068 702.472 723.54 702.472 729.177C698.291 729.177 694.11 729.177 689.802 729.177C693.983 714.586 698.164 699.996 702.472 684.963C708.743 686.787 715.015 688.611 721.476 690.49C723.567 672.252 725.657 654.014 727.811 635.223C717.359 633.399 706.906 631.575 696.137 629.696C696.398 635.738 696.66 641.779 696.929 648.004C696.137 668.383 696.137 668.383 683.467 684.963C683.126 675.063 682.88 665.16 682.675 655.257C682.528 649.743 682.381 644.229 682.23 638.548C683.467 624.17 683.467 624.17 696.137 613.116Z" fill="#DDE2E3"/>
<path d="M740.48 690.49C742.57 690.49 744.661 690.49 746.815 690.49C753.086 712.376 759.358 734.262 765.819 756.811C774.834 752.707 774.834 752.707 784.032 748.521C803.828 740.231 803.828 740.231 816.498 740.231C816.498 751.284 816.498 751.284 807.392 760.265C783.431 771.481 760.797 769.205 734.145 767.864C734.145 764.216 734.145 760.569 734.145 756.811C719.512 753.163 704.878 749.515 689.801 745.757C689.801 740.286 689.801 734.814 689.801 729.177C693.982 729.177 698.163 729.177 702.471 729.177C702.471 723.706 702.471 718.234 702.471 712.597C716.21 715.394 727.808 718.123 740.48 723.65C740.48 712.708 740.48 701.765 740.48 690.49Z" fill="#8E94A2"/>
<path d="M810.164 850.764C835.858 853.35 857.459 855.625 879.847 867.344C879.847 870.991 879.847 874.639 879.847 878.397C892.39 878.397 904.933 878.397 917.856 878.397C917.856 883.869 917.856 889.34 917.856 894.977C923.866 896.345 929.876 897.713 936.068 899.122C955.865 906.031 955.865 906.031 964.575 917.775C965.882 921.195 967.188 924.614 968.534 928.137C944.73 949.849 944.73 949.849 924.373 950.872C919.397 950.843 914.421 950.814 909.294 950.784C903.904 950.766 898.515 950.748 892.962 950.73C887.327 950.684 881.693 950.637 875.887 950.59C870.204 950.565 864.52 950.54 858.665 950.514C844.609 950.449 830.554 950.358 816.498 950.244C816.498 948.42 816.498 946.597 816.498 944.718C824.436 944.447 832.373 944.176 840.551 943.897C851.01 943.482 861.469 943.065 871.928 942.645C877.154 942.474 882.381 942.303 887.765 942.127C895.36 941.806 895.36 941.806 903.107 941.479C910.074 941.219 910.074 941.219 917.181 940.953C932.104 938.982 942.78 934.567 955.865 928.137C955.865 924.49 955.865 920.842 955.865 917.084C951.217 916.433 946.569 915.781 941.78 915.11C924.191 911.557 911.78 906.676 896.154 898.928C888.59 895.214 888.59 895.214 880.874 891.426C875.7 888.836 870.527 886.247 865.197 883.578C859.902 880.967 854.606 878.356 849.15 875.666C836.132 869.241 823.138 862.782 810.164 856.29C810.164 854.467 810.164 852.643 810.164 850.764Z" fill="#E0E7EB"/>
<path d="M81.6577 911.559C116.347 913.471 141.052 916.141 170.345 933.665C184.227 937.511 184.227 937.511 195.685 939.192C195.685 935.544 195.685 931.897 195.685 928.139C214.689 922.612 214.689 922.612 227.359 928.139C227.359 933.61 227.359 939.082 227.359 944.719C233.63 946.543 239.902 948.366 246.363 950.245C242.182 950.245 238.001 950.245 233.694 950.245C231.603 955.717 229.513 961.188 227.359 966.826C223.178 966.826 218.997 966.826 214.689 966.826C212.599 959.53 210.508 952.235 208.354 944.719C206.264 948.366 204.173 952.014 202.019 955.772C192.776 955.142 183.538 954.437 174.305 953.7C166.588 953.123 166.588 953.123 158.715 952.534C145.006 950.245 145.006 950.245 132.336 939.192C124.889 936.456 117.442 933.721 109.769 930.902C87.9925 922.612 87.9925 922.612 81.6577 911.559Z" fill="#CED5DD"/>
<path d="M208.352 939.192C210.443 939.192 212.533 939.192 214.687 939.192C214.687 948.311 214.687 957.43 214.687 966.826C225.14 963.178 235.592 959.531 246.361 955.772C246.361 964.892 246.361 974.011 246.361 983.406C241.041 983.57 241.041 983.57 235.614 983.738C219.529 984.265 203.449 984.871 187.368 985.479C178.996 985.735 178.996 985.735 170.455 985.997C165.085 986.21 159.716 986.424 154.184 986.644C149.242 986.818 144.299 986.992 139.206 987.171C124.089 988.357 124.089 988.357 106.995 999.986C89.9701 1000.68 89.9701 1000.68 75.3208 999.986C106.061 982.107 136.417 967.819 172.719 960.954C197.175 957.811 197.175 957.811 208.352 939.192Z" fill="#1B3A75"/>
<path d="M227.357 939.192C243.036 941.928 243.036 941.928 259.031 944.719C259.031 948.367 259.031 952.014 259.031 955.772C266.87 955.27 266.87 955.27 274.868 954.758C294.731 953.501 314.597 952.283 334.464 951.074C347.705 950.247 360.938 949.353 374.172 948.454C418.957 945.544 461.499 943.994 506.089 950.246C506.089 952.07 506.089 953.893 506.089 955.772C453.166 962.324 400.63 961.926 347.323 961.645C338.122 961.617 328.92 961.592 319.719 961.569C297.378 961.509 275.037 961.414 252.696 961.299C250.606 966.771 248.515 972.242 246.361 977.879C246.361 970.584 246.361 963.289 246.361 955.772C242.18 953.949 237.999 952.125 233.692 950.246C231.601 946.598 229.511 942.951 227.357 939.192Z" fill="#B5B9C0"/>
<path d="M955.864 347.834C960.045 346.011 964.226 344.187 968.534 342.308C968.534 364.414 968.534 364.414 955.864 380.995C950.899 381.678 945.934 382.362 940.819 383.067C918.241 387.757 912.761 398.496 898.851 414.155C884.597 418.645 884.597 418.645 873.511 419.681C873.511 403.019 876.802 392.774 883.013 377.195C884.777 372.728 886.541 368.261 888.358 363.659C889.73 360.261 891.102 356.862 892.516 353.361C894.606 360.656 896.697 367.952 898.851 375.468C907.213 375.468 915.575 375.468 924.19 375.468C924.19 366.349 924.19 357.23 924.19 347.834C936.86 342.308 936.86 342.308 955.864 347.834Z" fill="#3C7EBC"/>
<path d="M506.094 944.717C514.455 948.364 522.817 952.012 531.433 955.77C533.017 968.551 533.017 968.551 531.433 983.404C505.066 1005.55 477.828 1003.5 442.745 1005.51C444.836 1027.4 446.926 1049.28 449.08 1071.83C436.41 1066.3 436.41 1066.3 429.284 1051.8C423.741 1033.14 423.741 1033.14 423.741 994.457C467.641 986.25 467.641 986.25 512.428 977.877C510.338 966.934 508.247 955.991 506.094 944.717Z" fill="#858F98"/>
<path d="M512.428 966.825C497.485 979.862 491.628 980.081 471.153 982.584C465.352 983.298 459.551 984.012 453.574 984.747C447.387 985.444 441.201 986.141 434.826 986.859C425.436 987.952 425.436 987.952 415.856 989.068C367.484 994.385 320.472 996.419 271.705 994.458C271.705 992.634 271.705 990.811 271.705 988.932C286.338 988.932 300.972 988.932 316.048 988.932C316.048 985.284 316.048 981.636 316.048 977.878C332.772 977.878 349.496 977.878 366.727 977.878C366.727 976.054 366.727 974.231 366.727 972.351C385.071 971.421 403.416 970.501 421.761 969.588C429.521 969.193 429.521 969.193 437.437 968.789C462.469 967.552 487.343 966.468 512.428 966.825Z" fill="#152D6E"/>
<path d="M949.529 71.499C969.009 88.4941 968.421 105.012 968.929 128.493C968.799 133.395 968.668 138.296 968.533 143.346C988.174 143.273 1006.53 142.289 1025.55 137.819C1041.59 122.581 1041.59 122.581 1050.89 104.659C1055.07 99.1878 1059.25 93.7164 1063.56 88.0791C1066.61 110.452 1064.43 119.971 1050.89 139.547C1037.07 152.632 1026.24 157.141 1006.15 159.926C974.186 159.926 974.186 159.926 955.864 148.873C943.57 124.171 939.99 97.297 949.529 71.499Z" fill="#839DA4"/>
<path d="M44.0683 916.545C51.8954 916.641 51.8954 916.641 59.8806 916.739C65.115 916.789 70.3494 916.839 75.7424 916.89C79.7846 916.954 83.8268 917.019 87.9914 917.085C90.0819 920.732 92.1724 924.38 94.3263 928.138C73.9629 937.021 53.5545 933.982 30.978 933.665C31.0515 938.324 31.125 942.983 31.2007 947.784C31.2864 956.867 31.2864 956.867 31.3739 966.134C31.4474 972.161 31.5209 978.188 31.5966 984.398C30.978 999.985 30.978 999.985 24.6431 1011.04C20.4621 1011.04 16.2812 1011.04 11.9735 1011.04C-0.696187 994.458 -0.696187 994.458 0.491593 976.151C15.2455 917.733 15.2455 917.733 44.0683 916.545Z" fill="#BCC8D3"/>
<path d="M195.685 955.773C172.96 967.288 150.03 971.255 124.418 975.807C112.414 977.966 112.414 977.966 100.167 980.168C94.0591 981.237 87.951 982.305 81.6577 983.406C90.0197 976.111 98.3817 968.816 106.997 961.3C100.726 961.3 94.4541 961.3 87.9925 961.3C87.9925 954.004 87.9925 946.709 87.9925 939.193C124.534 928.566 160.616 945.175 195.685 955.773Z" fill="#3160A2"/>
<path d="M1069.89 298.095C1071.98 298.095 1074.07 298.095 1076.22 298.095C1076.22 316.333 1076.22 334.571 1076.22 353.362C1046.96 367.952 1017.69 382.543 987.537 397.575C987.537 404.871 987.537 412.166 987.537 419.682C1002.17 425.154 1016.8 430.625 1031.88 436.262C1031.88 438.086 1031.88 439.91 1031.88 441.789C1013.39 443.709 999.335 444.558 982.885 436.219C972.492 429.008 972.492 429.008 955.863 414.155C955.863 408.684 955.863 403.213 955.863 397.575C959.391 395.901 962.918 394.227 966.553 392.502C976.688 387.648 986.781 382.728 996.841 377.757C1007.01 372.802 1017.29 368.028 1027.72 363.508C1053.84 351.918 1053.84 351.918 1068.11 330.737C1070.38 317.165 1070.38 317.165 1069.89 298.095Z" fill="#D7E0E4"/>
<path d="M271.705 966.824C340.691 966.824 409.677 966.824 480.754 966.824C480.754 968.648 480.754 970.472 480.754 972.351C451.487 974.175 422.22 975.999 392.066 977.878C392.066 979.701 392.066 981.525 392.066 983.404C337.768 984.194 337.768 984.194 316.048 977.878C316.048 981.525 316.048 985.173 316.048 988.931C301.415 988.931 286.781 988.931 271.705 988.931C271.705 981.636 271.705 974.341 271.705 966.824Z" fill="#425D9C"/>
<path d="M836.542 384.082C841.687 385.685 846.831 387.288 852.132 388.939C857.309 390.528 862.486 392.117 867.82 393.754C871.789 395.015 875.758 396.276 879.847 397.575C877.756 403.046 875.666 408.518 873.512 414.155C877.693 414.155 881.874 414.155 886.182 414.155C886.182 417.803 886.182 421.45 886.182 425.208C858.734 430.34 837.611 430.34 810.164 425.208C810.164 412.442 810.164 399.675 810.164 386.521C822.833 380.995 822.833 380.995 836.542 384.082Z" fill="#276AB4"/>
<path d="M803.83 408.628C805.921 414.099 808.011 419.571 810.165 425.208C818.527 423.384 826.889 421.56 835.504 419.681C835.504 432.448 835.504 445.215 835.504 458.368C839.685 458.368 843.866 458.368 848.174 458.368C843.027 469.076 843.027 469.076 835.504 480.475C829.233 482.299 822.961 484.123 816.5 486.002C803.434 477.021 803.434 477.021 791.161 463.895C792.348 447.315 792.348 447.315 797.495 430.735C798.671 426.403 799.847 422.072 801.059 417.609C801.973 414.645 802.888 411.681 803.83 408.628Z" fill="#2461A6"/>
<path d="M404.736 1005.51C408.917 1005.51 413.098 1005.51 417.405 1005.51C416.883 1010.98 416.36 1016.45 415.822 1022.09C415.614 1044.39 424.633 1059.44 437.202 1078.48C442.745 1088.41 442.745 1088.41 442.745 1104.99C431.659 1104.65 431.659 1104.65 417.405 1099.47C395.615 1073.06 387.667 1055.35 392.066 1022.09C396.247 1016.62 400.428 1011.15 404.736 1005.51Z" fill="#1F3774"/>
<path d="M879.847 193.087C886.118 193.087 892.39 193.087 898.851 193.087C898.851 218.62 898.851 244.154 898.851 270.461C883.172 264.989 883.172 264.989 867.177 259.407C867.177 255.76 867.177 252.112 867.177 248.354C838.321 270.127 828.189 288.529 816.498 320.201C814.408 320.201 812.317 320.201 810.164 320.201C810.164 301.963 810.164 283.725 810.164 264.934C816.435 264.934 822.707 264.934 829.168 264.934C842.775 253.258 842.775 253.258 855.695 238.337C860.227 233.4 864.759 228.463 869.429 223.376C881.597 210.105 881.597 210.105 879.847 193.087Z" fill="#0C3375"/>
<path d="M905.186 198.614C909.959 287.448 909.959 287.448 879.847 325.728C859.398 337.622 852.708 337.892 829.168 336.782C848.173 325.728 848.173 325.728 861.337 324.023C867.364 322.131 867.364 322.131 873.512 320.202C880.752 307.418 880.752 307.418 884.598 292.223C886.133 287.143 887.668 282.064 889.25 276.83C890.328 272.905 891.406 268.979 892.516 264.935C886.245 264.935 879.973 264.935 873.512 264.935C871.421 268.582 869.331 272.23 867.177 275.988C867.177 272.34 867.177 268.693 867.177 264.935C862.996 263.111 858.815 261.287 854.507 259.408C834.895 278.8 824.468 295.287 816.498 320.202C814.408 320.202 812.317 320.202 810.164 320.202C810.164 301.964 810.164 283.725 810.164 264.935C816.435 264.935 822.707 264.935 829.168 264.935C843.971 251.576 843.971 251.576 858.467 234.883C863.513 229.305 868.56 223.727 873.759 217.979C877.859 213.413 881.958 208.846 886.182 204.141C892.516 198.614 892.516 198.614 905.186 198.614Z" fill="#103676"/>
<path d="M898.851 198.614C900.941 198.614 903.032 198.614 905.185 198.614C909.958 287.448 909.958 287.448 879.846 325.728C859.398 337.622 852.708 337.892 829.167 336.782C836.988 316.314 849.65 307.476 867.176 292.568C869.267 288.921 871.357 285.273 873.511 281.515C879.783 281.515 886.054 281.515 892.516 281.515C894.606 254.158 896.697 226.8 898.851 198.614Z" fill="#18407E"/>
</g>
</svg>
