<svg width="913" height="260" viewBox="0 0 913 260" fill="none" xmlns="http://www.w3.org/2000/svg">
<path d="M614.477 94.1743C618.919 94.9722 623.362 95.7702 627.939 96.5922C646.63 99.7827 665.363 102.558 684.16 105.228C690.078 121.865 690.777 126.597 684.16 143.915C688.341 143.915 692.522 143.915 696.83 143.915C701.011 134.796 705.192 125.677 709.499 116.281C713.68 116.281 717.861 116.281 722.169 116.281C722.169 123.576 722.169 130.872 722.169 138.388C715.898 138.388 709.626 138.388 703.165 138.388C701.074 143.859 698.984 149.331 696.83 154.968C688.442 158.753 679.985 162.422 671.491 166.021C668.02 169.555 664.549 173.089 660.974 176.729C641.729 191.529 622.284 195.038 597.848 199.527C588.648 201.35 579.451 203.185 570.257 205.032C565.836 205.908 561.415 206.783 556.86 207.685C542.1 210.804 527.874 214.911 513.516 219.216C484.385 227.093 454.999 230.718 424.828 234.069C420.096 234.626 415.365 235.182 410.49 235.756C376.052 239.205 376.052 239.205 354.749 226.815C361.412 226.409 361.412 226.409 368.211 225.995C405.348 223.442 439.253 218.953 475.111 210.235C502.761 203.619 528.519 197.603 557.464 199.182C557.986 194.964 558.509 190.746 559.047 186.401C564.997 167.8 570.284 164.707 589.138 154.968C609.627 150.931 609.627 150.931 631.898 148.405C639.313 147.529 646.727 146.652 654.367 145.75C660.018 145.144 665.668 144.539 671.491 143.915C662.96 126.023 655.545 118.279 635.857 109.373C628.802 106.181 621.746 102.989 614.477 99.701C614.477 97.8772 614.477 96.0534 614.477 94.1743Z" fill="#AF6C1E"/>
<path d="M133.032 94.1743C149.756 95.9981 166.48 97.8219 183.71 99.701C183.71 103.349 183.71 106.996 183.71 110.754C171.167 110.754 158.624 110.754 145.701 110.754C149.882 130.816 154.063 150.878 158.371 171.548C164.642 169.724 170.914 167.9 177.375 166.021C182.02 154.885 182.02 154.885 183.71 143.915C192.072 145.738 200.434 147.562 209.05 149.441C209.05 153.089 209.05 156.737 209.05 160.495C217.412 158.671 225.774 156.847 234.389 154.968C234.389 151.32 234.389 147.673 234.389 143.915C230.208 142.091 226.027 140.267 221.719 138.388C230.081 138.388 238.443 138.388 247.059 138.388C255.421 123.797 263.783 109.207 272.398 94.1743C276.579 94.1743 280.76 94.1743 285.068 94.1743C276.456 113.337 267.39 132.194 257.353 150.823C253.556 158.047 253.556 158.047 249.682 165.417C240.724 177.075 240.724 177.075 227.015 181.479C223.177 181.849 219.339 182.22 215.384 182.602C215.384 191.721 215.384 200.84 215.384 210.235C211.326 209.038 207.267 207.841 203.086 206.608C176.497 199.141 155.693 193.552 127.489 194.346C107.692 193.655 107.692 193.655 92.2512 179.838C88.9848 175.279 85.7184 170.719 82.353 166.021C95.0227 160.495 95.0227 160.495 133.032 160.495C133.032 138.609 133.032 116.723 133.032 94.1743Z" fill="#AC6C1C"/>
<path d="M703.164 138.387C707.345 138.387 711.526 138.387 715.834 138.387C711.61 156.809 707.387 175.231 703.164 193.654C710.113 191.93 717.062 190.206 724.222 188.429C733.434 186.252 742.648 184.078 751.863 181.909C756.432 180.762 761.001 179.615 765.708 178.434C793.424 172.03 809.974 169.696 836.195 182.6C836.195 186.248 836.195 189.896 836.195 193.654C827.964 192.514 819.733 191.374 811.252 190.2C783.752 187.437 761.659 190.198 735.11 196.568C722.168 199.18 722.168 199.18 696.829 199.18C696.829 188.238 696.829 177.295 696.829 166.02C690.558 166.02 684.286 166.02 677.825 166.02C676.265 169.376 674.705 172.731 673.098 176.188C657.654 199.4 629.795 206.981 601.807 215.761C570.905 222.393 539.405 226.202 507.969 230.349C494.403 232.299 481.041 234.652 467.612 237.22C463.404 238.02 459.196 238.821 454.861 239.646C443.373 241.871 431.898 244.142 420.423 246.416C386.073 250.449 355.842 244.752 323.47 234.759C318.579 233.27 313.687 231.781 308.648 230.247C305.046 229.114 301.445 227.981 297.735 226.814C297.735 221.342 297.735 215.871 297.735 210.234C303.876 212.856 310.017 215.477 316.343 218.178C392.569 246.053 472.72 224.739 548.357 204.707C569.358 199.377 590.333 195.257 611.705 191.236C643.45 184.57 657.403 176.807 677.825 154.967C684.096 153.143 690.368 151.319 696.829 149.44C698.92 145.792 701.01 142.145 703.164 138.387Z" fill="#E0DCCB"/>
<path d="M614.48 44.4331C620.752 46.2569 627.023 48.0807 633.485 49.9598C633.485 53.6074 633.485 57.2551 633.485 61.0132C637.666 61.0132 641.847 61.0132 646.154 61.0132C646.154 57.3656 646.154 53.718 646.154 49.9598C652.426 51.7836 658.697 53.6074 665.159 55.4865C667.249 60.9579 669.34 66.4294 671.494 72.0666C679.856 72.0666 688.218 72.0666 696.833 72.0666C703.96 92.7917 703.96 92.7917 696.833 105.227C705.195 108.874 713.557 112.522 722.172 116.28C717.991 116.28 713.81 116.28 709.503 116.28C705.322 125.399 701.141 134.518 696.833 143.914C692.652 143.914 688.471 143.914 684.163 143.914C684.163 131.147 684.163 118.38 684.163 105.227C680.685 106.331 677.206 107.435 673.622 108.573C630.959 114.859 584.725 87.2696 551.132 66.5399C537.03 62.2877 537.03 62.2877 525.792 61.0132C525.792 57.3656 525.792 53.718 525.792 49.9598C530.071 50.487 534.35 51.0142 538.759 51.5574C544.41 52.1701 550.061 52.7827 555.883 53.414C564.261 54.3758 564.261 54.3758 572.809 55.357C590.833 55.4999 598.795 51.5051 614.48 44.4331Z" fill="#C47F21"/>
<path d="M519.457 72.0693C559.656 72.8487 584.452 87.5043 617.325 106.935C630.894 114.785 644.098 121.349 658.823 127.336C658.823 130.984 658.823 134.632 658.823 138.39C648.933 140.266 639.033 142.1 629.129 143.916C620.861 145.455 620.861 145.455 612.425 147.025C579.731 151.689 579.731 151.689 563.801 149.443C549.399 136.727 549.399 136.727 536.086 120.083C531.595 114.632 527.103 109.182 522.476 103.567C519.389 98.6443 516.302 93.7215 513.122 88.6494C515.213 83.178 517.303 77.7066 519.457 72.0693Z" fill="#D4AD4C"/>
<path d="M517.08 33.0354C526.61 33.1103 526.61 33.1103 536.332 33.1866C541.215 33.2507 546.099 33.3148 551.13 33.3809C546.949 40.6761 542.768 47.9714 538.46 55.4877C534.279 53.6639 530.098 51.84 525.79 49.961C525.79 53.6086 525.79 57.2562 525.79 61.0144C533.899 61.7197 533.899 61.7197 542.172 62.4392C567.449 67.2332 584.019 75.826 605.768 87.957C612.774 91.8184 619.781 95.6797 626.999 99.6581C633.32 103.32 639.64 106.982 646.152 110.755C651.166 113.619 656.18 116.483 661.346 119.433C664.694 122.041 668.042 124.648 671.492 127.335C671.492 132.806 671.492 138.278 671.492 143.915C658.302 146.708 645.103 149.465 631.899 152.205C624.549 153.744 617.2 155.283 609.628 156.868C589.139 160.495 589.139 160.495 563.799 160.495C563.799 156.847 563.799 153.2 563.799 149.442C574.88 147.575 585.967 145.738 597.057 143.915C603.231 142.889 609.404 141.863 615.765 140.806C633.483 138.388 633.483 138.388 658.822 138.388C649.757 122.571 637.037 119.263 619.229 111.1C601.15 102.766 583.373 94.4829 566.002 85.0641C548.433 76.2401 533.119 74.0965 513.121 72.0678C511.03 64.7725 508.94 57.4773 506.786 49.961C498.424 48.1372 490.062 46.3133 481.447 44.4343C482.243 50.3225 482.243 50.3225 483.055 56.3296C483.7 61.4092 484.345 66.4888 485.01 71.7223C485.671 76.7877 486.333 81.853 487.014 87.0719C487.268 91.2396 487.521 95.4073 487.782 99.7013C481.447 105.228 481.447 105.228 464.422 106.264C443.438 105.228 443.438 105.228 424.037 99.3558C403.285 93.5777 394.06 93.1747 373.755 99.7013C359.229 110.523 359.229 110.523 348.415 121.808C344.234 119.984 340.053 118.16 335.746 116.281C369.577 77.489 369.577 77.4891 399.094 72.0678C405.365 75.7154 411.637 79.363 418.098 83.1212C427.903 86.3416 437.812 89.3257 447.793 92.1021C452.913 93.5412 458.033 94.9803 463.308 96.463C469.151 98.0659 469.151 98.0659 475.112 99.7013C473.021 94.2298 470.931 88.7584 468.777 83.1212C467.967 68.343 468.499 53.7138 468.777 38.9076C485.53 31.5997 498.409 32.846 517.08 33.0354Z" fill="#E9E4CF"/>
<path d="M551.131 154.969C566.81 157.705 566.81 157.705 582.805 160.496C580.715 164.144 578.624 167.791 576.471 171.549C572.29 171.549 568.109 171.549 563.801 171.549C561.71 180.668 559.62 189.787 557.466 199.183C507.003 209.682 456.577 219.215 405.43 226.816C407.521 217.697 409.611 208.578 411.765 199.183C416.077 198.955 420.388 198.727 424.831 198.492C451.39 191.59 467.887 176.853 487.783 160.496C500.453 166.023 500.453 166.023 519.457 177.076C519.457 173.428 519.457 169.781 519.457 166.023C529.91 166.023 540.362 166.023 551.131 166.023C551.131 162.375 551.131 158.727 551.131 154.969Z" fill="#DB901D"/>
<path d="M500.452 138.39C504.633 138.39 508.814 138.39 513.122 138.39C517.081 148.407 517.081 148.407 519.456 160.496C513.185 168.704 513.185 168.704 506.787 177.076C500.515 173.429 494.244 169.781 487.782 166.023C468.968 178.79 450.153 191.556 430.769 204.71C426.588 202.886 422.407 201.062 418.099 199.183C422.28 191.888 426.461 184.593 430.769 177.076C426.588 175.253 422.407 173.429 418.099 171.55C418.099 164.255 418.099 156.959 418.099 149.443C413.918 149.443 409.737 149.443 405.429 149.443C401.248 160.386 397.068 171.329 392.76 182.603C362.669 172.241 362.669 172.241 348.416 166.023C348.416 162.375 348.416 158.728 348.416 154.97C401.338 139.469 444.649 129.135 500.452 138.39Z" fill="#E3BB54"/>
<path d="M210.239 37.5254C232.374 39.242 246.507 46.4335 266.064 55.4872C278.662 59.3543 291.315 63.0955 304.073 66.5406C301.983 70.1882 299.892 73.8358 297.738 77.594C291.54 75.8948 291.54 75.8948 285.217 74.1614C241.516 61.5516 241.516 61.5516 196.381 55.4872C182.848 62.153 182.848 62.153 171.042 72.0673C165.603 74.1832 160.165 76.2991 154.561 78.4791C136.987 87.793 136.987 87.793 136.275 107.192C136.826 117.675 136.826 117.675 137.388 128.371C137.674 135.402 137.96 142.434 138.254 149.679C138.805 157.768 138.805 157.768 139.368 166.021C124.734 166.021 110.101 166.021 95.0239 166.021C93.5308 178.377 93.5308 178.377 107.694 188.128C114.226 188.014 120.759 187.9 127.49 187.783C157.091 188.199 175.601 194.748 202.716 204.708C202.716 208.356 202.716 212.003 202.716 215.761C186.457 213.561 170.24 211.243 154.017 208.853C147.164 207.945 147.164 207.945 140.172 207.018C110.632 202.546 91.102 196.681 69.6846 177.075C69.6846 171.603 69.6846 166.132 69.6846 160.494C88.499 156.847 107.313 153.199 126.698 149.441C124.608 142.146 122.517 134.851 120.363 127.334C119.948 118.59 119.82 109.833 119.967 101.082C120.024 96.6654 120.082 92.2484 120.141 87.6975C120.214 84.3633 120.287 81.0292 120.363 77.594C125.32 75.2643 130.277 72.9347 135.384 70.5345C144.999 65.9928 144.999 65.9928 154.809 61.3593C161.203 58.3457 167.597 55.3322 174.185 52.2273C202.546 38.2924 202.546 38.2924 210.239 37.5254Z" fill="#E6E2D4"/>
<path d="M213.008 50.651C241.506 57.0968 269.652 64.3678 297.736 72.0669C293.555 79.3622 289.374 86.6574 285.067 94.1737C280.886 94.1737 276.705 94.1737 272.397 94.1737C268.216 105.117 264.035 116.059 259.727 127.334C223.302 117.662 223.302 117.662 209.049 105.227C217.411 105.227 225.773 105.227 234.388 105.227C234.388 99.7557 234.388 94.2843 234.388 88.647C234.388 84.9994 234.388 81.3518 234.388 77.5936C240.66 79.4174 246.931 81.2412 253.393 83.1203C253.393 90.4156 253.393 97.7108 253.393 105.227C255.483 96.1081 257.574 86.989 259.727 77.5936C231.339 73.6002 231.339 73.6002 202.714 72.0669C202.714 81.186 202.714 90.305 202.714 99.7004C179.312 106.506 163.402 103.261 139.366 99.7004C139.366 94.229 139.366 88.7576 139.366 83.1203C153.619 74.8303 153.619 74.8303 171.04 66.5402C175.09 63.3486 179.141 60.1569 183.314 56.8685C196.379 49.9601 196.379 49.9601 213.008 50.651Z" fill="#CF861C"/>
<path d="M886.875 22.326C898.357 32.3432 898.357 32.3432 905.88 44.4328C904.201 61.0344 900.603 65.6169 886.875 77.593C885.819 97.3976 885.819 97.3976 886.875 116.28C882.694 116.28 878.513 116.28 874.206 116.28C872.115 119.928 870.025 123.575 867.871 127.333C878.323 125.51 888.776 123.686 899.545 121.807C903.504 131.824 903.504 131.824 905.88 143.913C901.699 149.385 897.518 154.856 893.21 160.494C899.482 164.141 905.753 167.789 912.215 171.547C905.088 180.182 905.088 180.182 893.21 188.127C873.018 186.4 873.018 186.4 855.201 182.6C855.201 188.072 855.201 193.543 855.201 199.18C836.387 201.916 836.387 201.916 817.192 204.707C817.192 201.06 817.192 197.412 817.192 193.654C823.464 193.654 829.735 193.654 836.197 193.654C831.493 189.892 831.493 189.892 826.694 186.055C817.192 177.074 817.192 177.074 817.192 166.02C806.74 166.02 796.287 166.02 785.518 166.02C787.608 162.373 789.699 158.725 791.853 154.967C801.456 156.677 801.456 156.677 811.253 158.421C838.357 160.673 855.313 158.071 880.54 149.44C884.721 143.969 888.902 138.497 893.21 132.86C878.577 134.684 863.943 136.508 848.866 138.387C849.279 127.412 849.691 116.438 850.104 105.464C849.706 92.44 849.706 92.44 836.197 77.593C840.378 77.593 844.559 77.593 848.866 77.593C848.866 73.9454 848.866 70.2978 848.866 66.5396C840.896 67.4515 832.926 68.3634 824.715 69.303C809.181 71.0803 794.916 72.0663 779.183 72.0663C793.832 60.6675 793.832 60.6675 810.857 49.9595C817.129 51.7833 823.4 53.6071 829.862 55.4862C830.384 51.1547 830.907 46.8231 831.445 42.3603C836.197 27.8527 836.197 27.8527 847.678 20.2535C864.209 16.1331 871.216 16.1561 886.875 22.326Z" fill="#CABFA4"/>
<path d="M633.482 0.220108C633.482 3.86773 633.482 7.51535 633.482 11.2735C639.166 13.6673 639.166 13.6673 644.964 16.1094C658.822 22.3269 658.822 22.3269 677.826 33.3803C677.826 37.0279 677.826 40.6756 677.826 44.4337C696.084 51.9144 696.084 51.9144 709.5 44.4337C719.119 43.9102 728.765 43.7159 738.403 43.7429C746.059 43.7215 746.059 43.7215 753.869 43.6997C766.514 44.4337 766.514 44.4337 772.849 49.9604C773.107 61.0115 773.118 72.0697 772.849 83.1206C777.03 83.1206 781.211 83.1206 785.518 83.1206C781.337 95.8873 777.156 108.654 772.849 121.808C770.758 121.808 768.668 121.808 766.514 121.808C764.423 103.569 762.333 85.3313 760.179 66.5405C727.691 56.4833 702.045 67.3148 671.491 77.5939C665.511 67.879 659.531 58.1641 653.551 48.4492C645.85 37.2212 645.85 37.2212 627.148 27.8536C590.662 24.3274 590.662 24.3274 559.444 38.5616C554.61 42.3232 549.776 46.0848 544.795 49.9604C526.978 54.1054 526.978 54.1054 513.121 55.4871C513.121 51.8395 513.121 48.1919 513.121 44.4337C504.759 44.4337 496.397 44.4337 487.781 44.4337C485.691 57.2004 483.6 69.9671 481.446 83.1206C489.808 81.2968 498.17 79.473 506.786 77.5939C506.786 81.2415 506.786 84.8892 506.786 88.6473C513.057 90.4711 519.329 92.2949 525.79 94.174C530.145 105.573 530.145 105.573 532.125 116.281C529.585 113.495 527.046 110.71 524.429 107.84C513.779 98.42 513.779 98.42 499.238 99.6791C491.803 100.887 491.803 100.887 484.218 102.119C469.148 104.515 469.148 104.515 456.107 105.227C451.926 101.58 447.745 97.9322 443.438 94.174C453.89 94.174 464.342 94.174 475.112 94.174C473.021 90.5264 470.931 86.8788 468.777 83.1206C467.589 63.7772 467.589 63.7772 468.777 44.4337C484.511 30.7063 490.26 32.0448 511.933 31.3078C541.253 29.3203 554.732 23.5953 576.469 5.74681C595.518 -0.485412 613.256 -0.270071 633.482 0.220108Z" fill="#DBD4BE"/>
<path d="M487.781 38.9082C500.846 41.3261 500.846 41.3261 513.12 44.4349C513.12 48.0825 513.12 51.7301 513.12 55.4883C523.115 56.8562 523.115 56.8562 533.312 58.2517C575.135 67.194 610.772 90.1369 646.152 110.755C651.149 113.612 656.147 116.469 661.296 119.412C664.66 122.027 668.025 124.642 671.491 127.335C671.491 132.807 671.491 138.278 671.491 143.916C658.581 146.873 645.641 149.733 632.69 152.551C621.887 154.955 621.887 154.955 610.865 157.408C588.456 160.593 572.965 160.134 551.129 154.969C537.761 140.391 532.191 127.519 525.79 109.719C520.802 92.5711 520.802 92.5711 500.451 83.1218C494.179 83.1218 487.908 83.1218 481.446 83.1218C481.177 70.2283 481.187 57.3286 481.446 44.4349C483.537 42.6111 485.627 40.7873 487.781 38.9082ZM563.799 94.1752C563.799 97.8228 563.799 101.47 563.799 105.229C557.527 107.052 551.256 108.876 544.794 110.755C546.885 114.403 548.975 118.051 551.129 121.809C561.582 119.985 572.034 118.161 582.803 116.282C582.803 119.93 582.803 123.577 582.803 127.335C597.437 127.335 612.07 127.335 627.147 127.335C598.925 130.071 598.925 130.071 570.134 132.862C572.224 136.51 574.315 140.157 576.469 143.916C586.63 144.065 596.792 144.172 606.955 144.261C615.443 144.357 615.443 144.357 624.103 144.455C640.667 144.524 640.667 144.524 658.821 138.389C651.146 118.3 645.469 116.545 624.772 106.61C617.251 102.891 617.251 102.891 609.578 99.0974C594.775 92.3949 594.775 92.3949 576.469 99.7019C572.288 97.8781 568.107 96.0543 563.799 94.1752Z" fill="#C8BC8E"/>
<path d="M404.637 88.992C428.531 93.1137 451.875 98.8917 475.112 105.227C451.878 123.185 431.48 132.496 401.865 140.459C394.802 142.44 387.738 144.421 380.461 146.461C359.692 149.655 352.782 148.635 335.746 138.387C349.612 108.692 366.177 88.4509 404.637 88.992Z" fill="#DCAC46"/>
<path d="M760.177 61.0153C760.177 86.5487 760.177 112.082 760.177 138.389C749.725 142.037 739.272 145.684 728.503 149.442C726.412 136.676 724.322 123.909 722.168 110.756C713.806 108.932 705.444 107.108 696.829 105.229C695.641 86.5763 695.641 86.5763 696.829 66.542C721.22 52.3557 732.213 56.4122 760.177 61.0153Z" fill="#DB9525"/>
<path d="M502.432 93.4829C528.479 102.995 540.05 121.74 551.131 143.914C551.131 151.209 551.131 158.505 551.131 166.021C540.679 166.021 530.226 166.021 519.457 166.021C517.367 169.668 515.276 173.316 513.122 177.074C513.122 164.308 513.122 151.541 513.122 138.387C506.459 139.413 499.795 140.439 492.93 141.496C470.989 143.693 458.095 142.725 437.104 138.387C426.549 138.183 415.984 138.124 405.43 138.387C424.245 127.444 443.111 119.216 463.458 110.754C499.599 93.6165 499.599 93.6165 502.432 93.4829Z" fill="#D99B31"/>
<path d="M335.747 138.387C346.375 139.89 356.934 141.786 367.421 143.913C387.826 141.795 387.826 141.795 405.43 138.387C403.339 142.034 401.249 145.682 399.095 149.44C382.317 152.721 365.571 153.541 348.416 154.967C348.416 158.614 348.416 162.262 348.416 166.02C355.864 168.585 355.864 168.585 363.462 171.201C380.09 177.074 380.09 177.074 392.76 182.6C394.851 178.953 396.941 175.305 399.095 171.547C399.095 186.137 399.095 200.728 399.095 215.761C374.101 223.029 347.296 226.325 323.077 215.761C325.168 210.289 327.258 204.818 329.412 199.18C337.774 199.18 346.136 199.18 354.751 199.18C354.751 195.533 354.751 191.885 354.751 188.127C350.831 187.785 346.912 187.443 342.873 187.091C329.412 182.6 329.412 182.6 321.493 168.438C319.925 163.993 318.358 159.547 316.742 154.967C324.265 146.331 324.265 146.331 335.747 138.387Z" fill="#E1A22D"/>
<path d="M734.842 38.9078C769.04 36.1955 769.04 36.1955 787.896 49.6158C798.19 61.0146 798.19 61.0146 798.19 66.5413C802.371 68.3651 806.552 70.1889 810.86 72.068C809.178 75.0816 807.496 78.0951 805.763 81.2C791.481 107.802 781.816 132.28 776.588 161.337C772.851 171.549 772.851 171.549 753.847 182.602C753.847 184.426 753.847 186.25 753.847 188.129C728.761 190.864 728.761 190.864 703.168 193.655C701.772 172.342 705.679 157.775 715.838 138.388C720.019 138.388 724.2 138.388 728.507 138.388C728.507 142.036 728.507 145.684 728.507 149.442C736.869 147.618 745.231 145.794 753.847 143.915C753.847 118.382 753.847 92.8484 753.847 66.5413C743.453 75.6095 743.704 87.4195 741.177 99.7015C730.725 99.7015 720.272 99.7015 709.503 99.7015C711.463 93.2042 711.463 93.2042 713.462 86.5756C714.246 81.7881 715.03 77.0006 715.838 72.068C711.657 68.4204 707.476 64.7728 703.168 61.0146C745.136 54.1062 745.136 54.1062 766.516 66.5413C770.954 81.2593 771.441 95.5032 772.851 110.755C777.032 101.636 781.213 92.5168 785.521 83.1214C781.34 83.1214 777.159 83.1214 772.851 83.1214C770.761 72.1786 768.67 61.2357 766.516 49.9612C756.064 48.1374 745.611 46.3136 734.842 44.4345C734.842 42.6107 734.842 40.7869 734.842 38.9078Z" fill="#C28936"/>
<path d="M614.478 94.1743C620.945 95.3712 620.945 95.3712 627.544 96.5922C648.45 100.085 669.41 102.703 690.496 105.228C692.586 112.523 694.677 119.818 696.831 127.335C701.012 127.335 705.193 127.335 709.5 127.335C709.5 123.687 709.5 120.039 709.5 116.281C713.681 116.281 717.862 116.281 722.17 116.281C722.17 123.576 722.17 130.872 722.17 138.388C715.899 138.388 709.627 138.388 703.166 138.388C701.075 143.859 698.985 149.331 696.831 154.968C688.443 158.753 679.986 162.422 671.491 166.021C667.572 169.669 663.652 173.317 659.614 177.075C637.724 195.049 616.337 198.917 586.763 199.872C578.532 199.531 578.532 199.531 570.134 199.182C568.044 190.063 565.953 180.944 563.799 171.548C585.274 154.621 603.539 151.622 631.899 148.405C639.313 147.529 646.728 146.652 654.368 145.75C660.018 145.144 665.669 144.539 671.491 143.915C662.961 126.023 655.546 118.279 635.858 109.373C628.803 106.181 621.747 102.989 614.478 99.701C614.478 97.8772 614.478 96.0534 614.478 94.1743Z" fill="#BB761F"/>
<path d="M304.072 72.0693C304.072 94.2905 293.206 110.543 282.296 130.1C266.426 158.59 266.426 158.59 253.393 188.13C265.968 186.656 265.968 186.656 278.733 182.603C280.823 177.132 282.914 171.66 285.068 166.023C297.737 177.077 297.737 177.077 297.737 193.657C301.918 193.657 306.099 193.657 310.407 193.657C308.186 189.553 305.965 185.45 303.676 181.222C297.452 165.292 297.53 159.326 304.072 143.916C310.344 143.916 316.615 143.916 323.077 143.916C321.901 146.88 320.725 149.844 319.513 152.897C316.018 169.449 319.238 182.81 323.077 199.183C316.805 201.007 310.534 202.831 304.072 204.71C301.982 208.358 299.891 212.005 297.737 215.764C295.647 210.292 293.556 204.821 291.402 199.183C272.245 202.433 253.282 205.964 234.389 210.237C238.57 204.765 242.751 199.294 247.059 193.657C240.787 191.833 234.516 190.009 228.054 188.13C225.964 197.249 223.873 206.368 221.719 215.764C215.448 213.94 209.176 212.116 202.715 210.237C206.896 210.237 211.077 210.237 215.385 210.237C215.385 201.118 215.385 191.999 215.385 182.603C219.295 181.193 223.205 179.782 227.234 178.329C242.724 170.545 246.397 165.451 253.839 151.516C255.987 147.612 258.134 143.707 260.347 139.685C262.495 135.61 264.642 131.535 266.855 127.336C271.204 119.267 275.575 111.207 279.97 103.157C282.813 97.7925 282.813 97.7925 285.714 92.3195C291.402 83.1227 291.402 83.1227 304.072 72.0693Z" fill="#E5DCBC"/>
<path d="M772.848 49.9619C779.12 51.7857 785.391 53.6095 791.853 55.4886C791.853 60.96 791.853 66.4315 791.853 72.0687C798.124 72.0687 804.396 72.0687 810.857 72.0687C808.334 76.5891 808.334 76.5891 805.76 81.2007C789.701 111.113 779.932 139.106 772.848 171.549C754.034 175.197 735.219 178.845 715.835 182.603C709.973 162.145 708.982 156.989 715.835 138.389C720.016 138.389 724.197 138.389 728.504 138.389C728.504 142.037 728.504 145.684 728.504 149.443C741.622 146.613 741.622 146.613 753.844 138.389C758.321 121.205 758.321 121.205 758.595 101.775C758.954 95.2062 759.314 88.6376 759.684 81.87C759.847 76.8117 760.01 71.7535 760.179 66.542C762.269 66.542 764.36 66.542 766.513 66.542C768.604 81.1325 770.694 95.723 772.848 110.756C777.029 101.637 781.21 92.5175 785.518 83.1221C781.337 83.1221 777.156 83.1221 772.848 83.1221C772.848 72.1793 772.848 61.2364 772.848 49.9619Z" fill="#C8892A"/>
<path d="M373.755 72.0693C377.936 73.8931 382.117 75.717 386.425 77.596C384.334 83.0675 382.244 88.5389 380.09 94.1761C375.909 94.1761 371.728 94.1761 367.42 94.1761C365.461 98.6217 365.461 98.6217 363.461 103.157C354.786 116.229 347.615 121.648 334.558 131.136C321.253 142.069 316.979 146.507 315.678 162.634C317.358 175.085 319.666 187.01 323.077 199.183C316.805 201.007 310.534 202.831 304.072 204.71C304.072 210.182 304.072 215.653 304.072 221.29C308.253 223.114 312.434 224.938 316.742 226.817C308.38 224.993 300.018 223.169 291.402 221.29C289.312 213.995 287.221 206.7 285.068 199.183C280.233 201.121 275.399 203.059 270.418 205.056C253.393 210.237 253.393 210.237 234.389 204.71C238.57 201.063 242.751 197.415 247.059 193.657C240.787 191.833 234.516 190.009 228.054 188.13C225.964 197.249 223.873 206.368 221.719 215.764C215.448 213.94 209.176 212.116 202.715 210.237C206.896 210.237 211.077 210.237 215.385 210.237C215.385 201.118 215.385 191.999 215.385 182.603C221.117 180.744 221.117 180.744 226.965 178.847C244.92 169.325 249.412 159.733 258.145 143.226C260.856 138.196 263.567 133.166 266.36 127.984C268.353 124.123 270.345 120.261 272.398 116.283C279.373 134.538 278.42 142.346 272.398 160.497C268.217 162.32 264.036 164.144 259.728 166.023C257.638 171.495 255.547 176.966 253.393 182.603C265.936 178.956 278.479 175.308 291.402 171.55C293.493 177.021 295.583 182.493 297.737 188.13C301.918 188.13 306.099 188.13 310.407 188.13C308.316 185.052 306.226 181.975 304.072 178.804C296.673 163.876 295.37 154.498 297.737 138.39C306.448 128.373 306.448 128.373 316.742 121.81C320.923 121.81 325.104 121.81 329.411 121.81C330.849 118.732 332.286 115.654 333.767 112.483C344.355 96.2074 358.252 84.8826 373.755 72.0693Z" fill="#D7CCAE"/>
<path d="M329.411 132.862C329.411 149.442 329.411 149.442 323.076 160.495C327.403 172.191 327.403 172.191 335.746 182.602C342.017 184.426 348.289 186.25 354.75 188.129C354.75 191.776 354.75 195.424 354.75 199.182C350.7 199.866 346.65 200.55 342.477 201.255C338.165 202.395 333.853 203.534 329.411 204.709C327.321 208.357 325.23 212.004 323.076 215.762C348.162 215.762 373.248 215.762 399.094 215.762C398.702 206.985 398.31 198.208 397.906 189.165C396.737 162.977 396.737 162.977 408.671 150.413C411.782 148.269 414.893 146.125 418.099 143.915C424.434 160.495 424.434 160.495 418.099 171.549C424.37 173.373 430.642 175.196 437.103 177.075C432.922 184.371 428.741 191.666 424.434 199.182C420.253 199.182 416.072 199.182 411.764 199.182C409.673 208.301 407.583 217.42 405.429 226.816C368.467 231.532 339.239 235.015 304.072 221.289C304.072 215.818 304.072 210.346 304.072 204.709C308.253 202.885 312.434 201.061 316.741 199.182C316.064 195.784 315.386 192.386 314.688 188.884C313.928 184.418 313.169 179.951 312.386 175.348C311.578 170.924 310.769 166.5 309.936 161.942C310.407 149.442 310.407 149.442 319.785 139.533C322.962 137.331 326.138 135.13 329.411 132.862Z" fill="#BB791E"/>
<path d="M259.727 72.0677C261.818 81.1868 263.908 90.3059 266.062 99.7013C259.791 103.349 253.519 106.996 247.058 110.755C247.058 101.636 247.058 92.5165 247.058 83.1212C242.877 81.2973 238.696 79.4735 234.388 77.5944C234.388 81.2421 234.388 84.8897 234.388 88.6479C238.569 90.4717 242.75 92.2955 247.058 94.1746C240.786 99.646 234.515 105.117 228.053 110.755C234.325 118.962 234.325 118.962 240.723 127.335C220.873 133.107 215.449 132.498 196.379 127.335C196.379 130.982 196.379 134.63 196.379 138.388C192.198 138.388 188.017 138.388 183.71 138.388C183.71 132.917 183.71 127.445 183.71 121.808C169.076 119.984 154.443 118.16 139.366 116.281C152.035 105.228 152.035 105.228 167.477 104.883C175.512 105.054 175.512 105.054 183.71 105.228C189.981 103.404 196.252 101.58 202.714 99.7013C202.714 90.5822 202.714 81.4631 202.714 72.0677C222.155 63.5873 238.829 69.0289 259.727 72.0677Z" fill="#E2AC45"/>
<path d="M639.817 11.2736C639.817 16.745 639.817 22.2164 639.817 27.8537C643.867 29.2215 647.918 30.5894 652.091 31.9987C665.156 38.9071 665.156 38.9071 669.14 50.3922C669.916 53.8974 670.692 57.4025 671.491 61.0139C675.623 59.7529 679.755 58.4919 684.012 57.1927C715.929 48.0341 739.451 41.526 772.848 49.9605C772.848 60.9033 772.848 71.8462 772.848 83.1207C777.029 83.1207 781.21 83.1207 785.518 83.1207C781.337 97.7112 777.156 112.302 772.848 127.334C770.758 127.334 768.667 127.334 766.514 127.334C763.378 97.2414 763.378 97.2414 760.179 66.5406C728.273 60.1111 728.273 60.1111 698.414 69.3039C693.711 72.0396 689.007 74.7753 684.161 77.594C677.889 75.7701 671.618 73.9463 665.156 72.0673C662.413 66.7098 659.669 61.3524 656.842 55.8326C647.858 37.7257 647.858 37.7257 627.939 31.3078C597.604 26.0148 578.203 24.9102 551.129 38.9071C578.09 8.55689 598.733 7.75954 639.817 11.2736Z" fill="#E9E3CD"/>
<path d="M830.259 66.1958C839.47 66.3668 839.47 66.3668 848.868 66.5412C848.868 68.365 848.868 70.1888 848.868 72.0679C838.415 72.0679 827.963 72.0679 817.193 72.0679C817.193 75.7155 817.193 79.3632 817.193 83.1213C827.646 84.9451 838.098 86.7689 848.868 88.648C841.224 93.6065 841.224 93.6065 833.426 98.6652C815.779 109.702 815.779 109.702 810.859 127.335C812.949 123.687 815.04 120.04 817.193 116.282C825.555 118.105 833.917 119.929 842.533 121.808C842.533 127.28 842.533 132.751 842.533 138.388C808.04 146.595 808.04 146.595 772.85 154.968C776.521 123.738 787.758 66.9525 830.259 66.1958Z" fill="#E19820"/>
<path d="M677.826 166.023C684.097 166.023 690.369 166.023 696.83 166.023C696.83 176.966 696.83 187.909 696.83 199.183C702.555 197.922 708.279 196.661 714.177 195.362C721.649 193.773 729.121 192.185 736.819 190.548C744.242 188.945 751.665 187.342 759.312 185.69C779.183 182.603 779.183 182.603 798.188 188.13C796.097 191.777 794.007 195.425 791.853 199.183C758.948 207.941 724.839 211.814 690.495 210.237C687.36 199.294 687.36 199.294 684.161 188.13C678.175 192.383 672.189 196.636 666.022 201.018C637.711 218.62 608.91 224.441 575.281 230.616C566.468 232.333 566.468 232.333 557.476 234.085C447.025 255.272 447.025 255.272 399.093 254.45C399.093 250.803 399.093 247.155 399.093 243.397C406.99 242.057 414.886 240.718 423.022 239.338C457.315 233.476 491.563 227.438 525.79 221.29C531.056 220.346 536.322 219.402 541.748 218.429C556.249 215.786 570.716 213.033 585.179 210.237C589.498 209.455 593.817 208.673 598.268 207.867C627.128 202.126 648.117 192.848 671.491 177.076C673.581 173.429 675.672 169.781 677.826 166.023Z" fill="#97835F"/>
<path d="M240.724 66.5405C238.634 73.8358 236.543 81.131 234.389 88.6473C242.751 88.6473 251.113 88.6473 259.729 88.6473C259.729 105.227 259.729 105.227 256.165 115.935C252.342 127.438 252.342 127.438 256.957 139.078C257.872 142.498 258.786 145.918 259.729 149.441C255.548 153.089 251.367 156.736 247.059 160.494C244.968 153.199 242.878 145.904 240.724 138.388C238.634 143.859 236.543 149.33 234.389 154.968C221.324 158.767 221.324 158.767 209.05 160.494C206.959 156.847 204.869 153.199 202.715 149.441C196.444 149.441 190.172 149.441 183.711 149.441C181.62 154.912 179.53 160.384 177.376 166.021C173.195 166.021 169.014 166.021 164.706 166.021C170.978 149.607 177.249 133.193 183.711 116.281C179.53 114.457 175.349 112.633 171.041 110.754C181.493 107.107 191.946 103.459 202.715 99.7007C202.715 90.5817 202.715 81.4626 202.715 72.0672C215.385 66.5405 215.385 66.5405 240.724 66.5405Z" fill="#DDA43C"/>
<path d="M633.482 49.9608C633.482 53.6084 633.482 57.256 633.482 61.0142C637.663 61.0142 641.844 61.0142 646.152 61.0142C646.152 57.3666 646.152 53.719 646.152 49.9608C652.424 51.7846 658.695 53.6084 665.157 55.4875C667.247 60.9589 669.338 66.4304 671.491 72.0676C681.944 70.2438 692.396 68.42 703.166 66.5409C698.414 103.846 698.414 103.846 684.161 116.281C684.161 112.634 684.161 108.986 684.161 105.228C680.699 106.332 677.236 107.436 673.669 108.574C654.143 111.442 642.471 107.389 623.98 101.428C618.035 99.583 612.091 97.7378 605.966 95.8367C587.967 88.147 577.068 79.5094 563.799 66.5409C571.808 62.6741 579.869 58.89 587.951 55.1421C592.434 53.0262 596.917 50.9103 601.536 48.7302C614.478 44.4341 614.478 44.4341 633.482 49.9608Z" fill="#C78121"/>
<path d="M139.366 116.282C153.999 118.106 168.633 119.929 183.71 121.808C183.71 127.28 183.71 132.751 183.71 138.389C187.891 138.389 192.072 138.389 196.379 138.389C196.379 134.741 196.379 131.093 196.379 127.335C213.103 125.511 229.827 123.688 247.058 121.808C249.148 127.28 251.239 132.751 253.393 138.389C237.32 152.411 231.191 156.133 209.049 160.495C206.958 156.848 204.868 153.2 202.714 149.442C196.443 149.442 190.171 149.442 183.71 149.442C181.619 154.913 179.529 160.385 177.375 166.022C183.646 167.846 189.918 169.67 196.379 171.549C183.836 171.549 171.293 171.549 158.37 171.549C155.177 164.419 152.016 157.278 148.868 150.133C147.104 146.157 145.34 142.182 143.523 138.086C139.366 127.335 139.366 127.335 139.366 116.282Z" fill="#D88C17"/>
<path d="M817.195 72.0693C829.738 72.0693 842.281 72.0693 855.204 72.0693C855.375 81.0497 855.498 90.0308 855.6 99.012C855.673 104.013 855.747 109.014 855.823 114.167C855.204 127.336 855.204 127.336 848.869 138.39C870.819 135.654 870.819 135.654 893.213 132.863C889.032 141.982 884.851 151.101 880.543 160.497C859.638 156.849 838.733 153.201 817.195 149.443C825.557 145.796 833.919 142.148 842.534 138.39C842.534 132.918 842.534 127.447 842.534 121.81C834.172 119.986 825.81 118.162 817.195 116.283C815.104 121.754 813.014 127.226 810.86 132.863C806.679 131.039 802.498 129.215 798.19 127.336C810.86 116.283 823.53 105.23 836.199 94.1761C827.837 90.5285 819.475 86.8809 810.86 83.1227C812.951 79.4751 815.041 75.8275 817.195 72.0693Z" fill="#BC771A"/>
<path d="M633.484 27.8548C649.717 39.2536 649.717 39.2536 658.823 49.9616C654.642 49.9616 650.461 49.9616 646.153 49.9616C646.153 53.6092 646.153 57.2568 646.153 61.015C641.972 61.015 637.791 61.015 633.484 61.015C631.393 57.3674 629.303 53.7197 627.149 49.9616C619.113 52.8683 619.113 52.8683 610.916 55.8337C586.288 61.6935 569.601 59.8165 544.796 55.4883C559.601 16.7381 593.452 18.1144 633.484 27.8548Z" fill="#DB9728"/>
<path d="M228.055 188.13C236.417 189.954 244.779 191.778 253.394 193.657C253.394 197.304 253.394 200.952 253.394 204.71C263.847 201.062 274.299 197.415 285.068 193.657C286.624 200.036 286.624 200.036 288.211 206.545C300.131 224.994 311.802 227.401 334.572 233.002C339.271 234.039 343.971 235.075 348.813 236.143C365.748 240.089 382.365 244.317 399.095 248.924C402.231 254.395 402.231 254.395 405.43 259.977C360.885 257.429 318.765 250.429 278.734 232.343C276.643 226.872 274.553 221.401 272.399 215.763C265.866 217.587 259.333 219.411 252.602 221.29C231.181 226.587 212.426 228.592 190.046 226.817C183.775 223.169 177.503 219.522 171.042 215.763C156.206 215.233 141.876 216.124 127.069 216.994C120.614 216.385 120.614 216.385 114.028 215.763C109.847 210.292 105.666 204.821 101.358 199.183C135.955 198.644 168.46 200.441 202.716 204.71C202.716 208.358 202.716 212.005 202.716 215.763C208.987 215.763 215.259 215.763 221.72 215.763C223.811 206.644 225.901 197.525 228.055 188.13Z" fill="#A59578"/>
<path d="M133.032 132.862C135.122 132.862 137.213 132.862 139.366 132.862C141.457 141.981 143.547 151.1 145.701 160.495C149.882 160.495 154.063 160.495 158.371 160.495C158.371 164.143 158.371 167.791 158.371 171.549C199.136 168.813 199.136 168.813 240.724 166.022C240.724 169.67 240.724 173.317 240.724 177.075C232.362 178.899 224 180.723 215.384 182.602C215.384 191.721 215.384 200.84 215.384 210.236C211.326 209.039 207.267 207.842 203.086 206.609C176.497 199.141 155.693 193.553 127.489 194.346C107.692 193.656 107.692 193.656 92.2512 179.839C88.9848 175.279 85.7184 170.72 82.353 166.022C99.5128 158.537 114.086 160.136 133.032 160.495C133.032 151.376 133.032 142.257 133.032 132.862Z" fill="#AE6F21"/>
<path d="M855.2 94.1743C855.992 125.953 855.992 125.953 848.865 138.388C870.815 135.652 870.815 135.652 893.209 132.861C889.646 143.224 889.646 143.224 880.539 154.968C858.52 161.953 840.636 166.021 817.191 166.021C817.191 169.669 817.191 173.317 817.191 177.075C821.372 178.899 825.553 180.722 829.861 182.602C821.237 181.063 821.237 181.063 812.44 179.493C792.782 177.184 784.884 178.23 766.512 182.602C751.733 182.816 736.947 182.849 722.168 182.602C722.168 180.778 722.168 178.954 722.168 177.075C738.892 175.251 755.616 173.427 772.847 171.548C772.847 166.077 772.847 160.605 772.847 154.968C791.224 144.28 797.532 142.249 818.379 140.46C826.349 139.777 834.319 139.093 842.53 138.388C842.53 132.916 842.53 127.445 842.53 121.808C834.168 119.984 825.806 118.16 817.191 116.281C815.1 121.753 813.01 127.224 810.856 132.861C806.675 131.037 802.494 129.214 798.186 127.335C836.195 94.1743 836.195 94.1743 855.2 94.1743Z" fill="#A56B29"/>
<path d="M861.534 88.6475C863.625 88.6475 865.715 88.6475 867.869 88.6475C867.869 101.414 867.869 114.181 867.869 127.334C878.321 125.511 888.774 123.687 899.543 121.808C903.898 130.789 903.898 130.789 905.878 143.914C896.772 161.876 896.772 161.876 886.873 177.075C868.059 174.339 868.059 174.339 848.864 171.548C842.593 179.755 842.593 179.755 836.195 188.128C829.923 184.48 823.652 180.833 817.19 177.075C817.19 173.427 817.19 169.779 817.19 166.021C806.738 166.021 796.285 166.021 785.516 166.021C787.607 162.374 789.697 158.726 791.851 154.968C798.253 155.88 804.655 156.792 811.251 157.731C834.691 160.328 856.948 160.915 880.539 160.495C884.72 151.376 888.901 142.256 893.208 132.861C878.575 134.685 863.941 136.509 848.864 138.388C853.045 121.973 857.226 105.559 861.534 88.6475Z" fill="#DFDAC3"/>
<path d="M819.963 145.297C827.203 146.024 827.203 146.024 834.588 146.765C849.464 149.554 860.953 154.069 874.205 160.496C824.319 166.022 824.319 166.022 817.192 166.022C817.192 169.67 817.192 173.318 817.192 177.076C821.373 178.9 825.554 180.723 829.862 182.602C824.407 181.527 818.952 180.451 813.332 179.343C789.928 176.873 774.814 179.459 752.26 185.02C716.573 193.656 716.573 193.656 703.165 193.656C703.165 184.537 703.165 175.418 703.165 166.022C712.572 171.494 712.572 171.494 722.17 177.076C735.277 177.228 735.277 177.228 748.697 175.003C760.652 173.293 760.652 173.293 772.848 171.549C772.848 166.078 772.848 160.606 772.848 154.969C793.567 142.919 796.691 142.695 819.963 145.297Z" fill="#93632F"/>
<path d="M304.071 66.5405C308.252 66.5405 312.433 66.5405 316.741 66.5405C310.487 97.4595 298.738 126.001 285.067 154.968C289.248 154.968 293.429 154.968 297.736 154.968C310.406 171.548 310.406 171.548 310.406 193.655C306.225 193.655 302.044 193.655 297.736 193.655C293.555 186.359 289.374 179.064 285.067 171.548C282.192 174.284 279.318 177.019 276.356 179.838C266.062 188.128 266.062 188.128 253.393 188.128C256.766 160.731 266.619 141.796 282.295 118.008C299.368 93.746 299.368 93.746 304.071 66.5405Z" fill="#B6954D"/>
<path d="M399.093 171.548C411.636 171.548 424.179 171.548 437.102 171.548C435.011 178.843 432.921 186.138 430.767 193.655C434.295 191.945 437.822 190.235 441.457 188.473C457.085 182.209 470.751 179.029 487.78 177.075C491.961 178.898 496.142 180.722 500.45 182.601C494.179 190.808 494.179 190.808 487.78 199.181C498.233 197.358 508.685 195.534 519.455 193.655C519.455 197.302 519.455 200.95 519.455 204.708C463.716 219.408 413.661 230.662 354.749 226.815C371.52 218.742 379.42 215.761 399.093 215.761C399.093 201.171 399.093 186.58 399.093 171.548Z" fill="#D5891A"/>
<path d="M323.076 138.387C323.076 143.858 323.076 149.33 323.076 154.967C327.755 169.547 327.755 169.547 335.746 182.6C342.017 184.424 348.289 186.248 354.75 188.127C354.75 191.775 354.75 195.422 354.75 199.18C346.388 199.18 338.026 199.18 329.411 199.18C331.502 204.652 333.592 210.123 335.746 215.761C387.638 230.851 439.49 219.547 490.496 207.045C513.447 201.475 533.607 197.895 557.465 199.18C559.555 191.885 561.646 184.59 563.8 177.074C567.981 178.897 572.162 180.721 576.469 182.6C574.379 189.896 572.288 197.191 570.135 204.707C483.555 229.367 392.065 252.127 304.072 221.287C304.072 215.816 304.072 210.344 304.072 204.707C308.253 202.883 312.434 201.06 316.741 199.18C316.137 195.718 315.533 192.256 314.91 188.688C314.208 184.172 313.506 179.655 312.782 175.001C312.047 170.513 311.312 166.025 310.555 161.4C310.506 157.453 310.457 153.507 310.407 149.44C314.588 145.792 318.769 142.145 323.076 138.387Z" fill="#9A6124"/>
<path d="M830.259 66.1958C839.47 66.3668 839.47 66.3668 848.868 66.5412C848.868 73.8365 848.868 81.1317 848.868 88.648C838.546 96.2676 827.978 103.641 817.193 110.755C815.103 116.226 813.012 121.698 810.859 127.335C812.949 123.687 815.04 120.04 817.193 116.282C825.555 118.105 833.917 119.929 842.533 121.808C842.533 127.28 842.533 132.751 842.533 138.388C808.04 146.595 808.04 146.595 772.85 154.968C776.521 123.738 787.758 66.9525 830.259 66.1958Z" fill="#D79223"/>
<path d="M481.444 44.4331C497.123 47.1688 497.123 47.1688 513.118 49.9598C513.249 55.2033 513.38 60.4467 513.514 65.8491C517.537 92.6666 535.984 111.088 554.32 132.105C563.797 143.914 563.797 143.914 563.797 154.967C559.616 154.967 555.435 154.967 551.127 154.967C541.265 141.291 532.769 127.135 524.081 112.869C511.369 97.5985 501.891 93.9164 481.444 88.6467C481.444 74.0562 481.444 59.4657 481.444 44.4331Z" fill="#D9B878"/>
<path d="M405.825 89.3387C414.179 90.7854 422.502 92.383 430.768 94.1746C435.994 95.2005 441.221 96.2264 446.605 97.2834C449.741 98.0813 452.877 98.8792 456.107 99.7013C456.107 103.349 456.107 106.997 456.107 110.755C434.398 119.088 413.378 126.883 390.779 133.207C373.06 137.392 373.06 137.392 361.085 149.442C352.723 145.794 344.361 142.146 335.746 138.388C349.135 109.715 367.761 85.3191 405.825 89.3387Z" fill="#C9A050"/>
<path d="M633.484 193.655C633.484 197.302 633.484 200.95 633.484 204.708C384.757 259.892 384.757 259.892 316.742 232.342C336.624 227.049 345.216 227.206 367.025 229.924C429.435 236.685 490.783 220.01 549.918 204.168C578.353 197.154 603.916 193.655 633.484 193.655Z" fill="#E1DED2"/>
<path d="M329.409 132.862C334.766 134.914 340.122 136.965 345.642 139.079C367.429 145.643 367.429 145.643 388.798 138.389C418.542 131.23 433.4 135.915 462.44 143.915C435.931 171.124 435.931 171.124 409.782 173.276C404.164 172.706 398.545 172.136 392.757 171.549C392.757 175.196 392.757 178.844 392.757 182.602C362.667 172.24 362.667 172.24 348.413 166.022C348.413 162.374 348.413 158.727 348.413 154.969C342.142 154.969 335.87 154.969 329.409 154.969C329.409 147.673 329.409 140.378 329.409 132.862Z" fill="#D7AC4F"/>
<path d="M323.077 149.44C336.143 151.858 336.143 151.858 348.416 154.967C348.416 158.615 348.416 162.262 348.416 166.021C355.864 168.585 355.864 168.585 363.462 171.202C380.09 177.074 380.09 177.074 392.76 182.601C394.851 178.953 396.941 175.305 399.095 171.547C399.095 186.138 399.095 200.728 399.095 215.761C376.793 222.247 359.144 222.401 335.747 221.288C331.566 217.64 327.385 213.992 323.077 210.234C325.168 206.587 327.258 202.939 329.412 199.181C337.774 199.181 346.136 199.181 354.751 199.181C354.751 195.533 354.751 191.885 354.751 188.127C348.872 187.614 348.872 187.614 342.873 187.091C329.412 182.601 329.412 182.601 321.493 168.438C319.925 163.993 318.358 159.547 316.742 154.967C318.833 153.143 320.923 151.32 323.077 149.44Z" fill="#E1A330"/>
<path d="M600.623 19.9087C623.882 20.2414 626.907 22.1503 646.154 36.1434C650.335 40.7029 654.516 45.2624 658.824 49.9601C654.643 49.9601 650.462 49.9601 646.154 49.9601C646.154 53.6077 646.154 57.2554 646.154 61.0135C641.973 61.0135 637.792 61.0135 633.485 61.0135C631.394 57.3659 629.304 53.7183 627.15 49.9601C603.106 55.3087 603.106 55.3087 582.806 66.5402C573.144 66.0463 563.505 65.1841 553.903 64.1223C546.052 63.2781 546.052 63.2781 538.041 62.4168C533.999 61.9537 529.957 61.4906 525.792 61.0135C525.792 57.3659 525.792 53.7183 525.792 49.9601C531.803 47.4524 537.813 44.9446 544.005 42.3609C591.478 20.8242 591.478 20.8242 600.623 19.9087Z" fill="#D49537"/>
<path d="M215.384 49.9619C242.561 57.2572 269.737 64.5524 297.737 72.0687C286.975 100.235 276.773 119.132 259.728 143.916C255.547 138.444 251.366 132.973 247.058 127.336C252.601 109.719 252.601 109.719 259.728 94.1755C253.457 96.9112 253.457 96.9112 247.058 99.7022C247.058 96.0546 247.058 92.407 247.058 88.6488C242.877 88.6488 238.696 88.6488 234.389 88.6488C232.298 92.2964 230.208 95.9441 228.054 99.7022C228.054 96.0546 228.054 92.407 228.054 88.6488C223.873 86.825 219.692 85.0012 215.384 83.1221C221.656 81.2983 227.927 79.4745 234.389 77.5954C236.479 73.9478 238.57 70.3002 240.724 66.542C224 68.3658 207.276 70.1896 190.045 72.0687C198.407 64.7735 206.769 57.4782 215.384 49.9619Z" fill="#D18D27"/>
<path d="M196.38 49.9619C202.652 51.7857 208.923 53.6095 215.385 55.4886C209.113 59.1362 202.842 62.7839 196.38 66.542C198.471 68.3658 200.561 70.1896 202.715 72.0687C204.299 85.54 204.299 85.54 202.715 99.7022C180.954 112.359 171.134 111.742 145.702 110.756C147.792 128.994 149.883 147.232 152.037 166.023C147.856 164.199 143.675 162.375 139.367 160.496C131.104 136.707 131.214 113.239 133.032 88.6488C145.804 70.6969 168.685 64.4015 190.045 55.4886C192.136 53.6648 194.226 51.841 196.38 49.9619Z" fill="#BA7214"/>
<path d="M145.702 105.228C158.244 108.876 170.787 112.523 183.71 116.281C177.439 132.696 171.168 149.11 164.706 166.022C168.887 166.022 173.068 166.022 177.376 166.022C179.466 158.726 181.557 151.431 183.71 143.915C192.072 145.739 200.434 147.563 209.05 149.442C209.05 153.089 209.05 156.737 209.05 160.495C217.412 158.671 225.774 156.847 234.389 154.968C234.389 151.321 234.389 147.673 234.389 143.915C230.208 142.091 226.027 140.267 221.719 138.388C227.991 138.388 234.262 138.388 240.724 138.388C242.814 149.331 244.905 160.274 247.059 171.548C217.792 171.548 188.525 171.548 158.371 171.548C137.161 127.137 137.161 127.137 145.702 105.228Z" fill="#C97D15"/>
<path d="M462.442 110.755C466.623 112.579 470.804 114.403 475.112 116.282C473.021 119.929 470.931 123.577 468.777 127.335C491.578 127.916 491.578 127.916 513.517 123.19C519.592 122.506 519.592 122.506 525.791 121.808C540.044 131.825 540.044 131.825 551.13 143.915C551.13 147.563 551.13 151.21 551.13 154.968C555.311 156.792 559.492 158.616 563.8 160.495C556.614 161.179 549.427 161.863 542.024 162.568C530.853 164.278 530.853 164.278 519.456 166.022C517.365 169.67 515.275 173.317 513.121 177.075C513.121 164.309 513.121 151.542 513.121 138.388C506.849 141.124 506.849 141.124 500.451 143.915C470.428 145.665 441.002 144.971 411.764 138.388C427.211 124.912 442.503 118.366 462.442 110.755Z" fill="#D09130"/>
<path d="M734.841 61.0156C741.112 62.8394 747.383 64.6632 753.845 66.5423C753.845 92.0757 753.845 117.609 753.845 143.916C745.483 145.74 737.121 147.564 728.506 149.443C726.415 138.5 724.325 127.557 722.171 116.283C717.99 116.283 713.809 116.283 709.501 116.283C709.501 119.93 709.501 123.578 709.501 127.336C705.32 127.336 701.139 127.336 696.832 127.336C696.832 109.098 696.832 90.8598 696.832 72.069C707.284 70.2452 717.736 68.4214 728.506 66.5423C722.234 69.278 722.234 69.278 715.836 72.069C711.683 86.0368 711.683 86.0368 709.501 99.7025C719.954 99.7025 730.406 99.7025 741.175 99.7025C743.266 90.5835 745.356 81.4644 747.51 72.069C743.329 72.069 739.148 72.069 734.841 72.069C734.841 68.4214 734.841 64.7738 734.841 61.0156Z" fill="#DE9A27"/>
<path d="M304.071 66.5405C310.343 66.5405 316.614 66.5405 323.076 66.5405C325.453 90.6099 319.071 102.82 304.071 122.844C289.625 140.339 289.625 140.339 285.067 160.494C289.248 156.847 293.429 153.199 297.736 149.441C306.989 164.072 310.406 170.965 310.406 188.128C297.736 188.128 297.736 188.128 285.067 177.075C268.578 178.845 268.578 178.845 253.393 182.601C255.483 175.306 257.574 168.011 259.727 160.494C263.908 160.494 268.089 160.494 272.397 160.494C273.05 153.769 273.704 147.044 274.377 140.115C277.279 119.31 284.322 106.203 297.736 88.6473C302.144 76.5366 302.144 76.5366 304.071 66.5405Z" fill="#AB9255"/>
<path d="M703.164 138.387C707.345 138.387 711.526 138.387 715.833 138.387C711.61 156.809 707.387 175.231 703.164 193.654C710.113 191.93 717.062 190.206 724.222 188.429C733.434 186.252 742.648 184.078 751.863 181.909C756.431 180.762 761 179.615 765.708 178.434C793.424 172.03 809.974 169.696 836.195 182.6C836.195 186.248 836.195 189.896 836.195 193.654C829.924 193.654 823.652 193.654 817.191 193.654C815.1 197.301 813.01 200.949 810.856 204.707C808.357 201.879 805.858 199.05 803.284 196.136C792.389 186.662 792.389 186.662 777.251 188.926C771.878 190.144 766.505 191.362 760.969 192.617C738.868 197.482 719.661 199.859 696.829 199.18C696.829 188.238 696.829 177.295 696.829 166.02C690.557 166.02 684.286 166.02 677.824 166.02C676.387 169.44 674.95 172.86 673.469 176.383C662.752 191.521 652.533 193.931 633.48 199.18C639.233 192.924 645.053 186.716 650.901 180.528C654.135 177.065 657.369 173.603 660.7 170.036C672.043 160.004 682.424 155.512 696.829 149.44C698.919 145.792 701.01 142.145 703.164 138.387Z" fill="#DFDAC9"/>
<path d="M218.552 30.2725C241.749 33.5249 252.966 38.9416 272.398 49.9613C287.075 53.9497 301.846 57.702 316.742 61.0147C310.47 63.7505 310.47 63.7505 304.072 66.5414C303.158 71.7849 302.243 77.0283 301.301 82.4307C297.612 100.31 294.685 105.39 278.733 116.282C290.611 84.5032 290.611 84.5032 297.737 72.0681C291.074 71.3842 284.411 70.7003 277.545 69.9956C253.394 66.5414 253.394 66.5414 236.765 60.3239C218.252 54.3734 208.813 56.3965 190.045 61.0147C185.211 62.0406 180.377 63.0665 175.396 64.1235C171.868 64.9214 168.341 65.7193 164.706 66.5414C190.149 34.255 190.149 34.255 218.552 30.2725Z" fill="#DCD2B6"/>
<path d="M563.8 94.1743C600.014 94.1743 628.423 111.733 658.823 127.335C658.823 130.982 658.823 134.63 658.823 138.388C639.724 143.942 626.884 144.486 606.956 144.26C601.248 144.21 595.54 144.16 589.659 144.109C585.307 144.045 580.954 143.981 576.47 143.915C574.38 140.267 572.289 136.619 570.135 132.861C580.588 131.037 591.04 129.214 601.809 127.335C595.538 127.335 589.266 127.335 582.805 127.335C582.805 123.687 582.805 120.039 582.805 116.281C572.352 118.105 561.9 119.929 551.131 121.808C549.04 116.336 546.95 110.865 544.796 105.228C551.067 105.228 557.339 105.228 563.8 105.228C563.8 101.58 563.8 97.9325 563.8 94.1743Z" fill="#5E5333"/>
<path d="M487.782 160.494C500.452 166.021 500.452 166.021 519.456 177.074C519.456 173.427 519.456 169.779 519.456 166.021C540.361 164.197 561.266 162.373 582.805 160.494C580.714 164.142 578.624 167.789 576.47 171.548C572.289 171.548 568.108 171.548 563.8 171.548C561.71 180.667 559.619 189.786 557.465 199.181C521.832 205.399 521.832 205.399 500.452 199.181C486.879 201.333 486.879 201.333 475.113 204.708C477.203 201.06 479.294 197.412 481.447 193.654C485.628 193.654 489.809 193.654 494.117 193.654C488.529 180.647 488.529 180.647 468.778 177.074C475.049 171.603 481.321 166.131 487.782 160.494Z" fill="#DB901F"/>
<path d="M487.781 94.1743C503.222 94.8652 503.222 94.8652 519.455 99.701C527.77 113.863 527.77 113.863 532.125 127.335C511.22 129.158 490.315 130.982 468.777 132.861C466.686 127.39 464.596 121.918 462.442 116.281C456.824 118.789 451.205 121.297 445.417 123.88C397.154 144.536 397.154 144.536 378.109 141.842C374.582 140.702 371.054 139.562 367.419 138.388C400.161 125.693 433.341 114.86 467.144 104.494C481.035 100.809 481.035 100.809 487.781 94.1743Z" fill="#D2B36B"/>
<path d="M513.119 138.387C517.078 148.404 517.078 148.404 519.454 160.494C513.182 168.701 513.182 168.701 506.784 177.074C500.513 173.426 494.241 169.778 487.78 166.02C459.558 185.17 459.558 185.17 430.766 204.707C426.585 202.883 422.404 201.06 418.097 199.18C422.278 195.533 426.459 191.885 430.766 188.127C431.55 183.681 432.334 179.236 433.142 174.656C437.101 160.494 437.101 160.494 447.791 150.822C468.809 140.91 489.379 138.387 513.119 138.387Z" fill="#DCB353"/>
<path d="M51.4705 149.095C57.2357 149.145 63.0009 149.195 68.9408 149.246C73.3667 149.31 77.7927 149.374 82.3528 149.44C82.3528 153.088 82.3528 156.736 82.3528 160.494C78.1718 160.494 73.9908 160.494 69.6831 160.494C76.7261 178.928 85.3562 186.122 101.357 199.181C96.915 197.243 92.4727 195.305 87.8958 193.309C66.4987 187.221 53.3342 189.259 31.6742 193.654C29.5837 190.006 27.4932 186.359 25.3393 182.601C12.5136 178.997 12.5136 178.997 0 177.074C2.37556 166.366 2.37556 166.366 6.33483 154.967C22.3287 147.99 33.6506 148.896 51.4705 149.095Z" fill="#B3B4AF"/>
<path d="M492.138 26.127C499.39 26.9819 499.39 26.9819 506.788 27.854C502.737 29.5639 498.687 31.2737 494.514 33.0353C481.853 37.9929 481.853 37.9929 475.114 44.4341C474.84 57.3276 474.859 70.2273 475.114 83.1211C475.114 88.5925 475.114 94.0639 475.114 99.7012C439.431 101.026 408.31 96.3039 373.756 88.6478C375.847 81.3525 377.937 74.0573 380.091 66.541C409.885 64.7275 425.299 68.2926 449.774 83.1211C453.955 84.9449 458.136 86.7687 462.444 88.6478C461.007 83.7463 459.57 78.8448 458.089 73.7947C456.109 55.4875 456.109 55.4875 463.236 39.5983C475.114 27.854 475.114 27.854 492.138 26.127Z" fill="#C8C5B3"/>
<path d="M183.71 38.9082C187.891 40.732 192.072 42.5558 196.38 44.4349C179.39 64.7474 164.132 76.1399 139.367 88.6485C126.322 105.72 125.183 109.149 125.905 128.372C126.166 135.325 126.428 142.278 126.697 149.442C114.154 151.266 101.611 153.09 88.688 154.969C88.688 151.321 88.688 147.674 88.688 143.916C94.9595 143.916 101.231 143.916 107.692 143.916C107.399 140.182 107.105 136.449 106.802 132.603C104.935 92.3572 104.935 92.3572 117.195 75.868C122.421 72.7903 127.647 69.7127 133.032 66.5417C137.164 64.034 141.296 61.5262 145.553 58.9425C170.55 44.3506 170.55 44.3506 183.71 38.9082Z" fill="#BCAC87"/>
<path d="M120.363 99.7012C124.544 101.525 128.725 103.349 133.033 105.228C133.033 123.466 133.033 141.704 133.033 160.495C118.399 164.143 103.766 167.79 88.6891 171.548C95.3806 180.644 95.3806 180.644 107.694 188.128C114.488 188.128 121.282 188.128 128.282 188.128C156.653 188.128 171.216 193.955 196.381 204.708C177.835 212.799 164.085 208.95 143.723 206.436C132.981 205.207 132.981 205.207 122.021 203.953C98.81 198.593 86.501 191.911 69.6846 177.075C69.6846 171.604 69.6846 166.132 69.6846 160.495C73.8656 160.495 78.0465 160.495 82.3542 160.495C84.4447 155.023 86.5352 149.552 88.6891 143.915C88.6891 147.562 88.6891 151.21 88.6891 154.968C101.232 153.144 113.775 151.321 126.698 149.441C124.608 133.027 122.517 116.613 120.363 99.7012Z" fill="#E2E1D8"/>
</svg>
