<svg width="1039" height="535" viewBox="0 0 1039 535" fill="none" xmlns="http://www.w3.org/2000/svg">
<g style="mix-blend-mode:multiply">
<path d="M715.835 248.702C751.568 255.426 766.207 263.806 791.853 287.389C804.618 291.441 804.618 291.441 817.192 292.916C825.732 296.434 834.208 300.079 842.532 303.969C838.351 309.441 834.17 314.912 829.862 320.549C826.073 318.839 822.284 317.13 818.38 315.368C803.955 308.932 803.955 308.932 785.518 303.969C785.649 310.238 785.78 316.508 785.914 322.967C785.518 342.656 785.518 342.656 779.183 348.183C775.639 361.144 772.384 374.167 769.285 387.215C767.579 394.346 765.872 401.478 764.113 408.825C762.815 414.347 761.517 419.868 760.179 425.557C758.088 425.557 755.998 425.557 753.844 425.557C753.844 410.966 753.844 396.376 753.844 381.343C749.663 381.343 745.482 381.343 741.174 381.343C743.265 372.224 745.355 363.105 747.509 353.709C751.69 353.709 755.871 353.709 760.179 353.709C748.592 330.965 739.248 318.056 715.835 303.969C715.835 300.322 715.835 296.674 715.835 292.916C689.473 292.465 665.491 293.013 639.817 298.442C635.636 292.971 631.455 287.5 627.147 281.862C651.43 266.908 667.218 263.48 696.831 265.282C696.831 270.754 696.831 276.225 696.831 281.862C707.283 281.862 717.736 281.862 728.505 281.862C722.233 276.391 715.962 270.919 709.5 265.282C711.591 259.811 713.681 254.339 715.835 248.702Z" fill="#D28824"/>
<path d="M266.064 27.6338C272.335 29.4576 278.607 31.2814 285.068 33.1605C278.797 36.8081 272.525 40.4557 266.064 44.2139C270.114 45.8097 274.165 47.4056 278.338 49.0498C291.403 55.2673 291.403 55.2673 297.738 66.3207C308.191 66.3207 318.643 66.3207 329.412 66.3207C333.593 75.4397 337.774 84.5588 342.082 93.9542C329.412 105.008 329.412 105.008 310.408 105.008C310.408 101.36 310.408 97.7123 310.408 93.9542C305.312 92.0734 305.312 92.0734 300.114 90.1546C280.096 80.5032 264.368 68.3087 247.059 55.2673C251.155 72.4987 251.155 72.4987 266.064 77.3741C266.064 84.6693 266.064 91.9646 266.064 99.4809C245.159 99.4809 224.254 99.4809 202.716 99.4809C202.716 95.8333 202.716 92.1856 202.716 88.4275C183.901 88.4275 165.087 88.4275 145.702 88.4275C164.707 77.3741 164.707 77.3741 183.711 77.3741C183.711 73.7265 183.711 70.0788 183.711 66.3207C173.259 66.3207 162.806 66.3207 152.037 66.3207C152.037 60.8493 152.037 55.3778 152.037 49.7406C159.738 48.6078 167.438 47.4751 175.372 46.308C185.411 44.8051 195.449 43.3011 205.487 41.796C210.57 41.0515 215.654 40.307 220.891 39.5399C245.506 37.5671 245.506 37.5671 266.064 27.6338Z" fill="#B76E1B"/>
<path d="M266.065 5.52637C272.337 5.52637 278.608 5.52637 285.07 5.52637C285.07 10.9978 285.07 16.4692 285.07 22.1065C310.156 23.9303 335.242 25.7541 361.088 27.6332C361.088 29.457 361.088 31.2808 361.088 33.1599C350.008 34.2432 338.92 35.2682 327.83 36.2686C321.657 36.8457 315.483 37.4228 309.123 38.0173C291.405 38.6866 291.405 38.6866 278.438 35.3835C260.937 32.2382 250.77 38.3308 234.391 44.2133C220.056 45.7674 205.655 46.905 191.235 47.6675C180.199 48.2873 180.199 48.2873 168.94 48.9196C160.574 49.3257 160.574 49.3257 152.039 49.74C152.039 55.2114 152.039 60.6828 152.039 66.3201C162.491 66.3201 172.943 66.3201 183.713 66.3201C183.713 77.3735 183.713 77.3735 177.378 82.9002C187.83 82.9002 198.283 82.9002 209.052 82.9002C209.052 88.3716 209.052 93.843 209.052 99.4803C215.323 101.304 221.595 103.128 228.057 105.007C223.305 131.259 223.305 131.259 209.052 143.694C232.047 136.399 255.043 129.103 278.735 121.587C282.916 125.235 287.097 128.882 291.405 132.64C289.314 138.112 287.224 143.583 285.07 149.221C280.889 149.221 276.708 149.221 272.4 149.221C272.4 145.573 272.4 141.925 272.4 138.167C265.075 140.561 265.075 140.561 257.603 143.003C251.249 145.055 244.896 147.107 238.351 149.221C232.03 151.272 225.71 153.324 219.198 155.438C202.717 160.274 202.717 160.274 190.048 160.274C193.409 139.157 199.531 126.773 215.387 110.534C207.025 108.71 198.663 106.886 190.048 105.007C190.048 101.359 190.048 97.7117 190.048 93.9536C171.233 93.9536 152.419 93.9536 133.034 93.9536C130.944 88.4821 128.853 83.0107 126.699 77.3735C130.88 77.3735 135.061 77.3735 139.369 77.3735C140.741 69.3373 140.741 69.3373 142.14 61.1388C145.704 44.2133 145.704 44.2133 152.039 38.6866C170.126 36.4738 188.13 34.5315 206.281 32.8144C211.388 32.3122 216.496 31.8099 221.759 31.2924C234.413 30.0512 247.072 28.8395 259.731 27.6332C261.821 20.3379 263.912 13.0427 266.065 5.52637Z" fill="#EDE8D1"/>
<path d="M557.467 165.802C565.829 169.449 574.191 173.097 582.806 176.855C576.535 178.679 570.264 180.503 563.802 182.382C570.073 184.206 576.345 186.029 582.806 187.909C570.264 193.38 557.721 198.851 544.798 204.489C557.34 202.665 569.883 200.841 582.806 198.962C567.693 209.419 557.013 215.674 538.463 221.069C525.78 219.298 513.108 217.462 500.454 215.542C498.363 217.366 496.273 219.19 494.119 221.069C481.452 221.294 468.777 221.304 456.11 221.069C456.11 224.716 456.11 228.364 456.11 232.122C414.142 248.011 414.142 248.011 392.762 254.229C390.671 237.815 388.581 221.4 386.427 204.489C391.158 203.709 395.889 202.93 400.764 202.127C422.126 198.583 443.473 194.974 464.82 191.363C472.268 190.137 479.715 188.912 487.388 187.649C494.493 186.438 501.597 185.227 508.917 183.979C515.485 182.88 522.054 181.78 528.821 180.647C545.728 177.874 545.728 177.874 557.467 165.802Z" fill="#D18519"/>
<path d="M589.139 243.176C589.139 246.824 589.139 250.471 589.139 254.23C597.501 252.406 605.863 250.582 614.479 248.703C616.569 254.174 618.66 259.646 620.814 265.283C624.995 263.459 629.176 261.635 633.483 259.756C631.393 254.285 629.302 248.813 627.148 243.176C641.782 245 656.415 246.824 671.492 248.703C668.618 252.806 665.743 256.91 662.782 261.138C652.409 275.429 652.409 275.429 647.341 288.426C635.958 303.583 621.274 304.897 601.809 309.497C595.538 312.232 595.538 312.232 589.139 315.023C578.519 313.479 567.943 311.661 557.465 309.497C555.375 313.144 553.284 316.792 551.13 320.55C544.004 299.825 544.004 299.825 551.13 287.39C544.859 289.214 538.588 291.037 532.126 292.916C534.106 274.264 534.106 274.264 538.461 254.23C558.909 242.336 565.599 242.066 589.139 243.176Z" fill="#D18019"/>
<path d="M715.836 292.915C715.836 294.739 715.836 296.563 715.836 298.442C709.883 298.944 709.883 298.944 703.81 299.457C696.044 300.151 696.044 300.151 688.121 300.86C682.977 301.309 677.832 301.758 672.532 302.22C658.552 303.366 658.552 303.366 646.153 309.495C650.334 311.319 654.515 313.143 658.823 315.022C656.851 323.774 654.869 332.524 652.884 341.274C651.782 346.147 650.679 351.02 649.543 356.041C646.637 368.257 643.408 380.321 639.818 392.396C635.637 392.396 631.456 392.396 627.149 392.396C626.757 387.152 626.365 381.909 625.961 376.507C623.413 367.958 623.413 367.958 620.814 359.236C605.427 351.561 605.427 351.561 589.14 348.182C587.049 346.359 584.959 344.535 582.805 342.656C580.714 353.598 578.624 364.541 576.47 375.816C580.651 377.64 584.832 379.463 589.14 381.343C578.687 383.166 568.235 384.99 557.466 386.869C552.699 366.672 548.594 346.428 544.796 326.076C557.466 337.129 557.466 337.129 563.8 353.709C565.891 340.942 567.981 328.176 570.135 315.022C589.04 308.15 607.238 302.529 627.149 298.442C637.536 295.364 637.536 295.364 648.133 292.224C673.322 287.01 690.673 288.435 715.836 292.915Z" fill="#EBB447"/>
<path d="M669.513 187.218C676.985 187.317 684.457 187.417 692.155 187.52C700.742 187.712 700.742 187.712 709.502 187.909C712.637 196.116 712.637 196.116 715.836 204.489C731.515 207.224 731.515 207.224 747.511 210.015C747.511 217.311 747.511 224.606 747.511 232.122C734.968 232.122 722.425 232.122 709.502 232.122C711.592 224.827 713.683 217.532 715.836 210.015C699.588 210.349 683.375 210.83 667.137 211.397C662.568 211.475 658 211.554 653.292 211.635C621.604 212.897 606.656 218.24 582.805 237.649C573.31 242.58 563.678 247.317 553.902 251.811C534.709 260.662 517.564 270.184 500.452 281.862C510.481 258.24 528.995 247.236 551.131 232.122C540.678 233.946 530.226 235.77 519.457 237.649C519.457 234.001 519.457 230.354 519.457 226.595C549.243 212.415 574.209 203.093 608.144 198.962C631.152 185.58 642.248 186.747 669.513 187.218Z" fill="#F0CA62"/>
<path d="M690.498 359.236C698.86 359.236 707.222 359.236 715.838 359.236C717.928 366.532 720.019 373.827 722.173 381.343C728.444 377.696 734.716 374.048 741.177 370.29C741.177 373.937 741.177 377.585 741.177 381.343C745.358 381.343 749.539 381.343 753.847 381.343C753.847 395.934 753.847 410.524 753.847 425.557C741.304 431.028 741.304 431.028 728.507 436.61C729.422 439.688 730.337 442.765 731.279 445.936C732.455 450.154 733.631 454.372 734.842 458.717C736.541 463.276 738.239 467.836 739.989 472.534C741.177 486.35 741.177 486.35 731.279 498.44C704.556 515.776 679.175 521.205 646.155 519.511C652.426 517.687 658.698 515.863 665.159 513.984C667.25 504.865 669.34 495.746 671.494 486.35C690.498 480.824 690.498 480.824 709.503 480.824C711.593 475.352 713.684 469.881 715.838 464.244C707.476 466.067 699.114 467.891 690.498 469.77C690.498 466.123 690.498 462.475 690.498 458.717C685.403 458.033 680.307 457.349 675.057 456.644C667.022 454.935 667.022 454.935 658.824 453.19C656.734 449.543 654.643 445.895 652.489 442.137C639.946 442.137 627.404 442.137 614.48 442.137C614.48 438.489 614.48 434.842 614.48 431.083C620.752 429.26 627.023 427.436 633.485 425.557C627.213 420.085 620.942 414.614 614.48 408.977C616.571 405.329 618.661 401.681 620.815 397.923C636.494 408.866 636.494 408.866 652.489 420.03C652.489 409.087 652.489 398.144 652.489 386.87C662.942 385.046 673.394 383.222 684.164 381.343C686.254 374.048 688.345 366.753 690.498 359.236Z" fill="#B6670C"/>
<path d="M576.472 331.603C592.605 345.677 598.859 360.064 608.146 378.234C617.768 397.016 626.731 413.954 639.82 431.083C631.458 431.083 623.096 431.083 614.481 431.083C614.481 434.731 614.481 438.378 614.481 442.137C627.024 443.96 639.567 445.784 652.49 447.663C650.115 458.371 650.115 458.371 646.155 469.77C641.974 471.594 637.793 473.418 633.486 475.297C635.576 469.825 637.667 464.354 639.82 458.717C625.187 462.364 610.554 466.012 595.477 469.77C595.477 466.122 595.477 462.475 595.477 458.717C585.024 456.893 574.572 455.069 563.802 453.19C563.802 440.423 563.802 427.657 563.802 414.503C572.164 414.503 580.526 414.503 589.142 414.503C591.232 407.208 593.323 399.913 595.477 392.396C580.843 394.22 566.21 396.044 551.133 397.923C551.133 394.275 551.133 390.628 551.133 386.87C559.495 383.222 567.857 379.574 576.472 375.816C576.472 361.226 576.472 346.635 576.472 331.603Z" fill="#DA9423"/>
<path d="M183.71 397.922C183.71 403.394 183.71 408.865 183.71 414.502C187.891 414.502 192.072 414.502 196.38 414.502C186.589 433.72 175.471 449.324 158.371 464.243C134.615 468.733 134.615 468.733 114.027 469.769C114.027 458.826 114.027 447.884 114.027 436.609C124.479 438.433 134.932 440.257 145.701 442.136C147.792 434.841 149.882 427.545 152.036 420.029C147.683 421.96 143.331 423.89 138.847 425.88C130.285 429.652 130.285 429.652 121.549 433.5C113.061 437.251 113.061 437.251 104.401 441.078C88.6876 447.662 88.6876 447.662 69.6831 453.189C76.0179 436.609 76.0179 436.609 88.6876 425.556C74.0541 425.556 59.4206 425.556 44.3438 425.556C65.5993 413.193 86.1302 408.051 110.464 402.413C116.815 400.836 116.815 400.836 123.294 399.228C145.309 394.07 162.083 390.346 183.71 397.922Z" fill="#D28C21"/>
<path d="M361.085 38.6877C381.996 52.9326 397.729 68.8009 411.763 88.428C411.763 92.0756 411.763 95.7233 411.763 99.4814C388.511 108.176 377.283 111.333 352.374 105.699C346.887 103.647 341.399 101.595 335.745 99.4814C333.655 90.3624 331.565 81.2433 329.411 71.8479C316.868 71.8479 304.325 71.8479 291.402 71.8479C291.402 68.2003 291.402 64.5527 291.402 60.7945C275.723 55.3231 275.723 55.3231 259.728 49.7411C276.174 21.0438 331.738 31.6817 361.085 38.6877Z" fill="#C4791D"/>
<path d="M487.784 232.121C481.513 233.945 475.241 235.768 468.78 237.647C479.232 239.471 489.685 241.295 500.454 243.174C500.454 248.646 500.454 254.117 500.454 259.754C502.544 265.226 504.635 270.697 506.789 276.334C509.663 273.599 512.538 270.863 515.499 268.044C525.793 259.754 525.793 259.754 538.463 259.754C538.463 268.873 538.463 277.992 538.463 287.388C542.644 287.388 546.825 287.388 551.133 287.388C551.133 298.331 551.133 309.273 551.133 320.548C540.68 316.9 530.228 313.253 519.458 309.495C517.368 316.79 515.277 324.085 513.124 331.601C506.789 315.021 506.789 315.021 513.124 298.441C490.892 298.441 471.536 300.516 449.775 303.968C453.956 287.554 458.137 271.139 462.445 254.228C456.173 257.875 449.902 261.523 443.44 265.281C428.668 265.718 413.867 265.767 399.097 265.281C429.124 243.45 447.903 230.188 487.784 232.121Z" fill="#DC911D"/>
<path d="M798.189 160.274C844.907 158.236 844.907 158.236 864.309 168.219C872.425 175.3 872.425 175.3 880.542 182.381C889.078 183.656 897.67 184.655 906.277 185.49C914.508 186.288 922.74 187.086 931.22 187.908C927.233 204.14 920.931 217.409 912.216 232.121C905.001 229.129 905.001 229.129 897.641 226.076C891.345 223.512 885.049 220.947 878.562 218.305C872.315 215.74 866.068 213.175 859.632 210.533C842.672 203.45 842.672 203.45 823.528 204.488C823.528 200.84 823.528 197.193 823.528 193.434C817.518 192.636 811.508 191.839 805.316 191.016C785.519 187.908 785.519 187.908 772.85 182.381C774.94 178.733 777.031 175.086 779.184 171.328C783.365 171.328 787.546 171.328 791.854 171.328C793.945 167.68 796.035 164.032 798.189 160.274Z" fill="#BE6F11"/>
<path d="M310.409 193.435C312.5 197.082 314.59 200.73 316.744 204.488C308.382 202.664 300.02 200.84 291.405 198.961C289.314 206.257 287.224 213.552 285.07 221.068C289.251 222.892 293.432 224.716 297.74 226.595C279.01 234.765 261.363 232.455 240.726 232.122C246.998 254.007 253.269 275.893 259.731 298.442C255.55 298.442 251.369 298.442 247.061 298.442C238.874 275.674 232.728 256.061 234.391 232.122C215.577 232.122 196.762 232.122 177.378 232.122C177.107 222.913 177.12 213.696 177.378 204.488C203.309 181.865 277.306 193.044 310.409 193.435Z" fill="#E0C69B"/>
<path d="M747.51 116.061C758.066 117.911 768.624 119.756 779.184 121.588C777.094 127.06 775.003 132.531 772.849 138.168C755.052 144.262 740.209 143.921 721.478 141.817C714.312 141.042 714.312 141.042 707.002 140.251C699.615 139.391 699.615 139.391 692.08 138.514C687.058 137.961 682.036 137.409 676.862 136.84C664.508 135.477 652.162 134.064 639.818 132.641C639.818 134.465 639.818 136.289 639.818 138.168C656.542 139.992 673.266 141.816 690.496 143.695C690.496 145.519 690.496 147.342 690.496 149.222C671.76 151.219 653.021 153.17 634.275 155.094C628.942 155.667 623.61 156.241 618.116 156.832C613.012 157.348 607.909 157.865 602.65 158.397C597.939 158.889 593.229 159.381 588.375 159.888C576.469 160.275 576.469 160.275 563.8 154.748C624.004 107.476 669.324 100.903 747.51 116.061Z" fill="#DA8D1C"/>
<path d="M665.159 442.137C663.069 445.785 660.978 449.432 658.825 453.191C663.528 453.989 668.232 454.786 673.078 455.609C687.46 458.175 701.633 461.031 715.838 464.244C713.748 471.539 711.657 478.835 709.503 486.351C699.051 486.351 688.598 486.351 677.829 486.351C676.261 490.796 674.693 495.242 673.078 499.822C665.159 513.984 665.159 513.984 653.282 519.511C634.832 519.511 627.539 513.917 614.481 502.931C614.481 499.283 614.481 495.636 614.481 491.878C604.028 490.054 593.576 488.23 582.807 486.351C584.897 480.879 586.988 475.408 589.141 469.771C607.681 461.902 626.249 457.532 646.155 453.191C648.245 451.367 650.336 449.543 652.49 447.664C646.218 445.84 639.947 444.016 633.485 442.137C652.49 436.611 652.49 436.611 665.159 442.137Z" fill="#D48C1A"/>
<path d="M732.466 315.368C745.601 331.516 741.596 345.36 738.974 364.439C734.842 375.816 734.842 375.816 715.837 386.87C715.837 379.575 715.837 372.279 715.837 364.763C709.566 367.499 709.566 367.499 703.168 370.29C703.168 366.642 703.168 362.995 703.168 359.236C698.987 359.236 694.806 359.236 690.498 359.236C686.317 366.532 682.136 373.827 677.828 381.343C677.828 372.224 677.828 363.105 677.828 353.71C673.647 353.71 669.466 353.71 665.159 353.71C665.159 350.062 665.159 346.414 665.159 342.656C660.978 342.656 656.797 342.656 652.489 342.656C654.579 333.537 656.67 324.418 658.824 315.023C650.462 313.199 642.1 311.375 633.484 309.496C667.19 291.652 698.025 303.206 732.466 315.368Z" fill="#D7810F"/>
<path d="M190.044 386.869C202.714 399.65 202.714 399.65 209.049 414.503C204.298 426.593 204.298 426.593 196.379 436.61C194.289 440.257 192.198 443.905 190.044 447.663C194.225 447.663 198.406 447.663 202.714 447.663C204.804 454.958 206.895 462.254 209.049 469.77C136.061 488.805 136.061 488.805 101.357 486.35C101.357 482.702 101.357 479.055 101.357 475.297C93.648 474.841 85.9393 474.385 77.997 473.915C52.0422 471.22 37.9995 463.718 19.0039 447.663C42.7399 444.991 56.9221 449.868 77.6011 459.062C108.353 471.913 131.946 470.459 164.705 464.243C160.524 460.596 156.343 456.948 152.035 453.19C157.915 452.506 157.915 452.506 163.913 451.808C178.394 448.736 178.394 448.736 184.897 436.955C186.596 433.194 188.294 429.432 190.044 425.556C192.135 421.909 194.225 418.261 196.379 414.503C192.198 414.503 188.017 414.503 183.709 414.503C181.619 409.032 179.528 403.56 177.375 397.923C132.924 404.853 88.5885 412.159 44.3432 420.03C50.6781 408.976 50.6781 408.976 72.1323 401.658C81.197 399.1 90.2797 396.591 99.3771 394.123C103.864 392.809 108.351 391.494 112.975 390.14C140.732 382.515 161.311 379.278 190.044 386.869Z" fill="#E9E4D3"/>
<path d="M335.746 226.596C337.837 233.891 339.927 241.186 342.081 248.702C326.402 256.909 326.402 256.909 310.407 265.282C310.407 261.635 310.407 257.987 310.407 254.229C299.954 254.229 289.502 254.229 278.733 254.229C278.733 257.877 278.733 261.524 278.733 265.282C289.185 267.106 299.638 268.93 310.407 270.809C310.407 274.457 310.407 278.104 310.407 281.863C304.135 283.686 297.864 285.51 291.402 287.389C301.855 287.389 312.307 287.389 323.076 287.389C320.986 292.861 318.895 298.332 316.742 303.969C300.018 305.793 283.294 307.617 266.063 309.496C261.802 299.722 257.588 289.932 253.393 280.135C251.041 274.685 248.69 269.235 246.267 263.62C240.724 248.702 240.724 248.702 240.724 232.122C251.796 230.107 262.885 228.163 273.981 226.25C283.242 224.615 283.242 224.615 292.689 222.947C309.571 221.157 319.838 221.87 335.746 226.596Z" fill="#CD861B"/>
<path d="M671.494 381.343C687.746 395.521 687.587 406.085 690.498 425.556C693.242 422.935 695.986 420.313 698.813 417.612C709.503 408.976 709.503 408.976 728.507 403.45C736.165 392.395 736.165 392.395 741.177 381.343C745.358 381.343 749.539 381.343 753.847 381.343C753.847 403.45 753.847 403.45 744.815 412.668C740.87 415.439 736.926 418.211 732.863 421.066C727.02 425.287 727.02 425.287 721.059 429.593C709.503 436.61 709.503 436.61 690.498 442.136C694.679 443.96 698.86 445.784 703.168 447.663C703.168 451.311 703.168 454.958 703.168 458.717C711.53 460.54 719.892 462.364 728.507 464.243C726.417 473.362 724.326 482.481 722.173 491.877C717.992 488.229 713.811 484.582 709.503 480.823C711.593 475.352 713.684 469.881 715.838 464.243C707.476 466.067 699.114 467.891 690.498 469.77C690.498 466.122 690.498 462.475 690.498 458.717C685.403 458.033 680.307 457.349 675.057 456.644C669.7 455.504 664.343 454.364 658.824 453.19C656.734 449.542 654.643 445.895 652.489 442.136C639.946 442.136 627.404 442.136 614.48 442.136C614.48 438.489 614.48 434.841 614.48 431.083C620.752 429.259 627.023 427.435 633.485 425.556C627.213 420.085 620.942 414.614 614.48 408.976C616.571 405.329 618.661 401.681 620.815 397.923C636.494 408.866 636.494 408.866 652.489 420.03C652.489 409.087 652.489 398.144 652.489 386.869C658.761 385.046 665.032 383.222 671.494 381.343Z" fill="#C97A0C"/>
<path d="M722.172 116.061C716.097 118.626 716.097 118.626 709.898 121.242C697.238 126.2 697.238 126.2 690.498 132.641C698.509 133.742 698.509 133.742 706.681 134.865C713.623 135.841 720.564 136.817 727.715 137.822C734.624 138.784 741.532 139.746 748.65 140.737C766.516 143.694 766.516 143.694 779.186 149.221C779.186 152.869 779.186 156.516 779.186 160.274C773.992 159.875 768.798 159.476 763.448 159.065C756.621 158.553 749.794 158.04 742.76 157.511C735.999 156.998 729.237 156.485 722.271 155.957C707.488 155.021 692.65 154.748 677.828 154.748C680.964 165.691 680.964 165.691 684.163 176.855C669.53 176.855 654.896 176.855 639.819 176.855C637.729 173.207 635.638 169.559 633.484 165.801C608.399 171.273 583.313 176.744 557.467 182.381C565.829 184.205 574.19 186.029 582.806 187.908C548.661 200.365 512.795 212.857 475.114 210.015C460.761 201.768 460.761 201.768 449.774 193.435C454.894 192.829 460.015 192.223 465.29 191.6C472.059 190.723 478.829 189.847 485.804 188.944C492.492 188.111 499.18 187.277 506.07 186.418C534.694 180.559 552.265 170.339 572.908 152.33C589.89 137.514 606.62 126.882 627.15 116.061C631.853 113.553 636.557 111.045 641.403 108.462C669.277 102.935 694.846 110.043 722.172 116.061Z" fill="#D28316"/>
<path d="M715.835 248.702C751.568 255.426 766.207 263.806 791.853 287.389C804.618 291.441 804.618 291.441 817.192 292.916C825.732 296.434 834.208 300.079 842.532 303.969C838.351 309.441 834.17 314.912 829.862 320.549C826.073 318.839 822.284 317.13 818.38 315.368C803.955 308.932 803.955 308.932 785.518 303.969C785.649 310.238 785.78 316.508 785.914 322.967C785.518 342.656 785.518 342.656 779.183 348.183C775.639 361.144 772.384 374.167 769.285 387.215C767.579 394.346 765.872 401.478 764.113 408.825C762.815 414.347 761.517 419.868 760.179 425.557C758.088 425.557 755.998 425.557 753.844 425.557C753.844 410.966 753.844 396.376 753.844 381.343C749.663 381.343 745.482 381.343 741.174 381.343C743.265 372.224 745.355 363.105 747.509 353.709C751.69 353.709 755.871 353.709 760.179 353.709C748.592 330.965 739.248 318.056 715.835 303.969C715.835 300.322 715.835 296.674 715.835 292.916C689.473 292.465 665.491 293.013 639.817 298.442C635.636 292.971 631.455 287.5 627.147 281.862C651.43 266.908 667.218 263.48 696.831 265.282C696.831 270.754 696.831 276.225 696.831 281.862C707.283 281.862 717.736 281.862 728.505 281.862C722.233 276.391 715.962 270.919 709.5 265.282C711.591 259.811 713.681 254.339 715.835 248.702Z" fill="#D28823"/>
<path d="M335.746 226.595C345.644 239.721 345.644 239.721 348.416 259.755C341.077 281.677 332.086 301.972 316.742 320.549C299.741 325.104 299.741 325.104 285.067 326.076C257.075 299.97 240.724 268.062 240.724 232.122C251.796 230.107 262.885 228.163 273.981 226.25C283.242 224.615 283.242 224.615 292.689 222.947C309.785 221.134 319.903 220.973 335.746 226.595Z" fill="#C27E1E"/>
<path d="M669.512 187.563C680.72 187.638 680.72 187.638 692.154 187.714C697.879 187.778 703.603 187.842 709.501 187.908C711.591 193.38 713.682 198.851 715.836 204.489C731.514 207.224 731.514 207.224 747.51 210.015C747.51 217.31 747.51 224.606 747.51 232.122C734.967 232.122 722.424 232.122 709.501 232.122C711.591 224.827 713.682 217.532 715.836 210.015C703.56 210.796 691.287 211.608 679.015 212.433C672.18 212.882 665.345 213.331 658.303 213.793C639.438 215.001 639.438 215.001 620.813 221.069C620.813 224.716 620.813 228.364 620.813 232.122C625.623 231.994 630.433 231.866 635.388 231.733C641.684 231.634 647.98 231.534 654.467 231.431C660.714 231.303 666.961 231.175 673.397 231.043C690.496 232.122 690.496 232.122 709.501 243.175C709.501 250.471 709.501 257.766 709.501 265.282C715.772 267.106 722.044 268.93 728.505 270.809C728.505 274.457 728.505 278.104 728.505 281.862C718.053 281.862 707.6 281.862 696.831 281.862C696.831 276.391 696.831 270.919 696.831 265.282C682.198 265.282 667.564 265.282 652.487 265.282C652.487 259.811 652.487 254.339 652.487 248.702C644.125 246.878 635.763 245.054 627.148 243.175C627.148 246.823 627.148 250.471 627.148 254.229C631.329 256.053 635.51 257.876 639.818 259.756C631.456 265.227 623.094 270.698 614.478 276.336C610.297 274.512 606.116 272.688 601.809 270.809C601.809 265.337 601.809 259.866 601.809 254.229C597.628 254.229 593.447 254.229 589.139 254.229C589.139 250.581 589.139 246.934 589.139 243.175C580.777 241.352 572.415 239.528 563.8 237.649C569.941 235.483 576.081 233.317 582.408 231.086C603.214 222.86 603.214 222.86 607.352 206.216C607.613 201.998 607.874 197.78 608.144 193.435C629.823 187.13 646.702 187.366 669.512 187.563Z" fill="#EBBE57"/>
<path d="M589.14 243.175C589.14 246.823 589.14 250.471 589.14 254.229C597.502 252.405 605.864 250.581 614.479 248.702C616.57 254.174 618.66 259.645 620.814 265.282C624.995 263.458 629.176 261.635 633.484 259.755C631.393 254.284 629.303 248.813 627.149 243.175C641.782 244.999 656.416 246.823 671.493 248.702C668.618 252.806 665.744 256.909 662.782 261.137C652.409 275.428 652.409 275.428 647.341 288.425C635.959 303.582 621.274 304.897 601.81 309.496C595.538 312.231 595.538 312.231 589.14 315.022C578.519 313.478 567.943 311.661 557.466 309.496C555.375 313.143 553.285 316.791 551.131 320.549C551.131 316.902 551.131 313.254 551.131 309.496C540.679 307.672 530.226 305.848 519.457 303.969C517.366 293.026 515.276 282.083 513.122 270.809C558.187 239.084 558.187 239.084 589.14 243.175Z" fill="#D3821A"/>
<path d="M444.626 234.196C450.31 235.905 450.31 235.905 456.108 237.65C443.565 244.945 431.022 252.24 418.099 259.757C440.049 257.021 440.049 257.021 462.443 254.23C455.092 273.468 444.945 278.811 427.181 291.039C414.715 301.203 410.06 311.939 405.429 326.077C401.248 326.077 397.068 326.077 392.76 326.077C392.76 333.372 392.76 340.667 392.76 348.184C386.488 346.36 380.217 344.536 373.755 342.657C373.755 337.186 373.755 331.714 373.755 326.077C365.393 326.077 357.031 326.077 348.416 326.077C352.639 318.708 356.862 311.339 361.086 303.97C365.201 295.934 365.201 295.934 369.4 287.736C383.682 265.123 411.403 229.227 444.626 234.196Z" fill="#EAB443"/>
<path d="M650.114 159.584C655.03 159.57 659.946 159.556 665.011 159.541C677.829 160.275 677.829 160.275 690.499 165.802C690.499 169.449 690.499 173.097 690.499 176.855C711.404 180.503 732.309 184.15 753.847 187.909C728.508 204.489 728.508 204.489 715.838 204.489C713.748 200.841 711.657 197.193 709.503 193.435C682.327 193.435 655.15 193.435 627.151 193.435C625.06 197.083 622.97 200.73 620.816 204.489C593.365 204.489 565.914 204.489 538.463 204.489C546.825 199.017 555.187 193.546 563.802 187.909C559.621 186.085 555.44 184.261 551.133 182.382C584.958 169.329 612.654 159.475 650.114 159.584Z" fill="#E5A534"/>
<path d="M494.118 287.388C496.208 291.035 498.299 294.683 500.453 298.441C504.634 298.441 508.815 298.441 513.122 298.441C513.122 307.56 513.122 316.679 513.122 326.075C517.303 327.898 521.484 329.722 525.792 331.601C527.883 326.13 529.973 320.658 532.127 315.021C529.05 332.281 525.801 348.158 519.457 364.762C525.729 366.585 532 368.409 538.462 370.288C521.738 368.464 505.014 366.641 487.783 364.762C487.783 359.29 487.783 353.819 487.783 348.181C482.949 349.435 478.115 350.689 473.134 351.981C467.516 352.551 461.897 353.121 456.109 353.708C444.627 345.763 444.627 345.763 437.104 337.128C447.07 315.393 452.777 305.678 476.301 293.605C482.181 291.553 488.06 289.502 494.118 287.388Z" fill="#E8C26D"/>
<path d="M304.072 38.6876C295.71 40.5114 287.348 42.3353 278.733 44.2143C282.914 46.0381 287.095 47.862 291.402 49.741C293.493 55.2125 295.583 60.6839 297.737 66.3211C308.19 66.3211 318.642 66.3211 329.411 66.3211C333.592 75.4402 337.773 84.5592 342.081 93.9546C329.411 105.008 329.411 105.008 310.407 105.008C310.407 101.36 310.407 97.7128 310.407 93.9546C305.311 92.0738 305.311 92.0738 300.113 90.155C280.095 80.5036 264.367 68.3092 247.059 55.2677C251.154 72.4992 251.154 72.4992 266.063 77.3745C266.063 84.6698 266.063 91.965 266.063 99.4813C245.158 99.4813 224.253 99.4813 202.715 99.4813C202.715 95.8337 202.715 92.1861 202.715 88.4279C192.262 86.6041 181.81 84.7803 171.041 82.9012C175.222 81.0774 179.403 79.2536 183.71 77.3745C183.71 73.7269 183.71 70.0793 183.71 66.3211C173.258 66.3211 162.805 66.3211 152.036 66.3211C152.036 60.8497 152.036 55.3783 152.036 49.741C169.048 46.7861 186.069 43.9217 203.111 41.1056C207.876 40.2685 212.64 39.4314 217.55 38.5689C248.537 33.5365 273.13 33.2743 304.072 38.6876Z" fill="#B86E1B"/>
<path d="M418.1 320.549C424.372 323.285 424.372 323.285 430.77 326.076C434.729 337.474 434.729 337.474 437.105 348.182C441.286 347.384 445.467 346.586 449.774 345.764C472.935 341.976 496.058 339.551 519.458 337.129C515.277 344.424 511.096 351.719 506.788 359.236C500.516 357.412 494.245 355.588 487.783 353.709C487.783 357.357 487.783 361.004 487.783 364.762C495.884 365.218 503.985 365.674 512.331 366.144C526.436 367.612 526.436 367.612 538.462 370.289C546.381 381.343 546.381 381.343 551.132 392.396C569.84 399.24 575.675 398.154 595.476 392.396C593.385 399.691 591.295 406.986 589.141 414.503C580.779 416.327 572.417 418.15 563.801 420.029C565.892 430.972 567.982 441.915 570.136 453.19C578.498 455.013 586.86 456.837 595.476 458.716C591.295 466.012 587.114 473.307 582.806 480.823C576.534 480.823 570.263 480.823 563.801 480.823C567.982 484.471 572.163 488.118 576.471 491.877C566.019 491.877 555.566 491.877 544.797 491.877C534.483 473.88 536.635 453.917 535.765 434.019C533.846 419.147 533.846 419.147 519.185 412.603C515.094 411.406 511.003 410.209 506.788 408.976C506.788 405.328 506.788 401.681 506.788 397.923C513.059 394.275 519.331 390.627 525.792 386.869C509.068 381.398 492.345 375.926 475.114 370.289C475.114 366.642 475.114 362.994 475.114 359.236C460.48 361.06 445.847 362.883 430.77 364.762C417.138 346.923 416.828 341.086 418.1 320.549Z" fill="#DDD1AE"/>
<path d="M557.466 420.03C569.74 422.103 569.74 422.103 582.805 425.557C584.896 429.205 586.986 432.852 589.14 436.61C595.411 438.434 601.683 440.258 608.144 442.137C608.144 449.432 608.144 456.728 608.144 464.244C612.325 460.596 616.506 456.949 620.814 453.19C634.276 455.263 634.276 455.263 646.153 458.717C648.244 455.07 650.334 451.422 652.488 447.664C646.217 445.84 639.945 444.016 633.484 442.137C643.936 440.313 654.389 438.489 665.158 436.61C663.067 442.082 660.977 447.553 658.823 453.19C663.527 453.988 668.23 454.786 673.076 455.608C687.458 458.175 701.631 461.031 715.837 464.244C713.746 471.539 711.656 478.834 709.502 486.351C699.049 486.351 688.597 486.351 677.828 486.351C676.26 490.796 674.692 495.242 673.076 499.822C665.158 513.984 665.158 513.984 653.28 519.511C634.831 519.511 627.538 513.917 614.479 502.931C614.479 499.283 614.479 495.636 614.479 491.877C604.027 490.054 593.574 488.23 582.805 486.351C586.986 477.232 591.167 468.113 595.475 458.717C585.022 456.893 574.57 455.07 563.801 453.19C561.71 442.248 559.62 431.305 557.466 420.03Z" fill="#D48C1D"/>
<path d="M715.837 298.443C733.118 306.012 740.547 313.024 753.846 326.076C759.389 341.62 759.389 341.62 760.181 353.71C756 353.71 751.819 353.71 747.511 353.71C747.511 359.181 747.511 364.653 747.511 370.29C731.674 379.616 731.674 379.616 715.837 386.87C715.837 379.575 715.837 372.279 715.837 364.763C709.566 367.499 709.566 367.499 703.168 370.29C703.168 366.642 703.168 362.995 703.168 359.236C698.987 359.236 694.806 359.236 690.498 359.236C686.317 366.532 682.136 373.827 677.828 381.343C677.828 372.224 677.828 363.105 677.828 353.71C673.647 353.71 669.466 353.71 665.159 353.71C665.159 350.062 665.159 346.414 665.159 342.656C660.978 342.656 656.797 342.656 652.489 342.656C654.579 333.537 656.67 324.418 658.824 315.023C650.462 313.199 642.1 311.375 633.484 309.496C660.876 296.034 684.933 293.871 715.837 298.443Z" fill="#D27E0F"/>
<path d="M791.853 226.595C827.489 229.082 846.427 235.904 874.206 254.228C855.202 259.755 855.202 259.755 842.532 254.228C846.713 268.819 850.894 283.409 855.202 298.442C836.397 300.395 822.539 301.436 806.206 292.289C796.899 285.426 788.008 278.14 779.184 270.808C781.274 266.591 783.365 262.373 785.518 258.028C792.958 243.226 792.958 243.226 791.853 226.595Z" fill="#DD8D16"/>
<path d="M637.888 208.936C647.242 209.009 656.596 209.141 665.949 209.324C670.726 209.374 675.503 209.424 680.425 209.475C692.229 209.606 704.033 209.804 715.836 210.015C715.836 219.134 715.836 228.253 715.836 237.648C686.569 237.648 657.302 237.648 627.148 237.648C627.148 243.12 627.148 248.591 627.148 254.229C631.329 256.052 635.51 257.876 639.818 259.755C631.456 265.227 623.094 270.698 614.478 276.335C610.297 274.512 606.116 272.688 601.809 270.809C601.809 265.337 601.809 259.866 601.809 254.229C597.628 254.229 593.447 254.229 589.139 254.229C589.139 250.581 589.139 246.933 589.139 243.175C580.777 241.351 572.415 239.528 563.8 237.648C569.81 235.141 575.82 232.633 582.012 230.049C627.497 209.415 627.497 209.415 637.888 208.936Z" fill="#DF9D2A"/>
<path d="M411.765 320.549C418.037 322.373 424.308 324.196 430.77 326.076C435.125 337.474 435.125 337.474 437.105 348.182C453.828 348.182 470.552 348.182 487.783 348.182C487.783 353.654 487.783 359.125 487.783 364.762C494.055 364.762 500.326 364.762 506.788 364.762C508.878 361.115 510.969 357.467 513.122 353.709C513.122 359.18 513.122 364.652 513.122 370.289C521.484 370.289 529.846 370.289 538.462 370.289C544.733 381.232 551.005 392.175 557.466 403.449C545.589 401.722 545.589 401.722 532.127 397.923C527.946 392.451 523.765 386.98 519.457 381.343C497.709 374.869 497.709 374.869 475.114 370.289C468.842 368.465 462.571 366.642 456.109 364.762C447.878 363.566 447.878 363.566 439.48 362.345C434.515 361.319 429.55 360.293 424.435 359.236C422.344 355.588 420.254 351.94 418.1 348.182C411.829 355.478 405.557 362.773 399.096 370.289C386.952 368.573 374.81 366.844 362.67 365.108C355.909 364.146 349.147 363.184 342.181 362.193C327.11 359.86 312.504 357.18 297.738 353.709C297.738 350.061 297.738 346.414 297.738 342.656C332.06 346.478 365.409 352.372 399.096 359.236C400.01 354.904 400.925 350.573 401.867 346.11C405.43 331.602 405.43 331.602 411.765 320.549Z" fill="#EAE9D7"/>
<path d="M658.825 99.4814C658.825 103.129 658.825 106.777 658.825 110.535C653.778 112.48 648.732 114.425 643.532 116.429C633.463 120.521 633.463 120.521 623.191 124.697C616.577 127.326 609.962 129.955 603.148 132.663C584.405 142.828 577.83 148.579 565.262 163.384C542.201 188.295 516.08 191.271 481.054 195.853C475.448 196.733 469.842 197.613 464.066 198.519C437.823 202.487 413.109 204.903 386.427 204.489C387.178 208.222 387.93 211.955 388.704 215.801C395.457 256.571 395.457 256.571 380.488 274.263C374.021 278.025 374.021 278.025 367.423 281.863C363.242 280.039 359.061 278.215 354.753 276.336C361.024 268.129 361.024 268.129 367.423 259.756C371.604 259.756 375.785 259.756 380.092 259.756C379.561 256.293 379.031 252.831 378.484 249.264C377.839 244.747 377.194 240.23 376.529 235.576C375.867 231.088 375.206 226.6 374.525 221.976C373.757 210.015 373.757 210.015 380.092 198.962C415.681 186.243 452.056 183.728 489.962 179.964C511.768 177.037 530.711 173.036 551.133 165.802C558.154 155.394 558.154 155.394 563.802 143.695C587.408 124.312 624.858 99.4814 658.825 99.4814Z" fill="#E9E3CC"/>
<path d="M760.18 171.328C764.361 171.328 768.542 171.328 772.849 171.328C772.849 174.976 772.849 178.623 772.849 182.382C780.819 183.863 788.789 185.345 797.001 186.872C817.55 191.354 829.386 194.924 842.532 210.015C846.991 213.755 846.991 213.755 851.54 217.571C864.886 229.618 874.3 243.251 884.476 257.402C888.8 261.303 888.8 261.303 893.211 265.282C901.573 265.282 909.935 265.282 918.55 265.282C916.46 270.753 914.369 276.225 912.216 281.862C891.311 285.51 870.406 289.157 848.867 292.916C844.686 278.325 840.505 263.735 836.198 248.702C844.56 248.702 852.922 248.702 861.537 248.702C846.904 241.407 832.27 234.111 817.193 226.595C817.193 221.124 817.193 215.652 817.193 210.015C797.217 206.142 780.912 204.488 760.18 204.488C760.18 193.545 760.18 182.603 760.18 171.328Z" fill="#A75C0F"/>
<path d="M95.0219 425.557C86.6599 434.676 78.2979 443.795 69.6825 453.19C74.035 450.797 78.3875 448.403 82.8719 445.937C88.5799 442.859 94.2879 439.781 100.169 436.61C105.828 433.533 111.487 430.455 117.318 427.284C133.031 420.03 133.031 420.03 152.035 420.03C149.945 427.326 147.854 434.621 145.701 442.137C130.022 439.401 130.022 439.401 114.026 436.61C114.026 447.553 114.026 458.496 114.026 469.771C120.82 467.833 127.615 465.895 134.615 463.898C164.218 457.442 164.218 457.442 183.709 464.244C152.191 474.719 126.232 481.635 93.7351 470.526C83.8276 466.591 73.9611 462.576 64.1396 458.48C49.279 452.641 35.1611 449.483 19.0039 447.664C19.0039 444.016 19.0039 440.369 19.0039 436.61C44.9904 421.496 65.019 416.832 95.0219 425.557Z" fill="#AA681C"/>
<path d="M715.836 292.915C715.836 294.739 715.836 296.563 715.836 298.442C709.883 298.944 709.883 298.944 703.81 299.457C696.044 300.151 696.044 300.151 688.121 300.86C682.977 301.309 677.832 301.758 672.532 302.22C658.552 303.366 658.552 303.366 646.153 309.495C650.334 311.319 654.515 313.143 658.823 315.022C656.851 323.774 654.869 332.524 652.884 341.274C651.782 346.147 650.679 351.02 649.543 356.041C646.637 368.257 643.408 380.321 639.818 392.396C635.637 392.396 631.456 392.396 627.149 392.396C626.757 387.152 626.365 381.909 625.961 376.507C623.413 367.958 623.413 367.958 620.814 359.236C605.427 351.561 605.427 351.561 589.14 348.182C587.049 346.359 584.959 344.535 582.805 342.656C580.714 353.598 578.624 364.541 576.47 375.816C580.651 377.64 584.832 379.463 589.14 381.343C578.687 383.166 568.235 384.99 557.466 386.869C552.699 366.672 548.594 346.428 544.796 326.076C557.466 337.129 557.466 337.129 563.8 353.709C565.891 340.942 567.981 328.176 570.135 315.022C589.04 308.15 607.238 302.529 627.149 298.442C637.536 295.364 637.536 295.364 648.133 292.224C673.322 287.01 690.673 288.435 715.836 292.915Z" fill="#EBB447"/>
<path d="M475.113 187.908C455.354 197.816 439.151 200.856 416.516 202.416C410.865 202.829 405.214 203.242 399.392 203.668C395.113 203.938 390.834 204.209 386.425 204.488C387.177 208.221 387.928 211.954 388.702 215.801C391.163 230.658 392.978 244.737 392.76 259.755C381.674 272.536 381.674 272.536 367.421 281.862C364.546 286.307 361.672 290.753 358.71 295.333C344.85 314.402 331.924 324.364 310.407 337.129C294.57 338.856 294.57 338.856 278.733 331.602C246.72 305.3 236.4 280.518 234.439 242.657C234.423 239.18 234.406 235.704 234.389 232.122C215.575 232.122 196.761 232.122 177.376 232.122C179.466 224.826 181.557 217.531 183.711 210.015C183.711 213.662 183.711 217.31 183.711 221.068C204.616 222.892 225.521 224.716 247.059 226.595C247.451 233.89 247.843 241.185 248.247 248.702C251.734 277.79 265.442 297.36 285.068 320.549C300.468 319.802 300.468 319.802 316.742 315.022C330.118 298.138 336.893 279.702 342.082 259.755C338.902 240.769 338.902 240.769 329.412 226.595C327.321 222.947 325.231 219.3 323.077 215.541C335.351 218.305 335.351 218.305 348.416 226.595C355.594 248.231 356.581 266.019 348.416 287.389C351.291 282.829 354.165 278.269 357.127 273.572C360.524 269.012 363.921 264.453 367.421 259.755C371.602 259.755 375.783 259.755 380.091 259.755C380.091 239.693 380.091 219.631 380.091 198.961C412.648 192.076 441.404 186.4 475.113 187.908Z" fill="#E9E6D7"/>
<path d="M316.741 33.1605C336.803 29.8789 353.773 29.1644 373.755 33.1605C394.637 47.2221 411.41 62.8345 424.433 82.9008C423.025 100.047 419.65 103.814 404.637 115.37C379.988 123.785 367.005 117.02 342.081 110.534C319.518 114.991 307.761 118.369 291.402 132.641C291.402 110.534 291.402 110.534 297.737 99.4809C289.375 101.305 281.013 103.129 272.397 105.008C272.397 95.8886 272.397 86.7695 272.397 77.3741C285.067 82.9008 297.737 88.4275 310.406 93.9542C310.406 97.6019 310.406 101.249 310.406 105.008C314.228 104.609 318.05 104.21 321.987 103.799C327.05 103.286 332.113 102.773 337.329 102.244C342.327 101.731 347.325 101.218 352.474 100.69C372.246 99.0906 391.921 99.4809 411.764 99.4809C385.558 63.7882 385.558 63.7882 347.846 39.3133C334.631 37.5802 334.631 37.5802 316.741 38.6872C316.741 36.8634 316.741 35.0396 316.741 33.1605Z" fill="#EFEDE1"/>
<path d="M760.18 127.114C817.329 126.45 849.472 140.174 893.211 171.327C901.635 176.88 910.074 182.416 918.55 187.907C899.736 186.084 880.922 184.26 861.537 182.381C861.537 178.733 861.537 175.085 861.537 171.327C840.632 167.68 819.727 164.032 798.189 160.274C796.098 165.745 794.008 171.217 791.854 176.854C781.401 175.03 770.949 173.206 760.18 171.327C762.27 167.68 764.361 164.032 766.515 160.274C770.696 160.274 774.876 160.274 779.184 160.274C779.184 156.626 779.184 152.979 779.184 149.221C772.913 147.397 766.641 145.573 760.18 143.694C760.18 138.222 760.18 132.751 760.18 127.114Z" fill="#D5891B"/>
<path d="M373.756 270.81C377.937 272.633 382.118 274.457 386.426 276.336C373.756 292.916 361.086 309.496 348.417 326.077C358.869 324.253 369.322 322.429 380.091 320.55C380.091 327.845 380.091 335.14 380.091 342.657C384.272 344.48 388.453 346.304 392.76 348.183C392.76 340.888 392.76 333.593 392.76 326.077C396.941 326.077 401.122 326.077 405.43 326.077C403.34 337.019 401.249 347.962 399.095 359.237C363.817 356.585 331.498 352.057 297.738 342.657C297.738 346.304 297.738 349.952 297.738 353.71C306.1 355.534 314.462 357.358 323.077 359.237C312.625 359.237 302.172 359.237 291.403 359.237C289.313 351.942 287.222 344.646 285.068 337.13C291.862 334.85 298.657 332.57 305.657 330.222C339.483 317.489 356.042 298.628 373.756 270.81Z" fill="#BF8023"/>
<path d="M645.605 126.071C652.319 126.791 652.319 126.791 659.169 127.524C664.109 128.027 669.05 128.529 674.14 129.046C681.844 129.971 681.844 129.971 689.705 130.914C697.336 131.678 697.336 131.678 705.121 132.457C731.622 135.333 754.816 139.108 779.184 149.221C779.184 152.869 779.184 156.516 779.184 160.274C772.827 159.388 772.827 159.388 766.341 158.483C714.555 152.843 669.975 158.52 619.452 167.507C600.039 170.6 583.39 172.164 563.8 171.328C563.8 167.68 563.8 164.033 563.8 160.274C581.744 152.447 598.481 152.834 618.438 151.639C629.731 150.944 629.731 150.944 641.253 150.236C647.051 149.901 652.849 149.566 658.822 149.221C644.189 147.397 629.555 145.573 614.478 143.694C629.934 127.42 629.934 127.42 645.605 126.071Z" fill="#C3700E"/>
<path d="M918.553 182.382C918.553 184.206 918.553 186.029 918.553 187.908C899.739 186.085 880.924 184.261 861.54 182.382C861.54 178.734 861.54 175.087 861.54 171.328C840.635 167.681 819.73 164.033 798.191 160.275C796.101 165.746 794.01 171.218 791.857 176.855C776.178 174.119 776.178 174.119 760.182 171.328C762.273 167.681 764.363 164.033 766.517 160.275C770.698 160.275 774.879 160.275 779.187 160.275C779.187 156.627 779.187 152.98 779.187 149.222C719.608 141.014 719.608 141.014 658.825 132.641C658.825 130.818 658.825 128.994 658.825 127.115C759.779 104.866 833.222 133.647 918.553 182.382Z" fill="#D88B1C"/>
<path d="M576.472 331.603C581.437 335.136 586.402 338.67 591.517 342.311C606.85 353.607 606.85 353.607 620.816 359.236C624.775 376.162 624.775 376.162 627.151 392.396C631.332 392.396 635.513 392.396 639.82 392.396C637.73 383.277 635.639 374.158 633.486 364.763C635.576 364.763 637.667 364.763 639.82 364.763C641.911 355.644 644.001 346.525 646.155 337.129C652.427 338.953 658.698 340.777 665.16 342.656C665.16 346.304 665.16 349.951 665.16 353.709C669.341 353.709 673.522 353.709 677.829 353.709C677.829 362.828 677.829 371.947 677.829 381.343C669.467 383.167 661.105 384.99 652.49 386.87C653.666 390.289 654.842 393.709 656.053 397.232C658.825 408.976 658.825 408.976 652.49 420.03C648.962 418.32 645.435 416.61 641.8 414.848C626.356 408.658 612.186 405.879 595.477 403.45C595.477 399.802 595.477 396.154 595.477 392.396C590.512 394.334 585.547 396.272 580.431 398.268C574.944 399.978 569.456 401.688 563.802 403.45C559.621 401.626 555.44 399.802 551.133 397.923C551.133 394.275 551.133 390.628 551.133 386.87C559.495 383.222 567.857 379.574 576.472 375.816C576.472 361.226 576.472 346.635 576.472 331.603Z" fill="#DB901F"/>
<path d="M266.062 38.6878C348.584 31.0947 348.584 31.0947 378.679 49.3742C411.763 81.9963 411.763 81.9963 411.763 99.4815C388.511 108.176 377.283 111.333 352.374 105.699C346.887 103.647 341.399 101.595 335.745 99.4815C333.655 90.3624 331.565 81.2434 329.411 71.848C316.868 71.848 304.325 71.848 291.402 71.848C291.402 68.2004 291.402 64.5527 291.402 60.7946C275.723 55.3231 275.723 55.3231 259.728 49.7412C261.818 46.0936 263.909 42.4459 266.062 38.6878Z" fill="#C4791E"/>
<path d="M798.189 160.274C844.907 158.236 844.907 158.236 864.309 168.219C872.425 175.3 872.425 175.3 880.542 182.381C895.29 184.413 910.074 186.263 924.886 187.908C922.795 202.498 920.705 217.089 918.551 232.121C913.284 230.127 908.017 228.132 902.59 226.076C895.706 223.512 888.822 220.947 881.729 218.305C874.895 215.74 868.06 213.175 861.018 210.533C842.857 203.518 842.857 203.518 823.528 204.488C823.528 200.84 823.528 197.193 823.528 193.434C817.518 192.636 811.508 191.839 805.316 191.016C785.519 187.908 785.519 187.908 772.85 182.381C774.94 178.733 777.031 175.086 779.184 171.328C783.365 171.328 787.546 171.328 791.854 171.328C793.945 167.68 796.035 164.032 798.189 160.274Z" fill="#BE6E0F"/>
<path d="M772.85 348.183C774.941 348.183 777.031 348.183 779.185 348.183C780.542 377.789 781.115 403.597 766.515 431.083C760.244 434.731 753.972 438.378 747.511 442.137C749.667 452.395 749.667 452.395 751.866 462.862C755.112 484.524 755.112 484.524 744.739 499.476C741.473 502.44 738.206 505.403 734.841 508.457C734.841 512.105 734.841 515.752 734.841 519.51C747.384 523.158 759.927 526.806 772.85 530.564C756.185 535.948 749.701 536.942 733.134 530.499C707.271 522.332 685.172 527.222 658.427 530.585C636.033 530.559 625.667 525.871 608.144 513.984C608.144 510.336 608.144 506.688 608.144 502.93C593.511 501.106 578.878 499.283 563.801 497.404C561.71 490.108 559.62 482.813 557.466 475.297C592.577 483.937 613.823 491.304 639.819 513.984C671.435 518.274 694.031 509.679 722.171 497.404C726.352 493.756 730.533 490.108 734.841 486.35C733.128 472.881 733.128 472.881 728.506 458.717C727.33 454.499 726.154 450.282 724.943 445.936C724.028 442.858 723.114 439.781 722.171 436.61C734.714 432.962 747.257 429.315 760.18 425.556C761.095 419.971 762.01 414.386 762.952 408.631C766.251 388.481 769.551 368.332 772.85 348.183Z" fill="#DFDBCF"/>
<path d="M646.153 337.129C652.425 338.953 658.696 340.777 665.158 342.656C665.158 346.303 665.158 349.951 665.158 353.709C669.339 353.709 673.52 353.709 677.827 353.709C677.827 362.828 677.827 371.947 677.827 381.343C669.465 383.166 661.103 384.99 652.488 386.869C654.252 391.999 654.252 391.999 656.051 397.232C658.823 408.976 658.823 408.976 652.488 420.029C628.25 411.722 616.374 399.978 601.809 381.343C593.891 363.035 593.891 363.035 589.14 348.182C604.581 351.636 604.581 351.636 620.814 359.236C625.961 376.507 625.961 376.507 627.149 392.396C631.33 392.396 635.511 392.396 639.818 392.396C637.728 383.277 635.637 374.158 633.483 364.762C635.574 364.762 637.664 364.762 639.818 364.762C641.909 355.643 643.999 346.524 646.153 337.129Z" fill="#E19921"/>
<path d="M829.864 198.963C838.847 201.475 847.819 204.013 856.787 206.562C864.284 208.678 864.284 208.678 871.931 210.837C886.031 215.276 898.973 220.501 912.217 226.596C916.398 221.125 920.579 215.654 924.887 210.016C924.887 228.254 924.887 246.493 924.887 265.283C914.434 267.107 903.982 268.931 893.213 270.81C885.377 262.534 877.54 254.259 869.704 245.983C863.106 239.25 856.049 232.86 848.869 226.596C850.959 224.773 853.05 222.949 855.204 221.07C846.842 217.422 838.48 213.774 829.864 210.016C829.864 206.369 829.864 202.721 829.864 198.963Z" fill="#D18723"/>
<path d="M247.059 55.2666C271.606 64.9383 271.606 64.9383 278.733 77.3734C276.963 86.6392 274.879 95.8662 272.398 105.007C280.76 103.183 289.122 101.359 297.737 99.4802C291.074 116.447 285.987 121.144 267.647 129.985C257.456 133.522 257.456 133.522 247.059 137.131C240.264 139.56 233.47 141.99 226.47 144.493C209.05 149.221 209.05 149.221 196.38 143.694C202.455 140.274 202.455 140.274 208.654 136.785C223.049 126.129 225.533 120.956 228.054 105.007C221.783 103.183 215.511 101.359 209.05 99.4802C251.81 93.2627 251.81 93.2627 266.063 99.4802C266.063 92.185 266.063 84.8897 266.063 77.3734C259.792 75.5496 253.52 73.7258 247.059 71.8467C247.059 66.3753 247.059 60.9038 247.059 55.2666Z" fill="#C79957"/>
<path d="M335.746 248.702C345.541 272.951 336.734 287.508 324.709 309.884C316.741 320.549 316.741 320.549 299.32 326.421C292.265 326.25 292.265 326.25 285.067 326.076C280.886 318.781 276.705 311.485 272.397 303.969C287.031 303.969 301.664 303.969 316.741 303.969C314.651 300.322 312.56 296.674 310.406 292.916C297.863 292.916 285.321 292.916 272.397 292.916C278.669 291.092 284.94 289.268 291.402 287.389C293.492 283.741 295.583 280.094 297.737 276.336C301.918 278.159 306.099 279.983 310.406 281.862C310.406 278.215 310.406 274.567 310.406 270.809C299.954 268.985 289.502 267.161 278.732 265.282C278.732 261.635 278.732 257.987 278.732 254.229C293.514 254.229 308.295 254.229 323.076 254.229C327.257 252.405 331.438 250.581 335.746 248.702Z" fill="#AF6B19"/>
<path d="M316.743 33.1602C373.554 30.64 373.554 30.64 399.096 49.7403C412.472 67.6336 418.79 77.3652 416.121 98.7898C414.684 102.665 413.247 106.541 411.766 110.534C381.887 121.446 371.299 120.73 342.083 110.534C321.593 114.033 321.593 114.033 304.074 121.587C301.983 125.235 299.893 128.883 297.739 132.641C291.468 132.641 285.196 132.641 278.734 132.641C276.644 136.288 274.554 139.936 272.4 143.694C260.2 146.997 260.2 146.997 245.081 149.566C240.14 150.428 235.2 151.29 230.11 152.179C225.251 153.026 220.392 153.874 215.386 154.748C206.927 156.545 198.476 158.373 190.047 160.274C192.137 154.803 194.228 149.331 196.382 143.694C209.744 139.031 209.744 139.031 226.472 135.404C250.763 129.613 270.911 123.799 291.404 110.534C293.495 106.886 295.585 103.239 297.739 99.4806C289.377 101.304 281.015 103.128 272.4 105.007C272.4 95.8882 272.4 86.7692 272.4 77.3738C291.404 85.6638 291.404 85.6638 310.409 93.9539C310.409 97.6015 310.409 101.249 310.409 105.007C314.23 104.608 318.052 104.209 321.99 103.798C327.052 103.285 332.115 102.772 337.332 102.244C342.329 101.731 347.327 101.218 352.476 100.69C372.248 99.0902 391.923 99.4806 411.766 99.4806C385.56 63.7879 385.56 63.7879 347.848 39.313C334.633 37.5799 334.633 37.5799 316.743 38.6869C316.743 36.8631 316.743 35.0393 316.743 33.1602Z" fill="#EDE9D8"/>
<path d="M652.735 208.936C663.98 209.128 663.98 209.128 675.451 209.324C686.745 209.474 686.745 209.474 698.267 209.626C704.065 209.755 709.862 209.883 715.836 210.015C713.745 217.31 711.655 224.605 709.501 232.122C713.249 231.53 716.997 230.939 720.859 230.33C762.255 224.851 762.255 224.851 785.915 234.54C789.965 237.389 794.016 240.239 798.189 243.175C791.917 245.911 791.917 245.911 785.519 248.702C788.986 267.352 792.202 276.791 804.524 292.915C788.532 286.936 779.327 282.004 767.702 270.463C749.204 256.169 733.6 256.904 709.501 254.229C706.659 251.521 703.818 248.814 700.89 246.025C686.141 234.138 674.215 234.862 654.467 233.849C648.171 233.486 641.875 233.122 635.389 232.748C630.579 232.541 625.769 232.335 620.813 232.122C620.813 211.973 631.614 210.12 652.735 208.936Z" fill="#E4A32D"/>
<path d="M494.117 287.388C496.207 291.035 498.298 294.683 500.452 298.441C504.633 298.441 508.814 298.441 513.121 298.441C513.121 307.56 513.121 316.679 513.121 326.075C515.212 320.603 517.302 315.132 519.456 309.494C525.728 309.494 531.999 309.494 538.461 309.494C538.461 324.085 538.461 338.675 538.461 353.708C532.189 351.884 525.918 350.06 519.456 348.181C519.456 344.534 519.456 340.886 519.456 337.128C515.708 338.389 511.96 339.65 508.098 340.949C458.379 356.729 458.379 356.729 430.768 348.181C428.678 339.062 426.587 329.943 424.434 320.548C430.705 320.548 436.977 320.548 443.438 320.548C446.313 317.128 449.187 313.709 452.148 310.185C464.514 296.077 475.042 292.785 494.117 287.388Z" fill="#E7BB5F"/>
<path d="M474.644 201.919C489.918 204.905 501.614 203.898 517.083 202.07C541.384 199.288 559.011 198.952 582.806 204.488C551.395 218.19 535.63 222.848 500.454 215.541C498.363 217.365 496.273 219.189 494.119 221.068C481.452 221.293 468.777 221.303 456.11 221.068C456.11 224.716 456.11 228.363 456.11 232.121C414.933 248.701 414.933 248.701 386.427 248.701C386.427 234.111 386.427 219.52 386.427 204.488C415.316 198.378 445.596 194.876 474.644 201.919Z" fill="#CD811A"/>
<path d="M538.461 215.541C536.371 219.189 534.28 222.837 532.126 226.595C538.398 226.595 544.669 226.595 551.131 226.595C555.312 228.419 559.493 230.242 563.801 232.121C547.077 243.064 530.353 254.007 513.122 265.282C487.783 254.228 487.783 254.228 481.448 248.702C477.267 248.702 473.086 248.702 468.778 248.702C468.778 245.054 468.778 241.406 468.778 237.648C464.597 235.824 460.416 234 456.108 232.121C456.108 228.474 456.108 224.826 456.108 221.068C486.461 212.065 507.144 208.877 538.461 215.541Z" fill="#BA6B13"/>
<path d="M658.825 99.4814C737.635 101.8 816.75 110.414 881.336 152.568C897.095 162.793 913.436 169.693 931.223 176.855C931.223 180.503 931.223 184.15 931.223 187.909C904.111 182.306 886.538 172.722 865.029 157.987C828.788 135.499 794.419 128.791 751.076 122.625C737.617 120.546 724.163 118.439 710.716 116.299C701.916 115.019 701.916 115.019 692.938 113.712C677.83 110.535 677.83 110.535 658.825 99.4814Z" fill="#F7F0D6"/>
<path d="M519.459 309.495C533.198 312.292 544.796 315.021 557.468 320.549C557.468 316.901 557.468 313.253 557.468 309.495C563.739 311.319 570.011 313.143 576.472 315.022C574.382 331.436 572.291 347.85 570.138 364.762C565.957 361.114 561.776 357.467 557.468 353.709C559.624 358.667 559.624 358.667 561.823 363.726C562.476 367.715 563.13 371.705 563.803 375.816C554.696 385.487 554.696 385.487 544.798 392.396C542.708 383.277 540.617 374.158 538.463 364.762C532.192 364.762 525.921 364.762 519.459 364.762C520.635 359.747 521.811 354.731 523.022 349.564C525.524 333.353 525.458 324.614 519.459 309.495Z" fill="#E09D35"/>
<path d="M753.845 171.328C758.026 173.152 762.207 174.976 766.515 176.855C764.424 185.974 762.334 195.093 760.18 204.488C765.929 203.348 771.678 202.209 777.601 201.034C798.952 198.885 806.308 199.443 823.528 210.015C825.619 213.663 827.709 217.31 829.863 221.068C823.722 221.752 817.581 222.436 811.255 223.141C804.852 224.281 798.45 225.421 791.854 226.595C789.764 230.243 787.673 233.89 785.519 237.649C766.911 233.158 766.911 233.158 747.51 226.595C745.42 221.124 743.329 215.652 741.176 210.015C736.995 206.367 732.814 202.72 728.506 198.962C736.868 195.314 745.23 191.666 753.845 187.908C749.664 184.261 745.483 180.613 741.176 176.855C745.357 175.031 749.537 173.207 753.845 171.328Z" fill="#CB7E14"/>
<path d="M641.577 230.655C647.138 230.684 652.699 230.712 658.428 230.742C663.973 230.713 669.518 230.685 675.23 230.655C690.498 232.123 690.498 232.123 709.503 243.177C709.503 250.472 709.503 257.767 709.503 265.284C715.774 267.107 722.046 268.931 728.507 270.81C728.507 274.458 728.507 278.105 728.507 281.864C718.055 281.864 707.602 281.864 696.833 281.864C696.833 276.392 696.833 270.921 696.833 265.284C682.2 265.284 667.566 265.284 652.489 265.284C652.489 259.812 652.489 254.341 652.489 248.703C633.675 245.968 633.675 245.968 614.48 243.177C627.15 232.123 627.15 232.123 641.577 230.655Z" fill="#EDC768"/>
<path d="M323.078 215.541C335.351 218.304 335.351 218.304 348.417 226.594C355.595 248.231 356.582 266.018 348.417 287.388C352.598 285.564 356.779 283.741 361.087 281.861C356.501 306.024 343.296 315.856 322.063 330.781C310.408 337.128 310.408 337.128 293.383 338.165C274.556 329.73 265.333 319.013 253.395 303.968C257.576 302.144 261.757 300.321 266.064 298.442C272.336 305.737 278.607 313.032 285.069 320.548C300.457 321.291 300.457 321.291 316.743 315.022C333.335 291.33 339.327 265.128 335.747 237.648C330.057 224.924 330.057 224.924 323.078 215.541Z" fill="#EAE9DA"/>
<path d="M260.916 189.635C265.583 189.831 270.25 190.027 275.058 190.229C286.882 190.865 298.659 192.103 310.407 193.435C312.498 197.082 314.588 200.73 316.742 204.488C308.38 202.664 300.018 200.841 291.403 198.961C289.312 206.257 287.222 213.552 285.068 221.068C289.249 222.892 293.43 224.716 297.737 226.595C281.631 233.621 272.776 231.79 254.977 230.049C246.489 229.258 246.489 229.258 237.829 228.452C221.72 226.595 221.72 226.595 199.944 222.45C183.385 219.414 183.385 219.414 171.833 229.013C169.481 231.863 167.129 234.712 164.706 237.648C169.457 205.87 169.457 205.87 183.711 193.435C208.464 184.807 234.886 188.162 260.916 189.635Z" fill="#D6C6AC"/>
<path d="M405.433 66.3203C422.398 75.1083 429.737 79.3797 434.731 96.3717C430.772 110.534 430.772 110.534 413.351 123.314C392.763 132.641 392.763 132.641 367.424 132.641C367.424 128.993 367.424 125.345 367.424 121.587C330.199 122.354 330.199 122.354 301.304 140.585C279.025 160.022 258.448 161.916 228.057 165.801C223.591 166.414 219.124 167.026 214.522 167.658C204.272 169 193.995 170.183 183.714 171.328C177.818 156.926 176.434 151.199 183.318 136.786C185.539 133.594 187.76 130.402 190.048 127.114C194.229 128.938 198.41 130.762 202.718 132.641C198.537 141.76 194.356 150.879 190.048 160.274C196.932 157.977 196.932 157.977 203.955 155.633C264.786 135.749 264.786 135.749 297.74 132.641C299.831 127.169 301.921 121.698 304.075 116.061C338.227 105.632 353.173 103.166 386.428 116.061C400.908 111.827 400.908 111.827 411.767 105.007C408.632 85.8572 408.632 85.8572 405.433 66.3203Z" fill="#B2A180"/>
<path d="M791.853 226.595C827.489 229.082 846.427 235.904 874.206 254.228C855.202 259.755 855.202 259.755 842.532 254.228C846.713 268.819 850.894 283.409 855.202 298.442C836.397 300.395 822.539 301.436 806.206 292.289C796.899 285.426 788.008 278.14 779.184 270.808C781.274 266.591 783.365 262.373 785.518 258.028C792.958 243.226 792.958 243.226 791.853 226.595Z" fill="#DD8D16"/>
<path d="M171.04 226.595C191.945 228.419 212.85 230.242 234.388 232.121C235.393 236.524 236.397 240.927 237.432 245.463C249.646 294.218 249.646 294.218 285.067 331.602C305.184 336.924 305.184 336.924 323.076 337.129C314.714 338.953 306.352 340.776 297.737 342.655C297.737 346.303 297.737 349.951 297.737 353.709C322.644 356.945 347.577 359.973 372.567 362.69C379.683 363.481 379.683 363.481 386.944 364.287C399.639 365.645 399.639 365.645 411.764 359.236C409.673 366.531 407.583 373.826 405.429 381.342C388.47 379.728 371.641 377.872 354.75 375.816C349.965 375.331 345.18 374.847 340.249 374.348C299.708 368.757 278.416 354.031 253.393 326.075C232.745 301.272 224.542 278.872 221.719 248.702C204.995 246.878 188.271 245.054 171.04 243.175C171.04 237.703 171.04 232.232 171.04 226.595Z" fill="#A69169"/>
<path d="M646.155 165.802C644.065 167.626 641.974 169.449 639.82 171.329C654.454 173.152 669.087 174.976 684.164 176.855C686.254 173.208 688.345 169.56 690.499 165.802C690.499 169.449 690.499 173.097 690.499 176.855C711.404 180.503 732.309 184.15 753.847 187.909C728.508 204.489 728.508 204.489 715.838 204.489C713.748 200.841 711.657 197.194 709.503 193.435C682.327 193.435 655.15 193.435 627.151 193.435C625.06 197.083 622.97 200.731 620.816 204.489C593.365 204.489 565.914 204.489 538.463 204.489C546.825 199.017 555.187 193.546 563.802 187.909C559.621 186.085 555.44 184.261 551.133 182.382C616.008 157.348 616.008 157.348 646.155 165.802Z" fill="#E5AB3A"/>
<path d="M462.444 232.122C465.216 246.63 465.216 246.63 462.444 265.282C444.027 285.542 424.979 296.915 396.325 303.278C388.289 303.62 388.289 303.62 380.092 303.969C375.736 294.643 375.736 294.643 373.757 281.862C389.79 248.949 420.608 227.828 462.444 232.122Z" fill="#E8B445"/>
<path d="M152.035 381.343C170.248 382.724 170.248 382.724 190.044 386.869C199.151 396.541 199.151 396.541 202.714 408.976C200.712 423.649 197.608 434.466 190.044 447.663C194.225 447.663 198.406 447.663 202.714 447.663C204.804 454.958 206.895 462.254 209.049 469.77C138.257 489.221 138.257 489.221 101.357 480.823C86.4875 479.517 71.6125 478.43 56.7159 477.391C44.3432 475.297 44.3432 475.297 31.6736 464.243C33.7641 460.596 35.8546 456.948 38.0084 453.19C31.7369 451.366 25.4654 449.542 19.0039 447.663C42.7399 444.991 56.9221 449.868 77.6011 459.062C108.353 471.913 131.946 470.459 164.705 464.243C160.524 460.596 156.343 456.948 152.035 453.19C157.915 452.506 157.915 452.506 163.913 451.808C178.394 448.736 178.394 448.736 184.897 436.955C186.596 433.194 188.294 429.432 190.044 425.556C192.135 421.909 194.225 418.261 196.379 414.503C192.198 414.503 188.017 414.503 183.709 414.503C181.619 409.032 179.528 403.56 177.375 397.923C161.696 395.187 161.696 395.187 145.701 392.396C147.791 388.749 149.881 385.101 152.035 381.343Z" fill="#E7E3D1"/>
<path d="M760.18 171.328C764.361 171.328 768.542 171.328 772.849 171.328C772.849 174.976 772.849 178.623 772.849 182.382C780.819 183.863 788.789 185.345 797.001 186.872C817.55 191.354 829.386 194.924 842.532 210.015C846.991 213.755 846.991 213.755 851.54 217.571C864.886 229.618 874.3 243.251 884.476 257.402C888.8 261.303 888.8 261.303 893.211 265.282C901.573 265.282 909.935 265.282 918.55 265.282C916.46 270.753 914.369 276.225 912.216 281.862C891.311 285.51 870.406 289.157 848.867 292.916C844.686 278.325 840.505 263.735 836.198 248.702C844.56 248.702 852.922 248.702 861.537 248.702C846.904 241.407 832.27 234.111 817.193 226.595C817.193 221.124 817.193 215.652 817.193 210.015C797.217 206.142 780.912 204.488 760.18 204.488C760.18 193.545 760.18 182.603 760.18 171.328Z" fill="#A75C0F"/>
<path d="M456.11 265.282C462.158 277.273 463.357 284.975 458.634 297.471C453.838 307.111 448.66 316.605 443.441 326.076C432.988 324.252 422.536 322.428 411.766 320.549C407.585 329.668 403.404 338.787 399.097 348.183C386.823 346.456 386.823 346.456 373.757 342.656C371.667 337.185 369.576 331.713 367.423 326.076C363.242 324.252 359.061 322.428 354.753 320.549C357.92 309.841 357.92 309.841 367.423 298.442C379.838 297.179 392.269 295.959 404.739 295.204C427.615 291.286 439.712 279.231 456.11 265.282Z" fill="#E0A230"/>
<path d="M456.109 265.282C463.541 284.088 461.289 294.514 453.338 312.95C445.717 330.145 445.717 330.145 443.44 348.183C447.621 350.007 451.802 351.83 456.109 353.709C447.747 351.886 439.385 350.062 430.77 348.183C429.986 344.649 429.202 341.115 428.394 337.475C427.088 333.713 425.781 329.952 424.435 326.076C420.254 324.252 416.073 322.428 411.765 320.549C409.675 324.197 407.585 327.844 405.431 331.603C405.918 313.738 407.802 302.133 422.06 288.857C433.163 280.655 444.395 272.807 456.109 265.282Z" fill="#DDA134"/>
<path d="M152.035 420.03C149.945 427.326 147.854 434.621 145.701 442.137C137.339 442.137 128.977 442.137 120.361 442.137C118.271 451.256 116.18 460.375 114.026 469.771C120.82 467.833 127.615 465.895 134.615 463.898C164.218 457.442 164.218 457.442 183.709 464.244C152.191 474.719 126.232 481.635 93.7351 470.526C83.8276 466.591 73.9611 462.576 64.1396 458.48C49.279 452.641 35.1611 449.483 19.0039 447.664C19.0039 444.016 19.0039 440.369 19.0039 436.61C39.2994 424.806 44.4661 424.279 67.7029 424.866C75.383 425.016 75.383 425.016 83.2183 425.168C89.0611 425.361 89.0611 425.361 95.0219 425.557C86.6599 434.676 78.2979 443.795 69.6825 453.19C74.035 450.797 78.3875 448.403 82.8719 445.937C88.5799 442.859 94.2879 439.781 100.169 436.61C105.828 433.533 111.487 430.455 117.318 427.284C133.031 420.03 133.031 420.03 152.035 420.03Z" fill="#A9691E"/>
<path d="M158.373 375.816C170.916 375.816 183.459 375.816 196.382 375.816C215.643 403.823 216.556 421.551 215.386 453.19C217.253 460.609 219.305 468 221.721 475.297C217.752 476.43 213.784 477.563 209.695 478.73C204.518 480.219 199.34 481.708 194.006 483.242C188.862 484.716 183.717 486.191 178.417 487.711C164.642 491.611 164.642 491.611 152.038 497.404C112.276 500.944 85.265 490.623 50.6807 475.297C69.2896 470.291 74.7033 469.362 93.8367 475.297C118.358 482.009 133.258 479.453 158.373 475.297C167.735 474.206 177.106 473.169 186.484 472.188C197.655 470.991 197.655 470.991 209.051 469.77C206.961 462.475 204.87 455.18 202.717 447.664C198.536 447.664 194.355 447.664 190.047 447.664C191.223 441.736 192.399 435.809 193.61 429.702C195.941 412.271 196.665 402.907 190.047 386.87C174.368 384.134 174.368 384.134 158.373 381.343C158.373 379.519 158.373 377.695 158.373 375.816Z" fill="#AB9879"/>
<path d="M411.765 320.549C413.856 320.549 415.946 320.549 418.1 320.549C422.281 333.316 426.462 346.082 430.77 359.236C445.403 359.236 460.037 359.236 475.114 359.236C475.114 362.883 475.114 366.531 475.114 370.289C482.169 370.859 489.224 371.429 496.494 372.016C507.861 373.897 507.861 373.897 519.457 375.816C523.638 381.287 527.819 386.759 532.127 392.396C521.675 394.22 511.222 396.044 500.453 397.923C500.453 394.275 500.453 390.627 500.453 386.869C485.939 384.092 471.421 381.332 456.901 378.579C448.817 377.04 440.732 375.501 432.403 373.916C413.204 369.925 413.204 369.925 399.096 370.289C363.821 367.907 331.45 363.096 297.738 353.709C297.738 350.061 297.738 346.414 297.738 342.656C332.06 346.478 365.409 352.372 399.096 359.236C400.01 354.904 400.925 350.573 401.867 346.11C405.43 331.602 405.43 331.602 411.765 320.549Z" fill="#CDBFA0"/>
<path d="M25.3396 265.283C36.6848 264.836 48.0366 264.514 59.3893 264.247C68.87 263.958 68.87 263.958 78.5423 263.664C83.9808 264.198 89.4194 264.733 95.0227 265.283C99.2037 270.755 103.385 276.226 107.692 281.863C91.0634 303.279 91.0634 303.279 69.6834 309.497C47.1156 310.533 47.1156 310.533 25.3396 309.497C21.1586 305.849 16.9776 302.202 12.6699 298.443C14.9096 285.938 18.8492 276.608 25.3396 265.283Z" fill="#C7BAA3"/>
<path d="M665.158 99.4807C748.297 94.6181 827.543 108.169 893.212 154.748C889.031 156.571 884.85 158.395 880.542 160.274C870.727 156.577 860.928 152.842 851.194 148.983C791.885 128.064 727.475 116.928 665.158 105.007C665.158 103.184 665.158 101.36 665.158 99.4807Z" fill="#EEDAB0"/>
<path d="M152.036 381.342C154.126 386.813 156.217 392.285 158.371 397.922C146.465 400.722 146.465 400.722 134.318 403.578C123.859 406.067 113.4 408.557 102.941 411.048C97.7148 412.273 92.4885 413.499 87.1039 414.761C82.041 415.972 76.9781 417.184 71.7617 418.431C67.1173 419.531 62.4729 420.631 57.6878 421.764C43.9594 425.665 31.7372 430.704 19.0045 436.609C19.0045 442.08 19.0045 447.552 19.0045 453.189C25.276 453.189 31.5475 453.189 38.009 453.189C38.009 456.837 38.009 460.484 38.009 464.243C27.5565 462.419 17.104 460.595 6.33483 458.716C4.24434 453.244 2.15384 447.773 0 442.136C20.6747 406.683 20.6747 406.683 47.239 398.872C58.2439 397.129 69.3137 395.667 80.4226 394.533C108.082 390.484 121.667 380.164 152.036 381.342Z" fill="#D5C7A6"/>
<path d="M215.388 187.908C312.325 181.127 312.325 181.127 338.694 197.752C347.931 208.943 355.119 219.371 361.089 232.121C367.36 230.298 373.632 228.474 380.093 226.595C382.441 257.317 382.441 257.317 371.779 268.39C368.251 271.012 364.723 273.634 361.089 276.335C354.541 285.432 348.162 294.626 342.084 303.969C339.994 300.321 337.903 296.673 335.749 292.915C337.84 289.951 339.93 286.988 342.084 283.934C351.778 263.849 346.154 247.899 342.084 226.595C321.691 220.664 317.365 222.176 297.74 226.595C293.56 224.771 289.379 222.947 285.071 221.068C287.161 213.773 289.252 206.478 291.406 198.961C266.32 197.137 241.234 195.314 215.388 193.434C215.388 191.611 215.388 189.787 215.388 187.908Z" fill="#BBA073"/>
<path d="M247.059 55.2666C271.606 64.9383 271.606 64.9383 278.733 77.3734C276.963 86.6392 274.879 95.8662 272.398 105.007C280.76 103.183 289.122 101.359 297.737 99.4802C291.074 116.447 285.987 121.144 267.647 129.985C257.456 133.522 257.456 133.522 247.059 137.131C240.264 139.56 233.47 141.99 226.47 144.493C209.05 149.221 209.05 149.221 196.38 143.694C202.455 140.274 202.455 140.274 208.654 136.785C223.049 126.129 225.533 120.956 228.054 105.007C221.783 103.183 215.511 101.359 209.05 99.4802C251.81 93.2627 251.81 93.2627 266.063 99.4802C266.063 92.185 266.063 84.8897 266.063 77.3734C259.792 75.5496 253.52 73.7258 247.059 71.8467C247.059 66.3753 247.059 60.9038 247.059 55.2666Z" fill="#C4A071"/>
<path d="M145.702 49.7412C147.792 55.2126 149.883 60.6841 152.037 66.3213C162.489 66.3213 172.942 66.3213 183.711 66.3213C183.711 69.9689 183.711 73.6166 183.711 77.3747C192.073 81.0223 200.435 84.67 209.05 88.4281C209.05 92.0757 209.05 95.7234 209.05 99.4815C215.322 101.305 221.593 103.129 228.055 105.008C226.471 118.134 226.471 118.134 221.72 132.642C208.654 139.896 208.654 139.896 196.381 143.695C198.471 136.4 200.562 129.105 202.715 121.588C196.444 117.941 190.172 114.293 183.711 110.535C183.711 106.887 183.711 103.24 183.711 99.4815C177.439 101.305 171.168 103.129 164.706 105.008C147.682 99.8269 147.682 99.8269 133.032 93.9548C138.575 55.9587 138.575 55.9587 145.702 49.7412Z" fill="#E2D9C6"/>
<path d="M829.864 198.963C838.847 201.475 847.819 204.013 856.787 206.562C864.284 208.678 864.284 208.678 871.931 210.837C886.031 215.276 898.973 220.501 912.217 226.596C916.398 221.125 920.579 215.654 924.887 210.016C924.887 228.254 924.887 246.493 924.887 265.283C914.434 267.107 903.982 268.931 893.213 270.81C885.377 262.534 877.54 254.259 869.704 245.983C863.106 239.25 856.049 232.86 848.869 226.596C850.959 224.773 853.05 222.949 855.204 221.07C846.842 217.422 838.48 213.774 829.864 210.016C829.864 206.369 829.864 202.721 829.864 198.963Z" fill="#D18723"/>
<path d="M183.71 397.922C183.71 403.394 183.71 408.865 183.71 414.502C187.891 414.502 192.072 414.502 196.38 414.502C192.199 421.798 188.018 429.093 183.71 436.609C181.62 436.609 179.529 436.609 177.375 436.609C175.285 427.49 173.194 418.371 171.04 408.976C164.769 408.976 158.497 408.976 152.036 408.976C152.036 414.447 152.036 419.918 152.036 425.556C147.594 426.012 143.151 426.468 138.574 426.937C116.27 432.014 101.219 441.85 82.3527 453.189C78.1717 453.189 73.9908 453.189 69.6831 453.189C76.0179 436.609 76.0179 436.609 88.6876 431.082C74.0541 429.259 59.4206 427.435 44.3438 425.556C65.5993 413.193 86.1302 408.051 110.464 402.413C116.815 400.836 116.815 400.836 123.294 399.228C145.309 394.07 162.083 390.346 183.71 397.922Z" fill="#CD8723"/>
<path d="M924.885 204.487C926.975 204.487 929.066 204.487 931.22 204.487C931.39 217.152 931.513 229.818 931.615 242.483C931.689 249.536 931.762 256.589 931.838 263.856C931.22 281.861 931.22 281.861 924.885 292.915C911.522 295.44 911.522 295.44 894.794 297.405C863.486 302.145 851.736 311.427 829.862 331.601C812.046 330.565 812.046 330.565 798.188 326.075C794.007 340.665 789.826 355.256 785.518 370.288C783.428 370.288 781.337 370.288 779.184 370.288C781.274 348.403 783.365 326.517 785.518 303.968C810.858 309.495 810.858 309.495 829.862 320.548C834.043 313.253 838.224 305.958 842.532 298.441C846.713 298.441 850.894 298.441 855.202 298.441C855.202 294.794 855.202 291.146 855.202 287.388C861.265 286.383 861.265 286.383 867.451 285.358C875.302 283.969 875.302 283.969 883.312 282.552C891.139 281.205 891.139 281.205 899.125 279.832C903.444 278.678 907.764 277.524 912.215 276.334C920.352 262.137 920.639 249.995 922.113 234.193C922.644 228.651 923.175 223.108 923.722 217.397C924.297 211.007 924.297 211.007 924.885 204.487Z" fill="#E4E9E3"/>
<path d="M462.444 232.122C470.806 233.946 479.168 235.77 487.783 237.649C481.512 237.649 475.24 237.649 468.779 237.649C479.231 239.473 489.684 241.296 500.453 243.175C500.453 248.647 500.453 254.118 500.453 259.756C511.027 276.564 511.027 276.564 525.792 281.862C523.702 298.277 521.611 314.691 519.458 331.603C515.277 329.779 511.096 327.955 506.788 326.076C508.878 316.957 510.969 307.838 513.123 298.442C485.527 297.837 485.527 297.837 449.774 303.969C453.955 280.26 458.136 256.55 462.444 232.122Z" fill="#DC901D"/>
<path d="M259.729 0C268.091 1.82381 276.453 3.64762 285.068 5.5267C278.797 5.5267 272.525 5.5267 266.064 5.5267C265.541 8.83236 265.018 12.138 264.48 15.5438C258.097 31.7869 251.278 35.4115 234.39 44.2136C212.515 48.2507 212.515 48.2507 188.462 50.7766C180.459 51.6528 172.457 52.5291 164.212 53.432C158.103 54.0375 151.995 54.6431 145.702 55.267C141.521 68.0337 137.34 80.8004 133.032 93.9539C143.485 95.7777 153.937 97.6015 164.706 99.4806C164.706 101.304 164.706 103.128 164.706 105.007C150.073 103.183 135.44 101.36 120.363 99.4806C118.261 79.7726 118.413 69.1233 130.335 51.9855C149.782 35.1564 163.692 32.866 190.442 28.6698C198.224 27.3803 206.006 26.0908 214.024 24.7622C234.39 22.1068 234.39 22.1068 253.394 22.1068C255.485 14.8116 257.575 7.51631 259.729 0Z" fill="#C8B89C"/>
<path d="M538.464 309.495C551.007 309.495 563.55 309.495 576.473 309.495C574.382 327.733 572.292 345.971 570.138 364.762C565.957 361.114 561.776 357.467 557.468 353.709C558.906 357.014 560.343 360.32 561.823 363.726C562.803 369.71 562.803 369.71 563.803 375.816C554.697 385.487 554.697 385.487 544.799 392.396C542.708 385.1 540.618 377.805 538.464 370.289C521.74 368.465 505.016 366.641 487.785 364.762C487.785 361.114 487.785 357.467 487.785 353.709C509.735 350.973 509.735 350.973 532.129 348.182C534.219 335.415 536.31 322.649 538.464 309.495Z" fill="#DC9D3F"/>
<path d="M373.757 270.81C377.938 272.633 382.119 274.457 386.427 276.336C378.065 289.103 369.703 301.87 361.088 315.023C367.359 316.847 373.631 318.671 380.092 320.55C380.092 327.845 380.092 335.14 380.092 342.657C386.364 344.48 392.635 346.304 399.097 348.183C399.097 351.831 399.097 355.479 399.097 359.237C361.946 357.825 337.918 355.603 310.409 331.603C313.39 329.53 316.37 327.457 319.441 325.321C342.504 308.783 360.166 294.524 373.757 270.81Z" fill="#C98826"/>
<path d="M538.461 215.541C536.371 219.189 534.28 222.837 532.126 226.595C538.398 226.595 544.669 226.595 551.131 226.595C555.312 228.419 559.493 230.242 563.801 232.121C547.077 243.064 530.353 254.007 513.122 265.282C487.783 254.228 487.783 254.228 481.448 248.702C477.267 248.702 473.086 248.702 468.778 248.702C468.778 245.054 468.778 241.406 468.778 237.648C464.597 235.824 460.416 234 456.108 232.121C456.108 228.474 456.108 224.826 456.108 221.068C486.461 212.065 507.144 208.877 538.461 215.541Z" fill="#BA6B13"/>
<path d="M753.845 171.328C758.026 173.152 762.207 174.976 766.515 176.855C764.424 185.974 762.334 195.093 760.18 204.488C765.929 203.348 771.678 202.209 777.601 201.034C798.952 198.885 806.308 199.443 823.528 210.015C825.619 213.663 827.709 217.31 829.863 221.068C823.722 221.752 817.581 222.436 811.255 223.141C804.852 224.281 798.45 225.421 791.854 226.595C789.764 230.243 787.673 233.89 785.519 237.649C766.911 233.158 766.911 233.158 747.51 226.595C745.42 221.124 743.329 215.652 741.176 210.015C736.995 206.367 732.814 202.72 728.506 198.962C736.868 195.314 745.23 191.666 753.845 187.908C749.664 184.261 745.483 180.613 741.176 176.855C745.357 175.031 749.537 173.207 753.845 171.328Z" fill="#CB7E14"/>
<path d="M867.872 154.748C889.121 159.995 910.268 165.235 931.22 171.328C942.438 171.436 953.661 171.294 964.874 170.983C992.168 170.699 1013.51 172.797 1038.91 182.382C1038.91 184.205 1038.91 186.029 1038.91 187.908C1005.46 187.908 972.017 187.908 937.555 187.908C937.555 211.618 937.555 235.327 937.555 259.755C935.465 259.755 933.374 259.755 931.22 259.755C930.894 254.889 930.567 250.024 930.231 245.01C927.564 207.813 927.564 207.813 906.425 177.179C893.827 170.673 881.265 165.383 867.872 160.275C867.872 158.451 867.872 156.627 867.872 154.748Z" fill="#E0DDCB"/>
<path d="M551.133 143.694C555.314 145.518 559.495 147.342 563.803 149.221C523.117 187.759 483.988 193.628 426.02 196.543C421.602 196.782 417.184 197.021 412.633 197.267C401.787 197.85 390.94 198.408 380.093 198.961C380.093 208.08 380.093 217.199 380.093 226.595C373.821 229.331 373.821 229.331 367.423 232.122C369.513 219.355 371.604 206.588 373.758 193.435C418.39 178.48 460.064 173.246 507.531 170.572C520.748 169.726 520.748 169.726 538.463 165.801C548.047 155.102 548.047 155.102 551.133 143.694Z" fill="#D1B380"/>
<path d="M446.605 419.339C462.442 420.03 462.442 420.03 468.777 425.556C470.507 457.258 470.507 457.258 468.777 469.77C464.596 473.418 460.415 477.065 456.107 480.823C439.478 478.751 439.478 478.751 424.433 475.297C424.263 467.122 424.139 458.947 424.037 450.772C423.964 446.22 423.89 441.667 423.814 436.977C424.732 420.034 427.107 420.189 446.605 419.339Z" fill="#9FA19F"/>
<path d="M608.144 204.487C608.144 209.958 608.144 215.43 608.144 221.067C587.82 236.864 563.721 247.072 539.847 258.2C525.805 265.274 513.216 273.155 500.452 281.861C510.481 258.238 528.995 247.234 551.131 232.12C540.678 233.944 530.226 235.768 519.457 237.647C519.457 234 519.457 230.352 519.457 226.594C549.696 211.595 572.314 201.361 608.144 204.487Z" fill="#F1CA67"/>
<path d="M673.473 93.2641C681.182 93.4921 688.89 93.7201 696.833 93.955C696.833 95.7788 696.833 97.6026 696.833 99.4817C689.385 101.362 689.385 101.362 681.788 103.281C635.44 117.922 597.559 133.896 563.801 165.802C539.76 181.97 524.888 191.067 494.118 187.909C497.646 186.427 501.174 184.945 504.808 183.418C509.642 181.253 514.477 179.087 519.457 176.855C525.076 174.348 530.694 171.84 536.482 169.256C552.229 161.8 552.229 161.8 553.532 149.74C559.021 133.596 568.293 129.779 584.389 120.898C589.256 118.148 594.123 115.398 599.138 112.564C624.038 100.301 644.624 92.4109 673.473 93.2641Z" fill="#E6D6AF"/>
<path d="M589.139 403.448C625.564 412.429 625.564 412.429 639.818 431.082C631.456 431.082 623.094 431.082 614.478 431.082C614.478 434.729 614.478 438.377 614.478 442.135C633.293 444.871 633.293 444.871 652.487 447.662C650.112 458.37 650.112 458.37 646.153 469.769C639.881 472.504 639.881 472.504 633.483 475.295C635.573 469.824 637.664 464.352 639.818 458.715C629.365 460.539 618.913 462.363 608.144 464.242C608.144 456.947 608.144 449.651 608.144 442.135C604.355 441.679 600.566 441.223 596.662 440.753C579.025 435.478 573.726 427.924 563.8 414.502C572.162 414.502 580.524 414.502 589.139 414.502C589.139 410.854 589.139 407.206 589.139 403.448Z" fill="#E9A82F"/>
<path d="M266.063 5.52637C274.425 5.52637 282.787 5.52637 291.403 5.52637C291.403 9.17399 291.403 12.8216 291.403 16.5798C297.025 16.9859 297.025 16.9859 302.761 17.4001C330.622 19.7 354.556 22.3809 380.09 33.1599C363.228 40.5153 350.396 39.3094 331.54 39.2263C324.435 39.2085 317.331 39.1907 310.011 39.1723C302.564 39.126 295.116 39.0797 287.443 39.032C279.947 39.0071 272.451 38.9821 264.727 38.9564C246.168 38.8911 227.609 38.8001 209.05 38.6866C209.05 36.8628 209.05 35.0389 209.05 33.1599C225.774 31.3361 242.498 29.5122 259.728 27.6332C261.819 20.3379 263.909 13.0427 266.063 5.52637Z" fill="#E8DDC6"/>
<path d="M177.377 408.977C179.659 444.151 179.659 444.151 170.646 458.027C152.537 467.2 134.633 468.075 114.028 469.771C114.028 460.652 114.028 451.533 114.028 442.138C133.033 436.611 133.033 436.611 145.702 442.138C149.883 433.019 154.064 423.899 158.372 414.504C152.101 412.68 145.829 410.856 139.368 408.977C155.147 402.094 160.975 404.684 177.377 408.977Z" fill="#D89120"/>
<path d="M665.158 298.442C714.366 294.741 714.366 294.741 737.613 310.531C753.84 326.07 758.831 333.107 760.181 353.709C756 353.709 751.819 353.709 747.511 353.709C743.33 370.123 739.149 386.537 734.841 403.449C726.479 405.273 718.117 407.097 709.502 408.976C707.412 414.447 705.321 419.918 703.167 425.556C698.986 425.556 694.805 425.556 690.498 425.556C676.463 384.743 676.463 384.743 683.371 367.525C685.723 364.79 688.074 362.054 690.498 359.235C698.859 359.235 707.221 359.235 715.837 359.235C717.927 366.531 720.018 373.826 722.172 381.342C732.132 362.334 739.259 346.999 734.841 326.075C713.266 310.574 692.537 306.746 665.158 303.968C665.158 302.144 665.158 300.321 665.158 298.442Z" fill="#B1640B"/>
<path d="M741.177 403.448C745.358 403.448 749.539 403.448 753.846 403.448C751.756 412.567 749.665 421.686 747.512 431.082C741.24 432.906 734.969 434.729 728.507 436.608C729.422 439.686 730.336 442.764 731.279 445.935C733.042 452.261 733.042 452.261 734.842 458.715C736.54 463.275 738.239 467.834 739.989 472.532C741.177 486.349 741.177 486.349 731.279 498.438C704.556 515.774 679.174 521.204 646.154 519.509C652.426 517.685 658.697 515.861 665.159 513.982C667.249 504.863 669.34 495.744 671.494 486.349C692.334 480.288 701.35 481.93 722.172 486.349C722.172 479.054 722.172 471.758 722.172 464.242C715.901 462.418 709.629 460.594 703.168 458.715C703.168 455.068 703.168 451.42 703.168 447.662C692.715 445.838 682.263 444.014 671.494 442.135C671.494 440.311 671.494 438.488 671.494 436.608C678.288 435.241 685.082 433.873 692.082 432.463C716.128 425.471 724.682 419.437 741.177 403.448Z" fill="#A6550B"/>
<path d="M785.522 232.122C789.703 237.593 793.884 243.065 798.191 248.702C794.01 248.702 789.829 248.702 785.522 248.702C788.988 267.353 792.204 276.791 804.526 292.916C788.535 286.936 779.33 282.004 767.705 270.463C749.18 256.149 733.704 255.853 709.504 254.229C707.413 248.757 705.323 243.286 703.169 237.649C733.11 228.767 754.787 224.015 785.522 232.122Z" fill="#EAAA36"/>
<path d="M753.846 154.748C758.027 158.396 762.208 162.043 766.516 165.802C762.335 169.449 758.154 173.097 753.846 176.855C755.937 180.503 758.027 184.15 760.181 187.908C713.122 189.488 713.122 189.488 690.498 176.855C690.498 173.207 690.498 169.56 690.498 165.802C686.317 165.802 682.136 165.802 677.828 165.802C677.828 162.154 677.828 158.506 677.828 154.748C703.878 146.226 727.102 150.609 753.846 154.748Z" fill="#EBAE34"/>
<path d="M753.846 154.748C758.027 158.396 762.208 162.043 766.516 165.802C762.335 169.449 758.154 173.097 753.846 176.855C755.937 180.503 758.027 184.15 760.181 187.908C713.122 189.488 713.122 189.488 690.498 176.855C690.498 173.207 690.498 169.56 690.498 165.802C686.317 165.802 682.136 165.802 677.828 165.802C677.828 162.154 677.828 158.506 677.828 154.748C703.878 146.226 727.102 150.609 753.846 154.748Z" fill="#EBAE34"/>
</g>
</svg>
