<svg width="801" height="514" viewBox="0 0 801 514" fill="none" xmlns="http://www.w3.org/2000/svg">
<g style="mix-blend-mode:multiply">
<path d="M145.7 121.148C149.881 122.972 154.062 124.796 158.369 126.675C162.329 143.601 162.329 143.601 164.704 159.835C173.72 162.229 173.72 162.229 182.917 164.671C202.713 170.889 202.713 170.889 215.383 181.942C215.383 189.237 215.383 196.533 215.383 204.049C209.111 204.049 202.84 204.049 196.378 204.049C194.288 209.52 192.197 214.992 190.044 220.629C181.682 218.805 173.32 216.981 164.704 215.102C164.704 218.75 164.704 222.398 164.704 226.156C168.232 227.524 171.76 228.891 175.394 230.301C192.576 238.403 206.741 248.428 221.718 259.316C219.627 266.611 217.537 273.906 215.383 281.423C221.132 282.905 226.881 284.386 232.804 285.913C251.585 291.9 263.635 297.912 278.731 309.056C268.279 309.056 257.826 309.056 247.057 309.056C250.193 311.792 250.193 311.792 253.392 314.583C243.985 317.319 243.985 317.319 234.387 320.11C230.729 315.55 227.071 310.991 223.301 306.293C218.598 301.733 213.894 297.174 209.048 292.476C200.686 292.476 192.324 292.476 183.709 292.476C185.799 296.124 187.89 299.771 190.044 303.53C198.406 303.53 206.768 303.53 215.383 303.53C215.383 307.177 215.383 310.825 215.383 314.583C198.358 319.073 198.358 319.073 177.374 320.11C159.161 307.675 159.161 307.675 145.7 292.476C145.7 287.005 145.7 281.533 145.7 275.896C154.062 274.072 162.424 272.248 171.039 270.369C168.295 267.976 165.552 265.582 162.725 263.116C159.197 260.038 155.669 256.96 152.035 253.789C148.638 251.168 145.241 248.546 141.741 245.845C131.616 235.807 129.271 228.135 126.695 215.102C139.238 220.574 139.238 220.574 152.035 226.156C152.035 222.508 152.035 218.861 152.035 215.102C143.673 211.455 135.311 207.807 126.695 204.049C132.967 202.225 139.238 200.401 145.7 198.522C141.519 194.875 137.338 191.227 133.03 187.469C131.793 174.3 131.793 174.3 132.238 159.145C132.353 154.115 132.467 149.085 132.585 143.903C132.732 140.042 132.879 136.18 133.03 132.202C137.211 132.202 141.392 132.202 145.7 132.202C145.7 128.554 145.7 124.907 145.7 121.148Z" fill="#3F85C4"/>
<path d="M494.114 137.729C498.295 137.729 502.476 137.729 506.783 137.729C506.783 141.376 506.783 145.024 506.783 148.782C510.964 148.782 515.145 148.782 519.453 148.782C521.544 156.077 523.634 163.372 525.788 170.889C518.695 176.448 511.56 181.967 504.408 187.469C498.455 192.085 498.455 192.085 492.382 196.795C481.444 204.049 481.444 204.049 468.774 204.049C464.593 211.344 460.412 218.639 456.105 226.156C451.924 226.156 447.743 226.156 443.435 226.156C441.345 222.508 439.254 218.86 437.1 215.102C430.829 222.398 424.557 229.693 418.096 237.209C422.277 239.033 426.458 240.857 430.765 242.736C396.272 248.207 396.272 248.207 361.082 253.789C363.173 250.142 365.263 246.494 367.417 242.736C376.824 240.171 376.824 240.171 386.422 237.555C392.693 235.617 398.965 233.679 405.426 231.682C407.517 226.211 409.607 220.74 411.761 215.102C384.585 215.102 357.408 215.102 329.408 215.102C329.408 211.455 329.408 207.807 329.408 204.049C335.03 202.831 335.03 202.831 340.766 201.588C378.861 192.154 394.83 181.988 418.096 154.309C422.277 154.309 426.458 154.309 430.765 154.309C432.856 150.661 434.946 147.013 437.1 143.255C441.281 156.022 445.462 168.789 449.77 181.942C462.876 170.902 474.718 160.308 485.403 147.4C488.278 144.209 491.152 141.017 494.114 137.729Z" fill="#2F78C1"/>
<path d="M430.769 143.255C430.769 146.903 430.769 150.55 430.769 154.308C426.588 154.308 422.407 154.308 418.099 154.308C416.531 157.5 414.963 160.692 413.348 163.98C403.727 179.088 395.945 187.966 380.09 198.522C362.975 201.983 347.052 203.023 329.412 204.049C329.412 207.696 329.412 211.344 329.412 215.102C358.678 213.278 387.945 211.454 418.099 209.575C403.772 234.575 395.712 237.531 367.421 248.262C393.21 243.959 393.21 243.959 418.099 237.209C427.198 226.423 427.198 226.423 430.769 215.102C434.95 213.278 439.131 211.454 443.439 209.575C443.439 215.047 443.439 220.518 443.439 226.155C449.057 222.052 454.675 217.948 460.463 213.72C463.926 211.227 467.388 208.733 470.955 206.164C480.265 199.383 489.384 192.403 498.472 185.396C503.307 182.432 508.141 179.469 513.122 176.415C519.393 178.239 525.665 180.063 532.126 181.942C530.036 198.356 527.945 214.77 525.791 231.682C519.52 229.858 513.248 228.034 506.787 226.155C510.968 217.036 515.149 207.917 519.456 198.522C488.95 212.612 467.696 226.495 443.439 248.262C439.258 248.262 435.077 248.262 430.769 248.262C432.859 253.734 434.95 259.205 437.104 264.842C429.395 264.614 421.686 264.386 413.744 264.151C391.373 264.082 375.022 267.053 354.751 275.896C354.751 268.6 354.751 261.305 354.751 253.789C350.57 253.789 346.389 253.789 342.081 253.789C342.081 244.67 342.081 235.551 342.081 226.155C333.719 226.155 325.357 226.155 316.742 226.155C316.742 220.684 316.742 215.213 316.742 209.575C312.561 209.575 308.38 209.575 304.072 209.575C304.072 205.928 304.072 202.28 304.072 198.522C309.413 197.98 314.753 197.439 320.256 196.881C327.197 196.055 334.138 195.228 341.289 194.377C351.652 193.223 351.652 193.223 362.224 192.045C380.74 189.14 380.74 189.14 388.058 176.761C389.61 172.999 391.161 169.237 392.76 165.362C415.284 143.255 415.284 143.255 430.769 143.255Z" fill="#1D5AA1"/>
<path d="M433.933 371.923C441.479 372.671 441.479 372.671 449.176 373.434C462.44 375.377 462.44 375.377 475.11 380.904C462.567 386.375 450.024 391.847 437.101 397.484C445.463 404.779 453.825 412.075 462.44 419.591C443.435 430.644 443.435 430.644 424.431 430.644C424.431 434.292 424.431 437.939 424.431 441.698C395.164 441.698 365.897 441.698 335.743 441.698C342.015 425.283 348.286 408.869 354.748 391.957C342.205 397.429 342.205 397.429 329.409 403.011C311.988 400.938 311.988 400.938 297.734 397.484C299.825 392.013 301.915 386.541 304.069 380.904C310.324 380.569 316.58 380.234 323.024 379.889C331.141 379.426 339.258 378.963 347.621 378.486C355.705 378.037 363.79 377.588 372.119 377.126C433.75 371.904 433.75 371.904 433.933 371.923Z" fill="#2F649A"/>
<path d="M190.046 198.523C198.408 200.347 206.77 202.171 215.386 204.05C215.255 209.18 215.124 214.309 214.99 219.594C214.387 237.337 214.387 237.337 221.721 253.79C258.897 260.136 291.964 258.063 329.413 253.79C323.141 255.614 316.87 257.438 310.408 259.317C310.408 262.965 310.408 266.612 310.408 270.371C316.484 271.225 316.484 271.225 322.682 272.098C326.993 273.352 331.305 274.605 335.747 275.897C337.838 281.369 339.928 286.84 342.082 292.477C329.539 294.301 316.996 296.125 304.073 298.004C301.983 305.299 299.892 312.595 297.738 320.111C306.1 321.935 314.462 323.758 323.078 325.638C293.811 327.461 264.544 329.285 234.39 331.164C234.39 314.584 234.39 314.584 247.06 303.531C253.331 303.531 259.603 303.531 266.064 303.531C262.479 302.256 258.895 300.98 255.201 299.666C241.184 294.229 228.192 288.808 215.386 281.424C212.965 272.271 210.863 263.05 209.051 253.79C198.001 245.568 186.533 238.965 174.185 232.31C171.057 230.279 167.929 228.249 164.707 226.157C164.707 222.509 164.707 218.862 164.707 215.104C173.069 216.927 181.431 218.751 190.046 220.63C190.046 213.335 190.046 206.04 190.046 198.523Z" fill="#2460A4"/>
<path d="M601.808 220.629C603.899 224.277 605.989 227.924 608.143 231.682C612.324 231.682 616.505 231.682 620.813 231.682C620.813 235.33 620.813 238.978 620.813 242.736C624.994 242.736 629.175 242.736 633.482 242.736C631.392 237.264 629.301 231.793 627.148 226.156C639.421 227.883 639.421 227.883 652.487 231.682C655.623 239.889 655.623 239.889 658.822 248.262C648.369 250.086 637.917 251.91 627.148 253.789C620.876 270.203 614.605 286.618 608.143 303.529C616.505 299.882 624.867 296.234 633.482 292.476C623.454 316.099 604.94 327.103 582.804 342.216C580.713 338.569 578.623 334.921 576.469 331.163C582.408 319.419 582.408 319.419 589.139 309.056C584.958 309.056 580.777 309.056 576.469 309.056C575.816 312.362 575.162 315.667 574.489 319.073C567.995 337.1 557.294 344.62 538.856 353.961C525.962 358.733 514.271 362.314 500.451 364.323C496.27 362.499 492.089 360.676 487.781 358.796C479.419 366.092 471.057 373.387 462.442 380.903C456.171 379.079 449.899 377.256 443.438 375.377C463.849 354.007 482.392 348.403 513.121 342.216C515.211 334.921 517.302 327.626 519.455 320.11C523.636 320.11 527.817 320.11 532.125 320.11C532.125 316.462 532.125 312.814 532.125 309.056C559.38 282.708 559.38 282.708 582.804 275.896C599.028 257.023 604.117 244.128 601.808 220.629Z" fill="#276EB7"/>
<path d="M392.759 126.675C403.212 126.675 413.664 126.675 424.433 126.675C426.524 132.146 428.614 137.618 430.768 143.255C427.788 145.456 424.807 147.658 421.736 149.926C417.792 152.854 413.848 155.782 409.784 158.799C405.889 161.684 401.994 164.569 397.981 167.542C386.396 176.098 386.396 176.098 377.046 185.461C365.104 194.808 357.992 196.846 342.081 198.522C324.586 197.032 324.586 197.032 306.051 194.031C299.886 193.084 293.721 192.136 287.368 191.16C282.428 189.942 277.488 188.724 272.398 187.469C266.063 176.415 266.063 176.415 272.002 159.144C274.223 153.901 276.444 148.657 278.732 143.255C282.913 143.255 287.094 143.255 291.402 143.255C293.492 150.55 295.583 157.845 297.737 165.362C301.918 165.362 306.099 165.362 310.406 165.362C310.406 161.714 310.406 158.066 310.406 154.308C325.04 150.661 339.673 147.013 354.75 143.255C358.931 146.903 363.112 150.55 367.42 154.308C367.42 150.661 367.42 147.013 367.42 143.255C377.872 143.255 388.325 143.255 399.094 143.255C397.004 137.783 394.913 132.312 392.759 126.675Z" fill="#2465AB"/>
<path d="M614.477 209.575C631.501 207.157 631.501 207.157 652.486 209.575C666.052 220.952 675.97 233.499 684.16 248.262C684.16 253.734 684.16 259.205 684.16 264.842C692.979 264.158 692.979 264.158 701.976 263.46C722.169 264.842 722.169 264.842 734.442 274.859C741.173 286.949 741.173 286.949 734.838 303.529C732.748 298.058 730.657 292.586 728.504 286.949C727.032 303.049 727.032 303.049 734.789 313.978C742.272 327.643 742.472 336.847 741.965 351.888C741.851 356.305 741.736 360.722 741.619 365.273C741.472 368.607 741.325 371.941 741.173 375.376C736.992 375.376 732.811 375.376 728.504 375.376C724.323 379.024 720.142 382.671 715.834 386.43C703.164 331.163 703.164 331.163 699.898 316.223C693.834 291.136 680.869 276.147 658.82 259.315C654.639 259.315 650.458 259.315 646.151 259.315C646.151 262.963 646.151 266.611 646.151 270.369C652.422 272.193 658.694 274.016 665.155 275.896C656.793 277.719 648.431 279.543 639.816 281.422C637.725 270.479 635.635 259.537 633.481 248.262C639.753 246.438 646.024 244.614 652.486 242.735C652.486 239.088 652.486 235.44 652.486 231.682C639.943 228.034 627.4 224.387 614.477 220.629C614.477 216.981 614.477 213.333 614.477 209.575Z" fill="#428ECB"/>
<path d="M304.073 292.477C316.616 292.477 329.159 292.477 342.082 292.477C344.172 296.124 346.263 299.772 348.417 303.53C335.874 305.354 323.331 307.178 310.408 309.057C326.087 311.792 326.087 311.792 342.082 314.583C339.991 323.702 337.901 332.821 335.747 342.217C321.114 345.864 306.48 349.512 291.403 353.27C319.625 350.535 319.625 350.535 348.417 347.744C352.598 355.039 356.779 362.334 361.086 369.85C326.593 367.115 326.593 367.115 291.403 364.324C293.494 369.795 295.584 375.267 297.738 380.904C285.464 376.413 285.464 376.413 272.399 369.85C270.308 364.379 268.218 358.907 266.064 353.27C261.883 351.446 257.702 349.623 253.394 347.744C257.575 355.039 261.756 362.334 266.064 369.85C245.159 369.85 224.254 369.85 202.716 369.85C206.897 366.203 211.078 362.555 215.385 358.797C209.114 353.326 202.842 347.854 196.381 342.217C198.471 336.745 200.562 331.274 202.716 325.637C217.349 329.284 231.983 332.932 247.06 336.69C247.06 333.043 247.06 329.395 247.06 325.637C263.783 323.813 280.507 321.989 297.738 320.11C299.829 310.991 301.919 301.872 304.073 292.477Z" fill="#367DC2"/>
<path d="M164.704 49.3018C183.708 60.3552 183.708 60.3552 190.043 71.4086C192.134 65.9371 194.224 60.4657 196.378 54.8285C201.343 59.388 206.308 63.9475 211.423 68.6452C225.754 83.7325 225.754 83.7325 240.722 82.462C242.812 76.9905 244.903 71.5191 247.057 65.8819C257.509 71.3533 267.962 76.8247 278.731 82.462C274.55 93.4048 270.369 104.348 266.061 115.622C271.026 113 275.991 110.379 281.106 107.678C290.701 102.695 300.419 97.8715 310.405 93.5154C308.315 102.634 306.224 111.753 304.07 121.149C310.342 122.973 316.613 124.796 323.075 126.676C302.882 138.42 289.721 140.503 266.061 143.256C263.971 137.784 261.88 132.313 259.726 126.676C253.455 129.411 253.455 129.411 247.057 132.202C247.057 124.907 247.057 117.612 247.057 110.095C240.785 111.919 234.514 113.743 228.052 115.622C223.871 113.798 219.69 111.975 215.383 110.095C213.292 113.743 211.202 117.391 209.048 121.149C206.957 115.677 204.867 110.206 202.713 104.569C198.793 107.304 194.874 110.04 190.835 112.859C177.374 121.149 177.374 121.149 164.704 121.149C164.704 117.501 164.704 113.854 164.704 110.095C177.374 101.115 177.374 101.115 190.043 93.5154C179.591 91.6916 169.138 89.8677 158.369 87.9887C160.46 75.222 162.55 62.4553 164.704 49.3018Z" fill="#5794C8"/>
<path d="M519.458 154.309C527.82 157.956 536.182 161.604 544.797 165.362C542.367 230.859 542.367 230.859 525.001 251.026C521.081 255.585 517.161 260.145 513.123 264.843C514.299 268.604 515.475 272.366 516.686 276.241C517.601 279.775 518.515 283.309 519.458 286.949C504.016 302.148 504.016 302.148 487.783 314.583C487.783 310.935 487.783 307.288 487.783 303.53C483.08 306.151 478.376 308.773 473.53 311.474C458.577 318.887 447.453 322.941 430.77 325.636C430.77 320.165 430.77 314.693 430.77 309.056C422.408 310.88 414.046 312.704 405.431 314.583C425.235 295.824 440.687 283.599 468.779 275.896C468.779 272.248 468.779 268.601 468.779 264.843C464.598 263.019 460.417 261.195 456.109 259.316C464.471 255.668 472.833 252.021 481.449 248.263C483.539 255.558 485.63 262.853 487.783 270.369C491.964 270.369 496.145 270.369 500.453 270.369C502.544 261.25 504.634 252.131 506.788 242.736C500.516 242.736 494.245 242.736 487.783 242.736C491.964 235.441 496.145 228.145 500.453 220.629C506.725 222.453 512.996 224.277 519.458 226.156C525.817 190.092 525.817 190.092 519.458 154.309Z" fill="#2469B3"/>
<path d="M82.3527 226.155C95.0224 231.682 95.0224 231.682 100.565 244.462C108.472 260.94 118.475 269.146 133.031 281.422C133.031 285.07 133.031 288.718 133.031 292.476C102.941 287.64 102.941 287.64 88.6876 281.422C98.2476 308.946 117.553 326.977 139.366 347.743C126.823 349.566 114.28 351.39 101.357 353.269C100.573 348.824 99.7893 344.378 98.9817 339.798C97.6751 335.125 96.3685 330.451 95.0224 325.636C90.8414 323.812 86.6604 321.988 82.3527 320.109C82.3527 323.757 82.3527 327.404 82.3527 331.163C71.9003 331.163 61.4478 331.163 50.6786 331.163C45.9275 319.418 45.9275 319.418 44.3438 303.529C56.6175 285.222 56.6175 285.222 69.6831 270.369C65.5021 270.369 61.3211 270.369 57.0134 270.369C57.0134 259.426 57.0134 248.483 57.0134 237.209C68.8912 231.337 68.8912 231.337 82.3527 226.155Z" fill="#4886BE"/>
<path d="M69.6846 215.102C101.306 222.559 113.888 238.652 130.657 261.733C150.768 290.601 150.768 290.601 177.377 314.582C197.176 315.967 197.176 315.967 215.386 314.582C215.386 310.935 215.386 307.287 215.386 303.529C204.933 305.353 194.481 307.176 183.712 309.055C183.712 303.584 183.712 298.113 183.712 292.475C195.193 288.676 195.193 288.676 209.051 286.949C226.816 297.855 229.331 307.979 234.39 325.636C243.759 335.198 243.759 335.198 253.395 342.216C232.017 339.191 221.199 336.386 202.716 325.636C200.626 331.107 198.535 336.578 196.381 342.216C164.489 345.609 147.2 339.102 122.566 322.57C114.028 314.582 114.028 314.582 111.257 299.038C112.171 295.049 113.086 291.059 114.028 286.949C120.3 288.772 126.571 290.596 133.033 292.475C126.186 271.782 126.186 271.782 107.694 258.97C103.513 257.26 99.3316 255.55 95.0239 253.788C87.1054 242.044 87.1054 242.044 82.3542 231.682C78.1732 231.682 73.9923 231.682 69.6846 231.682C69.6846 226.21 69.6846 220.739 69.6846 215.102Z" fill="#7DACCE"/>
<path d="M620.815 248.263C624.996 250.087 629.177 251.91 633.485 253.789C637.444 267.952 637.444 267.952 639.82 281.423C648.182 281.423 656.544 281.423 665.159 281.423C663.069 296.013 660.978 310.604 658.824 325.637C648.372 329.284 637.919 332.932 627.15 336.69C631.331 329.395 635.512 322.099 639.82 314.583C635.639 314.583 631.458 314.583 627.15 314.583C627.15 318.231 627.15 321.878 627.15 325.637C622.969 325.637 618.788 325.637 614.481 325.637C614.481 329.284 614.481 332.932 614.481 336.69C610.3 336.69 606.119 336.69 601.811 336.69C601.811 342.161 601.811 347.633 601.811 353.27C608.082 353.27 614.354 353.27 620.815 353.27C614.544 366.949 614.544 366.949 608.146 380.904C603.573 380.676 599 380.448 594.288 380.213C575.158 380.954 562.096 385.058 544.797 391.957C546.888 388.309 548.978 384.662 551.132 380.904C542.77 379.08 534.408 377.256 525.793 375.377C529.974 368.082 534.155 360.786 538.463 353.27C551.006 355.094 563.549 356.918 576.472 358.797C578.995 353.966 578.995 353.966 581.569 349.039C589.351 336.349 598.03 326.722 608.938 315.965C612.351 312.574 615.764 309.182 619.281 305.689C623.176 301.884 623.176 301.884 627.15 298.003C620.879 299.827 614.607 301.651 608.146 303.53C612.327 285.292 616.508 267.053 620.815 248.263Z" fill="#2763A1"/>
<path d="M88.6885 281.423C100.962 285.568 100.962 285.568 114.028 292.476C114.812 295.896 115.596 299.316 116.403 302.839C119.588 316.236 119.588 316.236 136.596 326.673C156.016 335.606 164.529 338.149 185.295 339.799C193.134 340.597 200.973 341.394 209.05 342.217C215.322 350.424 215.322 350.424 221.72 358.797C219.629 360.62 217.539 362.444 215.385 364.323C230.019 364.323 244.652 364.323 259.729 364.323C257.638 358.852 255.548 353.38 253.394 347.743C265.668 351.888 265.668 351.888 278.733 358.797C280.824 366.092 282.914 373.387 285.068 380.903C255.801 380.903 226.534 380.903 196.381 380.903C196.381 386.375 196.381 391.846 196.381 397.484C185.928 399.307 175.476 401.131 164.706 403.01C162.616 395.715 160.525 388.42 158.372 380.903C141.648 379.08 124.924 377.256 107.693 375.377C109.783 371.729 111.874 368.082 114.028 364.323C130.806 361.043 147.552 360.222 164.706 358.797C166.797 362.444 168.887 366.092 171.041 369.85C177.313 369.85 183.584 369.85 190.046 369.85C190.046 366.202 190.046 362.555 190.046 358.797C184.644 357.675 184.644 357.675 179.133 356.53C140.673 347.175 111.356 333.099 88.6885 303.53C88.6885 296.234 88.6885 288.939 88.6885 281.423Z" fill="#1D5497"/>
<path d="M361.086 270.368C373.491 270.219 385.897 270.112 398.303 270.022C405.211 269.958 412.12 269.894 419.237 269.828C437.104 270.368 437.104 270.368 449.773 275.895C449.773 279.542 449.773 283.19 449.773 286.948C439.471 294.588 428.916 301.977 418.099 309.055C422.28 309.055 426.461 309.055 430.769 309.055C430.769 314.526 430.769 319.998 430.769 325.635C435.472 323.013 440.176 320.391 445.022 317.69C459.976 310.278 471.099 306.223 487.782 303.528C482.239 329.78 482.239 329.78 475.113 342.215C454.208 342.215 433.303 342.215 411.764 342.215C411.764 336.744 411.764 331.272 411.764 325.635C393.094 319.234 393.094 319.234 373.755 320.108C369.574 318.284 365.393 316.461 361.086 314.581C361.086 309.11 361.086 303.639 361.086 298.001C373.755 288.675 373.755 288.675 386.425 281.421C373.882 285.069 361.339 288.716 348.416 292.475C352.597 285.179 356.778 277.884 361.086 270.368Z" fill="#3B81C6"/>
<path d="M310.406 93.5156C314.587 93.5156 318.768 93.5156 323.076 93.5156C323.076 100.811 323.076 108.106 323.076 115.622C354.433 117.446 385.79 119.27 418.098 121.149C411.827 124.797 405.555 128.444 399.094 132.203C399.094 135.85 399.094 139.498 399.094 143.256C388.641 143.256 378.189 143.256 367.419 143.256C367.419 146.904 367.419 150.551 367.419 154.309C363.892 153.283 360.364 152.258 356.729 151.201C339.552 148.365 327.233 150.639 310.406 154.309C310.406 157.957 310.406 161.605 310.406 165.363C306.225 165.363 302.044 165.363 297.736 165.363C295.646 158.067 293.555 150.772 291.401 143.256C287.22 143.256 283.039 143.256 278.732 143.256C277.948 148.385 277.164 153.515 276.356 158.8C272.397 176.416 272.397 176.416 259.727 192.996C249.881 184.406 250.732 175.154 249.037 163.29C248.359 158.916 247.682 154.542 246.983 150.035C247.058 137.729 247.058 137.729 259.727 121.149C263.908 122.973 268.089 124.797 272.397 126.676C272.397 130.323 272.397 133.971 272.397 137.729C284.94 134.082 297.483 130.434 310.406 126.676C306.225 124.852 302.044 123.028 297.736 121.149C301.917 112.03 306.098 102.911 310.406 93.5156Z" fill="#397DBC"/>
<path d="M576.469 309.056C580.65 309.056 584.831 309.056 589.138 309.056C584.957 325.47 580.776 341.884 576.469 358.796C557.654 356.06 557.654 356.06 538.46 353.269C536.369 360.565 534.279 367.86 532.125 375.376C540.487 377.2 548.849 379.024 557.464 380.903C547.17 391.956 547.17 391.956 532.125 403.01C512.329 404.046 512.329 404.046 494.116 403.01C489.935 404.833 485.754 406.657 481.446 408.536C462.442 409.573 462.442 409.573 443.437 408.536C439.256 404.889 435.075 401.241 430.768 397.483C443.311 392.011 455.854 386.54 468.777 380.903C468.777 375.431 468.777 369.96 468.777 364.323C475.048 360.675 481.32 357.027 487.781 353.269C491.831 354.295 495.882 355.321 500.055 356.378C506.522 357.575 506.522 357.575 513.12 358.796C521.782 353.529 530.241 347.998 538.46 342.216C544.731 342.216 551.003 342.216 557.464 342.216C563.736 331.273 570.007 320.33 576.469 309.056Z" fill="#448DCE"/>
<path d="M114.028 65.8799C133.032 71.4066 133.032 71.4066 140.555 82.8054C142.253 86.339 143.952 89.8727 145.702 93.5134C151.581 91.4616 157.461 89.4098 163.519 87.2958C173.514 84.9021 173.514 84.9021 183.711 82.46C189.982 86.1076 196.254 89.7552 202.715 93.5134C178.96 110.093 178.96 110.093 164.706 110.093C164.706 113.741 164.706 117.389 164.706 121.147C179.34 113.852 193.973 106.556 209.05 99.0401C209.05 117.278 209.05 135.516 209.05 154.307C202.779 156.131 196.507 157.955 190.046 159.834C185.865 154.362 181.684 148.891 177.376 143.254C171.105 151.461 171.105 151.461 164.706 159.834C160.525 148.891 156.344 137.948 152.037 126.674C145.765 128.497 139.494 130.321 133.032 132.2C133.032 135.848 133.032 139.496 133.032 143.254C118.399 143.254 103.765 143.254 88.6885 143.254C90.779 135.958 92.8695 128.663 95.0233 121.147C95.0233 124.795 95.0233 128.442 95.0233 132.2C105.476 132.2 115.928 132.2 126.697 132.2C125.8 124.253 124.87 116.309 123.926 108.366C123.412 103.942 122.897 99.5181 122.367 94.9598C120.663 81.5709 120.663 81.5709 114.028 65.8799Z" fill="#2365A9"/>
<path d="M145.7 121.148C149.881 122.972 154.062 124.796 158.369 126.675C162.329 143.601 162.329 143.601 164.704 159.835C173.72 162.229 173.72 162.229 182.917 164.671C202.713 170.889 202.713 170.889 215.383 181.942C215.383 189.237 215.383 196.533 215.383 204.049C209.111 204.049 202.84 204.049 196.378 204.049C194.288 209.52 192.197 214.992 190.044 220.629C181.682 218.805 173.32 216.981 164.704 215.102C164.704 218.75 164.704 222.398 164.704 226.156C168.232 227.524 171.76 228.891 175.394 230.301C192.576 238.403 206.741 248.428 221.718 259.316C219.627 266.611 217.537 273.906 215.383 281.423C221.132 282.905 226.881 284.386 232.804 285.913C251.585 291.9 263.635 297.912 278.731 309.056C268.279 309.056 257.826 309.056 247.057 309.056C250.193 311.792 250.193 311.792 253.392 314.583C243.985 317.319 243.985 317.319 234.387 320.11C230.729 315.55 227.071 310.991 223.301 306.293C218.598 301.733 213.894 297.174 209.048 292.476C200.686 292.476 192.324 292.476 183.709 292.476C185.799 296.124 187.89 299.771 190.044 303.53C198.406 303.53 206.768 303.53 215.383 303.53C215.383 307.177 215.383 310.825 215.383 314.583C198.358 319.073 198.358 319.073 177.374 320.11C159.161 307.675 159.161 307.675 145.7 292.476C145.7 287.005 145.7 281.533 145.7 275.896C154.062 274.072 162.424 272.248 171.039 270.369C168.295 267.976 165.552 265.582 162.725 263.116C159.197 260.038 155.669 256.96 152.035 253.789C148.638 251.168 145.241 248.546 141.741 245.845C131.616 235.807 129.271 228.135 126.695 215.102C139.238 220.574 139.238 220.574 152.035 226.156C152.035 222.508 152.035 218.861 152.035 215.102C143.673 211.455 135.311 207.807 126.695 204.049C132.967 202.225 139.238 200.401 145.7 198.522C141.519 194.875 137.338 191.227 133.03 187.469C131.793 174.3 131.793 174.3 132.238 159.145C132.353 154.115 132.467 149.085 132.585 143.903C132.732 140.042 132.879 136.18 133.03 132.202C137.211 132.202 141.392 132.202 145.7 132.202C145.7 128.554 145.7 124.907 145.7 121.148Z" fill="#3F85C4"/>
<path d="M494.114 137.729C498.295 137.729 502.476 137.729 506.783 137.729C506.783 141.376 506.783 145.024 506.783 148.782C510.964 148.782 515.145 148.782 519.453 148.782C521.544 156.077 523.634 163.372 525.788 170.889C518.695 176.448 511.56 181.967 504.408 187.469C498.455 192.085 498.455 192.085 492.382 196.795C481.444 204.049 481.444 204.049 468.774 204.049C464.593 211.344 460.412 218.639 456.105 226.156C451.924 226.156 447.743 226.156 443.435 226.156C441.345 222.508 439.254 218.86 437.1 215.102C430.829 222.398 424.557 229.693 418.096 237.209C422.277 239.033 426.458 240.857 430.765 242.736C396.272 248.207 396.272 248.207 361.082 253.789C363.173 250.142 365.263 246.494 367.417 242.736C376.824 240.171 376.824 240.171 386.422 237.555C392.693 235.617 398.965 233.679 405.426 231.682C407.517 226.211 409.607 220.74 411.761 215.102C384.585 215.102 357.408 215.102 329.408 215.102C329.408 211.455 329.408 207.807 329.408 204.049C335.03 202.831 335.03 202.831 340.766 201.588C378.861 192.154 394.83 181.988 418.096 154.309C422.277 154.309 426.458 154.309 430.765 154.309C432.856 150.661 434.946 147.013 437.1 143.255C441.281 156.022 445.462 168.789 449.77 181.942C462.876 170.902 474.718 160.308 485.403 147.4C488.278 144.209 491.152 141.017 494.114 137.729Z" fill="#2F78C1"/>
<path d="M430.769 143.255C430.769 146.903 430.769 150.55 430.769 154.308C426.588 154.308 422.407 154.308 418.099 154.308C416.531 157.5 414.963 160.692 413.348 163.98C403.727 179.088 395.945 187.966 380.09 198.522C362.975 201.983 347.052 203.023 329.412 204.049C329.412 207.696 329.412 211.344 329.412 215.102C358.678 213.278 387.945 211.454 418.099 209.575C403.772 234.575 395.712 237.531 367.421 248.262C393.21 243.959 393.21 243.959 418.099 237.209C427.198 226.423 427.198 226.423 430.769 215.102C434.95 213.278 439.131 211.454 443.439 209.575C443.439 215.047 443.439 220.518 443.439 226.155C449.057 222.052 454.675 217.948 460.463 213.72C463.926 211.227 467.388 208.733 470.955 206.164C480.265 199.383 489.384 192.403 498.472 185.396C503.307 182.432 508.141 179.469 513.122 176.415C519.393 178.239 525.665 180.063 532.126 181.942C530.036 198.356 527.945 214.77 525.791 231.682C519.52 229.858 513.248 228.034 506.787 226.155C510.968 217.036 515.149 207.917 519.456 198.522C488.95 212.612 467.696 226.495 443.439 248.262C439.258 248.262 435.077 248.262 430.769 248.262C432.859 253.734 434.95 259.205 437.104 264.842C429.395 264.614 421.686 264.386 413.744 264.151C391.373 264.082 375.022 267.053 354.751 275.896C354.751 268.6 354.751 261.305 354.751 253.789C350.57 253.789 346.389 253.789 342.081 253.789C342.081 244.67 342.081 235.551 342.081 226.155C333.719 226.155 325.357 226.155 316.742 226.155C316.742 220.684 316.742 215.213 316.742 209.575C312.561 209.575 308.38 209.575 304.072 209.575C304.072 205.928 304.072 202.28 304.072 198.522C309.413 197.98 314.753 197.439 320.256 196.881C327.197 196.055 334.138 195.228 341.289 194.377C351.652 193.223 351.652 193.223 362.224 192.045C380.74 189.14 380.74 189.14 388.058 176.761C389.61 172.999 391.161 169.237 392.76 165.362C415.284 143.255 415.284 143.255 430.769 143.255Z" fill="#1D5AA1"/>
<path d="M433.933 371.923C441.479 372.671 441.479 372.671 449.176 373.434C462.44 375.377 462.44 375.377 475.11 380.904C462.567 386.375 450.024 391.847 437.101 397.484C445.463 404.779 453.825 412.075 462.44 419.591C443.435 430.644 443.435 430.644 424.431 430.644C424.431 434.292 424.431 437.939 424.431 441.698C395.164 441.698 365.897 441.698 335.743 441.698C342.015 425.283 348.286 408.869 354.748 391.957C342.205 397.429 342.205 397.429 329.409 403.011C311.988 400.938 311.988 400.938 297.734 397.484C299.825 392.013 301.915 386.541 304.069 380.904C310.324 380.569 316.58 380.234 323.024 379.889C331.141 379.426 339.258 378.963 347.621 378.486C355.705 378.037 363.79 377.588 372.119 377.126C433.75 371.904 433.75 371.904 433.933 371.923Z" fill="#2F649A"/>
<path d="M190.046 198.523C198.408 200.347 206.77 202.171 215.386 204.05C215.255 209.18 215.124 214.309 214.99 219.594C214.387 237.337 214.387 237.337 221.721 253.79C258.897 260.136 291.964 258.063 329.413 253.79C323.141 255.614 316.87 257.438 310.408 259.317C310.408 262.965 310.408 266.612 310.408 270.371C316.484 271.225 316.484 271.225 322.682 272.098C326.993 273.352 331.305 274.605 335.747 275.897C337.838 281.369 339.928 286.84 342.082 292.477C329.539 294.301 316.996 296.125 304.073 298.004C301.983 305.299 299.892 312.595 297.738 320.111C306.1 321.935 314.462 323.758 323.078 325.638C293.811 327.461 264.544 329.285 234.39 331.164C234.39 314.584 234.39 314.584 247.06 303.531C253.331 303.531 259.603 303.531 266.064 303.531C262.479 302.256 258.895 300.98 255.201 299.666C241.184 294.229 228.192 288.808 215.386 281.424C212.965 272.271 210.863 263.05 209.051 253.79C198.001 245.568 186.533 238.965 174.185 232.31C171.057 230.279 167.929 228.249 164.707 226.157C164.707 222.509 164.707 218.862 164.707 215.104C173.069 216.927 181.431 218.751 190.046 220.63C190.046 213.335 190.046 206.04 190.046 198.523Z" fill="#2460A4"/>
<path d="M38.009 248.263C42.19 248.263 46.371 248.263 50.6786 248.263C50.6786 255.558 50.6786 262.853 50.6786 270.369C56.9501 270.369 63.2216 270.369 69.6831 270.369C61.0303 289.947 51.2531 308.649 40.3845 327.364C37.5591 332.244 34.7337 337.124 31.8226 342.152C28.6134 347.655 28.6134 347.655 25.3393 353.27C29.6918 352.615 34.0443 351.959 38.5286 351.284C44.2367 350.571 49.9447 349.859 55.8257 349.125C61.4847 348.356 67.1438 347.586 72.9743 346.793C78.1597 347.107 83.3451 347.42 88.6876 347.743C95.3155 354.913 101.655 362.293 107.692 369.85C120.562 373.655 120.562 373.655 134.219 373.995C142.189 374.451 150.159 374.907 158.371 375.377C142.119 389.555 130.011 389.417 107.692 391.957C105.357 388.381 103.021 384.804 100.615 381.119C89.4673 368.335 89.4673 368.335 70.4255 366.871C63.6477 366.714 56.8699 366.557 49.8868 366.396C37.4619 366.058 25.0333 365.45 12.6697 364.323C10.5792 360.676 8.48867 357.028 6.33483 353.27C12.5361 343.532 18.7755 333.806 25.3888 324.276C32.1436 313.859 35.8412 304.296 38.009 292.476C25.466 288.829 12.9231 285.181 0 281.423C0 274.128 0 266.832 0 259.316C10.4525 259.316 20.9049 259.316 31.6741 259.316C33.7646 255.668 35.8551 252.021 38.009 248.263Z" fill="#CFD7D8"/>
<path d="M342.082 242.736C342.082 246.383 342.082 250.031 342.082 253.789C346.263 253.789 350.444 253.789 354.752 253.789C354.752 264.732 354.752 275.675 354.752 286.949C369.385 283.302 384.019 279.654 399.096 275.896C390.734 283.191 382.372 290.486 373.756 298.003C375.847 301.65 377.937 305.298 380.091 309.056C386.363 309.056 392.634 309.056 399.096 309.056C378.994 328.598 366.361 339.927 335.747 342.216C335.747 334.921 335.747 327.626 335.747 320.11C325.295 318.286 314.842 316.462 304.073 314.583C306.164 310.935 308.254 307.288 310.408 303.529C326.641 300.075 326.641 300.075 342.082 298.003C337.07 286.95 337.07 286.95 329.412 275.896C323.141 274.072 316.87 272.248 310.408 270.369C310.408 266.722 310.408 263.074 310.408 259.316C282.186 262.052 282.186 262.052 253.395 264.843C253.395 261.195 253.395 257.547 253.395 253.789C284.266 244.995 309.191 241.564 342.082 242.736Z" fill="#5B98D0"/>
<path d="M728.506 386.431C732.687 386.431 736.868 386.431 741.175 386.431C754.815 407.75 762.666 422.638 760.18 447.224C770.632 449.048 781.085 450.872 791.854 452.751C793.944 445.456 796.035 438.161 798.189 430.644C798.189 458.001 798.189 485.359 798.189 513.545C787.736 513.545 777.284 513.545 766.515 513.545C764.424 509.897 762.334 506.25 760.18 502.491C768.542 502.491 776.904 502.491 785.519 502.491C785.519 498.844 785.519 495.196 785.519 491.438C775.067 491.438 764.614 491.438 753.845 491.438C751.754 482.319 749.664 473.2 747.51 463.804C737.058 461.981 726.605 460.157 715.836 458.278C717.926 455.086 720.017 451.894 722.171 448.606C730.221 435.072 730.221 435.072 728.506 414.064C732.687 414.064 736.868 414.064 741.175 414.064C741.175 410.417 741.175 406.769 741.175 403.011C734.904 401.187 728.632 399.363 722.171 397.484C724.261 393.836 726.352 390.189 728.506 386.431Z" fill="#1D589A"/>
<path d="M196.379 10.6143C205.963 23.8947 209.28 30.695 207.465 46.5378C203.002 59.5165 197.572 70.6386 190.044 82.4614C183.772 73.3423 177.501 64.2232 171.039 54.8279C169.341 60.0713 167.642 65.3148 165.892 70.7171C158.37 87.9881 158.37 87.9881 139.365 99.0415C137.275 89.9224 135.184 80.8033 133.03 71.408C128.849 71.408 124.668 71.408 120.361 71.408C113.234 50.6828 113.234 50.6828 120.361 38.2478C126.632 38.2478 132.904 38.2478 139.365 38.2478C141.456 32.7763 143.546 27.3049 145.7 21.6677C164.043 13.6661 175.739 10.6143 196.379 10.6143Z" fill="#609DCF"/>
<path d="M658.821 187.47C675.545 189.294 692.269 191.117 709.5 192.996C711.59 200.292 713.681 207.587 715.835 215.103C707.473 213.279 699.111 211.456 690.495 209.577C690.495 213.224 690.495 216.872 690.495 220.63C700.948 222.454 711.4 224.278 722.17 226.157C722.17 229.804 722.17 233.452 722.17 237.21C740.984 237.21 759.798 237.21 779.183 237.21C779.183 239.034 779.183 240.858 779.183 242.737C759.696 244.356 759.696 244.356 740.209 245.975C736.346 246.73 732.484 247.485 728.504 248.263C726.414 251.911 724.323 255.559 722.17 259.317C728.441 259.317 734.713 259.317 741.174 259.317C741.174 255.669 741.174 252.022 741.174 248.263C755.808 248.263 770.441 248.263 785.518 248.263C779.975 274.515 779.975 274.515 772.848 286.95C768.667 286.95 764.486 286.95 760.179 286.95C760.179 283.303 760.179 279.655 760.179 275.897C722.55 270.425 722.55 270.425 684.161 264.844C686.251 261.196 688.342 257.548 690.495 253.79C684.3 240.727 676.215 229.467 667.532 217.521C658.821 204.05 658.821 204.05 658.821 187.47Z" fill="#5D8ABC"/>
<path d="M601.808 220.629C603.899 224.277 605.989 227.924 608.143 231.682C612.324 231.682 616.505 231.682 620.813 231.682C620.813 235.33 620.813 238.978 620.813 242.736C624.994 242.736 629.175 242.736 633.482 242.736C631.392 237.264 629.301 231.793 627.148 226.156C639.421 227.883 639.421 227.883 652.487 231.682C655.623 239.889 655.623 239.889 658.822 248.262C648.369 250.086 637.917 251.91 627.148 253.789C620.876 270.203 614.605 286.618 608.143 303.529C616.505 299.882 624.867 296.234 633.482 292.476C623.454 316.099 604.94 327.103 582.804 342.216C580.713 338.569 578.623 334.921 576.469 331.163C582.408 319.419 582.408 319.419 589.139 309.056C584.958 309.056 580.777 309.056 576.469 309.056C575.816 312.362 575.162 315.667 574.489 319.073C567.995 337.1 557.294 344.62 538.856 353.961C525.962 358.733 514.271 362.314 500.451 364.323C496.27 362.499 492.089 360.676 487.781 358.796C479.419 366.092 471.057 373.387 462.442 380.903C456.171 379.079 449.899 377.256 443.438 375.377C463.849 354.007 482.392 348.403 513.121 342.216C515.211 334.921 517.302 327.626 519.455 320.11C523.636 320.11 527.817 320.11 532.125 320.11C532.125 316.462 532.125 312.814 532.125 309.056C559.38 282.708 559.38 282.708 582.804 275.896C599.028 257.023 604.117 244.128 601.808 220.629Z" fill="#276EB7"/>
<path d="M728.506 242.735C751.501 242.735 774.496 242.735 798.189 242.735C798.189 299.273 798.189 355.812 798.189 414.063C772.849 403.01 772.849 403.01 766.515 397.483C763.997 384.51 761.803 371.489 759.784 358.451C758.665 351.319 757.546 344.188 756.394 336.84C755.553 331.319 754.712 325.798 753.845 320.109C747.818 319.179 747.818 319.179 741.67 318.231C737.326 317.027 732.982 315.823 728.506 314.582C720.587 300.42 720.587 300.42 715.836 286.949C720.017 286.949 724.198 286.949 728.506 286.949C730.596 290.597 732.687 294.244 734.84 298.002C736.931 294.355 739.021 290.707 741.175 286.949C751.628 286.949 762.08 286.949 772.849 286.949C777.03 274.182 781.211 261.416 785.519 248.262C757.297 250.998 757.297 250.998 728.506 253.789C728.506 250.141 728.506 246.494 728.506 242.735Z" fill="#336BA2"/>
<path d="M192.024 0.251518C200.451 2.64527 200.451 2.64527 209.049 5.08738C218.844 22.1794 217.858 40.2764 219.318 59.167C220.11 63.2065 220.902 67.2459 221.718 71.4078C225.899 73.2316 230.08 75.0554 234.388 76.9345C238.569 69.6392 242.75 62.344 247.058 54.8277C268.38 62.8001 281.966 73.2462 297.736 87.9879C301.917 84.3403 306.098 80.6926 310.406 76.9345C316.678 76.9345 322.949 76.9345 329.411 76.9345C329.411 82.4059 329.411 87.8773 329.411 93.5146C324.446 95.1104 319.481 96.7062 314.365 98.3504C297.124 103.734 297.124 103.734 285.067 115.621C278.795 115.621 272.524 115.621 266.062 115.621C268.153 104.679 270.243 93.7356 272.397 82.4612C264.035 78.8136 255.673 75.1659 247.058 71.4078C240.786 76.8792 234.515 82.3506 228.053 87.9879C215.384 79.3524 215.384 79.3524 202.714 65.8811C201.526 46.1922 201.526 46.1922 202.714 27.1942C200.623 21.7227 198.533 16.2513 196.379 10.6141C188.045 13.0984 179.735 15.6428 171.436 18.2133C166.806 19.6239 162.175 21.0345 157.405 22.4879C144.517 26.3802 144.517 26.3802 139.366 38.2476C120.551 35.5119 120.551 35.5119 101.357 32.7209C100.589 38.8477 99.8214 44.9746 99.0306 51.2871C97.9608 59.3759 96.8883 67.4645 95.8137 75.5528C95.0665 81.6013 95.0665 81.6013 94.3042 87.772C91.529 108.259 88.6957 125.594 76.0173 143.255C75.6335 138.133 75.2497 133.01 74.8543 127.733C74.3235 121.114 73.7927 114.496 73.2458 107.677C72.7314 101.073 72.2169 94.4684 71.6869 87.664C71.7314 72.0395 71.7314 72.0395 63.3477 65.8811C63.9139 57.4518 64.902 49.0422 66.1191 40.6655C66.7643 36.0989 67.4094 31.5322 68.074 26.8272C68.6048 23.3007 69.1356 19.7742 69.6825 16.1408C75.954 16.1408 82.2255 16.1408 88.687 16.1408C84.506 28.9075 80.325 41.6741 76.0173 54.8277C82.2888 43.8848 88.5603 32.9419 95.0218 21.6675C100.509 22.1234 105.997 22.5794 111.651 23.0492C133.92 23.1858 133.92 23.1858 152.035 10.2687C171.04 -0.43932 171.04 -0.43932 192.024 0.251518Z" fill="#DEE5E7"/>
<path d="M487.783 126.675C508.805 127.666 517.499 130.493 532.523 143.6C558.57 158.589 579.937 155.268 610.396 153.466C615.925 153.744 621.453 154.022 627.149 154.308C633.421 162.515 633.421 162.515 639.819 170.888C653.721 174.094 653.721 174.094 669.117 174.688C674.295 175.051 679.472 175.415 684.806 175.789C690.759 176.099 690.759 176.099 696.832 176.415C677.828 187.469 677.828 187.469 658.823 187.469C660.505 190.404 662.188 193.339 663.921 196.363C684.163 231.682 684.163 231.682 690.151 243.858C696.435 255.694 696.435 255.694 715.837 259.316C702.375 259.316 702.375 259.316 684.163 253.789C664.066 236.215 646.856 219.662 645.09 194.291C645.441 190.215 645.792 186.14 646.154 181.942C639.278 181.4 632.402 180.859 625.318 180.301C616.162 179.471 607.006 178.636 597.85 177.797C593.335 177.455 588.819 177.113 584.166 176.761C551.852 173.657 531.998 166.96 506.787 148.782C506.787 145.134 506.787 141.486 506.787 137.728C487.973 151.407 487.973 151.407 468.778 165.362C473.529 139.11 473.529 139.11 487.783 126.675Z" fill="#D9E2EB"/>
<path d="M401.075 321.837C404.603 323.091 408.13 324.345 411.765 325.636C411.765 331.108 411.765 336.579 411.765 342.217C420.127 344.04 428.489 345.864 437.104 347.743C390.133 378.098 348.488 378.565 291.403 375.377C291.403 371.729 291.403 368.081 291.403 364.323C312.308 364.323 333.213 364.323 354.751 364.323C352.661 360.676 350.571 357.028 348.417 353.27C327.512 355.094 306.607 356.918 285.068 358.797C297.738 342.217 297.738 342.217 310.333 339.971C317.622 339.715 317.622 339.715 325.057 339.453C353.111 337.649 375.423 318.813 401.075 321.837Z" fill="#275F9B"/>
<path d="M722.171 270.369C740.985 273.105 740.985 273.105 760.18 275.896C768.542 301.429 776.904 326.963 785.519 353.27C789.7 349.622 793.881 345.974 798.189 342.216C798.189 365.926 798.189 389.635 798.189 414.063C772.849 403.01 772.849 403.01 766.515 397.483C763.997 384.511 761.803 371.49 759.784 358.451C758.665 351.32 757.546 344.188 756.394 336.841C755.553 331.319 754.712 325.798 753.845 320.109C747.818 319.18 747.818 319.18 741.67 318.231C737.326 317.027 732.982 315.823 728.506 314.583C720.587 300.421 720.587 300.421 715.836 286.949C720.017 286.949 724.198 286.949 728.506 286.949C726.415 281.478 724.325 276.006 722.171 270.369Z" fill="#2B649D"/>
<path d="M519.458 198.523C513.123 209.577 506.788 220.63 500.453 231.684C506.102 243.383 506.102 243.383 513.123 253.79C504.761 261.086 496.399 268.381 487.784 275.897C481.449 259.317 481.449 259.317 481.449 248.264C475.177 251.911 468.906 255.559 462.444 259.317C464.535 264.789 466.625 270.26 468.779 275.897C446.24 282.452 434.879 279.851 411.766 275.897C399.096 274.055 386.426 272.213 373.757 270.371C393.616 260.103 407.805 258.204 430.77 259.317C430.77 255.67 430.77 252.022 430.77 248.264C441.604 239.373 452.907 230.913 464.424 222.703C470.671 218.186 476.918 213.669 483.354 209.016C500.453 198.523 500.453 198.523 519.458 198.523Z" fill="#2673C2"/>
<path d="M614.477 209.575C631.501 207.157 631.501 207.157 652.486 209.575C666.052 220.952 675.97 233.499 684.16 248.262C684.16 253.734 684.16 259.205 684.16 264.842C696.703 264.842 709.246 264.842 722.169 264.842C724.259 259.371 726.35 253.899 728.504 248.262C747.318 248.262 766.132 248.262 785.517 248.262C779.974 274.514 779.974 274.514 772.847 286.949C762.395 286.949 751.942 286.949 741.173 286.949C739.083 292.42 736.992 297.892 734.838 303.529C732.748 298.058 730.657 292.586 728.504 286.949C728.504 292.42 728.504 297.892 728.504 303.529C726.413 307.177 724.323 310.824 722.169 314.582C718.249 311.961 714.329 309.339 710.291 306.638C697.418 297.869 697.418 297.869 684.16 292.476C684.16 287.004 684.16 281.533 684.16 275.896C667.572 262.482 667.572 262.482 646.151 259.315C646.151 262.963 646.151 266.611 646.151 270.369C652.422 272.193 658.694 274.016 665.155 275.896C656.793 277.719 648.431 279.543 639.816 281.422C637.725 270.479 635.635 259.537 633.481 248.262C639.753 246.438 646.024 244.614 652.486 242.735C652.486 239.088 652.486 235.44 652.486 231.682C639.943 228.034 627.4 224.387 614.477 220.629C614.477 216.981 614.477 213.333 614.477 209.575Z" fill="#3D88C8"/>
<path d="M392.759 126.675C403.212 126.675 413.664 126.675 424.433 126.675C426.524 132.146 428.614 137.618 430.768 143.255C427.788 145.456 424.807 147.658 421.736 149.926C417.792 152.854 413.848 155.782 409.784 158.799C405.889 161.684 401.994 164.569 397.981 167.542C386.396 176.098 386.396 176.098 377.046 185.461C365.104 194.808 357.992 196.846 342.081 198.522C324.586 197.032 324.586 197.032 306.051 194.031C299.886 193.084 293.721 192.136 287.368 191.16C282.428 189.942 277.488 188.724 272.398 187.469C266.063 176.415 266.063 176.415 272.002 159.144C274.223 153.901 276.444 148.657 278.732 143.255C282.913 143.255 287.094 143.255 291.402 143.255C293.492 150.55 295.583 157.845 297.737 165.362C301.918 165.362 306.099 165.362 310.406 165.362C310.406 161.714 310.406 158.066 310.406 154.308C325.04 150.661 339.673 147.013 354.75 143.255C358.931 146.903 363.112 150.55 367.42 154.308C367.42 150.661 367.42 147.013 367.42 143.255C377.872 143.255 388.325 143.255 399.094 143.255C397.004 137.783 394.913 132.312 392.759 126.675Z" fill="#2465AB"/>
<path d="M587.554 405.427C596.912 406.272 596.912 406.272 606.459 407.133C611.196 407.596 615.932 408.059 620.812 408.536C614.54 411.272 614.54 411.272 608.142 414.063C619.052 432.016 619.052 432.016 639.816 436.17C639.816 439.817 639.816 443.465 639.816 447.223C643.997 447.223 648.178 447.223 652.486 447.223C654.576 456.342 656.667 465.461 658.821 474.856C646.151 474.856 646.151 474.856 633.482 463.803C612.172 451.905 595.887 451.863 570.925 452.75C542.56 453.234 520.474 451.917 494.115 441.696C494.115 436.225 494.115 430.753 494.115 425.116C525.705 405.212 549.412 401.862 587.554 405.427Z" fill="#598AB2"/>
<path d="M304.073 292.477C316.616 292.477 329.159 292.477 342.082 292.477C344.172 296.124 346.263 299.772 348.417 303.53C335.874 305.354 323.331 307.178 310.408 309.057C326.087 311.792 326.087 311.792 342.082 314.583C339.991 323.702 337.901 332.821 335.747 342.217C321.114 345.864 306.48 349.512 291.403 353.27C319.625 350.535 319.625 350.535 348.417 347.744C352.598 355.039 356.779 362.334 361.086 369.85C326.593 367.115 326.593 367.115 291.403 364.324C293.494 369.795 295.584 375.267 297.738 380.904C285.464 376.413 285.464 376.413 272.399 369.85C270.308 364.379 268.218 358.907 266.064 353.27C261.883 351.446 257.702 349.623 253.394 347.744C257.575 355.039 261.756 362.334 266.064 369.85C245.159 369.85 224.254 369.85 202.716 369.85C206.897 366.203 211.078 362.555 215.385 358.797C209.114 353.326 202.842 347.854 196.381 342.217C198.471 336.745 200.562 331.274 202.716 325.637C217.349 329.284 231.983 332.932 247.06 336.69C247.06 333.043 247.06 329.395 247.06 325.637C263.783 323.813 280.507 321.989 297.738 320.11C299.829 310.991 301.919 301.872 304.073 292.477Z" fill="#367DC2"/>
<path d="M164.704 49.3018C183.708 60.3552 183.708 60.3552 190.043 71.4086C192.134 65.9371 194.224 60.4657 196.378 54.8285C201.343 59.388 206.308 63.9475 211.423 68.6452C225.754 83.7325 225.754 83.7325 240.722 82.462C242.812 76.9905 244.903 71.5191 247.057 65.8819C257.509 71.3533 267.962 76.8247 278.731 82.462C274.55 93.4048 270.369 104.348 266.061 115.622C271.026 113 275.991 110.379 281.106 107.678C290.701 102.695 300.419 97.8715 310.405 93.5154C308.315 102.634 306.224 111.753 304.07 121.149C310.342 122.973 316.613 124.796 323.075 126.676C302.882 138.42 289.721 140.503 266.061 143.256C263.971 137.784 261.88 132.313 259.726 126.676C253.455 129.411 253.455 129.411 247.057 132.202C247.057 124.907 247.057 117.612 247.057 110.095C240.785 111.919 234.514 113.743 228.052 115.622C223.871 113.798 219.69 111.975 215.383 110.095C213.292 113.743 211.202 117.391 209.048 121.149C206.957 115.677 204.867 110.206 202.713 104.569C198.793 107.304 194.874 110.04 190.835 112.859C177.374 121.149 177.374 121.149 164.704 121.149C164.704 117.501 164.704 113.854 164.704 110.095C177.374 101.115 177.374 101.115 190.043 93.5154C179.591 91.6916 169.138 89.8677 158.369 87.9887C160.46 75.222 162.55 62.4553 164.704 49.3018Z" fill="#5794C8"/>
<path d="M519.458 154.309C527.82 157.956 536.182 161.604 544.797 165.362C542.367 230.859 542.367 230.859 525.001 251.026C521.081 255.585 517.161 260.145 513.123 264.843C514.299 268.604 515.475 272.366 516.686 276.241C517.601 279.775 518.515 283.309 519.458 286.949C504.016 302.148 504.016 302.148 487.783 314.583C487.783 310.935 487.783 307.288 487.783 303.53C483.08 306.151 478.376 308.773 473.53 311.474C458.577 318.887 447.453 322.941 430.77 325.636C430.77 320.165 430.77 314.693 430.77 309.056C422.408 310.88 414.046 312.704 405.431 314.583C425.235 295.824 440.687 283.599 468.779 275.896C468.779 272.248 468.779 268.601 468.779 264.843C464.598 263.019 460.417 261.195 456.109 259.316C464.471 255.668 472.833 252.021 481.449 248.263C483.539 255.558 485.63 262.853 487.783 270.369C491.964 270.369 496.145 270.369 500.453 270.369C502.544 261.25 504.634 252.131 506.788 242.736C500.516 242.736 494.245 242.736 487.783 242.736C491.964 235.441 496.145 228.145 500.453 220.629C506.725 222.453 512.996 224.277 519.458 226.156C525.817 190.092 525.817 190.092 519.458 154.309Z" fill="#2469B3"/>
<path d="M82.3527 226.155C95.0224 231.682 95.0224 231.682 100.565 244.462C108.472 260.94 118.475 269.146 133.031 281.422C133.031 285.07 133.031 288.718 133.031 292.476C102.941 287.64 102.941 287.64 88.6876 281.422C98.2476 308.946 117.553 326.977 139.366 347.743C126.823 349.566 114.28 351.39 101.357 353.269C100.573 348.824 99.7893 344.378 98.9817 339.798C97.6751 335.125 96.3685 330.451 95.0224 325.636C90.8414 323.812 86.6604 321.988 82.3527 320.109C82.3527 323.757 82.3527 327.404 82.3527 331.163C71.9003 331.163 61.4478 331.163 50.6786 331.163C45.9275 319.418 45.9275 319.418 44.3438 303.529C56.6175 285.222 56.6175 285.222 69.6831 270.369C65.5021 270.369 61.3211 270.369 57.0134 270.369C57.0134 259.426 57.0134 248.483 57.0134 237.209C68.8912 231.337 68.8912 231.337 82.3527 226.155Z" fill="#4886BE"/>
<path d="M69.6846 215.102C101.306 222.559 113.888 238.652 130.657 261.733C150.768 290.601 150.768 290.601 177.377 314.582C197.176 315.967 197.176 315.967 215.386 314.582C215.386 310.935 215.386 307.287 215.386 303.529C204.933 305.353 194.481 307.176 183.712 309.055C183.712 303.584 183.712 298.113 183.712 292.475C195.193 288.676 195.193 288.676 209.051 286.949C226.816 297.855 229.331 307.979 234.39 325.636C243.759 335.198 243.759 335.198 253.395 342.216C232.017 339.191 221.199 336.386 202.716 325.636C200.626 331.107 198.535 336.578 196.381 342.216C164.489 345.609 147.2 339.102 122.566 322.57C114.028 314.582 114.028 314.582 111.257 299.038C112.171 295.049 113.086 291.059 114.028 286.949C120.3 288.772 126.571 290.596 133.033 292.475C126.186 271.782 126.186 271.782 107.694 258.97C103.513 257.26 99.3316 255.55 95.0239 253.788C87.1054 242.044 87.1054 242.044 82.3542 231.682C78.1732 231.682 73.9923 231.682 69.6846 231.682C69.6846 226.21 69.6846 220.739 69.6846 215.102Z" fill="#7DACCE"/>
<path d="M538.458 187.47C541.986 189.408 545.514 191.345 549.148 193.342C563.481 199.819 563.481 199.819 578.051 195.76C603.258 191.761 621.64 197.888 646.151 204.05C646.151 207.697 646.151 211.345 646.151 215.103C639.226 213.849 632.301 212.595 625.166 211.304C602.407 207.358 602.407 207.358 589.533 217.521C587.312 220.371 585.091 223.221 582.802 226.157C580.712 224.333 578.621 222.509 576.467 220.63C574.018 223.629 571.568 226.629 569.044 229.719C565.745 233.673 562.446 237.627 559.047 241.7C555.813 245.612 552.579 249.523 549.247 253.553C538.301 265.008 527.149 272.989 513.119 281.424C513.119 259.317 513.119 259.317 522.225 246.882C535.358 226.717 536.223 210.485 538.458 187.47Z" fill="#317DC6"/>
<path d="M82.3504 320.109C90.7124 323.757 99.0743 327.405 107.69 331.163C105.599 338.458 103.509 345.753 101.355 353.27C104.752 351.332 108.149 349.394 111.649 347.397C135.864 339.058 155.65 344.754 179.352 352.579C190.042 358.796 190.042 358.796 196.377 375.376C185.925 375.376 175.472 375.376 164.703 375.376C164.703 371.729 164.703 368.081 164.703 364.323C143.798 366.147 122.893 367.971 101.355 369.85C97.1739 364.378 92.9929 358.907 88.6852 353.27C73.2477 351.257 73.2477 351.257 56.2192 352.233C50.454 352.383 44.6888 352.533 38.7489 352.687C34.323 352.879 29.897 353.071 25.3369 353.27C29.5179 344.151 33.6989 335.031 38.0066 325.636C52.64 327.46 67.2735 329.284 82.3504 331.163C82.3504 327.515 82.3504 323.868 82.3504 320.109Z" fill="#2D70B4"/>
<path d="M523.417 399.9C531.183 400.744 531.183 400.744 539.105 401.605C545.058 402.3 545.058 402.3 551.132 403.009C532.447 411.298 513.662 418.485 494.118 425.115C496.209 432.411 498.299 439.706 500.453 447.222C469.096 447.222 437.738 447.222 405.431 447.222C411.702 445.398 417.974 443.575 424.435 441.695C424.435 438.048 424.435 434.4 424.435 430.642C442.67 420.036 461.732 411.313 481.449 403.009C497.416 396.043 505.864 397.931 523.417 399.9Z" fill="#3A7ABF"/>
<path d="M601.807 237.209C603.898 240.857 605.988 244.504 608.142 248.262C603.218 257.805 603.218 257.805 595.868 268.297C591.557 274.452 587.245 280.607 582.803 286.949C576.531 286.949 570.26 286.949 563.798 286.949C557.298 294.208 550.956 301.576 544.794 309.056C540.613 309.056 536.432 309.056 532.124 309.056C532.124 312.704 532.124 316.351 532.124 320.109C527.943 320.109 523.762 320.109 519.454 320.109C517.364 329.229 515.273 338.348 513.119 347.743C502.667 345.919 492.215 344.095 481.445 342.216C482.403 327.589 484.613 317.662 495.996 306.595C521.988 286.949 521.988 286.949 544.794 286.949C548.975 282.39 553.156 277.83 557.463 273.133C561.644 268.573 565.825 264.013 570.133 259.316C576.404 259.316 582.676 259.316 589.137 259.316C593.318 252.021 597.499 244.725 601.807 237.209Z" fill="#3385D2"/>
<path d="M728.504 242.735C751.499 242.735 774.495 242.735 798.187 242.735C798.699 258.973 799.076 275.199 799.375 291.439C799.534 296.045 799.693 300.651 799.857 305.396C799.949 312.049 799.949 312.049 800.043 318.835C800.192 324.957 800.192 324.957 800.344 331.202C798.187 342.216 798.187 342.216 779.182 358.796C772.911 335.087 766.639 311.377 760.178 286.949C764.359 286.949 768.54 286.949 772.848 286.949C777.029 274.182 781.21 261.416 785.517 248.262C770.884 248.262 756.25 248.262 741.173 248.262C741.173 251.91 741.173 255.557 741.173 259.315C745.354 261.139 749.535 262.963 753.843 264.842C743.391 263.018 732.938 261.195 722.169 259.315C724.259 253.844 726.35 248.373 728.504 242.735Z" fill="#3B76AE"/>
<path d="M601.807 204.048C605.988 204.048 610.169 204.048 614.476 204.048C633.481 228.28 633.481 228.28 633.481 242.735C629.3 242.735 625.119 242.735 620.811 242.735C620.811 239.087 620.811 235.44 620.811 231.681C616.63 231.681 612.449 231.681 608.142 231.681C604.026 238.008 604.026 238.008 599.827 244.462C587.732 261.267 576.965 266.297 557.463 275.895C551.191 284.102 551.191 284.102 544.793 292.475C528.164 293.511 528.164 293.511 513.119 292.475C532.29 262.741 555.094 233.748 582.802 209.575C584.893 213.222 586.983 216.87 589.137 220.628C593.318 215.157 597.499 209.685 601.807 204.048Z" fill="#215DA4"/>
<path d="M620.815 248.263C624.996 250.087 629.177 251.91 633.485 253.789C637.444 267.952 637.444 267.952 639.82 281.423C648.182 281.423 656.544 281.423 665.159 281.423C663.069 296.013 660.978 310.604 658.824 325.637C648.372 329.284 637.919 332.932 627.15 336.69C631.331 329.395 635.512 322.099 639.82 314.583C635.639 314.583 631.458 314.583 627.15 314.583C627.15 318.231 627.15 321.878 627.15 325.637C622.969 325.637 618.788 325.637 614.481 325.637C614.481 329.284 614.481 332.932 614.481 336.69C610.3 336.69 606.119 336.69 601.811 336.69C601.811 342.161 601.811 347.633 601.811 353.27C608.082 353.27 614.354 353.27 620.815 353.27C614.544 366.949 614.544 366.949 608.146 380.904C603.573 380.676 599 380.448 594.288 380.213C575.158 380.954 562.096 385.058 544.797 391.957C546.888 388.309 548.978 384.662 551.132 380.904C542.77 379.08 534.408 377.256 525.793 375.377C529.974 368.082 534.155 360.786 538.463 353.27C551.006 355.094 563.549 356.918 576.472 358.797C578.995 353.966 578.995 353.966 581.569 349.039C589.351 336.349 598.03 326.722 608.938 315.965C612.351 312.574 615.764 309.182 619.281 305.689C623.176 301.884 623.176 301.884 627.15 298.003C620.879 299.827 614.607 301.651 608.146 303.53C612.327 285.292 616.508 267.053 620.815 248.263Z" fill="#2763A1"/>
<path d="M88.6885 281.423C100.962 285.568 100.962 285.568 114.028 292.476C114.812 295.896 115.596 299.316 116.403 302.839C119.588 316.236 119.588 316.236 136.596 326.673C156.016 335.606 164.529 338.149 185.295 339.799C193.134 340.597 200.973 341.394 209.05 342.217C215.322 350.424 215.322 350.424 221.72 358.797C219.629 360.62 217.539 362.444 215.385 364.323C230.019 364.323 244.652 364.323 259.729 364.323C257.638 358.852 255.548 353.38 253.394 347.743C265.668 351.888 265.668 351.888 278.733 358.797C280.824 366.092 282.914 373.387 285.068 380.903C255.801 380.903 226.534 380.903 196.381 380.903C196.381 386.375 196.381 391.846 196.381 397.484C185.928 399.307 175.476 401.131 164.706 403.01C162.616 395.715 160.525 388.42 158.372 380.903C141.648 379.08 124.924 377.256 107.693 375.377C109.783 371.729 111.874 368.082 114.028 364.323C130.806 361.043 147.552 360.222 164.706 358.797C166.797 362.444 168.887 366.092 171.041 369.85C177.313 369.85 183.584 369.85 190.046 369.85C190.046 366.202 190.046 362.555 190.046 358.797C184.644 357.675 184.644 357.675 179.133 356.53C140.673 347.175 111.356 333.099 88.6885 303.53C88.6885 296.234 88.6885 288.939 88.6885 281.423Z" fill="#1D5497"/>
<path d="M361.086 270.368C373.491 270.219 385.897 270.112 398.303 270.022C405.211 269.958 412.12 269.894 419.237 269.828C437.104 270.368 437.104 270.368 449.773 275.895C449.773 279.542 449.773 283.19 449.773 286.948C439.471 294.588 428.916 301.977 418.099 309.055C422.28 309.055 426.461 309.055 430.769 309.055C430.769 314.526 430.769 319.998 430.769 325.635C435.472 323.013 440.176 320.391 445.022 317.69C459.976 310.278 471.099 306.223 487.782 303.528C482.239 329.78 482.239 329.78 475.113 342.215C454.208 342.215 433.303 342.215 411.764 342.215C411.764 336.744 411.764 331.272 411.764 325.635C393.094 319.234 393.094 319.234 373.755 320.108C369.574 318.284 365.393 316.461 361.086 314.581C361.086 309.11 361.086 303.639 361.086 298.001C373.755 288.675 373.755 288.675 386.425 281.421C373.882 285.069 361.339 288.716 348.416 292.475C352.597 285.179 356.778 277.884 361.086 270.368Z" fill="#3B81C6"/>
<path d="M310.406 93.5156C314.587 93.5156 318.768 93.5156 323.076 93.5156C323.076 100.811 323.076 108.106 323.076 115.622C354.433 117.446 385.79 119.27 418.098 121.149C411.827 124.797 405.555 128.444 399.094 132.203C399.094 135.85 399.094 139.498 399.094 143.256C388.641 143.256 378.189 143.256 367.419 143.256C367.419 146.904 367.419 150.551 367.419 154.309C363.892 153.283 360.364 152.258 356.729 151.201C339.552 148.365 327.233 150.639 310.406 154.309C310.406 157.957 310.406 161.605 310.406 165.363C306.225 165.363 302.044 165.363 297.736 165.363C295.646 158.067 293.555 150.772 291.401 143.256C287.22 143.256 283.039 143.256 278.732 143.256C277.948 148.385 277.164 153.515 276.356 158.8C272.397 176.416 272.397 176.416 259.727 192.996C249.881 184.406 250.732 175.154 249.037 163.29C248.359 158.916 247.682 154.542 246.983 150.035C247.058 137.729 247.058 137.729 259.727 121.149C263.908 122.973 268.089 124.797 272.397 126.676C272.397 130.323 272.397 133.971 272.397 137.729C284.94 134.082 297.483 130.434 310.406 126.676C306.225 124.852 302.044 123.028 297.736 121.149C301.917 112.03 306.098 102.911 310.406 93.5156Z" fill="#397DBC"/>
<path d="M576.469 309.056C580.65 309.056 584.831 309.056 589.138 309.056C584.957 325.47 580.776 341.884 576.469 358.796C557.654 356.06 557.654 356.06 538.46 353.269C536.369 360.565 534.279 367.86 532.125 375.376C540.487 377.2 548.849 379.024 557.464 380.903C547.17 391.956 547.17 391.956 532.125 403.01C512.329 404.046 512.329 404.046 494.116 403.01C489.935 404.833 485.754 406.657 481.446 408.536C462.442 409.573 462.442 409.573 443.437 408.536C439.256 404.889 435.075 401.241 430.768 397.483C443.311 392.011 455.854 386.54 468.777 380.903C468.777 375.431 468.777 369.96 468.777 364.323C475.048 360.675 481.32 357.027 487.781 353.269C491.831 354.295 495.882 355.321 500.055 356.378C506.522 357.575 506.522 357.575 513.12 358.796C521.782 353.529 530.241 347.998 538.46 342.216C544.731 342.216 551.003 342.216 557.464 342.216C563.736 331.273 570.007 320.33 576.469 309.056Z" fill="#448DCE"/>
<path d="M114.028 65.8799C133.032 71.4066 133.032 71.4066 140.555 82.8054C142.253 86.339 143.952 89.8727 145.702 93.5134C151.581 91.4616 157.461 89.4098 163.519 87.2958C173.514 84.9021 173.514 84.9021 183.711 82.46C189.982 86.1076 196.254 89.7552 202.715 93.5134C178.96 110.093 178.96 110.093 164.706 110.093C164.706 113.741 164.706 117.389 164.706 121.147C179.34 113.852 193.973 106.556 209.05 99.0401C209.05 117.278 209.05 135.516 209.05 154.307C202.779 156.131 196.507 157.955 190.046 159.834C185.865 154.362 181.684 148.891 177.376 143.254C171.105 151.461 171.105 151.461 164.706 159.834C160.525 148.891 156.344 137.948 152.037 126.674C145.765 128.497 139.494 130.321 133.032 132.2C133.032 135.848 133.032 139.496 133.032 143.254C118.399 143.254 103.765 143.254 88.6885 143.254C90.779 135.958 92.8695 128.663 95.0233 121.147C95.0233 124.795 95.0233 128.442 95.0233 132.2C105.476 132.2 115.928 132.2 126.697 132.2C125.8 124.253 124.87 116.309 123.926 108.366C123.412 103.942 122.897 99.5181 122.367 94.9598C120.663 81.5709 120.663 81.5709 114.028 65.8799Z" fill="#2365A9"/>
<path d="M329.411 87.9873C332.963 90.7016 336.515 93.416 340.175 96.2126C357.147 105.941 365.261 105.906 385.237 105.604C406.412 106.753 415.584 108.269 432.08 120.241C442.954 131.254 453.003 142.336 462.442 154.308C470.804 145.189 479.166 136.07 487.782 126.674C508.413 128.731 517.563 130.549 532.521 143.6C561.934 160.525 592.878 156.024 627.148 154.308C625.057 161.603 622.967 168.898 620.813 176.415C538.431 174.089 538.431 174.089 506.786 148.781C506.786 145.133 506.786 141.486 506.786 137.728C490.015 151.975 475.465 164.9 462.442 181.941C458.261 181.941 454.08 181.941 449.773 181.941C448.368 178.016 446.964 174.09 445.517 170.046C438.07 153.263 431.308 140.569 418.099 126.674C392.52 120.118 368.534 120.852 342.081 121.148C335.809 119.324 329.538 117.5 323.076 115.621C325.167 106.502 327.257 97.3827 329.411 87.9873Z" fill="#CEDDEA"/>
<path d="M215.382 110.095C225.835 110.095 236.287 110.095 247.057 110.095C252.121 128.261 254.003 136.127 247.057 154.308C242.876 154.308 238.695 154.308 234.387 154.308C234.387 143.365 234.387 132.423 234.387 121.148C230.206 121.148 226.025 121.148 221.717 121.148C223.669 128.408 225.655 135.66 227.656 142.91C228.758 146.949 229.861 150.988 230.997 155.15C233.366 165.36 233.366 165.36 240.722 170.888C240.979 180.097 240.992 189.314 240.722 198.522C216.675 195.525 206.057 186.356 190.043 170.888C187.953 174.536 185.862 178.184 183.708 181.942C170.446 163.14 169.902 148.49 171.039 126.675C174.958 131.234 178.878 135.794 182.916 140.492C187.359 145.051 191.801 149.611 196.378 154.308C200.559 154.308 204.74 154.308 209.048 154.308C208.917 149.065 208.786 143.821 208.652 138.419C209.048 121.148 209.048 121.148 215.382 110.095Z" fill="#3E8ACB"/>
<path d="M152.036 209.576C154.126 216.871 156.217 224.167 158.37 231.683C147.918 226.211 137.465 220.74 126.696 215.103C130.675 231.518 130.675 231.518 139.366 248.263C155.266 256.217 155.266 256.217 171.04 259.316C171.04 262.964 171.04 266.612 171.04 270.37C160.588 274.017 150.135 277.665 139.366 281.423C136.385 277.498 133.405 273.572 130.334 269.528C126.39 264.448 122.445 259.369 118.382 254.135C114.487 249.07 110.591 244.004 106.578 238.786C95.8678 224.731 95.8678 224.731 76.0176 220.629C76.0176 216.982 76.0176 213.334 76.0176 209.576C101.892 201.111 125.395 206.09 152.036 209.576Z" fill="#6E9FC4"/>
<path d="M221.719 121.148C225.9 121.148 230.081 121.148 234.388 121.148C234.388 132.091 234.388 143.034 234.388 154.309C238.569 154.309 242.75 154.309 247.058 154.309C249.148 150.661 251.239 147.013 253.393 143.255C253.915 150.323 254.438 157.39 254.976 164.671C256.299 176.71 256.299 176.71 259.728 187.469C271.895 196.256 271.895 196.256 285.067 198.522C285.067 203.994 285.067 209.465 285.067 215.102C278.795 216.926 272.524 218.75 266.062 220.629C276.515 222.453 286.967 224.277 297.737 226.156C297.737 229.803 297.737 233.451 297.737 237.209C283.879 238.936 283.879 238.936 266.062 237.209C249.434 223.738 249.434 223.738 234.388 209.576C228.117 207.752 221.845 205.928 215.384 204.049C217.474 198.578 219.565 193.106 221.719 187.469C225.9 189.293 230.081 191.116 234.388 192.996C230.234 173.045 230.234 173.045 221.719 154.309C221.465 143.257 221.443 132.199 221.719 121.148Z" fill="#2466AC"/>
<path d="M101.358 32.7207C107.629 34.5445 113.901 36.3683 120.362 38.2474C120.232 44.5168 120.101 50.7861 119.967 57.2454C117.729 75.916 117.729 75.916 126.697 82.461C127.152 90.8576 127.229 99.2714 127.093 107.677C127.036 112.243 126.979 116.81 126.92 121.515C126.847 125.041 126.773 128.568 126.697 132.201C116.245 132.201 105.792 132.201 95.0232 132.201C80.832 107.44 86.4833 74.8471 95.0232 48.9554C97.1137 43.5979 99.2041 38.2405 101.358 32.7207Z" fill="#3A7CBF"/>
<path d="M582.803 403.01C576.531 405.745 576.531 405.745 570.133 408.536C570.133 415.832 570.133 423.127 570.133 430.643C565.952 430.643 561.771 430.643 557.464 430.643C557.464 434.291 557.464 437.938 557.464 441.697C567.916 441.697 578.368 441.697 589.138 441.697C589.138 443.52 589.138 445.344 589.138 447.223C553.906 452.278 527.844 454.523 494.115 441.697C494.115 436.225 494.115 430.754 494.115 425.116C523.471 406.62 547.2 402.147 582.803 403.01Z" fill="#668EA8"/>
<path d="M38.009 248.263C42.19 248.263 46.371 248.263 50.6786 248.263C50.6786 255.558 50.6786 262.853 50.6786 270.369C56.9501 270.369 63.2216 270.369 69.6831 270.369C61.0303 289.947 51.2531 308.649 40.3845 327.364C37.5591 332.244 34.7337 337.124 31.8226 342.152C28.6134 347.655 28.6134 347.655 25.3393 353.27C29.6918 352.615 34.0443 351.959 38.5286 351.284C44.2367 350.571 49.9447 349.859 55.8257 349.125C61.4847 348.356 67.1438 347.586 72.9743 346.793C78.1597 347.107 83.3451 347.42 88.6876 347.743C95.3155 354.913 101.655 362.293 107.692 369.85C120.562 373.655 120.562 373.655 134.219 373.995C142.189 374.451 150.159 374.907 158.371 375.377C142.119 389.555 130.011 389.417 107.692 391.957C105.357 388.381 103.021 384.804 100.615 381.119C89.4673 368.335 89.4673 368.335 70.4255 366.871C63.6477 366.714 56.8699 366.557 49.8868 366.396C37.4619 366.058 25.0333 365.45 12.6697 364.323C10.5792 360.676 8.48867 357.028 6.33483 353.27C12.5361 343.532 18.7755 333.806 25.3888 324.276C32.1436 313.859 35.8412 304.296 38.009 292.476C25.466 288.829 12.9231 285.181 0 281.423C0 274.128 0 266.832 0 259.316C10.4525 259.316 20.9049 259.316 31.6741 259.316C33.7646 255.668 35.8551 252.021 38.009 248.263Z" fill="#CFD7D8"/>
<path d="M627.147 165.362C658.505 170.834 658.505 170.834 690.496 176.416C690.496 180.063 690.496 183.711 690.496 187.469C698.858 191.117 707.22 194.764 715.835 198.523C715.835 203.994 715.835 209.465 715.835 215.103C707.473 213.279 699.111 211.455 690.496 209.576C690.496 213.224 690.496 216.871 690.496 220.629C700.948 222.453 711.401 224.277 722.17 226.156C722.17 229.804 722.17 233.451 722.17 237.209C740.984 237.209 759.799 237.209 779.183 237.209C779.183 239.033 779.183 240.857 779.183 242.736C762.459 244.56 745.735 246.384 728.505 248.263C726.414 253.734 724.324 259.206 722.17 264.843C709.627 264.843 697.084 264.843 684.161 264.843C674.881 250.54 674.881 250.54 665.602 236.238C659.491 227.152 652.85 218.341 646.152 209.576C645.36 194.723 645.36 194.723 646.152 181.942C639.88 181.942 633.609 181.942 627.147 181.942C627.147 176.471 627.147 171 627.147 165.362Z" fill="#97AACA"/>
<path d="M627.149 314.584C631.33 314.584 635.511 314.584 639.819 314.584C639.819 320.055 639.819 325.527 639.819 331.164C646.09 329.34 652.362 327.516 658.823 325.637C658.823 331.109 658.823 336.58 658.823 342.217C663.004 342.217 667.185 342.217 671.493 342.217C678.62 384.359 678.62 384.359 671.493 403.011C635.068 392.649 635.068 392.649 620.815 386.431C620.815 390.079 620.815 393.726 620.815 397.484C606.181 395.661 591.548 393.837 576.471 391.958C576.471 386.486 576.471 381.015 576.471 375.378C586.923 375.378 597.376 375.378 608.145 375.378C612.326 368.082 616.507 360.787 620.815 353.271C614.543 353.271 608.272 353.271 601.81 353.271C601.81 347.799 601.81 342.328 601.81 336.691C605.991 336.691 610.172 336.691 614.48 336.691C614.48 333.043 614.48 329.396 614.48 325.637C618.661 325.637 622.842 325.637 627.149 325.637C627.149 321.99 627.149 318.342 627.149 314.584Z" fill="#5495C4"/>
<path d="M342.082 242.736C342.082 246.383 342.082 250.031 342.082 253.789C346.263 253.789 350.444 253.789 354.752 253.789C354.752 264.732 354.752 275.675 354.752 286.949C369.385 283.302 384.019 279.654 399.096 275.896C390.734 283.191 382.372 290.486 373.756 298.003C375.847 301.65 377.937 305.298 380.091 309.056C386.363 309.056 392.634 309.056 399.096 309.056C378.994 328.598 366.361 339.927 335.747 342.216C335.747 334.921 335.747 327.626 335.747 320.11C325.295 318.286 314.842 316.462 304.073 314.583C306.164 310.935 308.254 307.288 310.408 303.529C326.641 300.075 326.641 300.075 342.082 298.003C337.07 286.95 337.07 286.95 329.412 275.896C323.141 274.072 316.87 272.248 310.408 270.369C310.408 266.722 310.408 263.074 310.408 259.316C282.186 262.052 282.186 262.052 253.395 264.843C253.395 261.195 253.395 257.547 253.395 253.789C284.266 244.995 309.191 241.564 342.082 242.736Z" fill="#5B98D0"/>
<path d="M728.506 386.431C732.687 386.431 736.868 386.431 741.175 386.431C754.815 407.75 762.666 422.638 760.18 447.224C770.632 449.048 781.085 450.872 791.854 452.751C793.944 445.456 796.035 438.161 798.189 430.644C798.189 458.001 798.189 485.359 798.189 513.545C787.736 513.545 777.284 513.545 766.515 513.545C764.424 509.897 762.334 506.25 760.18 502.491C768.542 502.491 776.904 502.491 785.519 502.491C785.519 498.844 785.519 495.196 785.519 491.438C775.067 491.438 764.614 491.438 753.845 491.438C751.754 482.319 749.664 473.2 747.51 463.804C737.058 461.981 726.605 460.157 715.836 458.278C717.926 455.086 720.017 451.894 722.171 448.606C730.221 435.072 730.221 435.072 728.506 414.064C732.687 414.064 736.868 414.064 741.175 414.064C741.175 410.417 741.175 406.769 741.175 403.011C734.904 401.187 728.632 399.363 722.171 397.484C724.261 393.836 726.352 390.189 728.506 386.431Z" fill="#1D589A"/>
<path d="M196.379 10.6143C205.963 23.8947 209.28 30.695 207.465 46.5378C203.002 59.5165 197.572 70.6386 190.044 82.4614C183.772 73.3423 177.501 64.2232 171.039 54.8279C169.341 60.0713 167.642 65.3148 165.892 70.7171C158.37 87.9881 158.37 87.9881 139.365 99.0415C137.275 89.9224 135.184 80.8033 133.03 71.408C128.849 71.408 124.668 71.408 120.361 71.408C113.234 50.6828 113.234 50.6828 120.361 38.2478C126.632 38.2478 132.904 38.2478 139.365 38.2478C141.456 32.7763 143.546 27.3049 145.7 21.6677C164.043 13.6661 175.739 10.6143 196.379 10.6143Z" fill="#609DCF"/>
<path d="M544.794 170.888C556.934 170.588 569.076 170.375 581.219 170.197C591.361 170.005 591.361 170.005 601.708 169.809C620.335 170.861 630.464 173.504 646.151 181.941C646.151 189.237 646.151 196.532 646.151 204.048C638.14 203.257 638.14 203.257 629.968 202.451C623.026 201.838 616.085 201.225 608.934 200.594C602.026 199.953 595.117 199.312 587.999 198.651C582.103 198.608 576.208 198.566 570.133 198.522C565.952 202.169 561.771 205.817 557.463 209.575C557.463 204.103 557.463 198.632 557.463 192.995C551.192 191.171 544.921 189.347 538.459 187.468C540.549 181.997 542.64 176.525 544.794 170.888Z" fill="#4389C9"/>
<path d="M266.061 181.941C303.689 187.413 303.689 187.413 342.079 192.995C342.079 194.819 342.079 196.642 342.079 198.522C329.536 198.522 316.993 198.522 304.07 198.522C304.07 202.169 304.07 205.817 304.07 209.575C308.251 209.575 312.432 209.575 316.739 209.575C316.739 215.046 316.739 220.518 316.739 226.155C325.101 226.155 333.463 226.155 342.079 226.155C342.079 229.803 342.079 233.45 342.079 237.208C346.259 239.032 350.44 240.856 354.748 242.735C333.843 244.559 312.938 246.383 291.4 248.262C289.309 244.614 287.219 240.967 285.065 237.208C289.246 237.208 293.427 237.208 297.735 237.208C297.735 233.561 297.735 229.913 297.735 226.155C287.282 226.155 276.83 226.155 266.061 226.155C266.061 220.684 266.061 215.212 266.061 209.575C272.332 211.399 278.604 213.223 285.065 215.102C285.065 209.63 285.065 204.159 285.065 198.522C278.794 196.698 272.522 194.874 266.061 192.995C266.061 189.347 266.061 185.7 266.061 181.941Z" fill="#3782C6"/>
<path d="M329.411 87.9873C332.963 90.7016 336.515 93.416 340.175 96.2126C357.147 105.941 365.261 105.906 385.237 105.604C413.264 107.268 425.116 112.877 443.834 131.165C457.364 145.969 464.882 157.744 468.777 176.415C462.506 178.238 456.234 180.062 449.773 181.941C448.368 178.016 446.964 174.09 445.517 170.046C438.07 153.263 431.308 140.569 418.099 126.674C392.52 120.118 368.534 120.852 342.081 121.148C335.809 119.324 329.538 117.5 323.076 115.621C325.167 106.502 327.257 97.3827 329.411 87.9873Z" fill="#C9DBEA"/>
<path d="M696.833 176.416C709.106 180.216 709.106 180.216 722.172 187.469C726.923 201.977 726.923 201.977 728.507 215.103C732.688 215.103 736.869 215.103 741.176 215.103C743.267 209.631 745.357 204.16 747.511 198.523C751.692 198.523 755.873 198.523 760.181 198.523C756 209.466 751.819 220.409 747.511 231.683C762.145 231.683 776.778 231.683 791.855 231.683C791.855 233.507 791.855 235.331 791.855 237.21C768.86 237.21 745.864 237.21 722.172 237.21C722.172 233.562 722.172 229.914 722.172 226.156C711.719 226.156 701.267 226.156 690.498 226.156C686.317 218.861 682.136 211.566 677.828 204.05C682.009 202.226 686.19 200.402 690.498 198.523C692.588 202.17 694.679 205.818 696.833 209.576C703.104 211.4 709.376 213.224 715.837 215.103C713.747 209.631 711.656 204.16 709.502 198.523C693.637 191.787 693.637 191.787 677.828 187.469C684.1 183.822 690.371 180.174 696.833 176.416Z" fill="#EDF0F4"/>
<path d="M401.075 321.837C404.603 323.091 408.13 324.345 411.765 325.636C411.765 331.108 411.765 336.579 411.765 342.217C420.127 344.04 428.489 345.864 437.104 347.743C390.133 378.098 348.488 378.565 291.403 375.377C291.403 371.729 291.403 368.081 291.403 364.323C312.308 364.323 333.213 364.323 354.751 364.323C352.661 360.676 350.571 357.028 348.417 353.27C327.512 355.094 306.607 356.918 285.068 358.797C297.738 342.217 297.738 342.217 310.333 339.971C317.622 339.715 317.622 339.715 325.057 339.453C353.111 337.649 375.423 318.813 401.075 321.837Z" fill="#275F9B"/>
<path d="M519.458 198.523C513.123 209.577 506.788 220.63 500.453 231.684C506.102 243.383 506.102 243.383 513.123 253.79C504.761 261.086 496.399 268.381 487.784 275.897C481.449 259.317 481.449 259.317 481.449 248.264C475.177 251.911 468.906 255.559 462.444 259.317C464.535 264.789 466.625 270.26 468.779 275.897C446.24 282.452 434.879 279.851 411.766 275.897C399.096 274.055 386.426 272.213 373.757 270.371C393.616 260.103 407.805 258.204 430.77 259.317C430.77 255.67 430.77 252.022 430.77 248.264C441.604 239.373 452.907 230.913 464.424 222.703C470.671 218.186 476.918 213.669 483.354 209.016C500.453 198.523 500.453 198.523 519.458 198.523Z" fill="#2673C2"/>
<path d="M221.721 198.523C227.992 202.171 234.264 205.819 240.725 209.577C240.725 213.224 240.725 216.872 240.725 220.63C244.384 222.226 248.042 223.822 251.811 225.466C265.009 231.223 278.206 236.98 291.404 242.737C270.743 254.754 258.294 259.894 233.599 258.626C221.721 253.79 221.721 253.79 213.01 241.355C208.237 223.031 212.028 214.966 221.721 198.523Z" fill="#2F7CC3"/>
<path d="M589.138 386.43C599.713 390.077 610.273 393.756 620.812 397.483C620.812 393.836 620.812 390.188 620.812 386.43C639.42 390.92 639.42 390.92 658.821 397.483C660.911 402.955 663.002 408.426 665.156 414.063C658.884 414.063 652.613 414.063 646.151 414.063C644.061 419.535 641.97 425.006 639.816 430.644C639.816 425.172 639.816 419.701 639.816 414.063C606.368 410.416 572.92 406.768 538.459 403.01C565.382 379.522 565.382 379.522 589.138 386.43Z" fill="#95BED1"/>
<path d="M658.82 253.789C688.996 278.73 702.691 295.529 709.499 331.163C705.318 331.163 701.137 331.163 696.829 331.163C694.739 336.634 692.648 342.106 690.494 347.743C686.313 345.919 682.132 344.095 677.825 342.216C673.743 326.587 671.342 310.929 668.718 295.067C667.542 290.564 666.366 286.062 665.155 281.423C660.974 279.599 656.793 277.775 652.485 275.896C650.395 270.424 648.304 264.953 646.15 259.316C650.331 257.492 654.512 255.668 658.82 253.789Z" fill="#3C75A5"/>
<path d="M538.458 187.47C541.986 189.408 545.514 191.345 549.148 193.342C563.481 199.819 563.481 199.819 578.051 195.76C603.258 191.761 621.64 197.888 646.151 204.05C646.151 207.697 646.151 211.345 646.151 215.103C639.226 213.849 632.301 212.595 625.166 211.304C602.407 207.358 602.407 207.358 589.533 217.521C587.312 220.371 585.091 223.221 582.802 226.157C580.712 224.333 578.621 222.509 576.467 220.63C574.018 223.629 571.568 226.629 569.044 229.719C565.745 233.673 562.446 237.627 559.047 241.7C555.813 245.612 552.579 249.523 549.247 253.553C538.301 265.008 527.149 272.989 513.119 281.424C513.119 259.317 513.119 259.317 522.225 246.882C535.358 226.717 536.223 210.485 538.458 187.47Z" fill="#317DC6"/>
<path d="M82.3504 320.109C90.7124 323.757 99.0743 327.405 107.69 331.163C105.599 338.458 103.509 345.753 101.355 353.27C104.752 351.332 108.149 349.394 111.649 347.397C135.864 339.058 155.65 344.754 179.352 352.579C190.042 358.796 190.042 358.796 196.377 375.376C185.925 375.376 175.472 375.376 164.703 375.376C164.703 371.729 164.703 368.081 164.703 364.323C143.798 366.147 122.893 367.971 101.355 369.85C97.1739 364.378 92.9929 358.907 88.6852 353.27C73.2477 351.257 73.2477 351.257 56.2192 352.233C50.454 352.383 44.6888 352.533 38.7489 352.687C34.323 352.879 29.897 353.071 25.3369 353.27C29.5179 344.151 33.6989 335.031 38.0066 325.636C52.64 327.46 67.2735 329.284 82.3504 331.163C82.3504 327.515 82.3504 323.868 82.3504 320.109Z" fill="#2D70B4"/>
<path d="M523.417 399.9C531.183 400.744 531.183 400.744 539.105 401.605C545.058 402.3 545.058 402.3 551.132 403.009C532.447 411.298 513.662 418.485 494.118 425.115C496.209 432.411 498.299 439.706 500.453 447.222C469.096 447.222 437.738 447.222 405.431 447.222C411.702 445.398 417.974 443.575 424.435 441.695C424.435 438.048 424.435 434.4 424.435 430.642C442.67 420.036 461.732 411.313 481.449 403.009C497.416 396.043 505.864 397.931 523.417 399.9Z" fill="#3A7ABF"/>
<path d="M601.807 237.209C603.898 240.857 605.988 244.504 608.142 248.262C603.218 257.805 603.218 257.805 595.868 268.297C591.557 274.452 587.245 280.607 582.803 286.949C576.531 286.949 570.26 286.949 563.798 286.949C557.298 294.208 550.956 301.576 544.794 309.056C540.613 309.056 536.432 309.056 532.124 309.056C532.124 312.704 532.124 316.351 532.124 320.109C527.943 320.109 523.762 320.109 519.454 320.109C517.364 329.229 515.273 338.348 513.119 347.743C502.667 345.919 492.215 344.095 481.445 342.216C482.403 327.589 484.613 317.662 495.996 306.595C521.988 286.949 521.988 286.949 544.794 286.949C548.975 282.39 553.156 277.83 557.463 273.133C561.644 268.573 565.825 264.013 570.133 259.316C576.404 259.316 582.676 259.316 589.137 259.316C593.318 252.021 597.499 244.725 601.807 237.209Z" fill="#3385D2"/>
<path d="M601.807 204.048C605.988 204.048 610.169 204.048 614.476 204.048C633.481 228.28 633.481 228.28 633.481 242.735C629.3 242.735 625.119 242.735 620.811 242.735C620.811 239.087 620.811 235.44 620.811 231.681C616.63 231.681 612.449 231.681 608.142 231.681C604.026 238.008 604.026 238.008 599.827 244.462C587.732 261.267 576.965 266.297 557.463 275.895C551.191 284.102 551.191 284.102 544.793 292.475C528.164 293.511 528.164 293.511 513.119 292.475C532.29 262.741 555.094 233.748 582.802 209.575C584.893 213.222 586.983 216.87 589.137 220.628C593.318 215.157 597.499 209.685 601.807 204.048Z" fill="#215DA4"/>
<path d="M665.158 403.009C671.429 408.48 677.701 413.952 684.162 419.589C682.072 423.237 679.981 426.884 677.828 430.642C677.828 436.114 677.828 441.585 677.828 447.222C671.556 455.43 671.556 455.43 665.158 463.802C671.429 467.336 677.701 470.87 684.162 474.51C690.434 478.272 696.705 482.034 703.167 485.909C703.167 487.733 703.167 489.557 703.167 491.436C669.13 493.383 669.13 493.383 652.488 491.436C639.819 480.383 639.819 480.383 633.484 469.329C635.574 465.682 637.665 462.034 639.819 458.276C641.909 463.747 644 469.219 646.154 474.856C648.244 465.737 650.334 456.618 652.488 447.222C648.307 447.222 644.126 447.222 639.819 447.222C639.819 443.575 639.819 439.927 639.819 436.169C635.768 435.599 631.718 435.029 627.545 434.442C623.233 433.188 618.922 431.934 614.479 430.642C612.389 425.171 610.298 419.699 608.145 414.062C626.959 414.062 645.773 414.062 665.158 414.062C665.158 410.415 665.158 406.767 665.158 403.009Z" fill="#4D7EAC"/>
<path d="M215.382 110.095C225.835 110.095 236.287 110.095 247.057 110.095C252.121 128.261 254.003 136.127 247.057 154.308C242.876 154.308 238.695 154.308 234.387 154.308C234.387 143.365 234.387 132.423 234.387 121.148C230.206 121.148 226.025 121.148 221.717 121.148C223.669 128.408 225.655 135.66 227.656 142.91C228.758 146.949 229.861 150.988 230.997 155.15C233.366 165.36 233.366 165.36 240.722 170.888C240.979 180.097 240.992 189.314 240.722 198.522C216.675 195.525 206.057 186.356 190.043 170.888C187.953 174.536 185.862 178.184 183.708 181.942C170.446 163.14 169.902 148.49 171.039 126.675C174.958 131.234 178.878 135.794 182.916 140.492C187.359 145.051 191.801 149.611 196.378 154.308C200.559 154.308 204.74 154.308 209.048 154.308C208.917 149.065 208.786 143.821 208.652 138.419C209.048 121.148 209.048 121.148 215.382 110.095Z" fill="#3E8ACB"/>
<path d="M152.036 209.576C154.126 216.871 156.217 224.167 158.37 231.683C147.918 226.211 137.465 220.74 126.696 215.103C130.675 231.518 130.675 231.518 139.366 248.263C155.266 256.217 155.266 256.217 171.04 259.316C171.04 262.964 171.04 266.612 171.04 270.37C160.588 274.017 150.135 277.665 139.366 281.423C136.385 277.498 133.405 273.572 130.334 269.528C126.39 264.448 122.445 259.369 118.382 254.135C114.487 249.07 110.591 244.004 106.578 238.786C95.8678 224.731 95.8678 224.731 76.0176 220.629C76.0176 216.982 76.0176 213.334 76.0176 209.576C101.892 201.111 125.395 206.09 152.036 209.576Z" fill="#6E9FC4"/>
<path d="M221.719 121.148C225.9 121.148 230.081 121.148 234.388 121.148C234.388 132.091 234.388 143.034 234.388 154.309C238.569 154.309 242.75 154.309 247.058 154.309C249.148 150.661 251.239 147.013 253.393 143.255C253.915 150.323 254.438 157.39 254.976 164.671C256.299 176.71 256.299 176.71 259.728 187.469C271.895 196.256 271.895 196.256 285.067 198.522C285.067 203.994 285.067 209.465 285.067 215.102C278.795 216.926 272.524 218.75 266.062 220.629C276.515 222.453 286.967 224.277 297.737 226.156C297.737 229.803 297.737 233.451 297.737 237.209C283.879 238.936 283.879 238.936 266.062 237.209C249.434 223.738 249.434 223.738 234.388 209.576C228.117 207.752 221.845 205.928 215.384 204.049C217.474 198.578 219.565 193.106 221.719 187.469C225.9 189.293 230.081 191.116 234.388 192.996C230.234 173.045 230.234 173.045 221.719 154.309C221.465 143.257 221.443 132.199 221.719 121.148Z" fill="#2466AC"/>
<path d="M101.358 32.7207C107.629 34.5445 113.901 36.3683 120.362 38.2474C120.232 44.5168 120.101 50.7861 119.967 57.2454C117.729 75.916 117.729 75.916 126.697 82.461C127.152 90.8576 127.229 99.2714 127.093 107.677C127.036 112.243 126.979 116.81 126.92 121.515C126.847 125.041 126.773 128.568 126.697 132.201C116.245 132.201 105.792 132.201 95.0232 132.201C80.832 107.44 86.4833 74.8471 95.0232 48.9554C97.1137 43.5979 99.2041 38.2405 101.358 32.7207Z" fill="#3A7CBF"/>
<path d="M544.794 170.888C556.934 170.588 569.076 170.375 581.219 170.197C591.361 170.005 591.361 170.005 601.708 169.809C620.335 170.861 630.464 173.504 646.151 181.941C646.151 189.237 646.151 196.532 646.151 204.048C638.14 203.257 638.14 203.257 629.968 202.451C623.026 201.838 616.085 201.225 608.934 200.594C602.026 199.953 595.117 199.312 587.999 198.651C582.103 198.608 576.208 198.566 570.133 198.522C565.952 202.169 561.771 205.817 557.463 209.575C557.463 204.103 557.463 198.632 557.463 192.995C551.192 191.171 544.921 189.347 538.459 187.468C540.549 181.997 542.64 176.525 544.794 170.888Z" fill="#4389C9"/>
<path d="M266.061 181.941C303.689 187.413 303.689 187.413 342.079 192.995C342.079 194.819 342.079 196.642 342.079 198.522C329.536 198.522 316.993 198.522 304.07 198.522C304.07 202.169 304.07 205.817 304.07 209.575C308.251 209.575 312.432 209.575 316.739 209.575C316.739 215.046 316.739 220.518 316.739 226.155C325.101 226.155 333.463 226.155 342.079 226.155C342.079 229.803 342.079 233.45 342.079 237.208C346.259 239.032 350.44 240.856 354.748 242.735C333.843 244.559 312.938 246.383 291.4 248.262C289.309 244.614 287.219 240.967 285.065 237.208C289.246 237.208 293.427 237.208 297.735 237.208C297.735 233.561 297.735 229.913 297.735 226.155C287.282 226.155 276.83 226.155 266.061 226.155C266.061 220.684 266.061 215.212 266.061 209.575C272.332 211.399 278.604 213.223 285.065 215.102C285.065 209.63 285.065 204.159 285.065 198.522C278.794 196.698 272.522 194.874 266.061 192.995C266.061 189.347 266.061 185.7 266.061 181.941Z" fill="#3782C6"/>
<path d="M221.721 198.523C227.992 202.171 234.264 205.819 240.725 209.577C240.725 213.224 240.725 216.872 240.725 220.63C244.384 222.226 248.042 223.822 251.811 225.466C265.009 231.223 278.206 236.98 291.404 242.737C270.743 254.754 258.294 259.894 233.599 258.626C221.721 253.79 221.721 253.79 213.01 241.355C208.237 223.031 212.028 214.966 221.721 198.523Z" fill="#2F7CC3"/>
<path d="M589.138 386.43C599.713 390.077 610.273 393.756 620.812 397.483C620.812 393.836 620.812 390.188 620.812 386.43C639.42 390.92 639.42 390.92 658.821 397.483C660.911 402.955 663.002 408.426 665.156 414.063C658.884 414.063 652.613 414.063 646.151 414.063C644.061 419.535 641.97 425.006 639.816 430.644C639.816 425.172 639.816 419.701 639.816 414.063C606.368 410.416 572.92 406.768 538.459 403.01C565.382 379.522 565.382 379.522 589.138 386.43Z" fill="#95BED1"/>
<path d="M658.82 253.789C688.996 278.73 702.691 295.529 709.499 331.163C705.318 331.163 701.137 331.163 696.829 331.163C694.739 336.634 692.648 342.106 690.494 347.743C686.313 345.919 682.132 344.095 677.825 342.216C673.743 326.587 671.342 310.929 668.718 295.067C667.542 290.564 666.366 286.062 665.155 281.423C660.974 279.599 656.793 277.775 652.485 275.896C650.395 270.424 648.304 264.953 646.15 259.316C650.331 257.492 654.512 255.668 658.82 253.789Z" fill="#3C75A5"/>
<path d="M627.15 314.584C631.331 314.584 635.512 314.584 639.82 314.584C639.82 320.055 639.82 325.527 639.82 331.164C646.091 329.34 652.363 327.516 658.824 325.637C658.824 331.109 658.824 336.58 658.824 342.217C663.005 342.217 667.186 342.217 671.494 342.217C675.717 371.693 679.94 401.169 684.163 430.645C679.982 430.645 675.801 430.645 671.494 430.645C673.584 436.116 675.675 441.588 677.829 447.225C673.648 452.696 669.467 458.168 665.159 463.805C671.43 467.339 677.702 470.872 684.163 474.513C690.435 478.274 696.706 482.036 703.168 485.912C703.168 487.736 703.168 489.559 703.168 491.438C670.376 494.348 670.376 494.348 652.489 491.438C637.444 475.895 637.444 475.895 630.293 466.763C611.406 449.855 583.161 446.66 557.467 441.698C557.467 438.05 557.467 434.403 557.467 430.645C561.648 430.645 565.829 430.645 570.136 430.645C570.136 423.349 570.136 416.054 570.136 408.538C602.772 408.038 632.972 409.385 665.159 414.065C651.1 395.666 643.957 393.338 620.815 386.431C620.815 390.079 620.815 393.726 620.815 397.484C606.182 395.661 591.548 393.837 576.471 391.958C576.471 386.486 576.471 381.015 576.471 375.378C586.924 375.378 597.376 375.378 608.145 375.378C612.326 368.082 616.507 360.787 620.815 353.271C614.544 353.271 608.272 353.271 601.811 353.271C601.811 347.799 601.811 342.328 601.811 336.691C605.992 336.691 610.173 336.691 614.48 336.691C614.48 333.043 614.48 329.396 614.48 325.637C618.661 325.637 622.842 325.637 627.15 325.637C627.15 321.99 627.15 318.342 627.15 314.584Z" fill="#508ABB"/>
<path d="M696.831 292.477C700.358 295.098 703.886 297.72 707.521 300.421C723.386 309.773 735.163 311.94 753.844 314.583C769.174 327.958 765.666 360.964 767.825 379.134C770.917 397.881 770.917 397.881 785.988 408.235C790.014 410.159 794.04 412.082 798.188 414.064C796.097 426.831 794.007 439.597 791.853 452.751C781.401 450.927 770.948 449.103 760.179 447.224C753.908 427.162 747.636 407.1 741.175 386.43C736.994 386.43 732.813 386.43 728.505 386.43C728.505 390.078 728.505 393.726 728.505 397.484C732.686 399.308 736.867 401.132 741.175 403.011C741.175 406.658 741.175 410.306 741.175 414.064C736.994 414.064 732.813 414.064 728.505 414.064C726.414 419.535 724.324 425.007 722.17 430.644C722.17 426.996 722.17 423.349 722.17 419.591C717.989 419.591 713.808 419.591 709.5 419.591C695.861 398.271 688.009 383.384 690.496 358.797C694.677 358.797 698.858 358.797 703.166 358.797C705.256 371.564 707.347 384.33 709.5 397.484C710.363 362.104 709.745 326.277 696.831 292.477Z" fill="#428CC6"/>
<path d="M658.821 292.477C663.002 292.477 667.183 292.477 671.491 292.477C673.581 308.891 675.672 325.305 677.826 342.217C691.989 343.52 691.989 343.52 703.165 331.163C717.408 356.015 716.892 375.812 715.835 403.011C711.654 401.187 707.473 399.363 703.165 397.484C703.165 384.717 703.165 371.951 703.165 358.797C698.984 358.797 694.803 358.797 690.495 358.797C696.767 378.859 703.038 398.921 709.5 419.591C713.681 419.591 717.862 419.591 722.17 419.591C726.351 426.886 730.532 434.181 734.839 441.697C722.296 441.697 709.753 441.697 696.83 441.697C701.011 443.521 705.192 445.345 709.5 447.224C709.5 450.872 709.5 454.519 709.5 458.278C703.228 458.278 696.957 458.278 690.495 458.278C689.048 470.677 689.048 470.677 703.165 481.075C707.346 484.495 711.527 487.915 715.835 491.438C690.899 491.438 683.362 483.542 665.156 469.331C663.066 465.683 660.975 462.036 658.821 458.278C663.002 458.278 667.183 458.278 671.491 458.278C669.4 445.511 667.31 432.744 665.156 419.591C669.337 419.591 673.518 419.591 677.826 419.591C676.781 415.031 675.735 410.472 674.658 405.774C671.117 384.149 671.06 364.037 671.491 342.217C667.31 342.217 663.129 342.217 658.821 342.217C658.821 325.803 658.821 309.388 658.821 292.477Z" fill="#7AACC8"/>
<path d="M475.111 331.162C477.202 334.81 479.292 338.457 481.446 342.216C485.627 344.039 489.808 345.863 494.116 347.742C464.025 364.322 464.025 364.322 449.772 364.322C447.681 369.794 445.591 375.265 443.437 380.902C437.427 379.877 431.417 378.851 425.224 377.794C406.07 373.79 406.07 373.79 392.758 380.902C369.945 382.659 347.127 383.73 324.263 384.875C304.741 385.292 304.741 385.292 291.401 391.956C287.22 388.308 283.039 384.661 278.731 380.902C299.121 374.973 315.11 374.613 336.537 373.994C372.525 371.933 394.761 364.989 424.779 348.174C441.826 339.931 456.065 340.085 475.111 342.216C475.111 338.568 475.111 334.92 475.111 331.162Z" fill="#3F85C7"/>
<path d="M690.497 436.17C700.949 437.994 711.402 439.818 722.171 441.697C720.081 447.168 717.99 452.639 715.836 458.277C728.379 458.277 740.922 458.277 753.845 458.277C753.845 469.22 753.845 480.162 753.845 491.437C764.298 491.437 774.75 491.437 785.519 491.437C785.519 495.085 785.519 498.732 785.519 502.49C756.195 507.507 735.918 510.521 709.501 496.964C707.411 491.492 705.32 486.021 703.167 480.384C693.665 471.17 693.665 471.17 684.162 463.803C686.253 458.332 688.343 452.861 690.497 447.223C699.904 452.695 699.904 452.695 709.501 458.277C709.501 454.629 709.501 450.981 709.501 447.223C703.23 445.4 696.958 443.576 690.497 441.697C690.497 439.873 690.497 438.049 690.497 436.17Z" fill="#3379BA"/>
<path d="M658.821 292.477C663.002 292.477 667.183 292.477 671.491 292.477C673.581 308.891 675.672 325.305 677.826 342.217C691.989 343.52 691.989 343.52 703.165 331.163C717.408 356.015 716.892 375.812 715.835 403.011C711.654 401.187 707.473 399.363 703.165 397.484C703.165 384.717 703.165 371.951 703.165 358.797C698.984 358.797 694.803 358.797 690.495 358.797C696.767 378.859 703.038 398.921 709.5 419.591C713.681 419.591 717.862 419.591 722.17 419.591C726.351 426.886 730.532 434.181 734.839 441.697C722.296 441.697 709.753 441.697 696.83 441.697C701.011 443.521 705.192 445.345 709.5 447.224C709.5 450.872 709.5 454.519 709.5 458.278C703.228 458.278 696.957 458.278 690.495 458.278C689.048 470.677 689.048 470.677 703.165 481.075C707.346 484.495 711.527 487.915 715.835 491.438C690.899 491.438 683.362 483.542 665.156 469.331C663.066 465.683 660.975 462.036 658.821 458.278C663.002 458.278 667.183 458.278 671.491 458.278C669.4 445.511 667.31 432.744 665.156 419.591C669.337 419.591 673.518 419.591 677.826 419.591C676.781 415.031 675.735 410.472 674.658 405.774C671.117 384.149 671.06 364.037 671.491 342.217C667.31 342.217 663.129 342.217 658.821 342.217C658.821 325.803 658.821 309.388 658.821 292.477Z" fill="#7AACC8"/>
<path d="M741.175 309.056C747.446 312.703 753.717 316.351 760.179 320.109C764.404 339.81 766.213 359.371 768.271 379.327C770.904 397.912 770.904 397.912 785.939 408.212C789.981 410.143 794.023 412.074 798.188 414.063C796.097 426.83 794.007 439.596 791.853 452.75C781.401 450.926 770.948 449.102 760.179 447.223C753.908 427.161 747.636 407.099 741.175 386.429C736.994 386.429 732.813 386.429 728.505 386.429C728.505 390.077 728.505 393.725 728.505 397.483C732.686 399.307 736.867 401.13 741.175 403.01C741.175 406.657 741.175 410.305 741.175 414.063C736.994 414.063 732.813 414.063 728.505 414.063C726.414 419.534 724.324 425.006 722.17 430.643C722.17 426.995 722.17 423.348 722.17 419.59C717.989 419.59 713.808 419.59 709.5 419.59C695.861 398.27 688.009 383.383 690.496 358.796C694.677 358.796 698.858 358.796 703.166 358.796C705.256 371.563 707.347 384.329 709.5 397.483C713.681 386.54 717.862 375.597 722.17 364.323C724.261 367.97 726.351 371.618 728.505 375.376C732.686 375.376 736.867 375.376 741.175 375.376C740.129 372.298 739.084 369.221 738.007 366.05C734.587 352.248 734.84 339.713 734.84 325.636C732.749 321.988 730.659 318.341 728.505 314.582C732.686 312.759 736.867 310.935 741.175 309.056Z" fill="#3F89C3"/>
<path d="M475.111 331.162C477.202 334.81 479.292 338.457 481.446 342.216C485.627 344.039 489.808 345.863 494.116 347.742C464.025 364.322 464.025 364.322 449.772 364.322C447.681 369.794 445.591 375.265 443.437 380.902C437.427 379.877 431.417 378.851 425.224 377.794C406.07 373.79 406.07 373.79 392.758 380.902C369.945 382.659 347.127 383.73 324.263 384.875C304.741 385.292 304.741 385.292 291.401 391.956C287.22 388.308 283.039 384.661 278.731 380.902C299.121 374.973 315.11 374.613 336.537 373.994C372.525 371.933 394.761 364.989 424.779 348.174C441.826 339.931 456.065 340.085 475.111 342.216C475.111 338.568 475.111 334.92 475.111 331.162Z" fill="#3F85C7"/>
<path d="M690.497 436.17C700.949 437.994 711.402 439.818 722.171 441.697C720.081 447.168 717.99 452.639 715.836 458.277C728.379 458.277 740.922 458.277 753.845 458.277C753.845 469.22 753.845 480.162 753.845 491.437C764.298 491.437 774.75 491.437 785.519 491.437C785.519 495.085 785.519 498.732 785.519 502.49C756.195 507.507 735.918 510.521 709.501 496.964C707.411 491.492 705.32 486.021 703.167 480.384C693.665 471.17 693.665 471.17 684.162 463.803C686.253 458.332 688.343 452.861 690.497 447.223C699.904 452.695 699.904 452.695 709.501 458.277C709.501 454.629 709.501 450.981 709.501 447.223C703.23 445.4 696.958 443.576 690.497 441.697C690.497 439.873 690.497 438.049 690.497 436.17Z" fill="#3379BA"/>
</g>
</svg>
