<svg width="488" height="702" viewBox="0 0 488 702" fill="none" xmlns="http://www.w3.org/2000/svg">
<g style="mix-blend-mode:multiply">
<path d="M152.035 497.404C154.126 502.876 156.216 508.347 158.37 513.984C147.17 524.784 137.224 531.677 122.736 539.2C106.982 545.924 106.982 545.924 101.356 558.198C109.718 556.374 118.08 554.55 126.696 552.671C118.249 571.094 109.803 589.516 101.356 607.938C115.99 609.762 130.623 611.586 145.7 613.465C143.61 602.522 141.519 591.579 139.365 580.305C145.637 578.481 151.908 576.657 158.37 574.778C177.374 611.392 177.374 611.392 177.374 630.045C169.927 630.501 162.48 630.957 154.806 631.427C134.284 633.515 120.718 637.629 103.336 647.316C82.3519 657.679 82.3519 657.679 63.7433 656.297C59.4317 654.929 55.12 653.561 50.6777 652.152C50.6777 648.504 50.6777 644.857 50.6777 641.098C54.8587 639.275 59.0397 637.451 63.3474 635.572C78.9392 615.237 78.9392 615.237 80.595 591.552C79.1128 585.985 79.1128 585.985 77.6008 580.305C75.2252 569.036 75.2252 569.036 76.0171 558.198C88.4903 544.163 103.464 534.762 120.361 525.038C126.632 521.39 132.904 517.743 139.365 513.984C111.323 512.299 111.323 512.299 86.3112 522.274C82.9141 525.01 79.517 527.746 76.0171 530.564C87.8949 509.149 87.8949 509.149 95.0215 502.931C133.734 497.404 133.734 497.404 152.035 497.404Z" fill="#2263A8"/>
<path d="M152.035 149.222C164.705 165.802 164.705 165.802 164.705 176.855C172.544 177.653 180.383 178.451 188.46 179.273C206.293 181.204 223.43 183.508 240.723 187.909C242.552 193.95 244.381 199.991 246.266 206.216C252.245 226.817 252.245 226.817 266.062 243.176C263.87 255.798 259.936 264.918 253.392 276.336C229.589 268.297 229.589 268.297 223.302 255.956C221.169 238.746 221.337 221.781 221.718 204.489C217.537 204.489 213.356 204.489 209.049 204.489C206.958 200.841 204.868 197.193 202.714 193.435C190.171 195.259 177.628 197.083 164.705 198.962C162.614 219.024 160.524 239.086 158.37 259.756C168.822 261.579 179.275 263.403 190.044 265.282C194.003 275.3 194.003 275.3 196.379 287.389C183.709 303.969 183.709 303.969 171.436 306.387C153.833 310.575 149.018 318.55 139.365 331.603C135.184 324.308 131.003 317.012 126.696 309.496C135.058 305.848 143.42 302.201 152.035 298.443C150.974 294.617 149.912 290.791 148.818 286.849C137.177 238.06 142.154 197.761 152.035 149.222Z" fill="#5593C8"/>
<path d="M190.044 210.015C200.497 210.015 210.949 210.015 221.718 210.015C222.502 214.916 223.286 219.818 224.094 224.868C227.272 242.86 227.272 242.86 234.784 257.682C240.723 270.808 240.723 270.808 240.723 292.915C238.632 287.444 236.542 281.972 234.388 276.335C226.026 276.335 217.664 276.335 209.049 276.335C211.139 285.454 213.23 294.573 215.383 303.969C211.202 305.792 207.021 307.616 202.714 309.495C203.89 312.801 205.066 316.107 206.277 319.512C209.049 331.602 209.049 331.602 202.714 348.182C190.44 346.455 190.44 346.455 177.374 342.655C175.284 337.184 173.193 331.713 171.04 326.075C168.949 351.609 166.859 377.142 164.705 403.449C158.433 401.625 152.162 399.802 145.7 397.922C148.836 373.301 148.836 373.301 152.035 348.182C147.854 355.477 143.673 362.773 139.365 370.289C135.184 370.289 131.003 370.289 126.696 370.289C129.709 342.685 139.059 325.921 158.37 303.969C162.551 302.145 166.732 300.321 171.04 298.442C175.221 300.266 179.402 302.089 183.709 303.969C185.8 293.026 187.89 282.083 190.044 270.808C181.682 267.161 173.32 263.513 164.705 259.755C164.705 248.702 164.705 248.702 173.415 239.721C183.709 232.121 183.709 232.121 196.379 232.121C198.469 235.769 200.56 239.417 202.714 243.175C199.508 231.189 196.38 221.07 190.044 210.015Z" fill="#A1C2C8"/>
<path d="M31.6736 453.19C48.3975 453.19 65.1215 453.19 82.3522 453.19C84.4427 467.781 86.5332 482.371 88.687 497.404C92.868 495.58 97.049 493.756 101.357 491.877C114.024 491.656 126.699 491.637 139.366 491.877C139.366 495.525 139.366 499.173 139.366 502.931C132.441 503.501 125.516 504.071 118.382 504.658C95.9969 506.868 95.9969 506.868 83.54 515.366C74.3307 527.206 68.7717 539.203 63.3477 552.671C47.669 547.2 47.669 547.2 31.6736 541.618C35.8546 530.675 40.0355 519.732 44.3432 508.457C35.9812 506.634 27.6193 504.81 19.0039 502.931C24.5469 465.626 24.5469 465.626 31.6736 453.19Z" fill="#659DD1"/>
<path d="M183.709 469.769C188.46 478.749 188.46 478.749 190.043 491.875C178.166 509.146 178.166 509.146 164.704 525.036C162.614 528.683 160.523 532.331 158.369 536.089C162.55 537.913 166.731 539.737 171.039 541.616C168.948 545.263 166.858 548.911 164.704 552.669C158.433 552.669 152.161 552.669 145.7 552.669C147.463 557.457 147.463 557.457 149.263 562.341C152.335 576.123 150.128 583.575 145.7 596.883C145.7 602.354 145.7 607.826 145.7 613.463C131.066 613.463 116.433 613.463 101.356 613.463C95.021 596.883 95.021 596.883 101.331 585.592C104.344 581.681 107.358 577.769 110.462 573.74C113.459 569.786 116.456 565.832 119.544 561.758C121.904 558.759 124.264 555.759 126.695 552.669C118.333 554.493 109.971 556.317 101.356 558.196C109.282 537.45 117.606 534.758 139.365 525.036C143.546 525.036 147.727 525.036 152.034 525.036C152.034 515.917 152.034 506.797 152.034 497.402C147.853 495.578 143.672 493.754 139.365 491.875C143.546 491.875 147.727 491.875 152.034 491.875C154.125 486.404 156.215 480.932 158.369 475.295C160.46 478.943 162.55 482.59 164.704 486.349C168.885 486.349 173.066 486.349 177.374 486.349C179.464 480.877 181.555 475.406 183.709 469.769Z" fill="#4791D3"/>
<path d="M95.0222 397.922C97.1127 397.922 99.2032 397.922 101.357 397.922C103.337 413.12 103.337 413.12 101.357 431.082C84.0321 447.975 74.7404 452.856 48.6988 454.571C43.0806 454.115 37.4624 453.659 31.6739 453.189C27.4929 469.603 23.3119 486.017 19.0043 502.929C29.4567 504.753 39.9092 506.577 50.6784 508.456C38.0088 536.089 38.0088 536.089 29.6943 548.524C22.8199 572.514 34.5408 590.951 44.3436 613.463C48.837 626.304 52.9104 639.209 57.0132 652.15C76.1078 649.7 89.1738 646.382 106.108 637.988C132.751 627.707 155.048 628.543 183.71 630.043C183.71 633.691 183.71 637.339 183.71 641.097C177.438 640.641 171.167 640.185 164.705 639.715C144.235 639.571 131.519 643.61 113.631 652.15C91.6242 662.606 76.1603 666.823 50.6784 663.204C29.3553 649.716 26.4223 633.501 20.9839 611.736C19.3915 605.602 17.7992 599.468 16.1585 593.148C10.0029 560.736 9.58387 541.285 31.6739 513.983C25.4024 512.159 19.131 510.335 12.6694 508.456C13.0495 499.469 13.612 490.489 14.2531 481.513C14.5471 476.512 14.8411 471.511 15.144 466.358C19.0043 453.189 19.0043 453.189 30.9316 446.237C35.3575 444.884 39.7835 443.53 44.3436 442.135C68.7379 434.204 68.7379 434.204 88.6874 420.029C92.7577 408.595 92.7577 408.595 95.0222 397.922Z" fill="#E4E9E7"/>
<path d="M120.361 420.029C133.031 425.556 133.031 425.556 139.366 442.136C139.8 452.608 139.903 463.092 139.761 473.569C139.704 479.062 139.647 484.555 139.588 490.214C139.515 494.41 139.441 498.606 139.366 502.93C132.441 503.5 125.516 504.07 118.381 504.657C95.9967 506.867 95.9967 506.867 83.5399 515.365C74.3306 527.205 68.7716 539.202 63.3476 552.67C47.6689 547.199 47.6689 547.199 31.6735 541.617C35.8544 530.674 40.0354 519.731 44.3431 508.457C38.0716 506.633 31.8001 504.809 25.3386 502.93C24.5468 465.625 24.5468 465.625 31.6735 453.189C46.3367 449.162 61.1342 445.494 76.0173 442.136C82.2887 440.312 88.5602 438.488 95.0218 436.609C97.1122 449.376 99.2027 462.143 101.357 475.296C103.447 475.296 105.538 475.296 107.691 475.296C111.872 466.177 116.053 457.058 120.361 447.663C116.18 447.663 111.999 447.663 107.691 447.663C107.691 444.015 107.691 440.368 107.691 436.609C111.872 436.609 116.053 436.609 120.361 436.609C120.361 431.138 120.361 425.667 120.361 420.029Z" fill="#6099CD"/>
<path d="M152.036 497.404C154.126 502.876 156.217 508.347 158.371 513.984C147.171 524.784 137.225 531.677 122.737 539.2C106.983 545.924 106.983 545.924 101.357 558.198C109.719 556.374 118.081 554.55 126.697 552.671C120.161 566.926 113.618 581.112 106.504 595.158C104.806 599.375 103.107 603.593 101.357 607.938C103.448 611.586 105.538 615.234 107.692 618.992C103.511 618.992 99.3301 618.992 95.0224 618.992C95.0224 622.639 95.0224 626.287 95.0224 630.045C90.8415 630.045 86.6605 630.045 82.3528 630.045C80.2623 633.693 78.1718 637.34 76.018 641.099C65.5655 639.275 55.113 637.451 44.3438 635.572C39.909 624.081 35.5725 612.561 31.2782 601.03C28.8529 594.618 26.4276 588.206 23.9288 581.6C19.3078 564.826 18.2513 557.33 25.3393 541.618C37.8823 545.266 50.4252 548.913 63.3483 552.671C65.4388 547.2 67.5293 541.728 69.6831 536.091C73.8641 536.091 78.0451 536.091 82.3528 536.091C76.018 547.145 69.6831 558.198 63.3483 569.251C59.1673 569.251 54.9863 569.251 50.6786 569.251C52.7691 572.899 54.8596 576.547 57.0135 580.305C61.1945 578.481 65.3754 576.657 69.6831 574.778C74.8123 590.887 77.4019 599.433 70.0791 615.192C67.8579 618.27 65.6367 621.347 63.3483 624.518C71.5467 617.727 71.5467 617.727 82.3528 602.412C79.805 591.982 79.805 591.982 77.2057 581.341C75.0034 569.618 75.0034 569.618 76.018 558.198C88.4656 544.139 103.46 534.765 120.362 525.038C126.633 521.39 132.905 517.743 139.366 513.984C111.324 512.299 111.324 512.299 86.312 522.274C82.915 525.01 79.5179 527.746 76.018 530.564C87.8958 509.149 87.8958 509.149 95.0224 502.931C133.735 497.404 133.735 497.404 152.036 497.404Z" fill="#286FB6"/>
<path d="M190.044 210.015C200.497 210.015 210.949 210.015 221.718 210.015C222.502 214.916 223.286 219.818 224.094 224.868C227.272 242.86 227.272 242.86 234.784 257.682C240.723 270.808 240.723 270.808 240.723 292.915C238.632 287.444 236.542 281.972 234.388 276.335C226.026 276.335 217.664 276.335 209.049 276.335C211.139 285.454 213.23 294.573 215.383 303.969C211.202 305.792 207.021 307.616 202.714 309.495C203.89 312.801 205.066 316.107 206.277 319.512C209.049 331.602 209.049 331.602 202.714 348.182C190.44 346.455 190.44 346.455 177.374 342.655C175.284 337.184 173.193 331.713 171.04 326.075C168.949 351.609 166.859 377.142 164.705 403.449C158.433 401.625 152.162 399.802 145.7 397.922C148.836 373.301 148.836 373.301 152.035 348.182C147.854 355.477 143.673 362.773 139.365 370.289C135.184 370.289 131.003 370.289 126.696 370.289C129.709 342.685 139.059 325.921 158.37 303.969C162.551 302.145 166.732 300.321 171.04 298.442C175.221 300.266 179.402 302.089 183.709 303.969C185.8 293.026 187.89 282.083 190.044 270.808C181.682 267.161 173.32 263.513 164.705 259.755C164.705 248.702 164.705 248.702 173.415 239.721C183.709 232.121 183.709 232.121 196.379 232.121C198.469 235.769 200.56 239.417 202.714 243.175C199.508 231.189 196.38 221.07 190.044 210.015Z" fill="#A1C2C8"/>
<path d="M215.386 303.969C220.781 317.206 222.94 323.55 216.574 336.74C214.091 340.288 211.609 343.836 209.051 347.492C199.172 363.535 196.363 369.443 196.777 388.251C202.752 403.542 209.507 413.511 221.721 425.556C225.902 423.732 230.083 421.909 234.39 420.029C238.571 432.796 242.752 445.563 247.06 458.716C213.178 461.139 213.178 461.139 196.381 458.716C185.691 445.59 185.691 445.59 177.377 431.083C161.09 423.639 161.09 423.639 145.703 420.029C147.793 412.734 149.884 405.439 152.037 397.923C156.218 399.746 160.399 401.57 164.707 403.449C164.707 377.916 164.707 352.383 164.707 326.076C170.979 326.076 177.25 326.076 183.712 326.076C181.621 331.547 179.531 337.018 177.377 342.656C185.739 344.479 194.101 346.303 202.716 348.182C200.952 338.778 200.952 338.778 199.153 329.184C198.238 322.687 197.324 316.19 196.381 309.495C202.716 303.969 202.716 303.969 215.386 303.969Z" fill="#4B88BF"/>
<path d="M171.042 353.71C172.74 356.788 174.439 359.865 176.189 363.036C183.705 376.281 183.705 376.281 194.006 389.979C202.716 403.45 202.716 403.45 202.716 420.03C211.078 420.03 219.44 420.03 228.055 420.03C243.003 433.071 243.838 440.916 247.06 458.717C213.178 461.14 213.178 461.14 196.381 458.717C185.691 445.591 185.691 445.591 177.377 431.084C161.09 423.64 161.09 423.64 145.703 420.03C147.793 412.735 149.884 405.44 152.037 397.924C156.218 399.747 160.399 401.571 164.707 403.45C164.576 396.269 164.446 389.088 164.311 381.689C164.175 374.205 164.254 366.711 164.707 359.237C166.798 357.413 168.888 355.589 171.042 353.71Z" fill="#3F83C2"/>
<path d="M209.051 469.769C211.141 469.769 213.232 469.769 215.386 469.769C215.77 472.91 216.153 476.052 216.549 479.289C219.831 505.68 223.573 531.94 228.055 558.196C205.125 565.47 189.44 569.249 164.707 569.249C164.707 578.368 164.707 587.487 164.707 596.883C155.751 582.297 149.678 568.856 145.703 552.669C151.974 552.669 158.246 552.669 164.707 552.669C164.707 545.374 164.707 538.079 164.707 530.562C175.265 521.351 185.823 512.14 196.381 502.929C204.842 485.426 204.842 485.426 209.051 469.769Z" fill="#2E73B9"/>
<path d="M126.697 315.022C130.878 316.846 135.059 318.67 139.367 320.549C135.186 336.963 131.005 353.378 126.697 370.289C130.878 370.289 135.059 370.289 139.367 370.289C143.548 359.347 147.729 348.404 152.037 337.129C160.318 359.3 155.619 371.828 145.925 392.914C136.56 407.959 123.963 416.349 107.693 425.556C105.602 420.085 103.512 414.614 101.358 408.976C95.0865 414.448 88.815 419.919 82.3535 425.556C80.8351 394.426 86.2475 367.275 95.0232 337.129C99.2042 337.129 103.385 337.129 107.693 337.129C107.693 351.72 107.693 366.31 107.693 381.343C108.954 374.856 108.954 374.856 110.242 368.239C111.36 362.646 112.479 357.053 113.632 351.291C114.734 345.713 115.837 340.135 116.972 334.387C120.362 320.549 120.362 320.549 126.697 315.022Z" fill="#5B8AAB"/>
<path d="M69.6829 536.09C73.8639 536.09 78.0449 536.09 82.3526 536.09C76.0177 547.143 69.6829 558.197 63.3481 569.25C59.1671 569.25 54.9861 569.25 50.6784 569.25C52.7689 572.898 54.8594 576.545 57.0132 580.303C61.1942 578.48 65.3752 576.656 69.6829 574.777C75.4327 600.36 78.8873 618.05 63.3481 641.097C57.0766 642.921 50.8051 644.745 44.3436 646.624C41.2986 636.148 38.2655 625.67 35.2373 615.191C33.5469 609.356 31.8565 603.521 30.115 597.51C18.1046 554.24 18.1046 554.24 25.3391 541.617C37.882 545.264 50.425 548.912 63.3481 552.67C65.4386 547.199 67.5291 541.727 69.6829 536.09Z" fill="#2F79C2"/>
<path d="M183.709 469.769C185.799 469.769 187.89 469.769 190.043 469.769C192.419 481.167 192.419 481.167 190.043 497.402C178.693 511.416 165.703 523.774 152.034 536.089C158.306 537.913 164.577 539.737 171.039 541.616C168.948 545.263 166.858 548.911 164.704 552.669C158.433 552.669 152.161 552.669 145.7 552.669C147.463 557.457 147.463 557.457 149.263 562.341C152.335 576.123 150.128 583.575 145.7 596.883C145.7 602.354 145.7 607.826 145.7 613.463C131.066 613.463 116.433 613.463 101.356 613.463C95.021 596.883 95.021 596.883 101.331 585.592C104.344 581.681 107.358 577.769 110.462 573.74C113.459 569.786 116.456 565.832 119.544 561.758C121.904 558.759 124.264 555.759 126.695 552.669C118.333 554.493 109.971 556.317 101.356 558.196C109.282 537.45 117.606 534.758 139.365 525.036C143.546 525.036 147.727 525.036 152.034 525.036C152.034 515.917 152.034 506.797 152.034 497.402C147.853 495.578 143.672 493.754 139.365 491.875C143.546 491.875 147.727 491.875 152.034 491.875C154.125 486.404 156.215 480.932 158.369 475.295C160.46 478.943 162.55 482.59 164.704 486.349C168.885 486.349 173.066 486.349 177.374 486.349C179.464 480.877 181.555 475.406 183.709 469.769Z" fill="#4791D3"/>
<path d="M196.379 82.9004C208.608 93.1427 215.175 100.702 215.903 115.737C213.931 133.359 211.917 145.739 199.942 160.274C190.044 165.801 190.044 165.801 177.374 165.801C177.374 169.449 177.374 173.096 177.374 176.854C173.193 176.854 169.012 176.854 164.704 176.854C159.557 162.692 159.557 162.692 158.37 143.694C165.268 132.889 173.162 123.923 182.274 114.463C190.867 104.006 193.677 95.4523 196.379 82.9004Z" fill="#4882C1"/>
<path d="M145.703 254.229C160.336 257.877 174.97 261.525 190.046 265.283C194.006 275.3 194.006 275.3 196.381 287.39C183.712 303.97 183.712 303.97 171.116 306.431C157.472 308.449 157.472 308.449 150.577 319.125C148.577 323.015 146.576 326.905 144.515 330.912C142.465 334.774 140.416 338.635 138.304 342.614C133.993 351.689 130.259 360.971 126.698 370.29C130.879 370.29 135.06 370.29 139.368 370.29C143.549 359.347 147.73 348.404 152.037 337.13C160.319 359.3 155.62 371.829 145.925 392.915C136.561 407.96 123.964 416.35 107.694 425.557C106.513 398.771 108.084 373.06 112.049 346.456C112.857 340.892 113.666 335.328 114.499 329.596C120.363 315.023 120.363 315.023 136.72 304.769C141.775 302.681 146.83 300.594 152.037 298.443C149.947 283.853 147.856 269.262 145.703 254.229Z" fill="#5493C0"/>
<path d="M126.696 425.556C132.314 427.265 137.932 428.975 143.721 430.737C163.961 436.852 163.961 436.852 182.521 439.372C189.381 440.74 189.381 440.74 196.379 442.136C198.469 445.783 200.56 449.431 202.714 453.189C216.18 455.767 216.18 455.767 231.616 456.643C236.851 457.057 242.085 457.47 247.478 457.895C251.52 458.166 255.563 458.437 259.727 458.716C259.727 462.363 259.727 466.011 259.727 469.769C243.003 469.769 226.279 469.769 209.049 469.769C208.526 474.671 208.003 479.572 207.465 484.622C201.974 505.782 194.866 515.303 177.374 530.563C159.954 537.817 159.954 537.817 145.7 541.616C148.444 538.681 151.188 535.746 154.015 532.722C157.542 528.818 161.07 524.914 164.705 520.891C168.232 517.044 171.76 513.197 175.395 509.233C185.917 496.575 185.917 496.575 183.709 475.296C181.619 478.944 179.528 482.591 177.374 486.349C171.103 484.526 164.831 482.702 158.37 480.823C156.279 484.47 154.189 488.118 152.035 491.876C147.854 491.876 143.673 491.876 139.365 491.876C138.982 488.478 138.598 485.08 138.202 481.578C137.672 477.111 137.141 472.644 136.594 468.042C136.08 463.618 135.565 459.194 135.035 454.636C133.331 441.247 133.331 441.247 126.696 425.556Z" fill="#296AAD"/>
<path d="M120.362 420.029C133.032 425.556 133.032 425.556 139.366 442.136C139.793 450.764 139.906 459.407 139.762 468.043C139.705 472.509 139.648 476.976 139.589 481.579C139.516 484.977 139.442 488.375 139.366 491.876C122.642 493.7 105.918 495.524 88.6877 497.403C76.0181 460.789 76.0181 460.789 76.0181 442.136C82.2895 440.312 88.561 438.488 95.0226 436.609C97.1131 449.376 99.2035 462.143 101.357 475.296C103.448 475.296 105.538 475.296 107.692 475.296C111.873 466.177 116.054 457.058 120.362 447.663C116.181 447.663 112 447.663 107.692 447.663C107.692 444.015 107.692 440.368 107.692 436.609C111.873 436.609 116.054 436.609 120.362 436.609C120.362 431.138 120.362 425.667 120.362 420.029Z" fill="#5691C7"/>
<path d="M126.696 425.556C132.314 427.265 137.932 428.975 143.721 430.737C161.329 435.664 178.207 439.338 196.379 442.136C198.469 451.255 200.56 460.374 202.714 469.769C196.442 471.593 190.171 473.417 183.709 475.296C181.619 478.944 179.528 482.591 177.374 486.349C171.103 484.526 164.831 482.702 158.37 480.823C156.279 484.47 154.189 488.118 152.035 491.876C147.854 491.876 143.673 491.876 139.365 491.876C138.982 488.478 138.598 485.08 138.202 481.578C137.672 477.111 137.141 472.644 136.594 468.042C136.08 463.618 135.565 459.194 135.035 454.636C133.331 441.247 133.331 441.247 126.696 425.556Z" fill="#3372B0"/>
<path d="M145.702 508.457C123.012 529.014 123.012 529.014 109.994 536.63C97.5337 543.666 97.5337 543.666 82.3532 558.198C81.2309 574.077 84.8318 586.625 88.688 602.411C86.5976 606.059 84.5071 609.706 82.3532 613.465C78.1722 613.465 73.9912 613.465 69.6836 613.465C69.6836 604.346 69.6836 595.226 69.6836 585.831C61.3216 584.007 52.9596 582.183 44.3442 580.304C46.4347 576.657 48.5252 573.009 50.6791 569.251C54.8601 569.251 59.041 569.251 63.3487 569.251C66.2885 564.121 66.2885 564.121 69.2876 558.888C73.6428 551.289 77.998 543.69 82.3532 536.091C78.1722 536.091 73.9912 536.091 69.6836 536.091C86.4703 506.8 110.887 506.705 145.702 508.457Z" fill="#5592CA"/>
<path d="M259.727 276.336C267.817 297.51 262.524 305.941 254.184 326.767C251.848 332.709 249.513 338.65 247.106 344.772C240.722 359.236 240.722 359.236 234.387 364.763C234.187 378.89 234.82 392.937 235.402 407.055C234.387 420.03 234.387 420.03 221.718 431.084C201.013 411.273 190.043 397.509 190.043 370.29C196.948 354.756 206.113 340.61 215.383 326.076C219.756 316.919 224.06 307.732 228.052 298.443C230.143 303.914 232.233 309.386 234.387 315.023C236.216 311.717 238.046 308.412 239.93 305.006C247.057 292.916 247.057 292.916 259.727 276.336Z" fill="#8FB4C9"/>
<path d="M139.365 397.922C141.455 405.217 143.546 412.512 145.699 420.029C164.514 422.764 164.514 422.764 183.708 425.555C181.618 432.851 179.527 440.146 177.374 447.662C157.47 439.173 138.82 430.765 120.36 420.029C120.36 425.5 120.36 430.972 120.36 436.609C116.179 436.609 111.998 436.609 107.69 436.609C107.69 440.256 107.69 443.904 107.69 447.662C111.871 447.662 116.052 447.662 120.36 447.662C119.184 451.082 118.008 454.501 116.797 458.025C112.525 469.999 112.525 469.999 120.36 480.822C111.998 478.999 103.636 477.175 95.0208 475.296C93.2108 427.924 93.2108 427.924 107.69 408.975C111.871 408.975 116.052 408.975 120.36 408.975C126.632 405.328 132.903 401.68 139.365 397.922Z" fill="#83B7DA"/>
<path d="M6.33483 547.144C8.42532 547.144 10.5158 547.144 12.6697 547.144C13.596 550.296 14.5223 553.448 15.4767 556.695C19.6655 570.903 23.8877 585.102 28.1108 599.302C29.5684 604.264 31.0261 609.226 32.5279 614.338C33.9365 619.058 35.3451 623.778 36.7965 628.641C38.0903 633.011 39.3841 637.381 40.7171 641.884C43.3323 652.13 43.3323 652.13 50.6786 657.678C76.5592 660.431 91.6289 657.025 113.631 645.933C128.095 638.979 135.881 635.306 152.457 636.564C164.706 639.716 164.706 639.716 183.71 646.624C183.71 664.862 183.71 683.1 183.71 701.891C171.388 685.766 168.172 676.328 164.706 657.678C135.035 655.913 124.474 658.979 101.357 674.258C76.7911 678.77 61.9574 681.222 38.009 674.258C23.0459 649.193 15.369 624.601 9.05683 596.97C6.32681 584.783 6.32681 584.783 0 569.25C2.77149 557.161 2.77149 557.161 6.33483 547.144Z" fill="#7B9698"/>
<path d="M19.0019 502.93C29.4543 504.753 39.9068 506.577 50.676 508.456C38.0064 536.09 38.0064 536.09 30.2858 548.007C23.0072 571.121 31.422 587.575 40.3819 609.664C41.9498 613.757 43.5177 617.85 45.133 622.067C48.9997 632.122 52.993 642.14 57.0109 652.151C76.1817 649.26 88.9761 646.48 106.106 637.988C132.748 627.708 155.045 628.543 183.707 630.044C183.707 633.691 183.707 637.339 183.707 641.097C177.436 640.641 171.164 640.185 164.703 639.716C139.166 639.535 122.862 647.739 100.884 658.239C83.4879 665.319 69.4897 665.549 50.676 663.204C20.6568 637.014 12.822 589.455 12.4443 553.685C14.0104 536.634 16.0405 519.835 19.0019 502.93Z" fill="#D5E0E6"/>
<path d="M145.702 508.457C123.012 529.014 123.012 529.014 109.994 536.63C97.5337 543.666 97.5337 543.666 82.3532 558.198C81.9661 570.066 84.2882 580.127 87.2033 591.703C89.4886 608.185 80.983 617.426 69.6836 630.045C65.5026 628.221 61.3216 626.397 57.0139 624.518C59.235 621.326 61.4562 618.135 63.7447 614.846C70.6286 600.433 69.2442 594.706 63.3487 580.304C57.0772 580.304 50.8058 580.304 44.3442 580.304C46.4347 576.657 48.5252 573.009 50.6791 569.251C54.8601 569.251 59.041 569.251 63.3487 569.251C66.2885 564.121 66.2885 564.121 69.2876 558.888C73.6428 551.289 77.998 543.69 82.3532 536.091C78.1722 536.091 73.9912 536.091 69.6836 536.091C86.4703 506.8 110.887 506.705 145.702 508.457Z" fill="#5492CB"/>
<path d="M158.37 596.883C167.872 604.137 167.872 604.137 177.374 613.463C177.374 618.934 177.374 624.406 177.374 630.043C173.169 630.649 168.963 631.254 164.63 631.878C128.882 637.303 128.882 637.303 96.2093 650.423C82.3519 657.677 82.3519 657.677 64.5352 655.949C59.9622 654.696 55.3893 653.442 50.6777 652.15C50.6777 648.502 50.6777 644.855 50.6777 641.096C65.3112 637.449 79.9446 633.801 95.0215 630.043C95.0215 626.395 95.0215 622.748 95.0215 618.99C116.596 614.687 136.246 612.911 158.37 613.463C158.37 607.991 158.37 602.52 158.37 596.883Z" fill="#215C99"/>
<path d="M139.365 397.922C141.455 405.217 143.546 412.512 145.699 420.029C164.514 422.764 164.514 422.764 183.708 425.555C181.618 432.851 179.527 440.146 177.374 447.662C157.47 439.173 138.82 430.765 120.36 420.029C120.36 425.5 120.36 430.972 120.36 436.609C116.179 436.609 111.998 436.609 107.69 436.609C107.69 440.256 107.69 443.904 107.69 447.662C111.871 447.662 116.052 447.662 120.36 447.662C119.184 451.082 118.008 454.501 116.797 458.025C112.525 469.999 112.525 469.999 120.36 480.822C111.998 478.999 103.636 477.175 95.0208 475.296C93.2108 427.924 93.2108 427.924 107.69 408.975C111.871 408.975 116.052 408.975 120.36 408.975C126.632 405.328 132.903 401.68 139.365 397.922Z" fill="#83B7DA"/>
<path d="M266.062 248.7C278.732 254.227 278.732 254.227 291.402 265.28C297.261 298.79 289.19 317.42 268.512 345.59C264.164 349.608 264.164 349.608 259.727 353.708C253.456 353.708 247.184 353.708 240.723 353.708C241.768 349.604 242.813 345.5 243.89 341.272C247.813 325.024 247.813 325.024 247.058 303.967C242.877 316.734 238.696 329.501 234.388 342.654C232.298 342.654 230.207 342.654 228.053 342.654C228.053 331.711 228.053 320.768 228.053 309.494C208.271 347.893 208.271 347.893 190.044 386.868C172.631 371.676 164.894 363.441 163.913 341.618C164.174 336.488 164.436 331.359 164.705 326.074C170.976 326.074 177.248 326.074 183.709 326.074C181.619 331.545 179.528 337.017 177.375 342.654C185.737 344.478 194.099 346.302 202.714 348.181C200.623 335.414 198.533 322.647 196.379 309.494C202.651 307.67 208.922 305.846 215.384 303.967C213.293 294.848 211.203 285.729 209.049 276.334C217.411 276.334 225.773 276.334 234.388 276.334C236.479 279.981 238.569 283.629 240.723 287.387C249.085 274.62 257.447 261.854 266.062 248.7Z" fill="#4C84B5"/>
<path d="M259.729 11.0537C263.91 11.0537 268.091 11.0537 272.399 11.0537C283.816 32.2204 286.312 48.5315 285.069 71.8474C280.888 71.8474 276.707 71.8474 272.399 71.8474C269.394 67.4019 266.389 62.9563 263.293 58.3761C254.662 42.6012 254.662 42.6012 234.39 38.6872C222.685 69.5221 222.685 69.5221 228.055 99.4809C231.833 133.103 223.17 149.529 202.716 176.855C210.947 177.653 219.178 178.451 227.659 179.273C252.603 181.691 252.603 181.691 259.729 187.908C260.252 193.722 260.774 199.535 261.313 205.524C267.223 231.733 276.984 240.72 297.738 259.755C278.734 259.755 278.734 259.755 268.563 252.458C241.251 225.276 241.251 225.276 238.349 202.07C239.133 197.397 239.917 192.723 240.725 187.908C233.8 187.11 226.875 186.312 219.741 185.49C196.381 182.381 196.381 182.381 177.376 176.855C177.376 173.207 177.376 169.559 177.376 165.801C183.452 162.724 183.452 162.724 189.65 159.584C210.024 143.425 207.762 128.61 209.051 105.008C206.96 101.36 204.87 97.7124 202.716 93.9542C198.535 97.6018 194.354 101.249 190.046 105.008C183.711 88.4275 183.711 88.4275 191.63 74.6108C200.98 62.9578 210.03 53.9695 221.72 44.2139C225.901 38.7425 230.082 33.271 234.39 27.6338C242.752 27.6338 251.114 27.6338 259.729 27.6338C259.729 22.1624 259.729 16.6909 259.729 11.0537Z" fill="#D5DFE1"/>
<path d="M190.044 66.3223C192.134 66.3223 194.225 66.3223 196.378 66.3223C200.928 91.4625 194.122 103.659 178.166 123.662C145.766 168.004 139.76 225.232 151.243 276.337C153.45 283.746 155.752 291.137 158.369 298.444C153.404 299.99 148.44 301.536 143.324 303.128C117.361 321.701 118.261 344.678 114.026 372.709C105.816 426.829 105.816 426.829 86.0385 445.7C66.5598 454.621 53.3764 454.953 31.6728 453.191C31.3625 456.654 31.0522 460.116 30.7325 463.683C30.2589 468.2 29.7852 472.717 29.2973 477.371C28.8563 481.859 28.4153 486.347 27.961 490.971C25.338 502.932 25.338 502.932 12.6683 513.985C10.5778 512.161 8.48734 510.337 6.3335 508.458C6.65519 497.815 6.65519 497.815 8.31313 484.624C8.81126 480.314 9.30938 476.004 9.8226 471.563C13.0247 457.109 15.0481 448.405 25.338 436.611C48.3017 429.703 48.3017 429.703 69.6818 425.558C70.5086 422.129 71.3354 418.7 72.1873 415.167C75.9993 399.611 79.9651 384.089 83.9352 368.564C85.2336 363.167 86.5319 357.77 87.8697 352.21C89.2171 347.027 90.5645 341.844 91.9527 336.504C93.147 331.729 94.3412 326.954 95.5717 322.033C102.592 306.819 110.98 301.505 126.695 292.917C125.675 289.911 124.654 286.904 123.602 283.807C112.128 237.804 114.712 177.477 141.666 135.903C148.193 127.438 154.887 119.07 161.76 110.817C173.39 96.6114 181.677 82.1377 190.044 66.3223Z" fill="#ACC1CE"/>
<path d="M291.404 265.283C295.584 265.283 299.765 265.283 304.073 265.283C304.073 278.05 304.073 290.817 304.073 303.97C310.933 301.063 310.933 301.063 317.931 298.098C337.726 292.341 347.667 293.519 367.421 298.443C367.421 302.091 367.421 305.739 367.421 309.497C371.864 308.649 376.306 307.801 380.883 306.928C429.388 299.971 429.388 299.971 453.016 312.217C465.423 321.895 476.861 331.708 487.783 342.657C485.693 346.305 483.602 349.952 481.448 353.71C476.353 349.037 471.257 344.363 466.007 339.548C427.796 315.097 373.533 326.7 329.412 331.604C320.94 333.354 312.485 335.172 304.073 337.13C304.073 333.483 304.073 329.835 304.073 326.077C312.435 322.429 320.797 318.782 329.412 315.024C300.465 325.929 284.216 336.701 266.064 359.237C261.883 357.413 257.702 355.589 253.395 353.71C256.714 349.692 256.714 349.692 260.101 345.593C281.417 318.197 289.373 298.345 291.404 265.283Z" fill="#DEE4E1"/>
<path d="M196.381 82.9004C200.562 82.9004 204.743 82.9004 209.051 82.9004C218.157 126.837 218.157 126.837 207.467 149.221C196.381 160.274 196.381 160.274 177.376 165.801C177.376 169.449 177.376 173.096 177.376 176.854C198.281 180.502 219.186 184.15 240.725 187.908C242.554 193.949 244.383 199.99 246.268 206.215C252.247 226.816 252.247 226.816 266.064 243.175C263.872 255.798 259.938 264.917 253.394 276.335C229.591 268.296 229.591 268.296 223.304 255.955C221.171 238.745 221.339 221.78 221.72 204.488C217.539 204.488 213.358 204.488 209.051 204.488C206.96 200.84 204.87 197.193 202.716 193.434C190.173 195.258 177.63 197.082 164.707 198.961C162.616 219.023 160.526 239.085 158.372 259.755C139.367 243.175 139.367 243.175 138.947 224.155C139.857 216.548 140.93 208.954 142.139 201.379C142.726 197.431 143.314 193.483 143.919 189.415C149.383 158.74 160.946 135.626 181.558 110.081C191.177 99.1371 191.177 99.1371 196.381 82.9004Z" fill="#4F8BC6"/>
<path d="M259.729 0C280.1 17.7717 284.885 28.3433 285.86 53.8853C285.599 59.8127 285.338 65.7401 285.069 71.8471C280.888 71.8471 276.707 71.8471 272.399 71.8471C266.064 62.6359 259.729 53.4248 253.394 44.2136C239.9 42.9485 239.9 42.9485 230.431 52.6979C215.141 76.6093 221.452 102.513 222.908 129.165C221.652 150.377 217.002 160.008 202.716 176.854C210.947 177.652 219.178 178.45 227.659 179.272C252.603 181.69 252.603 181.69 259.729 187.908C260.121 193.607 260.513 199.307 260.917 205.179C266.114 226.803 268.603 230.679 285.069 245.593C307.441 266.138 309.285 281.582 310.408 309.495C306.227 309.495 302.046 309.495 297.738 309.495C296.807 306.353 295.876 303.212 294.917 299.975C286.785 275.55 278.779 257.991 258.541 239.375C243.144 225.179 240.92 222.629 238.349 202.07C239.133 197.396 239.917 192.723 240.725 187.908C233.8 187.11 226.875 186.312 219.741 185.49C196.381 182.381 196.381 182.381 177.376 176.854C177.376 173.207 177.376 169.559 177.376 165.801C183.452 162.723 183.452 162.723 189.65 159.583C206.913 145.892 206.646 135.903 208.556 116.255C209.045 105.144 209.051 94.0196 209.051 82.9005C204.87 82.9005 200.689 82.9005 196.381 82.9005C198.471 73.7814 200.562 64.6624 202.716 55.267C206.897 55.267 211.078 55.267 215.385 55.267C219.566 46.1479 223.747 37.0289 228.055 27.6335C238.508 27.6335 248.96 27.6335 259.729 27.6335C259.729 18.5144 259.729 9.39539 259.729 0Z" fill="#CBD6DC"/>
<path d="M183.708 93.9541C185.798 99.4255 187.889 104.897 190.043 110.534C182.791 117.715 182.791 117.715 175.393 125.042C144.268 160.616 142.843 218.202 147.802 261.569C150.664 274.144 153.9 286.236 158.368 298.442C150.762 300.066 150.762 300.066 143.002 301.723C137.62 304.288 132.239 306.853 126.694 309.495C120.544 326.209 120.544 326.209 119.172 345.419C115.139 380.37 115.139 380.37 101.355 392.396C101.355 370.51 101.355 348.624 101.355 326.076C105.536 326.076 109.717 326.076 114.025 326.076C114.678 322.656 115.331 319.236 116.004 315.713C120.359 303.969 120.359 303.969 139.364 292.915C138.376 288.32 137.388 283.725 136.37 278.991C135.137 272.985 133.904 266.979 132.633 260.791C131.384 254.828 130.134 248.865 128.847 242.722C126.694 226.595 126.694 226.595 133.029 210.015C133.349 200.69 133.606 191.363 133.821 182.036C137.046 145.013 157.11 121.884 183.708 93.9541Z" fill="#DBE5E4"/>
<path d="M209.05 193.436C209.05 197.084 209.05 200.731 209.05 204.489C213.231 206.313 217.412 208.137 221.72 210.016C213.358 211.84 204.996 213.664 196.381 215.543C200.562 219.19 204.742 222.838 209.05 226.596C206.675 238.34 206.675 238.34 202.715 248.703C200.625 243.232 198.534 237.76 196.381 232.123C193.506 234.859 190.632 237.594 187.67 240.413C177.376 248.703 177.376 248.703 164.706 248.703C162.616 252.351 160.525 255.998 158.372 259.756C157.856 251.817 157.489 243.87 157.184 235.923C156.963 231.498 156.743 227.074 156.516 222.516C158.795 207.163 163.645 202.863 177.376 193.436C190.046 187.909 190.046 187.909 209.05 193.436Z" fill="#6FA0C8"/>
<path d="M209.05 193.436C209.05 197.084 209.05 200.731 209.05 204.489C213.231 206.313 217.412 208.137 221.72 210.016C213.358 211.84 204.996 213.664 196.381 215.543C200.562 219.19 204.742 222.838 209.05 226.596C206.675 238.34 206.675 238.34 202.715 248.703C200.625 243.232 198.534 237.76 196.381 232.123C193.506 234.859 190.632 237.594 187.67 240.413C177.376 248.703 177.376 248.703 164.706 248.703C162.616 252.351 160.525 255.998 158.372 259.756C157.856 251.817 157.489 243.87 157.184 235.923C156.963 231.498 156.743 227.074 156.516 222.516C158.795 207.163 163.645 202.863 177.376 193.436C190.046 187.909 190.046 187.909 209.05 193.436Z" fill="#6FA0C8"/>
<path d="M253.392 287.39C259.133 301.188 260.432 307.732 254.802 321.802C252.377 326.176 249.952 330.551 247.453 335.057C234.601 360.851 232.409 380.94 234.734 408.804C234.387 420.03 234.387 420.03 221.718 431.084C200.213 418.576 196.689 413.654 190.043 392.397C191.746 359.726 207.645 321.774 234.387 298.443C234.387 307.562 234.387 316.681 234.387 326.077C240.659 313.31 246.93 300.543 253.392 287.39Z" fill="#8FB4C9"/>
<path d="M247.06 348.183C247.06 353.654 247.06 359.125 247.06 364.763C248.554 373.514 250.051 382.265 251.564 391.015C255.414 417.162 257.405 443.492 259.73 469.77C243.006 469.77 226.282 469.77 209.051 469.77C208.528 474.672 208.006 479.573 207.467 484.623C201.976 505.782 194.868 515.303 177.377 530.564C166.938 534.498 156.387 538.222 145.703 541.617C148.373 538.283 151.043 534.949 153.794 531.514C157.265 527.097 160.735 522.68 164.311 518.129C167.765 513.769 171.22 509.409 174.779 504.916C183.054 492.836 187.195 483.502 190.046 469.77C194.227 469.77 198.408 469.77 202.716 469.77C202.716 464.299 202.716 458.827 202.716 453.19C217.35 455.014 231.983 456.838 247.06 458.717C245.076 454.855 243.091 450.994 241.047 447.016C233.958 430.048 231.178 415.188 229.243 397.232C228.549 391.518 227.855 385.805 227.14 379.918C228.055 364.763 228.055 364.763 237.483 354.443C240.644 352.377 243.804 350.311 247.06 348.183Z" fill="#2365AF"/>
<path d="M209.049 469.769C211.139 469.769 213.23 469.769 215.383 469.769C215.767 472.91 216.151 476.052 216.546 479.289C219.829 505.68 223.571 531.94 228.053 558.196C205.123 565.47 189.438 569.249 164.705 569.249C164.705 585.663 164.705 602.078 164.705 618.989C152.162 618.989 139.619 618.989 126.696 618.989C132.967 617.166 139.239 615.342 145.7 613.463C144.524 608.561 143.348 603.66 142.137 598.61C139.489 581.122 140.583 569.534 145.7 552.669C151.972 552.669 158.243 552.669 164.705 552.669C164.705 545.374 164.705 538.079 164.705 530.562C175.263 521.351 185.821 512.14 196.379 502.929C204.84 485.426 204.84 485.426 209.049 469.769Z" fill="#2A71BA"/>
<path d="M266.064 248.7C278.733 254.227 278.733 254.227 291.403 265.28C297.431 295.781 292.329 311.033 272.795 336.782C256.047 356.92 256.047 356.92 247.059 364.761C248.359 373.642 249.715 382.518 251.34 391.358C255.137 413.707 257.291 436.227 259.729 458.715C255.548 458.715 251.367 458.715 247.059 458.715C229.518 423.997 221.126 385.817 233.326 348.742C237.797 339.34 242.542 330.032 247.628 320.871C254.675 309.04 254.675 309.04 253.394 292.914C247.123 309.328 240.851 325.742 234.39 342.654C232.299 342.654 230.209 342.654 228.055 342.654C228.055 331.711 228.055 320.768 228.055 309.494C221.783 312.23 221.783 312.23 215.385 315.021C213.295 302.254 211.204 289.487 209.05 276.334C217.412 276.334 225.774 276.334 234.39 276.334C236.48 279.981 238.571 283.629 240.724 287.387C249.086 274.62 257.448 261.854 266.064 248.7Z" fill="#3C78B4"/>
</g>
</svg>
