<svg width="742" height="1028" viewBox="0 0 742 1028" fill="none" xmlns="http://www.w3.org/2000/svg">
<path d="M197.084 552.67C199.175 552.67 201.265 552.67 203.419 552.67C203.419 572.732 203.419 592.794 203.419 613.464C190.876 609.816 178.333 606.168 165.41 602.41C171.682 610.617 171.682 610.617 178.08 618.99C182.261 618.99 186.442 618.99 190.75 618.99C192.048 622.852 193.346 626.713 194.684 630.691C196.391 635.721 198.097 640.751 199.856 645.933C201.546 650.934 203.237 655.935 204.978 661.088C209.286 674.162 209.286 674.162 216.089 685.311C207.727 681.663 199.365 678.015 190.75 674.257C190.75 666.962 190.75 659.667 190.75 652.151C186.569 652.151 182.388 652.151 178.08 652.151C187.536 681.978 198.332 711.281 209.754 740.578C203.483 740.578 197.211 740.578 190.75 740.578C192.84 744.225 194.931 747.873 197.084 751.631C197.084 758.926 197.084 766.222 197.084 773.738C192.903 773.738 188.722 773.738 184.415 773.738C184.415 770.09 184.415 766.443 184.415 762.685C178.143 762.685 171.872 762.685 165.41 762.685C158.284 736.433 158.284 736.433 165.41 723.998C159.139 723.998 152.867 723.998 146.406 723.998C146.406 714.879 146.406 705.76 146.406 696.364C150.587 696.364 154.768 696.364 159.075 696.364C156.985 690.893 154.894 685.421 152.741 679.784C146.469 677.96 140.198 676.136 133.736 674.257C133.736 685.2 133.736 696.143 133.736 707.418C129.555 705.594 125.374 703.77 121.066 701.891C121.789 689.337 122.597 676.788 123.442 664.24C123.883 657.251 124.324 650.262 124.778 643.062C127.401 624.517 127.401 624.517 140.071 607.937C144.252 607.937 148.433 607.937 152.741 607.937C150.65 596.994 148.56 586.051 146.406 574.777C161.039 574.777 175.673 574.777 190.75 574.777C192.84 567.481 194.931 560.186 197.084 552.67Z" fill="#C2C9BE"/>
<path d="M133.733 674.258C142.095 676.082 150.457 677.905 159.072 679.785C159.072 685.256 159.072 690.727 159.072 696.365C154.891 696.365 150.71 696.365 146.403 696.365C148.493 701.836 150.584 707.307 152.737 712.945C150.647 716.592 148.556 720.24 146.403 723.998C152.674 723.998 158.945 723.998 165.407 723.998C163.317 727.646 161.226 731.293 159.072 735.052C154.891 733.228 150.71 731.404 146.403 729.525C150.584 740.468 154.765 751.411 159.072 762.685C148.62 759.037 138.167 755.39 127.398 751.632C142.571 767.655 154.717 770.984 178.077 773.738C178.077 777.386 178.077 781.034 178.077 784.792C165.534 784.792 152.991 784.792 140.068 784.792C138.239 788.211 136.409 791.631 134.525 795.154C127.398 806.899 127.398 806.899 114.728 817.952C101.688 817.196 101.688 817.196 86.6176 814.152C81.6608 813.219 76.7041 812.286 71.5971 811.324C56.2094 806.419 48.7935 801.491 38.7104 790.319C38.7104 786.671 38.7104 783.023 38.7104 779.265C34.5294 779.265 30.3484 779.265 26.0408 779.265C23.9503 782.913 21.8598 786.56 19.7059 790.319C17.6154 775.728 15.5249 761.138 13.3711 746.105C26.5193 743.046 37.72 740.578 51.3801 740.578C55.5611 738.754 59.7421 736.931 64.0497 735.052C64.0497 725.932 64.0497 716.813 64.0497 707.418C68.2307 705.594 72.4117 703.77 76.7194 701.891C83.8461 733.67 83.8461 733.67 76.7194 746.105C72.5384 746.105 68.3574 746.105 64.0497 746.105C74.4055 763.374 74.4055 763.374 90.1809 766.485C94.1006 767.055 98.0203 767.625 102.059 768.212C102.059 764.564 102.059 760.916 102.059 757.158C93.6967 755.335 85.3348 753.511 76.7194 751.632C80.9004 751.632 85.0814 751.632 89.3891 751.632C89.3891 747.984 89.3891 744.336 89.3891 740.578C114.728 740.578 114.728 740.578 140.068 746.105C136.932 710.541 136.932 710.541 133.733 674.258Z" fill="#9BADB9"/>
<path d="M108.394 71.8467C116.62 86.2009 118.05 100.285 121.063 116.06C123.154 119.708 125.244 123.356 127.398 127.114C127.844 137.47 127.932 147.839 127.794 158.201C127.737 163.744 127.68 169.287 127.621 174.997C127.547 179.258 127.474 183.518 127.398 187.907C110.238 195.393 95.6648 193.793 76.7194 193.434C78.1648 197.103 79.6102 200.772 81.0993 204.552C82.9203 209.432 84.7414 214.312 86.6176 219.34C88.4549 224.149 90.2923 228.958 92.1853 233.913C96.0496 250.062 94.3114 260.55 89.3891 276.335C70.5746 281.806 51.7602 287.277 32.3756 292.915C35.2168 302.945 38.1346 312.96 41.086 322.966C42.7028 328.544 44.3197 334.123 45.9856 339.87C49.6427 354.569 49.6427 354.569 64.0497 359.235C63.9191 353.878 63.7884 348.52 63.6538 343C64.0497 326.075 64.0497 326.075 70.3846 320.548C80.9395 320.324 91.5041 320.312 102.059 320.548C101.679 329.535 101.116 338.516 100.475 347.491C100.034 354.993 100.034 354.993 99.5842 362.646C95.7239 375.815 95.7239 375.815 82.7573 383.112C78.6743 384.352 74.5913 385.591 70.3846 386.869C70.3846 383.221 70.3846 379.573 70.3846 375.815C66.2036 375.815 62.0226 375.815 57.7149 375.815C51.259 397.32 50.3169 406.798 60.4864 427.628C63.7528 432.416 67.0192 437.203 70.3846 442.136C66.2036 442.136 62.0226 442.136 57.7149 442.136C42.4579 427.304 32.4955 416.124 32.1529 395.698C33.7794 383.394 35.8673 371.368 38.7104 359.235C30.3484 357.411 21.9865 355.587 13.3711 353.708C21.7331 353.708 30.095 353.708 38.7104 353.708C35.5747 348.009 32.4389 342.31 29.2082 336.437C19.8659 317.649 17.9771 302.475 19.7059 281.861C40.6109 278.214 61.5158 274.566 83.0542 270.808C80.9637 265.45 78.8732 260.093 76.7194 254.573C68.6822 230.476 69.2199 207.275 70.3846 182.381C85.018 182.381 99.6515 182.381 114.728 182.381C113.887 177.978 113.046 173.575 112.18 169.039C108.806 151.379 105.432 133.72 102.059 116.06C100.613 110.09 99.168 104.12 97.6788 97.969C97.0337 92.9962 96.3885 88.0235 95.7239 82.9001C99.9049 79.2525 104.086 75.6048 108.394 71.8467Z" fill="#DBDED2"/>
<path d="M203.416 552.67C209.687 552.67 215.959 552.67 222.42 552.67C222.42 559.965 222.42 567.26 222.42 574.777C227.385 574.549 232.35 574.321 237.465 574.086C254.094 574.777 254.094 574.777 266.764 585.83C273.035 594.037 273.035 594.037 279.434 602.41C272.24 614.963 264.967 627.391 257.262 639.715C246.326 660.388 240.789 679.707 235.09 701.891C233.391 698.357 231.693 694.824 229.943 691.183C223.138 677.953 223.138 677.953 203.416 674.257C199.235 656.019 195.054 637.781 190.746 618.99C184.475 620.814 178.203 622.638 171.742 624.517C169.651 617.222 167.561 609.927 165.407 602.41C179.145 605.207 190.744 607.936 203.416 613.464C203.416 593.402 203.416 573.34 203.416 552.67Z" fill="#9EB1B8"/>
<path d="M260.429 458.715C269.212 474.04 266.66 486.188 265.972 503.274C265.606 532.236 269.626 554.185 281.463 581.036C287.064 594.461 288.62 604.895 285.769 618.989C277.058 627.279 277.058 627.279 266.764 635.569C250.081 660.848 250.341 690.058 254.095 718.47C258.276 723.941 262.457 729.413 266.764 735.05C270.313 743.494 273.6 752.023 276.662 760.611C281.58 776.896 281.58 776.896 292.104 790.317C292.362 801.368 292.373 812.426 292.104 823.477C281.381 818.979 270.658 814.482 259.935 809.984C244.889 806.169 237.393 808.848 222.42 812.424C211.195 812.124 199.975 811.651 188.767 811.042C162.328 810.554 149.992 811.864 130.565 827.622C120.346 835.264 120.346 835.264 108.394 840.057C73.4094 835.778 46.2983 824.724 21.6856 802.752C18.9418 798.648 16.198 794.545 13.3711 790.317C26.4806 796.022 39.5572 801.756 52.5431 807.674C81.9228 820.952 81.9228 820.952 113.937 820.368C127.506 813.156 127.506 813.156 135.91 803.486C146.403 795.844 146.403 795.844 160.111 795.822C165.256 796.627 170.401 797.432 175.701 798.261C208.633 802.233 235.084 798.395 266.764 790.317C264.935 786.762 263.106 783.207 261.221 779.544C239.448 733.308 228.947 685.881 250.135 637.987C253.532 633.542 256.929 629.096 260.429 624.516C268.328 614.101 268.328 614.101 273.099 602.409C268.386 591.194 263.651 579.986 258.796 568.817C252.612 547.577 252.35 527.52 252.511 505.692C252.532 501.718 252.554 497.745 252.576 493.651C253.164 465.053 253.164 465.053 260.429 458.715Z" fill="#E9E8DC"/>
<path d="M140.069 105.007C140.617 109.873 141.164 114.739 141.727 119.752C145.473 161.117 145.473 161.117 169.368 195.162C174.333 198.239 179.298 201.317 184.413 204.488C169.78 202.664 155.146 200.84 140.069 198.961C139.125 210.427 139.125 210.427 146.404 221.068C129.68 219.244 112.956 217.42 95.7256 215.541C99.2656 219.848 99.2656 219.848 102.877 224.242C127.498 255.905 127.498 255.905 127.004 275.299C121.065 287.388 121.065 287.388 108.395 303.969C91.7755 309.413 75.1676 311.83 57.7167 315.022C55.737 302.241 55.737 302.241 57.7167 287.388C73.5537 277.371 73.5537 277.371 89.3908 270.808C85.8049 244.887 81.8817 219.161 76.7211 193.435C93.4451 191.611 110.169 189.787 127.4 187.908C126.504 178.119 125.574 168.333 124.628 158.547C124.114 153.097 123.599 147.647 123.069 142.032C121.584 126.596 121.584 126.596 114.73 110.534C127.4 105.007 127.4 105.007 140.069 105.007Z" fill="#C4C5AF"/>
<path d="M45.0449 386.868C72.8457 396.397 88.8494 413.561 102.058 436.608C106.239 434.785 110.42 432.961 114.728 431.082C114.728 438.377 114.728 445.672 114.728 453.189C118.909 453.189 123.09 453.189 127.398 453.189C127.398 444.07 127.398 434.95 127.398 425.555C129.488 429.203 131.579 432.85 133.733 436.608C142.095 434.785 150.456 432.961 159.072 431.082C159.072 434.729 159.072 438.377 159.072 442.135C154.891 442.135 150.71 442.135 146.402 442.135C147.958 447.724 147.958 447.724 149.545 453.426C153.292 472.608 153.341 490.733 153.133 510.183C153.076 517.115 153.019 524.046 152.96 531.188C152.886 536.453 152.813 541.718 152.737 547.142C148.556 547.142 144.375 547.142 140.067 547.142C139.447 543.808 138.826 540.474 138.187 537.039C132.406 510.082 128.184 492.77 102.058 475.295C102.189 482.021 102.32 488.746 102.454 495.675C102.491 513.539 100.713 529.73 95.7236 547.142C93.6331 547.142 91.5426 547.142 89.3887 547.142C89.3724 540.873 89.3561 534.604 89.3392 528.144C89.3552 467.343 89.3552 467.343 53.1367 417.502C45.0449 408.975 45.0449 408.975 45.0449 386.868Z" fill="#9AA3A3"/>
<path d="M241.427 403.449C258.458 448.026 254.769 495.213 254.096 541.616C249.915 537.969 245.734 534.321 241.427 530.563C238.552 533.299 235.678 536.034 232.716 538.853C222.422 547.143 222.422 547.143 209.753 547.143C209.753 543.495 209.753 539.848 209.753 536.09C213.934 536.09 218.114 536.09 222.422 536.09C222.422 532.442 222.422 528.794 222.422 525.036C226.603 525.036 230.784 525.036 235.092 525.036C235.092 521.389 235.092 517.741 235.092 513.983C239.273 513.983 243.454 513.983 247.762 513.983C244.626 500.304 244.626 500.304 241.427 486.349C233.065 491.821 224.703 497.292 216.087 502.929C218.178 484.691 220.268 466.453 222.422 447.662C218.241 456.781 214.06 465.9 209.753 475.296C203.481 468.001 197.21 460.705 190.748 453.189C184.477 455.013 178.205 456.837 171.744 458.716C171.744 453.244 171.744 447.773 171.744 442.136C167.563 449.431 163.382 456.726 159.074 464.242C154.893 456.947 150.712 449.652 146.404 442.136C150.585 442.136 154.766 442.136 159.074 442.136C159.074 438.488 159.074 434.84 159.074 431.082C146.5 432.557 146.5 432.557 133.735 436.609C131.644 442.08 129.554 447.552 127.4 453.189C123.219 453.189 119.038 453.189 114.73 453.189C104.436 442.136 104.436 442.136 95.7256 431.082C107.709 420.173 117.271 414.921 134.551 413.013C160.789 412.598 180.861 412.652 203.418 425.556C205.508 431.027 207.599 436.498 209.753 442.136C220.205 429.369 230.657 416.602 241.427 403.449Z" fill="#BFC8C0"/>
<path d="M266.765 303.968C278.808 434.179 278.808 434.179 260.43 464.243C256.249 464.243 252.068 464.243 247.761 464.243C245.67 447.828 243.58 431.414 241.426 414.502C230.973 425.445 220.521 436.388 209.752 447.662C205.571 440.367 201.39 433.072 197.082 425.556C190.81 425.556 184.539 425.556 178.077 425.556C178.077 421.908 178.077 418.26 178.077 414.502C167.625 414.502 157.173 414.502 146.403 414.502C148.494 410.855 150.584 407.207 152.738 403.449C170.284 399.421 185.227 397.922 203.417 397.922C205.507 394.275 207.598 390.627 209.752 386.869C213.933 386.869 218.114 386.869 222.421 386.869C222.421 392.34 222.421 397.812 222.421 403.449C228.693 401.625 234.964 399.801 241.426 397.922C241.034 391.197 240.642 384.472 240.238 377.542C240.107 356.044 245.399 343.56 260.43 326.075C249.978 329.723 239.525 333.37 228.756 337.128C230.736 326.766 230.736 326.766 235.091 315.022C254.095 303.968 254.095 303.968 266.765 303.968Z" fill="#969F9B"/>
<path d="M95.7256 215.541C133.354 215.541 170.983 215.541 209.753 215.541C204.098 250.075 200.069 273.729 171.744 298.442C178.015 300.265 184.287 302.089 190.748 303.968C190.748 313.087 190.748 322.206 190.748 331.602C182.386 327.954 174.024 324.306 165.409 320.548C165.409 315.077 165.409 309.605 165.409 303.968C161.228 303.968 157.047 303.968 152.739 303.968C150.649 298.497 148.558 293.025 146.404 287.388C156.857 281.917 167.309 276.445 178.078 270.808C173.505 272.29 168.932 273.772 164.221 275.298C146.404 276.335 146.404 276.335 129.775 264.245C95.7256 229.067 95.7256 229.067 95.7256 215.541Z" fill="#DDD6AA"/>
<path d="M121.065 547.143C127.336 548.967 133.608 550.791 140.069 552.67C149.709 572.587 152.739 586.118 152.739 607.937C148.558 607.937 144.377 607.937 140.069 607.937C124.263 661.111 124.263 661.111 133.735 712.944C127.796 724.688 127.796 724.688 121.065 735.051C116.884 729.579 112.703 724.108 108.395 718.471C104.214 722.118 100.033 725.766 95.7256 729.524C94.5451 706.865 96.9684 694.196 108.395 674.257C109.455 656.754 109.455 656.754 108.395 641.097C102.124 648.392 95.8523 655.687 89.3908 663.204C77.513 661.822 77.513 661.822 64.0515 657.677C53.1492 643.41 51.3818 636.404 51.3818 618.99C55.5628 618.99 59.7438 618.99 64.0515 618.99C64.0515 622.638 64.0515 626.285 64.0515 630.044C76.5945 630.044 89.1374 630.044 102.06 630.044C104.151 619.101 106.241 608.158 108.395 596.883C112.576 596.883 116.757 596.883 121.065 596.883C123.155 593.236 125.246 589.588 127.4 585.83C123.219 585.83 119.038 585.83 114.73 585.83C114.461 574.779 114.472 563.721 114.73 552.67C116.821 550.846 118.911 549.022 121.065 547.143Z" fill="#99AFBC"/>
<path d="M298.439 38.687C340.171 56.237 340.171 56.237 349.118 71.8472C363.751 71.8472 378.385 71.8472 393.461 71.8472C395.552 68.1996 397.642 64.552 399.796 60.7938C397.706 68.0891 395.615 75.3843 393.461 82.9006C397.642 84.7244 401.823 86.5483 406.131 88.4273C404.041 93.8988 401.95 99.3702 399.796 105.007C418.611 107.743 418.611 107.743 437.805 110.534C437.805 112.358 437.805 114.182 437.805 116.061C403.946 118.482 403.946 118.482 387.127 116.061C376.041 102.935 376.041 102.935 368.122 88.4273C355.028 81.0882 355.028 81.0882 342.783 77.3739C342.783 81.0216 342.783 84.6692 342.783 88.4273C349.054 88.4273 355.326 88.4273 361.787 88.4273C359.697 95.7226 357.606 103.018 355.452 110.534C363.814 112.358 372.176 114.182 380.792 116.061C380.792 119.708 380.792 123.356 380.792 127.114C366.538 128.496 366.538 128.496 349.118 127.114C334.468 116.061 334.468 116.061 323.778 105.007C323.778 108.655 323.778 112.303 323.778 116.061C319.597 116.061 315.416 116.061 311.109 116.061C309.836 95.5237 310.146 89.687 323.778 71.8472C315.416 71.8472 307.054 71.8472 298.439 71.8472C281.81 70.811 281.81 70.811 266.765 66.3205C258.45 52.1584 258.45 52.1584 254.095 38.687C271.815 30.9574 279.423 33.8942 298.439 38.687Z" fill="#D7D5B6"/>
<path d="M342.783 77.373C357.417 81.0207 372.05 84.6683 387.127 88.4264C380.856 91.1622 380.856 91.1622 374.457 93.9531C380.729 102.16 380.729 102.16 387.127 110.533C391.308 110.533 395.489 110.533 399.797 110.533C397.706 106.886 395.616 103.238 393.462 99.4798C410.622 91.9945 425.195 93.5938 444.14 93.9531C446.231 101.248 448.321 108.544 450.475 116.06C455.832 116.074 461.189 116.088 466.708 116.103C511.497 117.435 538.078 120.702 571.753 146.824C590.991 159.792 610.539 162.116 634.185 165.8C627.914 168.536 627.914 168.536 621.516 171.327C619.425 174.975 617.335 178.622 615.181 182.38C611 182.38 606.819 182.38 602.511 182.38C593.813 189.523 585.342 196.884 577.172 204.487C581.353 193.544 585.534 182.601 589.842 171.327C586.314 169.959 582.786 168.591 579.152 167.182C564.502 160.274 564.502 160.274 550.645 148.184C527.653 135.257 515.995 138.249 489.92 142.053C471.618 144.182 455.691 141.768 437.806 138.167C437.806 134.519 437.806 130.872 437.806 127.113C418.991 127.113 400.177 127.113 380.792 127.113C380.792 123.466 380.792 119.818 380.792 116.06C372.43 114.236 364.068 112.412 355.453 110.533C357.543 103.238 359.634 95.9428 361.788 88.4264C355.516 88.4264 349.245 88.4264 342.783 88.4264C342.783 84.7788 342.783 81.1312 342.783 77.373Z" fill="#B6B6A0"/>
<path d="M203.418 27.6329C188.785 31.2805 174.152 34.9281 159.075 38.6863C159.075 42.3339 159.075 45.9815 159.075 49.7397C164.023 47.1108 164.023 47.1108 169.072 44.4289C188.684 37.0879 205.915 36.3449 227.174 35.2321C234.589 34.8189 242.003 34.4057 249.643 33.9799C255.294 33.7092 260.945 33.4385 266.767 33.1596C266.767 38.631 266.767 44.1024 266.767 49.7397C270.99 61.7142 270.99 61.7142 279.436 71.8465C292.423 76.2971 292.423 76.2971 304.776 77.3732C304.776 88.316 304.776 99.2589 304.776 110.533C298.504 106.886 292.233 103.238 285.771 99.48C285.771 94.0085 285.771 88.5371 285.771 82.8999C281.59 82.8999 277.409 82.8999 273.102 82.8999C275.192 88.3713 277.283 93.8427 279.436 99.48C275.255 99.48 271.074 99.48 266.767 99.48C266.244 95.1484 265.721 90.8169 265.183 86.3541C262.155 71.0313 262.155 71.0313 247.366 64.5927C243.316 63.3388 239.266 62.0849 235.093 60.7931C241.364 58.9693 247.636 57.1455 254.097 55.2664C221.402 46.4898 200.813 52.5162 171.15 64.9381C155.036 74.157 152.092 83.7684 146.405 99.48C129.776 106.734 129.776 106.734 114.731 110.533C110.326 98.3358 110.326 98.3358 108.396 82.8999C116.364 69.7092 116.364 69.7092 128.192 56.9935C133.9 50.6351 133.9 50.6351 139.724 44.1482C160.516 26.595 175.469 19.5049 203.418 27.6329Z" fill="#B7B8A3"/>
<path d="M659.525 187.907C672.1 193.02 684.629 198.217 697.138 203.451C704.12 206.336 711.102 209.222 718.296 212.194C735.543 221.067 735.543 221.067 741.878 237.648C735.939 249.737 735.939 249.737 729.208 259.754C676.925 250.779 630.778 237.192 583.507 215.541C587.688 210.069 591.869 204.598 596.177 198.961C600.358 200.784 604.539 202.608 608.847 204.487C606.756 208.135 604.666 211.783 602.512 215.541C610.874 215.541 619.236 215.541 627.851 215.541C629.942 210.069 632.032 204.598 634.186 198.961C653.19 204.487 653.19 204.487 659.525 210.014C659.525 202.719 659.525 195.424 659.525 187.907Z" fill="#A0AAAA"/>
<path d="M178.077 652.15C182.258 652.15 186.439 652.15 190.747 652.15C194.928 661.269 199.109 670.389 203.416 679.784C209.688 679.784 215.959 679.784 222.421 679.784C226.602 683.432 230.783 687.079 235.09 690.837C237.181 690.837 239.271 690.837 241.425 690.837C243.124 697.905 244.822 704.972 246.572 712.253C253.748 740.581 263.166 768.172 273.099 795.845C252.115 797.226 252.115 797.226 228.756 795.845C216.482 785.482 216.482 785.482 209.751 773.738C209.751 770.09 209.751 766.443 209.751 762.684C213.932 762.684 218.113 762.684 222.421 762.684C220.284 734.724 220.284 734.724 203.812 711.562C199.501 708.371 195.189 705.179 190.747 701.891C176.239 682.905 176.947 674.338 178.077 652.15Z" fill="#B0B7B1"/>
<path d="M266.766 740.577C279.082 756.694 287.131 771.793 295.669 789.627C298.421 795.312 301.173 800.997 304.008 806.854C310.393 821.8 314.336 835.452 317.445 851.111C320.781 863.137 324.138 875.158 327.566 887.164C333.532 919.202 329.236 948.461 321.404 979.952C318.979 990.008 318.979 990.008 316.505 1000.27C311.11 1016.91 311.11 1016.91 298.44 1027.97C281.811 1025.89 281.811 1025.89 266.766 1022.44C247.928 969.247 247.378 927.491 260.431 873.218C262.281 865.331 262.281 865.331 264.168 857.286C266.951 845.978 269.991 834.72 273.101 823.478C264.739 819.83 256.377 816.182 247.762 812.424C251.943 810.6 256.124 808.777 260.431 806.898C273.893 812.079 273.893 812.079 285.771 817.951C284.399 814.218 283.027 810.485 281.613 806.638C279.85 801.708 278.086 796.779 276.268 791.699C274.505 786.826 272.741 781.953 270.923 776.932C266.766 762.684 266.766 762.684 266.766 740.577ZM285.771 856.638C279.311 873.545 278.705 884.958 278.817 902.643C278.838 908.325 278.858 914.007 278.879 919.86C278.932 925.784 278.985 931.708 279.04 937.811C279.069 943.799 279.097 949.787 279.127 955.957C279.201 970.749 279.305 985.54 279.436 1000.33C283.617 1000.33 287.798 1000.33 292.106 1000.33C306.283 952.465 314.298 911.214 304.775 862.165C298.504 860.341 292.232 858.517 285.771 856.638Z" fill="#BBBEB9"/>
<path d="M190.746 364.761C182.856 385.411 174.06 387.904 152.737 397.921C157.571 397.921 162.406 397.921 167.386 397.921C179.396 397.921 191.406 397.921 203.416 397.921C205.506 394.273 207.597 390.626 209.751 386.868C213.932 386.868 218.112 386.868 222.42 386.868C218.239 399.634 214.058 412.401 209.751 425.554C199.298 425.554 188.846 425.554 178.076 425.554C178.076 421.907 178.076 418.259 178.076 414.501C165.277 417.827 152.603 421.537 140.067 425.554C137.977 429.202 135.886 432.85 133.733 436.608C142.095 434.784 150.456 432.96 159.072 431.081C159.072 434.729 159.072 438.376 159.072 442.135C154.891 442.135 150.71 442.135 146.402 442.135C147.578 445.668 148.754 449.202 149.966 452.843C153.708 475.7 150.094 496.767 146.402 519.508C142.221 519.508 138.04 519.508 133.733 519.508C132.949 514.721 132.949 514.721 132.149 509.837C126.097 493.997 116.092 486.353 102.058 475.295C102.058 489.885 102.058 504.476 102.058 519.508C97.8774 517.685 93.6964 515.861 89.3887 513.982C88.102 501.698 88.102 501.698 87.805 486.003C85.5237 455.953 76.2279 440.614 53.1367 418.668C45.0449 408.974 45.0449 408.974 45.0449 386.868C60.8416 393.521 74.701 400.432 89.3887 408.974C113.962 411.522 113.962 411.522 124.626 400.706C129.134 395.395 129.134 395.395 133.733 389.976C149.726 371.208 149.726 371.208 165.803 366.294C178.076 364.761 178.076 364.761 190.746 364.761Z" fill="#9DA7A5"/>
<path d="M95.7256 215.541C133.354 215.541 170.983 215.541 209.753 215.541C204.098 250.075 200.069 273.729 171.744 298.442C178.015 300.265 184.287 302.089 190.748 303.968C201.204 328.453 204.873 349.787 203.418 375.815C201.262 371.028 201.262 371.028 199.062 366.144C188.022 349.632 177.909 341.461 159.074 331.602C135.399 332.375 135.399 332.375 114.73 337.128C114.73 333.481 114.73 329.833 114.73 326.075C118.911 324.251 123.092 322.427 127.4 320.548C123.219 318.725 119.038 316.901 114.73 315.022C114.73 311.374 114.73 307.726 114.73 303.968C123.092 303.968 131.454 303.968 140.069 303.968C142.16 298.497 144.25 293.025 146.404 287.388C162.637 278.062 162.637 278.062 178.078 270.808C173.505 272.29 168.932 273.772 164.221 275.298C146.404 276.335 146.404 276.335 129.775 264.245C95.7256 229.067 95.7256 229.067 95.7256 215.541Z" fill="#DFD9AD"/>
<path d="M76.7194 701.89C83.8461 733.668 83.8461 733.668 76.7194 746.103C72.5384 746.103 68.3574 746.103 64.0497 746.103C74.4055 763.373 74.4055 763.373 90.1809 766.483C96.0604 767.338 96.0604 767.338 102.059 768.21C102.059 764.562 102.059 760.915 102.059 757.157C93.6967 755.333 85.3348 753.509 76.7194 751.63C80.9004 751.63 85.0814 751.63 89.3891 751.63C89.3891 747.982 89.3891 744.335 89.3891 740.577C114.728 740.577 114.728 740.577 127.398 746.103C129.489 751.575 131.579 757.046 133.733 762.683C155.98 769.48 155.98 769.48 178.077 773.737C178.077 777.384 178.077 781.032 178.077 784.79C154.536 785.9 147.846 785.63 127.398 773.737C127.398 777.384 127.398 781.032 127.398 784.79C131.579 784.79 135.76 784.79 140.068 784.79C132.772 798.43 127.095 807.161 114.728 817.95C101.688 817.195 101.688 817.195 86.6176 814.151C81.6608 813.217 76.7041 812.284 71.5971 811.323C56.2094 806.417 48.7935 801.49 38.7104 790.317C38.7104 786.669 38.7104 783.022 38.7104 779.263C34.5294 779.263 30.3484 779.263 26.0408 779.263C23.9503 782.911 21.8598 786.559 19.7059 790.317C17.6154 775.726 15.5249 761.136 13.3711 746.103C26.5193 743.044 37.72 740.577 51.3801 740.577C55.5611 738.753 59.7421 736.929 64.0497 735.05C63.9191 730.604 63.7884 726.159 63.6538 721.579C64.2042 701.89 64.2042 701.89 76.7194 701.89Z" fill="#9AABB7"/>
<path d="M95.7256 519.509C104.088 521.333 112.45 523.157 121.065 525.036C118.974 545.098 116.884 565.16 114.73 585.83C118.911 585.83 123.092 585.83 127.4 585.83C127.4 596.773 127.4 607.715 127.4 618.99C125.309 611.695 123.219 604.399 121.065 596.883C116.884 596.883 112.703 596.883 108.395 596.883C106.305 607.826 104.214 618.769 102.06 630.043C89.5175 630.043 76.9745 630.043 64.0515 630.043C64.0515 626.396 64.0515 622.748 64.0515 618.99C59.8705 617.166 55.6895 615.342 51.3818 613.463C56.3648 600.903 61.3847 588.355 66.4271 575.813C67.8316 572.261 69.2362 568.71 70.6833 565.051C77.5066 548.155 84.2635 534.509 95.7256 519.509Z" fill="#B6BCB3"/>
<path d="M102.061 464.243C103.76 467.663 105.458 471.082 107.208 474.606C114.449 488.005 114.449 488.005 133.735 497.403C136.977 509.363 136.977 509.363 138.09 522.964C138.507 527.481 138.923 531.998 139.352 536.652C139.589 540.114 139.826 543.576 140.07 547.144C144.251 547.144 148.432 547.144 152.74 547.144C150.649 523.434 148.559 499.725 146.405 475.297C150.586 477.12 154.767 478.944 159.075 480.823C172.366 478.616 172.366 478.616 184.414 475.297C180.233 482.592 176.052 489.887 171.744 497.403C167.563 497.403 163.382 497.403 159.075 497.403C161.165 510.17 163.256 522.937 165.409 536.09C177.394 539.857 177.394 539.857 190.749 541.617C194.93 537.969 199.111 534.322 203.418 530.564C197.875 562.342 197.875 562.342 190.749 574.777C176.115 574.777 161.482 574.777 146.405 574.777C144.576 571.244 142.747 567.71 140.862 564.069C134.823 551.83 134.823 551.83 121.066 547.144C121.066 539.848 121.066 532.553 121.066 525.037C114.794 525.037 108.523 525.037 102.061 525.037C100.826 516.982 99.6495 508.921 98.4978 500.858C97.8363 496.369 97.1749 491.881 96.4934 487.257C95.7263 475.297 95.7263 475.297 102.061 464.243Z" fill="#CCCBB3"/>
<path d="M127.398 265.282C132.102 266.308 136.806 267.334 141.652 268.391C158.755 270.765 168.235 269.987 184.412 265.282C167.783 286.698 167.783 286.698 146.403 292.916C144.312 296.563 142.222 300.211 140.068 303.969C131.706 303.969 123.344 303.969 114.729 303.969C114.729 307.617 114.729 311.264 114.729 315.023C121 316.846 127.272 318.67 133.733 320.549C127.462 322.373 121.19 324.197 114.729 326.076C116.819 333.371 118.91 340.666 121.063 348.183C112.701 346.359 104.34 344.535 95.7241 342.656C97.8146 335.361 99.9051 328.066 102.059 320.549C91.6065 322.373 81.154 324.197 70.3848 326.076C68.2943 337.019 66.2038 347.962 64.05 359.236C57.7785 357.412 51.507 355.589 45.0455 353.709C39.0324 339.871 39.0324 339.871 34.3555 322.967C31.9669 314.578 31.9669 314.578 29.5301 306.02C28.3787 301.696 27.2273 297.371 26.041 292.916C36.4935 291.092 46.946 289.268 57.7152 287.389C57.7152 296.508 57.7152 305.627 57.7152 315.023C63.9866 311.375 70.2581 307.727 76.7197 303.969C93.7445 303.278 93.7445 303.278 108.394 303.969C116.035 291.08 122.112 279.119 127.398 265.282Z" fill="#9C9F8E"/>
<path d="M507.491 143.693C526.305 146.429 526.305 146.429 545.5 149.22C551.834 165.8 551.834 165.8 545.896 177.198C543.674 180.732 541.453 184.266 539.165 187.906C539.165 191.554 539.165 195.202 539.165 198.96C557.979 201.696 557.979 201.696 577.174 204.487C570.332 221.796 564.444 226.626 546.291 236.611C525.291 243.573 521.223 244.22 501.156 237.647C488.981 229.853 488.981 229.853 477.4 220.721C473.513 217.693 469.626 214.666 465.621 211.546C462.714 209.216 459.807 206.887 456.812 204.487C463.083 195.368 469.355 186.248 475.817 176.853C487.694 178.235 487.694 178.235 501.156 182.38C509.074 193.779 509.074 193.779 513.825 204.487C507.554 206.31 501.283 208.134 494.821 210.013C496.911 213.661 499.002 217.309 501.156 221.067C520.346 224.702 520.346 224.702 539.165 226.593C537.205 222.718 535.245 218.842 533.226 214.849C526.286 198.466 522.921 183.06 520.16 165.8C513.889 163.976 507.617 162.152 501.156 160.273C503.246 154.802 505.337 149.33 507.491 143.693Z" fill="#9EA7A1"/>
<path d="M355.451 171.329C372.327 171.739 372.327 171.739 391.084 175.128C400.418 176.699 400.418 176.699 409.94 178.302C417.461 180.321 417.461 180.321 425.134 182.382C427.225 186.03 429.315 189.677 431.469 193.435C423.789 193.051 423.789 193.051 415.954 192.658C405.799 192.359 405.799 192.359 395.44 192.054C388.752 191.797 382.064 191.541 375.173 191.277C350.61 193.965 342.107 201.349 323.777 215.542C310.584 222.647 297.25 229.556 283.788 236.267C277.019 239.658 270.249 243.05 263.274 246.544C258.154 249.08 253.034 251.616 247.759 254.229C258.431 275.275 269.157 281.624 292.103 292.916C305.358 316.044 299.89 346.26 300.021 371.672C300.152 377.934 300.283 384.196 300.417 390.648C300.657 435.181 292.876 462.356 260.429 497.404C258.32 478.397 262.104 465.14 269.98 447.75C281.888 417.311 281.576 389.353 279.829 357.509C279.725 349.425 279.725 349.425 279.619 341.178C278.897 326.15 277.822 312.915 273.098 298.443C254.642 285.566 254.642 285.566 235.089 276.336C229.546 258.374 229.546 258.374 228.754 243.176C231.917 241.588 235.08 240.001 238.339 238.365C252.715 231.13 267.064 223.855 281.413 216.578C288.878 212.833 288.878 212.833 296.495 209.012C301.293 206.572 306.09 204.132 311.033 201.618C315.445 199.389 319.857 197.16 324.403 194.864C336.804 188.261 336.804 188.261 346.482 178.736C349.442 176.292 352.402 173.847 355.451 171.329Z" fill="#94968D"/>
<path d="M241.425 403.449C258.457 448.026 254.767 495.213 254.095 541.616C249.914 537.969 245.733 534.321 241.425 530.563C238.551 533.299 235.676 536.034 232.715 538.853C222.421 547.143 222.421 547.143 209.751 547.143C209.751 543.495 209.751 539.848 209.751 536.09C213.932 536.09 218.113 536.09 222.421 536.09C222.421 532.442 222.421 528.794 222.421 525.036C226.602 525.036 230.783 525.036 235.09 525.036C235.09 521.389 235.09 517.741 235.09 513.983C239.271 513.983 243.452 513.983 247.76 513.983C244.624 500.304 244.624 500.304 241.425 486.349C233.063 491.821 224.701 497.292 216.086 502.929C218.176 484.691 220.267 466.453 222.421 447.662C208.459 472.836 206.023 497.563 203.416 525.036C201.326 525.036 199.235 525.036 197.081 525.036C194.991 512.269 192.9 499.503 190.746 486.349C182.384 488.173 174.022 489.997 165.407 491.876C165.407 470.899 168.586 460.766 178.077 442.136C169.715 449.431 161.353 456.726 152.737 464.242C150.647 456.947 148.556 449.652 146.403 442.136C150.584 442.136 154.765 442.136 159.072 442.136C159.072 438.488 159.072 434.84 159.072 431.082C150.71 432.906 142.348 434.73 133.733 436.609C137.914 429.314 142.095 422.018 146.403 414.502C169.069 413.404 184.361 414.275 203.416 425.556C205.507 431.027 207.597 436.498 209.751 442.136C220.203 429.369 230.656 416.602 241.425 403.449Z" fill="#C1C8BE"/>
<path d="M102.061 464.243C103.76 467.663 105.458 471.082 107.208 474.606C114.449 488.005 114.449 488.005 133.735 497.403C133.735 504.699 133.735 511.994 133.735 519.51C137.916 519.51 142.097 519.51 146.405 519.51C146.405 504.92 146.405 490.329 146.405 475.297C159.838 494.829 162.445 513.674 165.409 536.09C177.394 539.857 177.394 539.857 190.749 541.617C194.93 537.969 199.111 534.322 203.418 530.564C203.418 557.921 203.418 585.278 203.418 613.464C165.409 602.411 165.409 602.411 159.075 591.357C154.894 589.533 150.713 587.71 146.405 585.831C142.182 574.777 137.958 563.724 133.735 552.67C129.554 550.847 125.373 549.023 121.066 547.144C121.066 539.848 121.066 532.553 121.066 525.037C114.794 525.037 108.523 525.037 102.061 525.037C100.826 516.982 99.6495 508.921 98.4978 500.858C97.8363 496.369 97.1749 491.881 96.4934 487.257C95.7263 475.297 95.7263 475.297 102.061 464.243Z" fill="#C4C8B8"/>
<path d="M298.442 60.793C306.804 64.4406 315.166 68.0882 323.782 71.8464C322.606 78.6857 321.43 85.525 320.218 92.5715C317.782 109.222 316.893 122.14 323.782 138.167C318.686 140.675 313.59 143.182 308.34 145.766C291.546 153.35 291.546 153.35 285.773 165.8C289.954 167.624 294.135 169.448 298.442 171.327C285.899 174.975 273.356 178.622 260.433 182.38C253.333 159.858 255.395 145.511 263.205 123.314C270.567 103.417 270.567 103.417 273.103 82.8998C277.284 82.8998 281.465 82.8998 285.773 82.8998C289.954 90.195 294.135 97.4903 298.442 105.007C294.81 89.1602 292.985 83.6655 279.438 71.8464C285.709 71.8464 291.981 71.8464 298.442 71.8464C298.442 68.1987 298.442 64.5511 298.442 60.793Z" fill="#C7C9B0"/>
<path d="M222.42 442.136C232.819 460.28 225.708 477.648 222.42 497.403C230.782 490.108 239.144 482.813 247.76 475.296C247.76 488.063 247.76 500.83 247.76 513.983C243.579 513.983 239.398 513.983 235.09 513.983C235.09 517.631 235.09 521.279 235.09 525.037C230.909 525.037 226.728 525.037 222.42 525.037C222.42 528.684 222.42 532.332 222.42 536.09C218.239 536.09 214.058 536.09 209.751 536.09C209.751 539.738 209.751 543.385 209.751 547.144C222.294 539.848 234.837 532.553 247.76 525.037C251.142 532.839 254.422 540.676 257.658 548.525C259.495 552.885 261.333 557.245 263.226 561.737C267.051 575.833 265.798 583.361 260.429 596.884C258.339 589.589 256.248 582.293 254.095 574.777C243.642 574.777 233.19 574.777 222.42 574.777C222.42 567.482 222.42 560.187 222.42 552.67C216.149 552.67 209.877 552.67 203.416 552.67C202.899 540.469 202.532 528.263 202.228 516.056C201.897 505.861 201.897 505.861 201.56 495.46C203.55 473.837 209.947 460.702 222.42 442.136Z" fill="#9CA8A7"/>
<path d="M95.7246 342.654C101.996 342.654 108.268 342.654 114.729 342.654C112.639 364.54 110.548 386.425 108.394 408.974C112.575 408.974 116.756 408.974 121.064 408.974C122.762 405.669 124.461 402.363 126.211 398.957C134.07 386.326 139.567 378.905 152.738 370.287C172.93 366.488 172.93 366.488 190.747 364.761C184.412 381.341 184.412 381.341 168.575 389.285C151.733 396.514 151.733 396.514 147.591 410.01C147.199 413.316 146.807 416.622 146.403 420.028C127.028 423.033 109.106 425.554 89.3898 425.554C78.9967 417.869 78.9967 417.869 68.8016 407.593C63.657 402.591 63.657 402.591 58.4085 397.489C51.3808 386.867 51.3808 386.867 53.4595 374.519C54.864 371.299 56.2686 368.078 57.7157 364.761C57.7157 368.408 57.7157 372.056 57.7157 375.814C66.0776 375.814 74.4396 375.814 83.055 375.814C87.236 375.814 91.417 375.814 95.7246 375.814C94.5487 372.394 93.3728 368.975 92.1613 365.451C89.3898 353.707 89.3898 353.707 95.7246 342.654Z" fill="#B3B4A1"/>
<path d="M151.949 326.765C169.738 333.156 182.582 342.813 197.084 353.708C194.994 359.179 192.903 364.651 190.75 370.288C178.207 370.288 165.664 370.288 152.741 370.288C150.65 375.759 148.56 381.231 146.406 386.868C134.132 398.958 134.132 398.958 121.066 408.975C116.885 408.975 112.704 408.975 108.397 408.975C99.4411 379.853 104.798 363.487 121.066 337.128C140.071 326.074 140.071 326.074 151.949 326.765Z" fill="#C2C8C3"/>
<path d="M190.748 303.968C199.11 307.616 207.472 311.264 216.087 315.022C213.997 327.788 211.906 340.555 209.753 353.709C213.934 353.709 218.115 353.709 222.422 353.709C222.422 344.59 222.422 335.47 222.422 326.075C224.513 329.723 226.603 333.37 228.757 337.128C239.21 333.481 249.662 329.833 260.431 326.075C254.888 347.491 254.888 347.491 247.762 353.709C246.782 364.309 246.782 364.309 245.782 375.125C243.152 396.463 243.152 396.463 228.361 408.976C224.311 410.799 220.261 412.623 216.087 414.502C218.178 405.383 220.268 396.264 222.422 386.869C218.241 386.869 214.06 386.869 209.753 386.869C207.662 392.34 205.572 397.812 203.418 403.449C197.146 405.273 190.875 407.096 184.413 408.976C184.413 405.328 184.413 401.68 184.413 397.922C180.232 396.098 176.051 394.275 171.744 392.395C175.925 390.344 180.106 388.292 184.413 386.178C199.214 376.35 199.214 376.35 199.063 358.544C199.081 343.244 199.081 343.244 190.748 337.128C190.49 326.077 190.479 315.019 190.748 303.968Z" fill="#BBBC9E"/>
<path d="M285.769 845.584C298.835 848.002 298.835 848.002 311.109 851.111C320.635 891.706 325.276 926.169 317.443 967.172C313.262 967.172 309.081 967.172 304.774 967.172C304.774 979.939 304.774 992.705 304.774 1005.86C296.412 1007.68 288.05 1009.51 279.434 1011.39C269.173 983.817 265.042 960.539 265.181 931.248C265.148 924.352 265.116 917.456 265.082 910.35C269.201 860.039 269.201 860.039 285.769 845.584ZM285.769 856.638C280.858 875.571 278.679 892.962 278.816 912.358C278.836 917.506 278.857 922.653 278.878 927.956C278.931 933.26 278.984 938.564 279.038 944.029C279.067 949.44 279.096 954.851 279.125 960.425C279.199 973.728 279.303 987.03 279.434 1000.33C283.615 1000.33 287.796 1000.33 292.104 1000.33C304.248 969.258 306.35 942.171 305.566 909.487C305.48 902.632 305.48 902.632 305.392 895.638C305.244 884.479 305.017 873.322 304.774 862.165C298.502 860.341 292.231 858.517 285.769 856.638Z" fill="#E1E2D9"/>
<path d="M336.448 110.534C340.629 112.358 344.81 114.182 349.118 116.061C349.118 119.709 349.118 123.356 349.118 127.114C378.385 127.114 407.651 127.114 437.805 127.114C437.805 130.762 437.805 134.41 437.805 138.168C450.348 138.168 462.891 138.168 475.814 138.168C456.924 154.648 442.848 154.575 416.376 155.482C408.553 155.468 400.73 155.453 392.67 155.439C384.814 155.453 376.958 155.467 368.864 155.482C349.118 154.748 349.118 154.748 336.448 149.221C336.056 152.641 335.664 156.06 335.26 159.584C330.113 171.328 330.113 171.328 313.88 178.236C308.785 179.604 303.689 180.972 298.439 182.381C304.318 176.91 304.318 176.91 310.317 171.328C326.938 150.856 330.752 134.966 336.448 110.534Z" fill="#CBCCB1"/>
<path d="M108.396 635.57C110.486 635.57 112.577 635.57 114.73 635.57C116.328 671.104 116.328 671.104 107.208 689.11C104.66 695.437 104.66 695.437 102.061 701.891C110.065 714.741 110.065 714.741 121.065 723.998C127.337 718.526 133.608 713.055 140.07 707.417C140.07 720.184 140.07 732.951 140.07 746.104C125.42 749.559 125.42 749.559 108.396 751.631C102.124 747.983 95.8526 744.336 89.3911 740.578C89.3911 744.225 89.3911 747.873 89.3911 751.631C93.5721 753.455 97.7531 755.279 102.061 757.158C102.061 760.805 102.061 764.453 102.061 768.211C91.6083 766.387 81.1558 764.564 70.3866 762.684C68.2961 757.213 66.2056 751.742 64.0518 746.104C68.2327 746.104 72.4137 746.104 76.7214 746.104C76.7214 720.571 76.7214 695.038 76.7214 668.731C80.9024 668.731 85.0834 668.731 89.3911 668.731C95.6626 657.788 101.934 646.845 108.396 635.57Z" fill="#C4CBBF"/>
<path d="M171.743 436.609C175.924 438.433 180.105 440.257 184.412 442.136C178.141 450.343 178.141 450.343 171.743 458.716C180.105 455.069 188.467 451.421 197.082 447.663C203.855 465.391 204.474 478.777 204.605 497.403C204.694 503.216 204.784 509.03 204.877 515.019C203.417 530.563 203.417 530.563 190.747 547.143C180.295 545.32 169.842 543.496 159.073 541.617C155.954 500.804 155.954 500.804 171.743 483.586C175.924 480.851 180.105 478.115 184.412 475.296C171.899 477.219 171.899 477.219 159.073 480.823C156.982 484.471 154.892 488.118 152.738 491.876C147.987 482.895 147.987 482.895 146.403 469.77C158.677 451.808 158.677 451.808 171.743 436.609Z" fill="#E5E3C7"/>
<path d="M70.3854 442.136C76.6569 445.784 82.9284 449.431 89.3899 453.19C98.7693 505.287 87.0524 547.09 64.6197 595.394C57.705 613.492 56.6435 625.375 58.1117 644.206C60.4137 677.418 45.1144 700.228 28.1697 729.309C16.9774 751.522 16.4961 766.509 19.7068 790.318C6.76008 773.708 5.57908 760.789 9.41266 741.139C14.3211 726.74 21.8182 714.249 29.6049 700.855C45.7278 671.721 46.6726 649.402 44.9224 617.501C45.0999 595.852 52.8603 582.859 64.0506 563.724C72.0848 538.453 71.106 513.38 70.7813 487.386C70.7527 483.03 70.7242 478.673 70.6947 474.185C70.6205 463.502 70.5069 452.819 70.3854 442.136Z" fill="#F0EEDC"/>
<path d="M70.3842 320.548C80.9978 322.129 91.567 323.963 102.058 326.075C99.9679 331.546 97.8774 337.018 95.7236 342.655C104.086 344.479 112.448 346.303 121.063 348.182C123.153 355.477 125.244 362.772 127.398 370.289C129.488 361.17 131.579 352.051 133.733 342.655C137.914 344.479 142.095 346.303 146.402 348.182C133.558 399.9 133.558 399.9 114.728 414.502C99.6828 417.611 99.6828 417.611 83.0539 414.502C65.2372 402.413 65.2372 402.413 51.3797 386.869C49.4001 371.325 49.4001 371.325 51.3797 359.235C55.5607 359.235 59.7417 359.235 64.0494 359.235C63.9187 353.878 63.7881 348.52 63.6535 343.001C64.0494 326.075 64.0494 326.075 70.3842 320.548Z" fill="#CDCFB7"/>
<path d="M298.439 38.687C340.171 56.237 340.171 56.237 349.118 71.8472C363.751 71.8472 378.385 71.8472 393.461 71.8472C395.552 68.1996 397.642 64.552 399.796 60.7938C397.706 68.0891 395.615 75.3843 393.461 82.9006C397.642 84.7244 401.823 86.5483 406.131 88.4273C404.041 93.8988 401.95 99.3702 399.796 105.007C418.611 107.743 418.611 107.743 437.805 110.534C437.805 112.358 437.805 114.182 437.805 116.061C403.946 118.482 403.946 118.482 387.127 116.061C376.041 102.935 376.041 102.935 368.122 88.4273C355.028 81.0882 355.028 81.0882 342.783 77.3739C342.783 81.0216 342.783 84.6692 342.783 88.4273C349.054 88.4273 355.326 88.4273 361.787 88.4273C359.697 95.7226 357.606 103.018 355.452 110.534C363.814 112.358 372.176 114.182 380.792 116.061C380.792 119.708 380.792 123.356 380.792 127.114C366.538 128.496 366.538 128.496 349.118 127.114C334.468 116.061 334.468 116.061 323.778 105.007C323.778 108.655 323.778 112.303 323.778 116.061C319.597 116.061 315.416 116.061 311.109 116.061C309.836 95.5237 310.146 89.687 323.778 71.8472C315.416 71.8472 307.054 71.8472 298.439 71.8472C281.81 70.811 281.81 70.811 266.765 66.3205C258.45 52.1584 258.45 52.1584 254.095 38.687C271.815 30.9574 279.423 33.8942 298.439 38.687Z" fill="#D7D5B6"/>
<path d="M76.7197 591.357C82.9911 591.357 89.2626 591.357 95.7241 591.357C97.8146 604.124 99.9051 616.891 102.059 630.044C97.878 630.044 93.697 630.044 89.3893 630.044C90.6959 636.2 92.0024 642.355 93.3486 648.697C94.1325 655.308 94.9165 661.92 95.7241 668.731C91.5432 672.379 87.3622 676.026 83.0545 679.785C81.9974 694.063 81.9974 694.063 83.0545 707.418C78.8735 707.418 74.6925 707.418 70.3848 707.418C71.0381 711.522 71.6914 715.625 72.3645 719.853C70.3848 735.052 70.3848 735.052 54.5478 747.832C49.3215 750.91 44.0953 753.987 38.7107 757.158C38.7107 751.687 38.7107 746.216 38.7107 740.578C34.5297 740.578 30.3487 740.578 26.041 740.578C28.9949 723.57 33.3742 711.203 42.274 695.674C54.1941 672.975 52.343 651.557 50.8112 627.022C51.3803 613.464 51.3803 613.464 64.05 596.884C66.1405 598.708 68.231 600.532 70.3848 602.411C72.4753 598.763 74.5658 595.116 76.7197 591.357Z" fill="#A5B5B8"/>
<path d="M197.081 552.67C205.443 552.67 213.805 552.67 222.42 552.67C220.564 563.644 218.708 574.618 216.852 585.593C215.205 598.003 215.205 598.003 222.42 613.464C222.42 602.521 222.42 591.578 222.42 580.303C226.601 580.303 230.782 580.303 235.09 580.303C235.09 589.422 235.09 598.542 235.09 607.937C239.271 609.761 243.452 611.585 247.76 613.464C245.669 618.935 243.579 624.406 241.425 630.044C249.787 622.748 258.149 615.453 266.764 607.937C266.764 624.517 266.764 624.517 258.054 639.37C246.314 660.249 240.906 679.252 235.09 701.891C233.391 698.357 231.693 694.824 229.943 691.183C223.138 677.953 223.138 677.953 203.416 674.257C199.235 656.019 195.054 637.781 190.746 618.99C184.475 620.814 178.203 622.638 171.742 624.517C169.651 617.222 167.561 609.927 165.407 602.41C179.145 605.207 190.744 607.936 203.416 613.464C201.325 593.402 199.235 573.34 197.081 552.67Z" fill="#95ACB7"/>
<path d="M669.819 191.362C695.941 200.647 718.454 213.006 741.878 226.595C737.697 237.538 733.516 248.48 729.208 259.755C676.925 250.78 630.778 237.192 583.507 215.541C587.688 210.07 591.869 204.598 596.177 198.961C600.358 200.785 604.539 202.609 608.847 204.488C606.756 208.136 604.666 211.783 602.512 215.541C610.874 215.541 619.236 215.541 627.851 215.541C630.595 210.241 630.595 210.241 633.394 204.833C643.812 188.17 648.665 186.968 669.819 191.362Z" fill="#A1ABAA"/>
<path d="M342.783 77.373C357.417 81.0207 372.05 84.6683 387.127 88.4264C380.856 91.1622 380.856 91.1622 374.457 93.9531C380.729 102.16 380.729 102.16 387.127 110.533C391.308 110.533 395.489 110.533 399.797 110.533C397.706 106.886 395.616 103.238 393.462 99.4798C410.622 91.9945 425.195 93.5938 444.14 93.9531C446.231 101.248 448.321 108.544 450.475 116.06C455.832 116.074 461.189 116.088 466.708 116.103C511.497 117.435 538.078 120.702 571.753 146.824C590.991 159.792 610.539 162.116 634.185 165.8C627.914 168.536 627.914 168.536 621.516 171.327C619.425 174.975 617.335 178.622 615.181 182.38C611 182.38 606.819 182.38 602.511 182.38C593.813 189.523 585.342 196.884 577.172 204.487C581.353 193.544 585.534 182.601 589.842 171.327C586.314 169.959 582.786 168.591 579.152 167.182C564.502 160.274 564.502 160.274 550.645 148.184C527.653 135.257 515.995 138.249 489.92 142.053C471.618 144.182 455.691 141.768 437.806 138.167C437.806 134.519 437.806 130.872 437.806 127.113C418.991 127.113 400.177 127.113 380.792 127.113C380.792 123.466 380.792 119.818 380.792 116.06C372.43 114.236 364.068 112.412 355.453 110.533C357.543 103.238 359.634 95.9428 361.788 88.4264C355.516 88.4264 349.245 88.4264 342.783 88.4264C342.783 84.7788 342.783 81.1312 342.783 77.373Z" fill="#B6B6A0"/>
<path d="M146.401 0C148.491 7.29525 150.582 14.5905 152.736 22.1068C163.188 20.283 173.64 18.4592 184.41 16.5801C184.41 20.2277 184.41 23.8753 184.41 27.6335C177.746 29.0014 177.746 29.0014 170.948 30.3969C144.374 42.4929 128.55 59.8113 114.727 82.9005C115.113 101.102 118.211 111.087 127.396 127.114C127.842 137.47 127.93 147.839 127.792 158.202C127.735 163.744 127.678 169.287 127.619 174.998C127.545 179.258 127.472 183.518 127.396 187.908C110.236 195.393 95.6629 193.794 76.7176 193.435C78.163 197.104 79.6083 200.773 81.0975 204.553C82.9185 209.433 84.7395 214.313 86.6157 219.341C88.4531 224.15 90.2904 228.959 92.1835 233.913C96.0478 250.063 94.3096 260.551 89.3872 276.335C70.5728 281.806 51.7583 287.278 32.3738 292.915C32.3738 302.034 32.3738 311.153 32.3738 320.549C28.1928 318.725 24.0118 316.901 19.7041 315.022C19.7041 304.079 19.7041 293.136 19.7041 281.862C40.609 278.214 61.514 274.566 83.0524 270.808C80.9619 265.451 78.8714 260.093 76.7176 254.574C68.6803 230.476 69.2181 207.276 70.3827 182.381C85.0162 182.381 99.6497 182.381 114.727 182.381C113.885 178.042 113.044 173.704 112.178 169.234C109.867 157.24 107.626 145.236 105.447 133.224C102.218 115.342 102.218 115.342 95.7221 95.3356C95.7221 71.2501 106.899 61.816 124.204 43.8466C136.338 30.2365 141.638 16.6209 146.401 0Z" fill="#DDE4DD"/>
<path d="M76.7197 193.434C82.9911 193.434 89.2626 193.434 95.7241 193.434C97.4227 200.273 99.1212 207.113 100.871 214.159C105.092 229.342 107.975 237.174 119.084 249.737C127.398 259.754 127.398 259.754 126.211 273.917C121.063 287.388 121.063 287.388 108.394 303.968C97.9413 303.968 87.4889 303.968 76.7197 303.968C72.5387 322.206 68.3577 340.444 64.05 359.235C57.7785 357.411 51.507 355.587 45.0455 353.708C39.0324 339.87 39.0324 339.87 34.3555 322.966C32.7631 317.374 31.1707 311.781 29.5301 306.019C28.3787 301.695 27.2273 297.37 26.041 292.915C46.946 285.619 67.8509 278.324 89.3893 270.808C85.8034 244.886 81.8802 219.161 76.7197 193.434Z" fill="#B4BBB0"/>
<path d="M146.405 585.829C156.858 587.653 167.31 589.477 178.08 591.356C171.808 594.092 171.808 594.092 165.41 596.883C169.591 604.178 173.772 611.473 178.08 618.989C182.261 618.989 186.442 618.989 190.749 618.989C192.048 622.851 193.346 626.712 194.684 630.69C196.391 635.72 198.097 640.75 199.856 645.932C201.546 650.933 203.236 655.934 204.978 661.087C209.286 674.161 209.286 674.161 216.089 685.31C207.727 681.662 199.365 678.014 190.749 674.256C190.749 666.961 190.749 659.666 190.749 652.15C186.568 652.15 182.387 652.15 178.08 652.15C187.536 681.977 198.332 711.28 209.754 740.577C203.482 740.577 197.211 740.577 190.749 740.577C188.659 725.986 186.568 711.396 184.414 696.363C178.143 698.187 171.872 700.011 165.41 701.89C162.536 697.444 159.661 692.999 156.7 688.418C148.007 673.767 148.007 673.767 133.736 668.73C133.565 660.67 133.442 652.61 133.34 644.55C133.266 640.062 133.193 635.574 133.117 630.949C133.736 618.989 133.736 618.989 140.071 607.936C144.252 607.936 148.433 607.936 152.74 607.936C150.65 600.641 148.559 593.345 146.405 585.829Z" fill="#CACFBD"/>
<path d="M323.779 105.007C327.96 105.007 332.141 105.007 336.448 105.007C334.778 138.452 330.862 156.587 304.774 182.381C306.865 187.853 308.955 193.324 311.109 198.961C298.439 204.488 285.77 210.015 273.1 215.541C266.306 218.733 259.512 221.925 252.512 225.213C246.763 227.493 241.014 229.773 235.091 232.121C230.91 230.298 226.729 228.474 222.421 226.595C228.693 224.771 234.964 222.947 241.426 221.068C248.205 205.476 247.761 193.957 247.761 176.854C269.711 174.119 269.711 174.119 292.105 171.328C292.105 164.032 292.105 156.737 292.105 149.221C296.155 148.081 300.205 146.941 304.378 145.767C319.656 138.746 319.656 138.746 322.195 120.897C322.718 115.653 323.24 110.41 323.779 105.007Z" fill="#939D99"/>
<path d="M488.484 143.693C488.484 147.34 488.484 150.988 488.484 154.746C475.941 156.57 463.398 158.394 450.475 160.273C454.656 173.04 458.837 185.806 463.145 198.96C456.873 198.96 450.602 198.96 444.14 198.96C442.05 193.488 439.959 188.017 437.805 182.38C411.498 173.512 376.967 167.277 349.118 171.326C338.486 178.614 327.92 185.977 317.443 193.433C311.172 191.609 304.9 189.786 298.439 187.906C303.535 184.601 308.63 181.295 313.88 177.889C331.528 166.853 331.528 166.853 336.448 149.22C343.471 149.284 350.493 149.348 357.729 149.414C367 149.466 376.272 149.516 385.543 149.565C390.165 149.611 394.787 149.658 399.549 149.705C425.214 149.974 425.214 149.974 450.432 146.422C463.145 143.693 463.145 143.693 488.484 143.693Z" fill="#869093"/>
<path d="M235.093 66.319C235.093 69.9666 235.093 73.6143 235.093 77.3724C222.55 77.3724 210.007 77.3724 197.084 77.3724C194.994 84.6677 192.903 91.9629 190.749 99.4792C192.84 97.6554 194.93 95.8316 197.084 93.9525C209.751 93.727 222.426 93.7174 235.093 93.9525C237.184 97.6001 239.274 101.248 241.428 105.006C228.885 106.83 216.342 108.654 203.419 110.533C201.328 123.299 199.238 136.066 197.084 149.22C188.722 149.22 180.36 149.22 171.745 149.22C169.654 152.867 167.564 156.515 165.41 160.273C161.229 151.154 157.048 142.035 152.74 132.639C161.102 134.463 169.464 136.287 178.08 138.166C178.08 134.518 178.08 130.871 178.08 127.113C171.808 125.289 165.537 123.465 159.075 121.586C157.095 103.279 157.095 103.279 159.075 82.8991C174.12 72.5365 174.12 72.5365 190.749 66.319C207.642 58.9501 217.145 62.6105 235.093 66.319Z" fill="#D5C898"/>
<path d="M501.154 138.168C505.335 139.992 509.516 141.816 513.823 143.695C507.552 151.902 507.552 151.902 501.154 160.275C509.516 162.099 517.878 163.922 526.493 165.801C530.674 185.863 534.855 205.925 539.163 226.595C526.62 226.595 514.077 226.595 501.154 226.595C499.063 221.124 496.973 215.652 494.819 210.015C499 208.191 503.181 206.367 507.489 204.488C503.308 197.193 499.127 189.898 494.819 182.382C488.547 182.382 482.276 182.382 475.814 182.382C473.724 186.029 471.633 189.677 469.48 193.435C465.299 193.435 461.118 193.435 456.81 193.435C454.719 182.492 452.629 171.549 450.475 160.275C463.018 158.451 475.561 156.627 488.484 154.748C488.484 151.1 488.484 147.453 488.484 143.695C492.665 141.871 496.846 140.047 501.154 138.168Z" fill="#D8D3AC"/>
<path d="M127.4 198.961C131.532 199.36 135.664 199.759 139.921 200.17C169.677 202.927 198.784 205.176 228.757 204.488C228.757 208.135 228.757 211.783 228.757 215.541C232.938 217.365 237.119 219.189 241.427 221.068C237.246 224.715 233.065 228.363 228.757 232.121C227.262 255.164 228.863 276.025 235.092 298.442C224.64 296.618 214.187 294.794 203.418 292.915C196.321 262.576 198.4 244.09 209.753 215.541C203.481 217.365 197.21 219.189 190.748 221.068C168.576 222.795 168.576 222.795 146.404 221.068C135.516 209.906 135.516 209.906 127.4 198.961Z" fill="#919F9C"/>
<path d="M57.7152 646.624C59.8057 650.271 61.8962 653.919 64.05 657.677C80.0602 661.3 80.0602 661.3 95.7241 663.204C89.4527 671.411 89.4527 671.411 83.0545 679.784C81.9957 694.293 81.9957 694.293 83.0545 707.417C78.8735 707.417 74.6925 707.417 70.3848 707.417C71.0381 711.521 71.6914 715.624 72.3645 719.852C70.3848 735.051 70.3848 735.051 54.5478 747.831C49.3215 750.909 44.0953 753.987 38.7107 757.158C38.7107 751.686 38.7107 746.215 38.7107 740.577C34.5297 740.577 30.3487 740.577 26.041 740.577C30.2142 716.548 40.4505 696.507 51.3803 674.257C55.7603 658.899 55.7603 658.899 57.7152 646.624Z" fill="#A7B7B9"/>
<path d="M127.398 624.517C129.488 624.517 131.579 624.517 133.732 624.517C133.732 639.107 133.732 653.698 133.732 668.73C137.652 670.212 141.572 671.694 145.61 673.221C159.072 679.784 159.072 679.784 171.741 696.364C175.922 696.364 180.103 696.364 184.411 696.364C187.856 713.267 190.746 728.903 190.746 746.104C192.715 755.339 194.805 764.556 197.081 773.738C192.9 773.738 188.719 773.738 184.411 773.738C184.411 770.09 184.411 766.442 184.411 762.684C178.14 762.684 171.868 762.684 165.407 762.684C163.316 751.741 161.226 740.798 159.072 729.524C154.891 729.524 150.71 729.524 146.402 729.524C150.583 740.467 154.764 751.41 159.072 762.684C146.529 757.213 133.986 751.741 121.063 746.104C120.469 705.105 119.96 665.07 127.398 624.517Z" fill="#B5C2C0"/>
<path d="M178.077 652.15C182.258 652.15 186.439 652.15 190.747 652.15C194.928 661.269 199.109 670.389 203.416 679.784C209.688 679.784 215.959 679.784 222.421 679.784C226.602 683.432 230.783 687.079 235.09 690.837C237.181 690.837 239.271 690.837 241.425 690.837C243.124 697.905 244.822 704.972 246.572 712.253C253.748 740.581 263.166 768.172 273.099 795.845C252.115 797.226 252.115 797.226 228.756 795.845C216.482 785.482 216.482 785.482 209.751 773.738C209.751 770.09 209.751 766.443 209.751 762.684C213.932 762.684 218.113 762.684 222.421 762.684C220.284 734.724 220.284 734.724 203.812 711.562C199.501 708.371 195.189 705.179 190.747 701.891C176.239 682.905 176.947 674.338 178.077 652.15Z" fill="#B0B7B1"/>
<path d="M235.091 93.9536C247.76 93.9536 247.76 93.9536 260.43 105.007C263.201 117.788 263.201 117.788 260.43 132.641C247.364 148.184 247.364 148.184 228.756 160.274C204.604 162.001 204.604 162.001 184.412 160.274C182.321 156.626 180.231 152.979 178.077 149.221C184.349 149.221 190.62 149.221 197.082 149.221C197.082 136.454 197.082 123.687 197.082 110.534C209.625 106.886 222.168 103.238 235.091 99.4803C235.091 97.6565 235.091 95.8327 235.091 93.9536Z" fill="#E3D395"/>
<path d="M285.77 856.638C292.042 858.462 298.313 860.286 304.775 862.165C305.119 877.94 305.369 893.71 305.567 909.487C305.726 916.118 305.726 916.118 305.888 922.883C306.151 950.951 302.498 973.739 292.105 1000.33C287.924 1000.33 283.743 1000.33 279.435 1000.33C279.251 981.565 279.139 962.797 279.04 944.029C278.986 938.725 278.933 933.421 278.879 927.956C278.858 922.809 278.838 917.662 278.817 912.359C278.784 907.641 278.75 902.923 278.716 898.063C279.462 883.761 282.153 870.584 285.77 856.638Z" fill="#94998F"/>
<path d="M380.791 77.373C405.876 79.1969 430.962 81.0207 456.808 82.8997C456.808 92.0188 456.808 101.138 456.808 110.533C464.623 109.764 464.623 109.764 472.596 108.979C515.293 106.57 541.231 107.918 575.191 131.949C584.496 139.363 593.644 146.934 602.51 154.747C606.691 158.394 610.872 162.042 615.179 165.8C590.648 164.463 579.063 157.392 561.333 143.693C528.173 120.438 491.545 121.696 450.474 121.587C448.383 112.468 446.293 103.349 444.139 93.9531C438.39 94.2951 432.641 94.6371 426.718 94.9894C406.13 93.9531 406.13 93.9531 380.791 77.373Z" fill="#E3E6E6"/>
<path d="M203.418 718.472C209.689 720.296 215.961 722.12 222.422 723.999C222.422 736.766 222.422 749.532 222.422 762.686C218.241 762.686 214.06 762.686 209.753 762.686C207.662 773.629 205.572 784.572 203.418 795.846C182.513 794.022 161.608 792.198 140.07 790.319C140.07 788.495 140.07 786.672 140.07 784.793C152.613 784.793 165.155 784.793 178.079 784.793C175.988 781.145 173.898 777.497 171.744 773.739C152.553 770.104 152.553 770.104 133.735 768.212C131.644 762.741 129.554 757.27 127.4 751.632C135.762 753.456 144.124 755.28 152.739 757.159C150.649 748.04 148.558 738.921 146.404 729.526C150.585 729.526 154.766 729.526 159.074 729.526C161.165 740.468 163.255 751.411 165.409 762.686C171.68 762.686 177.952 762.686 184.413 762.686C184.413 766.333 184.413 769.981 184.413 773.739C188.594 773.739 192.775 773.739 197.083 773.739C190.812 757.325 184.54 740.911 178.079 723.999C186.441 729.47 194.802 734.942 203.418 740.579C203.418 733.284 203.418 725.988 203.418 718.472Z" fill="#8B9FAF"/>
<path d="M216.086 44.2144C235.091 45.9414 235.091 45.9414 254.095 49.7411C256.186 53.3887 258.276 57.0363 260.43 60.7945C254.158 60.7945 247.887 60.7945 241.425 60.7945C247.501 62.1623 247.501 62.1623 253.699 63.5578C266.765 71.8479 266.765 71.8479 269.858 82.4263C271.374 93.5996 272.269 104.834 273.1 116.061C264.738 117.885 256.376 119.709 247.76 121.588C247.76 112.469 247.76 103.35 247.76 93.9547C239.79 94.6386 231.82 95.3225 223.609 96.0272C219.126 96.4119 214.642 96.7966 210.023 97.193C195.182 99.076 195.182 99.076 178.077 110.535C184.412 99.4814 190.747 88.428 197.082 77.3746C209.625 77.3746 222.168 77.3746 235.091 77.3746C226.729 68.2555 218.367 59.1364 209.751 49.7411C211.842 47.9172 213.932 46.0934 216.086 44.2144Z" fill="#D5D8C5"/>
<path d="M70.3854 552.67C74.7406 561.305 74.7406 561.305 76.7202 574.777C71.8539 583.822 66.976 592.862 62.0215 601.871C56.76 616.037 57.7656 626.961 58.9035 641.788C60.122 669.389 52.5452 686.644 38.3153 711.217C21.3461 740.059 21.3461 740.059 18.9149 771.665C26.5677 791.695 30.246 797.415 51.3809 806.898C56.0845 809.064 60.7882 811.23 65.6343 813.461C69.2927 814.943 72.951 816.425 76.7202 817.952C59.5809 823.49 52.4401 823.786 34.752 818.642C25.4703 814.807 16.2232 810.905 7.03712 806.898C-5.55311 769.552 -1.20138 739.597 19.7068 705.69C35.7905 677.136 41.4416 657.958 38.7855 626.546C38.6582 604.105 48.1472 584.295 57.7158 563.723C61.8967 563.723 66.0777 563.723 70.3854 563.723C70.3854 560.076 70.3854 556.428 70.3854 552.67Z" fill="#D7D8D2"/>
<path d="M121.067 547.143C127.338 548.967 133.61 550.791 140.071 552.67C144.252 570.908 148.433 589.146 152.741 607.937C148.56 607.937 144.379 607.937 140.071 607.937C129.239 650.801 125.823 691.202 127.402 735.051C121.13 729.579 114.859 724.108 108.397 718.471C104.216 722.118 100.035 725.766 95.7274 729.524C94.5468 706.865 96.9701 694.196 108.397 674.257C109.457 656.754 109.457 656.754 108.397 641.097C102.126 648.392 95.8541 655.687 89.3926 663.204C89.3926 652.261 89.3926 641.318 89.3926 630.044C93.5736 630.044 97.7546 630.044 102.062 630.044C104.153 619.101 106.243 608.158 108.397 596.883C112.578 596.883 116.759 596.883 121.067 596.883C123.157 593.236 125.248 589.588 127.402 585.83C123.221 585.83 119.04 585.83 114.732 585.83C114.462 574.779 114.473 563.721 114.732 552.67C116.822 550.846 118.913 549.022 121.067 547.143Z" fill="#9AAFBC"/>
<path d="M377.228 166.146C400.338 169.652 422.216 175.024 444.139 182.381C444.139 187.852 444.139 193.323 444.139 198.961C448.712 200.215 453.285 201.468 457.997 202.76C475.814 210.014 475.814 210.014 491.255 224.867C506.2 239.368 506.2 239.368 526.492 238.338C549.966 230.659 560.606 220.792 577.171 204.487C587.729 195.276 598.287 186.065 608.845 176.854C596.967 203.106 596.967 203.106 589.841 215.541C598.203 221.012 606.565 226.484 615.18 232.121C609.954 231.665 604.727 231.209 599.343 230.739C574.099 232.312 560.091 238.811 538.716 249.932C523.071 255.43 516.65 254.232 501.153 248.701C489.364 240.762 478.909 232.062 468.093 223.14C455.833 214.883 446.589 212.328 431.47 210.014C434.679 214.673 434.679 214.673 437.953 219.427C445.209 234.317 444.437 242.513 441.764 258.373C440.71 264.998 440.71 264.998 439.636 271.758C439.032 275.092 438.427 278.426 437.805 281.861C435.714 281.861 433.624 281.861 431.47 281.861C431.16 278.527 430.849 275.193 430.529 271.758C430.056 267.341 429.582 262.924 429.094 258.373C428.653 254.013 428.212 249.653 427.758 245.16C425.956 231.903 425.956 231.903 417.761 220.808C412.465 210.014 412.465 210.014 418.008 197.579C421.536 192.792 421.536 192.792 425.135 187.907C401.984 182.753 379.33 178.233 355.452 176.854C338.082 185.965 338.082 185.965 330.113 198.961C325.932 197.137 321.751 195.313 317.443 193.434C335.772 172.285 347.034 163.387 377.228 166.146Z" fill="#DFE4E3"/>
<path d="M203.419 27.6329C188.786 31.2806 174.152 34.9282 159.075 38.6863C159.075 42.334 159.075 45.9816 159.075 49.7397C162.374 47.9872 165.674 46.2346 169.073 44.4289C188.685 37.088 205.915 36.345 227.175 35.2322C234.59 34.819 242.004 34.4057 249.644 33.98C255.295 33.7093 260.945 33.4386 266.767 33.1596C266.767 38.6311 266.767 44.1025 266.767 49.7397C270.991 61.7143 270.991 61.7143 279.437 71.8465C292.424 76.2971 292.424 76.2971 304.776 77.3733C304.776 88.3161 304.776 99.259 304.776 110.533C298.505 106.886 292.234 103.238 285.772 99.4801C285.772 94.0086 285.772 88.5372 285.772 82.9C281.591 82.9 277.41 82.9 273.102 82.9C275.193 88.3714 277.283 93.8428 279.437 99.4801C275.256 99.4801 271.075 99.4801 266.767 99.4801C266.245 95.1485 265.722 90.8169 265.184 86.3541C262.155 71.0314 262.155 71.0314 247.367 64.5928C243.317 63.3389 239.266 62.085 235.093 60.7931C241.365 58.9693 247.636 57.1455 254.098 55.2664C221.256 46.4505 201.491 53.1126 171.448 64.6575C157.073 73.0099 152.684 80.1142 146.406 93.9534C138.044 92.1295 129.682 90.3057 121.066 88.4267C124.258 64.0608 133.174 50.7041 152.741 33.1596C174.192 23.1176 179.931 20.8022 203.419 27.6329Z" fill="#B6B8A5"/>
<path d="M545.5 49.7393C549.551 53.1589 553.601 56.5785 557.774 60.1018C582.342 74.9739 605.075 78.694 634.188 82.8995C634.882 86.0413 635.576 89.1831 636.291 92.4201C641.354 113.928 646.763 133.995 657.152 154.056C665.862 171.327 665.862 171.327 665.862 187.907C650.025 196.197 650.025 196.197 634.188 204.487C634.188 209.958 634.188 215.43 634.188 221.067C623.736 219.243 613.283 217.419 602.514 215.54C604.133 202.591 606.269 189.684 608.849 176.853C613.03 175.03 617.211 173.206 621.518 171.327C615.247 165.855 608.975 160.384 602.514 154.747C615.057 154.747 627.6 154.747 640.523 154.747C629.461 117.293 629.461 117.293 599.619 90.4339C588.386 85.9896 576.981 81.8576 565.421 78.1068C551.835 71.8461 551.835 71.8461 546.763 60.0586C546.346 56.6532 545.93 53.2478 545.5 49.7393Z" fill="#C6CDCC"/>
<path d="M507.491 143.693C526.305 146.429 526.305 146.429 545.5 149.22C551.834 165.8 551.834 165.8 545.896 177.198C543.674 180.732 541.453 184.266 539.165 187.906C539.165 191.554 539.165 195.202 539.165 198.96C557.979 201.696 557.979 201.696 577.174 204.487C570.332 221.796 564.444 226.626 546.291 236.611C525.291 243.573 521.223 244.22 501.156 237.647C488.981 229.853 488.981 229.853 477.4 220.721C473.513 217.693 469.626 214.666 465.621 211.546C462.714 209.216 459.807 206.887 456.812 204.487C463.083 195.368 469.355 186.248 475.817 176.853C487.694 178.235 487.694 178.235 501.156 182.38C509.074 193.779 509.074 193.779 513.825 204.487C507.554 206.31 501.283 208.134 494.821 210.013C496.911 213.661 499.002 217.309 501.156 221.067C520.346 224.702 520.346 224.702 539.165 226.593C537.205 222.718 535.245 218.842 533.226 214.849C526.286 198.466 522.921 183.06 520.16 165.8C513.889 163.976 507.617 162.152 501.156 160.273C503.246 154.802 505.337 149.33 507.491 143.693Z" fill="#9EA8A1"/>
<path d="M266.765 303.968C278.809 434.179 278.809 434.179 260.43 464.243C256.249 464.243 252.068 464.243 247.761 464.243C245.67 447.828 243.58 431.414 241.426 414.502C235.154 416.326 228.883 418.15 222.421 420.029C224.512 412.734 226.602 405.438 228.756 397.922C232.937 397.922 237.118 397.922 241.426 397.922C241.034 391.197 240.642 384.472 240.238 377.542C240.107 356.044 245.399 343.56 260.43 326.075C249.978 329.723 239.525 333.37 228.756 337.128C230.736 326.766 230.736 326.766 235.091 315.022C254.096 303.968 254.096 303.968 266.765 303.968Z" fill="#929C9A"/>
<path d="M140.069 292.915C144.25 292.915 148.431 292.915 152.738 292.915C152.738 296.562 152.738 300.21 152.738 303.968C156.919 303.968 161.1 303.968 165.408 303.968C166.976 307.274 168.544 310.579 170.159 313.985C177.17 326.838 177.17 326.838 191.539 333.674C203.417 342.655 203.417 342.655 206.189 359.235C203.417 375.815 203.417 375.815 194.707 386.178C184.413 392.395 184.413 392.395 171.743 392.395C171.743 396.043 171.743 399.69 171.743 403.449C163.381 401.625 155.019 399.801 146.404 397.922C160.463 379.523 167.605 377.195 190.747 370.288C188.484 355.971 185.289 349.034 174.119 338.164C152.793 328.862 137.524 332.921 114.729 337.128C114.729 333.481 114.729 329.833 114.729 326.075C118.91 324.251 123.091 322.427 127.399 320.548C123.218 318.724 119.037 316.9 114.729 315.021C114.729 311.374 114.729 307.726 114.729 303.968C123.091 303.968 131.453 303.968 140.069 303.968C140.069 300.32 140.069 296.673 140.069 292.915Z" fill="#E2DCAF"/>
<path d="M260.433 121.586C266.768 138.166 266.768 138.166 261.126 149.263C258.284 153.124 255.442 156.985 252.515 160.964C249.738 164.854 246.962 168.743 244.101 172.751C235.094 182.38 235.094 182.38 216.089 187.906C195.897 179.962 195.897 179.962 178.08 171.326C186.442 178.621 194.804 185.917 203.42 193.433C165.705 181.873 165.705 181.873 152.741 165.8C151.553 150.947 151.553 150.947 152.741 138.166C159.012 146.373 159.012 146.373 165.411 154.746C171.682 154.746 177.954 154.746 184.415 154.746C191.601 155.202 198.787 155.658 206.191 156.128C228.986 156.589 228.986 156.589 243.804 144.384C254.269 133.207 254.269 133.207 260.433 121.586Z" fill="#A9B0A2"/>
<path d="M216.086 60.7934C191 71.7363 191 71.7363 165.407 82.9002C165.407 95.6669 165.407 108.434 165.407 121.587C169.588 123.411 173.769 125.235 178.077 127.114C178.077 130.761 178.077 134.409 178.077 138.167C169.715 136.343 161.353 134.52 152.738 132.641C159.561 156.452 165.657 174.841 184.412 193.434C166.876 191.852 160.141 188.907 147.986 177.545C133.243 145.389 135.353 112.505 147.195 79.7915C166.39 58.0207 186.272 52.1233 216.086 60.7934Z" fill="#E0DFC6"/>
<path d="M640.52 149.222C655.709 162.473 655.361 167.641 657.149 185.836C657.623 190.353 658.096 194.87 658.584 199.523C659.05 204.717 659.05 204.717 659.525 210.015C651.163 208.192 642.801 206.368 634.185 204.489C634.185 209.96 634.185 215.432 634.185 221.069C623.733 219.245 613.28 217.421 602.511 215.542C604.13 202.592 606.266 189.686 608.846 176.855C613.027 175.031 617.208 173.208 621.516 171.328C615.244 165.857 608.973 160.386 602.511 154.748C620.724 151.294 620.724 151.294 640.52 149.222Z" fill="#BFC2B7"/>
<path d="M203.416 773.738C213.869 777.386 224.321 781.034 235.09 784.792C226.38 796.191 226.38 796.191 209.751 806.898C195.3 806.164 195.3 806.164 178.869 803.79C156.026 799.976 156.026 799.976 135.836 807.654C132.921 810.368 130.006 813.083 127.002 815.879C108.394 829.005 108.394 829.005 94.3137 827.753C69.4608 820.772 44.3825 812.542 26.041 795.845C26.041 790.374 26.041 784.902 26.041 779.265C30.222 779.265 34.403 779.265 38.7107 779.265C42.0424 784.394 42.0424 784.394 45.4414 789.628C62.075 805.544 77.3747 808.263 101.218 812.209C116.005 813.794 116.005 813.794 127.794 802.063C131.845 798.187 135.895 794.311 140.068 790.318C157.27 788.476 173.339 789.584 190.747 790.318C194.928 788.495 199.109 786.671 203.416 784.792C203.416 781.144 203.416 777.496 203.416 773.738Z" fill="#62768A"/>
<path d="M190.746 259.754C203.416 280.479 203.416 280.479 203.416 292.914C213.868 294.738 224.321 296.562 235.09 298.441C237.18 294.793 239.271 291.146 241.425 287.387C249.787 292.859 258.149 298.33 266.764 303.968C260.623 307.045 254.482 310.123 248.155 313.294C227.552 324.308 227.552 324.308 223.212 341.273C222.951 345.376 222.689 349.48 222.42 353.708C218.239 353.708 214.058 353.708 209.751 353.708C209.751 340.941 209.751 328.174 209.751 315.021C202.303 314.166 202.303 314.166 194.705 313.294C178.076 309.494 178.076 309.494 165.407 292.914C171.678 291.09 177.95 289.266 184.411 287.387C186.502 278.268 188.592 269.149 190.746 259.754Z" fill="#CAC9AB"/>
<path d="M507.49 132.639C541.964 134.519 564.102 153.104 589.843 171.326C584.695 187.561 584.695 187.561 577.173 204.486C570.901 206.31 564.63 208.134 558.168 210.013C558.168 206.365 558.168 202.718 558.168 198.96C551.897 198.96 545.625 198.96 539.164 198.96C535.205 188.942 535.205 188.942 532.829 176.853C537.01 171.381 541.191 165.91 545.499 160.273C545.499 156.625 545.499 152.977 545.499 149.219C539.227 151.043 532.956 152.867 526.494 154.746C526.494 151.098 526.494 147.451 526.494 143.693C520.223 141.869 513.951 140.045 507.49 138.166C507.49 136.342 507.49 134.518 507.49 132.639Z" fill="#CFCB9F"/>
<path d="M254.097 154.747C256.187 160.218 258.278 165.689 260.432 171.327C251.325 183.416 251.325 183.416 241.427 193.433C245.608 195.257 249.789 197.081 254.097 198.96C247.825 207.167 247.825 207.167 241.427 215.54C237.246 215.54 233.065 215.54 228.757 215.54C228.757 211.893 228.757 208.245 228.757 204.487C223.417 204.95 218.076 205.413 212.574 205.89C205.633 206.453 198.692 207.016 191.54 207.596C184.632 208.173 177.723 208.75 170.606 209.344C152.739 210.014 152.739 210.014 140.07 204.487C140.07 200.839 140.07 197.192 140.07 193.433C146.08 194.573 152.09 195.713 158.282 196.888C168.082 197.914 168.082 197.914 178.079 198.96C182.26 195.313 186.441 191.665 190.748 187.907C184.477 180.612 178.205 173.316 171.744 165.8C176.448 167.51 181.151 169.22 185.997 170.981C200.295 175.801 213.839 179.488 228.757 182.38C237.119 173.261 245.481 164.142 254.097 154.747Z" fill="#D1D0B3"/>
<path d="M152.442 327.305C166.378 331.923 177.076 337.479 189.164 345.073C193.051 347.459 196.938 349.846 200.943 352.305C205.303 355.735 205.303 355.735 209.752 359.235C209.752 362.883 209.752 366.53 209.752 370.288C213.933 370.288 218.114 370.288 222.422 370.288C222.422 375.76 222.422 381.231 222.422 386.868C218.241 386.868 214.06 386.868 209.752 386.868C207.661 392.34 205.571 397.811 203.417 403.449C197.146 405.272 190.874 407.096 184.413 408.975C184.413 405.328 184.413 401.68 184.413 397.922C171.87 399.746 159.327 401.569 146.404 403.449C151.155 392.741 151.155 392.741 159.073 381.342C172.139 377.888 172.139 377.888 184.413 375.815C186.503 372.167 188.594 368.52 190.747 364.762C178.204 366.585 165.662 368.409 152.738 370.288C150.648 375.76 148.557 381.231 146.404 386.868C142.223 385.045 138.042 383.221 133.734 381.342C135.498 373.306 135.498 373.306 137.297 365.107C138.669 356.729 138.669 356.729 140.069 348.182C137.978 346.358 135.888 344.534 133.734 342.655C131.643 351.774 129.553 360.893 127.399 370.288C123.218 368.465 119.037 366.641 114.729 364.762C116.709 351.636 116.709 351.636 121.064 337.128C140.069 326.075 140.069 326.075 152.442 327.305Z" fill="#B8BFBB"/>
<path d="M298.442 60.793C306.804 64.4406 315.166 68.0882 323.782 71.8464C322.606 78.6857 321.43 85.525 320.218 92.5715C317.782 109.222 316.893 122.14 323.782 138.167C318.686 140.675 313.59 143.182 308.34 145.766C291.546 153.35 291.546 153.35 285.773 165.8C289.954 167.624 294.135 169.448 298.442 171.327C285.899 174.975 273.356 178.622 260.433 182.38C253.333 159.858 255.395 145.511 263.205 123.314C270.567 103.417 270.567 103.417 273.103 82.8998C277.284 82.8998 281.465 82.8998 285.773 82.8998C289.954 90.195 294.135 97.4903 298.442 105.007C294.81 89.1602 292.985 83.6655 279.438 71.8464C285.709 71.8464 291.981 71.8464 298.442 71.8464C298.442 68.1987 298.442 64.5511 298.442 60.793Z" fill="#C7C9B0"/>
<path d="M222.425 569.25C252.515 573.396 252.515 573.396 266.768 585.831C273.04 584.007 279.311 582.183 285.773 580.304C295.317 596.957 293.233 611.711 292.108 630.044C287.927 633.692 283.746 637.339 279.438 641.098C260.815 674.189 254.096 704.646 266.768 740.578C252.67 730.849 248.13 725.992 245.24 710.246C245.621 670.131 253.804 647.009 279.438 613.464C268.986 615.288 258.533 617.112 247.764 618.991C243.583 629.934 239.402 640.877 235.094 652.151C228.759 635.571 228.759 635.571 234.698 623.481C238.03 618.523 238.03 618.523 241.429 613.464C239.339 611.64 237.248 609.816 235.094 607.937C234.837 598.729 234.824 589.512 235.094 580.304C230.913 580.304 226.732 580.304 222.425 580.304C224.515 596.718 226.606 613.132 228.759 630.044C213.504 616.735 211.776 609.87 209.755 591.357C215.694 578.577 215.694 578.577 222.425 569.25Z" fill="#B4BBB7"/>
<path d="M32.3756 315.021C48.4438 329.04 47.1767 335.635 48.6086 355.09C49.1067 360.554 49.6048 366.019 50.1181 371.649C50.5345 376.671 50.951 381.694 51.3801 386.869C53.411 410.345 54.0968 417.026 73.9479 433.5C98.3938 456.364 91.9803 488.357 91.1212 517.502C89.3891 536.089 89.3891 536.089 83.0542 552.67C78.8732 552.67 74.6922 552.67 70.3846 552.67C68.2941 556.317 66.2036 559.965 64.0497 563.723C66.1402 529.071 68.2307 494.418 70.3846 458.716C66.2036 458.716 62.0226 458.716 57.7149 458.716C33.5389 427.078 36.8554 396.278 38.7104 359.235C30.3484 357.411 21.9865 355.587 13.3711 353.708C21.7331 353.708 30.095 353.708 38.7104 353.708C34.5294 342.766 30.3484 331.823 26.0408 320.548C28.1312 318.724 30.2217 316.901 32.3756 315.021Z" fill="#D5D4C8"/>
<path d="M114.73 71.8467C118.911 73.6705 123.092 75.4943 127.4 77.3734C125.309 81.021 123.219 84.6686 121.065 88.4268C129.427 88.4268 137.789 88.4268 146.404 88.4268C146.184 93.2927 145.963 98.1585 145.736 103.172C145.565 109.591 145.393 116.01 145.216 122.623C144.886 132.145 144.886 132.145 144.548 141.859C147.319 169.347 161.367 186.296 184.413 204.487C169.78 202.664 155.146 200.84 140.069 198.961C139.125 210.426 139.125 210.426 146.404 221.068C129.68 219.244 112.956 217.42 95.7256 215.541C95.7256 208.246 95.7256 200.95 95.7256 193.434C106.178 191.61 116.631 189.786 127.4 187.907C126.673 178.232 125.866 168.561 125.024 158.892C124.363 150.813 124.363 150.813 123.688 142.571C121.135 127.527 116.177 118.358 108.395 105.007C110.771 87.0451 110.771 87.0451 114.73 71.8467Z" fill="#C1BE9C"/>
<path d="M222.42 442.136C232.819 460.28 225.708 477.648 222.42 497.403C230.782 490.108 239.144 482.813 247.76 475.296C247.76 488.063 247.76 500.83 247.76 513.983C243.579 513.983 239.398 513.983 235.09 513.983C235.09 517.631 235.09 521.279 235.09 525.037C230.909 525.037 226.728 525.037 222.42 525.037C222.42 528.684 222.42 532.332 222.42 536.09C218.239 536.09 214.058 536.09 209.751 536.09C209.751 539.738 209.751 543.385 209.751 547.144C222.294 539.848 234.837 532.553 247.76 525.037C251.142 532.839 254.422 540.676 257.658 548.525C259.495 552.885 261.333 557.245 263.226 561.737C267.051 575.833 265.798 583.361 260.429 596.884C258.339 589.589 256.248 582.293 254.095 574.777C243.642 572.953 233.19 571.129 222.42 569.25C222.42 563.779 222.42 558.307 222.42 552.67C216.149 552.67 209.877 552.67 203.416 552.67C202.899 540.469 202.532 528.263 202.228 516.056C201.897 505.861 201.897 505.861 201.56 495.46C203.55 473.837 209.947 460.702 222.42 442.136Z" fill="#9BA7A6"/>
<path d="M336.448 110.534C340.629 112.358 344.81 114.182 349.118 116.061C349.118 119.709 349.118 123.356 349.118 127.114C378.385 127.114 407.651 127.114 437.805 127.114C437.805 130.762 437.805 134.41 437.805 138.168C450.348 138.168 462.891 138.168 475.814 138.168C456.924 154.648 442.848 154.575 416.376 155.482C408.553 155.468 400.73 155.453 392.67 155.439C384.814 155.453 376.958 155.467 368.864 155.482C349.118 154.748 349.118 154.748 336.448 149.221C336.056 152.641 335.664 156.06 335.26 159.584C330.113 171.328 330.113 171.328 313.88 178.236C308.785 179.604 303.689 180.972 298.439 182.381C304.318 176.91 304.318 176.91 310.317 171.328C326.938 150.856 330.752 134.966 336.448 110.534Z" fill="#CBCCB1"/>
<path d="M89.3882 513.982C105.067 519.454 105.067 519.454 121.062 525.036C118.972 545.098 116.881 565.16 114.727 585.83C118.908 585.83 123.089 585.83 127.397 585.83C127.397 596.772 127.397 607.715 127.397 618.99C125.307 611.694 123.216 604.399 121.062 596.883C116.881 596.883 112.7 596.883 108.393 596.883C106.302 606.002 104.212 615.121 102.058 624.516C99.9673 624.516 97.8769 624.516 95.723 624.516C95.723 613.574 95.723 602.631 95.723 591.356C89.4515 591.356 83.18 591.356 76.7185 591.356C74.628 596.828 72.5375 602.299 70.3837 607.936C60.4764 585.974 68.0939 570.279 76.3226 548.524C79.936 538.821 79.936 538.821 83.6225 528.922C85.5252 523.992 87.4278 519.062 89.3882 513.982Z" fill="#B8BCB0"/>
<path d="M323.779 105.007C327.96 105.007 332.141 105.007 336.448 105.007C334.778 138.452 330.862 156.587 304.774 182.381C306.865 187.853 308.955 193.324 311.109 198.961C298.439 204.488 285.77 210.015 273.1 215.541C266.306 218.733 259.512 221.925 252.512 225.213C246.763 227.493 241.014 229.773 235.091 232.121C230.91 230.298 226.729 228.474 222.421 226.595C228.693 224.771 234.964 222.947 241.426 221.068C248.205 205.476 247.761 193.957 247.761 176.854C269.711 174.119 269.711 174.119 292.105 171.328C292.105 164.032 292.105 156.737 292.105 149.221C296.155 148.081 300.205 146.941 304.378 145.767C319.656 138.746 319.656 138.746 322.195 120.897C322.718 115.653 323.24 110.41 323.779 105.007Z" fill="#939D99"/>
<path d="M488.484 143.693C488.484 147.34 488.484 150.988 488.484 154.746C475.941 156.57 463.398 158.394 450.475 160.273C454.656 173.04 458.837 185.806 463.145 198.96C456.873 198.96 450.602 198.96 444.14 198.96C442.05 193.488 439.959 188.017 437.805 182.38C411.498 173.512 376.967 167.277 349.118 171.326C338.486 178.614 327.92 185.977 317.443 193.433C311.172 191.609 304.9 189.786 298.439 187.906C303.535 184.601 308.63 181.295 313.88 177.889C331.528 166.853 331.528 166.853 336.448 149.22C343.471 149.284 350.493 149.348 357.729 149.414C367 149.466 376.272 149.516 385.543 149.565C390.165 149.611 394.787 149.658 399.549 149.705C425.214 149.974 425.214 149.974 450.432 146.422C463.145 143.693 463.145 143.693 488.484 143.693Z" fill="#869093"/>
<path d="M235.093 66.319C235.093 69.9666 235.093 73.6143 235.093 77.3724C222.55 77.3724 210.007 77.3724 197.084 77.3724C194.994 84.6677 192.903 91.9629 190.749 99.4792C192.84 97.6554 194.93 95.8316 197.084 93.9525C209.751 93.727 222.426 93.7174 235.093 93.9525C237.184 97.6001 239.274 101.248 241.428 105.006C228.885 106.83 216.342 108.654 203.419 110.533C201.328 123.299 199.238 136.066 197.084 149.22C188.722 149.22 180.36 149.22 171.745 149.22C169.654 152.867 167.564 156.515 165.41 160.273C161.229 151.154 157.048 142.035 152.74 132.639C161.102 134.463 169.464 136.287 178.08 138.166C178.08 134.518 178.08 130.871 178.08 127.113C171.808 125.289 165.537 123.465 159.075 121.586C157.095 103.279 157.095 103.279 159.075 82.8991C174.12 72.5365 174.12 72.5365 190.749 66.319C207.642 58.9501 217.145 62.6105 235.093 66.319Z" fill="#D5C898"/>
<path d="M190.749 303.968C203.292 309.44 203.292 309.44 216.089 315.022C213.998 327.788 211.908 340.555 209.754 353.709C213.935 353.709 218.116 353.709 222.424 353.709C222.424 344.59 222.424 335.47 222.424 326.075C224.514 329.723 226.605 333.37 228.758 337.128C239.211 333.481 249.663 329.833 260.433 326.075C254.098 348.182 254.098 348.182 250.93 358.89C247.446 370.797 247.446 370.797 244.991 385.142C243.816 389.359 242.64 393.577 241.428 397.922C237.247 399.746 233.066 401.57 228.758 403.449C227.844 407.78 226.929 412.112 225.987 416.575C222.083 432.471 217.5 437.515 203.419 447.662C207.946 421.336 214.792 396.032 222.424 370.289C218.243 370.289 214.062 370.289 209.754 370.289C194.444 346.913 188.543 330.92 190.749 303.968Z" fill="#B9B896"/>
<path d="M501.154 138.168C505.335 139.992 509.516 141.816 513.823 143.695C507.552 151.902 507.552 151.902 501.154 160.275C509.516 162.099 517.878 163.922 526.493 165.801C530.674 185.863 534.855 205.925 539.163 226.595C526.62 226.595 514.077 226.595 501.154 226.595C499.063 221.124 496.973 215.652 494.819 210.015C499 208.191 503.181 206.367 507.489 204.488C503.308 197.193 499.127 189.898 494.819 182.382C488.547 182.382 482.276 182.382 475.814 182.382C473.724 186.029 471.633 189.677 469.48 193.435C465.299 193.435 461.118 193.435 456.81 193.435C454.719 182.492 452.629 171.549 450.475 160.275C463.018 158.451 475.561 156.627 488.484 154.748C488.484 151.1 488.484 147.453 488.484 143.695C492.665 141.871 496.846 140.047 501.154 138.168Z" fill="#D7D2AC"/>
<path d="M285.77 856.638C292.042 858.462 298.313 860.286 304.775 862.165C314.298 911.214 306.282 952.466 292.105 1000.33C287.924 1000.33 283.743 1000.33 279.435 1000.33C279.252 979.492 279.139 958.652 279.04 937.812C278.986 931.888 278.933 925.964 278.879 919.861C278.858 914.179 278.838 908.497 278.817 902.644C278.784 897.405 278.75 892.167 278.716 886.769C279.435 873.218 279.435 873.218 285.77 856.638Z" fill="#959B92"/>
<path d="M108.396 635.57C110.486 635.57 112.577 635.57 114.73 635.57C116.328 671.104 116.328 671.104 107.208 689.11C104.66 695.437 104.66 695.437 102.061 701.891C108.223 709.37 114.565 716.739 121.065 723.998C119.086 739.196 119.086 739.196 114.73 751.631C106.368 747.983 98.0064 744.336 89.3911 740.578C89.3911 744.225 89.3911 747.873 89.3911 751.631C93.5721 753.455 97.7531 755.279 102.061 757.158C102.061 760.805 102.061 764.453 102.061 768.211C91.6083 766.387 81.1558 764.564 70.3866 762.684C68.2961 757.213 66.2056 751.742 64.0518 746.104C68.2327 746.104 72.4137 746.104 76.7214 746.104C76.7214 720.571 76.7214 695.038 76.7214 668.731C80.9024 668.731 85.0834 668.731 89.3911 668.731C95.6626 657.788 101.934 646.845 108.396 635.57Z" fill="#BFC9C1"/>
<path d="M127.4 198.961C131.532 199.36 135.664 199.759 139.921 200.17C169.677 202.927 198.784 205.176 228.757 204.488C228.757 208.135 228.757 211.783 228.757 215.541C232.938 217.365 237.119 219.189 241.427 221.068C237.246 224.715 233.065 228.363 228.757 232.121C227.262 255.164 228.863 276.025 235.092 298.442C224.64 296.618 214.187 294.794 203.418 292.915C196.321 262.576 198.4 244.09 209.753 215.541C203.481 217.365 197.21 219.189 190.748 221.068C168.576 222.795 168.576 222.795 146.404 221.068C135.516 209.906 135.516 209.906 127.4 198.961Z" fill="#919F9C"/>
<path d="M222.422 11.0546C222.422 14.7023 222.422 18.3499 222.422 22.108C226.864 21.2602 231.307 20.4125 235.884 19.539C284.389 12.5819 284.389 12.5819 308.016 24.8282C320.424 34.5063 331.862 44.3197 342.784 55.2682C340.693 58.9159 338.603 62.5635 336.449 66.3216C331.353 61.6481 326.258 56.9746 321.008 52.1595C282.796 27.7078 228.533 39.3109 184.413 44.2148C175.941 45.9651 167.486 47.7833 159.074 49.7415C159.074 46.0939 159.074 42.4463 159.074 38.6881C171.617 35.0405 184.16 31.3929 197.083 27.6347C188.721 22.1633 180.359 16.6919 171.743 11.0546C192.584 4.99411 201.6 6.63586 222.422 11.0546Z" fill="#D7DED8"/>
<path d="M235.091 93.9536C247.76 93.9536 247.76 93.9536 260.43 105.007C263.201 117.788 263.201 117.788 260.43 132.641C247.364 148.184 247.364 148.184 228.756 160.274C204.604 162.001 204.604 162.001 184.412 160.274C182.321 156.626 180.231 152.979 178.077 149.221C184.349 149.221 190.62 149.221 197.082 149.221C197.082 136.454 197.082 123.687 197.082 110.534C209.625 106.886 222.168 103.238 235.091 99.4803C235.091 97.6565 235.091 95.8327 235.091 93.9536Z" fill="#E3D395"/>
<path d="M203.418 718.472C209.689 720.296 215.961 722.12 222.422 723.999C222.422 736.766 222.422 749.532 222.422 762.686C218.241 762.686 214.06 762.686 209.753 762.686C207.662 773.629 205.572 784.572 203.418 795.846C193.121 795.067 182.828 794.255 172.536 793.428C166.803 792.979 161.071 792.53 155.164 792.068C140.07 790.319 140.07 790.319 127.4 784.793C127.4 781.145 127.4 777.497 127.4 773.739C144.124 777.387 160.848 781.034 178.079 784.793C175.988 781.145 173.898 777.497 171.744 773.739C152.553 770.104 152.553 770.104 133.735 768.212C131.644 762.741 129.554 757.27 127.4 751.632C135.762 753.456 144.124 755.28 152.739 757.159C150.649 748.04 148.558 738.921 146.404 729.526C150.585 729.526 154.766 729.526 159.074 729.526C161.165 740.468 163.255 751.411 165.409 762.686C171.68 762.686 177.952 762.686 184.413 762.686C184.413 766.333 184.413 769.981 184.413 773.739C188.594 773.739 192.775 773.739 197.083 773.739C190.812 757.325 184.54 740.911 178.079 723.999C186.441 729.47 194.802 734.942 203.418 740.579C203.418 733.284 203.418 725.988 203.418 718.472Z" fill="#8DA0AD"/>
<path d="M279.437 602.411C281.527 607.883 283.618 613.354 285.771 618.991C282.897 621.157 280.022 623.323 277.061 625.554C251.821 650.115 251.789 677.614 252.464 709.038C254.68 729.339 262.537 744.593 273.102 762.685C293.327 803.704 293.327 803.704 285.771 823.479C278.324 819.205 278.324 819.205 270.726 814.844C240.148 804.265 216.289 807.864 184.414 812.426C202.698 803.718 219.467 798.815 239.844 795.155C247.438 793.766 247.438 793.766 255.186 792.348C259.008 791.679 262.829 791.009 266.767 790.319C264.938 786.764 263.108 783.209 261.224 779.546C239.394 733.19 229.393 686.176 249.742 637.989C269.203 613.465 269.203 613.465 279.437 602.411Z" fill="#E9EDE8"/>
<path d="M380.791 77.373C405.876 79.1969 430.962 81.0207 456.808 82.8997C456.808 92.0188 456.808 101.138 456.808 110.533C464.623 109.764 464.623 109.764 472.596 108.979C515.293 106.57 541.231 107.918 575.191 131.949C584.496 139.363 593.644 146.934 602.51 154.747C606.691 158.394 610.872 162.042 615.179 165.8C590.648 164.463 579.063 157.392 561.333 143.693C528.173 120.438 491.545 121.696 450.474 121.587C448.383 112.468 446.293 103.349 444.139 93.9531C438.39 94.2951 432.641 94.6371 426.718 94.9894C406.13 93.9531 406.13 93.9531 380.791 77.373Z" fill="#E2E5E5"/>
<path d="M216.086 44.2144C235.091 45.9414 235.091 45.9414 254.095 49.7411C256.186 53.3887 258.276 57.0363 260.43 60.7945C254.158 60.7945 247.887 60.7945 241.425 60.7945C247.501 62.1623 247.501 62.1623 253.699 63.5578C266.765 71.8479 266.765 71.8479 269.858 82.4263C271.374 93.5996 272.269 104.834 273.1 116.061C264.738 117.885 256.376 119.709 247.76 121.588C247.76 112.469 247.76 103.35 247.76 93.9547C239.79 94.6386 231.82 95.3225 223.609 96.0272C219.126 96.4119 214.642 96.7966 210.023 97.193C195.182 99.076 195.182 99.076 178.077 110.535C184.412 99.4814 190.747 88.428 197.082 77.3746C209.625 77.3746 222.168 77.3746 235.091 77.3746C226.729 68.2555 218.367 59.1364 209.751 49.7411C211.842 47.9172 213.932 46.0934 216.086 44.2144Z" fill="#D5D8C5"/>
<path d="M171.743 436.609C175.924 438.433 180.105 440.257 184.412 442.136C182.322 445.442 180.231 448.747 178.078 452.153C170.426 464.541 170.426 464.541 171.743 480.823C169.652 484.471 167.562 488.118 165.408 491.876C175.86 488.229 186.313 484.581 197.082 480.823C198.493 488.756 199.791 496.704 201.041 504.657C201.776 509.081 202.511 513.505 203.269 518.063C203.417 530.563 203.417 530.563 190.747 547.143C180.295 545.32 169.842 543.496 159.073 541.617C143.097 478.141 143.097 478.141 151.204 457.615C158.281 448.699 158.281 448.699 171.743 436.609Z" fill="#EBE9C9"/>
<path d="M311.108 193.434C313.199 197.082 315.289 200.729 317.443 204.487C307.295 209.919 297.129 215.326 286.956 220.722C278.468 225.243 278.468 225.243 269.808 229.854C254.095 237.648 254.095 237.648 235.09 243.174C239.087 262.076 239.087 262.076 247.76 281.861C255.795 285.195 255.795 285.195 263.993 288.597C269.088 291.846 274.184 295.094 279.434 298.441C281.832 314.695 282.46 327.603 281.414 343.691C281.199 349.905 281.199 349.905 280.98 356.245C280.608 366.458 280.04 376.665 279.434 386.869C275.253 385.045 271.072 383.221 266.764 381.342C266.764 353.985 266.764 326.628 266.764 298.441C251.086 292.97 251.086 292.97 235.09 287.388C220.421 268.191 218.646 260.23 222.42 237.648C235.882 228.667 235.882 228.667 254.095 221.068C260.627 217.192 267.16 213.316 273.891 209.323C292.104 198.961 292.104 198.961 311.108 193.434Z" fill="#DEE3E3"/>
<path d="M127.397 265.282C132.101 266.308 136.805 267.334 141.651 268.391C158.754 270.765 168.234 269.987 184.411 265.282C167.782 286.698 167.782 286.698 146.402 292.916C144.311 296.563 142.221 300.211 140.067 303.969C131.705 303.969 123.343 303.969 114.728 303.969C114.728 307.617 114.728 311.264 114.728 315.023C120.999 316.846 127.271 318.67 133.732 320.549C127.461 322.373 121.189 324.197 114.728 326.076C116.818 333.371 118.909 340.666 121.063 348.183C108.789 346.456 108.789 346.456 95.7232 342.656C93.6327 337.185 91.5423 331.713 89.3884 326.076C85.2074 324.252 81.0264 322.428 76.7188 320.549C76.7188 315.078 76.7188 309.606 76.7188 303.969C87.1712 303.969 97.6237 303.969 108.393 303.969C116.034 291.08 122.111 279.119 127.397 265.282Z" fill="#A29F83"/>
<path d="M260.433 121.586C266.768 138.166 266.768 138.166 261.126 149.263C258.284 153.124 255.442 156.985 252.515 160.964C249.738 164.854 246.962 168.743 244.101 172.751C235.094 182.38 235.094 182.38 216.089 187.906C195.897 179.962 195.897 179.962 178.08 171.326C186.442 178.621 194.804 185.917 203.42 193.433C165.705 181.873 165.705 181.873 152.741 165.8C151.553 150.947 151.553 150.947 152.741 138.166C159.012 146.373 159.012 146.373 165.411 154.746C171.682 154.746 177.954 154.746 184.415 154.746C191.601 155.202 198.787 155.658 206.191 156.128C228.986 156.589 228.986 156.589 243.804 144.384C254.269 133.207 254.269 133.207 260.433 121.586Z" fill="#A9B0A2"/>
<path d="M216.086 60.7934C191 71.7363 191 71.7363 165.407 82.9002C165.407 95.6669 165.407 108.434 165.407 121.587C169.588 123.411 173.769 125.235 178.077 127.114C178.077 130.761 178.077 134.409 178.077 138.167C169.715 136.343 161.353 134.52 152.738 132.641C159.561 156.452 165.657 174.841 184.412 193.434C166.876 191.852 160.141 188.907 147.986 177.545C133.243 145.389 135.353 112.505 147.195 79.7915C166.39 58.0207 186.272 52.1233 216.086 60.7934Z" fill="#E0DFC6"/>
<path d="M203.416 773.738C213.869 777.386 224.321 781.034 235.09 784.792C226.38 796.191 226.38 796.191 209.751 806.898C195.3 806.164 195.3 806.164 178.869 803.79C156.026 799.976 156.026 799.976 135.836 807.654C132.921 810.368 130.006 813.083 127.002 815.879C108.394 829.005 108.394 829.005 94.3137 827.753C69.4608 820.772 44.3825 812.542 26.041 795.845C26.041 790.374 26.041 784.902 26.041 779.265C30.222 779.265 34.403 779.265 38.7107 779.265C42.0424 784.394 42.0424 784.394 45.4414 789.628C62.075 805.544 77.3747 808.263 101.218 812.209C116.005 813.794 116.005 813.794 127.794 802.063C131.845 798.187 135.895 794.311 140.068 790.318C157.27 788.476 173.339 789.584 190.747 790.318C194.928 788.495 199.109 786.671 203.416 784.792C203.416 781.144 203.416 777.496 203.416 773.738Z" fill="#62768B"/>
<path d="M273.1 386.868C277.281 386.868 281.462 386.868 285.77 386.868C285.039 395.508 284.232 404.142 283.394 412.775C282.953 417.583 282.512 422.392 282.058 427.347C279.435 442.135 279.435 442.135 272.729 455.304C264.861 474.387 266.728 489.373 268.745 509.492C269.374 516.296 270.003 523.099 270.65 530.109C271.928 546.627 271.928 546.627 279.435 558.196C279.69 571.09 279.709 583.989 279.435 596.883C254.789 568.837 252.94 550.032 252.908 515.019C252.83 510.555 252.753 506.092 252.673 501.493C252.604 476.939 254.812 459.211 266.765 436.608C269.569 423.167 269.569 423.167 270.725 410.011C271.198 405.644 271.672 401.277 272.16 396.777C272.47 393.507 272.781 390.237 273.1 386.868Z" fill="#D7DCD7"/>
<path d="M190.746 259.754C203.416 280.479 203.416 280.479 203.416 292.914C213.868 294.738 224.321 296.562 235.09 298.441C237.18 294.793 239.271 291.146 241.425 287.387C249.787 292.859 258.149 298.33 266.764 303.968C260.623 307.045 254.482 310.123 248.155 313.294C227.552 324.308 227.552 324.308 223.212 341.273C222.951 345.376 222.689 349.48 222.42 353.708C218.239 353.708 214.058 353.708 209.751 353.708C209.751 340.941 209.751 328.174 209.751 315.021C202.303 314.166 202.303 314.166 194.705 313.294C178.076 309.494 178.076 309.494 165.407 292.914C171.678 291.09 177.95 289.266 184.411 287.387C186.502 278.268 188.592 269.149 190.746 259.754Z" fill="#C9C9AB"/>
<path d="M507.49 132.639C541.964 134.519 564.102 153.104 589.843 171.326C584.695 187.561 584.695 187.561 577.173 204.486C570.901 206.31 564.63 208.134 558.168 210.013C558.168 206.365 558.168 202.718 558.168 198.96C551.897 198.96 545.625 198.96 539.164 198.96C535.205 188.942 535.205 188.942 532.829 176.853C537.01 171.381 541.191 165.91 545.499 160.273C545.499 156.625 545.499 152.977 545.499 149.219C539.227 151.043 532.956 152.867 526.494 154.746C526.494 151.098 526.494 147.451 526.494 143.693C520.223 141.869 513.951 140.045 507.49 138.166C507.49 136.342 507.49 134.518 507.49 132.639Z" fill="#CFCB9F"/>
<path d="M254.097 154.747C256.187 160.218 258.278 165.689 260.432 171.327C251.325 183.416 251.325 183.416 241.427 193.433C245.608 195.257 249.789 197.081 254.097 198.96C247.825 207.167 247.825 207.167 241.427 215.54C237.246 215.54 233.065 215.54 228.757 215.54C228.757 211.893 228.757 208.245 228.757 204.487C223.417 204.95 218.076 205.413 212.574 205.89C205.633 206.453 198.692 207.016 191.54 207.596C184.632 208.173 177.723 208.75 170.606 209.344C152.739 210.014 152.739 210.014 140.07 204.487C140.07 200.839 140.07 197.192 140.07 193.433C146.08 194.573 152.09 195.713 158.282 196.888C168.082 197.914 168.082 197.914 178.079 198.96C182.26 195.313 186.441 191.665 190.748 187.907C184.477 180.612 178.205 173.316 171.744 165.8C176.448 167.51 181.151 169.22 185.997 170.981C200.295 175.801 213.839 179.488 228.757 182.38C237.119 173.261 245.481 164.142 254.097 154.747Z" fill="#D1D0B3"/>
<path d="M228.757 801.372C241.822 803.79 241.822 803.79 254.096 806.899C247.761 817.952 247.761 817.952 235.488 824.515C215.166 829.219 204.824 828.019 184.413 825.206C168.029 822.907 168.029 822.907 152.739 823.479C135.315 836.835 135.315 836.835 121.065 851.112C100.081 850.076 100.081 850.076 83.0557 845.586C95.7253 834.532 95.7253 834.532 110.771 829.351C127.471 824.357 127.471 824.357 138.857 814.865C156.687 804.633 167.66 805.372 188.768 806.208C199.98 806.597 211.201 806.866 222.422 806.899C224.512 805.075 226.603 803.251 228.757 801.372Z" fill="#7B8381"/>
<path d="M170.948 796.882C177.481 798.364 184.014 799.846 190.745 801.372C178.075 812.426 178.075 812.426 160.258 814.498C139.396 816.548 139.396 816.548 125.021 829.351C106.285 841.416 93.5883 843.259 70.4075 842.261C49.5608 838.645 35.6479 829.776 19.7041 817.952C19.7041 814.305 19.7041 810.657 19.7041 806.899C28.1314 809.635 28.1314 809.635 36.729 812.426C56.0932 817.526 69.4906 818.422 89.3872 817.952C95.6587 819.776 101.93 821.6 108.392 823.479C117.486 816.266 126.58 809.052 135.661 801.826C146.401 795.846 146.401 795.846 170.948 796.882Z" fill="#B1B6B2"/>
<path d="M361.493 165.54C390.422 168.802 416.725 173.179 444.142 182.379C444.142 187.851 444.142 193.322 444.142 198.959C452.504 202.607 460.866 206.255 469.482 210.013C453.702 216.896 447.875 214.306 431.473 210.013C433.588 213.09 435.703 216.168 437.882 219.339C445.272 234.425 444.91 243.532 442.955 259.753C442.473 264.427 441.991 269.1 441.495 273.915C437.315 289.185 430.431 297.681 418.803 309.493C419.848 305.96 420.894 302.426 421.97 298.785C426.1 276.718 428.098 254.401 425.138 232.12C420.957 228.472 416.776 224.824 412.468 221.066C411.676 206.559 411.676 206.559 412.468 193.433C416.649 191.609 420.83 189.785 425.138 187.906C401.935 182.251 379.567 177.877 355.455 176.853C336.974 186.433 336.974 186.433 327.591 195.764C314.553 206.973 300.306 214.305 284.584 222.448C279.268 225.212 273.952 227.976 268.475 230.824C254.097 237.646 254.097 237.646 235.093 243.173C239.023 262.322 239.023 262.322 247.763 281.86C263.666 288.84 263.666 288.84 279.437 292.913C280.882 313.172 282.154 333.437 283.396 353.707C283.804 359.399 284.213 365.091 284.633 370.956C286.599 404.619 284.726 432.038 273.102 464.241C268.921 460.593 264.74 456.946 260.432 453.188C262.523 447.716 264.613 442.245 266.767 436.607C267.291 426.001 267.448 415.38 267.386 404.764C267.365 398.584 267.345 392.404 267.324 386.036C267.271 379.585 267.218 373.134 267.163 366.487C267.134 359.972 267.106 353.457 267.076 346.745C267.002 330.643 266.897 314.541 266.767 298.44C261.802 296.958 256.837 295.476 251.722 293.949C235.093 287.387 235.093 287.387 222.423 270.806C219.652 254.226 219.652 254.226 222.423 237.646C235.885 228.665 235.885 228.665 254.097 221.066C260.108 217.532 266.118 213.999 272.31 210.358C286.706 202.069 300.847 194.526 315.862 187.215C358.814 165.596 358.814 165.596 361.493 165.54Z" fill="#DFE3E0"/>
</svg>
