<svg width="803" height="697" viewBox="0 0 803 697" fill="none" xmlns="http://www.w3.org/2000/svg">
<g style="mix-blend-mode:multiply">
<path d="M516.289 475.296C520.47 478.944 524.651 482.591 528.959 486.349C528.81 499.518 528.81 499.518 526.583 514.674C525.53 522.218 525.53 522.218 524.455 529.915C523.549 535.707 523.549 535.707 522.624 541.616C533.077 539.792 543.529 537.969 554.298 536.09C560.57 544.297 560.57 544.297 566.968 552.67C560.696 554.494 554.425 556.317 547.963 558.196C547.963 561.844 547.963 565.492 547.963 569.25C531.239 572.897 514.516 576.545 497.285 580.303C497.285 598.541 497.285 616.779 497.285 635.57C490.491 635.456 483.697 635.342 476.697 635.225C458.339 635.492 444.794 636.297 427.602 641.097C427.602 628.33 427.602 615.564 427.602 602.41C421.33 600.586 415.059 598.762 408.597 596.883C408.597 593.236 408.597 589.588 408.597 585.83C412.909 586.514 417.22 587.198 421.663 587.902C446.609 585.124 457.025 574.77 474.791 559.924C484.615 552.67 484.615 552.67 497.285 552.67C493.104 545.374 488.923 538.079 484.615 530.563C488.796 530.563 492.977 530.563 497.285 530.563C495.194 515.972 493.104 501.382 490.95 486.349C499.312 482.702 507.674 479.054 516.289 475.296Z" fill="#3477B9"/>
<path d="M446.607 425.555C452.879 427.378 459.15 429.202 465.612 431.081C470.348 449.75 473.43 467.213 471.946 486.348C463.208 497.487 453.32 505.719 442.202 515.061C431.118 528.438 432.48 536.172 434.729 552.323C436.37 559.844 438.148 567.348 440.272 574.776C429.82 574.776 419.367 574.776 408.598 574.776C408.598 571.128 408.598 567.48 408.598 563.722C402.327 563.722 396.055 563.722 389.594 563.722C385.413 571.017 381.232 578.313 376.924 585.829C370.652 584.005 364.381 582.181 357.919 580.302C363.462 547.833 363.462 547.833 370.589 541.615C371.218 533.802 371.411 525.96 371.381 518.127C371.397 513.881 371.414 509.635 371.43 505.26C370.543 491.148 367.782 478.02 364.254 464.242C373.456 459.468 382.703 454.759 391.969 450.079C399.686 446.136 399.686 446.136 407.559 442.113C412.083 440.297 416.607 438.48 421.268 436.608C425.449 438.432 429.63 440.256 433.937 442.135C426.294 443.845 426.294 443.845 418.496 445.589C400.328 451.979 400.328 451.979 396.324 469.423C394.057 487.321 394.057 487.321 408.598 502.928C428.349 499.356 428.349 499.356 433.937 486.348C438.118 486.348 442.299 486.348 446.607 486.348C446.607 482.701 446.607 479.053 446.607 475.295C450.788 475.295 454.969 475.295 459.277 475.295C457.657 462.345 455.522 449.439 452.942 436.608C448.761 434.784 444.58 432.96 440.272 431.081C442.363 429.258 444.453 427.434 446.607 425.555Z" fill="#286DAF"/>
<path d="M60.1825 27.6318C85.8315 32.9597 100.31 39.4229 117.592 56.3016C126.703 65.1072 126.703 65.1072 136.2 71.8454C157.37 72.3072 168.25 66.1414 186.879 57.3379C207.878 48.9411 216.02 49.1861 237.558 55.2653C235.598 60.3948 235.598 60.3948 233.598 65.6279C232.815 69.5035 232.031 73.3791 231.223 77.3721C235.404 81.0198 239.585 84.6674 243.893 88.4255C229.259 88.4255 214.626 88.4255 199.549 88.4255C199.549 93.897 199.549 99.3684 199.549 105.006C168.884 121.931 147.015 130.064 110.861 132.639C119.539 115.168 123.462 110.573 142.535 99.4789C134.435 99.5929 126.334 99.7069 117.988 99.8244C93.4403 100.17 93.4403 100.17 79.187 93.9522C77.0965 97.5999 75.006 101.247 72.8521 105.006C72.3867 100.004 72.3867 100.004 71.9118 94.9021C71.4382 90.4851 70.9646 86.0681 70.4766 81.5172C70.0356 77.1571 69.5947 72.7971 69.1403 68.3049C66.4218 54.7907 61.5381 45.05 53.8477 33.1585C55.9382 31.3347 58.0286 29.5109 60.1825 27.6318Z" fill="#2D6CB1"/>
<path d="M364.25 453.189C368.431 455.013 372.612 456.837 376.92 458.716C375.744 462.136 374.568 465.555 373.356 469.079C369.084 481.053 369.084 481.053 376.92 491.876C377.984 503.254 377.984 503.254 378.108 516.401C378.197 520.726 378.287 525.05 378.38 529.505C376.92 541.617 376.92 541.617 364.25 558.197C364.25 565.492 364.25 572.787 364.25 580.304C384.001 576.731 384.001 576.731 389.589 563.723C395.861 563.723 402.132 563.723 408.594 563.723C408.594 567.371 408.594 571.019 408.594 574.777C419.046 574.777 429.499 574.777 440.268 574.777C440.268 580.248 440.268 585.72 440.268 591.357C429.816 589.533 419.363 587.709 408.594 585.83C408.594 589.478 408.594 593.126 408.594 596.884C416.956 598.707 425.318 600.531 433.933 602.41C431.843 615.177 429.752 627.944 427.598 641.097C440.141 637.45 452.684 633.802 465.607 630.044C465.607 639.163 465.607 648.282 465.607 657.677C481.918 652.1 481.918 652.1 497.282 641.097C497.869 631.864 497.869 631.864 498.469 622.445C503.616 602.41 503.616 602.41 517.35 593.753C560.295 574.777 560.295 574.777 585.969 574.777C571.336 557.178 571.336 557.178 554.295 541.617C537.108 538.832 537.108 538.832 522.621 541.617C524.711 534.321 526.802 527.026 528.956 519.51C556.965 527.19 574.052 538.058 592.304 558.197C594.284 572.704 594.284 572.704 585.969 585.83C563.387 596.795 542.105 602.41 516.286 602.41C517.201 607.996 518.115 613.581 519.057 619.336C515.215 649.506 497.726 660.905 471.942 679.784C462.535 677.048 462.535 677.048 452.938 674.257C452.938 665.138 452.938 656.019 452.938 646.624C448.757 646.624 444.576 646.624 440.268 646.624C438.178 652.095 436.087 657.567 433.933 663.204C421.264 646.624 421.264 646.624 418.888 627.281C417.108 607.691 417.108 607.691 402.259 597.229C391.048 590.925 391.048 590.925 383.255 591.357C372.687 589.558 362.128 587.718 351.58 585.83C347.225 576.849 347.225 576.849 345.246 563.723C348.381 559.278 351.517 554.832 354.748 550.252C367.64 523.54 363.099 502.179 359.351 473.807C358.877 468.827 358.403 463.847 357.915 458.716C360.006 456.892 362.096 455.069 364.25 453.189Z" fill="#DFE6E7"/>
<path d="M459.277 348.182C463.458 348.182 467.639 348.182 471.947 348.182C476.128 359.125 480.309 370.067 484.617 381.342C503.69 370.248 507.613 365.652 516.291 348.182C518.381 348.182 520.472 348.182 522.626 348.182C525.761 364.596 525.761 364.596 528.96 381.342C522.689 383.166 516.417 384.989 509.956 386.869C504.852 398.507 504.852 398.507 502.433 412.084C500.927 418.934 500.927 418.934 499.39 425.922C498.696 429.449 498.001 432.975 497.286 436.609C495.196 436.609 493.105 436.609 490.951 436.609C490.683 423.715 490.692 410.816 490.951 397.922C493.042 396.098 495.132 394.274 497.286 392.395C488.924 390.571 480.562 388.748 471.947 386.869C463.372 398.573 463.372 398.573 471.947 414.502C469.856 419.973 467.766 425.445 465.612 431.082C459.537 431.766 459.537 431.766 453.338 432.464C426.302 438.24 402.067 448.441 376.925 458.716C374.834 455.068 372.744 451.42 370.59 447.662C395.676 436.719 420.762 425.777 446.608 414.502C442.427 405.383 438.246 396.264 433.938 386.869C389.594 388.454 358.488 395.181 319.911 414.502C319.64 423.71 319.654 432.927 319.911 442.136C322.002 443.959 324.092 445.783 326.246 447.662C327.83 461.134 327.83 461.134 326.246 475.296C297.761 491.863 270.969 489.605 237.558 486.349C215.52 480.484 194.919 473.021 174.21 464.242C174.21 460.595 174.21 456.947 174.21 453.189C211.427 463.552 211.427 463.552 218.554 469.769C233.46 470.171 248.38 470.232 263.294 470.114C271.468 470.065 279.642 470.015 288.064 469.963C294.392 469.899 300.721 469.835 307.241 469.769C306.47 463.667 306.47 463.667 305.682 457.442C302.573 415.532 302.573 415.532 314.22 399.174C343.31 378.546 378.799 375.987 415.008 372.275C430.364 370.663 444.434 368.417 459.277 364.762C459.277 359.29 459.277 353.819 459.277 348.182Z" fill="#DEE4DB"/>
<path d="M554.299 375.814C557.498 384.671 560.658 393.539 563.801 402.412C565.565 407.349 567.329 412.286 569.146 417.373C573.303 431.081 573.303 431.081 573.303 447.662C562.851 449.485 552.398 451.309 541.629 453.188C537.448 464.131 533.267 475.074 528.959 486.348C516.416 486.348 503.873 486.348 490.95 486.348C492.126 493.416 493.302 500.483 494.514 507.764C498.077 529.18 498.077 529.18 490.95 541.615C486.769 541.615 482.588 541.615 478.281 541.615C474.975 496.219 473.544 428.859 507.975 392.006C522.794 382.579 535.592 375.814 554.299 375.814Z" fill="#3F83BD"/>
<path d="M243.89 127.114C243.89 130.762 243.89 134.41 243.89 138.168C235.528 139.991 227.166 141.815 218.551 143.694C219.596 148.596 220.641 153.497 221.718 158.547C224.442 174.29 225.42 188.627 224.886 204.488C231.157 204.488 237.429 204.488 243.89 204.488C248.071 197.193 252.252 189.898 256.56 182.381C258.65 191.5 260.741 200.619 262.895 210.015C236.418 225.414 223.957 219.939 193.212 215.541C195.302 222.837 197.393 230.132 199.546 237.648C234.736 243.324 234.736 243.324 269.23 237.648C269.23 241.296 269.23 244.944 269.23 248.702C256.687 250.525 244.144 252.349 231.221 254.228C231.221 257.876 231.221 261.524 231.221 265.282C223.12 264.712 215.019 264.142 206.673 263.555C202.117 263.234 197.56 262.913 192.865 262.583C180.542 259.755 180.542 259.755 167.872 243.175C174.144 243.175 180.415 243.175 186.877 243.175C180.605 239.527 174.334 235.88 167.872 232.122C167.872 224.826 167.872 217.531 167.872 210.015C172.053 210.015 176.234 210.015 180.542 210.015C178.451 202.72 176.361 195.424 174.207 187.908C170.026 187.908 165.845 187.908 161.537 187.908C163.628 173.317 165.718 158.727 167.872 143.694C163.691 143.694 159.51 143.694 155.203 143.694C155.203 140.047 155.203 136.399 155.203 132.641C163.565 132.641 171.927 132.641 180.542 132.641C182.632 138.112 184.723 143.584 186.877 149.221C189.621 146.599 192.364 143.978 195.191 141.276C210.887 128.597 222.774 127.114 243.89 127.114Z" fill="#3C80C3"/>
<path d="M230.479 60.3398C274.345 64.9403 312.673 75.566 351.583 93.9534C349.493 97.601 347.402 101.249 345.248 105.007C337.801 104.836 337.801 104.836 330.203 104.661C313.694 103.974 313.694 103.974 300.904 110.534C292.404 106.945 283.96 103.253 275.565 99.4801C269.294 99.4801 263.022 99.4801 256.561 99.4801C272.239 104.952 272.239 104.952 288.235 110.534C288.235 112.357 288.235 114.181 288.235 116.06C273.601 114.236 258.968 112.413 243.891 110.534C243.891 114.181 243.891 117.829 243.891 121.587C252.253 123.411 260.615 125.235 269.23 127.114C262.812 127.926 262.812 127.926 256.264 128.754C212.472 134.69 212.472 134.69 180.543 160.274C180.543 151.155 180.543 142.036 180.543 132.64C176.362 130.816 172.181 128.993 167.873 127.114C187.265 112.612 191.513 110.534 218.552 110.534C218.552 106.886 218.552 103.238 218.552 99.4801C210.19 99.4801 201.828 99.4801 193.212 99.4801C195.303 94.0087 197.393 88.5372 199.547 82.9C210 82.9 220.452 82.9 231.221 82.9C222.859 79.2524 214.497 75.6048 205.882 71.8466C218.552 60.7932 218.552 60.7932 230.479 60.3398Z" fill="#2362AB"/>
<path d="M465.61 375.814C478.153 379.462 490.695 383.11 503.619 386.868C501.528 390.515 499.438 394.163 497.284 397.921C495.441 408.728 493.897 419.575 492.508 430.434C491.671 436.881 490.834 443.329 489.971 449.972C489.118 456.732 488.265 463.493 487.386 470.459C486.508 477.263 485.63 484.067 484.725 491.076C482.555 507.921 480.407 524.767 478.279 541.615C484.551 541.615 490.822 541.615 497.284 541.615C497.284 545.263 497.284 548.911 497.284 552.669C484.874 560.368 472.173 567.715 459.275 574.776C453.003 578.423 446.732 582.071 440.27 585.829C433.285 565.528 428 546.295 427.601 525.035C435.222 514.91 435.222 514.91 445.813 506.383C461.497 493.512 465.326 487.981 468.629 468.991C468.861 438.865 467.542 414.505 452.94 386.868C457.121 386.868 461.302 386.868 465.61 386.868C465.61 383.22 465.61 379.573 465.61 375.814Z" fill="#DAD1AB"/>
<path d="M357.917 464.242C369.133 492.447 372.798 511.79 364.252 541.616C355.937 551.288 355.937 551.288 345.247 558.196C340.674 561.274 336.101 564.351 331.39 567.522C327.601 569.916 323.812 572.31 319.908 574.776C318.209 568.735 316.511 562.693 314.761 556.469C305.817 532.238 299.338 524.768 274.376 512.946C270.587 511.464 266.798 509.983 262.895 508.456C267.076 508.456 271.257 508.456 275.564 508.456C277.655 502.984 279.745 497.513 281.899 491.876C303.849 489.14 303.849 489.14 326.243 486.349C328.333 480.878 330.424 475.406 332.578 469.769C345.247 464.242 345.247 464.242 357.917 464.242Z" fill="#EEC958"/>
<path d="M98.1885 165.8C102.37 178.566 106.551 191.333 110.858 204.487C117.13 204.487 123.401 204.487 129.863 204.487C129.863 211.782 129.863 219.077 129.863 226.594C134.044 226.594 138.225 226.594 142.532 226.594C142.532 230.241 142.532 233.889 142.532 237.647C146.713 235.823 150.894 233.999 155.202 232.12C159.383 230.296 163.564 228.473 167.872 226.594C176.234 233.889 184.596 241.184 193.211 248.7C186.94 248.7 180.668 248.7 174.206 248.7C199.482 256.576 223.652 261.969 250.224 265.28C241.514 273.57 241.514 273.57 231.22 281.861C227.039 281.861 222.858 281.861 218.55 281.861C218.55 285.508 218.55 289.156 218.55 292.914C222.731 292.914 226.912 292.914 231.22 292.914C235.401 302.033 239.582 311.152 243.89 320.547C240.599 318.282 237.308 316.016 233.917 313.682C206.318 294.801 206.318 294.801 174.998 281.515C170.556 279.805 166.114 278.095 161.537 276.334C159.577 271.888 157.617 267.443 155.598 262.862C149.94 246.908 149.94 246.908 129.071 238.683C120.056 235.435 120.056 235.435 110.858 232.12C108.768 237.592 106.677 243.063 104.523 248.7C102.433 243.229 100.342 237.757 98.1885 232.12C85.9414 226.087 85.9414 226.087 72.8492 221.067C60.1795 210.013 60.1795 210.013 59.3877 195.506C59.649 191.174 59.9103 186.843 60.1795 182.38C64.3605 182.38 68.5415 182.38 72.8492 182.38C74.9397 187.851 77.0302 193.323 79.184 198.96C80.0986 194.514 81.0132 190.069 81.9555 185.489C86.9094 165.8 86.9094 165.8 98.1885 165.8Z" fill="#83B1CA"/>
<path d="M231.221 0C233.312 3.64762 235.402 7.29524 237.556 11.0534C228.45 25.561 228.45 25.561 218.552 38.6869C223.304 40.0263 228.057 41.3656 232.953 42.7456C275.288 54.8398 316.787 67.9755 357.918 82.9005C362.778 67.1451 362.778 67.1451 364.253 49.7403C355.934 39.2419 355.934 39.2419 345.248 33.1602C360.927 35.8959 360.927 35.8959 376.922 38.6869C381.987 56.853 383.869 64.7189 376.922 82.9005C391.556 88.3719 406.189 93.8434 421.266 99.4806C421.266 106.776 421.266 114.071 421.266 121.587C408.723 121.587 396.18 121.587 383.257 121.587C383.257 127.059 383.257 132.53 383.257 138.168C379.076 138.168 374.895 138.168 370.588 138.168C370.588 130.872 370.588 123.577 370.588 116.061C385.221 116.061 399.854 116.061 414.931 116.061C414.931 112.413 414.931 108.765 414.931 105.007C406.7 104.437 398.469 103.867 389.988 103.28C350.804 99.3992 316.528 88.6905 280.341 75.2797C273.147 72.6651 265.952 70.0505 258.54 67.3567C251.852 64.8133 245.164 62.2699 238.274 59.6495C209.881 53.3402 191.943 60.7625 167.081 72.8834C151.546 78.7563 145.606 76.9393 129.864 71.8471C119.075 62.8446 119.075 62.8446 109.276 52.1582C105.977 48.6175 102.678 45.0767 99.2786 41.4287C96.8288 38.7001 94.379 35.9715 91.855 33.1602C116.106 43.0478 116.106 43.0478 125.905 53.5399C136.355 62.4577 136.355 62.4577 154.411 60.7937C189.997 50.8589 209.044 25.0813 231.221 0Z" fill="#E0E5E3"/>
<path d="M350.789 371.324C355.231 372.806 359.673 374.288 364.25 375.814C347.684 387.533 331.332 398.645 313.572 408.975C308.925 425.917 308.925 425.917 307.237 442.135C303.056 442.135 298.875 442.135 294.567 442.135C294.567 445.782 294.567 449.43 294.567 453.188C270.4 461.297 254.72 455.583 231.219 447.661C231.219 451.309 231.219 454.957 231.219 458.715C237.49 460.539 243.762 462.362 250.223 464.242C178.237 456.705 178.237 456.705 161.536 442.135C162.103 432.787 163.093 423.457 164.307 414.156C164.952 409.076 165.597 403.997 166.262 398.763C166.793 394.838 167.324 390.912 167.87 386.868C172.051 386.868 176.232 386.868 180.54 386.868C199.545 405.999 199.545 405.999 199.545 420.028C191.183 418.204 182.821 416.38 174.205 414.501C174.205 421.796 174.205 429.092 174.205 436.608C180.477 438.432 186.748 440.256 193.21 442.135C193.21 438.487 193.21 434.84 193.21 431.081C199.481 432.905 205.753 434.729 212.214 436.608C214.305 434.784 216.395 432.96 218.549 431.081C220.64 434.729 222.73 438.377 224.884 442.135C231.155 438.487 237.427 434.84 243.888 431.081C243.888 427.434 243.888 423.786 243.888 420.028C262.703 422.764 262.703 422.764 281.897 425.555C283.857 419.57 283.857 419.57 285.857 413.465C299.251 389.563 317.92 369.454 350.789 371.324Z" fill="#2066B2"/>
<path d="M281.899 270.807C311.423 270.807 307.772 271.272 326.243 287.387C340.939 293.085 355.727 298.602 370.587 303.967C381.263 309.318 391.873 314.78 402.261 320.547C396.718 341.963 396.718 341.963 389.591 348.18C379.036 348.405 368.472 348.417 357.917 348.18C357.917 351.828 357.917 355.476 357.917 359.234C342.139 363.031 330.178 364.761 313.573 364.761C321.492 350.944 321.492 350.944 332.578 337.127C340.94 337.127 349.302 337.127 357.917 337.127C355.827 331.656 353.736 326.184 351.582 320.547C349.492 324.195 347.401 327.842 345.248 331.6C330.614 327.953 315.981 324.305 300.904 320.547C300.904 324.195 300.904 327.842 300.904 331.6C296.723 331.6 292.542 331.6 288.234 331.6C277.911 308.821 273.901 294.533 281.899 270.807Z" fill="#1865B6"/>
<path d="M345.248 259.753C345.248 267.048 345.248 274.343 345.248 281.86C349.429 281.86 353.61 281.86 357.918 281.86C357.918 285.507 357.918 289.155 357.918 292.913C368.37 294.737 378.823 296.561 389.592 298.44C381.702 277.79 372.906 275.296 351.583 265.28C373.18 258.999 376.943 260.485 397.114 267.698C401.647 269.286 406.179 270.875 410.848 272.512C414.286 273.773 417.724 275.034 421.266 276.333C421.266 279.981 421.266 283.628 421.266 287.386C429.628 287.386 437.99 287.386 446.605 287.386C452.821 304.257 452.821 314.729 446.605 331.6C430.927 328.864 430.927 328.864 414.931 326.073C414.931 331.545 414.931 337.016 414.931 342.653C425.384 342.653 435.836 342.653 446.605 342.653C446.605 346.301 446.605 349.949 446.605 353.707C415.248 356.443 415.248 356.443 383.257 359.234C381.167 355.586 379.076 351.938 376.922 348.18C383.194 344.533 389.465 340.885 395.927 337.127C395.927 331.655 395.927 326.184 395.927 320.547C389.263 317.355 382.6 314.163 375.734 310.875C355.519 300.838 337.679 289.487 319.909 276.333C329.411 259.753 329.411 259.753 345.248 259.753Z" fill="#2B79C5"/>
<path d="M446.604 309.494C457.057 314.966 467.509 320.437 478.279 326.074C480.369 320.603 482.46 315.131 484.613 309.494C490.885 309.494 497.156 309.494 503.618 309.494C505.708 329.556 507.799 349.618 509.953 370.288C497.41 375.759 497.41 375.759 484.613 381.341C471.944 364.761 471.944 364.761 471.944 348.181C469.682 352.705 467.42 357.229 465.089 361.89C452.939 375.815 452.939 375.815 433.069 378.513C421.934 378.032 421.934 378.032 410.575 377.542C403.103 377.292 395.631 377.043 387.933 376.786C382.209 376.465 376.484 376.145 370.586 375.815C392.128 354.312 392.128 354.312 409.486 351.549C421.859 352.269 434.232 352.988 446.604 353.708C446.604 350.06 446.604 346.412 446.604 342.654C440.333 344.478 434.061 346.302 427.6 348.181C423.419 346.357 419.238 344.533 414.93 342.654C414.93 337.183 414.93 331.711 414.93 326.074C425.383 327.898 435.835 329.722 446.604 331.601C446.604 324.306 446.604 317.01 446.604 309.494Z" fill="#2766AB"/>
<path d="M123.529 93.9531C131.891 95.7769 140.253 97.6007 148.868 99.4798C143.772 102.899 138.677 106.319 133.427 109.842C116.948 120.159 116.948 120.159 110.859 132.64C115.432 131.044 120.005 129.448 124.716 127.804C136.048 123.85 147.397 119.931 158.766 116.06C174.098 110.828 174.098 110.828 187.669 104.316C199.547 99.4798 199.547 99.4798 218.551 99.4798C218.551 103.127 218.551 106.775 218.551 110.533C176.583 126.422 176.583 126.422 155.203 132.64C157.052 137.385 157.052 137.385 158.939 142.225C162.05 157.214 159.083 164.308 152.431 178.235C150.61 182.139 148.789 186.043 146.913 190.066C145.468 193.001 144.022 195.936 142.533 198.96C140.443 198.96 138.352 198.96 136.198 198.96C134.108 189.841 132.017 180.722 129.864 171.327C121.502 169.503 113.14 167.679 104.524 165.8C102.434 169.448 100.343 173.095 98.1894 176.854C96.0989 169.558 94.0084 162.263 91.8545 154.747C89.2414 157.483 86.6283 160.218 83.936 163.037C72.8501 171.327 72.8501 171.327 47.5107 171.327C49.6012 164.032 51.6917 156.736 53.8456 149.22C62.2075 149.22 70.5695 149.22 79.1849 149.22C79.1849 140.101 79.1849 130.982 79.1849 121.587C82.9739 121.131 86.7629 120.675 90.6668 120.205C108.304 114.929 113.603 107.376 123.529 93.9531Z" fill="#74ACCE"/>
<path d="M15.8366 160.272C20.0176 160.272 24.1985 160.272 28.5062 160.272C30.2048 165.63 31.9033 170.987 33.6533 176.507C36.1357 182.093 38.6182 187.678 41.1759 193.433C47.4474 195.256 53.7188 197.08 60.1804 198.959C66.4519 207.167 66.4519 207.167 72.85 215.539C79.1215 219.187 85.393 222.835 91.8545 226.593C98.126 234.8 98.126 234.8 104.524 243.173C106.615 239.525 108.705 235.878 110.859 232.12C132.106 235.43 145.691 241.355 161.538 254.226C162.452 257.988 163.367 261.75 164.309 265.625C165.485 269.159 166.661 272.692 167.872 276.333C173.099 278.157 178.325 279.981 183.71 281.86C199.547 287.387 199.547 287.387 205.486 298.095C205.881 309.493 205.881 309.493 193.212 326.073C186.877 309.493 186.877 309.493 193.212 298.44C187.92 297.916 187.92 297.916 182.522 297.382C138.555 291.227 116.403 275.691 85.5197 248.7C79.3142 243.657 73.0939 238.627 66.8616 233.609C60.4031 228.284 53.9527 222.952 47.5107 217.612C41.5005 212.639 35.4904 207.667 29.2981 202.543C15.8366 187.906 15.8366 187.906 13.8569 172.233C14.5102 168.286 15.1635 164.339 15.8366 160.272Z" fill="#3570AB"/>
<path d="M275.565 143.692C295.557 149.105 300.957 154.821 311.99 170.635C324.814 199.119 321.436 229.701 319.909 259.753C316.087 257.887 312.265 256.02 308.328 254.097C290.775 247.211 281.077 249.82 262.895 254.226C264.986 266.993 267.076 279.76 269.23 292.913C260.868 291.089 252.506 289.266 243.891 287.387C245.981 294.682 248.072 301.977 250.226 309.493C243.954 307.67 237.683 305.846 231.221 303.967C231.221 300.319 231.221 296.671 231.221 292.913C227.04 292.913 222.859 292.913 218.551 292.913C218.551 289.266 218.551 285.618 218.551 281.86C212.28 280.036 206.008 278.212 199.547 276.333C212.217 270.806 212.217 270.806 231.221 276.333C235.402 274.509 239.583 272.686 243.891 270.806C239.71 268.983 235.529 267.159 231.221 265.28C231.221 261.632 231.221 257.985 231.221 254.226C243.764 252.403 256.307 250.579 269.23 248.7C270.014 245.166 270.798 241.632 271.606 237.992C276.819 215.705 282.526 193.52 288.234 171.326C284.054 171.326 279.873 171.326 275.565 171.326C275.565 162.207 275.565 153.088 275.565 143.692Z" fill="#2268B2"/>
<path d="M440.271 386.869C448.189 401.031 448.189 401.031 452.941 414.502C444.906 419.014 436.852 423.5 428.789 427.974C422.064 431.725 422.064 431.725 415.204 435.551C402.262 442.136 402.262 442.136 383.257 447.663C383.257 440.367 383.257 433.072 383.257 425.556C379.076 425.556 374.895 425.556 370.588 425.556C370.588 420.084 370.588 414.613 370.588 408.976C343.096 418.858 343.096 418.858 323.868 437.645C321.909 442.604 321.909 442.604 319.909 447.663C313.574 442.136 313.574 442.136 311.199 429.01C313.574 414.502 313.574 414.502 327.828 405.176C333.577 402.782 339.325 400.389 345.248 397.922C351.128 394.845 351.128 394.845 357.126 391.705C382.261 382.675 415.084 375.475 440.271 386.869Z" fill="#D5B45B"/>
<path d="M351.583 298.44C368.476 305.809 385.369 313.178 402.262 320.547C396.719 341.963 396.719 341.963 389.592 348.181C379.037 348.405 368.472 348.417 357.918 348.181C357.918 351.828 357.918 355.476 357.918 359.234C351.646 359.234 345.375 359.234 338.913 359.234C360.472 362.974 360.472 362.974 383.257 364.761C387.438 361.113 391.619 357.466 395.927 353.707C411.022 351.419 411.022 351.419 428.393 350.253C434.158 349.84 439.923 349.427 445.863 349.001C450.289 348.73 454.715 348.46 459.275 348.181C459.275 355.476 459.275 362.771 459.275 370.288C430.621 377.255 401.247 379.75 371.8 383.025C350.933 386.991 337.694 393.432 319.909 403.448C315.728 403.448 311.547 403.448 307.239 403.448C305.149 399.8 303.058 396.152 300.904 392.394C297.507 394.218 294.11 396.042 290.61 397.921C271.109 405.085 258.532 406.117 237.556 403.448C222.115 391.358 222.115 391.358 212.217 375.814C213.801 360.27 213.801 360.27 218.552 348.181C222.733 350.005 226.914 351.828 231.221 353.707C231.221 364.65 231.221 375.593 231.221 386.868C239.583 388.691 247.945 390.515 256.561 392.394C258.651 386.923 260.742 381.451 262.895 375.814C262.895 379.462 262.895 383.109 262.895 386.868C267.076 386.868 271.257 386.868 275.565 386.868C275.565 377.749 275.565 368.63 275.565 359.234C269.294 359.234 263.022 359.234 256.561 359.234C256.561 355.587 256.561 351.939 256.561 348.181C264.923 346.357 273.285 344.533 281.9 342.654C281.9 339.006 281.9 335.359 281.9 331.601C290.262 331.601 298.624 331.601 307.239 331.601C307.239 337.072 307.239 342.543 307.239 348.181C303.058 348.181 298.877 348.181 294.57 348.181C292.479 355.476 290.389 362.771 288.235 370.288C292.154 367.552 296.074 364.816 300.113 361.997C313.574 353.707 313.574 353.707 326.244 353.707C328.334 348.236 330.425 342.765 332.579 337.127C340.941 337.127 349.303 337.127 357.918 337.127C355.827 324.361 353.737 311.594 351.583 298.44Z" fill="#195BA5"/>
<path d="M218.552 99.4795C218.552 103.127 218.552 106.775 218.552 110.533C176.584 126.422 176.584 126.422 155.204 132.64C156.51 135.831 157.817 139.023 159.163 142.311C161.539 154.746 161.539 154.746 155.6 164.764C146.118 181.794 148.047 196.891 148.869 215.54C144.688 213.716 140.507 211.893 136.199 210.013C134.109 215.485 132.018 220.956 129.865 226.594C134.046 226.594 138.227 226.594 142.534 226.594C142.534 230.241 142.534 233.889 142.534 237.647C146.715 235.823 150.896 233.999 155.204 232.12C159.385 230.296 163.566 228.473 167.874 226.594C176.236 233.889 184.597 241.184 193.213 248.7C186.941 248.7 180.67 248.7 174.208 248.7C199.484 256.576 223.654 261.969 250.226 265.28C241.516 273.571 241.516 273.571 231.222 281.861C227.041 281.861 222.86 281.861 218.552 281.861C218.552 285.508 218.552 289.156 218.552 292.914C222.733 292.914 226.914 292.914 231.222 292.914C235.403 302.033 239.584 311.152 243.891 320.547C240.601 318.282 237.31 316.016 233.919 313.682C206.32 294.801 206.32 294.801 175 281.515C170.558 279.805 166.116 278.096 161.539 276.334C159.579 271.888 157.619 267.443 155.6 262.863C149.942 246.909 149.942 246.909 129.073 238.683C123.063 236.517 117.052 234.352 110.86 232.12C110.86 235.768 110.86 239.416 110.86 243.174C117.132 243.174 123.403 243.174 129.865 243.174C131.955 250.469 134.046 257.764 136.199 265.28C123.287 258.24 110.616 250.852 98.1904 243.174C98.1904 239.526 98.1904 235.878 98.1904 232.12C94.0094 230.296 89.8284 228.473 85.5207 226.594C81.3397 221.122 77.1588 215.651 72.8511 210.013C74.9416 204.542 77.0321 199.071 79.1859 193.433C83.3669 198.905 87.5479 204.376 91.8556 210.013C98.127 211.837 104.399 213.661 110.86 215.54C108.639 212.576 106.418 209.613 104.129 206.559C96.0986 188.81 98.9569 178.584 104.525 160.273C114.027 145.075 114.027 145.075 123.53 132.64C125.62 128.992 127.711 125.344 129.865 121.586C135.613 120.788 141.362 119.99 147.285 119.168C174.572 115.048 191.063 99.4795 218.552 99.4795Z" fill="#78AACB"/>
<path d="M446.607 425.555C452.879 427.378 459.15 429.202 465.612 431.081C470.347 449.748 473.432 467.214 471.946 486.348C463.182 497.314 453.228 505.452 442.202 514.694C428.117 532.318 433.603 549.302 437.55 569.573C438.448 573.113 439.347 576.654 440.272 580.302C429.82 578.479 419.367 576.655 408.598 574.776C408.598 571.128 408.598 567.48 408.598 563.722C402.327 563.722 396.055 563.722 389.594 563.722C385.413 571.017 381.232 578.313 376.924 585.829C370.652 584.005 364.381 582.181 357.919 580.302C363.462 554.05 363.462 554.05 370.589 541.615C371.196 533.685 371.412 525.729 371.381 517.782C371.397 513.585 371.414 509.389 371.43 505.066C370.535 491.028 367.758 477.949 364.254 464.242C373.456 459.468 382.703 454.759 391.969 450.079C399.686 446.136 399.686 446.136 407.559 442.113C412.083 440.297 416.607 438.48 421.268 436.608C425.449 438.432 429.63 440.256 433.937 442.135C426.294 443.845 426.294 443.845 418.496 445.589C400.328 451.979 400.328 451.979 396.324 469.423C394.057 487.321 394.057 487.321 408.598 502.928C428.349 499.356 428.349 499.356 433.937 486.348C438.118 486.348 442.299 486.348 446.607 486.348C446.607 482.701 446.607 479.053 446.607 475.295C450.788 475.295 454.969 475.295 459.277 475.295C457.657 462.345 455.522 449.439 452.942 436.608C448.761 434.784 444.58 432.96 440.272 431.081C442.363 429.258 444.453 427.434 446.607 425.555Z" fill="#296FB0"/>
<path d="M60.1825 27.6318C85.8315 32.9597 100.31 39.4229 117.592 56.3016C126.703 65.1072 126.703 65.1072 136.2 71.8454C157.37 72.3072 168.25 66.1414 186.879 57.3379C207.878 48.9411 216.02 49.1861 237.558 55.2653C235.598 60.3948 235.598 60.3948 233.598 65.6279C232.815 69.5035 232.031 73.3791 231.223 77.3721C235.404 81.0198 239.585 84.6674 243.893 88.4255C229.259 88.4255 214.626 88.4255 199.549 88.4255C199.549 93.897 199.549 99.3684 199.549 105.006C168.884 121.931 147.015 130.064 110.861 132.639C119.539 115.168 123.462 110.573 142.535 99.4789C134.435 99.5929 126.334 99.7069 117.988 99.8244C93.4403 100.17 93.4403 100.17 79.187 93.9522C77.0965 97.5999 75.006 101.247 72.8521 105.006C72.3867 100.004 72.3867 100.004 71.9118 94.9021C71.4382 90.4851 70.9646 86.0681 70.4766 81.5172C70.0356 77.1571 69.5947 72.7971 69.1403 68.3049C66.4218 54.7907 61.5381 45.05 53.8477 33.1585C55.9382 31.3347 58.0286 29.5109 60.1825 27.6318Z" fill="#2D6CB2"/>
<path d="M230.478 60.3398C274.344 64.9403 312.673 75.566 351.582 93.9534C349.492 97.601 347.401 101.249 345.248 105.007C337.8 104.836 337.8 104.836 330.202 104.661C313.693 103.974 313.693 103.974 300.904 110.534C292.403 106.945 283.959 103.253 275.564 99.4801C269.293 99.4801 263.021 99.4801 256.56 99.4801C267.012 103.128 277.465 106.775 288.234 110.534C288.234 112.357 288.234 114.181 288.234 116.06C273.601 114.236 258.967 112.413 243.89 110.534C243.89 114.181 243.89 117.829 243.89 121.587C252.252 123.411 260.614 125.235 269.23 127.114C264.73 127.783 260.231 128.453 255.595 129.143C249.772 130.069 243.95 130.995 237.951 131.949C229.242 133.296 229.242 133.296 220.357 134.67C215.58 135.824 210.803 136.978 205.881 138.167C203.791 141.815 201.7 145.462 199.546 149.22C201.637 152.868 203.727 156.516 205.881 160.274C204.092 173.207 202.001 186.111 199.546 198.961C197.456 195.313 195.365 191.665 193.212 187.907C189.031 187.907 184.85 187.907 180.542 187.907C176.361 173.317 172.18 158.726 167.872 143.694C163.691 143.694 159.51 143.694 155.203 143.694C155.203 140.046 155.203 136.398 155.203 132.64C178.48 116.948 188.58 110.534 218.551 110.534C218.551 106.886 218.551 103.238 218.551 99.4801C210.189 99.4801 201.827 99.4801 193.212 99.4801C195.302 94.0087 197.393 88.5372 199.546 82.9C209.999 82.9 220.451 82.9 231.221 82.9C222.859 79.2524 214.497 75.6048 205.881 71.8466C218.551 60.7932 218.551 60.7932 230.478 60.3398Z" fill="#2364AF"/>
<path d="M300.905 154.746C307.177 157.482 307.177 157.482 313.575 160.273C313.575 163.92 313.575 167.568 313.575 171.326C317.756 171.326 321.937 171.326 326.245 171.326C328.335 174.974 330.426 178.621 332.579 182.38C343.032 182.38 353.484 182.38 364.254 182.38C364.254 186.027 364.254 189.675 364.254 193.433C355.892 195.257 347.53 197.081 338.914 198.96C338.914 202.607 338.914 206.255 338.914 210.013C343.095 210.013 347.276 210.013 351.584 210.013C351.584 213.661 351.584 217.308 351.584 221.066C345.312 221.066 339.041 221.066 332.579 221.066C330.489 228.362 328.398 235.657 326.245 243.173C330.426 243.173 334.607 243.173 338.914 243.173C338.914 246.821 338.914 250.469 338.914 254.227C345.186 250.579 351.457 246.931 357.919 243.173C364.19 243.173 370.462 243.173 376.923 243.173C376.923 248.645 376.923 254.116 376.923 259.753C370.652 261.577 364.38 263.401 357.919 265.28C363.014 267.56 368.11 269.84 373.36 272.188C389.593 281.86 389.593 281.86 394.74 293.95C395.132 297.256 395.524 300.561 395.928 303.967C383.385 300.319 370.842 296.672 357.919 292.914C357.919 289.266 357.919 285.618 357.919 281.86C353.738 281.86 349.557 281.86 345.249 281.86C345.249 274.565 345.249 267.27 345.249 259.753C343.159 263.401 341.068 267.049 338.914 270.807C334.733 272.631 330.552 274.454 326.245 276.333C334.607 283.629 342.969 290.924 351.584 298.44C332.975 294.295 332.975 294.295 313.575 287.387C303.309 270.072 309.256 256.066 313.575 237.647C314.143 222.871 313.862 208.223 313.575 193.433C309.394 197.081 305.213 200.728 300.905 204.486C300.905 188.072 300.905 171.658 300.905 154.746Z" fill="#13539F"/>
<path d="M66.5176 88.4258C83.2416 92.0734 99.9655 95.721 117.196 99.4792C109.9 113.119 104.224 121.85 91.857 132.639C89.7665 132.639 87.676 132.639 85.5221 132.639C84.7382 136.173 83.9543 139.707 83.1466 143.347C81.84 147.109 80.5334 150.871 79.1873 154.746C72.9158 157.482 72.9158 157.482 66.5176 160.273C66.5176 156.625 66.5176 152.978 66.5176 149.219C62.3366 149.219 58.1557 149.219 53.848 149.219C51.7575 156.515 49.667 163.81 47.5131 171.326C70.8731 168.572 83.0193 165.243 98.1918 149.219C96.1013 152.981 94.0108 156.743 91.857 160.618C84.4257 179.663 84.6238 195.555 85.5221 215.54C81.3411 213.716 77.1602 211.892 72.8525 210.013C72.8525 200.894 72.8525 191.775 72.8525 182.38C68.6715 182.38 64.4905 182.38 60.1828 182.38C60.1828 187.851 60.1828 193.323 60.1828 198.96C51.8208 197.136 43.4589 195.312 34.8435 193.433C26.529 176.162 26.529 176.162 22.1738 154.746C36.4272 137.821 36.4272 137.821 45.5088 129.811C57.9074 117.582 61.8472 103.983 66.5176 88.4258Z" fill="#4183BE"/>
<path d="M288.234 99.4801C304.264 99.4801 318.023 98.1165 333.766 96.026C363.792 92.891 386.188 97.256 414.931 105.007C414.931 108.654 414.931 112.302 414.931 116.06C400.298 116.06 385.664 116.06 370.587 116.06C370.587 123.355 370.587 130.651 370.587 138.167C366.406 138.167 362.225 138.167 357.918 138.167C355.827 145.462 353.737 152.758 351.583 160.274C351.583 156.626 351.583 152.979 351.583 149.22C315.231 132.776 284.515 125.191 243.891 121.587C243.891 117.939 243.891 114.292 243.891 110.534C252.253 110.534 260.615 110.534 269.23 110.534C260.868 106.886 252.506 103.238 243.891 99.4801C260.894 92.0628 269.986 95.9854 288.234 99.4801Z" fill="#20589E"/>
<path d="M41.1742 127.114C41.1742 132.586 41.1742 138.057 41.1742 143.694C36.4706 147.456 36.4706 147.456 31.672 151.294C20.7494 159.862 20.7494 159.862 20.3432 173.323C23.6639 199.839 47.4683 214.502 68.4932 232.467C73.0743 236.439 77.6554 240.411 82.3754 244.503C117.239 273.597 145.661 289.729 193.21 298.442C192.443 301.813 191.675 305.184 190.884 308.657C187.405 324.015 183.972 339.38 180.54 354.745C179.332 360.049 178.123 365.353 176.878 370.818C175.163 378.539 175.163 378.539 173.414 386.416C172.352 391.133 171.291 395.851 170.197 400.712C165.632 427.712 165.632 427.712 174.206 453.19C165.844 449.542 157.482 445.894 148.866 442.136C151.132 393.708 163.946 350.094 180.54 303.969C173.55 303.178 166.56 302.387 159.358 301.572C117.2 295.875 98.5229 277.204 72.304 249.695C59.7205 237.193 46.1769 226.374 32.0679 215.196C14.366 199.873 9.90466 195.037 4.35303 173.055C10.6679 150.594 20.9745 141.653 41.1742 127.114Z" fill="#E1E8E6"/>
<path d="M345.248 303.968C349.429 305.792 353.61 307.615 357.918 309.494C357.918 318.614 357.918 327.733 357.918 337.128C349.556 337.128 341.194 337.128 332.578 337.128C330.488 344.423 328.397 351.718 326.243 359.235C338.757 357.312 338.757 357.312 351.583 353.708C353.673 350.06 355.764 346.413 357.918 342.655C373.755 349.908 373.755 349.908 389.592 359.235C389.592 364.706 389.592 370.178 389.592 375.815C373.294 380.554 365.009 381.503 348.019 377.887C342.924 377.203 337.828 376.52 332.578 375.815C326.115 381.228 319.772 386.752 313.574 392.395C299.716 390.668 299.716 390.668 288.234 386.868C290.325 374.102 292.415 361.335 294.569 348.181C298.75 348.181 302.931 348.181 307.239 348.181C305.148 339.062 303.058 329.943 300.904 320.548C315.538 322.372 330.171 324.195 345.248 326.075C345.248 318.779 345.248 311.484 345.248 303.968ZM256.56 397.922C273.189 399.994 273.189 399.994 288.234 403.448C284.053 407.096 279.872 410.744 275.565 414.502C258.936 412.429 258.936 412.429 243.891 408.975C248.072 405.327 252.253 401.68 256.56 397.922Z" fill="#2B78C3"/>
<path d="M383.256 138.168C385.347 138.168 387.437 138.168 389.591 138.168C389.591 147.287 389.591 156.406 389.591 165.801C385.41 165.801 381.229 165.801 376.922 165.801C376.138 170.019 375.354 174.237 374.546 178.582C370.587 193.435 370.587 193.435 357.917 210.015C364.842 211.383 371.767 212.751 378.901 214.16C402.261 221.068 402.261 221.068 411.763 232.467C421.162 245.466 421.162 245.466 444.625 247.32C451.55 247.776 458.475 248.232 465.609 248.702C470.959 267.372 472.631 280.064 465.609 298.442C469.79 296.618 473.971 294.795 478.279 292.916C490.946 292.695 503.621 292.675 516.288 292.916C517.856 297.931 519.424 302.947 521.039 308.114C529.402 327.084 535.692 336.125 554.297 348.183C571.2 350.034 571.2 350.034 585.971 348.183C587.8 344.991 589.629 341.799 591.514 338.511C601.412 321.24 601.412 321.24 611.31 303.969C615.491 303.969 619.672 303.969 623.98 303.969C621.322 331.027 607.646 340.799 585.971 359.236C578.829 376.149 579.722 389.892 582.408 407.595C583.375 414.22 583.375 414.22 584.363 420.98C584.893 424.314 585.424 427.648 585.971 431.083C573.915 415.306 570.375 406.658 566.175 388.597C564.582 381.896 564.582 381.896 562.958 375.06C562.19 371.662 561.423 368.264 560.632 364.763C544.953 367.498 544.953 367.498 528.958 370.289C526.867 375.761 524.777 381.232 522.623 386.869C518.442 385.046 514.261 383.222 509.953 381.343C510.084 374.731 510.214 368.12 510.349 361.309C510.389 341.661 508.046 323.282 503.618 303.969C488.985 303.969 474.351 303.969 459.274 303.969C456.139 290.29 456.139 290.29 452.94 276.335C446.668 276.335 440.397 276.335 433.935 276.335C433.935 272.688 433.935 269.04 433.935 265.282C442.297 263.458 450.659 261.634 459.274 259.755C451.696 259.413 444.118 259.071 436.311 258.719C406.811 255.587 392.288 244.266 370.587 226.595C364.577 223.517 358.566 220.44 352.374 217.269C345.711 213.678 345.711 213.678 338.913 210.015C338.913 206.367 338.913 202.72 338.913 198.962C345.184 195.314 351.456 191.666 357.917 187.908C362.563 170.966 362.563 170.966 364.252 154.748C370.523 156.572 376.795 158.396 383.256 160.275C383.256 152.98 383.256 145.684 383.256 138.168Z" fill="#A7B2B2"/>
<path d="M110.858 232.121C132.105 235.431 145.691 241.357 161.537 254.228C162.19 257.876 162.844 261.523 163.517 265.281C165.672 270.753 165.672 270.753 167.872 276.335C182.417 282.32 197.232 287.819 212.216 292.915C227.657 302.241 227.657 302.241 237.555 309.495C235.465 304.023 233.374 298.552 231.22 292.915C227.039 292.915 222.858 292.915 218.551 292.915C218.551 289.267 218.551 285.62 218.551 281.861C212.279 280.038 206.008 278.214 199.546 276.335C212.216 270.808 212.216 270.808 231.22 276.335C235.401 272.687 239.582 269.039 243.89 265.281C264.697 253.179 283.21 248.712 307.238 243.174C309.329 250.47 311.419 257.765 313.573 265.281C303.12 267.105 292.668 268.929 281.899 270.808C281.899 279.927 281.899 289.046 281.899 298.441C275.627 301.177 275.627 301.177 269.229 303.968C265.048 302.144 260.867 300.321 256.559 298.441C254.469 313.032 252.379 327.622 250.225 342.655C239.772 344.479 229.32 346.303 218.551 348.182C220.641 339.063 222.731 329.944 224.885 320.548C216.523 318.724 208.161 316.901 199.546 315.022C197.456 318.669 195.365 322.317 193.211 326.075C186.876 309.495 186.876 309.495 193.211 298.441C178.578 296.618 163.944 294.794 148.867 292.915C148.867 289.267 148.867 285.62 148.867 281.861C145.732 279.354 142.596 276.846 139.365 274.262C129.863 265.281 129.863 265.281 129.863 243.174C123.591 243.174 117.32 243.174 110.858 243.174C110.858 239.527 110.858 235.879 110.858 232.121Z" fill="#347BBD"/>
<path d="M522.623 519.509C553.92 526.494 572.469 535.645 592.306 558.196C594.286 572.703 594.286 572.703 585.971 585.829C563.389 596.794 542.107 602.409 516.288 602.409C517.203 607.995 518.117 613.58 519.06 619.335C515.217 649.505 497.728 660.904 471.944 679.783C465.673 677.959 459.401 676.135 452.94 674.256C452.94 665.137 452.94 656.018 452.94 646.623C448.759 646.623 444.578 646.623 440.27 646.623C438.18 652.094 436.089 657.566 433.935 663.203C418.545 643.063 420.241 631.632 421.266 607.936C414.994 607.936 408.723 607.936 402.261 607.936C402.261 604.288 402.261 600.641 402.261 596.883C391.008 590.944 391.008 590.944 383.257 591.356C372.689 589.557 362.13 587.717 351.583 585.829C351.583 580.358 351.583 574.886 351.583 569.249C359.944 572.897 368.306 576.544 376.922 580.302C381.103 574.831 385.284 569.36 389.591 563.722C395.863 563.722 402.134 563.722 408.596 563.722C410.686 567.37 412.777 571.018 414.931 574.776C438.995 576.896 438.995 576.896 450.96 568.213C461.183 555.896 463.296 545.495 465.609 530.562C476.062 534.21 486.514 537.857 497.284 541.616C497.284 545.263 497.284 548.911 497.284 552.669C484.744 560.205 472.059 567.559 459.275 574.776C455.878 577.967 452.481 581.159 448.981 584.448C440.27 591.356 440.27 591.356 414.931 591.356C421.202 595.004 427.474 598.651 433.935 602.409C435.123 619.68 435.123 619.68 433.935 635.57C444.388 633.746 454.84 631.922 465.609 630.043C465.609 639.162 465.609 648.281 465.609 657.676C481.921 652.099 481.921 652.099 497.284 641.096C497.872 631.863 497.872 631.863 498.471 622.444C503.618 602.409 503.618 602.409 517.352 593.752C560.297 574.776 560.297 574.776 585.971 574.776C571.338 557.177 571.338 557.177 554.297 541.616C537.11 538.831 537.11 538.831 522.623 541.616C522.623 534.32 522.623 527.025 522.623 519.509Z" fill="#DAE3E7"/>
<path d="M345.248 259.753C345.248 267.048 345.248 274.343 345.248 281.86C349.429 281.86 353.61 281.86 357.918 281.86C357.918 285.507 357.918 289.155 357.918 292.913C368.37 294.737 378.823 296.561 389.592 298.44C381.702 277.79 372.906 275.296 351.583 265.28C373.18 258.999 376.943 260.485 397.114 267.698C401.647 269.286 406.179 270.875 410.848 272.512C414.286 273.773 417.724 275.034 421.266 276.333C421.266 279.981 421.266 283.628 421.266 287.386C429.628 287.386 437.99 287.386 446.605 287.386C452.821 304.257 452.821 314.729 446.605 331.6C430.927 328.864 430.927 328.864 414.931 326.073C414.931 331.545 414.931 337.016 414.931 342.653C425.384 342.653 435.836 342.653 446.605 342.653C446.605 346.301 446.605 349.949 446.605 353.707C438.505 354.391 430.404 355.075 422.058 355.779C400.058 357.523 400.058 357.523 383.257 370.287C365.971 370.105 349.704 367.17 332.578 364.76C357.918 342.653 357.918 342.653 374.547 341.963C379.512 342.191 384.476 342.419 389.592 342.653C391.682 335.358 393.773 328.063 395.927 320.547C389.263 317.355 382.6 314.163 375.734 310.875C355.519 300.838 337.679 289.487 319.909 276.333C329.411 259.753 329.411 259.753 345.248 259.753Z" fill="#2A78C5"/>
<path d="M383.256 138.168C385.347 138.168 387.437 138.168 389.591 138.168C389.591 147.287 389.591 156.406 389.591 165.801C385.41 165.801 381.229 165.801 376.922 165.801C374.831 176.744 372.741 187.687 370.587 198.962C366.406 198.962 362.225 198.962 357.917 198.962C357.917 202.609 357.917 206.257 357.917 210.015C363.666 211.269 369.415 212.523 375.338 213.815C395.926 221.068 395.926 221.068 408.596 235.231C420.279 250.383 420.279 250.383 441.854 253.192C450.477 253.705 450.477 253.705 459.274 254.229C446.731 259.7 446.731 259.7 433.935 265.282C433.935 268.93 433.935 272.577 433.935 276.335C442.297 276.335 450.659 276.335 459.274 276.335C463.455 287.278 467.636 298.221 471.944 309.496C476.125 305.848 480.306 302.2 484.614 298.442C492.976 300.266 501.338 302.09 509.953 303.969C512.044 320.383 514.134 336.798 516.288 353.709C503.618 342.656 503.618 342.656 502.826 325.385C503.088 320.141 503.349 314.898 503.618 309.496C483.867 313.068 483.867 313.068 478.279 326.076C469.917 324.252 461.555 322.428 452.94 320.549C450.849 309.606 448.759 298.663 446.605 287.389C438.243 287.389 429.881 287.389 421.265 287.389C418.783 281.462 416.3 275.534 413.743 269.427C400.823 243.18 380.703 231.694 352.77 217.614C348.197 215.107 343.624 212.599 338.913 210.015C338.913 206.367 338.913 202.72 338.913 198.962C347.275 197.138 355.637 195.314 364.252 193.435C364.252 180.668 364.252 167.902 364.252 154.748C370.523 156.572 376.795 158.396 383.256 160.275C383.256 152.98 383.256 145.684 383.256 138.168Z" fill="#E6EAE4"/>
<path d="M161.536 143.692C168.663 153.364 168.663 153.364 174.206 165.799C168.663 178.234 168.663 178.234 161.536 187.906C165.717 187.906 169.898 187.906 174.206 187.906C176.296 195.201 178.387 202.496 180.541 210.013C176.36 210.013 172.179 210.013 167.871 210.013C165.781 220.956 163.69 231.899 161.536 243.173C155.265 241.349 148.993 239.525 142.532 237.646C142.532 233.999 142.532 230.351 142.532 226.593C138.351 226.593 134.17 226.593 129.862 226.593C107.135 206.765 107.135 206.765 98.188 193.433C99.3758 177.543 99.3758 177.543 104.523 165.799C135.405 170.635 135.405 170.635 142.532 176.853C148.803 165.91 155.075 154.967 161.536 143.692Z" fill="#518CBE"/>
<path d="M281.899 132.639C288.17 136.287 294.442 139.934 300.903 143.693C298.813 147.34 296.722 150.988 294.568 154.746C290.387 154.746 286.206 154.746 281.899 154.746C279.808 160.217 277.718 165.689 275.564 171.326C279.745 173.15 283.926 174.974 288.233 176.853C284.052 176.853 279.871 176.853 275.564 176.853C273.473 180.5 271.383 184.148 269.229 187.906C265.048 187.906 260.867 187.906 256.559 187.906C252.378 195.201 248.197 202.497 243.89 210.013C235.528 208.189 227.166 206.365 218.55 204.486C218.55 184.424 218.55 164.363 218.55 143.693C244.009 132.587 254.385 130.596 281.899 132.639Z" fill="#1F56A0"/>
<path d="M560.634 364.761C574.342 382.699 578.21 396.002 583.598 416.919C585.247 423.181 586.897 429.443 588.597 435.895C592.308 453.188 592.308 453.188 592.308 475.295C575.801 480.438 569.237 481.646 552.716 475.64C547.228 472.733 547.228 472.733 541.63 469.768C541.891 475.809 542.152 481.851 542.422 488.075C541.63 508.455 541.63 508.455 528.96 525.035C521.881 506.508 523.593 498.887 528.168 480.131C529.328 475.215 530.487 470.299 531.682 465.234C535.295 453.188 535.295 453.188 541.63 447.661C552.185 447.437 562.749 447.425 573.304 447.661C571.932 443.401 570.56 439.141 569.147 434.751C567.383 429.209 565.619 423.666 563.802 417.955C562.038 412.441 560.274 406.927 558.457 401.246C554.299 386.868 554.299 386.868 554.299 375.814C550.51 378.664 546.721 381.514 542.817 384.45C538.245 387.071 533.672 389.693 528.96 392.394C522.689 390.57 516.417 388.747 509.956 386.868C539.254 364.761 539.254 364.761 560.634 364.761Z" fill="#D3D8D6"/>
<path d="M554.297 375.814C557.497 384.671 560.656 393.539 563.799 402.412C565.563 407.349 567.327 412.286 569.144 417.373C573.301 431.081 573.301 431.081 573.301 447.662C562.849 449.485 552.396 451.309 541.627 453.188C537.446 464.131 533.265 475.074 528.957 486.348C516.414 484.525 503.871 482.701 490.948 480.822C480.17 452.61 491.6 425.07 503.618 397.921C517.66 383.943 532.285 375.814 554.297 375.814Z" fill="#3F84BF"/>
<path d="M9.50251 160.272C11.593 160.272 13.6835 160.272 15.8373 160.272C17.0214 164.875 18.2055 169.477 19.4254 174.219C31.6239 200.027 49.9262 216.112 72.4549 235.574C76.6813 239.261 80.9077 242.948 85.2622 246.747C118.196 274.325 148.352 289.765 193.213 298.44C189.343 317.683 185.351 336.905 181.335 356.125C180.232 361.614 179.13 367.103 177.994 372.759C176.341 380.587 176.341 380.587 174.654 388.573C173.161 395.823 173.161 395.823 171.638 403.219C170.395 406.942 169.153 410.665 167.873 414.501C161.602 417.236 161.602 417.236 155.204 420.027C154.548 384.563 156.818 350.242 161.538 315.02C155.267 314.222 148.995 313.424 142.534 312.602C103.009 302.93 76.7826 269.451 56.791 239.805C48.0089 227.301 39.9809 219.768 27.3192 210.358C11.4106 197.164 9.70225 195.001 7.12695 174.78C7.91089 169.993 8.69482 165.205 9.50251 160.272Z" fill="#B3C8D6"/>
<path d="M262.896 519.509C276.357 521.581 276.357 521.581 288.235 525.035C299.588 553.585 301.667 572.071 294.57 602.409C286.208 602.409 277.846 602.409 269.231 602.409C249.819 583.643 243.708 574.033 244.683 548.524C250.226 530.562 250.226 530.562 262.896 519.509Z" fill="#2C6DAC"/>
<path d="M180.543 331.602C184.724 331.602 188.905 331.602 193.212 331.602C193.212 335.249 193.212 338.897 193.212 342.655C197.393 342.655 201.574 342.655 205.882 342.655C226.514 421.296 226.514 421.296 218.552 442.136C210.19 438.488 201.828 434.84 193.212 431.082C193.212 434.73 193.212 438.377 193.212 442.136C184.85 440.312 176.488 438.488 167.873 436.609C169.964 429.314 172.054 422.018 174.208 414.502C186.751 417.238 186.751 417.238 199.547 420.029C195.236 415.697 190.924 411.366 186.482 406.903C167.738 383.034 174.903 358.662 180.543 331.602Z" fill="#327CC3"/>
<path d="M288.234 176.854C290.287 202.524 287.504 217.149 269.229 237.647C251.275 249.955 243.456 248.663 220.134 246.628C213.34 245.488 206.546 244.348 199.546 243.174C195.365 234.055 191.184 224.936 186.876 215.54C208.159 209.351 222.231 211.562 243.89 215.54C248.071 213.717 252.252 211.893 256.56 210.014C257.605 205.454 258.65 200.895 259.727 196.197C260.772 191.637 261.818 187.078 262.894 182.38C275.564 176.854 275.564 176.854 288.234 176.854Z" fill="#1C60AE"/>
<path d="M351.583 149.22C353.673 145.573 355.764 141.925 357.918 138.167C366.28 138.167 374.642 138.167 383.257 138.167C383.257 145.462 383.257 152.757 383.257 160.274C379.076 160.274 374.895 160.274 370.587 160.274C368.497 167.569 366.406 174.864 364.252 182.38C351.709 184.204 339.166 186.028 326.243 187.907C326.243 182.436 326.243 176.964 326.243 171.327C322.062 171.327 317.881 171.327 313.574 171.327C311.222 166.996 308.87 162.664 306.447 158.201C289.054 136.957 272.801 137.188 243.891 132.64C243.891 130.816 243.891 128.993 243.891 127.113C290.091 120.282 314.32 122.731 351.583 149.22Z" fill="#2E70B5"/>
<path d="M256.561 298.44C272.498 303.822 280.25 306.518 287.84 320.202C288.236 331.601 288.236 331.601 279.921 341.272C269.231 348.181 269.231 348.181 256.561 348.181C256.561 351.828 256.561 355.476 256.561 359.234C262.833 359.234 269.104 359.234 275.566 359.234C275.566 368.353 275.566 377.472 275.566 386.868C260.917 390.667 260.917 390.667 243.892 392.394C232.014 386.522 232.014 386.522 224.887 375.814C226.075 358.543 226.075 358.543 231.222 342.654C235.403 340.83 239.584 339.006 243.892 337.127C248.521 324.338 252.769 311.438 256.561 298.44Z" fill="#5E95BF"/>
<path d="M275.564 143.692C283.926 147.34 292.288 150.988 300.903 154.746C300.18 165.457 299.372 176.165 298.528 186.87C298.087 192.833 297.646 198.796 297.192 204.939C294.569 221.066 294.569 221.066 281.899 237.646C277.718 237.646 273.537 237.646 269.229 237.646C269.229 241.294 269.229 244.942 269.229 248.7C256.686 250.523 244.143 252.347 231.22 254.226C231.22 257.874 231.22 261.522 231.22 265.28C222.858 263.456 214.496 261.632 205.881 259.753C210.062 257.929 214.243 256.105 218.551 254.226C218.551 250.579 218.551 246.931 218.551 243.173C210.189 241.349 201.827 239.525 193.211 237.646C191.121 230.351 189.03 223.056 186.876 215.539C208.159 209.35 222.231 211.561 243.89 215.539C248.071 213.716 252.252 211.892 256.56 210.013C258.723 200.811 260.832 191.599 262.894 182.379C267.075 178.732 271.256 175.084 275.564 171.326C276.621 157.047 276.621 157.047 275.564 143.692Z" fill="#2066B3"/>
<path d="M148.868 386.869C150.959 386.869 153.049 386.869 155.203 386.869C155.668 393.355 155.668 393.355 156.143 399.973C156.617 405.565 157.09 411.158 157.578 416.92C158.019 422.498 158.46 428.077 158.915 433.824C159.78 438.391 160.646 442.957 161.538 447.662C165.719 449.486 169.9 451.31 174.207 453.189C174.207 456.837 174.207 460.484 174.207 464.242C184.235 466.897 194.266 469.544 204.298 472.187C209.883 473.662 215.469 475.136 221.224 476.656C226.613 478.031 232.003 479.406 237.556 480.822C243.925 482.532 243.925 482.532 250.423 484.277C265.457 486.775 277.843 485.68 292.985 483.931C298.048 483.368 303.111 482.806 308.328 482.226C314.06 481.531 314.06 481.531 319.908 480.822C320.178 469.772 320.167 458.713 319.908 447.662C317.818 445.838 315.727 444.015 313.574 442.136C311.594 429.01 311.594 429.01 313.574 414.502C336.772 394.263 362.461 387.101 394.739 386.178C401.402 386.406 408.066 386.634 414.931 386.869C414.931 390.516 414.931 394.164 414.931 397.922C374.166 408.865 374.166 408.865 332.578 420.029C332.97 430.744 333.362 441.459 333.766 452.498C334.434 470.762 334.434 470.762 332.578 486.349C309.569 499.732 297.79 499.053 270.418 499.13C262.799 499.222 255.18 499.315 247.33 499.41C222.893 497.224 208.015 491.454 186.877 480.822C179.952 477.631 173.027 474.439 165.893 471.151C148.868 458.716 148.868 458.716 142.929 440.063C142.56 421.384 144.286 405.079 148.868 386.869Z" fill="#70959E"/>
<path d="M243.888 127.114C243.888 130.762 243.888 134.41 243.888 138.168C235.526 139.991 227.164 141.815 218.549 143.694C219.594 148.596 220.64 153.497 221.717 158.547C224.44 174.29 225.419 188.627 224.884 204.488C231.155 204.488 237.427 204.488 243.888 204.488C248.069 197.193 252.25 189.898 256.558 182.381C258.649 191.5 260.739 200.619 262.893 210.015C236.416 225.414 223.955 219.939 193.21 215.541C194.9 226.512 194.9 226.512 199.545 237.648C205.816 239.472 212.088 241.296 218.549 243.175C218.549 246.823 218.549 250.47 218.549 254.228C206.006 256.052 193.463 257.876 180.54 259.755C176.359 254.284 172.178 248.812 167.87 243.175C174.142 243.175 180.413 243.175 186.875 243.175C180.603 239.527 174.332 235.88 167.87 232.122C167.87 224.826 167.87 217.531 167.87 210.015C172.051 210.015 176.232 210.015 180.54 210.015C178.45 202.72 176.359 195.424 174.205 187.908C170.024 187.908 165.843 187.908 161.536 187.908C165.717 180.613 169.898 173.317 174.205 165.801C176.296 173.096 178.386 180.392 180.54 187.908C184.721 187.908 188.902 187.908 193.21 187.908C194.239 171.993 194.239 171.993 188.855 160.274C188.201 156.627 187.548 152.979 186.875 149.221C202.312 131.04 218.185 127.114 243.888 127.114Z" fill="#4488C8"/>
<path d="M560.633 552.67C574.095 557.851 574.095 557.851 585.972 563.723C585.972 567.371 585.972 571.019 585.972 574.777C580.558 576.323 575.144 577.869 569.566 579.461C548.625 586.092 529.278 592.711 509.954 602.41C502.672 621.978 502.672 621.978 503.62 641.097C490.496 652.546 484.289 657.677 465.611 657.677C465.611 648.558 465.611 639.439 465.611 630.044C455.158 633.691 444.706 637.339 433.936 641.097C429.584 627.332 427.602 616.896 427.602 602.41C418.495 593.081 418.495 593.081 408.597 585.83C423.231 585.83 437.864 585.83 452.941 585.83C452.941 589.478 452.941 593.125 452.941 596.884C457.122 596.884 461.303 596.884 465.611 596.884C469.922 604.92 469.922 604.92 474.321 613.118C482.448 630.435 482.448 630.435 497.285 635.57C497.285 617.332 497.285 599.094 497.285 580.303C522.624 569.25 522.624 569.25 547.963 569.25C547.963 565.602 547.963 561.955 547.963 558.197C552.144 556.373 556.325 554.549 560.633 552.67Z" fill="#2762A3"/>
<path d="M459.276 348.182C463.457 348.182 467.638 348.182 471.946 348.182C476.127 359.125 480.308 370.067 484.615 381.342C495.068 377.694 505.52 374.047 516.29 370.288C518.38 373.936 520.471 377.584 522.624 381.342C526.74 377.238 526.74 377.238 530.939 373.052C541.629 364.762 541.629 364.762 560.633 364.762C565.071 375.329 569.407 385.928 573.699 396.54C576.124 402.439 578.55 408.338 581.048 414.416C585.847 430.655 586.426 437.844 579.638 453.189C571.276 453.189 562.914 453.189 554.299 453.189C562.251 467.066 570.14 469.058 585.973 475.296C571.339 473.472 556.706 471.648 541.629 469.769C541.629 475.24 541.629 480.712 541.629 486.349C537.448 486.349 533.267 486.349 528.959 486.349C534.502 453.88 534.502 453.88 541.629 447.662C552.184 447.438 562.748 447.426 573.303 447.662C571.931 443.402 570.559 439.142 569.146 434.752C566.5 426.438 566.5 426.438 563.801 417.956C562.037 412.442 560.273 406.928 558.456 401.247C554.299 386.869 554.299 386.869 554.299 375.815C550.787 377.874 547.276 379.933 543.658 382.054C539.069 384.669 534.479 387.283 529.751 389.977C525.195 392.606 520.638 395.235 515.943 397.944C509.843 400.669 509.843 400.669 503.62 403.449C499.439 401.625 495.258 399.801 490.95 397.922C493.041 396.098 495.131 394.274 497.285 392.395C488.923 390.571 480.561 388.748 471.946 386.869C469.855 390.516 467.765 394.164 465.611 397.922C463.52 397.922 461.43 397.922 459.276 397.922C459.276 401.57 459.276 405.217 459.276 408.975C455.095 408.975 450.914 408.975 446.606 408.975C442.425 401.68 438.244 394.385 433.937 386.869C415.122 386.869 396.308 386.869 376.923 386.869C392.729 373.079 400.193 373.828 422.059 372.361C427.824 371.948 433.589 371.535 439.529 371.109C446.168 370.703 446.168 370.703 452.941 370.288C455.032 362.993 457.122 355.698 459.276 348.182Z" fill="#DFE4E2"/>
<path d="M433.938 431.082C440.21 432.906 446.481 434.73 452.943 436.609C455.033 449.375 457.124 462.142 459.277 475.296C455.096 475.296 450.915 475.296 446.608 475.296C446.608 478.943 446.608 482.591 446.608 486.349C442.427 486.349 438.246 486.349 433.938 486.349C429.757 493.644 425.576 500.94 421.268 508.456C402.264 502.929 402.264 502.929 393.949 490.149C389.594 475.296 389.594 475.296 393.554 463.206C403.639 451.607 412.578 448.055 427.603 442.135C429.694 438.488 431.784 434.84 433.938 431.082Z" fill="#4392D0"/>
<path d="M313.574 248.7C311.483 255.995 309.393 263.29 307.239 270.807C298.877 270.807 290.515 270.807 281.9 270.807C281.9 279.926 281.9 289.045 281.9 298.44C275.628 301.176 275.628 301.176 269.23 303.967C265.049 302.143 260.868 300.319 256.56 298.44C254.47 313.031 252.379 327.621 250.226 342.654C239.773 344.477 229.321 346.301 218.551 348.18C220.642 339.061 222.732 329.942 224.886 320.547C220.705 320.547 216.524 320.547 212.217 320.547C208.036 309.604 203.855 298.661 199.547 287.387C212.09 296.506 224.633 305.625 237.556 315.02C239.646 305.901 241.737 296.782 243.891 287.387C250.162 287.387 256.434 287.387 262.895 287.387C262.895 276.444 262.895 265.501 262.895 254.226C292.194 242.482 292.194 242.482 313.574 248.7Z" fill="#3484CB"/>
<path d="M205.881 303.968C207.971 309.439 210.062 314.911 212.216 320.548C216.397 320.548 220.578 320.548 224.885 320.548C224.134 324.217 223.383 327.886 222.609 331.666C217.143 363.1 217.143 363.1 228.053 392.74C248.025 406.244 263.314 407.721 288.234 408.975C286.143 414.447 284.053 419.918 281.899 425.555C269.356 423.731 256.813 421.908 243.89 420.028C245.98 425.5 248.071 430.971 250.225 436.609C241.863 438.432 233.501 440.256 224.885 442.135C224.044 438.673 223.203 435.211 222.337 431.643C220.659 424.868 220.659 424.868 218.947 417.956C217.844 413.468 216.742 408.979 215.606 404.355C212.702 392.232 212.702 392.232 205.881 381.342C205.626 368.448 205.607 355.548 205.881 342.655C201.7 342.655 197.519 342.655 193.211 342.655C188.856 332.638 188.856 332.638 186.876 320.548C195.983 310.876 195.983 310.876 205.881 303.968Z" fill="#5298D3"/>
<path d="M281.9 331.602C290.262 331.602 298.624 331.602 307.239 331.602C307.239 337.073 307.239 342.544 307.239 348.182C303.058 348.182 298.877 348.182 294.57 348.182C294.048 365.004 294.721 376.212 300.904 392.395C279.347 403.969 262.666 406.643 237.556 403.449C222.115 391.359 222.115 391.359 212.217 375.815C213.801 360.271 213.801 360.271 218.552 348.182C222.733 350.005 226.914 351.829 231.221 353.708C231.221 364.651 231.221 375.594 231.221 386.869C239.583 388.692 247.945 390.516 256.561 392.395C258.651 386.924 260.742 381.452 262.895 375.815C262.895 379.463 262.895 383.11 262.895 386.869C267.076 386.869 271.257 386.869 275.565 386.869C275.565 377.75 275.565 368.63 275.565 359.235C269.294 359.235 263.022 359.235 256.561 359.235C256.561 355.587 256.561 351.94 256.561 348.182C264.923 346.358 273.285 344.534 281.9 342.655C281.9 339.007 281.9 335.36 281.9 331.602Z" fill="#1658A1"/>
<path d="M560.63 552.67C574.092 557.851 574.092 557.851 585.97 563.723C585.97 567.371 585.97 571.019 585.97 574.777C580.556 576.323 575.142 577.869 569.563 579.461C548.622 586.092 529.275 592.711 509.952 602.41C502.669 621.978 502.669 621.978 503.617 641.097C490.494 652.546 484.286 657.677 465.608 657.677C465.608 648.558 465.608 639.439 465.608 630.044C481.287 632.779 481.287 632.779 497.282 635.57C497.282 617.332 497.282 599.094 497.282 580.303C522.621 569.25 522.621 569.25 547.961 569.25C547.961 565.602 547.961 561.955 547.961 558.197C552.142 556.373 556.323 554.549 560.63 552.67Z" fill="#215C9D"/>
<path d="M516.291 525.035C518.382 530.507 520.472 535.978 522.626 541.615C533.078 539.791 543.531 537.968 554.3 536.089C560.571 544.296 560.571 544.296 566.97 552.669C560.698 554.492 554.427 556.316 547.965 558.195C547.965 561.843 547.965 565.491 547.965 569.249C531.241 572.896 514.517 576.544 497.287 580.302C497.287 598.54 497.287 616.778 497.287 635.569C491.015 633.745 484.744 631.922 478.282 630.042C470.759 613.117 470.759 613.117 465.612 596.882C461.431 596.882 457.25 596.882 452.943 596.882C450.852 591.411 448.762 585.939 446.608 580.302C483.033 552.669 483.033 552.669 497.287 552.669C497.287 549.021 497.287 545.373 497.287 541.615C503.558 541.615 509.83 541.615 516.291 541.615C516.291 536.144 516.291 530.672 516.291 525.035Z" fill="#3C82C4"/>
<path d="M471.946 414.502C471.946 425.445 471.946 436.388 471.946 447.662C476.127 447.662 480.308 447.662 484.615 447.662C486.706 444.015 488.796 440.367 490.95 436.609C489.445 448.426 487.935 460.243 486.397 472.057C485.239 481.346 484.178 490.644 483.23 499.95C482.772 504.239 482.315 508.528 481.844 512.946C481.268 518.813 481.268 518.813 480.681 524.799C477.918 537.796 473.782 547.056 465.611 558.196C459.339 560.02 453.068 561.844 446.606 563.723C444.516 567.37 442.425 571.018 440.272 574.776C433.104 558.163 427.963 542.864 427.602 525.036C435.446 515.062 435.446 515.062 446.211 506.038C460.668 493.911 465.367 489.431 466.774 471.669C465.024 457.91 462.704 444.594 459.276 431.082C441.348 436.059 424.165 440.835 407.41 448.353C395.928 453.189 395.928 453.189 376.923 453.189C376.923 449.541 376.923 445.894 376.923 442.135C437.392 414.502 437.392 414.502 471.946 414.502Z" fill="#9AB9CB"/>
<path d="M281.899 270.807C307.239 270.807 307.239 270.807 316.741 278.406C319.877 281.37 323.012 284.333 326.243 287.387C332.907 289.439 332.907 289.439 339.705 291.532C351.582 298.44 351.582 298.44 356.334 318.474C357.117 327.707 357.117 327.707 357.917 337.127C349.555 337.127 341.193 337.127 332.578 337.127C332.317 340.547 332.055 343.966 331.786 347.49C329.042 353.303 329.042 353.303 326.243 359.234C306.843 366.142 306.843 366.142 288.234 370.287C290.325 362.992 292.415 355.697 294.569 348.18C298.75 348.18 302.931 348.18 307.239 348.18C307.239 342.709 307.239 337.238 307.239 331.6C300.967 331.6 294.696 331.6 288.234 331.6C277.911 308.821 273.901 294.533 281.899 270.807Z" fill="#2475C2"/>
<path d="M193.214 364.761C219.427 388.392 225.265 410.74 231.223 442.135C239.401 443.993 247.585 445.831 255.771 447.661C262.606 449.2 262.606 449.2 269.579 450.77C281.857 453.592 281.857 453.592 294.572 453.188C294.572 449.54 294.572 445.893 294.572 442.135C298.753 442.135 302.934 442.135 307.241 442.135C309.662 451.288 311.764 460.508 313.576 469.768C301.464 480.335 281.428 476.982 265.273 477.367C223.68 477.293 204.119 472.512 174.21 447.661C180.481 445.837 186.753 444.014 193.214 442.135C195.305 436.663 197.395 431.192 199.549 425.554C203.73 425.554 207.911 425.554 212.219 425.554C207.515 419.741 207.515 419.741 202.717 413.81C191.988 395.869 191.62 384.693 193.214 364.761Z" fill="#1A559B"/>
<path d="M288.234 99.4801C304.264 99.4801 318.023 98.1165 333.766 96.026C363.792 92.891 386.188 97.256 414.931 105.007C414.931 108.654 414.931 112.302 414.931 116.06C400.298 116.06 385.664 116.06 370.587 116.06C370.587 123.355 370.587 130.651 370.587 138.167C366.406 138.167 362.225 138.167 357.918 138.167C355.827 145.462 353.737 152.758 351.583 160.274C351.583 156.626 351.583 152.979 351.583 149.22C315.231 132.776 284.515 125.191 243.891 121.587C243.891 117.939 243.891 114.292 243.891 110.534C252.253 110.534 260.615 110.534 269.23 110.534C260.868 106.886 252.506 103.238 243.891 99.4801C260.894 92.0628 269.986 95.9854 288.234 99.4801Z" fill="#20589F"/>
<path d="M66.5176 88.4258C83.2416 92.0734 99.9655 95.721 117.196 99.4792C109.9 113.119 104.224 121.85 91.857 132.639C89.7665 132.639 87.676 132.639 85.5221 132.639C84.7382 136.173 83.9543 139.707 83.1466 143.347C81.84 147.109 80.5334 150.871 79.1873 154.746C72.9158 157.482 72.9158 157.482 66.5176 160.273C66.5176 156.625 66.5176 152.978 66.5176 149.219C62.3366 149.219 58.1557 149.219 53.848 149.219C51.7575 156.515 49.667 163.81 47.5131 171.326C63.0005 170.286 63.0005 170.286 79.1873 165.8C87.8039 154.925 87.8039 154.925 91.857 143.693C96.0379 143.693 100.219 143.693 104.527 143.693C97.7229 159.804 93.2626 170.1 79.1873 182.38C72.9158 182.38 66.6443 182.38 60.1828 182.38C60.1828 187.851 60.1828 193.323 60.1828 198.96C51.8208 197.136 43.4589 195.312 34.8435 193.433C26.1331 176.508 26.1331 176.508 22.1738 154.746C30.4299 143.352 39.9925 134.71 50.8538 125.148C62.7101 113.597 65.4523 103.761 66.5176 88.4258Z" fill="#3E82C0"/>
<path d="M351.583 149.22C353.673 145.573 355.764 141.925 357.918 138.167C366.28 138.167 374.642 138.167 383.257 138.167C383.257 145.462 383.257 152.757 383.257 160.274C379.076 160.274 374.895 160.274 370.587 160.274C369.999 165.232 369.999 165.232 369.399 170.291C362.127 187.373 350.915 191.157 332.578 198.961C328.397 198.961 324.216 198.961 319.909 198.961C317.818 211.727 315.728 224.494 313.574 237.647C309.393 237.647 305.212 237.647 300.904 237.647C302.995 217.586 305.085 197.524 307.239 176.854C311.42 180.501 315.601 184.149 319.909 187.907C321.999 182.436 324.09 176.964 326.243 171.327C322.062 171.327 317.881 171.327 313.574 171.327C311.222 166.996 308.87 162.664 306.447 158.201C289.054 136.957 272.801 137.188 243.891 132.64C243.891 130.816 243.891 128.993 243.891 127.113C290.091 120.282 314.32 122.731 351.583 149.22Z" fill="#2B6EB5"/>
<path d="M548.754 275.642C554.764 275.87 560.774 276.098 566.966 276.332C566.966 279.98 566.966 283.628 566.966 287.386C573.107 288.754 579.248 290.122 585.575 291.531C604.975 298.439 604.975 298.439 612.102 308.456C610.866 327.33 601.185 335.255 585.971 348.18C570.926 354.743 570.926 354.743 554.297 353.706C538.357 344.633 526.798 334.377 516.288 320.546C513.12 302.584 513.12 302.584 516.288 287.386C528.957 276.332 528.957 276.332 548.754 275.642ZM535.292 287.386C529.79 299.814 529.79 299.814 528.957 315.019C540.558 330.555 540.558 330.555 554.297 342.653C572.023 340.52 578.499 338.224 590.722 326.418C599.735 315.665 599.735 315.665 598.64 303.966C568.157 291.307 568.157 291.307 535.292 287.386Z" fill="#E6E9E3"/>
<path d="M369.798 221.413C393.518 234.244 405.491 245.261 421.268 265.281C419.178 270.753 417.087 276.224 414.933 281.861C412.843 278.214 410.752 274.566 408.598 270.808C389.408 267.173 389.408 267.173 370.589 265.281C372.68 257.986 374.77 250.691 376.924 243.174C364.381 246.822 351.838 250.47 338.915 254.228C338.915 250.58 338.915 246.933 338.915 243.174C334.734 243.174 330.553 243.174 326.246 243.174C328.225 232.466 328.225 232.466 332.58 221.068C351.585 215.541 351.585 215.541 369.798 221.413Z" fill="#206EBD"/>
<path d="M370.587 408.975C370.587 414.446 370.587 419.917 370.587 425.555C374.768 425.555 378.949 425.555 383.257 425.555C383.257 432.85 383.257 440.145 383.257 447.662C362.895 464.242 362.895 464.242 345.248 464.242C343.157 467.889 341.067 471.537 338.913 475.295C334.732 475.295 330.551 475.295 326.243 475.295C324.42 458.435 323.41 442.353 326.243 425.555C341.589 413.929 350.205 408.975 370.587 408.975Z" fill="#F1C947"/>
<path d="M307.24 536.089C311.421 537.913 315.602 539.736 319.91 541.616C323.869 555.778 323.869 555.778 326.245 569.249C330.426 563.778 334.607 558.306 338.915 552.669C343.096 550.845 347.277 549.021 351.584 547.142C351.584 558.085 351.584 569.028 351.584 580.302C366.494 584.104 366.494 584.104 383.258 585.829C389.53 582.182 395.801 578.534 402.263 574.776C398.082 582.071 393.901 589.366 389.593 596.883C379.3 597.032 369.005 597.139 358.711 597.228C352.978 597.292 347.246 597.356 341.34 597.422C326.245 596.883 326.245 596.883 313.575 591.356C312.922 594.776 312.269 598.195 311.596 601.718C307.24 613.463 307.24 613.463 288.236 624.516C281.964 624.516 275.693 624.516 269.231 624.516C269.231 620.868 269.231 617.221 269.231 613.463C279.684 609.815 290.136 606.167 300.906 602.409C301.951 595.57 302.996 588.731 304.073 581.684C304.661 577.837 305.249 573.99 305.855 570.026C307.67 556.512 307.67 556.512 307.24 536.089Z" fill="#B8A463"/>
<path d="M535.294 287.387C557.832 290.758 577.629 296.11 598.643 303.967C591.017 317.748 583.095 329.84 573.303 342.654C554.299 342.654 554.299 342.654 540.045 330.564C528.959 315.02 528.959 315.02 530.543 299.476C532.111 295.487 533.679 291.497 535.294 287.387Z" fill="#2665A9"/>
<path d="M288.233 513.983C301.097 522.721 306.513 528.299 310.924 542.091C313.798 566.989 315.486 585.318 300.903 607.937C294.568 613.463 294.568 613.463 278.335 613.809C273.239 613.695 268.144 613.581 262.894 613.463C240.382 584.004 232.806 566.072 237.554 530.563C250.252 511.905 264.45 510.87 288.233 513.983ZM262.894 519.509C249.629 535.248 243.812 543.924 244.285 563.723C250.995 582.457 260.503 593.526 275.563 607.937C281.835 606.113 288.106 604.289 294.568 602.41C301.665 572.071 299.586 553.585 288.233 525.036C279.871 523.212 271.509 521.389 262.894 519.509Z" fill="#E0EAE9"/>
<path d="M281.899 132.639C288.17 136.287 294.442 139.934 300.903 143.693C298.813 147.34 296.722 150.988 294.568 154.746C290.387 154.746 286.206 154.746 281.899 154.746C279.808 160.217 277.718 165.689 275.564 171.326C279.745 173.15 283.926 174.974 288.233 176.853C284.052 176.853 279.871 176.853 275.564 176.853C273.473 180.5 271.383 184.148 269.229 187.906C265.048 187.906 260.867 187.906 256.559 187.906C252.378 195.201 248.197 202.497 243.89 210.013C235.528 208.189 227.166 206.365 218.55 204.486C218.55 184.424 218.55 164.363 218.55 143.693C244.009 132.587 254.385 130.596 281.899 132.639Z" fill="#1F56A0"/>
<path d="M585.971 580.304C590.152 583.951 594.333 587.599 598.641 591.357C589.416 595.067 580.174 598.745 570.926 602.411C565.781 604.462 560.637 606.514 555.336 608.628C541.627 613.464 541.627 613.464 528.958 613.464C529.309 617.546 529.66 621.628 530.022 625.834C528.243 651.346 510.542 667.247 490.949 685.311C474.32 694.292 474.32 694.292 459.275 696.364C441.412 692.239 434.781 686.18 422.849 673.912C411.993 651.655 413.323 631.784 414.931 607.937C417.021 607.937 419.112 607.937 421.266 607.937C423.356 620.704 425.447 633.471 427.6 646.624C435.962 646.624 444.324 646.624 452.94 646.624C455.03 655.743 457.121 664.862 459.275 674.258C480.782 666.216 495.453 657.237 509.953 641.097C515.07 620.94 515.07 620.94 516.288 602.411C539.283 595.115 562.279 587.82 585.971 580.304Z" fill="#6A8093"/>
<path d="M294.571 5.52441C323.838 18.2911 353.105 31.0578 383.259 44.2113C381.168 56.978 379.078 69.7447 376.924 82.8982C398.874 91.1054 398.874 91.1054 421.268 99.4783C421.268 106.774 421.268 114.069 421.268 121.585C408.725 121.585 396.182 121.585 383.259 121.585C383.259 127.057 383.259 132.528 383.259 138.165C379.078 138.165 374.897 138.165 370.589 138.165C370.589 130.87 370.589 123.575 370.589 116.058C385.223 116.058 399.856 116.058 414.933 116.058C414.933 112.411 414.933 108.763 414.933 105.005C406.702 104.435 398.47 103.865 389.989 103.278C336.185 97.9971 287.272 78.6292 237.558 60.7914C241.739 57.1438 245.92 53.4962 250.227 49.738C265.804 54.2184 281.377 58.7104 296.947 63.2094C301.373 64.481 305.799 65.7527 310.359 67.0629C343.814 76.7454 343.814 76.7454 357.919 82.8982C360.01 71.9554 362.1 61.0125 364.254 49.738C341.259 38.7952 318.263 27.8523 294.571 16.5778C294.571 12.9302 294.571 9.28257 294.571 5.52441Z" fill="#DEE3E3"/>
<path d="M123.529 93.9531C131.891 95.7769 140.253 97.6007 148.868 99.4798C143.772 102.899 138.677 106.319 133.427 109.842C116.948 120.159 116.948 120.159 110.859 132.64C117.131 134.464 123.402 136.288 129.864 138.167C126.858 141.13 123.853 144.094 120.757 147.148C106.298 166.321 102.525 183.964 107.296 206.56C108.472 209.523 109.648 212.487 110.859 215.541C106.809 214.629 102.758 213.717 98.5853 212.777C86.7343 209.797 86.7343 209.797 79.1849 210.014C77.0944 213.661 75.0039 217.309 72.8501 221.067C60.1804 210.014 60.1804 210.014 59.3885 195.506C59.6499 191.175 59.9112 186.843 60.1804 182.38C63.9694 181.126 67.7584 179.873 71.6623 178.581C89.0895 169.458 95.1794 159.184 104.524 143.693C100.343 143.693 96.1622 143.693 91.8546 143.693C87.6736 152.812 83.4926 161.932 79.1849 171.327C68.7324 171.327 58.28 171.327 47.5107 171.327C49.6012 164.032 51.6917 156.736 53.8456 149.22C62.2075 149.22 70.5695 149.22 79.1849 149.22C79.1849 140.101 79.1849 130.982 79.1849 121.587C82.9739 121.131 86.7629 120.675 90.6668 120.205C108.304 114.929 113.603 107.376 123.529 93.9531Z" fill="#7DB1D1"/>
<path d="M294.57 442.136C298.751 442.136 302.932 442.136 307.24 442.136C309.661 451.289 311.762 460.51 313.574 469.769C301.449 480.347 281.023 476.743 264.875 477.023C227.952 476.925 207.473 475.302 180.543 453.189C193.213 447.662 193.213 447.662 213.009 452.844C219.019 454.782 225.029 456.719 231.222 458.716C231.222 455.068 231.222 451.421 231.222 447.662C252.127 449.486 273.031 451.31 294.57 453.189C294.57 449.542 294.57 445.894 294.57 442.136Z" fill="#174D8F"/>
<path d="M262.896 519.509C276.357 521.581 276.357 521.581 288.235 525.035C299.588 553.585 301.667 572.071 294.57 602.409C286.208 602.409 277.846 602.409 269.231 602.409C249.819 583.643 243.708 574.033 244.683 548.524C250.226 530.562 250.226 530.562 262.896 519.509Z" fill="#2C6EAC"/>
<path d="M749.093 633.844C774.544 635.979 784.159 641.352 801.355 657.678C803.335 672.876 803.335 672.876 801.355 685.311C790.665 691.529 790.665 691.529 776.016 696.365C758.991 692.565 758.991 692.565 744.342 685.311C742.251 679.84 740.161 674.368 738.007 668.731C733.826 668.731 729.645 668.731 725.337 668.731C725.067 659.523 725.08 650.306 725.337 641.098C731.672 635.571 731.672 635.571 749.093 633.844Z" fill="#AAB6C3"/>
<path d="M22.1719 11.0527C32.6244 12.8765 43.0768 14.7004 53.8461 16.5794C52.5395 19.8851 51.2329 23.1908 49.8868 26.5966C45.5682 40.2586 45.5682 40.2586 60.1809 55.2663C66.1474 75.6975 68.6118 95.0296 66.5157 116.06C58.2427 128.067 49.1457 136.423 37.6131 146.111C21.3889 161.497 22.1719 179.056 22.1719 198.961C32.0342 208.912 32.0342 208.912 44.3438 218.995C48.4595 222.486 52.5751 225.977 56.8155 229.573C60.0166 232.238 63.2176 234.902 66.5157 237.647C60.2442 240.383 60.2442 240.383 53.8461 243.174C4.64828 208.65 4.64828 208.65 0 178.235C0.4729 153.389 12.8313 141.264 32.2433 124.048C46.5147 111.287 47.5183 104.925 49.0949 86.6994C47.4068 64.976 41.3356 56.6912 28.5067 38.6862C30.4864 25.9057 30.4864 25.9057 34.8416 16.5794C30.6606 14.7556 26.4796 12.9318 22.1719 11.0527Z" fill="#90AAB9"/>
<path d="M180.54 331.602C184.721 331.602 188.902 331.602 193.21 331.602C193.21 335.249 193.21 338.897 193.21 342.655C197.391 342.655 201.572 342.655 205.879 342.655C206.683 373.502 206.683 373.502 201.92 387.214C198.551 402.399 204.809 411.873 212.214 425.555C198.584 439.231 188.662 445.244 167.87 447.662C165.78 445.838 163.689 444.015 161.536 442.136C162.66 404.784 171.401 367.983 180.54 331.602Z" fill="#337BC1"/>
<path d="M446.604 309.494C457.057 314.966 467.509 320.437 478.278 326.074C480.369 320.603 482.459 315.131 484.613 309.494C490.885 309.494 497.156 309.494 503.618 309.494C505.708 329.556 507.799 349.618 509.953 370.288C497.41 375.759 497.41 375.759 484.613 381.341C471.944 364.761 471.944 364.761 471.944 348.181C464.888 348.295 457.833 348.409 450.564 348.526C427.6 348.181 427.6 348.181 414.93 342.654C414.93 337.183 414.93 331.711 414.93 326.074C430.609 328.81 430.609 328.81 446.604 331.601C446.604 324.306 446.604 317.01 446.604 309.494Z" fill="#2B6DB2"/>
<path d="M566.968 270.807C587.082 279.581 602.576 289.435 617.647 303.967C605.312 323.338 593.407 339.889 573.303 353.707C553.807 354.256 546.03 346.877 530.543 336.437C516.289 320.547 516.289 320.547 513.122 300.168C514.167 294.126 515.213 288.085 516.289 281.86C537.089 269.763 542.868 268.304 566.968 270.807ZM535.294 287.387C529.792 299.815 529.792 299.815 528.959 315.021C540.56 330.556 540.56 330.556 554.298 342.654C572.025 340.521 578.501 338.225 590.724 326.419C599.737 315.667 599.737 315.667 598.642 303.967C568.158 291.309 568.158 291.309 535.294 287.387Z" fill="#D3DBDD"/>
<path d="M300.904 154.746C305.085 156.57 309.266 158.394 313.573 160.273C313.573 163.92 313.573 167.568 313.573 171.326C317.754 171.326 321.935 171.326 326.243 171.326C324.153 178.621 322.062 185.917 319.908 193.433C317.818 193.433 315.727 193.433 313.573 193.433C309.393 208.023 305.212 222.614 300.904 237.647C305.085 237.647 309.266 237.647 313.573 237.647C314.161 228.585 314.161 228.585 314.761 219.339C319.908 198.96 319.908 198.96 335.349 187.906C340.706 186.082 346.063 184.259 351.582 182.38C355.763 184.203 359.944 186.027 364.252 187.906C359.026 191.668 353.8 195.43 348.415 199.305C330.293 214.682 330.293 214.682 330.598 236.61C331.252 242.424 331.905 248.237 332.578 254.227C326.307 256.051 320.035 257.874 313.573 259.753C311.483 256.106 309.393 252.458 307.239 248.7C282.153 254.171 257.067 259.643 231.221 265.28C231.221 261.632 231.221 257.985 231.221 254.227C243.764 252.403 256.307 250.579 269.23 248.7C269.23 245.052 269.23 241.405 269.23 237.647C273.411 237.647 277.592 237.647 281.899 237.647C288.171 210.289 294.442 182.932 300.904 154.746Z" fill="#14519C"/>
<path d="M585.97 431.082C599.232 449.884 599.777 464.534 598.64 486.349C581.916 486.349 565.192 486.349 547.961 486.349C545.871 497.292 543.78 508.235 541.627 519.509C545.375 520.044 549.123 520.578 552.985 521.128C569.862 525.845 576.446 531.713 587.95 543.343C593.009 548.27 593.009 548.27 598.17 553.296C604.975 563.723 604.975 563.723 602.871 576.05C601.475 579.277 600.079 582.505 598.64 585.83C596.55 585.83 594.459 585.83 592.305 585.83C590.737 580.814 589.169 575.799 587.554 570.631C576.65 545.897 564.473 534.598 536.875 523.654C532.172 522.286 527.468 520.919 522.622 519.509C524.713 508.566 526.803 497.623 528.957 486.349C533.138 486.349 537.319 486.349 541.627 486.349C541.627 480.878 541.627 475.406 541.627 469.769C547.898 469.769 554.17 469.769 560.631 469.769C558.541 464.297 556.45 458.826 554.296 453.189C558.347 452.619 562.397 452.049 566.57 451.462C570.882 450.208 575.193 448.954 579.636 447.662C581.726 442.191 583.817 436.719 585.97 431.082Z" fill="#83A2B8"/>
<path d="M256.561 298.44C272.498 303.822 280.25 306.518 287.84 320.202C288.236 331.601 288.236 331.601 279.921 341.272C269.231 348.181 269.231 348.181 256.561 348.181C256.561 351.828 256.561 355.476 256.561 359.234C262.833 359.234 269.104 359.234 275.566 359.234C275.566 368.353 275.566 377.472 275.566 386.868C260.917 390.667 260.917 390.667 243.892 392.394C232.014 386.522 232.014 386.522 224.887 375.814C226.075 358.543 226.075 358.543 231.222 342.654C235.403 340.83 239.584 339.006 243.892 337.127C248.521 324.338 252.769 311.438 256.561 298.44Z" fill="#5E95BF"/>
<path d="M364.252 447.66C370.523 449.484 376.795 451.308 383.256 453.187C379.075 456.834 374.894 460.482 370.587 464.24C372.513 473.482 374.681 482.686 376.922 491.874C380.09 524.444 377.266 545.936 357.917 574.774C357.917 578.422 357.917 582.07 357.917 585.828C380.785 582.203 380.785 582.203 402.261 574.774C402.261 583.985 402.261 593.197 402.261 602.408C363.905 603.487 363.905 603.487 351.582 602.408C347.401 598.76 343.22 595.113 338.913 591.354C340.534 572.611 343.035 556.863 352.077 539.714C359.204 521.799 357.521 509.549 354.75 490.838C352.176 473.329 352.176 473.329 351.582 458.714C355.763 455.066 359.944 451.418 364.252 447.66Z" fill="#8BADC1"/>
<path d="M376.922 386.869C358.107 395.988 339.293 405.107 319.908 414.502C318.571 440.18 318.571 440.18 324.263 456.643C326.243 469.769 326.243 469.769 320.304 479.441C299.602 490.387 280.292 493.123 256.56 491.876C228.009 484.994 200.701 475.799 174.207 464.242C174.207 460.595 174.207 456.947 174.207 453.189C167.936 451.365 161.664 449.541 155.203 447.662C157.293 444.015 159.384 440.367 161.537 436.609C166.168 440.199 166.168 440.199 170.891 443.863C214.799 473.951 252.909 473.41 307.239 469.769C306.724 465.701 306.21 461.633 305.68 457.442C302.491 414.464 302.491 414.464 316.221 398.591C340.077 383.015 346.537 380.241 376.922 386.869Z" fill="#D8E1E4"/>
<path d="M433.938 431.082C440.21 432.906 446.481 434.73 452.943 436.609C455.033 449.375 457.124 462.142 459.277 475.296C455.096 475.296 450.915 475.296 446.608 475.296C446.608 478.943 446.608 482.591 446.608 486.349C442.427 486.349 438.246 486.349 433.938 486.349C429.757 493.644 425.576 500.94 421.268 508.456C402.264 502.929 402.264 502.929 393.949 490.149C389.594 475.296 389.594 475.296 393.554 463.206C403.639 451.607 412.578 448.055 427.603 442.135C429.694 438.488 431.784 434.84 433.938 431.082Z" fill="#4392D0"/>
<path d="M300.904 386.867C312.333 402.117 313.654 408.365 311.198 426.936C309.891 431.951 308.585 436.967 307.239 442.134C303.058 442.134 298.877 442.134 294.569 442.134C294.569 445.782 294.569 449.429 294.569 453.188C270.402 461.297 254.722 455.583 231.221 447.661C235.402 442.189 239.583 436.718 243.89 431.081C243.89 427.433 243.89 423.786 243.89 420.027C262.705 422.763 262.705 422.763 281.899 425.554C279.809 421.906 277.718 418.259 275.565 414.501C259.554 410.878 259.554 410.878 243.89 408.974C260.075 394.854 266.259 397.921 288.234 397.921C292.415 394.273 296.596 390.625 300.904 386.867Z" fill="#2672C3"/>
<path d="M332.58 204.487C369.681 220.424 398.373 234.654 421.268 265.281C419.178 270.752 417.087 276.224 414.933 281.861C412.843 278.213 410.752 274.566 408.598 270.808C389.408 267.173 389.408 267.173 370.589 265.281C372.68 257.986 374.77 250.691 376.924 243.174C364.381 246.822 351.838 250.469 338.915 254.228C338.915 250.58 338.915 246.932 338.915 243.174C334.734 243.174 330.553 243.174 326.246 243.174C328.336 230.408 330.427 217.641 332.58 204.487Z" fill="#206DBA"/>
<path d="M275.565 497.401C277.655 501.049 279.746 504.697 281.899 508.455C286.08 510.279 290.261 512.102 294.569 513.981C312.324 546.682 316.321 567.057 307.239 602.409C294.569 613.462 294.569 613.462 277.94 614.153C272.975 613.925 268.01 613.697 262.895 613.462C241.147 586.188 232.856 565.39 234.141 531.922C237.556 519.508 237.556 519.508 256.56 505.001C262.832 502.493 269.103 499.985 275.565 497.401ZM262.895 519.508C249.631 535.246 243.814 543.923 244.286 563.722C250.997 582.455 260.504 593.524 275.565 607.935C281.836 606.112 288.108 604.288 294.569 602.409C301.666 572.07 299.587 553.584 288.234 525.035C279.872 523.211 271.51 521.387 262.895 519.508Z" fill="#CCE0E5"/>
<path d="M224.885 320.549C224.134 324.218 223.383 327.887 222.609 331.667C217.143 363.1 217.143 363.1 228.053 392.741C248.025 406.245 263.314 407.722 288.234 408.976C286.143 414.447 284.053 419.919 281.899 425.556C269.356 423.732 256.813 421.908 243.89 420.029C245.98 425.501 248.071 430.972 250.225 436.609C241.863 438.433 233.501 440.257 224.885 442.136C224.044 438.674 223.203 435.211 222.337 431.644C220.659 424.869 220.659 424.869 218.947 417.957C217.844 413.468 216.742 408.98 215.606 404.356C212.702 392.233 212.702 392.233 205.881 381.342C205.626 368.449 205.607 355.549 205.881 342.655C201.7 342.655 197.519 342.655 193.211 342.655C191.121 335.36 189.03 328.065 186.876 320.549C202.656 313.665 208.483 316.256 224.885 320.549Z" fill="#5298D3"/>
<path d="M465.611 375.814C478.154 379.462 490.697 383.11 503.62 386.868C503.62 407.547 500.367 427.155 497.285 447.662C488.923 447.662 480.561 447.662 471.945 447.662C471.945 436.719 471.945 425.776 471.945 414.501C457.312 418.149 442.679 421.797 427.602 425.555C429.692 420.083 431.783 414.612 433.936 408.975C429.755 405.327 425.575 401.679 421.267 397.921C417.086 392.45 412.905 386.978 408.597 381.341C424.276 384.077 424.276 384.077 440.271 386.868C442.362 394.163 444.452 401.458 446.606 408.975C450.787 408.975 454.968 408.975 459.276 408.975C457.185 401.679 455.095 394.384 452.941 386.868C457.122 386.868 461.303 386.868 465.611 386.868C465.611 383.22 465.611 379.573 465.611 375.814Z" fill="#9CACAD"/>
<path d="M484.612 475.296C490.492 476.835 490.492 476.835 496.49 478.405C510.215 482.132 510.215 482.132 522.621 475.296C529.695 501.214 527.728 516.954 516.286 541.616C503.743 541.616 491.2 541.616 478.277 541.616C478.106 532.636 477.983 523.655 477.881 514.674C477.808 509.672 477.734 504.671 477.659 499.518C478.277 486.349 478.277 486.349 484.612 475.296Z" fill="#296FB3"/>
<path d="M681.786 546.798C687.796 548.735 693.806 550.673 699.998 552.67C704.353 568.214 704.353 568.214 706.333 585.83C698.81 596.538 698.81 596.538 687.329 602.41C674.659 602.41 674.659 602.41 661.989 596.883C649.438 582.913 642.454 574.801 644.173 556.815C653.669 538.969 661.007 541.359 681.786 546.798Z" fill="#CAC8C4"/>
<path d="M414.93 254.229C429.564 254.229 444.197 254.229 459.274 254.229C461.364 257.876 463.455 261.524 465.609 265.282C455.156 265.282 444.704 265.282 433.935 265.282C433.935 268.93 433.935 272.577 433.935 276.335C442.297 274.512 450.659 272.688 459.274 270.809C459.274 281.751 459.274 292.694 459.274 303.969C481.224 301.233 481.224 301.233 503.618 298.442C517.079 335.057 517.079 335.057 509.953 353.709C501.373 338.738 503.206 326.024 503.618 309.496C483.867 313.068 483.867 313.068 478.278 326.076C469.916 324.252 461.555 322.428 452.939 320.549C450.849 309.606 448.758 298.663 446.604 287.389C438.242 287.389 429.88 287.389 421.265 287.389C419.175 276.446 417.084 265.503 414.93 254.229Z" fill="#D3DEE0"/>
<path d="M535.294 287.387C557.832 290.758 577.629 296.11 598.643 303.967C591.017 317.748 583.095 329.84 573.303 342.654C554.299 342.654 554.299 342.654 540.045 330.564C528.959 315.02 528.959 315.02 530.543 299.476C532.111 295.487 533.679 291.497 535.294 287.387Z" fill="#2666A9"/>
<path d="M288.233 513.982C312.781 523.654 312.781 523.654 319.907 536.089C322.837 565.808 320.339 591.13 307.238 618.99C286.649 623.48 286.649 623.48 262.894 624.516C242.77 607.884 231.817 592.373 230.601 567.803C230.675 563.379 230.748 558.955 230.824 554.396C230.881 549.93 230.938 545.463 230.997 540.86C231.07 537.462 231.144 534.064 231.22 530.563C233.31 530.563 235.401 530.563 237.555 530.563C238.322 534.296 239.09 538.029 239.881 541.875C240.942 546.805 242.004 551.735 243.098 556.814C244.126 561.687 245.155 566.56 246.215 571.581C250.021 585.108 255.165 595.811 262.894 607.936C273.346 607.936 283.799 607.936 294.568 607.936C306.406 586.673 308.325 575.333 300.903 552.669C298.682 545.716 296.461 538.763 294.172 531.599C292.212 525.785 290.252 519.972 288.233 513.982Z" fill="#7A99B1"/>
<path d="M161.536 143.692C168.663 153.364 168.663 153.364 174.206 165.799C168.663 178.234 168.663 178.234 161.536 187.906C165.717 187.906 169.898 187.906 174.206 187.906C176.296 195.201 178.387 202.496 180.54 210.013C176.359 210.013 172.178 210.013 167.871 210.013C165.78 220.956 163.69 231.899 161.536 243.173C155.264 241.349 148.993 239.525 142.531 237.646C142.531 233.999 142.531 230.351 142.531 226.593C138.35 226.593 134.17 226.593 129.862 226.593C129.862 217.474 129.862 208.355 129.862 198.959C134.043 202.607 138.224 206.255 142.531 210.013C142.842 206.615 143.152 203.216 143.472 199.715C143.945 195.248 144.419 190.781 144.907 186.179C145.568 179.543 145.568 179.543 146.243 172.772C148.866 160.272 148.866 160.272 161.536 143.692Z" fill="#4E89C0"/>
<path d="M332.576 243.175C334.666 246.822 336.757 250.47 338.911 254.228C345.182 250.581 351.454 246.933 357.915 243.175C364.187 243.175 370.458 243.175 376.92 243.175C376.92 248.646 376.92 254.118 376.92 259.755C370.648 261.579 364.377 263.403 357.915 265.282C363.011 267.561 368.106 269.841 373.356 272.19C389.589 281.862 389.589 281.862 394.737 293.951C395.128 297.257 395.52 300.563 395.924 303.969C383.381 300.321 370.838 296.673 357.915 292.915C357.915 289.267 357.915 285.62 357.915 281.862C353.734 281.862 349.553 281.862 345.246 281.862C345.246 274.566 345.246 267.271 345.246 259.755C343.155 263.403 341.065 267.05 338.911 270.808C332.639 273.544 332.639 273.544 326.241 276.335C334.603 283.63 342.965 290.925 351.58 298.442C315.673 290.443 315.673 290.443 306.445 277.026C307.237 265.282 307.237 265.282 319.51 252.847C323.822 249.655 328.134 246.463 332.576 243.175Z" fill="#1158A7"/>
<path d="M22.1708 160.272C24.2613 160.272 26.3518 160.272 28.5056 160.272C30.2042 165.63 31.9027 170.987 33.6527 176.507C36.1351 182.093 38.6176 187.678 41.1753 193.433C47.4468 195.256 53.7183 197.08 60.1798 198.959C66.4513 207.167 66.4513 207.167 72.8494 215.539C79.1209 219.187 85.3924 222.835 91.8539 226.593C102.548 235.684 113.098 244.905 123.528 254.226C128.101 258.216 132.674 262.206 137.386 266.316C145.436 273.34 153.487 280.363 161.537 287.387C125.427 287.138 108.562 272.519 84.1581 251.56C79.6423 247.539 75.1265 243.517 70.4739 239.373C65.8111 235.459 61.1483 231.544 56.3442 227.51C22.9119 198.208 22.9119 198.208 19.1519 173.981C20.1481 169.457 21.1444 164.933 22.1708 160.272Z" fill="#2A629E"/>
</g>
</svg>
