<svg width="1115" height="926" viewBox="0 0 1115 926" fill="none" xmlns="http://www.w3.org/2000/svg">
<g style="mix-blend-mode:multiply">
<path d="M576.472 624.518C591.106 626.341 605.739 628.165 620.816 630.044C620.816 641.098 620.816 641.098 608.146 652.151C612.327 652.151 616.508 652.151 620.816 652.151C611.472 670.093 599.679 684.461 585.579 699.819C570.013 716.596 570.013 716.596 557.468 735.052C553.287 733.228 549.106 731.404 544.798 729.525C546.889 725.877 548.979 722.23 551.133 718.471C546.952 718.471 542.771 718.471 538.463 718.471C536.373 723.943 534.282 729.414 532.128 735.052C525.857 733.228 519.585 731.404 513.124 729.525C514.43 726.561 515.737 723.597 517.083 720.544C520.292 702.816 514.099 690.765 506.789 674.258C527.765 668.019 548.534 662.027 570.137 657.678C572.228 646.735 574.318 635.792 576.472 624.518Z" fill="#629FCB"/>
<path d="M737.366 158.332C763.555 161.42 772.226 175.36 788.168 192.572C810.322 218.915 819.888 237.908 817.195 270.809C789.126 282.373 789.126 282.373 770.871 279.79C765.58 278.08 765.58 278.08 760.181 276.336C760.181 272.688 760.181 269.04 760.181 265.282C756.221 263.943 752.26 262.604 748.18 261.224C724.652 248.885 722.401 226.613 715.837 204.489C710.69 185.491 710.69 185.491 709.502 171.328C722.172 160.275 722.172 160.275 737.366 158.332Z" fill="#9CB0C0"/>
<path d="M37.2171 747.487C57.0135 757.158 57.0135 757.158 73.6424 767.175C88.2677 775.489 88.2677 775.489 102.941 769.593C113.636 763.329 113.636 763.329 120.362 757.158C169.263 758.03 217.647 764.259 265.84 771.105C291.193 774.577 316.553 777 342.081 779.265C342.081 781.089 342.081 782.913 342.081 784.792C293.999 784.792 245.918 784.792 196.38 784.792C204.742 799.382 213.104 813.973 221.719 829.005C215.448 829.005 209.176 829.005 202.715 829.005C201.016 824.902 199.318 820.798 197.568 816.57C187.559 795.929 187.559 795.929 171.04 779.265C154.043 774.705 138.13 772.727 120.362 773.738C109.669 781.683 109.669 781.683 101.357 790.319C76.4495 789.204 63.5646 781.194 44.3438 768.212C30.7408 764.315 30.7408 764.315 19.0045 762.685C19.0045 759.037 19.0045 755.39 19.0045 751.632C12.733 749.808 6.46153 747.984 0 746.105C19.0045 740.578 19.0045 740.578 37.2171 747.487Z" fill="#DEE3E0"/>
<path d="M449.775 823.479C451.865 828.95 453.956 834.421 456.11 840.059C464.472 836.411 472.834 832.763 481.449 829.005C475.114 840.059 468.779 851.112 462.445 862.165C468.716 858.518 474.988 854.87 481.449 851.112C487.721 851.112 493.992 851.112 500.454 851.112C502.544 843.817 504.635 836.522 506.788 829.005C513.123 840.059 513.123 840.059 510.352 853.875C500.454 867.692 500.454 867.692 478.43 873.543C448.125 879.444 417.544 883.523 386.823 887.381C381.486 888.076 376.15 888.77 370.651 889.486C335.855 893.95 301.039 897.619 266.065 900.852C266.065 897.205 266.065 893.557 266.065 889.799C295.662 881.894 323.909 876.514 354.753 873.219C344.3 875.043 333.848 876.866 323.078 878.746C325.169 873.274 327.259 867.803 329.413 862.165C325.232 860.342 321.051 858.518 316.744 856.639C366.63 851.112 366.63 851.112 373.757 851.112C375.848 847.464 377.938 843.817 380.092 840.059C395.954 835.352 395.954 835.352 415.329 831.078C421.74 829.639 428.15 828.2 434.755 826.717C442.19 825.114 442.19 825.114 449.775 823.479Z" fill="#326EAB"/>
<path d="M576.472 624.518C591.106 626.341 605.739 628.165 620.816 630.044C620.816 641.098 620.816 641.098 608.146 652.151C612.327 652.151 616.508 652.151 620.816 652.151C610.224 672.41 596.28 686.751 579.244 703.1C569.857 713.248 563.654 723.22 557.468 735.052C553.287 733.228 549.106 731.404 544.798 729.525C546.889 725.877 548.979 722.23 551.133 718.471C546.952 718.471 542.771 718.471 538.463 718.471C536.373 723.943 534.282 729.414 532.128 735.052C525.857 733.228 519.585 731.404 513.124 729.525C514.43 726.561 515.737 723.597 517.083 720.544C520.292 702.816 514.099 690.765 506.789 674.258C527.765 668.019 548.534 662.027 570.137 657.678C572.228 646.735 574.318 635.792 576.472 624.518Z" fill="#5C99C7"/>
<path d="M424.434 806.898C429.137 807.924 433.841 808.95 438.687 810.007C455.791 812.381 465.27 811.603 481.447 806.898C484.583 815.106 484.583 815.106 487.782 823.479C475.239 828.95 475.239 828.95 462.443 834.532C462.443 830.884 462.443 827.237 462.443 823.479C421.678 834.421 421.678 834.421 380.09 845.585C380.09 851.057 380.09 856.528 380.09 862.165C376.791 861.261 373.492 860.356 370.093 859.424C350.47 855.862 332.019 856.119 311.991 856.293C300.869 856.368 300.869 856.368 289.522 856.444C283.871 856.509 278.22 856.573 272.398 856.639C274.488 849.343 276.579 842.048 278.733 834.532C293.514 834.532 308.295 834.532 323.077 834.532C323.077 838.18 323.077 841.827 323.077 845.585C337.71 841.938 352.343 838.29 367.42 834.532C365.33 830.884 363.239 827.237 361.086 823.479C365.267 819.831 369.448 816.183 373.755 812.425C390.326 814.232 403.154 816.959 418.099 823.479C420.19 818.007 422.28 812.536 424.434 806.898Z" fill="#76A9C9"/>
<path d="M677.829 652.151C677.829 655.799 677.829 659.446 677.829 663.204C669.402 665.598 669.402 665.598 660.804 668.04C626.948 686.988 615.337 717.537 602.083 749.818C592.364 768.745 578.054 775.262 557.467 784.792C551.196 782.968 544.924 781.144 538.463 779.265C542.121 776.985 545.78 774.706 549.549 772.357C567.908 759.899 584.972 747.853 595.476 729.525C591.295 729.525 587.114 729.525 582.807 729.525C585.942 724.224 585.942 724.224 589.142 718.817C595.937 708.701 595.937 708.701 595.476 701.891C595.476 679.929 604.013 673.559 620.816 657.678C641.39 644.939 653.935 646.36 677.829 652.151Z" fill="#3475AE"/>
<path d="M304.07 784.792C324.975 784.792 345.879 784.792 367.418 784.792C369.508 790.263 371.599 795.735 373.753 801.372C380.024 797.724 386.296 794.077 392.757 790.319C388.576 797.614 384.395 804.909 380.088 812.425C375.907 812.425 371.726 812.425 367.418 812.425C367.418 816.073 367.418 819.721 367.418 823.479C339.487 829.571 313.674 829.429 285.065 829.006C287.156 819.887 289.246 810.767 291.4 801.372C286.958 804.222 282.515 807.072 277.938 810.008C255.869 819.635 245.166 817.659 221.717 812.425C227.988 808.778 234.26 805.13 240.721 801.372C242.812 799.548 244.902 797.724 247.056 795.845C267.305 789.957 282.895 789.908 304.07 790.319C304.07 788.495 304.07 786.671 304.07 784.792Z" fill="#68A4CE"/>
<path d="M703.164 657.678C701.074 664.973 698.983 672.268 696.829 679.785C684.286 681.608 671.743 683.432 658.82 685.311C657.122 691.125 655.423 696.938 653.673 702.928C646.913 721.862 639.388 735.167 627.146 751.632C624.66 756.889 624.66 756.889 622.123 762.253C612.204 777.152 600.166 783.631 583.99 793.427C552.841 814.199 539.939 833.343 527.249 865.382C517.116 882.754 508.028 887.353 487.78 895.326C467.786 899.363 467.786 899.363 446.603 901.889C439.613 902.765 432.623 903.641 425.421 904.544C407.98 906.145 391.265 906.75 373.753 906.379C380.024 903.644 380.024 903.644 386.423 900.853C386.423 897.205 386.423 893.557 386.423 889.799C394.139 889.436 401.856 889.072 409.807 888.698C469.252 885.547 469.252 885.547 515.891 857.481C522.806 844.848 529.28 832.025 535.316 819.053C545.593 799.88 553.279 793.68 573.3 782.374C603.924 764.396 615.469 741.374 630.095 712.965C644.482 685.907 664.793 657.678 703.164 657.678Z" fill="#72949D"/>
<path d="M684.16 513.983C696.434 523.31 696.434 523.31 703.165 536.09C701.54 555.467 696.712 563.878 684.16 580.304C679.979 580.304 675.798 580.304 671.491 580.304C671.491 585.775 671.491 591.247 671.491 596.884C643.269 591.412 643.269 591.412 614.477 585.831C618.658 582.183 622.839 578.535 627.147 574.777C625.84 568.622 624.534 562.466 623.187 556.124C620.812 536.09 620.812 536.09 630.71 522.619C650.434 511.588 661.147 510.566 684.16 513.983Z" fill="#8E97A3"/>
<path d="M601.809 690.838C601.809 710.276 596.586 714.996 582.805 729.525C586.986 729.525 591.166 729.525 595.474 729.525C587.338 751.411 580.591 762.357 557.465 773.738C538.664 779.886 519.673 785.266 500.452 790.318C500.452 786.671 500.452 783.023 500.452 779.265C489.999 786.56 479.547 793.856 468.778 801.372C464.597 799.548 460.416 797.724 456.108 795.845C463.235 782.374 463.235 782.374 475.112 768.212C494.513 764.757 494.513 764.757 513.121 762.685C517.302 757.214 521.483 751.742 525.791 746.105C531.932 744.509 538.073 742.913 544.4 741.269C568.157 733.655 571.542 726.601 582.805 707.418C593.495 697.401 593.495 697.401 601.809 690.838Z" fill="#599DCF"/>
<path d="M665.157 607.937C667.248 607.937 669.338 607.937 671.492 607.937C678.649 626.252 685.295 644.396 690.497 663.204C684.094 666.167 677.692 669.131 671.096 672.184C646.629 687.071 636.624 705.69 624.773 728.833C608.42 760.559 591.562 777.45 558.43 796.622C531.862 816.645 520.708 845.716 506.787 873.218C500.452 878.745 500.452 878.745 477.884 879.09C470.698 878.976 463.512 878.862 456.108 878.745C456.108 876.921 456.108 875.097 456.108 873.218C466.103 872.363 466.103 872.363 476.3 871.491C489.064 868.978 489.064 868.978 500.452 862.165C509.936 847.436 516.639 832.377 523.762 816.677C539.302 788.238 566.232 774.165 595.474 757.157C602.243 744.32 608.471 731.573 614.479 718.471C633.603 676.76 633.603 676.76 660.406 665.967C669.029 664.599 669.029 664.599 677.827 663.204C675.736 660.24 673.646 657.276 671.492 654.223C663.719 638.117 664.256 625.242 665.157 607.937Z" fill="#E1E8EB"/>
<path d="M1057.92 5.52637C1072.57 5.87179 1072.57 5.87179 1089.59 11.0531C1106.91 37.0971 1112.95 58.017 1108.6 88.4269C1102 103.961 1094.87 113.424 1083.26 127.114C1064.98 132.947 1052.01 132.64 1032.58 132.64C1030.49 125.345 1028.4 118.05 1026.24 110.534C1030.43 110.534 1034.61 110.534 1038.91 110.534C1043.21 94.5022 1043.21 94.5022 1045.25 77.3735C1041.07 73.7258 1036.89 70.0782 1032.58 66.3201C1034.44 41.9546 1042.33 25.6249 1057.92 5.52637ZM1064.25 16.5798C1053.38 31.8669 1053.38 31.8669 1045.25 49.74C1050.53 61.2539 1050.53 61.2539 1057.92 71.8468C1055.94 85.6635 1055.94 85.6635 1051.58 99.4803C1050.41 103.698 1049.23 107.915 1048.02 112.261C1047.11 115.338 1046.19 118.416 1045.25 121.587C1065.88 120.128 1074.52 118.451 1088.41 104.662C1100.75 78.0284 1099.95 54.7502 1089.59 27.6332C1087.5 23.9855 1085.41 20.3379 1083.26 16.5798C1076.99 16.5798 1070.72 16.5798 1064.25 16.5798Z" fill="#E9ECE5"/>
<path d="M1064.25 16.5801C1070.52 16.5801 1076.8 16.5801 1083.26 16.5801C1096.67 39.9767 1100.65 62.6507 1095.93 88.4272C1084.84 107.771 1084.84 107.771 1070.59 121.587C1062.22 121.587 1053.86 121.587 1045.25 121.587C1047.47 117.598 1049.69 113.608 1051.98 109.498C1060.71 86.6531 1053.75 72.0008 1045.25 49.7403C1054.35 32.1239 1054.35 32.1239 1064.25 16.5801Z" fill="#5284B5"/>
<path d="M652.141 518.431C664.926 518.79 677.711 519.15 690.497 519.51C699.073 554.881 699.073 554.881 687.725 571.668C684.459 574.518 681.192 577.368 677.827 580.304C641.402 576.159 641.402 576.159 627.148 563.724C625.565 547.144 625.565 547.144 627.148 530.563C639.818 519.51 639.818 519.51 652.141 518.431Z" fill="#8C9396"/>
<path d="M582.803 696.365C582.803 719.048 573.564 728.642 557.464 746.106C540.835 749.905 540.835 749.905 525.79 751.632C519.518 759.839 519.518 759.839 513.12 768.212C493.324 772.012 493.324 772.012 475.111 773.739C473.02 781.034 470.93 788.33 468.776 795.846C477.138 792.198 485.5 788.551 494.115 784.792C492.025 793.911 489.934 803.031 487.781 812.426C462.695 815.162 462.695 815.162 437.102 817.953C435.011 812.481 432.921 807.01 430.767 801.373C439.403 790.082 439.403 790.082 451.751 778.229C455.777 774.276 459.803 770.322 463.951 766.248C475.111 757.159 475.111 757.159 487.781 757.159C487.781 753.511 487.781 749.864 487.781 746.106C494.967 743.598 502.153 741.09 509.557 738.506C532.423 731.897 532.423 731.897 538.459 718.472C551.129 718.472 551.129 718.472 557.464 723.999C565.826 714.88 574.188 705.761 582.803 696.365Z" fill="#3069A2"/>
<path d="M462.443 823.479C464.534 828.95 466.624 834.421 468.778 840.059C451.082 858.746 441.608 866.934 413.893 871.6C405.612 871.792 397.332 871.984 388.801 872.183C380.488 872.446 372.175 872.71 363.61 872.981C350.1 873.13 336.588 873.219 323.077 873.219C325.168 869.571 327.258 865.924 329.412 862.165C325.231 860.342 321.05 858.518 316.742 856.639C366.629 851.112 366.629 851.112 373.756 851.112C375.846 847.464 377.937 843.817 380.09 840.059C395.507 835.352 395.507 835.352 414.536 831.078C423.931 828.919 423.931 828.919 433.516 826.717C449.774 823.479 449.774 823.479 462.443 823.479Z" fill="#3E80BA"/>
<path d="M747.51 165.801C747.51 169.448 747.51 173.096 747.51 176.854C751.299 177.31 755.088 177.766 758.991 178.236C777.21 183.685 781.892 190.267 791.853 204.488C802.624 223.776 805.925 238.345 804.523 259.755C778.869 266.149 764.921 264.866 741.175 254.228C725.15 240.248 725.769 229.322 723.581 210.23C722.277 198.059 722.277 198.059 718.211 182.726C717.427 178.965 716.643 175.203 715.835 171.327C722.17 165.801 722.17 165.801 747.51 165.801ZM734.84 182.381C735.755 189.334 736.669 196.287 737.611 203.451C738.383 209.318 738.383 209.318 739.17 215.304C740.996 227.666 740.996 227.666 747.51 243.175C763.996 252.284 771.978 254.228 791.853 254.228C787.995 231.338 780.561 213.13 766.514 193.434C750.315 185.556 750.315 185.556 734.84 182.381Z" fill="#E5E9E2"/>
<path d="M1032.58 99.4814C1034.67 103.129 1036.76 106.777 1038.91 110.535C1034.73 110.535 1030.55 110.535 1026.24 110.535C1043.74 125.801 1059.23 124.786 1083.26 127.115C1083.91 131.219 1084.56 135.322 1085.24 139.55C1088.41 155.044 1088.41 155.044 1099.89 166.147C1108.6 176.855 1108.6 176.855 1106.62 189.29C1105.18 192.482 1103.74 195.674 1102.26 198.962C1060.29 200.344 1060.29 200.344 1038.91 187.909C1034.51 176.143 1034.51 176.143 1031.79 162.693C1029.51 146.075 1029.51 146.075 1019.91 132.642C1019.65 123.433 1019.64 114.216 1019.91 105.008C1024.09 103.184 1028.27 101.361 1032.58 99.4814Z" fill="#ADB2B3"/>
<path d="M753.844 353.709C761.767 367.533 761.021 377.33 760.97 392.741C760.987 397.707 761.003 402.673 761.02 407.789C760.179 420.029 760.179 420.029 753.844 425.556C744.358 426.097 734.843 426.273 725.337 426.247C720.176 426.261 715.015 426.275 709.698 426.29C696.83 425.556 696.83 425.556 690.495 420.029C687.216 400.004 690.562 392.296 702.373 374.434C720.79 353.642 723.173 353.709 753.844 353.709Z" fill="#A8B1BB"/>
<path d="M291.403 801.372C293.494 806.844 295.584 812.315 297.738 817.952C293.557 817.952 289.376 817.952 285.068 817.952C285.068 821.6 285.068 825.247 285.068 829.006C292.969 828.215 292.969 828.215 301.029 827.408C307.913 826.795 314.797 826.183 321.889 825.551C328.724 824.91 335.559 824.269 342.601 823.608C361.086 823.479 361.086 823.479 380.091 834.532C360.231 844.8 346.043 846.699 323.077 845.586C323.077 841.938 323.077 838.29 323.077 834.532C304.259 836.424 304.259 836.424 285.068 840.059C282.978 843.707 280.887 847.354 278.733 851.112C278.733 845.641 278.733 840.17 278.733 834.532C257.828 830.885 236.924 827.237 215.385 823.479C213.295 818.007 211.204 812.536 209.05 806.899C221.835 808.698 234.621 810.497 247.406 812.296C253.506 812.36 253.506 812.36 259.729 812.425C272.399 801.372 272.399 801.372 291.403 801.372Z" fill="#366EA4"/>
<path d="M462.441 718.471C483.346 718.471 504.251 718.471 525.79 718.471C523.699 725.766 521.609 733.061 519.455 740.578C509.002 742.401 498.55 744.225 487.781 746.104C487.781 749.752 487.781 753.399 487.781 757.158C476.695 766.7 476.695 766.7 462.441 777.192C457.738 780.683 453.034 784.174 448.188 787.77C444.53 790.435 440.871 793.099 437.102 795.845C435.011 792.197 432.921 788.549 430.767 784.791C435.518 772.701 435.518 772.701 443.437 757.158C446.876 750.137 450.307 743.113 453.731 736.087C458.042 727.367 458.042 727.367 462.441 718.471Z" fill="#63A0D2"/>
<path d="M532.124 773.738C538.396 779.21 544.667 784.681 551.129 790.318C547.193 791.629 543.257 792.94 539.201 794.291C522.226 803.253 520.223 810.089 513.911 826.242C502.956 850.061 502.956 850.061 479.862 859.748C474.113 860.545 468.364 861.343 462.441 862.165C466.253 850.999 470.506 839.942 475.111 829.005C479.292 827.181 483.473 825.358 487.78 823.479C487.78 808.888 487.78 794.298 487.78 779.265C491.961 779.265 496.142 779.265 500.45 779.265C500.45 782.913 500.45 786.56 500.45 790.318C510.902 784.847 521.355 779.376 532.124 773.738Z" fill="#3D85CA"/>
<path d="M677.829 652.151C677.829 655.799 677.829 659.446 677.829 663.204C669.402 665.598 669.402 665.598 660.804 668.04C626.948 686.988 615.337 717.537 602.083 749.818C592.364 768.745 578.054 775.262 557.467 784.792C551.196 782.968 544.924 781.144 538.463 779.265C542.121 776.985 545.78 774.706 549.549 772.357C567.908 759.899 584.972 747.853 595.476 729.525C591.295 729.525 587.114 729.525 582.807 729.525C585.942 724.224 585.942 724.224 589.142 718.817C595.937 708.701 595.937 708.701 595.476 701.891C595.476 679.929 604.013 673.559 620.816 657.678C641.39 644.939 653.935 646.36 677.829 652.151Z" fill="#3475AE"/>
<path d="M304.07 784.792C324.975 784.792 345.879 784.792 367.418 784.792C369.508 790.263 371.599 795.735 373.753 801.372C380.024 797.724 386.296 794.077 392.757 790.319C388.576 797.614 384.395 804.909 380.088 812.425C375.907 812.425 371.726 812.425 367.418 812.425C367.418 816.073 367.418 819.721 367.418 823.479C339.487 829.571 313.674 829.429 285.065 829.006C287.156 819.887 289.246 810.767 291.4 801.372C286.958 804.222 282.515 807.072 277.938 810.008C255.869 819.635 245.166 817.659 221.717 812.425C227.988 808.778 234.26 805.13 240.721 801.372C242.812 799.548 244.902 797.724 247.056 795.845C267.305 789.957 282.895 789.908 304.07 790.319C304.07 788.495 304.07 786.671 304.07 784.792Z" fill="#6EACD3"/>
<path d="M171.04 773.738C181.492 773.738 191.944 773.738 202.714 773.738C202.714 779.21 202.714 784.681 202.714 790.318C204.602 804.828 204.602 804.828 215.383 817.952C233.838 825.399 252.715 830.186 272.397 834.532C266.458 878.943 266.458 878.943 259.727 900.852C265.525 899.926 271.323 899 277.296 898.046C284.825 896.92 292.355 895.795 300.112 894.635C307.608 893.481 315.104 892.327 322.828 891.137C329.181 890.696 335.534 890.254 342.08 889.799C346.261 893.447 350.442 897.094 354.75 900.852C301.513 913.092 251.032 913.05 196.379 911.906C196.379 908.258 196.379 904.611 196.379 900.852C215.193 900.852 234.008 900.852 253.392 900.852C253.392 882.614 253.392 864.376 253.392 845.585C245.292 844.446 237.191 843.306 228.845 842.131C214.765 839.087 214.765 839.087 202.714 834.532C194.399 818.988 194.399 818.988 190.044 801.372C183.985 792.02 177.728 782.757 171.04 773.738Z" fill="#D4DDE3"/>
<path d="M424.434 784.792C423.389 788.098 422.343 791.403 421.266 794.809C417.216 810.27 416.2 820.165 424.434 834.532C409.8 838.18 395.167 841.828 380.09 845.586C380.09 851.057 380.09 856.529 380.09 862.166C376.791 861.261 373.492 860.356 370.093 859.424C350.47 855.862 332.019 856.119 311.991 856.294C300.869 856.368 300.869 856.368 289.522 856.445C283.871 856.509 278.22 856.573 272.398 856.639C274.488 849.344 276.579 842.049 278.733 834.532C293.514 834.532 308.295 834.532 323.077 834.532C323.077 838.18 323.077 841.828 323.077 845.586C337.71 841.938 352.343 838.29 367.42 834.532C365.33 830.885 363.239 827.237 361.086 823.479C405.429 784.792 405.429 784.792 424.434 784.792Z" fill="#5D98C6"/>
<path d="M734.839 182.382C752.953 185.894 763.715 189.824 774.259 203.431C784.845 221.472 791.853 233.687 791.853 254.229C761.762 249.393 761.762 249.393 747.509 243.176C739.163 221.736 734.839 205.131 734.839 182.382Z" fill="#4F75A0"/>
<path d="M190.043 779.265C244.401 777.888 295.085 780.93 348.414 790.318C348.414 792.142 348.414 793.966 348.414 795.845C317.056 795.845 285.699 795.845 253.391 795.845C251.301 801.317 249.21 806.788 247.056 812.425C242.875 810.601 238.694 808.778 234.387 806.899C229.161 806.329 223.934 805.759 218.55 805.171C213.323 803.918 208.097 802.664 202.713 801.372C195.388 790.081 195.388 790.081 190.043 779.265Z" fill="#629DCE"/>
<path d="M601.809 690.838C601.809 710.276 596.586 714.996 582.805 729.525C586.986 729.525 591.166 729.525 595.474 729.525C587.338 751.411 580.591 762.357 557.465 773.738C538.664 779.886 519.673 785.266 500.452 790.318C500.452 786.671 500.452 783.023 500.452 779.265C489.999 786.56 479.547 793.856 468.778 801.372C464.597 799.548 460.416 797.724 456.108 795.845C463.235 782.374 463.235 782.374 475.112 768.212C494.513 764.757 494.513 764.757 513.121 762.685C517.302 757.214 521.483 751.742 525.791 746.105C531.932 744.509 538.073 742.913 544.4 741.269C568.157 733.655 571.542 726.601 582.805 707.418C593.495 697.401 593.495 697.401 601.809 690.838Z" fill="#599CCF"/>
<path d="M462.445 718.471C483.35 718.471 504.255 718.471 525.793 718.471C523.703 725.766 521.612 733.061 519.459 740.578C514.363 741.261 509.267 741.945 504.017 742.65C498.66 743.79 493.304 744.93 487.784 746.104C485.694 749.752 483.603 753.399 481.45 757.158C475.178 755.334 468.907 753.51 462.445 751.631C462.445 755.279 462.445 758.926 462.445 762.684C437.067 784.297 422.259 792.371 386.427 795.845C377.02 801.316 377.02 801.316 367.423 806.898C367.423 803.25 367.423 799.603 367.423 795.845C363.242 794.021 359.061 792.197 354.753 790.318C361.008 787.653 367.263 784.989 373.708 782.244C381.908 778.719 390.107 775.192 398.305 771.665C402.429 769.913 406.553 768.16 410.801 766.354C428.121 758.877 442.349 752.583 456.11 740.578C458.201 733.282 460.291 725.987 462.445 718.471Z" fill="#5394CC"/>
<path d="M126.695 757.158C166.266 756.606 204.238 758.554 243.494 762.685C276.526 766.004 308.768 768.896 342.08 768.212C367.419 768.212 367.419 768.212 386.423 779.265C324.177 806.418 206.201 780.134 139.365 773.738C139.365 770.091 139.365 766.443 139.365 762.685C135.184 760.861 131.003 759.037 126.695 757.158Z" fill="#C7D4DC"/>
<path d="M1083.26 0C1085.35 7.29524 1087.44 14.5905 1089.59 22.1068C1081.23 22.1068 1072.87 22.1068 1064.25 22.1068C1060.07 34.8735 1055.89 47.6402 1051.58 60.7937C1057.86 66.2651 1064.13 71.7366 1070.59 77.3738C1062.14 92.1117 1053.7 106.85 1045.25 121.587C1069.3 118.59 1079.91 109.422 1095.93 93.9539C1094.88 97.2596 1093.84 100.565 1092.76 103.971C1088.89 116.688 1088.89 116.688 1089.59 132.641C1067.28 133.083 1047.66 132.862 1026.24 127.114C1026.24 121.643 1026.24 116.171 1026.24 110.534C1030.43 110.534 1034.61 110.534 1038.91 110.534C1039.18 99.4831 1039.17 88.4249 1038.91 77.3738C1036.82 75.55 1034.73 73.7262 1032.58 71.8471C1032.79 49.1061 1035.3 28.2706 1047.23 7.94463C1057.92 0 1057.92 0 1083.26 0Z" fill="#D8DFE0"/>
<path d="M582.803 696.365C582.803 719.048 573.564 728.642 557.464 746.106C540.835 749.905 540.835 749.905 525.79 751.632C519.518 759.839 519.518 759.839 513.12 768.212C493.324 772.012 493.324 772.012 475.111 773.739C473.02 781.034 470.93 788.33 468.776 795.846C477.138 792.198 485.5 788.551 494.115 784.792C487.781 801.373 487.781 801.373 469.172 811.044C462.77 813.324 456.368 815.604 449.772 817.953C437.102 812.426 437.102 812.426 430.767 801.373C437.849 793.971 444.986 786.609 452.147 779.266C458.1 773.11 458.1 773.11 464.173 766.831C469.587 762.043 469.587 762.043 475.111 757.159C479.292 757.159 483.473 757.159 487.781 757.159C487.781 753.511 487.781 749.864 487.781 746.106C494.967 743.598 502.153 741.09 509.557 738.506C532.423 731.897 532.423 731.897 538.459 718.472C542.64 718.472 546.821 718.472 551.129 718.472C553.219 722.12 555.31 725.767 557.464 729.525C560.469 725.08 563.474 720.634 566.57 716.054C576.468 701.892 576.468 701.892 582.803 696.365Z" fill="#2E68A0"/>
<path d="M1083.26 5.52637C1087.44 5.52637 1091.62 5.52637 1095.93 5.52637C1116.16 47.4474 1121.82 77.8486 1102.26 121.587C1095.99 119.763 1089.72 117.939 1083.26 116.06C1084.17 112.185 1085.08 108.309 1086.03 104.316C1089.68 88.0093 1092.87 71.666 1095.93 55.2667C1083.38 55.2667 1070.84 55.2667 1057.92 55.2667C1053.96 45.2495 1053.96 45.2495 1051.58 33.1599C1064.25 16.5798 1064.25 16.5798 1083.26 11.0531C1083.26 9.22926 1083.26 7.40545 1083.26 5.52637Z" fill="#99B4CB"/>
<path d="M475.11 746.104C475.11 765.941 470.901 768.811 456.105 783.064C452.578 786.505 449.05 789.946 445.415 793.492C442.672 796.092 439.928 798.692 437.101 801.371C441.282 805.019 445.463 808.667 449.771 812.425C463.268 811.737 463.268 811.737 477.881 808.28C482.838 807.282 487.795 806.285 492.902 805.257C508.387 801.533 508.387 801.533 525.789 790.318C519.552 810.45 515.481 816.724 494.51 827.623C481.868 832.125 469.06 836.291 456.105 840.058C454.015 836.411 451.924 832.763 449.771 829.005C435.064 826.754 420.27 824.891 405.427 823.478C410.088 815.379 414.861 807.328 419.68 799.299C422.326 794.811 424.972 790.322 427.698 785.698C438.005 772.588 445.677 768.372 462.44 762.685C462.44 759.037 462.44 755.389 462.44 751.631C466.621 749.807 470.802 747.984 475.11 746.104Z" fill="#68A4D4"/>
<path d="M291.403 801.372C293.494 806.844 295.584 812.315 297.738 817.952C293.557 817.952 289.376 817.952 285.068 817.952C285.068 821.6 285.068 825.247 285.068 829.006C292.969 828.215 292.969 828.215 301.029 827.408C307.913 826.795 314.797 826.183 321.889 825.551C328.724 824.91 335.559 824.269 342.601 823.608C361.086 823.479 361.086 823.479 380.091 834.532C360.231 844.8 346.043 846.699 323.077 845.586C323.077 841.938 323.077 838.29 323.077 834.532C304.259 836.424 304.259 836.424 285.068 840.059C282.978 843.707 280.887 847.354 278.733 851.112C278.733 845.641 278.733 840.17 278.733 834.532C270.306 833.506 270.306 833.506 261.709 832.46C242.6 829.314 226.767 824.771 209.05 817.952C209.05 814.305 209.05 810.657 209.05 806.899C221.835 808.698 234.621 810.497 247.406 812.296C253.506 812.36 253.506 812.36 259.729 812.425C272.399 801.372 272.399 801.372 291.403 801.372Z" fill="#3970A5"/>
<path d="M532.124 773.738C538.396 779.21 544.667 784.681 551.129 790.318C548.254 792.484 545.38 794.65 542.418 796.881C530.373 808.603 525.396 819.778 519.454 834.532C515.273 834.532 511.092 834.532 506.785 834.532C504.694 840.003 502.604 845.475 500.45 851.112C481.049 857.675 481.049 857.675 462.441 862.165C464.401 858.86 466.361 855.554 468.38 852.148C475.757 839.564 475.757 839.564 481.445 823.479C497.678 816.916 497.678 816.916 513.12 812.425C513.12 808.778 513.12 805.13 513.12 801.372C502.667 805.019 492.215 808.667 481.445 812.425C479.355 808.778 477.264 805.13 475.111 801.372C479.292 799.548 483.473 797.724 487.78 795.845C487.78 790.374 487.78 784.902 487.78 779.265C491.961 779.265 496.142 779.265 500.45 779.265C500.45 782.913 500.45 786.56 500.45 790.318C510.902 784.847 521.355 779.376 532.124 773.738Z" fill="#3A80C5"/>
<path d="M294.174 855.948C316.742 856.639 316.742 856.639 329.411 862.166C331.502 865.813 333.592 869.461 335.746 873.219C337.836 871.395 339.927 869.572 342.081 867.692C352.762 867.294 363.461 867.229 374.151 867.347C379.973 867.397 385.796 867.447 391.794 867.498C396.294 867.562 400.793 867.626 405.429 867.692C405.429 869.516 405.429 871.34 405.429 873.219C368.814 880.418 335.443 884.918 297.737 884.273C280.142 885.855 280.142 885.855 266.063 889.799C263.972 893.447 261.882 897.095 259.728 900.853C266.149 856.837 266.149 856.837 294.174 855.948Z" fill="#3A7EC2"/>
<path d="M619.624 583.758C626.288 584.442 632.951 585.126 639.817 585.83C646.349 586.4 652.882 586.97 659.613 587.557C689.398 602.81 694.068 629.759 703.165 657.677C696.894 659.501 690.622 661.325 684.16 663.204C668.305 646.965 662.183 634.581 658.821 613.464C630.783 605.476 630.783 605.476 601.808 602.41C599.717 606.058 597.627 609.706 595.473 613.464C591.292 611.64 587.111 609.816 582.803 607.937C593.446 591.43 597.58 586.322 619.624 583.758Z" fill="#B9CCD6"/>
<path d="M190.043 779.265C244.401 777.888 295.085 780.93 348.414 790.318C348.414 792.142 348.414 793.966 348.414 795.845C317.056 795.845 285.699 795.845 253.391 795.845C251.301 801.317 249.21 806.788 247.056 812.425C242.875 810.601 238.694 808.778 234.387 806.899C229.161 806.329 223.934 805.759 218.55 805.171C213.323 803.918 208.097 802.664 202.713 801.372C195.388 790.081 195.388 790.081 190.043 779.265Z" fill="#629DCE"/>
<path d="M1070.59 44.2139C1072.68 47.8615 1074.77 51.5091 1076.92 55.2673C1083.19 55.2673 1089.46 55.2673 1095.93 55.2673C1098.29 76.8859 1096.46 87.5231 1084.84 107.08C1080.14 111.868 1075.43 116.655 1070.59 121.588C1062.22 121.588 1053.86 121.588 1045.25 121.588C1047.34 117.484 1049.43 113.381 1051.58 109.153C1059.29 90.6578 1060.88 77.6604 1051.58 59.4123C1048.45 54.6248 1048.45 54.6248 1045.25 49.7406C1053.61 51.5644 1061.97 53.3882 1070.59 55.2673C1070.59 51.6196 1070.59 47.972 1070.59 44.2139Z" fill="#3E73AD"/>
<path d="M525.791 795.845C528.927 801.316 528.927 801.316 532.126 806.898C526.261 821.082 526.261 821.082 517.476 837.64C513.202 845.858 513.202 845.858 508.84 854.242C500.452 867.692 500.452 867.692 487.782 873.219C478.375 874.676 468.92 875.9 459.448 876.997C453.744 877.677 448.04 878.357 442.164 879.058C430.253 880.441 418.342 881.823 406.431 883.203C373.821 887.095 341.958 891.845 309.977 898.67C293.116 901.676 276.857 901.618 259.728 900.852C265.271 869.074 265.271 869.074 272.398 856.638C315.158 855.948 315.158 855.948 329.411 862.165C331.502 865.813 333.592 869.46 335.746 873.219C337.836 871.395 339.927 869.571 342.081 867.692C360.191 866.382 378.182 865.359 396.323 864.583C401.431 864.344 406.538 864.106 411.801 863.86C424.457 863.272 437.115 862.716 449.773 862.165C451.733 858.745 453.693 855.326 455.712 851.803C460.067 844.203 464.422 836.604 468.777 829.005C472.958 829.005 477.139 829.005 481.447 829.005C475.112 840.058 468.777 851.112 462.443 862.165C468.714 858.518 474.986 854.87 481.447 851.112C487.719 851.112 493.99 851.112 500.452 851.112C501.105 848.148 501.758 845.184 502.431 842.131C507.933 825.551 516.645 811.11 525.791 795.845Z" fill="#2F6CAC"/>
<path d="M639.819 574.777C651.697 576.159 651.697 576.159 665.158 580.304C680.079 597.877 678.936 614.3 677.828 635.571C675.607 632.151 673.386 628.732 671.097 625.208C654.459 609.289 638.132 607.083 614.48 602.411C611.736 606.058 608.992 609.706 606.165 613.464C602.637 617.112 599.11 620.759 595.475 624.518C589.204 624.518 582.932 624.518 576.471 624.518C576.471 635.461 576.471 646.403 576.471 657.678C555.457 665.535 535.66 670.887 513.122 674.258C517.303 688.848 521.484 703.439 525.792 718.472C504.887 718.472 483.982 718.472 462.444 718.472C461.921 722.661 461.398 726.85 460.86 731.166C453.559 754.122 437.58 760.41 415.13 772.465C373.04 790.315 330.055 784.872 285.068 779.265C285.068 777.441 285.068 775.618 285.068 773.739C293.9 773.429 293.9 773.429 302.91 773.112C345.519 771.136 380.412 769.501 418.1 751.632C423.065 750.15 428.03 748.668 433.145 747.141C445.683 740.634 445.683 740.634 448.19 723.307C448.713 718.064 449.235 712.821 449.774 707.418C468.588 707.418 487.403 707.418 506.787 707.418C503.652 701.947 503.652 701.947 500.453 696.365C500.199 685.314 500.177 674.255 500.453 663.205C519.267 659.557 538.081 655.909 557.466 652.151C557.989 646.908 558.511 641.664 559.05 636.262C560.618 630.562 562.186 624.863 563.801 618.991C575.679 612.773 575.679 612.773 589.14 607.938C592.015 604.062 594.889 600.186 597.851 596.193C608.145 585.831 608.145 585.831 628.337 584.449C634.216 584.905 640.096 585.361 646.154 585.831C643.018 580.359 643.018 580.359 639.819 574.777Z" fill="#E7E8D7"/>
<path d="M244.683 825.206C266.063 829.006 266.063 829.006 272.398 834.532C274.383 859.356 269.167 877.583 259.728 900.853C265.325 899.848 265.325 899.848 271.036 898.824C288.24 895.766 305.46 892.782 322.681 889.799C328.548 888.745 334.415 887.691 340.46 886.604C377.643 880.23 411.884 877.661 449.773 878.746C427.819 891.515 407.903 894.576 382.466 898.435C377.883 899.15 373.299 899.864 368.577 900.601C336.593 905.497 304.833 910.106 272.398 911.906C266.208 912.391 260.018 912.875 253.641 913.374C202.285 915.808 202.285 915.808 185.467 904.696C182.405 901.718 179.343 898.74 176.188 895.672C153.179 874.128 127.355 875.022 95.4188 873.91C78.3756 873.447 61.3995 873.253 44.3442 873.219C44.3442 871.396 44.3442 869.572 44.3442 867.693C62.5589 865.86 80.7252 864.289 98.9822 862.857C106.662 862.045 106.662 862.045 114.498 861.216C152.713 858.505 152.713 858.505 169.479 869.352C175.841 875.3 182.042 881.383 188.056 887.6C196.385 896.593 196.385 896.593 212.564 899.773C232.979 900.313 232.979 900.313 253.394 900.853C253.394 882.615 253.394 864.377 253.394 845.586C236.67 841.938 219.946 838.291 202.715 834.532C221.719 823.479 221.719 823.479 244.683 825.206Z" fill="#D5DCDC"/>
<path d="M601.808 596.885C604.944 602.356 604.944 602.356 608.143 607.938C603.962 613.41 599.781 618.881 595.473 624.518C589.202 624.518 582.93 624.518 576.469 624.518C576.469 635.461 576.469 646.404 576.469 657.678C555.455 665.535 535.659 670.888 513.121 674.259C517.302 688.849 521.482 703.44 525.79 718.472C504.885 718.472 483.98 718.472 462.442 718.472C461.952 722.647 461.462 726.822 460.957 731.123C454.877 749.905 447.689 754.227 429.184 764.758C424.317 767.651 419.45 770.543 414.436 773.523C395.88 780.469 386.443 778.742 367.419 773.739C424.433 740.579 424.433 740.579 443.437 740.579C445.528 727.812 447.618 715.046 449.772 701.892C464.406 701.892 479.039 701.892 494.116 701.892C492.809 697.674 491.503 693.457 490.157 689.112C487.781 674.259 487.781 674.259 500.451 657.678C512.329 654.613 512.329 654.613 525.79 652.843C539.376 650.653 539.376 650.653 551.13 646.625C558.85 632.784 558.85 632.784 563.799 618.992C580.428 614.501 580.428 614.501 595.473 613.465C597.564 607.993 599.654 602.522 601.808 596.885Z" fill="#CADAE2"/>
<path d="M614.478 596.885C635.462 599.648 635.462 599.648 658.822 607.938C668.356 621.993 673.401 636.34 677.826 652.152C668.594 653.229 659.354 654.256 650.112 655.261C644.967 655.838 639.822 656.415 634.522 657.009C620.813 657.678 620.813 657.678 608.143 652.152C606.053 655.799 603.962 659.447 601.808 663.205C603.899 655.91 605.989 648.615 608.143 641.098C612.324 641.098 616.505 641.098 620.813 641.098C620.813 637.451 620.813 633.803 620.813 630.045C612.451 630.045 604.089 630.045 595.474 630.045C607.351 603.102 607.351 603.102 614.478 596.885Z" fill="#518CBE"/>
<path d="M449.775 757.158C442.542 781.916 434.381 802.174 418.101 823.479C403.468 821.655 388.834 819.831 373.757 817.952C375.848 812.48 377.938 807.009 380.092 801.372C373.821 804.108 373.821 804.108 367.423 806.899C367.423 803.251 367.423 799.603 367.423 795.845C363.242 794.021 359.061 792.197 354.753 790.318C359.252 788.388 363.752 786.457 368.388 784.468C374.21 781.953 380.032 779.438 386.031 776.847C394.74 773.096 394.74 773.096 403.625 769.269C430.252 757.158 430.252 757.158 449.775 757.158Z" fill="#4C8DC5"/>
<path d="M677.825 657.678C680.961 663.149 680.961 663.149 684.16 668.731C678.321 671.602 672.483 674.473 666.467 677.431C643.471 690.812 635.85 706.26 625.167 728.489C608.768 760.362 591.605 777.507 558.28 796.644C540.859 809.89 534.328 823.443 524.997 841.786C509.018 872.206 509.018 872.206 486.988 882.2C478.888 882.884 470.787 883.568 462.441 884.272C449.766 886.321 437.097 888.396 424.432 890.49C396.479 894.412 370.331 896.446 342.079 895.326C357.306 882.041 363.687 882.083 384.641 879.76C390.545 879.073 396.449 878.385 402.532 877.677C408.714 877.004 414.895 876.331 421.264 875.637C433.475 874.265 445.683 872.877 457.888 871.47C463.314 870.875 468.74 870.28 474.331 869.666C488.075 868.237 488.075 868.237 500.45 862.166C504.186 853.743 507.56 845.198 510.744 836.605C527.369 798.4 557.508 779.239 595.472 757.158C602.241 744.321 608.46 731.569 614.477 718.471C633.503 677.647 633.503 677.647 660.404 663.204C666.153 661.381 671.902 659.557 677.825 657.678Z" fill="#DDE4E8"/>
<path d="M614.478 596.885C635.462 599.648 635.462 599.648 658.822 607.938C668.356 621.993 673.401 636.34 677.826 652.152C668.594 653.229 659.354 654.256 650.112 655.261C644.967 655.838 639.822 656.415 634.522 657.009C620.813 657.678 620.813 657.678 608.143 652.152C606.053 655.799 603.962 659.447 601.808 663.205C603.899 655.91 605.989 648.615 608.143 641.098C612.324 641.098 616.505 641.098 620.813 641.098C620.813 637.451 620.813 633.803 620.813 630.045C612.451 630.045 604.089 630.045 595.474 630.045C607.351 603.102 607.351 603.102 614.478 596.885Z" fill="#518CBE"/>
<path d="M386.424 895.326C352.084 925.286 293.489 924.751 247.453 925.378C240.483 925.561 240.483 925.561 233.372 925.747C210.344 925.669 198.67 924.578 180.517 911.755C177.389 908.158 174.262 904.56 171.04 900.853C174.29 901.744 177.54 902.634 180.888 903.552C232.164 912.913 290.704 908.861 341.14 897.744C356.511 895.013 370.779 894.943 386.424 895.326Z" fill="#75858B"/>
</g>
</svg>
