<svg width="991" height="1034" viewBox="0 0 991 1034" fill="none" xmlns="http://www.w3.org/2000/svg">
<g style="mix-blend-mode:multiply">
<path d="M375.614 331.602C392.975 346.341 408.297 362.194 423.744 378.449C432.271 387.531 432.271 387.531 445.297 392.395C447.388 388.748 449.478 385.1 451.632 381.342C453.723 384.989 455.813 388.637 457.967 392.395C468.505 396.123 479.066 399.801 489.641 403.449C528.507 422.971 542.84 463.012 559.324 497.403C573.739 525.253 573.739 525.253 597.333 547.143C603.605 548.967 609.876 550.79 616.338 552.67C595.082 565.033 592.209 564.62 568.431 561.305C547.301 557.856 547.301 557.856 527.65 563.723C526.646 558.123 525.641 552.524 524.606 546.754C514.93 491.17 514.93 491.17 476.972 447.662C471.941 445.219 466.911 442.775 461.728 440.257C423.098 418.686 392.584 379.668 375.614 342.655C375.614 339.007 375.614 335.36 375.614 331.602Z" fill="#346FAD"/>
<path d="M451.632 0C472.624 15.9509 480.163 25.6495 483.306 49.7403C480.93 65.3489 480.93 65.3489 476.971 81.1734C470.531 102.014 470.531 102.014 476.971 121.587C446.269 118.321 422.444 110.648 394.618 99.4806C397.31 106.642 400.101 113.776 402.933 120.897C404.476 124.872 406.02 128.847 407.61 132.943C413.391 145.573 413.391 145.573 432.627 154.748C427.084 181.69 427.084 181.69 419.958 187.908C392.368 189.412 373.872 187.382 347.899 179.272C333.526 175.387 333.526 175.387 318.6 176.854C301.186 187.936 288.009 200.05 273.91 214.246C261.587 226.595 261.587 226.595 242.582 237.648C247.939 236.964 253.296 236.28 258.815 235.576C285.935 238.157 294.75 246.18 313.948 262.151C325.696 272.057 325.696 272.057 345.523 280.825C366.993 295.725 370.238 306.951 377.371 329.422C384.473 349.952 395.844 367.934 407.288 386.869C401.017 389.605 401.017 389.605 394.618 392.396C391.483 386.924 391.483 386.924 388.284 381.342C382.012 381.342 375.741 381.342 369.279 381.342C365.886 367.439 362.961 353.851 361.336 339.698C357.984 311.251 357.984 311.251 338.174 289.957C325.461 284.5 313.113 280.01 299.596 276.335C299.596 272.687 299.596 269.04 299.596 265.282C280.834 256.046 265.573 252.422 244.166 250.774C239.103 250.361 234.04 249.948 228.824 249.522C225.002 249.251 221.181 248.98 217.243 248.702C217.243 243.23 217.243 237.759 217.243 232.121C227.668 226.405 238.256 220.915 248.917 215.541C254.536 210.64 260.154 205.738 265.942 200.688C280.591 187.908 280.591 187.908 293.261 187.908C294.698 184.374 296.136 180.841 297.616 177.2C305.931 165.801 305.931 165.801 320.184 160.965C341.278 160.129 355.749 165.315 375.614 171.328C396.205 172.256 396.205 172.256 413.623 171.328C413.623 167.68 413.623 164.032 413.623 160.274C407.351 156.627 401.08 152.979 394.618 149.221C386.49 127.946 387.863 110.825 388.284 88.4272C410.822 91.798 430.618 97.1504 451.632 105.007C451.371 101.132 451.109 97.2561 450.84 93.2631C451.632 77.3738 451.632 77.3738 458.363 60.4483C464.547 43.5415 464.745 38.2347 457.967 22.1068C455.855 14.7379 453.743 7.36893 451.632 0Z" fill="#E2E4E1"/>
<path d="M381.949 232.121C394.663 241.7 400.788 248.325 406.893 262.173C414.58 278.347 424.678 286.381 438.963 298.441C443.186 309.495 447.409 320.548 451.633 331.602C459.995 329.778 468.357 327.954 476.972 326.075C472.791 320.604 468.61 315.132 464.302 309.495C458.031 312.231 458.031 312.231 451.633 315.022C447.2 308.035 442.863 301.002 438.567 293.951C436.142 290.04 433.716 286.129 431.218 282.099C426.293 270.808 426.293 270.808 432.628 254.228C438.9 262.435 438.9 262.435 445.298 270.808C447.388 263.513 449.479 256.218 451.633 248.701C463.708 252.652 463.708 252.652 476.972 259.755C483.189 272.496 486.489 285.024 490.235 298.463C492.13 302.104 494.024 305.744 495.976 309.495C508.355 313.375 508.355 313.375 521.316 315.022C525.497 318.669 529.678 322.317 533.985 326.075C529.804 326.075 525.623 326.075 521.316 326.075C527.587 333.37 533.859 340.665 540.32 348.182C536.139 348.182 531.958 348.182 527.651 348.182C528.949 351.452 530.247 354.722 531.585 358.091C540.319 380.439 548.666 402.17 552.99 425.556C545.691 420.418 538.441 415.226 531.214 410.012C527.172 407.126 523.13 404.241 518.965 401.268C508.646 392.395 508.646 392.395 502.311 375.815C506.492 375.815 510.673 375.815 514.981 375.815C514.981 370.344 514.981 364.872 514.981 359.235C511.192 360.261 507.403 361.287 503.499 362.344C489.642 364.762 489.642 364.762 470.637 359.235C459.947 350.6 459.947 350.6 451.633 342.655C454.899 347.785 458.165 352.914 461.531 358.199C470.637 375.815 470.637 375.815 464.302 392.395C456.221 380.321 448.176 368.229 440.151 356.126C436.764 351.077 436.764 351.077 433.309 345.926C418.334 323.273 405.974 300.54 394.619 276.335C392.137 271.319 389.654 266.304 387.097 261.136C381.949 248.701 381.949 248.701 381.949 232.121Z" fill="#567D9A"/>
<path d="M559.324 480.822C569.777 486.294 580.229 491.765 590.998 497.402C590.998 493.755 590.998 490.107 590.998 486.349C595.179 486.349 599.36 486.349 603.668 486.349C605.35 489.348 607.032 492.348 608.765 495.438C611.003 499.392 613.24 503.346 615.546 507.42C618.853 513.286 618.853 513.286 622.227 519.272C629.423 531.737 629.423 531.737 641.677 547.143C639.848 544.179 638.019 541.215 636.134 538.162C626.246 519.95 616.338 501.198 616.338 480.822C620.519 480.822 624.7 480.822 629.007 480.822C642.254 496.901 649.975 513.005 657.118 531.599C663.799 548.593 663.799 548.593 679.29 559.923C683.602 561.177 687.913 562.431 692.356 563.723C696.406 566.686 700.456 569.65 704.629 572.704C717.166 581.577 717.166 581.577 732.74 579.957C756.906 580.459 768.991 589.285 787.378 602.41C792.921 614.845 792.921 614.845 793.713 624.516C804.165 620.869 814.618 617.221 825.387 613.463C798.286 640.484 798.286 640.484 778.395 643.148C757.857 640.572 750.637 634.621 735.907 622.099C720.516 609.167 712.932 602.867 692.356 596.883C690.265 600.531 688.175 604.178 686.021 607.936C686.021 604.289 686.021 600.641 686.021 596.883C677.201 596.37 677.201 596.37 668.204 595.847C648.012 591.356 648.012 591.356 636.134 578.23C629.007 563.723 629.007 563.723 629.007 547.143C625.316 545.775 621.625 544.407 617.822 542.998C601.57 535.065 592.029 526.27 579.912 513.982C576.025 510.107 572.138 506.231 568.133 502.238C559.324 491.876 559.324 491.876 559.324 480.822Z" fill="#40729A"/>
<path d="M451.632 160.274C455.813 162.098 459.994 163.922 464.301 165.801C464.301 173.096 464.301 180.392 464.301 187.908C460.12 187.908 455.939 187.908 451.632 187.908C461.425 220.959 473.602 242.472 500.43 267.268C512.36 280.435 514.06 293.045 514.98 309.495C508.708 309.495 502.437 309.495 495.975 309.495C484.708 295.734 477.223 282.43 470.24 266.663C465.695 253.331 465.695 253.331 451.632 248.702C451.632 257.821 451.632 266.94 451.632 276.335C445.36 270.864 439.089 265.392 432.627 259.755C440.671 284.157 440.671 284.157 457.966 303.969C466.413 311.338 474.859 318.706 483.306 326.075C464.301 331.602 464.301 331.602 451.632 331.602C438.962 320.549 438.962 320.549 436.982 310.877C430.43 292.167 415.231 280.169 400.953 265.282C386.946 243.063 388.089 228.983 394.618 204.488C398.799 204.488 402.98 204.488 407.288 204.488C407.288 199.017 407.288 193.545 407.288 187.908C415.65 184.26 424.012 180.613 432.627 176.855C434.718 191.445 436.808 206.035 438.962 221.068C443.143 221.068 447.324 221.068 451.632 221.068C449.541 217.42 447.451 213.773 445.297 210.015C443.819 173.907 443.819 173.907 451.632 160.274Z" fill="#2E5D8E"/>
<path d="M103.217 536.091C117.847 548.855 119.507 556.158 124.597 573.396C132.563 597.989 142.53 615.337 160.23 635.571C160.23 630.1 160.23 624.629 160.23 618.991C172.773 628.11 185.316 637.229 198.239 646.625C196.671 641.666 196.671 641.666 195.072 636.608C191.904 624.518 191.904 624.518 191.904 607.938C202.357 613.409 212.809 618.881 223.579 624.518C215.626 610.641 207.737 608.649 191.904 602.411C196.085 600.587 200.266 598.764 204.574 596.885C202.484 587.765 200.393 578.646 198.239 569.251C226.248 597.178 248.918 625.531 248.918 663.205C244.737 663.205 240.556 663.205 236.248 663.205C238.339 670.5 240.429 677.795 242.583 685.312C231.695 689.047 231.695 689.047 217.244 690.838C203.188 684.513 203.188 684.513 188.737 675.295C168.638 662.509 168.638 662.509 146.595 652.713C130.302 644.238 127.955 635.468 121.825 620.028C114.979 603.555 108.842 590.376 98.0697 575.469C90.5471 563.724 90.5471 563.724 92.1308 551.289C96.8819 541.618 96.8819 541.618 103.217 536.091Z" fill="#286BAE"/>
<path d="M597.333 337.129C601.645 341.232 605.956 345.336 610.399 349.564C629.202 366.11 649.831 376.006 673.351 386.869C673.351 390.517 673.351 394.164 673.351 397.923C677.752 398.428 682.154 398.934 686.689 399.455C708.962 404.307 725.393 412.792 745.014 423.138C751.783 426.679 758.553 430.22 765.528 433.868C770.648 436.596 775.768 439.325 781.043 442.136C776.862 449.431 772.681 456.727 768.373 464.243C771.509 466.751 774.645 469.258 777.876 471.842C787.378 480.823 787.378 480.823 787.378 491.877C757.423 489.314 735.55 485.908 711.36 469.77C709.269 464.298 707.179 458.827 705.025 453.19C721.918 460.559 738.811 467.927 755.704 475.296C745.151 458.487 745.151 458.487 730.364 442.136C714.903 438.425 714.903 438.425 698.69 436.61C680.874 425.211 680.874 425.211 667.016 414.503C677.469 432.741 687.921 450.979 698.69 469.77C692.419 471.594 686.147 473.417 679.686 475.296C661.274 462.027 657.353 451.543 654.346 431.083C654.346 427.435 654.346 423.788 654.346 420.029C645.082 407.842 635.647 395.951 625.84 384.106C597.333 349.676 597.333 349.676 597.333 337.129Z" fill="#9BAAA1"/>
<path d="M407.288 823.479C438.167 827.428 445.557 835.009 464.302 856.639C477.71 863.888 477.71 863.888 489.641 867.692C487.551 874.987 485.46 882.283 483.306 889.799C486.834 891.167 490.362 892.535 493.996 893.944C520.649 906.513 544.018 922.05 559.324 945.066C559.795 962.941 559.795 962.941 557.345 982.371C556.585 988.84 555.826 995.309 555.043 1001.97C554.366 1006.9 553.688 1011.83 552.99 1016.91C533.488 1018.64 524.532 1019.18 508.967 1008.21C469.807 966.677 469.807 966.677 464.302 945.066C466.678 932.285 466.678 932.285 470.637 922.959C464.365 924.783 458.094 926.607 451.632 928.486C451.632 924.838 451.632 921.191 451.632 917.432C439.089 917.432 426.546 917.432 413.623 917.432C407.896 896.225 406.618 876.673 406.893 854.912C406.95 849.006 407.007 843.1 407.066 837.015C407.139 832.548 407.213 828.081 407.288 823.479ZM419.958 834.532C419.788 846.391 419.665 858.25 419.562 870.11C419.489 876.714 419.415 883.318 419.34 890.123C417.811 905.764 417.811 905.764 426.293 911.906C438.96 912.131 451.635 912.141 464.302 911.906C468.483 899.139 472.664 886.372 476.972 873.219C472.007 870.939 467.042 868.659 461.926 866.31C444.924 856.422 439.717 850.836 432.628 834.532C428.447 834.532 424.266 834.532 419.958 834.532ZM470.637 895.326C474.675 938.465 482.365 966.878 517.158 998.519C527.056 1007.01 527.056 1007.01 540.32 1005.86C536.165 985.909 536.165 985.909 527.65 967.173C533.922 965.349 540.193 963.525 546.655 961.646C543.377 939.37 531.253 930.406 512.209 916.051C507.122 912.147 502.034 908.243 496.793 904.22C484.44 894.215 484.44 894.215 470.637 895.326Z" fill="#E0E5E3"/>
<path d="M559.324 337.129C567.49 346.218 567.49 346.218 575.953 358.199C578.778 362.111 581.604 366.022 584.515 370.052C590.998 381.343 590.998 381.343 590.998 397.923C582.636 397.923 574.274 397.923 565.659 397.923C569.507 416.876 577.655 427.922 591.394 442.827C610.002 463.073 610.002 463.073 610.002 475.296C605.821 475.296 601.64 475.296 597.333 475.296C589.167 466.834 589.167 466.834 580.704 455.953C577.878 452.362 575.053 448.772 572.142 445.072C570.002 442.28 567.863 439.487 565.659 436.61C563.568 442.081 561.478 447.552 559.324 453.19C547.05 448.699 547.05 448.699 533.984 442.136C531.894 436.665 529.803 431.193 527.65 425.556C522.554 424.188 517.458 422.82 512.208 421.411C495.975 414.503 495.975 414.503 488.057 395.85C486.489 389.239 484.921 382.627 483.306 375.816C481.999 371.37 480.693 366.925 479.347 362.344C478.563 359.495 477.779 356.645 476.971 353.709C495.785 356.445 495.785 356.445 514.98 359.236C513.551 362.456 512.122 365.676 510.649 368.994C507.035 381.659 507.035 381.659 516.341 391.964C519.942 395.298 523.543 398.632 527.254 402.068C530.839 405.459 534.423 408.85 538.117 412.344C542.343 416.148 542.343 416.148 546.654 420.029C545.282 416.695 543.91 413.361 542.497 409.926C540.733 405.509 538.969 401.092 537.152 396.541C535.388 392.181 533.624 387.821 531.807 383.329C527.65 370.289 527.65 370.289 527.65 348.182C546.654 337.129 546.654 337.129 559.324 337.129Z" fill="#718B97"/>
<path d="M508.645 248.701C512.826 248.701 517.007 248.701 521.314 248.701C523.928 254.059 526.541 259.416 529.233 264.936C532.891 270.521 536.55 276.107 540.319 281.861C544.492 282.666 548.665 283.471 552.964 284.301C565.658 287.388 565.658 287.388 572.117 297.06C573.774 301.163 575.432 305.267 577.14 309.495C592.939 343.682 618.743 369.616 645.685 397.62C654.742 407.594 654.742 407.594 667.016 425.556C662.66 441.79 662.66 441.79 654.346 453.189C644.939 450.453 644.939 450.453 635.341 447.662C626.557 431.406 626.557 431.406 618.317 411.393C615.548 404.775 612.78 398.157 609.928 391.338C607.862 386.215 605.796 381.093 603.667 375.815C599.486 381.287 595.305 386.758 590.998 392.395C585.684 385.276 580.413 378.133 575.16 370.979C572.221 367.004 569.281 363.029 566.252 358.933C559.323 348.182 559.323 348.182 559.323 337.128C548.871 338.952 538.418 340.776 527.649 342.655C525.559 337.184 523.468 331.712 521.314 326.075C525.495 326.075 529.676 326.075 533.984 326.075C533.984 322.427 533.984 318.78 533.984 315.022C546.258 319.512 546.258 319.512 559.323 326.075C561.414 331.546 563.504 337.018 565.658 342.655C569.839 342.655 574.02 342.655 578.328 342.655C570.489 334.79 570.489 334.79 562.491 326.766C546.654 310.877 546.654 310.877 546.654 298.441C542.473 298.441 538.292 298.441 533.984 298.441C533.984 294.794 533.984 291.146 533.984 287.388C529.803 287.388 525.622 287.388 521.314 287.388C512.062 272.757 508.645 265.864 508.645 248.701Z" fill="#3E5F80"/>
<path d="M552.989 226.595C584.663 237.648 584.663 237.648 616.337 248.702C614.247 254.173 612.156 259.644 610.002 265.282C616.274 265.282 622.545 265.282 629.007 265.282C626.81 268.288 624.614 271.295 622.35 274.392C614.583 291.181 617.273 300.887 621.484 318.476C623.309 326.448 623.309 326.448 625.171 334.581C628.374 348.094 628.374 348.094 635.342 359.236C647.885 359.236 660.428 359.236 673.351 359.236C682.604 373.867 686.02 380.759 686.02 397.922C681.839 397.922 677.658 397.922 673.351 397.922C673.351 394.275 673.351 390.627 673.351 386.869C664.923 385.159 664.923 385.159 656.326 383.415C636.013 376.059 631.127 373.098 618.317 358.89C605.347 341.456 605.347 341.456 584.663 337.129C570.502 318.596 570.899 315.534 574.369 294.642C575.071 290.175 575.774 285.708 576.497 281.106C577.101 277.708 577.706 274.31 578.328 270.808C584.6 270.808 590.871 270.808 597.333 270.808C592.368 267.617 587.403 264.425 582.288 261.137C566.923 249.647 560.23 242.675 552.989 226.595Z" fill="#748A94"/>
<path d="M565.658 458.715C584.662 464.242 584.662 464.242 592.581 474.95C594.149 478.711 595.717 482.473 597.332 486.348C595.242 489.996 593.151 493.644 590.997 497.402C582.635 495.578 574.273 493.754 565.658 491.875C573.816 500.068 582.004 508.239 590.205 516.4C597.04 523.228 597.04 523.228 604.013 530.195C615.275 541.946 615.275 541.946 629.006 547.142C637.432 559.54 644.813 572.289 652.341 585.117C660.484 598.428 660.484 598.428 679.685 607.936C679.685 611.583 679.685 615.231 679.685 618.989C669.232 617.165 658.78 615.342 648.011 613.462C648.011 607.991 648.011 602.52 648.011 596.882C643.83 596.882 639.649 596.882 635.341 596.882C633.251 595.059 631.16 593.235 629.006 591.356C626.916 595.003 624.825 598.651 622.671 602.409C620.213 599.866 617.755 597.322 615.223 594.702C601.019 583.796 588.982 580.828 570.805 576.503C565.097 575.113 559.389 573.724 553.508 572.293C549.155 571.288 544.803 570.284 540.319 569.249C540.319 563.777 540.319 558.306 540.319 552.669C559.133 554.493 577.947 556.316 597.332 558.195C597.332 556.372 597.332 554.548 597.332 552.669C592.628 549.021 587.925 545.374 583.079 541.615C561.02 523.029 551.295 499.849 540.319 475.295C551.8 466.659 551.8 466.659 565.658 458.715Z" fill="#305E8B"/>
<path d="M381.949 232.121C394.663 241.7 400.788 248.325 406.893 262.173C414.58 278.347 424.678 286.381 438.963 298.441C443.186 309.495 447.409 320.548 451.633 331.602C459.995 329.778 468.357 327.954 476.972 326.075C472.791 320.604 468.61 315.132 464.302 309.495C458.031 312.231 458.031 312.231 451.633 315.022C447.2 308.035 442.863 301.002 438.567 293.951C436.142 290.04 433.716 286.129 431.218 282.099C426.293 270.808 426.293 270.808 432.628 254.228C438.9 262.435 438.9 262.435 445.298 270.808C447.388 263.513 449.479 256.218 451.633 248.701C463.708 252.652 463.708 252.652 476.972 259.755C483.189 272.496 486.489 285.024 490.235 298.463C492.13 302.104 494.024 305.744 495.976 309.495C508.355 313.375 508.355 313.375 521.316 315.022C525.497 318.669 529.678 322.317 533.985 326.075C529.804 326.075 525.623 326.075 521.316 326.075C527.587 333.37 533.859 340.665 540.32 348.182C536.139 348.182 531.958 348.182 527.651 348.182C528.949 351.452 530.247 354.722 531.585 358.091C540.319 380.439 548.666 402.17 552.99 425.556C545.691 420.418 538.441 415.226 531.214 410.012C527.172 407.126 523.13 404.241 518.965 401.268C508.646 392.395 508.646 392.395 502.311 375.815C506.492 375.815 510.673 375.815 514.981 375.815C514.981 370.344 514.981 364.872 514.981 359.235C511.192 360.261 507.403 361.287 503.499 362.344C489.642 364.762 489.642 364.762 470.637 359.235C459.947 350.6 459.947 350.6 451.633 342.655C454.899 347.785 458.165 352.914 461.531 358.199C470.637 375.815 470.637 375.815 464.302 392.395C456.221 380.321 448.176 368.229 440.151 356.126C436.764 351.077 436.764 351.077 433.309 345.926C418.334 323.273 405.974 300.54 394.619 276.335C392.137 271.319 389.654 266.304 387.097 261.136C381.949 248.701 381.949 248.701 381.949 232.121Z" fill="#567D9A"/>
<path d="M331.27 187.908C344.069 191.234 356.743 194.944 369.279 198.962C371.369 202.609 373.46 206.257 375.614 210.015C369.342 212.751 369.342 212.751 362.944 215.542C365.035 219.189 367.125 222.837 369.279 226.595C371.369 213.828 373.46 201.062 375.614 187.908C386.066 187.908 396.519 187.908 407.288 187.908C409.378 195.203 411.469 202.499 413.623 210.015C407.351 208.191 401.08 206.367 394.618 204.488C396.709 209.96 398.799 215.431 400.953 221.068C396.772 221.068 392.591 221.068 388.283 221.068C391.32 247.121 394.418 268.962 407.288 292.916C398.926 287.444 390.564 281.973 381.949 276.335C374.604 295.559 377.462 306.505 381.949 326.076C364.23 318.346 363.52 308.741 356.609 292.916C352.428 287.444 348.247 281.973 343.94 276.335C348.121 276.335 352.302 276.335 356.609 276.335C355.825 269.154 355.041 261.973 354.234 254.574C353.793 250.535 353.352 246.495 352.897 242.333C351.599 237.279 351.599 237.279 350.274 232.122C346.093 230.298 341.912 228.474 337.605 226.595C337.605 222.947 337.605 219.3 337.605 215.542C333.424 215.542 329.243 215.542 324.935 215.542C327.026 206.423 329.116 197.304 331.27 187.908Z" fill="#1D5592"/>
<path d="M546.654 193.435C550.377 203.523 550.377 203.523 554.176 213.814C563.682 236.233 576.799 249.253 597.332 265.282C599.423 268.929 601.513 272.577 603.667 276.335C595.305 274.511 586.943 272.687 578.328 270.808C578.328 279.927 578.328 289.046 578.328 298.442C569.881 294.757 561.435 291.073 552.989 287.388C548.742 285.999 544.496 284.61 540.121 283.179C523.146 273.864 521.617 265.727 516.563 249.047C515.028 244.21 513.493 239.372 511.911 234.388C508.645 221.068 508.645 221.068 508.645 204.488C532.4 193.435 532.4 193.435 546.654 193.435Z" fill="#A1AA9F"/>
<path d="M172.899 480.822C174.877 484.47 176.855 488.118 178.893 491.877C187.963 508.579 197.06 525.27 206.157 541.961C209.268 547.7 212.379 553.439 215.585 559.351C228.805 583.572 241.934 607.576 257.528 630.712C267.921 646.623 267.921 646.623 267.921 657.677C263.74 657.677 259.559 657.677 255.252 657.677C253.161 670.443 251.071 683.21 248.917 696.364C206.948 703.272 206.948 703.272 185.568 690.837C203.069 687.536 218.258 685.31 236.247 685.31C236.247 678.015 236.247 670.72 236.247 663.203C240.428 663.203 244.609 663.203 248.917 663.203C245.145 653.515 241.304 643.847 237.435 634.188C235.303 628.802 233.172 623.416 230.976 617.867C223.83 602.938 215.836 593.003 204.573 580.303C197.586 569.254 190.868 558.075 184.381 546.797C179.346 538.152 179.346 538.152 174.21 529.332C166.564 513.982 166.564 513.982 166.564 497.402C138.342 500.138 138.342 500.138 109.55 502.929C107.46 508.401 105.369 513.872 103.216 519.509C96.8808 508.456 96.8808 508.456 103.216 491.876C114.252 487.839 114.252 487.839 127.763 485.313C132.189 484.436 136.615 483.56 141.175 482.657C153.894 480.822 153.894 480.822 172.899 480.822Z" fill="#E8EBE3"/>
<path d="M451.632 160.274C455.813 162.098 459.994 163.922 464.301 165.801C464.301 173.096 464.301 180.392 464.301 187.908C460.12 187.908 455.939 187.908 451.632 187.908C461.425 220.959 473.602 242.472 500.43 267.268C512.36 280.435 514.06 293.045 514.98 309.495C508.708 309.495 502.437 309.495 495.975 309.495C484.708 295.734 477.223 282.43 470.24 266.663C465.695 253.331 465.695 253.331 451.632 248.702C451.632 257.821 451.632 266.94 451.632 276.335C445.36 270.864 439.089 265.392 432.627 259.755C440.671 284.157 440.671 284.157 457.966 303.969C466.413 311.338 474.859 318.706 483.306 326.075C464.301 331.602 464.301 331.602 451.632 331.602C438.962 320.549 438.962 320.549 436.982 310.877C430.43 292.167 415.231 280.169 400.953 265.282C386.946 243.063 388.089 228.983 394.618 204.488C405.071 206.312 415.523 208.136 426.292 210.015C426.292 215.486 426.292 220.958 426.292 226.595C434.654 224.771 443.016 222.947 451.632 221.068C449.541 217.42 447.451 213.773 445.297 210.015C443.819 173.907 443.819 173.907 451.632 160.274Z" fill="#2D5B8A"/>
<path d="M597.333 337.129C601.645 341.232 605.956 345.336 610.399 349.564C629.202 366.11 649.831 376.006 673.351 386.869C673.351 390.517 673.351 394.164 673.351 397.923C677.752 398.428 682.154 398.934 686.689 399.455C708.962 404.307 725.393 412.792 745.014 423.138C751.783 426.679 758.553 430.22 765.528 433.868C770.648 436.596 775.768 439.325 781.043 442.136C776.862 449.431 772.681 456.727 768.373 464.243C771.509 466.751 774.645 469.258 777.876 471.842C787.378 480.823 787.378 480.823 787.378 491.877C757.423 489.314 735.55 485.908 711.36 469.77C709.269 464.298 707.179 458.827 705.025 453.19C721.918 460.559 738.811 467.927 755.704 475.296C745.151 458.487 745.151 458.487 730.364 442.136C714.903 438.425 714.903 438.425 698.69 436.61C680.874 425.211 680.874 425.211 667.016 414.503C677.469 432.741 687.921 450.979 698.69 469.77C692.419 471.594 686.147 473.417 679.686 475.296C661.274 462.027 657.353 451.543 654.346 431.083C654.346 427.435 654.346 423.788 654.346 420.029C645.082 407.842 635.647 395.951 625.84 384.106C597.333 349.676 597.333 349.676 597.333 337.129Z" fill="#9BAAA1"/>
<path d="M559.324 337.129C567.49 346.218 567.49 346.218 575.953 358.199C578.778 362.111 581.604 366.022 584.515 370.052C590.998 381.343 590.998 381.343 590.998 397.923C582.636 397.923 574.274 397.923 565.659 397.923C569.507 416.876 577.655 427.922 591.394 442.827C610.002 463.073 610.002 463.073 610.002 475.296C605.821 475.296 601.64 475.296 597.333 475.296C589.167 466.834 589.167 466.834 580.704 455.953C577.878 452.362 575.053 448.772 572.142 445.072C570.002 442.28 567.863 439.487 565.659 436.61C563.568 442.081 561.478 447.552 559.324 453.19C547.05 448.699 547.05 448.699 533.984 442.136C531.894 436.665 529.803 431.193 527.65 425.556C522.554 424.188 517.458 422.82 512.208 421.411C495.975 414.503 495.975 414.503 488.057 395.85C486.489 389.239 484.921 382.627 483.306 375.816C481.999 371.37 480.693 366.925 479.347 362.344C478.563 359.495 477.779 356.645 476.971 353.709C495.785 356.445 495.785 356.445 514.98 359.236C513.551 362.456 512.122 365.676 510.649 368.994C507.035 381.659 507.035 381.659 516.341 391.964C519.942 395.298 523.543 398.632 527.254 402.068C530.839 405.459 534.423 408.85 538.117 412.344C542.343 416.148 542.343 416.148 546.654 420.029C545.282 416.695 543.91 413.361 542.497 409.926C540.733 405.509 538.969 401.092 537.152 396.541C535.388 392.181 533.624 387.821 531.807 383.329C527.65 370.289 527.65 370.289 527.65 348.182C546.654 337.129 546.654 337.129 559.324 337.129Z" fill="#718B97"/>
<path d="M470.638 895.326C491.154 903.308 506.237 913.331 522.9 926.414C527.375 929.905 531.85 933.396 536.461 936.992C539.825 939.657 543.189 942.321 546.656 945.066C544.565 952.362 542.475 959.657 540.321 967.173C536.14 967.173 531.959 967.173 527.651 967.173C529.742 970.479 531.832 973.785 533.986 977.19C540.321 989.28 540.321 989.28 540.321 1005.86C514.333 997.463 496.261 982.731 483.307 961.647C477.052 939.704 473.429 917.789 470.638 895.326Z" fill="#346BA7"/>
<path d="M508.645 248.701C512.826 248.701 517.007 248.701 521.314 248.701C523.928 254.059 526.541 259.416 529.233 264.936C532.891 270.521 536.55 276.107 540.319 281.861C544.492 282.666 548.665 283.471 552.964 284.301C565.658 287.388 565.658 287.388 572.117 297.06C573.774 301.163 575.432 305.267 577.14 309.495C592.939 343.682 618.743 369.616 645.685 397.62C654.742 407.594 654.742 407.594 667.016 425.556C662.66 441.79 662.66 441.79 654.346 453.189C644.939 450.453 644.939 450.453 635.341 447.662C626.557 431.406 626.557 431.406 618.317 411.393C615.548 404.775 612.78 398.157 609.928 391.338C607.862 386.215 605.796 381.093 603.667 375.815C599.486 381.287 595.305 386.758 590.998 392.395C585.684 385.276 580.413 378.133 575.16 370.979C572.221 367.004 569.281 363.029 566.252 358.933C559.323 348.182 559.323 348.182 559.323 337.128C548.871 338.952 538.418 340.776 527.649 342.655C525.559 337.184 523.468 331.712 521.314 326.075C525.495 326.075 529.676 326.075 533.984 326.075C533.984 322.427 533.984 318.78 533.984 315.022C546.258 319.512 546.258 319.512 559.323 326.075C561.414 331.546 563.504 337.018 565.658 342.655C569.839 342.655 574.02 342.655 578.328 342.655C570.489 334.79 570.489 334.79 562.491 326.766C546.654 310.877 546.654 310.877 546.654 298.441C542.473 298.441 538.292 298.441 533.984 298.441C533.984 294.794 533.984 291.146 533.984 287.388C529.803 287.388 525.622 287.388 521.314 287.388C512.062 272.757 508.645 265.864 508.645 248.701Z" fill="#3E5F80"/>
<path d="M299.595 729.524C309.576 745.476 315.196 760.106 319.391 777.883C320.453 782.3 321.514 786.717 322.608 791.268C323.76 796.269 323.76 796.269 324.934 801.372C335.387 803.195 345.839 805.019 356.608 806.898C356.608 810.546 356.608 814.193 356.608 817.952C369.151 817.952 381.694 817.952 394.617 817.952C391.306 802.683 387.594 788.516 381.948 773.738C386.129 770.09 390.31 766.443 394.617 762.685C409.533 776.782 413.516 783.19 414.81 802.753C414.222 810.276 414.222 810.276 413.622 817.952C419.893 819.775 426.165 821.599 432.626 823.478C424.264 823.478 415.902 823.478 407.287 823.478C410.423 867.25 410.423 867.25 413.622 911.906C432.436 915.553 451.251 919.201 470.635 922.959C472.726 939.373 474.816 955.788 476.97 972.699C457.966 956.119 457.966 956.119 457.966 934.012C450.91 934.24 443.855 934.468 436.586 934.703C413.622 934.012 413.622 934.012 400.952 922.959C388.738 892.362 386.943 865.998 394.617 834.532C390.306 833.962 385.994 833.392 381.552 832.805C351.167 826.6 318.6 818.6 299.595 795.845C297.739 779.718 297.739 779.718 298.407 761.648C298.579 755.643 298.75 749.637 298.927 743.449C299.147 738.854 299.368 734.259 299.595 729.524Z" fill="#7F99A3"/>
<path d="M552.989 226.595C584.663 237.648 584.663 237.648 616.337 248.702C614.247 254.173 612.156 259.644 610.002 265.282C616.274 265.282 622.545 265.282 629.007 265.282C626.81 268.288 624.614 271.295 622.35 274.392C614.583 291.181 617.273 300.887 621.484 318.476C623.309 326.448 623.309 326.448 625.171 334.581C628.374 348.094 628.374 348.094 635.342 359.236C647.885 359.236 660.428 359.236 673.351 359.236C682.604 373.867 686.02 380.759 686.02 397.922C681.839 397.922 677.658 397.922 673.351 397.922C673.351 394.275 673.351 390.627 673.351 386.869C664.923 385.159 664.923 385.159 656.326 383.415C636.013 376.059 631.127 373.098 618.317 358.89C605.347 341.456 605.347 341.456 584.663 337.129C570.502 318.596 570.899 315.534 574.369 294.642C575.071 290.175 575.774 285.708 576.497 281.106C577.101 277.708 577.706 274.31 578.328 270.808C584.6 270.808 590.871 270.808 597.333 270.808C592.368 267.617 587.403 264.425 582.288 261.137C566.923 249.647 560.23 242.675 552.989 226.595Z" fill="#748A94"/>
<path d="M565.658 458.715C584.662 464.242 584.662 464.242 592.581 474.95C594.149 478.711 595.717 482.473 597.332 486.348C595.242 489.996 593.151 493.644 590.997 497.402C582.635 495.578 574.273 493.754 565.658 491.875C573.816 500.068 582.004 508.239 590.205 516.4C597.04 523.228 597.04 523.228 604.013 530.195C615.275 541.946 615.275 541.946 629.006 547.142C637.432 559.54 644.813 572.289 652.341 585.117C660.484 598.428 660.484 598.428 679.685 607.936C679.685 611.583 679.685 615.231 679.685 618.989C669.232 617.165 658.78 615.342 648.011 613.462C648.011 607.991 648.011 602.52 648.011 596.882C643.83 596.882 639.649 596.882 635.341 596.882C633.251 595.059 631.16 593.235 629.006 591.356C626.916 595.003 624.825 598.651 622.671 602.409C620.213 599.866 617.755 597.322 615.223 594.702C601.019 583.796 588.982 580.828 570.805 576.503C565.097 575.113 559.389 573.724 553.508 572.293C549.155 571.288 544.803 570.284 540.319 569.249C540.319 563.777 540.319 558.306 540.319 552.669C559.133 554.493 577.947 556.316 597.332 558.195C597.332 556.372 597.332 554.548 597.332 552.669C592.628 549.021 587.925 545.374 583.079 541.615C561.02 523.029 551.295 499.849 540.319 475.295C551.8 466.659 551.8 466.659 565.658 458.715Z" fill="#305E8B"/>
<path d="M603.668 635.571C609.156 641.727 609.156 641.727 614.754 648.006C628.295 663.036 628.295 663.036 642.469 674.604C662.819 692.95 667.707 705.671 667.808 730.907C667.547 737.746 667.286 744.585 667.017 751.632C662.836 751.632 658.655 751.632 654.347 751.632C657.352 756.761 660.357 761.891 663.453 767.176C673.351 784.792 673.351 784.792 679.686 801.372C683.867 803.196 688.048 805.02 692.356 806.899C679.813 815.106 679.813 815.106 667.017 823.479C630.585 772.398 630.585 772.398 635.342 740.579C637.172 734.537 639.001 728.496 640.885 722.271C641.928 695.436 630.484 684.069 612.205 663.291C603.668 652.151 603.668 652.151 603.668 635.571Z" fill="#2367A6"/>
<path d="M597.333 370.289C617.057 378.893 618.697 393.053 626.236 410.703C628.988 417.065 631.74 423.427 634.575 429.982C641.677 447.663 641.677 447.663 645.017 459.99C647.921 471.575 647.921 471.575 660.681 486.35C680.216 487.733 680.216 487.733 698.69 486.35C698.69 491.821 698.69 497.293 698.69 502.93C707.006 510.411 715.45 517.786 724.03 525.037C724.03 528.684 724.03 532.332 724.03 536.09C711.487 539.738 698.944 543.385 686.021 547.143C667.016 526.418 667.016 526.418 667.016 513.983C671.197 513.983 675.378 513.983 679.686 513.983C677.595 510.336 675.505 506.688 673.351 502.93C669.562 502.36 665.773 501.79 661.869 501.203C641.445 495.603 634.423 484.97 622.672 469.77C617.525 457.68 617.525 457.68 616.337 447.663C618.428 444.015 620.518 440.368 622.672 436.609C617.784 423.336 617.784 423.336 610.399 408.976C597.333 382.392 597.333 382.392 597.333 370.289Z" fill="#7998A9"/>
<path d="M381.949 270.809C401.213 284.92 408.128 300.334 417.186 320.549C425.427 338.825 432.774 353.901 445.297 370.289C445.297 377.584 445.297 384.88 445.297 392.396C414.711 382.513 397.952 360.835 380.365 337.82C372.786 319.085 370.749 301.736 369.279 281.862C373.46 278.214 377.641 274.567 381.949 270.809Z" fill="#2772BA"/>
<path d="M578.33 574.776C600.542 580.159 609.438 585.227 624.257 601.028C635.343 618.99 635.343 618.99 638.51 635.915C642.385 655.776 651.666 665.095 667.017 679.784C664.927 683.431 662.836 687.079 660.682 690.837C626.874 675.27 606.28 654.989 590.999 624.517C588.647 619.957 586.296 615.398 583.873 610.7C578.33 596.883 578.33 596.883 578.33 574.776Z" fill="#4189C2"/>
<path d="M426.294 414.503C430.867 417.809 435.439 421.114 440.151 424.52C457.135 436.666 457.135 436.666 474.201 444.554C502.39 460.319 515.176 477.309 522.9 505.348C527.196 525.009 528.83 543.666 527.651 563.724C542.284 565.548 556.918 567.371 571.995 569.251C582.153 588.637 586.06 603.204 584.664 624.518C568.413 610.339 568.571 599.775 565.66 580.304C559.78 579.848 553.901 579.392 547.843 578.922C527.651 574.777 527.651 574.777 515.773 566.487C505.014 545.629 507.157 525.452 508.646 502.93C504.465 501.106 500.284 499.283 495.977 497.403C494.278 494.212 492.58 491.02 490.83 487.732C478.008 466.537 456.766 451.899 436.984 435.573C426.294 425.556 426.294 425.556 426.294 414.503Z" fill="#E3E8E8"/>
<path d="M584.663 607.938C595.944 622.701 602.916 636.529 610.423 652.885C616.748 663.922 624.34 671.326 633.758 680.475C654.833 704.465 647.022 728.508 642.938 756.943C641.372 777.789 647.388 789.735 660.681 806.899C660.681 810.546 660.681 814.194 660.681 817.952C643.871 812.575 636.616 808.789 627.423 795.154C620.494 771.981 617.714 747.27 627.052 724.257C629.935 707.571 621.676 700.623 610.794 687.038C590.708 659.738 585.853 640.135 584.663 607.938Z" fill="#E4E8E6"/>
<path d="M305.932 723.997C344.287 722.918 344.287 722.918 356.61 723.997C369.28 735.05 369.28 735.05 374.823 748.176C382.767 764.348 392.419 773.115 407.289 784.791C401.017 787.526 401.017 787.526 394.619 790.317C398.8 799.437 402.981 808.556 407.289 817.951C386.449 824.012 377.433 822.37 356.61 817.951C356.61 814.303 356.61 810.656 356.61 806.898C352.429 805.074 348.248 803.25 343.94 801.371C358.574 803.195 373.207 805.019 388.284 806.898C385.998 803.499 383.711 800.101 381.356 796.6C378.416 792.133 375.476 787.666 372.447 783.064C369.507 778.64 366.568 774.215 363.539 769.657C356.61 757.157 356.61 757.157 356.61 740.577C350.731 739.38 350.731 739.38 344.732 738.159C331.271 735.05 331.271 735.05 318.601 729.524C319.908 736.591 321.214 743.658 322.56 750.94C324.788 762.986 324.788 762.986 324.936 773.737C320.755 777.385 316.574 781.033 312.266 784.791C310.176 764.729 308.085 744.667 305.932 723.997Z" fill="#E1E8E5"/>
<path d="M514.98 420.029C533.984 425.556 533.984 425.556 540.715 436.609C542.675 440.257 544.635 443.905 546.654 447.663C550.835 449.487 555.016 451.31 559.324 453.189C561.414 445.894 563.505 438.599 565.659 431.083C597.333 462.861 597.333 462.861 597.333 475.296C601.514 475.296 605.695 475.296 610.002 475.296C610.002 469.825 610.002 464.353 610.002 458.716C614.183 458.716 618.364 458.716 622.672 458.716C624.763 466.011 626.853 473.307 629.007 480.823C624.826 480.823 620.645 480.823 616.337 480.823C619.197 487.975 622.111 495.111 625.048 502.239C626.665 506.214 628.281 510.19 629.947 514.285C634.954 526.04 634.954 526.04 648.011 536.09C645.921 541.561 643.83 547.033 641.677 552.67C621.873 529.323 605.382 507.116 590.998 480.823C586.817 475.352 582.636 469.88 578.328 464.243C564.165 462.94 564.165 462.94 552.989 475.296C546.598 469.239 540.276 463.126 533.984 456.989C528.693 451.892 528.693 451.892 523.294 446.691C514.98 436.609 514.98 436.609 514.98 420.029Z" fill="#2F5177"/>
<path d="M495.975 204.487C500.156 204.487 504.337 204.487 508.645 204.487C509.56 210.985 510.474 217.482 511.417 224.176C514.436 245.286 517.796 266.337 521.315 287.388C525.496 287.388 529.677 287.388 533.984 287.388C533.984 291.035 533.984 294.683 533.984 298.441C538.165 298.441 542.346 298.441 546.654 298.441C578.328 328.706 578.328 328.706 578.328 342.655C574.147 342.655 569.966 342.655 565.659 342.655C561.543 337.354 561.543 337.354 557.344 331.947C547.774 319.001 547.774 319.001 530.817 319.166C525.591 317.798 520.365 316.431 514.98 315.021C508.542 304.261 504.523 293.498 500.355 281.926C495.151 268.714 487.476 259.175 476.971 248.701C480.107 244.483 483.242 240.266 486.473 235.92C497.519 221.489 497.519 221.489 495.975 204.487Z" fill="#5D839D"/>
<path d="M597.333 381.342C601.556 388.711 605.78 396.08 610.003 403.449C615.294 411.827 615.294 411.827 620.693 420.374C629.007 436.609 629.007 436.609 622.672 453.189C616.401 456.837 610.129 460.484 603.668 464.242C596.203 456.467 588.829 448.624 581.496 440.754C577.38 436.394 573.265 432.034 569.024 427.542C559.324 414.502 559.324 414.502 559.324 392.395C569.777 392.395 580.229 392.395 590.998 392.395C593.089 388.748 595.179 385.1 597.333 381.342Z" fill="#375F88"/>
<path d="M419.958 834.531C424.139 834.531 428.32 834.531 432.628 834.531C436.939 841.029 436.939 841.029 441.338 847.657C452.117 862.848 458.253 867.024 476.971 873.218C472.79 885.985 468.609 898.752 464.302 911.905C451.635 912.14 438.96 912.131 426.293 911.905C419.958 906.378 419.958 906.378 419.339 890.122C419.413 883.518 419.486 876.914 419.562 870.109C419.619 863.491 419.676 856.873 419.735 850.054C419.809 844.931 419.882 839.809 419.958 834.531Z" fill="#3974AC"/>
<path d="M521.314 447.663C545.66 460.681 545.66 460.681 550.291 477.283C551.181 482.099 552.071 486.915 552.989 491.877C560.843 506.664 560.843 506.664 570.805 520.892C575.57 528.116 575.57 528.116 580.431 535.486C589.86 547.99 589.86 547.99 604.929 551.548C608.694 551.918 612.458 552.289 616.337 552.67C595.081 565.033 592.208 564.621 568.43 561.306C547.3 557.856 547.3 557.856 527.649 563.724C514.49 523.205 515.337 489.309 521.314 447.663Z" fill="#437EB5"/>
<path d="M331.27 187.908C344.069 191.234 356.743 194.944 369.279 198.962C371.369 202.609 373.46 206.257 375.614 210.015C369.342 212.751 369.342 212.751 362.944 215.542C365.035 219.189 367.125 222.837 369.279 226.595C371.369 213.828 373.46 201.062 375.614 187.908C386.066 187.908 396.519 187.908 407.288 187.908C409.378 195.203 411.469 202.499 413.623 210.015C407.351 208.191 401.08 206.367 394.618 204.488C396.709 209.96 398.799 215.431 400.953 221.068C396.772 221.068 392.591 221.068 388.283 221.068C391.32 247.121 394.418 268.962 407.288 292.916C398.926 287.444 390.564 281.973 381.949 276.335C374.604 295.559 377.462 306.505 381.949 326.076C364.23 318.346 363.52 308.741 356.609 292.916C352.428 287.444 348.247 281.973 343.94 276.335C348.121 276.335 352.302 276.335 356.609 276.335C355.825 269.154 355.041 261.973 354.234 254.574C353.793 250.535 353.352 246.495 352.897 242.333C351.599 237.279 351.599 237.279 350.274 232.122C346.093 230.298 341.912 228.474 337.605 226.595C337.605 222.947 337.605 219.3 337.605 215.542C333.424 215.542 329.243 215.542 324.935 215.542C327.026 206.423 329.116 197.304 331.27 187.908Z" fill="#1D5592"/>
<path d="M546.654 193.435C550.377 203.523 550.377 203.523 554.176 213.814C563.682 236.233 576.799 249.253 597.332 265.282C599.423 268.929 601.513 272.577 603.667 276.335C595.305 274.511 586.943 272.687 578.328 270.808C578.328 279.927 578.328 289.046 578.328 298.442C569.881 294.757 561.435 291.073 552.989 287.388C548.742 285.999 544.496 284.61 540.121 283.179C523.146 273.864 521.617 265.727 516.563 249.047C515.028 244.21 513.493 239.372 511.911 234.388C508.645 221.068 508.645 221.068 508.645 204.488C532.4 193.435 532.4 193.435 546.654 193.435Z" fill="#A1AA9F"/>
<path d="M381.949 375.815C425.999 400.043 425.999 400.043 437.379 424.865C448.871 441.908 465.855 451.814 483.307 464.243C502.311 483.586 502.311 483.586 502.311 497.403C498.13 497.403 493.949 497.403 489.642 497.403C486.898 494.097 484.154 490.792 481.327 487.386C471.24 474.416 471.24 474.416 454.404 467.006C436.972 457.647 434.944 452.176 426.293 436.609C420.806 432.848 415.318 429.086 409.664 425.21C404.699 421.677 399.734 418.143 394.619 414.502C394.619 409.031 394.619 403.559 394.619 397.922C390.438 397.922 386.257 397.922 381.949 397.922C381.949 390.627 381.949 383.332 381.949 375.815Z" fill="#9AA0A1"/>
<path d="M470.638 895.326C488.892 902.709 503.913 911.002 519.337 922.269C523.15 924.99 526.964 927.712 530.893 930.516C541.619 940.782 544.133 948.092 546.656 961.647C540.384 963.47 534.113 965.294 527.651 967.173C529.742 970.479 531.832 973.785 533.986 977.19C540.321 989.28 540.321 989.28 540.321 1005.86C514.333 997.463 496.261 982.731 483.307 961.647C477.052 939.704 473.429 917.789 470.638 895.326Z" fill="#326AA7"/>
<path d="M305.932 718.471C345.999 716.454 345.999 716.454 364.925 725.379C386.424 744.83 388.284 758.456 388.284 784.791C392.465 788.439 396.646 792.087 400.954 795.845C398.578 810.352 398.578 810.352 394.619 823.478C382.076 821.655 369.533 819.831 356.61 817.952C356.61 814.304 356.61 810.656 356.61 806.898C346.158 806.898 335.705 806.898 324.936 806.898C312.062 788.088 309.929 771.951 308.307 750.25C307.833 744.294 307.36 738.338 306.872 732.201C306.562 727.67 306.251 723.139 305.932 718.471ZM318.601 729.524C316.979 764.231 316.979 764.231 331.271 795.845C352.258 805.964 363.834 806.898 388.284 806.898C379.978 783.486 371.738 761.317 356.61 740.578C337.203 732.621 337.203 732.621 318.601 729.524Z" fill="#D0DCE1"/>
<path d="M400.953 292.915C405.134 292.915 409.315 292.915 413.623 292.915C415.231 296.648 416.84 300.381 418.498 304.228C420.678 309.157 422.858 314.087 425.105 319.167C427.236 324.04 429.367 328.913 431.563 333.934C438.762 347.797 446.978 358.532 457.966 370.289C455.876 361.17 453.785 352.051 451.632 342.655C477.47 350.17 482.914 360.91 495.975 381.342C497.559 397.232 497.559 397.232 495.975 408.976C467.036 401.172 451.093 395.38 436.215 371.822C431.838 363.886 427.609 355.888 423.521 347.837C420.195 341.761 420.195 341.761 416.802 335.563C400.953 306.095 400.953 306.095 400.953 292.915Z" fill="#27558A"/>
<path d="M603.668 635.571C609.156 641.727 609.156 641.727 614.754 648.006C628.295 663.036 628.295 663.036 642.469 674.604C662.819 692.95 667.707 705.671 667.808 730.907C667.547 737.746 667.286 744.585 667.017 751.632C662.836 751.632 658.655 751.632 654.347 751.632C657.352 756.761 660.357 761.891 663.453 767.176C673.351 784.792 673.351 784.792 679.686 801.372C683.867 803.196 688.048 805.02 692.356 806.899C679.813 815.106 679.813 815.106 667.017 823.479C630.585 772.398 630.585 772.398 635.342 740.579C637.172 734.537 639.001 728.496 640.885 722.271C641.928 695.436 630.484 684.069 612.205 663.291C603.668 652.151 603.668 652.151 603.668 635.571Z" fill="#2367A6"/>
<path d="M375.614 331.602C388.821 342.851 400.987 354.49 412.831 366.834C424.707 379.046 436.638 390.367 449.653 401.722C464.302 414.502 464.302 414.502 473.408 427.283C483.179 438.604 483.179 438.604 503.499 437.991C512.318 437.307 512.318 437.307 521.315 436.609C531.036 453.57 524.799 468.116 521.315 486.349C517.134 482.474 512.953 478.598 508.646 474.605C495.337 462.831 481.58 453.782 465.886 444.553C429.131 421.1 388.891 382.3 377.173 343.367C376.659 339.485 376.144 335.602 375.614 331.602Z" fill="#1F559A"/>
<path d="M597.333 370.289C617.057 378.893 618.697 393.053 626.236 410.703C628.988 417.065 631.74 423.427 634.575 429.982C641.677 447.663 641.677 447.663 645.017 459.99C647.921 471.575 647.921 471.575 660.681 486.35C680.216 487.733 680.216 487.733 698.69 486.35C698.69 491.821 698.69 497.293 698.69 502.93C707.006 510.411 715.45 517.786 724.03 525.037C724.03 528.684 724.03 532.332 724.03 536.09C711.487 539.738 698.944 543.385 686.021 547.143C667.016 526.418 667.016 526.418 667.016 513.983C671.197 513.983 675.378 513.983 679.686 513.983C677.595 510.336 675.505 506.688 673.351 502.93C669.562 502.36 665.773 501.79 661.869 501.203C641.445 495.603 634.423 484.97 622.672 469.77C617.525 457.68 617.525 457.68 616.337 447.663C618.428 444.015 620.518 440.368 622.672 436.609C617.784 423.336 617.784 423.336 610.399 408.976C597.333 382.392 597.333 382.392 597.333 370.289Z" fill="#7998A9"/>
<path d="M160.229 618.99C164.672 623.55 169.114 628.109 173.691 632.807C190.55 648.305 190.55 648.305 212.888 648.351C218.506 647.781 224.124 647.211 229.913 646.624C232.003 639.328 234.094 632.033 236.247 624.517C248.917 641.097 248.917 641.097 248.917 663.204C244.736 663.204 240.555 663.204 236.247 663.204C238.338 670.499 240.428 677.794 242.582 685.311C231.694 689.045 231.694 689.045 217.243 690.837C203.188 684.512 203.188 684.512 188.736 675.293C171.224 664.279 154.484 654.588 134.89 646.624C136.981 641.152 139.071 635.681 141.225 630.044C153.768 632.779 153.768 632.779 166.564 635.57C164.474 630.099 162.383 624.627 160.229 618.99Z" fill="#2061A6"/>
<path d="M464.302 442.136C488.729 450.508 500.909 461.589 514.981 480.823C525.287 508.2 529.345 534.893 527.651 563.723C542.284 565.547 556.917 567.371 571.994 569.25C585.249 593.737 585.249 593.737 582.288 609.664C580.329 614.28 580.329 614.28 578.329 618.99C575.193 605.312 575.193 605.312 571.994 591.357C567.421 591.927 562.848 592.497 558.137 593.084C540.32 591.357 540.32 591.357 522.503 581.339C502.427 555.817 505.931 532.985 508.646 502.929C504.465 501.106 500.284 499.282 495.976 497.403C491.753 490.034 487.53 482.665 483.307 475.296C475.039 465.962 466.623 456.724 457.967 447.662C460.058 445.839 462.148 444.015 464.302 442.136Z" fill="#CFDAE0"/>
<path d="M476.973 922.959C479.063 922.959 481.154 922.959 483.307 922.959C483.699 931.337 483.699 931.337 484.099 939.885C488.209 966.164 506.041 982.629 527.651 1000.33C531.832 1002.16 536.013 1003.98 540.321 1005.86C536.14 993.093 531.959 980.326 527.651 967.173C536.013 965.349 544.375 963.525 552.99 961.646C555.081 983.532 557.171 1005.42 559.325 1027.97C550.963 1029.79 542.601 1031.61 533.986 1033.49C518.149 1021.75 518.149 1021.75 502.312 1005.86C495.256 999.533 495.256 999.533 488.058 993.079C472.883 972.746 472 958.183 470.638 934.012C472.728 930.365 474.819 926.717 476.973 922.959Z" fill="#BFC8CE"/>
<path d="M293.261 182.381C297.442 184.205 301.623 186.028 305.931 187.908C298.956 194.142 291.957 200.356 284.947 206.56C281.051 210.023 277.156 213.485 273.143 217.052C261.587 226.594 261.587 226.594 242.582 237.648C250.618 236.622 250.618 236.622 258.815 235.575C285.887 238.152 294.623 246.17 313.899 261.978C329.092 274.134 345.628 283.203 362.944 292.915C369.279 298.442 369.279 298.442 369.675 318.13C369.544 324.4 369.414 330.669 369.279 337.128C361.637 324.239 355.561 312.278 350.275 298.442C339.089 293.203 339.089 293.203 325.727 289.806C307.773 284.691 296.735 280.198 280.591 270.808C278.501 265.337 276.41 259.865 274.257 254.228C257.533 252.404 240.809 250.58 223.578 248.701C221.487 243.23 219.397 237.758 217.243 232.121C221.555 230.069 225.866 228.018 230.309 225.904C253.229 213.14 272.992 198.128 293.261 182.381Z" fill="#DBE1E3"/>
<path d="M432.628 823.479C435.535 825.68 438.442 827.881 441.438 830.149C447.268 834.542 447.268 834.542 453.216 839.022C459.28 843.596 459.28 843.596 465.465 848.262C477.165 857.066 477.165 857.066 491.621 865.274C502.311 873.219 502.311 873.219 508.25 886.69C516.837 904.758 529.155 911.043 546.655 922.959C560.855 939.064 566.277 945.743 563.68 966.136C562.243 970.126 560.806 974.116 559.325 978.226C551.161 967.543 543.221 956.725 535.569 945.757C523.863 931.573 516.406 924.459 501.123 914.324C481.074 899.164 481.617 894.638 476.972 873.219C466.535 869.281 455.955 865.625 445.298 862.165C430.649 847.658 430.649 847.658 419.958 834.532C424.139 834.532 428.32 834.532 432.628 834.532C432.628 830.884 432.628 827.237 432.628 823.479Z" fill="#B3C2CC"/>
<path d="M578.33 574.776C600.542 580.159 609.438 585.227 624.257 601.028C635.343 618.99 635.343 618.99 638.51 635.915C642.385 655.776 651.666 665.095 667.017 679.784C664.927 683.431 662.836 687.079 660.682 690.837C635.209 679.425 622.589 669.161 610.004 646.623C610.004 642.976 610.004 639.328 610.004 635.57C605.823 635.57 601.642 635.57 597.334 635.57C578.33 599.647 578.33 599.647 578.33 574.776Z" fill="#4088C1"/>
<path d="M381.95 270.809C394.401 279.9 400.362 285.089 403.974 299.111C404.439 305.448 404.439 305.448 404.914 311.913C406.253 328.349 408.56 343.338 413.624 359.236C407.353 359.236 401.081 359.236 394.62 359.236C390.439 351.941 386.258 344.645 381.95 337.129C373.588 346.248 365.226 355.367 356.611 364.763C354.52 346.524 352.43 328.286 350.276 309.495C334.597 304.024 334.597 304.024 318.602 298.442C318.602 294.794 318.602 291.147 318.602 287.389C333.251 288.425 333.251 288.425 350.276 292.915C361.758 307.078 361.758 307.078 369.28 320.549C377.208 304.911 377.208 304.911 372.052 292.57C371.137 289.036 370.223 285.503 369.28 281.862C373.461 278.214 377.642 274.567 381.95 270.809Z" fill="#4B85B9"/>
<path d="M407.288 320.549C421.062 335.761 431.442 350.893 441.338 368.217C453.337 387.804 453.337 387.804 474.199 399.995C479.295 401.135 484.391 402.275 489.641 403.449C504.29 411.394 504.29 411.394 514.98 420.029C514.98 425.501 514.98 430.972 514.98 436.61C504.527 438.433 494.075 440.257 483.306 442.136C481.076 439.329 478.847 436.522 476.55 433.63C454.364 406.643 430.937 385.194 400.953 364.762C405.134 362.939 409.315 361.115 413.623 359.236C409.442 348.293 405.261 337.35 400.953 326.076C403.043 324.252 405.134 322.428 407.288 320.549Z" fill="#2F76BC"/>
<path d="M413.623 414.503C502.788 479.74 502.788 479.74 513.792 523.31C514.184 529.351 514.576 535.393 514.98 541.617C510.799 545.265 506.618 548.912 502.31 552.67C500.832 548.588 499.354 544.506 497.831 540.3C477.032 489.837 445.821 460.382 400.953 425.556C405.134 421.909 409.315 418.261 413.623 414.503Z" fill="#6E8BA5"/>
<path d="M514.98 420.029C533.984 425.556 533.984 425.556 540.715 436.609C542.675 440.257 544.635 443.905 546.654 447.663C550.835 449.487 555.016 451.31 559.324 453.189C561.414 445.894 563.505 438.599 565.659 431.083C597.333 462.861 597.333 462.861 597.333 475.296C601.514 475.296 605.695 475.296 610.002 475.296C610.002 469.825 610.002 464.353 610.002 458.716C614.183 458.716 618.364 458.716 622.672 458.716C624.763 466.011 626.853 473.307 629.007 480.823C624.826 480.823 620.645 480.823 616.337 480.823C619.197 487.975 622.111 495.111 625.048 502.239C626.665 506.214 628.281 510.19 629.947 514.285C634.954 526.04 634.954 526.04 648.011 536.09C645.921 541.561 643.83 547.033 641.677 552.67C621.873 529.323 605.382 507.116 590.998 480.823C586.817 475.352 582.636 469.88 578.328 464.243C564.165 462.94 564.165 462.94 552.989 475.296C546.598 469.239 540.276 463.126 533.984 456.989C528.693 451.892 528.693 451.892 523.294 446.691C514.98 436.609 514.98 436.609 514.98 420.029Z" fill="#2F5177"/>
<path d="M495.975 204.487C500.156 204.487 504.337 204.487 508.645 204.487C509.56 210.985 510.474 217.482 511.417 224.176C514.436 245.286 517.796 266.337 521.315 287.388C525.496 287.388 529.677 287.388 533.984 287.388C533.984 291.035 533.984 294.683 533.984 298.441C538.165 298.441 542.346 298.441 546.654 298.441C578.328 328.706 578.328 328.706 578.328 342.655C574.147 342.655 569.966 342.655 565.659 342.655C561.543 337.354 561.543 337.354 557.344 331.947C547.774 319.001 547.774 319.001 530.817 319.166C525.591 317.798 520.365 316.431 514.98 315.021C508.542 304.261 504.523 293.498 500.355 281.926C495.151 268.714 487.476 259.175 476.971 248.701C480.107 244.483 483.242 240.266 486.473 235.92C497.519 221.489 497.519 221.489 495.975 204.487Z" fill="#5D839D"/>
<path d="M559.324 480.822C569.777 486.294 580.229 491.765 590.998 497.402C590.998 493.755 590.998 490.107 590.998 486.349C595.179 486.349 599.36 486.349 603.668 486.349C605.277 489.348 606.885 492.348 608.543 495.438C610.723 499.392 612.903 503.346 615.15 507.42C617.281 511.331 619.412 515.242 621.608 519.272C629.122 530.738 636.902 538.265 648.012 547.143C663.274 560.458 670.425 574.463 679.686 591.356C665.037 593.083 665.037 593.083 648.012 591.356C633.806 575.544 629.007 567.366 629.007 547.143C625.316 545.775 621.625 544.407 617.822 542.998C601.57 535.065 592.029 526.27 579.912 513.982C576.025 510.107 572.138 506.231 568.133 502.238C559.324 491.876 559.324 491.876 559.324 480.822Z" fill="#41769E"/>
<path d="M597.333 381.342C601.556 388.711 605.78 396.08 610.003 403.449C615.294 411.827 615.294 411.827 620.693 420.374C629.007 436.609 629.007 436.609 622.672 453.189C616.401 456.837 610.129 460.484 603.668 464.242C596.203 456.467 588.829 448.624 581.496 440.754C577.38 436.394 573.265 432.034 569.024 427.542C559.324 414.502 559.324 414.502 559.324 392.395C569.777 392.395 580.229 392.395 590.998 392.395C593.089 388.748 595.179 385.1 597.333 381.342Z" fill="#375F88"/>
<path d="M369.279 342.655C373.46 342.655 377.641 342.655 381.948 342.655C383.647 345.669 385.346 348.682 387.096 351.787C407.761 386.481 433.463 413.896 464.301 442.136C439.445 442.136 432.595 433.271 413.623 420.029C407.351 420.029 401.08 420.029 394.618 420.029C384.002 410.12 384.002 410.12 373.634 396.886C370.131 392.59 366.628 388.294 363.018 383.868C356.609 370.289 356.609 370.289 361.88 354.81C364.322 350.799 366.763 346.788 369.279 342.655Z" fill="#C1CED4"/>
<path d="M419.958 840.059C438.772 851.001 457.587 861.944 476.971 873.219C472.79 885.985 468.609 898.752 464.302 911.906C451.635 912.141 438.96 912.131 426.293 911.906C419.958 906.379 419.958 906.379 419.339 891.332C419.413 885.24 419.486 879.149 419.562 872.873C419.619 866.768 419.676 860.662 419.735 854.372C419.809 849.648 419.882 844.925 419.958 840.059Z" fill="#3471AC"/>
<path d="M400.953 292.915C405.134 292.915 409.315 292.915 413.623 292.915C415.231 296.648 416.84 300.381 418.498 304.228C420.678 309.157 422.858 314.087 425.105 319.167C427.236 324.04 429.367 328.913 431.563 333.934C438.762 347.797 446.978 358.532 457.966 370.289C455.876 361.17 453.785 352.051 451.632 342.655C477.47 350.17 482.914 360.91 495.975 381.342C497.559 397.232 497.559 397.232 495.975 408.976C467.036 401.172 451.093 395.38 436.215 371.822C431.838 363.886 427.609 355.888 423.521 347.837C420.195 341.761 420.195 341.761 416.802 335.563C400.953 306.095 400.953 306.095 400.953 292.915Z" fill="#27558A"/>
<path d="M407.288 823.479C415.65 823.479 424.012 823.479 432.627 823.479C432.627 827.126 432.627 830.774 432.627 834.532C428.446 834.532 424.265 834.532 419.957 834.532C422.048 858.241 424.138 881.951 426.292 906.379C445.107 909.115 445.107 909.115 464.301 911.906C465.085 907.688 465.869 903.471 466.677 899.125C470.636 884.272 470.636 884.272 483.306 867.692C483.306 876.811 483.306 885.93 483.306 895.326C479.125 895.326 474.944 895.326 470.636 895.326C472.727 908.092 474.817 920.859 476.971 934.013C474.88 930.365 472.79 926.717 470.636 922.959C457.375 920.588 457.375 920.588 442.129 919.85C414.231 917.963 414.231 917.963 407.288 911.906C406.824 897.003 406.702 882.244 406.892 867.347C406.92 863.154 406.949 858.961 406.978 854.642C407.053 844.254 407.167 833.866 407.288 823.479Z" fill="#DAE3E5"/>
<path d="M28.7826 273.226C46.2034 276.334 46.2034 276.334 55.1117 285.035C68.9088 303.405 77.3202 317.266 81.0449 339.201C82.0902 343.988 83.1354 348.776 84.2124 353.708C99.4763 360.601 99.4763 360.601 115.887 364.762C130.048 383.294 129.651 386.357 126.181 407.248C125.127 413.948 125.127 413.948 124.053 420.784C123.146 425.882 123.146 425.882 122.221 431.082C113.859 431.082 105.497 431.082 96.882 431.082C96.882 434.73 96.882 438.377 96.882 442.135C68.4687 438.508 41.9645 432.736 14.5292 425.555C12.9199 395.368 12.9199 395.368 21.26 379.96C30.4887 356.343 24.8743 333.844 20.8641 309.495C16.6831 309.495 12.5021 309.495 8.19439 309.495C7.92376 300.286 7.93696 291.069 8.19439 281.861C14.5292 276.334 14.5292 276.334 28.7826 273.226Z" fill="#AEB6BB"/>
<path d="M58.8722 243.175C72.9971 243.808 87.1179 244.513 101.236 245.247C109.1 245.632 116.964 246.017 125.066 246.413C145.616 248.504 160.645 252.127 179.234 259.755C179.234 268.874 179.234 277.993 179.234 287.388C135.267 300.696 101.988 298.96 58.8722 281.862C58.8722 269.095 58.8722 256.328 58.8722 243.175Z" fill="#99ACC8"/>
<path d="M185.569 270.809C187.66 270.809 189.75 270.809 191.904 270.809C191.904 279.928 191.904 289.047 191.904 298.442C161.047 312.799 130.8 310.438 96.8814 309.495C92.7004 309.495 88.5194 309.495 84.2117 309.495C88.4376 315.288 88.4376 315.288 92.7489 321.197C98.1262 328.741 98.1262 328.741 103.612 336.438C107.213 341.439 110.815 346.441 114.525 351.593C117.064 355.939 119.604 360.285 122.221 364.762C120.13 368.41 118.04 372.058 115.886 375.816C109.614 375.816 103.343 375.816 96.8814 375.816C76.3101 384.789 73.4327 402.089 65.2072 420.029C54.7548 420.029 44.3023 420.029 33.5331 420.029C34.5212 416.425 35.5092 412.82 36.5273 409.106C44.7525 376.885 50.7611 350.609 33.1371 319.858C27.1982 309.495 27.1982 309.495 27.1982 287.389C56.6479 286.923 84.7872 286.537 113.906 290.843C138.895 293.311 155.854 289.613 179.234 281.862C181.325 278.214 183.415 274.567 185.569 270.809Z" fill="#8C99A7"/>
<path d="M58.8722 243.175C169.644 251.388 169.644 251.388 179.234 259.755C179.491 268.963 179.505 278.18 179.234 287.388C135.267 300.696 101.988 298.96 58.8722 281.862C58.8722 269.095 58.8722 256.328 58.8722 243.175Z" fill="#96AAC9"/>
<path d="M204.575 541.615C222.391 561.033 236.368 582.074 250.106 603.791C252.438 607.274 254.769 610.758 257.171 614.347C273.984 641.072 277.825 660.366 274.258 690.836C258.139 706.908 249.21 712.429 224.767 714.325C220.194 713.869 215.621 713.413 210.909 712.943C206.728 703.824 202.547 694.705 198.24 685.309C210.783 685.309 223.326 685.309 236.249 685.309C236.249 678.014 236.249 670.719 236.249 663.203C240.43 663.203 244.611 663.203 248.918 663.203C231.913 623.779 231.913 623.779 208.93 586.865C198.24 569.249 198.24 569.249 199.823 553.014C201.391 549.252 202.959 545.491 204.575 541.615Z" fill="#A0B5C6"/>
<path d="M14.5277 276.335C24.9802 276.335 35.4326 276.335 46.2019 276.335C46.2019 279.983 46.2019 283.63 46.2019 287.388C39.9304 287.388 33.6589 287.388 27.1974 287.388C29.1 290.929 31.0027 294.47 32.963 298.118C56.0026 343.838 49.824 373.598 33.5322 420.029C43.9847 420.029 54.4371 420.029 65.2063 420.029C67.2968 412.734 69.3873 405.439 71.5412 397.922C75.4608 397.352 79.3805 396.783 83.419 396.195C99.1944 393.085 99.1944 393.085 109.55 375.816C116.677 402.067 116.677 402.067 109.55 414.502C105.369 414.502 101.188 414.502 96.8805 414.502C94.79 418.15 92.6995 421.798 90.5457 425.556C86.3647 423.732 82.1837 421.908 77.876 420.029C75.7855 425.501 73.695 430.972 71.5412 436.609C56.9077 434.785 42.2743 432.962 27.1974 431.083C26.4134 426.637 25.6295 422.192 24.8218 417.611C23.5152 412.938 22.2087 408.264 20.8625 403.449C16.6815 401.625 12.5006 399.801 8.19287 397.922C12.3739 396.099 16.5548 394.275 20.8625 392.396C30.9716 365.937 31.7363 345.048 17.2992 319.858C7.00362 301.893 7.58823 295.048 14.5277 276.335Z" fill="#E8EBEB"/>
<path d="M65.2077 226.595C70.1726 228.419 75.1375 230.242 80.2529 232.121C101.467 237.227 113.847 237.646 135.287 236.612C160.023 236.156 165.077 236.739 186.361 249.738C199.012 266.294 201.416 273.512 198.239 292.915C179.235 281.862 179.235 281.862 172.9 259.755C135.271 254.283 97.642 248.812 58.8729 243.175C58.8729 255.942 58.8729 268.708 58.8729 281.862C63.0538 283.686 67.2348 285.509 71.5425 287.388C65.271 289.212 58.9995 291.036 52.538 292.915C50.4475 287.444 48.357 281.972 46.2032 276.335C35.7507 278.159 25.2983 279.983 14.529 281.862C17.3998 296.471 20.6329 309.045 27.5946 322.621C36.9736 345.532 37.8416 366.654 27.1987 389.287C25.1082 392.137 23.0177 394.986 20.8639 397.922C14.529 386.869 14.529 386.869 18.4883 368.562C21.2861 344.56 15.7241 340.386 1.85938 320.549C-1.88775 296.871 -1.04197 280.132 14.529 259.755C33.3435 262.491 33.3435 262.491 52.538 265.282C52.2767 260.95 52.0154 256.619 51.7462 252.156C52.538 237.648 52.538 237.648 65.2077 226.595Z" fill="#9DA3A7"/>
<path d="M565.659 591.356C587.4 603.502 595.081 612.979 603.272 634.188C611.247 653.364 619.33 667.827 634.155 683.583C648.012 701.89 648.012 701.89 646.824 723.652C645.126 729.237 643.427 734.823 641.677 740.577C637.496 740.577 633.315 740.577 629.007 740.577C626.917 753.344 624.826 766.111 622.673 779.264C620.582 779.264 618.492 779.264 616.338 779.264C615.532 737.102 615.532 737.102 620.619 724.148C623.642 707.653 615.799 700.642 605.252 687.037C583.581 657.315 565.659 627.194 565.659 591.356Z" fill="#ABC6D6"/>
<path d="M103.218 364.762C111.579 368.409 119.941 372.057 128.557 375.815C130.536 390.668 130.536 390.668 128.557 408.975C113.512 424.174 113.512 424.174 96.8827 436.609C92.7017 440.256 88.5207 443.904 84.213 447.662C58.2924 445.987 36.9447 442.815 14.5299 431.082C14.5299 421.963 14.5299 412.844 14.5299 403.449C15.7058 406.982 16.8817 410.516 18.0932 414.157C26.8351 427.884 26.8351 427.884 50.1633 429.7C57.2187 430.156 64.2742 430.612 71.5434 431.082C73.6339 427.435 75.7244 423.787 77.8782 420.029C94.1112 416.575 94.1112 416.575 109.552 414.502C107.462 407.207 105.371 399.912 103.218 392.395C94.8555 394.219 86.4936 396.043 77.8782 397.922C79.8578 387.559 79.8578 387.559 84.213 375.815C90.4845 372.167 96.756 368.52 103.218 364.762Z" fill="#718098"/>
<path d="M616.338 281.861C622.61 283.685 628.881 285.509 635.343 287.388C631.162 287.388 626.981 287.388 622.673 287.388C624.045 290.323 625.417 293.258 626.83 296.283C628.594 300.187 630.358 304.091 632.175 308.113C634.821 313.884 634.821 313.884 637.52 319.771C641.678 331.602 641.678 331.602 641.678 353.708C654.221 351.885 666.763 350.061 679.687 348.182C681.091 351.388 682.496 354.594 683.943 357.897C703.123 394.637 724.969 406.278 766.642 422.123C796.698 435.109 820.715 452.936 846.347 471.647C862.573 482.364 862.573 482.364 881.04 479.808C894.709 476.383 894.709 476.383 901.406 469.769C911.03 469.372 920.674 469.305 930.308 469.424C935.543 469.474 940.777 469.523 946.17 469.575C950.212 469.639 954.254 469.703 958.419 469.769C958.419 471.593 958.419 473.417 958.419 475.296C941.695 475.296 924.971 475.296 907.74 475.296C905.65 480.767 903.559 486.239 901.406 491.876C897.225 491.876 893.044 491.876 888.736 491.876C886.645 499.171 884.555 506.466 882.401 513.983C876.783 509.423 871.165 504.864 865.376 500.166C826.075 470.727 780.064 448.875 735.339 426.354C729.125 423.127 722.91 419.9 716.508 416.575C710.93 413.768 705.353 410.961 699.607 408.069C682.376 395.199 678.787 383.676 673.352 364.762C660.809 364.762 648.266 364.762 635.343 364.762C621.309 338.678 612.675 316.525 610.003 287.388C612.094 285.564 614.184 283.74 616.338 281.861Z" fill="#D6DEDF"/>
<path d="M172.899 519.51C195.488 543.696 207.599 565.209 204.573 596.884C202.483 598.707 200.392 600.531 198.238 602.41C206.6 606.058 214.962 609.706 223.578 613.464C223.578 617.111 223.578 620.759 223.578 624.517C207.899 619.046 207.899 619.046 191.904 613.464C193.994 616.769 196.085 620.075 198.238 623.481C204.573 635.57 204.573 635.57 204.573 652.151C180.177 645.056 176.22 636.681 162.605 617.954C158.734 612.746 154.864 607.538 150.876 602.173C140.89 585.264 137.253 571.473 134.89 552.67C139.071 552.67 143.252 552.67 147.56 552.67C149.65 545.375 151.741 538.079 153.895 530.563C160.166 530.563 166.438 530.563 172.899 530.563C172.899 526.916 172.899 523.268 172.899 519.51Z" fill="#4E96CC"/>
<path d="M166.565 497.403C168.655 508.346 170.746 519.289 172.899 530.564C166.628 532.387 160.356 534.211 153.895 536.09C151.804 541.562 149.714 547.033 147.56 552.67C143.379 552.67 139.198 552.67 134.89 552.67C137.414 557.981 137.414 557.981 139.988 563.4C152.853 590.885 164.309 617.895 172.899 646.624C129.218 619.845 113.684 580.53 103.216 536.09C105.196 516.056 105.196 516.056 109.551 502.93C128.926 499.925 146.849 497.403 166.565 497.403Z" fill="#3F8BC8"/>
<path d="M705.024 613.464C716.902 614.846 716.902 614.846 730.363 618.991C738.282 630.389 738.282 630.389 743.033 641.097C730.49 642.921 717.947 644.745 705.024 646.624C707.237 652.43 709.45 658.237 711.73 664.219C726.784 704.469 740.418 742.214 743.033 784.792C728.384 793.427 728.384 793.427 711.359 801.372C705.087 799.548 698.816 797.724 692.354 795.845C690.982 788.151 690.982 788.151 689.583 780.301C686.52 762.645 686.52 762.645 679.685 746.105C685.956 744.281 692.228 742.457 698.689 740.578C702.87 744.226 707.051 747.873 711.359 751.631C708.223 747.3 705.087 742.968 701.857 738.505C692.354 723.998 692.354 723.998 692.354 712.944C696.535 712.944 700.716 712.944 705.024 712.944C690.978 684.351 673.666 667.514 648.01 646.624C650.101 642.976 652.191 639.329 654.345 635.571C670.024 646.514 670.024 646.514 686.019 657.677C687.513 645.321 687.513 645.321 673.35 635.571C677.531 631.923 681.712 628.275 686.019 624.517C688.11 629.989 690.2 635.46 692.354 641.097C698.626 637.45 704.897 633.802 711.359 630.044C709.268 624.573 707.178 619.101 705.024 613.464Z" fill="#2865A0"/>
<path d="M166.564 497.403C168.654 508.346 170.745 519.289 172.899 530.564C166.627 532.387 160.356 534.211 153.894 536.09C151.804 541.562 149.713 547.033 147.559 552.67C143.378 552.67 139.197 552.67 134.89 552.67C137.413 557.981 137.413 557.981 139.987 563.4C152.852 590.885 164.308 617.895 172.899 646.624C144.524 639.06 132.389 629.303 115.885 607.937C113.362 604.674 110.839 601.411 108.239 598.05C93.246 576.089 88.6041 562.093 94.901 536.781C98.845 524.664 103.093 514.197 109.55 502.93C128.993 499.243 146.659 497.403 166.564 497.403Z" fill="#3B86C4"/>
<path d="M629.007 618.99C641.676 624.517 641.676 624.517 649.595 636.607C659.277 650.181 667.3 658.087 680.477 668.731C697.092 682.58 703.634 692.312 705.025 712.944C700.844 712.944 696.663 712.944 692.355 712.944C696.667 719.1 700.978 725.255 705.421 731.597C712.77 742.089 712.77 742.089 717.694 751.631C715.604 755.279 713.513 758.926 711.36 762.684C708.485 759.949 705.611 757.213 702.649 754.394C693.138 744.855 693.138 744.855 679.685 746.104C684.585 752.089 684.585 752.089 689.584 758.194C700.048 776.057 699.092 782.669 692.355 801.371C688.174 801.371 683.993 801.371 679.685 801.371C654.346 764.066 654.346 764.066 654.346 751.631C658.527 751.631 662.708 751.631 667.016 751.631C662.562 718.166 662.562 718.166 654.346 685.311C654.346 681.663 654.346 678.015 654.346 674.257C650.165 669.014 645.984 663.77 641.676 658.368C629.007 641.097 629.007 641.097 629.007 618.99Z" fill="#619AC0"/>
<path d="M318.601 729.524C335.626 731.597 335.626 731.597 356.61 740.578C371.308 759.994 388.284 783.11 388.284 806.898C365.802 803.536 345.202 799.65 324.936 790.318C314.643 771.667 318.154 749.84 318.601 729.524Z" fill="#38679E"/>
<path d="M96.8805 519.51C104.175 539.31 104.175 539.31 99.0828 551.547C95.8169 569.604 104.537 578.672 115.093 594.12C134.474 622.747 134.474 622.747 137.76 636.758C140.231 647.514 140.231 647.514 152.261 653.036C156.719 654.681 161.178 656.327 165.772 658.023C184.644 665.101 197.098 671.937 210.907 685.311C199.821 689.456 199.821 689.456 185.568 690.837C176.845 683.718 168.423 676.313 160.229 668.731C155.084 667.206 149.94 665.681 144.639 664.111C124.247 655.954 120.637 648.687 111.53 631.08C109.023 626.371 106.516 621.662 103.933 616.81C99.1217 606.986 94.4929 597.094 90.026 587.147C85.4504 575.147 85.4504 575.147 77.876 569.25C75.7076 551.751 76.2523 543.801 87.3782 528.836C90.514 525.758 93.6497 522.681 96.8805 519.51Z" fill="#E1E7E3"/>
<path d="M90.5466 508.457C94.7276 513.928 98.9086 519.4 103.216 525.037C101.648 530.509 100.081 535.98 98.4651 541.617C92.5107 568.688 110.116 588.016 125.735 610.42C134.89 624.518 134.89 624.518 137.761 636.694C140.218 647.51 140.218 647.51 152.262 653.036C156.72 654.682 161.179 656.328 165.773 658.023C184.645 665.101 197.099 671.938 210.908 685.311C208.818 690.783 206.727 696.254 204.574 701.892C169.565 694.442 144.655 682.133 122.221 657.678C107.3 632.537 95.4003 606.898 84.2118 580.304C81.5905 574.476 78.9692 568.649 76.2685 562.645C69.076 539.056 77.9883 529.527 90.5466 508.457Z" fill="#ADC1D2"/>
<path d="M172.899 519.51C188.844 533.42 192.598 544.797 198.238 563.723C195.863 576.849 195.863 576.849 191.904 585.83C196.085 585.83 200.266 585.83 204.573 585.83C202.483 591.302 200.392 596.773 198.238 602.41C206.6 606.058 214.962 609.706 223.578 613.464C223.578 617.111 223.578 620.759 223.578 624.517C198.639 617.265 184.13 608.384 166.564 591.357C170.745 589.533 174.926 587.709 179.234 585.83C175.053 580.359 170.872 574.887 166.564 569.25C162.383 572.898 158.202 576.545 153.895 580.303C157.435 584.899 157.435 584.899 161.046 589.587C164.043 593.59 167.04 597.594 170.128 601.719C173.141 605.695 176.154 609.67 179.259 613.766C181.341 617.314 183.423 620.862 185.569 624.517C183.478 628.165 181.388 631.812 179.234 635.57C136.766 584.584 136.766 584.584 134.89 552.67C139.071 552.67 143.252 552.67 147.56 552.67C149.65 545.375 151.741 538.079 153.895 530.563C160.166 530.563 166.438 530.563 172.899 530.563C172.899 526.916 172.899 523.268 172.899 519.51Z" fill="#569DD0"/>
<path d="M147.56 563.723C155.922 565.546 164.284 567.37 172.9 569.249C172.9 576.545 172.9 583.84 172.9 591.356C187.691 607.026 202.253 616.543 223.578 624.516C215.626 610.64 207.737 608.648 191.904 602.41C196.085 600.586 200.266 598.762 204.574 596.883C204.574 593.235 204.574 589.588 204.574 585.829C200.393 585.829 196.212 585.829 191.904 585.829C193.995 578.534 196.085 571.239 198.239 563.723C204.82 572.293 211.26 580.944 217.639 589.629C221.241 594.438 224.842 599.247 228.552 604.201C237.48 621.356 236.297 628.96 229.913 646.623C217.37 648.447 204.827 650.271 191.904 652.15C189.765 648.353 187.625 644.555 185.421 640.643C182.596 635.663 179.77 630.683 176.859 625.553C174.066 620.615 171.273 615.678 168.396 610.592C160.112 596.078 160.112 596.078 147.56 580.303C147.56 574.831 147.56 569.36 147.56 563.723Z" fill="#3079B8"/>
<path d="M318.601 729.524C335.626 731.597 335.626 731.597 356.61 740.578C371.308 759.994 388.284 783.11 388.284 806.898C365.802 803.536 345.202 799.65 324.936 790.318C314.643 771.667 318.154 749.84 318.601 729.524Z" fill="#38679E"/>
<path d="M616.338 281.861C622.61 283.685 628.881 285.509 635.343 287.388C631.162 287.388 626.981 287.388 622.673 287.388C624.045 290.323 625.417 293.258 626.83 296.283C628.594 300.187 630.358 304.091 632.175 308.113C634.821 313.884 634.821 313.884 637.52 319.771C641.678 331.602 641.678 331.602 641.678 353.708C654.221 351.885 666.763 350.061 679.687 348.182C681.459 351.58 683.231 354.978 685.056 358.48C702.75 390.327 702.75 390.327 735.512 409.321C745.507 411.886 745.507 411.886 755.705 414.502C749.433 418.15 743.162 421.797 736.7 425.556C689.016 403.691 689.016 403.691 676.519 379.615C675.474 374.713 674.429 369.812 673.352 364.762C660.809 364.762 648.266 364.762 635.343 364.762C621.309 338.678 612.675 316.525 610.003 287.388C612.094 285.564 614.184 283.74 616.338 281.861Z" fill="#D4DDDB"/>
<path d="M179.234 480.823C208.325 532.829 208.325 532.829 204.573 558.197C200.392 558.197 196.211 558.197 191.904 558.197C187.633 551.195 183.421 544.166 179.234 537.126C175.706 531.259 175.706 531.259 172.107 525.274C166.564 513.983 166.564 513.983 166.564 497.403C157.319 497.735 148.081 498.226 138.849 498.785C133.705 499.041 128.56 499.297 123.26 499.562C108.357 501.781 108.357 501.781 101.385 514.242C99.8986 517.804 98.4124 521.366 96.8811 525.036C96.8811 514.093 96.8811 503.151 96.8811 491.876C125.622 483.852 148.704 479.523 179.234 480.823Z" fill="#C9D8E3"/>
<path d="M318.6 171.328C328.305 172.721 337.937 174.511 347.502 176.509C355.354 178.123 355.354 178.123 363.364 179.769C367.406 180.631 371.448 181.493 375.613 182.382C379.572 197.925 379.572 197.925 381.948 215.542C375.676 223.749 375.676 223.749 369.278 232.122C365.097 223.003 360.916 213.884 356.609 204.488C358.699 202.665 360.79 200.841 362.943 198.962C354.581 197.138 346.219 195.314 337.604 193.435C333.423 200.73 329.242 208.025 324.934 215.542C329.115 215.542 333.296 215.542 337.604 215.542C337.604 219.189 337.604 222.837 337.604 226.595C343.876 228.419 350.147 230.243 356.609 232.122C356.609 246.712 356.609 261.303 356.609 276.335C350.337 278.159 344.066 279.983 337.604 281.862C325.553 275.342 325.553 275.342 312.661 265.973C295.511 253.577 283.527 246.696 261.586 243.175C253.14 241.333 244.693 239.491 236.247 237.649C241.661 233.324 247.075 229 252.653 224.544C259.722 218.895 266.791 213.246 273.86 207.597C279.219 203.317 279.219 203.317 284.686 198.951C301.876 185.354 301.876 185.354 318.6 171.328Z" fill="#266EAE"/>
<path d="M705.024 613.464C716.902 614.846 716.902 614.846 730.363 618.991C738.282 630.389 738.282 630.389 743.033 641.097C730.49 642.921 717.947 644.745 705.024 646.624C706.706 650.115 708.388 653.606 710.122 657.203C729.125 699.195 737.34 740.027 743.033 784.792C728.384 793.427 728.384 793.427 711.359 801.372C705.087 799.548 698.816 797.724 692.354 795.845C690.982 788.151 690.982 788.151 689.583 780.301C686.52 762.645 686.52 762.645 679.685 746.105C685.956 744.281 692.228 742.457 698.689 740.578C702.87 744.226 707.051 747.873 711.359 751.631C708.223 747.3 705.087 742.968 701.857 738.505C692.354 723.998 692.354 723.998 692.354 712.944C696.535 712.944 700.716 712.944 705.024 712.944C690.978 684.351 673.666 667.514 648.01 646.624C650.101 642.976 652.191 639.329 654.345 635.571C670.024 646.514 670.024 646.514 686.019 657.677C687.513 645.321 687.513 645.321 673.35 635.571C677.531 631.923 681.712 628.275 686.019 624.517C688.11 629.989 690.2 635.46 692.354 641.097C698.626 637.45 704.897 633.802 711.359 630.044C709.268 624.573 707.178 619.101 705.024 613.464Z" fill="#2965A0"/>
<path d="M717.695 502.93C752.382 509.011 785.505 516.782 818.929 526.893C833.576 531.095 848.179 533.949 863.396 536.09C860.391 539.965 857.386 543.841 854.29 547.834C843.838 564.612 840.568 578.047 838.057 596.884C817.152 591.412 796.247 585.941 774.709 580.303C774.709 576.656 774.709 573.008 774.709 569.25C770.528 567.426 766.347 565.602 762.039 563.723C768.311 561.9 774.582 560.076 781.044 558.197C777.532 556.986 774.021 555.774 770.403 554.527C732.451 540.033 732.451 540.033 720.863 518.128C719.817 513.113 718.772 508.097 717.695 502.93Z" fill="#436581"/>
<path d="M768.373 447.663C796.773 449.812 813.652 460.192 836.076 474.951C842.111 478.877 848.146 482.802 854.363 486.847C869.73 497.403 869.73 497.403 882.4 508.457C880.816 522.619 880.816 522.619 876.065 536.09C857.151 544.341 844.482 538.66 824.199 534.363C816.833 532.81 809.467 531.257 801.878 529.657C779.994 524.804 758.311 519.684 736.699 513.983C736.699 510.336 736.699 506.688 736.699 502.93C787.377 508.457 787.377 508.457 838.056 513.983C833.222 512.844 828.387 511.704 823.407 510.529C801.022 500.538 797.873 489.278 787.377 469.77C774.394 459.528 774.394 459.528 762.038 453.19C764.129 451.366 766.219 449.542 768.373 447.663Z" fill="#859DAA"/>
<path d="M629.007 618.99C641.676 624.517 641.676 624.517 649.595 636.607C659.277 650.181 667.3 658.087 680.477 668.731C697.092 682.58 703.634 692.312 705.025 712.944C700.844 712.944 696.663 712.944 692.355 712.944C696.667 719.1 700.978 725.255 705.421 731.597C712.77 742.089 712.77 742.089 717.694 751.631C715.604 755.279 713.513 758.926 711.36 762.684C708.485 759.949 705.611 757.213 702.649 754.394C693.138 744.855 693.138 744.855 679.685 746.104C684.585 752.089 684.585 752.089 689.584 758.194C700.048 776.057 699.092 782.669 692.355 801.371C688.174 801.371 683.993 801.371 679.685 801.371C654.346 764.066 654.346 764.066 654.346 751.631C658.527 751.631 662.708 751.631 667.016 751.631C662.562 718.166 662.562 718.166 654.346 685.311C654.346 681.663 654.346 678.015 654.346 674.257C650.165 669.014 645.984 663.77 641.676 658.368C629.007 641.097 629.007 641.097 629.007 618.99Z" fill="#619AC0"/>
<path d="M654.347 403.449C670.342 409.43 679.911 414.711 691.96 425.901C704.103 437.757 704.103 437.757 721.259 439.373C736.7 442.136 736.7 442.136 748.182 452.844C755.705 464.243 755.705 464.243 755.705 475.296C736.942 471.91 727.954 468.367 711.361 458.716C726.05 473.522 738.716 478.955 760.06 484.623C765.18 486.012 770.3 487.401 775.575 488.832C779.47 489.837 783.366 490.841 787.379 491.876C779.017 480.934 770.655 469.991 762.04 458.716C776.689 462.17 776.689 462.17 793.714 469.77C800.048 480.823 806.383 491.876 812.718 502.93C828.918 510.809 828.918 510.809 844.392 513.983C844.392 515.807 844.392 517.631 844.392 519.51C798.374 516.877 760.366 506.824 717.696 491.876C711.784 489.818 705.871 487.759 699.78 485.637C695.24 484.049 690.699 482.46 686.022 480.823C688.112 477.175 690.203 473.528 692.356 469.77C686.27 456.447 686.27 456.447 677.311 442.136C674.388 437.235 671.464 432.333 668.452 427.283C665.888 423.066 663.324 418.848 660.682 414.503C658.592 410.855 656.501 407.207 654.347 403.449Z" fill="#4C6576"/>
<path d="M746.995 529.872C757.578 530.214 757.578 530.214 768.375 530.563C770.139 535.692 770.139 535.692 771.938 540.925C785.57 558.506 802.427 559.271 825.388 563.723C825.388 569.195 825.388 574.666 825.388 580.303C806.574 577.567 806.574 577.567 787.379 574.777C804.103 582.072 820.827 589.367 838.058 596.883C825.186 619.343 817.346 627.672 793.714 641.097C773.733 643.446 765.069 642.921 748.306 632.828C744.084 629.288 739.863 625.747 735.513 622.099C718.52 607.726 718.52 607.726 698.692 596.883C700.782 593.236 702.873 589.588 705.026 585.83C717.569 588.566 717.569 588.566 730.366 591.357C726.054 587.139 721.743 582.921 717.3 578.576C713.25 573.675 709.2 568.773 705.026 563.723C707.117 558.252 709.207 552.78 711.361 547.143C727.04 552.614 727.04 552.614 743.035 558.196C743.035 554.549 743.035 550.901 743.035 547.143C732.583 545.319 722.131 543.495 711.361 541.616C724.031 530.563 724.031 530.563 746.995 529.872Z" fill="#447296"/>
<path d="M318.6 171.328C328.305 172.721 337.937 174.511 347.502 176.509C355.354 178.123 355.354 178.123 363.364 179.769C367.406 180.631 371.448 181.493 375.613 182.382C379.572 197.925 379.572 197.925 381.948 215.542C375.676 223.749 375.676 223.749 369.278 232.122C365.097 223.003 360.916 213.884 356.609 204.488C358.699 202.665 360.79 200.841 362.943 198.962C354.581 197.138 346.219 195.314 337.604 193.435C333.423 200.73 329.242 208.025 324.934 215.542C329.115 215.542 333.296 215.542 337.604 215.542C337.604 219.189 337.604 222.837 337.604 226.595C343.876 228.419 350.147 230.243 356.609 232.122C356.609 246.712 356.609 261.303 356.609 276.335C350.337 278.159 344.066 279.983 337.604 281.862C325.553 275.342 325.553 275.342 312.661 265.973C295.511 253.577 283.527 246.696 261.586 243.175C253.14 241.333 244.693 239.491 236.247 237.649C241.661 233.324 247.075 229 252.653 224.544C259.722 218.895 266.791 213.246 273.86 207.597C279.219 203.317 279.219 203.317 284.686 198.951C301.876 185.354 301.876 185.354 318.6 171.328Z" fill="#266EAE"/>
<path d="M724.029 530.563C761.658 544.242 761.658 544.242 800.047 558.197C787.504 563.668 787.504 563.668 774.708 569.25C774.708 572.898 774.708 576.546 774.708 580.304C780.457 580.988 786.206 581.672 792.129 582.376C810.118 585.394 822.383 588.995 838.056 596.884C835.966 602.355 833.875 607.827 831.722 613.464C812.321 620.027 812.321 620.027 793.713 624.517C791.753 620.414 789.793 616.31 787.774 612.082C771.382 593.015 755.968 588.644 730.735 580.8C714.926 573.498 711.338 566.989 705.025 552.67C714.432 558.142 714.432 558.142 724.029 563.724C734.517 565.851 745.075 567.747 755.704 569.25C755.704 565.603 755.704 561.955 755.704 558.197C751.523 558.197 747.342 558.197 743.034 558.197C743.034 554.549 743.034 550.902 743.034 547.144C732.581 545.32 722.129 543.496 711.36 541.617C715.541 537.969 719.722 534.322 724.029 530.563Z" fill="#4F7FA3"/>
<path d="M629.007 480.822C648.011 486.349 648.011 486.349 660.681 497.402C666.952 499.226 673.224 501.05 679.685 502.929C679.685 506.577 679.685 510.224 679.685 513.982C675.504 513.982 671.323 513.982 667.016 513.982C673.296 528.503 673.296 528.503 686.02 541.616C708.457 543.458 708.457 543.458 730.364 541.616C734.545 543.44 738.726 545.264 743.034 547.143C743.034 550.79 743.034 554.438 743.034 558.196C747.215 558.196 751.396 558.196 755.703 558.196C755.703 561.844 755.703 565.491 755.703 569.249C743.034 569.249 730.364 569.249 717.694 569.249C721.875 574.721 726.056 580.192 730.364 585.83C695.429 574.824 664.819 558.759 646.947 529.505C644.816 525.18 642.685 520.856 640.489 516.4C638.308 512.062 636.128 507.723 633.882 503.253C629.007 491.876 629.007 491.876 629.007 480.822Z" fill="#3F6385"/>
<path d="M768.373 447.663C796.773 449.812 813.652 460.192 836.076 474.951C842.111 478.877 848.146 482.802 854.363 486.847C869.73 497.403 869.73 497.403 882.4 508.457C880.816 522.619 880.816 522.619 876.065 536.09C857.151 544.341 844.482 538.66 824.199 534.363C816.833 532.81 809.467 531.257 801.878 529.657C779.994 524.804 758.311 519.684 736.699 513.983C736.699 510.336 736.699 506.688 736.699 502.93C787.377 508.457 787.377 508.457 838.056 513.983C833.222 512.844 828.387 511.704 823.407 510.529C801.022 500.538 797.873 489.278 787.377 469.77C774.394 459.528 774.394 459.528 762.038 453.19C764.129 451.366 766.219 449.542 768.373 447.663Z" fill="#859DAA"/>
<path d="M394.62 99.4805C427.768 108.542 458.931 118.213 489.642 132.641C485.461 145.407 481.28 158.174 476.973 171.328C468.611 171.328 460.249 171.328 451.633 171.328C451.633 187.742 451.633 204.156 451.633 221.068C443.271 222.892 434.909 224.715 426.294 226.595C420.022 213.828 413.751 201.061 407.289 187.908C410.425 185.514 413.561 183.12 416.792 180.654C428.398 171.342 428.398 171.342 426.294 154.747C420.022 151.1 413.751 147.452 407.289 143.694C401.049 129.194 398.279 114.705 394.62 99.4805Z" fill="#4881B5"/>
<path d="M654.347 403.449C670.342 409.43 679.911 414.711 691.96 425.901C704.103 437.757 704.103 437.757 721.259 439.373C736.7 442.136 736.7 442.136 748.182 452.844C755.705 464.243 755.705 464.243 755.705 475.296C736.942 471.91 727.954 468.367 711.361 458.716C726.05 473.522 738.716 478.955 760.06 484.623C765.18 486.012 770.3 487.401 775.575 488.832C779.47 489.837 783.366 490.841 787.379 491.876C779.017 480.934 770.655 469.991 762.04 458.716C776.689 462.17 776.689 462.17 793.714 469.77C800.048 480.823 806.383 491.876 812.718 502.93C828.918 510.809 828.918 510.809 844.392 513.983C844.392 515.807 844.392 517.631 844.392 519.51C798.374 516.877 760.366 506.824 717.696 491.876C711.784 489.818 705.871 487.759 699.78 485.637C695.24 484.049 690.699 482.46 686.022 480.823C688.112 477.175 690.203 473.528 692.356 469.77C686.27 456.447 686.27 456.447 677.311 442.136C674.388 437.235 671.464 432.333 668.452 427.283C665.888 423.066 663.324 418.848 660.682 414.503C658.592 410.855 656.501 407.207 654.347 403.449Z" fill="#4C6576"/>
<path d="M717.695 502.93C752.382 509.011 785.505 516.782 818.929 526.893C833.576 531.095 848.179 533.949 863.396 536.09C860.391 539.965 857.386 543.841 854.29 547.834C843.838 564.612 840.568 578.047 838.057 596.884C795.297 587.903 795.297 587.903 781.044 569.25C811.134 574.086 811.134 574.086 825.387 580.303C825.387 574.832 825.387 569.361 825.387 563.723C818.463 563.153 811.538 562.584 804.403 561.996C781.958 558.345 775.137 557.076 762.039 541.617C764.13 537.969 766.22 534.321 768.374 530.563C753.74 530.563 739.107 530.563 724.03 530.563C721.94 521.444 719.849 512.325 717.695 502.93Z" fill="#44637C"/>
<path d="M654.347 447.663C656.11 452.793 656.11 452.793 657.91 458.026C671.517 475.575 688.417 475.907 711.36 480.823C717.631 484.471 723.903 488.119 730.364 491.877C740.852 494.004 751.41 495.9 762.039 497.403C738.283 508.457 738.283 508.457 724.03 508.457C721.939 513.928 719.849 519.4 717.695 525.037C705.152 515.918 692.609 506.799 679.686 497.403C685.957 495.58 692.229 493.756 698.69 491.877C686.147 491.877 673.604 491.877 660.681 491.877C657.938 486.576 657.938 486.576 655.138 481.169C649.1 468.929 649.1 468.929 635.342 464.243C641.614 458.772 647.885 453.3 654.347 447.663Z" fill="#50728C"/>
<path d="M629.007 480.822C648.011 486.349 648.011 486.349 660.681 497.402C666.952 499.226 673.224 501.05 679.685 502.929C679.685 506.577 679.685 510.224 679.685 513.982C675.504 513.982 671.323 513.982 667.016 513.982C673.296 528.503 673.296 528.503 686.02 541.616C708.457 543.458 708.457 543.458 730.364 541.616C734.545 543.44 738.726 545.264 743.034 547.143C743.034 550.79 743.034 554.438 743.034 558.196C727.355 555.46 727.355 555.46 711.36 552.669C713.319 556.089 715.279 559.509 717.299 563.032C721.654 570.631 726.009 578.23 730.364 585.83C695.429 574.824 664.819 558.759 646.947 529.505C644.816 525.18 642.685 520.856 640.489 516.4C638.308 512.062 636.128 507.723 633.882 503.253C629.007 491.876 629.007 491.876 629.007 480.822Z" fill="#406182"/>
<path d="M476.972 149.221C490.84 171.69 503.198 193.396 501.123 219.341C495.587 233.088 489.731 239.506 476.972 248.701C457.02 229.781 454.408 213.095 451.632 187.908C455.813 187.908 459.994 187.908 464.302 187.908C464.302 182.436 464.302 176.965 464.302 171.328C468.483 171.328 472.664 171.328 476.972 171.328C476.972 164.032 476.972 156.737 476.972 149.221Z" fill="#919C8F"/>
<path d="M654.347 447.663C656.11 452.793 656.11 452.793 657.91 458.026C671.517 475.575 688.417 475.907 711.36 480.823C717.631 484.471 723.903 488.119 730.364 491.877C740.852 494.004 751.41 495.9 762.039 497.403C738.283 508.457 738.283 508.457 724.03 508.457C721.939 513.928 719.849 519.4 717.695 525.037C705.152 515.918 692.609 506.799 679.686 497.403C685.957 495.58 692.229 493.756 698.69 491.877C686.147 491.877 673.604 491.877 660.681 491.877C657.938 486.576 657.938 486.576 655.138 481.169C649.1 468.929 649.1 468.929 635.342 464.243C641.614 458.772 647.885 453.3 654.347 447.663Z" fill="#50728C"/>
<path d="M394.62 99.4805C427.768 108.542 458.931 118.213 489.642 132.641C485.461 145.407 481.28 158.174 476.973 171.328C468.611 171.328 460.249 171.328 451.633 171.328C451.633 187.742 451.633 204.156 451.633 221.068C445.362 222.892 439.09 224.715 432.629 226.595C432.392 221.536 432.155 216.478 431.911 211.267C431.286 201.414 431.286 201.414 430.649 191.362C430.282 184.822 429.914 178.282 429.536 171.543C428.466 166.001 427.396 160.458 426.294 154.747C420.022 151.1 413.751 147.452 407.289 143.694C401.049 129.194 398.279 114.705 394.62 99.4805Z" fill="#4A83B7"/>
<path d="M476.972 149.221C490.84 171.69 503.198 193.396 501.123 219.341C495.587 233.088 489.731 239.506 476.972 248.701C457.02 229.781 454.408 213.095 451.632 187.908C455.813 187.908 459.994 187.908 464.302 187.908C464.302 182.436 464.302 176.965 464.302 171.328C468.483 171.328 472.664 171.328 476.972 171.328C476.972 164.032 476.972 156.737 476.972 149.221Z" fill="#919C8F"/>
<path d="M743.034 420.029C777.356 423.158 799.909 439.981 826.55 457.399C846.87 470.289 863.207 479.882 888.735 480.823C892.916 477.175 897.097 473.528 901.405 469.77C932.731 466.118 961.752 468.062 990.092 480.823C990.092 482.647 990.092 484.471 990.092 486.35C984.368 486.286 978.644 486.221 972.746 486.155C961.538 486.081 961.538 486.081 950.104 486.004C942.681 485.94 935.258 485.876 927.61 485.81C907.546 485.526 907.546 485.526 888.735 491.876C890.564 498.602 892.393 505.327 894.278 512.256C896.134 524.626 896.134 524.626 895.07 536.09C877.253 549.216 877.253 549.216 866.39 555.585C853.593 566.749 853.609 575.513 851.518 591.012C847.594 613.03 842.531 624.333 823.011 639.025C790.166 657.846 755.542 655.122 717.695 652.151C720.328 657.462 720.328 657.462 723.015 662.88C740.88 700.098 755.684 733.272 743.034 773.738C740.943 773.738 738.853 773.738 736.699 773.738C735.474 768.074 734.249 762.411 732.987 756.575C731.323 749.055 729.656 741.535 727.989 734.015C727.188 730.293 726.388 726.57 725.564 722.735C720.866 701.73 714.274 682.957 705.025 663.204C705.025 657.733 705.025 652.261 705.025 646.624C721.733 639.336 735.467 640.282 754.12 639.716C787.392 637.501 787.392 637.501 816.676 624.863C834.569 604.733 836.795 590.17 840.803 565.472C844.391 552.67 844.391 552.67 861.02 538.163C865.985 535.655 870.95 533.147 876.065 530.563C874.285 511.92 871.73 504.574 855.873 491.531C849.994 487.997 844.114 484.464 838.056 480.823C831.809 477.061 825.562 473.3 819.126 469.424C794.386 455.539 769.198 442.806 743.034 431.083C743.034 427.435 743.034 423.787 743.034 420.029Z" fill="#DFE5E0"/>
<path d="M616.337 569.251C625.839 576.85 625.839 576.85 635.341 585.831C635.341 589.479 635.341 593.126 635.341 596.884C639.522 596.884 643.703 596.884 648.011 596.884C650.101 602.356 652.192 607.827 654.346 613.465C667.111 617.517 667.111 617.517 679.685 618.991C671.323 611.696 662.961 604.401 654.346 596.884C656.436 593.237 658.527 589.589 660.68 585.831C667.54 588.396 667.54 588.396 674.538 591.012C691.604 597.468 691.604 597.468 707.796 597.921C733.443 605.015 746.144 622.848 762.038 641.098C755.766 641.098 749.495 641.098 743.033 641.098C736.57 633.815 730.239 626.441 724.029 618.991C717.757 617.167 711.486 615.344 705.024 613.465C711.296 620.76 717.567 628.055 724.029 635.571C713.576 637.395 703.124 639.219 692.355 641.098C690.264 637.45 688.174 633.803 686.02 630.045C686.02 641.962 688.848 651.734 692.355 663.205C657.586 646.915 638.672 634.983 622.672 602.411C620.246 591.407 618.072 580.354 616.337 569.251Z" fill="#4382B2"/>
<path d="M616.337 480.822C620.518 480.822 624.699 480.822 629.006 480.822C642.253 496.901 649.974 513.005 657.117 531.599C663.526 548.099 663.526 548.099 678.101 559.232C682.805 560.714 687.508 562.196 692.355 563.723C700.384 568.418 708.295 573.268 716.11 578.23C719.997 580.695 723.884 583.16 727.889 585.7C730.796 587.567 733.703 589.433 736.698 591.356C734.608 595.004 732.517 598.652 730.364 602.41C722.002 598.762 713.64 595.114 705.024 591.356C715.214 600.246 726.241 608.305 737.094 616.572C741.741 620.113 746.387 623.653 751.175 627.301C754.759 630.03 758.344 632.759 762.038 635.57C755.766 637.394 749.495 639.218 743.033 641.097C738.918 635.796 738.918 635.796 734.719 630.389C724.584 617.512 724.584 617.512 705.024 613.463C705.024 617.111 705.024 620.758 705.024 624.516C700.843 624.516 696.662 624.516 692.355 624.516C692.355 620.869 692.355 617.221 692.355 613.463C676.676 607.992 676.676 607.992 660.68 602.41C660.68 585.83 660.68 585.83 667.015 580.303C664.949 577.097 662.883 573.891 660.755 570.588C616.337 501.315 616.337 501.315 616.337 480.822Z" fill="#4881AA"/>
<path d="M616.337 569.251C625.839 576.85 625.839 576.85 635.341 585.831C635.341 589.479 635.341 593.126 635.341 596.884C639.522 596.884 643.703 596.884 648.011 596.884C650.101 602.356 652.192 607.827 654.346 613.465C666.889 613.465 679.432 613.465 692.355 613.465C692.355 617.112 692.355 620.76 692.355 624.518C702.807 626.342 713.26 628.166 724.029 630.045C711.359 641.098 711.359 641.098 692.355 641.098C690.264 637.45 688.174 633.803 686.02 630.045C686.02 641.962 688.848 651.734 692.355 663.205C657.586 646.915 638.672 634.983 622.671 602.411C620.246 591.407 618.072 580.354 616.337 569.251Z" fill="#3E7EB3"/>
</g>
</svg>
