<svg width="349" height="150" viewBox="0 0 349 150" fill="none" xmlns="http://www.w3.org/2000/svg">
<path d="M0 77.375C150.946 88.572 150.946 88.572 202.715 138.169C200.624 141.816 198.534 145.464 196.38 149.222C185.601 144.264 185.601 144.264 174.604 139.205C150.922 128.819 127.171 121.218 101.852 114.464C88.6876 110.535 88.6876 110.535 75.9685 104.879C59.1684 97.6942 42.3148 94.8949 24.102 91.5372C12.6697 88.4284 12.6697 88.4284 0 77.375Z" fill="#ACC3D1"/>
<path d="M50.6774 49.7432C52.7679 53.3908 54.8584 57.0384 57.0123 60.7966C85.2339 58.0608 85.2339 58.0608 114.026 55.2699C114.026 58.9175 114.026 62.5651 114.026 66.3233C128.659 66.3233 143.293 66.3233 158.37 66.3233C158.37 62.6756 158.37 59.028 158.37 55.2699C168.822 55.2699 179.274 55.2699 190.044 55.2699C189.913 61.0833 189.782 66.8967 189.648 72.8862C189.974 90.2376 191.724 104.838 196.379 121.59C175.512 119.423 159.495 116.561 140.652 108.227C113.712 96.6185 86.0171 90.2908 57.1607 83.2488C38.9592 77.6684 27.1928 71.6755 12.6685 60.7966C25.3381 49.7432 25.3381 49.7432 50.6774 49.7432Z" fill="#3777B6"/>
<path d="M107.692 0C109.782 0 111.873 0 114.026 0C116.117 14.5905 118.207 29.181 120.361 44.2136C154.854 46.9493 154.854 46.9493 190.044 49.7403C190.044 51.5641 190.044 53.3879 190.044 55.267C179.592 55.267 169.14 55.267 158.37 55.267C158.37 58.9146 158.37 62.5622 158.37 66.3204C143.737 66.3204 129.103 66.3204 114.026 66.3204C114.026 62.6728 114.026 59.0252 114.026 55.267C95.212 58.9146 76.3976 62.5622 57.013 66.3204C54.9225 60.849 52.832 55.3775 50.6782 49.7403C37.913 45.6879 37.913 45.6879 25.3389 44.2136C29.5199 38.7422 33.7008 33.2707 38.0085 27.6335C50.8629 26.3874 63.7226 25.1595 76.6114 24.2225C90.2109 22.8989 90.2109 22.8989 100.961 10.708C103.182 7.17435 105.403 3.64071 107.692 0Z" fill="#5496CE"/>
<path d="M51.4705 75.9935C73.6639 83.417 95.7774 90.6504 118.382 97.064C144.68 104.601 170.521 112.975 196.38 121.589C194.289 117.599 192.199 113.61 190.045 109.499C183.672 93.8615 182.635 82.7419 183.71 66.3218C202.464 84.9149 208.561 103.304 215.384 127.115C221.656 125.292 227.927 123.468 234.389 121.589C234.389 125.236 234.389 128.884 234.389 132.642C272.018 134.466 309.646 136.29 348.416 138.169C348.416 139.993 348.416 141.816 348.416 143.696C251.207 153.818 177.573 136.201 88.6876 105.009C82.2038 102.8 75.72 100.592 69.0397 98.3162C45.4717 90.2493 22.5334 81.9435 0 71.8485C23.2109 65.0985 29.166 68.3429 51.4705 75.9935Z" fill="#D9E0E1"/>
<path d="M50.6774 49.7432C52.7679 53.3908 54.8584 57.0384 57.0123 60.7966C85.2339 58.0608 85.2339 58.0608 114.026 55.2699C114.026 58.9175 114.026 62.5651 114.026 66.3233C128.659 66.3233 143.293 66.3233 158.37 66.3233C158.37 62.6756 158.37 59.028 158.37 55.2699C168.822 55.2699 179.274 55.2699 190.044 55.2699C189.913 61.0833 189.782 66.8967 189.648 72.8862C189.974 90.2376 191.724 104.838 196.379 121.59C166.847 118.948 144.19 110.931 117.713 100.11C92.8233 90.7471 67.0757 83.9652 41.1999 76.9881C25.3381 71.85 25.3381 71.85 12.6685 60.7966C25.3381 49.7432 25.3381 49.7432 50.6774 49.7432Z" fill="#3676B6"/>
<path d="M107.692 0C109.782 0 111.873 0 114.026 0C116.117 14.5905 118.207 29.181 120.361 44.2136C154.854 46.9493 154.854 46.9493 190.044 49.7403C190.044 51.5641 190.044 53.3879 190.044 55.267C179.592 55.267 169.14 55.267 158.37 55.267C158.37 58.9146 158.37 62.5622 158.37 66.3204C143.737 66.3204 129.103 66.3204 114.026 66.3204C114.026 62.6728 114.026 59.0252 114.026 55.267C95.212 58.9146 76.3976 62.5622 57.013 66.3204C54.9225 60.849 52.832 55.3775 50.6782 49.7403C37.913 45.6879 37.913 45.6879 25.3389 44.2136C28.9022 33.5056 28.9022 33.5056 38.0085 22.1068C57.4042 18.4808 75.208 16.5801 95.022 16.5801C99.203 11.1087 103.384 5.63723 107.692 0Z" fill="#5998CD"/>
</svg>
